<?xml version="1.0" encoding="utf-8"?>
<!-- Generator: Adobe Illustrator 16.0.0, SVG Export Plug-In . SVG Version: 6.00 Build 0)  -->
<!DOCTYPE svg PUBLIC "-//W3C//DTD SVG 1.1//EN" "http://www.w3.org/Graphics/SVG/1.1/DTD/svg11.dtd" [
	<!ENTITY ns_flows "http://ns.adobe.com/Flows/1.0/">
	<!ENTITY ns_extend "http://ns.adobe.com/Extensibility/1.0/">
	<!ENTITY ns_ai "http://ns.adobe.com/AdobeIllustrator/10.0/">
	<!ENTITY ns_graphs "http://ns.adobe.com/Graphs/1.0/">
]>
<svg version="1.1" id="Layer_1" xmlns:x="&ns_extend;" xmlns:i="&ns_ai;" xmlns:graph="&ns_graphs;"
	 xmlns="http://www.w3.org/2000/svg" xmlns:xlink="http://www.w3.org/1999/xlink" xmlns:a="http://ns.adobe.com/AdobeSVGViewerExtensions/3.0/"
	 x="0px" y="0px" width="33.283px" height="45.438px" viewBox="0 0 33.283 45.438" enable-background="new 0 0 33.283 45.438"
	 xml:space="preserve">
<g id="Layer_1_1_" display="none">
	<g display="inline">
		<path fill="#E7A723" d="M5.762,20.167c-3.346,0-6.066-2.719-6.066-6.062c0-3.343,2.723-6.063,6.066-6.063
			c0.938,0,1.842,0.209,2.68,0.622C8.702,8.79,8.807,9.103,8.68,9.361C8.555,9.621,8.24,9.729,7.982,9.6
			c-0.695-0.342-1.441-0.515-2.22-0.515c-2.771,0-5.023,2.252-5.023,5.02c0,2.767,2.254,5.019,5.023,5.019
			c2.771,0,5.023-2.252,5.023-5.019c0-0.883-0.23-1.749-0.672-2.507c-0.146-0.25-0.061-0.568,0.189-0.713
			c0.25-0.144,0.566-0.061,0.713,0.189c0.529,0.916,0.813,1.964,0.813,3.03C11.83,17.448,9.107,20.167,5.762,20.167z"/>
	</g>
	<path display="inline" fill="#E7A723" d="M11.303,7.934c-0.229-0.177-0.559-0.135-0.732,0.091l-5.529,7.099l-1.104-2.107
		c-0.131-0.256-0.447-0.353-0.703-0.222c-0.256,0.134-0.354,0.449-0.221,0.704l1.479,2.825c0,0.002,0.002,0.002,0.004,0.004
		c0.033,0.063,0.078,0.12,0.137,0.166c0.014,0.01,0.027,0.013,0.039,0.021c0.018,0.01,0.029-0.079,0.045-0.07
		c0.076,0.039,0.168,0.062,0.25,0.062l-0.014-0.093c0.002,0,0.002,0,0.002,0c0.004,0,0.008,0.093,0.012,0.093
		c0.076-0.002,0.15,0.028,0.221-0.006c0.004-0.001,0.006,0.024,0.01,0.022c0.066-0.035,0.121-0.07,0.164-0.125
		c0.002-0.002,0.004,0.003,0.006,0.001l6.027-7.734C11.57,8.437,11.529,8.112,11.303,7.934z"/>
</g>
<g id="Layer_2" display="none">
	<path display="inline" fill="#EEA421" d="M-0.554,19.958c0-2.9,2.351-5.252,5.252-5.252c2.9,0,5.251,2.352,5.251,5.252"/>
	<circle display="inline" fill="#EEA421" cx="4.196" cy="10.413" r="2.375"/>
</g>
<g id="Layer_3" display="none">
	<g display="inline">
		<g>
			<path fill="#E7A723" d="M10.732,9.356c0,0.605-0.002,1.219,0,1.832c0.002,0.107-0.035,0.157-0.148,0.156
				c-0.611-0.002-1.227,0-1.945,0c0.225-0.215,0.365-0.373,0.533-0.504c0.199-0.156,0.137-0.25-0.023-0.392
				C7.143,8.673,4.061,8.84,2.28,10.831c-0.805,0.898-1.221,1.953-1.258,3.158c-0.015,0.383-0.188,0.6-0.489,0.6
				C0.22,14.59,0.042,14.361,0.046,13.96c0.025-2.826,2.271-5.324,5.076-5.66C6.94,8.08,8.525,8.583,9.881,9.807
				c0.139,0.123,0.209,0.133,0.33-0.006c0.143-0.163,0.307-0.307,0.461-0.458C10.676,9.34,10.691,9.347,10.732,9.356z"/>
			<path fill="#E7A723" d="M1.42,16.149c0.006,0.275-0.206,0.495-0.479,0.496c-0.271,0.002-0.497-0.224-0.495-0.49
				c0.003-0.251,0.221-0.474,0.473-0.484C1.187,15.658,1.415,15.874,1.42,16.149z"/>
			<path fill="#E7A723" d="M2.114,18.393c-0.263,0.008-0.5-0.223-0.502-0.488c-0.002-0.254,0.205-0.473,0.464-0.485
				c0.278-0.015,0.502,0.188,0.511,0.464C2.596,18.155,2.381,18.387,2.114,18.393z"/>
			<path fill="#E7A723" d="M9.688,18.393c-0.27-0.008-0.479-0.24-0.471-0.514c0.014-0.275,0.234-0.476,0.516-0.46
				c0.258,0.015,0.467,0.237,0.461,0.489C10.189,18.172,9.949,18.403,9.688,18.393z"/>
			<path fill="#E7A723" d="M3.834,19.559c-0.269-0.006-0.48-0.236-0.475-0.51c0.01-0.275,0.229-0.477,0.511-0.464
				c0.259,0.013,0.466,0.228,0.465,0.483C4.333,19.332,4.094,19.565,3.834,19.559z"/>
			<path fill="#E7A723" d="M8.443,19.075c-0.004,0.268-0.236,0.495-0.5,0.487c-0.268-0.007-0.486-0.244-0.479-0.511
				c0.014-0.26,0.225-0.462,0.484-0.465C8.227,18.585,8.445,18.802,8.443,19.075z"/>
			<path fill="#E7A723" d="M5.904,19.963c-0.271,0.002-0.495-0.224-0.492-0.492c0.002-0.27,0.231-0.49,0.5-0.483
				c0.259,0.007,0.466,0.216,0.472,0.476C6.39,19.737,6.174,19.961,5.904,19.963z"/>
		</g>
		<path fill="#E7A723" d="M8.664,15.266l0.002-0.002l-0.063-0.025c-0.016-0.005-0.021-0.012-0.037-0.017
			c-0.008-0.003-0.02-0.006-0.025-0.008L7.577,14.83l-0.05-0.01c-0.023-0.007-0.047-0.012-0.07-0.017l-0.074-0.017l-0.01,0.013
			c-0.219-0.017-0.412,0.07-0.574,0.328c-0.114,0.184-0.237,0.146-0.393,0.029c-0.514-0.387-0.981-0.82-1.382-1.324
			c-0.37-0.463-0.376-0.473,0.047-0.876c0.086-0.082,0.12-0.16,0.128-0.244l0.013-0.019l-0.025-0.078
			c-0.007-0.035,0.001-0.063-0.019-0.104c-0.055-0.127-0.104-0.255-0.157-0.384l-0.17-0.48c-0.019-0.056-0.04-0.111-0.057-0.168
			c-0.004-0.014-0.011-0.021-0.015-0.033l-0.029-0.08l-0.003,0.01c-0.089-0.174-0.231-0.197-0.438-0.16
			c-1.136,0.206-1.751,1.469-1.177,2.488c0.75,1.332,1.81,2.373,3.131,3.141c0.256,0.148,0.539,0.222,0.837,0.217
			c0.865-0.004,1.611-0.678,1.68-1.508C8.783,15.418,8.764,15.327,8.664,15.266z"/>
	</g>
</g>
<g>
	<path fill="#434343" d="M32.654,17.246c-0.128,0-0.256-0.049-0.354-0.146L16.647,1.446L0.993,17.1
		c-0.195,0.195-0.512,0.195-0.707,0s-0.195-0.512,0-0.707L16.293,0.386c0.195-0.195,0.512-0.195,0.707,0l16.007,16.007
		c0.195,0.195,0.195,0.512,0,0.707C32.91,17.197,32.782,17.246,32.654,17.246z"/>
</g>
<g>
	<path fill="#434343" d="M32.654,31.315c-0.128,0-0.256-0.049-0.354-0.146L16.647,15.516L0.993,31.169
		c-0.195,0.195-0.512,0.195-0.707,0s-0.195-0.512,0-0.707l16.007-16.007c0.195-0.195,0.512-0.195,0.707,0l16.007,16.007
		c0.195,0.195,0.195,0.512,0,0.707C32.91,31.267,32.782,31.315,32.654,31.315z"/>
</g>
<g>
	<path fill="#434343" d="M32.654,45.385c-0.128,0-0.256-0.049-0.354-0.146L16.647,29.585L0.993,45.238
		c-0.195,0.195-0.512,0.195-0.707,0s-0.195-0.512,0-0.707l16.007-16.007c0.195-0.195,0.512-0.195,0.707,0l16.007,16.007
		c0.195,0.195,0.195,0.512,0,0.707C32.91,45.336,32.782,45.385,32.654,45.385z"/>
</g>
</svg>
