<?xml version="1.0" encoding="utf-8"?>
<!-- Generator: Adobe Illustrator 16.0.0, SVG Export Plug-In . SVG Version: 6.00 Build 0)  -->
<!DOCTYPE svg PUBLIC "-//W3C//DTD SVG 1.1//EN" "http://www.w3.org/Graphics/SVG/1.1/DTD/svg11.dtd" [
	<!ENTITY ns_flows "http://ns.adobe.com/Flows/1.0/">
	<!ENTITY ns_extend "http://ns.adobe.com/Extensibility/1.0/">
	<!ENTITY ns_ai "http://ns.adobe.com/AdobeIllustrator/10.0/">
	<!ENTITY ns_graphs "http://ns.adobe.com/Graphs/1.0/">
]>
<svg version="1.1" id="Layer_1" xmlns:x="&ns_extend;" xmlns:i="&ns_ai;" xmlns:graph="&ns_graphs;"
	 xmlns="http://www.w3.org/2000/svg" xmlns:xlink="http://www.w3.org/1999/xlink" xmlns:a="http://ns.adobe.com/AdobeSVGViewerExtensions/3.0/"
	 x="0px" y="0px" width="20px" height="25px" viewBox="0 0 20 25" enable-background="new 0 0 20 25" xml:space="preserve">
<g id="facebook" display="none">
	<path display="inline" fill="#E7A723" d="M23.236,8.655l-0.172,3.72l-3.481-0.038V25h-5.105V12.338l-2.619,0.072l-0.074-3.755
		h2.482c0-1.857-0.443-6.013,1.567-7.518c2.841-2.133,7.912-0.729,7.912-0.729l-0.639,3.887c0,0-1.754-0.327-2.082-0.327
		c-0.484,0-1.442,0.196-1.442,1.384v3.303H23.236z"/>
</g>
<g id="twitter" display="none">
	<path display="inline" fill="#E7A723" d="M31.223,4.985c-0.604,0.518-1.652,1.036-1.652,1.036s0.609,3.464-1.037,7.446
		c-1.652,3.986-3.653,6.58-8.782,9.35c-5.129,2.773-8.518,2.295-10.868,1.818c-2.347-0.479-3.825-1.125-5.65-2.51
		c0,0,3.069-0.176,4.431-0.693c1.701-0.64,3.914-2.164,3.914-2.164s-1.387-0.262-3.128-1.297c-1.74-1.039-2.346-2.772-2.346-2.772
		l2.695-0.259c0,0-1.828-0.604-3.564-2.335C3.493,10.87,3.841,8.878,3.841,8.878S4.451,9.224,5.057,9.4c0.609,0.173,1.567,0,1.567,0
		s-2.262-1.3-2.61-3.982c-0.345-2.685,0.698-4.07,0.698-4.07s2.724,2.972,5.39,4.416c3.04,1.646,7.387,1.903,7.387,1.903
		s-0.382-6.032,4.435-7.358c4.087-1.124,6,1.646,6,1.646s0.782,0,1.646-0.261c0.871-0.261,2.09-0.868,2.09-0.868s0,0.434-0.26,0.955
		c-0.262,0.518-0.782,1.04-1.045,1.297c-0.263,0.261-1.129,0.779-1.129,0.779s0.604,0.176,1.303,0.088
		C31.223,3.857,32.354,3.6,32.354,3.6S31.832,4.463,31.223,4.985z"/>
</g>
<g id="youtube" display="none">
	<path display="inline" fill="#E7A723" d="M13.959,17.249l9.434-4.89l-9.434-4.92V17.249z M35.021,14.039
		c0,2.826-0.349,5.652-0.349,5.652s-0.342,2.402-1.387,3.465c-1.328,1.389-2.815,1.396-3.501,1.476C24.9,24.986,17.564,25,17.564,25
		s-9.078-0.083-11.868-0.352c-0.782-0.146-2.524-0.104-3.852-1.492c-1.049-1.063-1.388-3.465-1.388-3.465s-0.347-2.826-0.347-5.652
		v-2.65c0-2.826,0.347-5.652,0.347-5.652s0.339-2.403,1.388-3.465C3.172,0.884,4.66,0.876,5.34,0.797
		c4.889-0.355,12.216-0.355,12.216-0.355h0.016c0,0,7.329,0,12.212,0.355c0.687,0.079,2.173,0.087,3.501,1.475
		c1.045,1.062,1.387,3.465,1.387,3.465s0.348,2.826,0.348,5.652v2.65H35.021z"/>
</g>
<g id="insta" display="none">
	<g display="inline">
		<path fill="#E7A723" d="M29.708,7.989V7.971c0-1.104,0.031-2.21-0.004-3.314c-0.09-2.623-2.253-4.696-4.872-4.696H14.63v6.125
			h-1.293v-6.125h-0.892v6.125h-1.189v-6.122h-1.032v6.122H8.921V0.052C7.865,0.279,6.908,0.92,6.89,0.934
			C5.761,1.806,5.063,2.945,4.97,4.375C4.884,5.514,4.927,9.454,4.927,9.454v0.253h7.723c0.97-1.613,2.737-2.703,4.754-2.703
			c2.012,0.003,3.768,1.085,4.732,2.703h7.572V9.454V7.989z M29.708,12.056H22.9c0.016,0.167,0.025,0.329,0.025,0.499
			c0.008,3.097-2.468,5.561-5.577,5.561c-3.02-0.005-5.484-2.492-5.499-5.546c0-0.173,0.011-0.344,0.029-0.514H4.927
			c0,2.695-0.003,5.389,0,8.088C4.934,22.805,7.123,25,9.77,25c5.037,0,10.078,0,15.113,0c2.626-0.003,4.821-2.195,4.825-4.841
			C29.711,17.461,29.708,14.758,29.708,12.056z M27.462,2.989c0.007,0.521,0,1.042,0,1.563c0,0.5,0.003,0.995,0,1.494
			c-0.004,0.63-0.36,0.999-0.979,0.999c-0.996,0.003-1.987,0.003-2.977,0c-0.587,0-0.956-0.361-0.964-0.94
			c-0.006-1.045-0.006-2.088,0-3.129c0.008-0.551,0.344-0.938,0.89-0.948c1.053-0.022,2.104-0.022,3.152,0
			C27.121,2.038,27.455,2.432,27.462,2.989z"/>
		<path fill="#E7A723" d="M17.318,8.609c-2.191,0-3.969,1.777-3.969,3.969c0,2.191,1.777,3.969,3.969,3.969s3.969-1.775,3.969-3.969
			C21.287,10.387,19.511,8.609,17.318,8.609z M17.318,15.316c-1.514,0-2.741-1.225-2.741-2.738c0-1.514,1.227-2.741,2.741-2.741
			c1.515,0,2.739,1.227,2.739,2.741C20.059,14.093,18.833,15.316,17.318,15.316z"/>
	</g>
</g>
<g id="pinterest">
	<path fill="#E7A723" d="M17.219,15.688c-2.283,2.479-4.996,2.679-6.632,2.185c-1.633-0.49-2.105-1.595-2.105-1.595
		s-0.645,2.572-0.857,3.388c-0.13,0.5-0.213,1.122-0.858,2.33c-0.645,1.209-1.765,2.782-1.869,2.926
		c-0.106,0.138-0.337,0.087-0.354-0.083c-0.016-0.173-0.138-1.227-0.18-1.807c-0.04-0.579-0.032-1.655-0.014-2.088
		c0.019-0.435,0.139-1.104,0.335-1.93s1.476-6.161,1.728-7.418C5.904,10.551,5.888,8.84,6.161,7.876
		C6.435,6.912,7.438,5.77,8.402,5.674c0.967-0.099,1.693,0.332,2.01,1.022c0.313,0.688,0.295,1.336,0.078,2.263
		c-0.215,0.924-1.004,3.461-1.161,4.111c-0.157,0.648,0.244,1.572,0.668,1.947c0.492,0.434,1.971,1.121,3.349,0.1
		c1.377-1.023,2.518-2.832,2.771-5.765c0.259-2.933-0.413-4.312-1.672-5.414c-1.258-1.102-3.561-1.848-6.275-1.14
		c-2.717,0.707-4.527,3.05-4.902,5.433c-0.374,2.38,0.611,3.618,0.945,4.032c0.332,0.412,0.176,0.571,0.138,0.709
		c-0.039,0.139-0.196,0.786-0.355,1.238c-0.157,0.454-0.473,0.374-0.67,0.276c-0.196-0.098-1.375-0.631-2.025-1.792
		C0.995,12.15-0.68,9.218,1.478,5.039c2.183-4.229,7.811-5.47,11.098-4.781c3.197,0.669,5.807,2.794,6.691,5.57
		C20.15,8.604,19.503,13.21,17.219,15.688z"/>
</g>
</svg>
