<?xml version="1.0" encoding="utf-8"?>
<!-- Generator: Adobe Illustrator 16.0.0, SVG Export Plug-In . SVG Version: 6.00 Build 0)  -->
<!DOCTYPE svg PUBLIC "-//W3C//DTD SVG 1.1//EN" "http://www.w3.org/Graphics/SVG/1.1/DTD/svg11.dtd">
<svg version="1.1" id="Layer_1" xmlns="http://www.w3.org/2000/svg" xmlns:xlink="http://www.w3.org/1999/xlink" x="0px" y="0px"
	 width="19px" height="20.667px" viewBox="0 0 19 20.667" enable-background="new 0 0 19 20.667" xml:space="preserve">
<g id="Layer_3">
	<g>
		<g>
			<path fill="#EA4D00" d="M18.214,2.006c0,1.019-0.002,2.051,0,3.082c0.004,0.18-0.06,0.266-0.252,0.263
				c-1.028-0.003-2.062,0-3.272,0c0.377-0.361,0.615-0.627,0.897-0.848c0.336-0.262,0.228-0.421-0.041-0.659
				C12.173,0.859,6.988,1.14,3.992,4.488C2.638,5.999,1.938,7.775,1.875,9.802c-0.022,0.646-0.316,1.009-0.823,1.009
				c-0.529,0.002-0.826-0.382-0.821-1.059C0.273,4.999,4.049,0.795,8.773,0.23c3.059-0.37,5.727,0.476,8.006,2.537
				c0.229,0.207,0.352,0.224,0.555-0.01c0.24-0.273,0.518-0.517,0.777-0.771C18.119,1.982,18.145,1.993,18.214,2.006z"/>
			<path fill="#EA4D00" d="M2.545,13.435c0.01,0.465-0.347,0.834-0.808,0.836c-0.456,0.004-0.836-0.379-0.833-0.822
				c0.005-0.424,0.373-0.799,0.796-0.816C2.153,12.609,2.537,12.972,2.545,13.435z"/>
			<path fill="#EA4D00" d="M3.713,17.212c-0.443,0.014-0.841-0.377-0.846-0.822c-0.003-0.428,0.345-0.795,0.782-0.814
				c0.467-0.021,0.844,0.314,0.859,0.777C4.524,16.812,4.162,17.203,3.713,17.212z"/>
			<path fill="#EA4D00" d="M16.457,17.212c-0.451-0.014-0.807-0.404-0.787-0.867c0.02-0.461,0.395-0.799,0.863-0.771
				c0.434,0.025,0.785,0.398,0.773,0.822C17.3,16.841,16.896,17.228,16.457,17.212z"/>
			<path fill="#EA4D00" d="M6.606,19.173c-0.452-0.01-0.811-0.396-0.799-0.857c0.017-0.463,0.387-0.803,0.86-0.781
				c0.435,0.021,0.784,0.387,0.782,0.813C7.447,18.791,7.044,19.183,6.606,19.173z"/>
			<path fill="#EA4D00" d="M14.363,18.359c-0.008,0.449-0.398,0.832-0.842,0.816c-0.447-0.01-0.816-0.408-0.812-0.855
				c0.021-0.439,0.377-0.779,0.813-0.785C13.998,17.535,14.365,17.902,14.363,18.359z"/>
			<path fill="#EA4D00" d="M10.089,19.853c-0.452,0.006-0.833-0.375-0.827-0.826c0.003-0.453,0.388-0.824,0.841-0.813
				c0.436,0.012,0.785,0.361,0.793,0.801C10.908,19.472,10.544,19.851,10.089,19.853z"/>
		</g>
		<path fill="#EA4D00" d="M14.732,11.951l0.004-0.004l-0.105-0.043c-0.025-0.008-0.037-0.02-0.063-0.023
			c-0.014-0.01-0.03-0.012-0.043-0.018l-1.621-0.646l-0.082-0.016c-0.039-0.014-0.078-0.021-0.117-0.029L12.58,11.15l-0.018,0.021
			c-0.369-0.023-0.693,0.117-0.973,0.551c-0.188,0.314-0.396,0.244-0.654,0.055c-0.865-0.648-1.651-1.381-2.33-2.228
			C7.987,8.76,7.978,8.744,8.69,8.065c0.145-0.139,0.201-0.271,0.216-0.411l0.021-0.031L8.88,7.492c-0.012-0.06,0-0.105-0.029-0.175
			c-0.09-0.213-0.177-0.43-0.264-0.647L8.301,5.863C8.27,5.77,8.233,5.676,8.206,5.58C8.201,5.557,8.187,5.545,8.182,5.523
			L8.134,5.389L8.128,5.405C7.978,5.113,7.74,5.074,7.394,5.137c-1.909,0.347-2.946,2.471-1.98,4.188
			c1.263,2.242,3.044,3.992,5.268,5.285c0.438,0.25,0.907,0.367,1.409,0.36c1.457-0.006,2.712-1.141,2.824-2.536
			C14.936,12.207,14.9,12.052,14.732,11.951z"/>
	</g>
</g>
</svg>
