<?xml version="1.0" encoding="utf-8"?>
<!-- Generator: Adobe Illustrator 16.0.0, SVG Export Plug-In . SVG Version: 6.00 Build 0)  -->
<!DOCTYPE svg PUBLIC "-//W3C//DTD SVG 1.1//EN" "http://www.w3.org/Graphics/SVG/1.1/DTD/svg11.dtd">
<svg version="1.1" id="Layer_1" xmlns="http://www.w3.org/2000/svg" xmlns:xlink="http://www.w3.org/1999/xlink" x="0px" y="0px"
	 width="20.125px" height="20.094px" viewBox="0 0 20.125 20.094" enable-background="new 0 0 20.125 20.094" xml:space="preserve">
<rect x="2.475" y="3.713" fill="#EA4D00" width="14.851" height="1.237"/>
<polygon fill="#EA4D00" points="14.748,7.425 2.475,7.425 2.475,6.188 16.396,6.188 "/>
<polygon fill="#EA4D00" points="11.266,11.137 2.475,11.137 2.475,12.374 9.756,12.374 "/>
<polygon fill="#EA4D00" points="13.906,8.663 2.475,8.663 2.475,9.9 12.396,9.9 "/>
<rect x="2.475" y="13.611" fill="#EA4D00" width="7.185" height="1.238"/>
<path fill="#EA4D00" d="M18.563,11.197v5.93c0,0.797-0.854,1.436-1.649,1.436H2.449c-0.795,0-1.211-0.639-1.211-1.436V2.671
	c0-0.796,0.416-1.433,1.211-1.433h14.458c0.795,0,1.655,0.639,1.655,1.433v1.783L19.8,5.962V2.671C19.801,1.044,18.535,0,16.907,0
	H2.449C0.823,0,0,1.044,0,2.671v14.458C0,18.756,0.823,19.8,2.449,19.8h14.458c1.628,0,2.894-1.044,2.894-2.671V9.69L18.563,11.197z
	"/>
<path fill="#EA4D00" d="M19.305,7.262l-0.578-0.576c-0.365-0.365-0.953-0.365-1.313,0l-0.29,0.288l-0.287,0.287l-1.769,1.764
	l-4.354,4.355l-0.002,1.899l1.896-0.004l4.354-4.356l1.768-1.765l0.289-0.287l0.283-0.285C19.668,8.215,19.668,7.625,19.305,7.262z"
	/>
</svg>
