<?xml version="1.0" encoding="utf-8"?>
<!-- Generator: Adobe Illustrator 16.0.0, SVG Export Plug-In . SVG Version: 6.00 Build 0)  -->
<!DOCTYPE svg PUBLIC "-//W3C//DTD SVG 1.1//EN" "http://www.w3.org/Graphics/SVG/1.1/DTD/svg11.dtd">
<svg version="1.1" id="Layer_1" xmlns="http://www.w3.org/2000/svg" xmlns:xlink="http://www.w3.org/1999/xlink" x="0px" y="0px"
	 width="33.283px" height="46.053px" viewBox="0 0 33.283 46.053" enable-background="new 0 0 33.283 46.053" xml:space="preserve">
<g id="Layer_1_1_" display="none">
	<g display="inline">
		<path fill="#E7A723" d="M5.762,20.167c-3.346,0-6.066-2.719-6.066-6.063c0-3.343,2.723-6.063,6.066-6.063
			c0.938,0,1.842,0.209,2.68,0.622C8.702,8.79,8.807,9.103,8.68,9.361C8.555,9.621,8.24,9.729,7.982,9.6
			c-0.695-0.342-1.441-0.515-2.22-0.515c-2.771,0-5.023,2.252-5.023,5.02s2.254,5.02,5.023,5.02c2.771,0,5.023-2.252,5.023-5.02
			c0-0.883-0.23-1.749-0.672-2.507c-0.146-0.25-0.061-0.568,0.189-0.713c0.25-0.144,0.566-0.061,0.713,0.189
			c0.529,0.916,0.813,1.964,0.813,3.029C11.83,17.448,9.107,20.167,5.762,20.167z"/>
	</g>
	<path display="inline" fill="#E7A723" d="M11.303,7.934c-0.229-0.177-0.559-0.135-0.732,0.091l-5.529,7.1l-1.104-2.107
		c-0.131-0.256-0.447-0.353-0.703-0.222c-0.256,0.134-0.354,0.449-0.221,0.704l1.479,2.825c0,0.002,0.002,0.002,0.004,0.004
		c0.033,0.063,0.078,0.12,0.137,0.166c0.014,0.01,0.027,0.013,0.039,0.021c0.018,0.01,0.029-0.079,0.045-0.07
		c0.076,0.039,0.168,0.063,0.25,0.063l-0.014-0.093c0.002,0,0.002,0,0.002,0c0.004,0,0.008,0.093,0.012,0.093
		c0.076-0.002,0.15,0.028,0.221-0.006c0.004-0.001,0.006,0.023,0.01,0.021c0.066-0.035,0.121-0.069,0.164-0.125
		c0.002-0.002,0.004,0.003,0.006,0.001l6.027-7.733C11.57,8.437,11.529,8.112,11.303,7.934z"/>
</g>
<g id="Layer_2" display="none">
	<path display="inline" fill="#EEA421" d="M-0.554,19.958c0-2.9,2.351-5.252,5.252-5.252c2.9,0,5.251,2.352,5.251,5.252"/>
	<circle display="inline" fill="#EEA421" cx="4.196" cy="10.413" r="2.375"/>
</g>
<g id="Layer_3" display="none">
	<g display="inline">
		<g>
			<path fill="#E7A723" d="M10.732,9.356c0,0.605-0.002,1.22,0,1.832c0.002,0.107-0.035,0.157-0.148,0.156
				c-0.611-0.002-1.227,0-1.945,0c0.225-0.215,0.365-0.373,0.533-0.504c0.199-0.156,0.137-0.25-0.023-0.392
				C7.143,8.673,4.061,8.84,2.28,10.831c-0.805,0.897-1.221,1.953-1.258,3.158c-0.015,0.383-0.188,0.6-0.489,0.6
				C0.22,14.59,0.042,14.361,0.046,13.96c0.025-2.826,2.271-5.324,5.076-5.66C6.94,8.08,8.525,8.583,9.881,9.807
				c0.139,0.123,0.209,0.133,0.33-0.006c0.143-0.163,0.307-0.307,0.461-0.458C10.676,9.34,10.691,9.347,10.732,9.356z"/>
			<path fill="#E7A723" d="M1.42,16.149c0.006,0.275-0.206,0.495-0.479,0.496c-0.271,0.002-0.497-0.224-0.495-0.49
				c0.003-0.251,0.221-0.474,0.473-0.483C1.187,15.658,1.415,15.874,1.42,16.149z"/>
			<path fill="#E7A723" d="M2.114,18.393c-0.263,0.008-0.5-0.223-0.502-0.488c-0.002-0.254,0.205-0.473,0.464-0.484
				c0.278-0.016,0.502,0.188,0.511,0.464C2.596,18.155,2.381,18.387,2.114,18.393z"/>
			<path fill="#E7A723" d="M9.688,18.393c-0.27-0.008-0.479-0.24-0.471-0.514c0.014-0.275,0.234-0.477,0.516-0.46
				c0.258,0.015,0.467,0.237,0.461,0.489C10.189,18.172,9.949,18.403,9.688,18.393z"/>
			<path fill="#E7A723" d="M3.834,19.559c-0.269-0.006-0.48-0.235-0.475-0.51c0.01-0.275,0.229-0.478,0.511-0.464
				c0.259,0.013,0.466,0.228,0.465,0.482C4.333,19.332,4.094,19.565,3.834,19.559z"/>
			<path fill="#E7A723" d="M8.443,19.075c-0.004,0.268-0.236,0.494-0.5,0.486c-0.268-0.007-0.486-0.244-0.479-0.511
				c0.014-0.26,0.225-0.462,0.484-0.465C8.227,18.585,8.445,18.802,8.443,19.075z"/>
			<path fill="#E7A723" d="M5.904,19.963c-0.271,0.002-0.495-0.224-0.492-0.492c0.002-0.27,0.231-0.49,0.5-0.483
				c0.259,0.008,0.466,0.217,0.472,0.477C6.39,19.737,6.174,19.961,5.904,19.963z"/>
		</g>
		<path fill="#E7A723" d="M8.664,15.266l0.002-0.002L8.603,15.24c-0.016-0.006-0.021-0.013-0.037-0.018
			c-0.008-0.003-0.02-0.006-0.025-0.008L7.577,14.83l-0.05-0.011c-0.023-0.007-0.047-0.012-0.07-0.017l-0.074-0.017l-0.01,0.013
			c-0.219-0.017-0.412,0.07-0.574,0.328c-0.114,0.184-0.237,0.146-0.393,0.029c-0.514-0.388-0.981-0.82-1.382-1.324
			c-0.37-0.463-0.376-0.474,0.047-0.876c0.086-0.082,0.12-0.16,0.128-0.244l0.013-0.02l-0.025-0.077
			c-0.007-0.035,0.001-0.063-0.019-0.104c-0.055-0.127-0.104-0.255-0.157-0.384l-0.17-0.48c-0.019-0.056-0.04-0.11-0.057-0.168
			c-0.004-0.014-0.011-0.021-0.015-0.033L4.74,11.366l-0.003,0.01c-0.089-0.174-0.231-0.197-0.438-0.16
			c-1.136,0.206-1.751,1.469-1.177,2.488c0.75,1.332,1.81,2.373,3.131,3.141c0.256,0.148,0.539,0.222,0.837,0.217
			c0.865-0.004,1.611-0.678,1.68-1.508C8.783,15.418,8.764,15.327,8.664,15.266z"/>
	</g>
</g>
<g>
	<g>
		<g>
			<path opacity="0.5" fill="#231F20" d="M16.667,45.487L0.118,29.297l16.427,16.188c0.026,0.029,0.059,0.045,0.088,0.057
				c0.016,0.006,0.033,0.01,0.051,0.01s0.035-0.004,0.049-0.008c0.031-0.014,0.063-0.029,0.09-0.059l16.429-16.188L16.667,45.487z"
				/>
			<g opacity="0.1">
				<path d="M33.251,29.297L16.822,45.485c-0.026,0.029-0.059,0.045-0.09,0.059c-0.014,0.004-0.031,0.008-0.049,0.008
					s-0.035-0.004-0.051-0.01c-0.029-0.012-0.062-0.027-0.088-0.057L0.118,29.297l16.55,16.189L33.251,29.297 M33.181,29.226
					L16.667,45.347L0.188,29.226l-0.141,0.143l16.427,16.188c0.036,0.041,0.084,0.063,0.121,0.078
					c0.03,0.012,0.06,0.017,0.088,0.017c0.023,0,0.049-0.004,0.076-0.012c0.041-0.017,0.094-0.039,0.137-0.087l16.425-16.184
					L33.181,29.226L33.181,29.226z"/>
			</g>
			<g opacity="0.11">
				<path d="M33.251,29.297L16.822,45.485c-0.026,0.029-0.059,0.045-0.09,0.059c-0.014,0.004-0.031,0.008-0.049,0.008
					s-0.035-0.004-0.051-0.01c-0.029-0.012-0.062-0.027-0.088-0.057L0.118,29.297l16.55,16.189L33.251,29.297 M33.11,29.154
					L16.667,45.207L0.257,29.155l-0.28,0.285l16.427,16.188c0.047,0.053,0.111,0.082,0.154,0.1c0.044,0.017,0.085,0.024,0.125,0.024
					h0.028l0.075-0.016c0.059-0.023,0.126-0.054,0.184-0.117L33.392,29.44L33.11,29.154L33.11,29.154z"/>
			</g>
			<g opacity="0.13">
				<path d="M33.251,29.297L16.822,45.485c-0.026,0.029-0.059,0.045-0.09,0.059c-0.014,0.004-0.031,0.008-0.049,0.008
					s-0.035-0.004-0.051-0.01c-0.029-0.012-0.062-0.027-0.088-0.057L0.118,29.297l16.55,16.189L33.251,29.297 M33.04,29.082
					L16.667,45.067L0.328,29.082l-0.421,0.429l16.427,16.188c0.057,0.063,0.135,0.101,0.188,0.121
					c0.057,0.021,0.109,0.031,0.162,0.031h0.042l0.089-0.02c0.098-0.039,0.167-0.075,0.23-0.146l16.417-16.175L33.04,29.082
					L33.04,29.082z"/>
			</g>
			<g opacity="0.14">
				<path d="M33.251,29.297L16.822,45.485c-0.026,0.029-0.059,0.045-0.09,0.059c-0.014,0.004-0.031,0.008-0.049,0.008
					s-0.035-0.004-0.051-0.01c-0.029-0.012-0.062-0.027-0.088-0.057L0.118,29.297l16.55,16.189L33.251,29.297 M32.972,29.011
					L16.667,44.927L0.397,29.011l-0.561,0.571L16.264,45.77c0.075,0.085,0.184,0.129,0.22,0.143c0.07,0.026,0.135,0.039,0.199,0.039
					h0.056l0.104-0.023l0.025-0.008l0.024-0.011c0.065-0.028,0.15-0.072,0.227-0.157l16.412-16.17L32.972,29.011L32.972,29.011z"/>
			</g>
			<g opacity="0.16">
				<path d="M33.251,29.297L16.822,45.485c-0.026,0.029-0.059,0.045-0.09,0.059c-0.014,0.004-0.031,0.008-0.049,0.008
					s-0.035-0.004-0.051-0.01c-0.029-0.012-0.062-0.027-0.088-0.057L0.118,29.297l16.55,16.189L33.251,29.297 M32.901,28.94
					L16.667,44.787L0.467,28.94l-0.7,0.714l16.427,16.188c0.087,0.098,0.212,0.148,0.253,0.164c0.084,0.032,0.16,0.046,0.236,0.046
					h0.07l0.116-0.027l0.032-0.009l0.03-0.014c0.075-0.032,0.172-0.083,0.262-0.182l16.406-16.166L32.901,28.94L32.901,28.94z"/>
			</g>
			<g opacity="0.18">
				<path d="M33.251,29.297L16.822,45.485c-0.026,0.029-0.059,0.045-0.09,0.059c-0.014,0.004-0.031,0.008-0.049,0.008
					s-0.035-0.004-0.051-0.01c-0.029-0.012-0.062-0.027-0.088-0.057L0.118,29.297l16.55,16.189L33.251,29.297 M32.831,28.867
					l-16.164,15.78L0.538,28.868l-0.841,0.856l16.427,16.188c0.059,0.066,0.16,0.136,0.286,0.186
					c0.097,0.037,0.185,0.053,0.273,0.053h0.084l0.13-0.03l0.039-0.012l0.036-0.016c0.077-0.034,0.193-0.092,0.296-0.207
					l16.402-16.161L32.831,28.867L32.831,28.867z"/>
			</g>
		</g>
		<path fill="#FFFFFF" d="M33.272,28.873c-0.051-0.051-0.348-0.066-0.418,0.004L16.683,44.811L0.481,28.84
			c-0.07-0.07-0.406-0.098-0.464-0.023c-0.048,0.063,0.012,0.348,0.081,0.42l16.445,16.205c0.026,0.027,0.058,0.045,0.088,0.055
			c0.016,0.008,0.032,0.01,0.052,0.01c0.017,0,0.033-0.002,0.049-0.008c0.031-0.012,0.063-0.029,0.089-0.057l16.444-16.205
			C33.337,29.164,33.323,28.924,33.272,28.873z"/>
	</g>
	<g>
		<g>
			<path opacity="0.5" fill="#231F20" d="M16.667,30.845L0.118,14.654l16.427,16.189c0.026,0.027,0.059,0.043,0.088,0.055
				c0.016,0.008,0.033,0.01,0.051,0.01s0.035-0.002,0.049-0.008c0.031-0.014,0.063-0.029,0.09-0.057l16.429-16.189L16.667,30.845z"
				/>
			<g opacity="0.1">
				<path d="M33.251,14.654L16.822,30.843c-0.026,0.027-0.059,0.043-0.09,0.057c-0.014,0.006-0.031,0.008-0.049,0.008
					s-0.035-0.002-0.051-0.01c-0.029-0.012-0.062-0.027-0.088-0.055L0.118,14.654l16.55,16.191L33.251,14.654 M33.181,14.582
					L16.667,30.705L0.188,14.582l-0.141,0.143l16.427,16.189c0.039,0.04,0.085,0.062,0.121,0.076
					c0.029,0.015,0.064,0.017,0.088,0.017c0.034,0,0.063-0.005,0.088-0.016c0.042-0.019,0.085-0.04,0.123-0.079l16.427-16.188
					L33.181,14.582L33.181,14.582z"/>
			</g>
			<g opacity="0.11">
				<path d="M33.251,14.654L16.822,30.843c-0.026,0.027-0.059,0.043-0.09,0.057c-0.014,0.006-0.031,0.008-0.049,0.008
					s-0.035-0.002-0.051-0.01c-0.029-0.012-0.062-0.027-0.088-0.055L0.118,14.654l16.55,16.191L33.251,14.654 M33.11,14.51
					L16.667,30.566L0.257,14.51l-0.28,0.286l16.427,16.189c0.051,0.053,0.112,0.081,0.154,0.098
					c0.026,0.014,0.072,0.024,0.125,0.024h0.041l0.087-0.024c0.049-0.021,0.104-0.05,0.154-0.102l16.426-16.186L33.11,14.51
					L33.11,14.51z"/>
			</g>
			<g opacity="0.13">
				<path d="M33.251,14.654L16.822,30.843c-0.026,0.027-0.059,0.043-0.09,0.057c-0.014,0.006-0.031,0.008-0.049,0.008
					s-0.035-0.002-0.051-0.01c-0.029-0.012-0.062-0.027-0.088-0.055L0.118,14.654l16.55,16.191L33.251,14.654 M33.04,14.439
					L16.667,30.425L0.328,14.439l-0.421,0.428l16.427,16.189c0.063,0.064,0.137,0.1,0.188,0.119
					c0.033,0.018,0.094,0.031,0.162,0.031h0.062l0.105-0.032c0.06-0.025,0.126-0.06,0.188-0.124l16.424-16.184L33.04,14.439
					L33.04,14.439z"/>
			</g>
			<g opacity="0.14">
				<path d="M33.251,14.654L16.822,30.843c-0.026,0.027-0.059,0.043-0.09,0.057c-0.014,0.006-0.031,0.008-0.049,0.008
					s-0.035-0.002-0.051-0.01c-0.029-0.012-0.062-0.027-0.088-0.055L0.118,14.654l16.55,16.191L33.251,14.654 M32.972,14.367
					L16.667,30.285L0.397,14.367l-0.561,0.571l16.427,16.19c0.084,0.086,0.187,0.127,0.221,0.141
					c0.039,0.021,0.116,0.039,0.199,0.039h0.082l0.124-0.041c0.065-0.028,0.146-0.069,0.221-0.146l16.422-16.182L32.972,14.367
					L32.972,14.367z"/>
			</g>
			<g opacity="0.16">
				<path d="M33.251,14.654L16.822,30.843c-0.026,0.027-0.059,0.043-0.09,0.057c-0.014,0.006-0.031,0.008-0.049,0.008
					s-0.035-0.002-0.051-0.01c-0.029-0.012-0.062-0.027-0.088-0.055L0.118,14.654l16.55,16.191L33.251,14.654 M32.901,14.296
					l-16.234,15.85l-16.2-15.85l-0.7,0.713l16.427,16.19c0.062,0.064,0.147,0.12,0.253,0.162c0.045,0.024,0.138,0.046,0.236,0.046
					h0.103l0.144-0.048c0.074-0.033,0.166-0.08,0.253-0.17l16.418-16.18L32.901,14.296L32.901,14.296z"/>
			</g>
			<g opacity="0.18">
				<path d="M33.251,14.654L16.822,30.843c-0.026,0.027-0.059,0.043-0.09,0.057c-0.014,0.006-0.031,0.008-0.049,0.008
					s-0.035-0.002-0.051-0.01c-0.029-0.012-0.062-0.027-0.088-0.055L0.118,14.654l16.55,16.191L33.251,14.654 M32.831,14.224
					L16.667,30.006L0.538,14.225l-0.841,0.856l16.427,16.19c0.07,0.072,0.167,0.137,0.286,0.184
					c0.052,0.028,0.159,0.053,0.273,0.053h0.123l0.162-0.056c0.077-0.034,0.185-0.088,0.285-0.191l16.418-16.179L32.831,14.224
					L32.831,14.224z"/>
			</g>
		</g>
		<path fill="#FFFFFF" d="M33.272,14.232c-0.051-0.051-0.348-0.066-0.418,0.004L16.683,30.169L0.481,14.197
			c-0.07-0.07-0.406-0.096-0.464-0.021c-0.048,0.063,0.012,0.348,0.081,0.418l16.445,16.205c0.026,0.027,0.058,0.045,0.088,0.055
			c0.016,0.008,0.032,0.012,0.052,0.012c0.017,0,0.033-0.004,0.049-0.01c0.031-0.012,0.063-0.029,0.089-0.057l16.444-16.205
			C33.337,14.523,33.323,14.282,33.272,14.232z"/>
	</g>
	<g>
		<g>
			<path opacity="0.5" fill="#231F20" d="M16.667,16.41L0.118,0.221l16.427,16.188c0.026,0.029,0.059,0.045,0.088,0.057
				c0.016,0.008,0.033,0.01,0.051,0.01s0.035-0.002,0.049-0.008c0.031-0.014,0.063-0.029,0.09-0.059L33.251,0.221L16.667,16.41z"/>
			<g opacity="0.1">
				<path d="M33.251,0.221L16.822,16.408c-0.026,0.029-0.059,0.045-0.09,0.059c-0.014,0.006-0.031,0.008-0.049,0.008
					s-0.035-0.002-0.051-0.01c-0.029-0.012-0.062-0.027-0.088-0.057L0.118,0.221l16.55,16.189L33.251,0.221 M33.181,0.149
					L16.667,16.271L0.188,0.15L0.047,0.292L16.474,16.48c0.036,0.041,0.084,0.063,0.121,0.078c0.029,0.015,0.064,0.017,0.088,0.017
					c0.034,0,0.063-0.005,0.088-0.016c0.029-0.013,0.082-0.036,0.125-0.083L33.321,0.292L33.181,0.149L33.181,0.149z"/>
			</g>
			<g opacity="0.11">
				<path d="M33.251,0.221L16.822,16.408c-0.026,0.029-0.059,0.045-0.09,0.059c-0.014,0.006-0.031,0.008-0.049,0.008
					s-0.035-0.002-0.051-0.01c-0.029-0.012-0.062-0.027-0.088-0.057L0.118,0.221l16.55,16.189L33.251,0.221 M33.11,0.078
					L16.667,16.131L0.257,0.078l-0.28,0.286l16.427,16.188c0.047,0.052,0.111,0.083,0.154,0.1c0.026,0.014,0.072,0.024,0.125,0.024
					h0.041l0.087-0.024c0.034-0.015,0.102-0.044,0.159-0.108L33.392,0.364L33.11,0.078L33.11,0.078z"/>
			</g>
			<g opacity="0.13">
				<path d="M33.251,0.221L16.822,16.408c-0.026,0.029-0.059,0.045-0.09,0.059c-0.014,0.006-0.031,0.008-0.049,0.008
					s-0.035-0.002-0.051-0.01c-0.029-0.012-0.062-0.027-0.088-0.057L0.118,0.221l16.55,16.189L33.251,0.221 M33.04,0.006
					L16.667,15.991L0.328,0.007l-0.421,0.428l16.427,16.188c0.057,0.063,0.135,0.1,0.188,0.121c0.033,0.018,0.094,0.031,0.162,0.031
					h0.062l0.105-0.032c0.062-0.027,0.131-0.063,0.194-0.134L33.462,0.435L33.04,0.006L33.04,0.006z"/>
			</g>
			<g opacity="0.14">
				<path d="M33.251,0.221L16.822,16.408c-0.026,0.029-0.059,0.045-0.09,0.059c-0.014,0.006-0.031,0.008-0.049,0.008
					s-0.035-0.002-0.051-0.01c-0.029-0.012-0.062-0.027-0.088-0.057L0.118,0.221l16.55,16.189L33.251,0.221 M32.972-0.065
					L16.667,15.851L0.397-0.065l-0.561,0.571l16.428,16.188c0.075,0.085,0.184,0.128,0.22,0.143
					c0.039,0.021,0.116,0.038,0.199,0.038h0.082l0.124-0.04c0.068-0.03,0.153-0.074,0.229-0.159L33.53,0.506L32.972-0.065
					L32.972-0.065z"/>
			</g>
			<g opacity="0.16">
				<path d="M33.251,0.221L16.822,16.408c-0.026,0.029-0.059,0.045-0.09,0.059c-0.014,0.006-0.031,0.008-0.049,0.008
					s-0.035-0.002-0.051-0.01c-0.029-0.012-0.062-0.027-0.088-0.057L0.118,0.221l16.55,16.189L33.251,0.221 M32.901-0.137
					L16.667,15.711L0.467-0.136l-0.7,0.713l16.427,16.188c0.087,0.099,0.212,0.148,0.253,0.165c0.045,0.024,0.138,0.045,0.236,0.045
					h0.103l0.144-0.048c0.078-0.034,0.175-0.084,0.265-0.184L33.601,0.577L32.901-0.137L32.901-0.137z"/>
			</g>
			<g opacity="0.18">
				<path d="M33.251,0.221L16.822,16.408c-0.026,0.029-0.059,0.045-0.09,0.059c-0.014,0.006-0.031,0.008-0.049,0.008
					s-0.035-0.002-0.051-0.01c-0.029-0.012-0.062-0.027-0.088-0.057L0.118,0.221l16.55,16.189L33.251,0.221 M32.831-0.208
					l-16.164,15.78L0.538-0.208l-0.841,0.856l16.427,16.188c0.059,0.066,0.16,0.136,0.286,0.187
					c0.052,0.028,0.159,0.053,0.273,0.053h0.123l0.162-0.057c0.081-0.035,0.197-0.094,0.3-0.208L33.671,0.648L32.831-0.208
					L32.831-0.208z"/>
			</g>
		</g>
		<path fill="#FFFFFF" d="M33.272-0.203c-0.051-0.051-0.348-0.066-0.418,0.004L16.683,15.737L0.481-0.236
			c-0.07-0.07-0.406-0.098-0.464-0.021C-0.031-0.197,0.029,0.09,0.098,0.158l16.445,16.207c0.026,0.027,0.058,0.045,0.088,0.055
			c0.016,0.008,0.032,0.01,0.052,0.01c0.017,0,0.033-0.002,0.049-0.008c0.031-0.012,0.063-0.029,0.089-0.057L33.265,0.158
			C33.337,0.09,33.323-0.152,33.272-0.203z"/>
	</g>
</g>
</svg>
