<?xml version="1.0" encoding="utf-8"?>
<!-- Generator: Adobe Illustrator 16.0.0, SVG Export Plug-In . SVG Version: 6.00 Build 0)  -->
<!DOCTYPE svg PUBLIC "-//W3C//DTD SVG 1.1//EN" "http://www.w3.org/Graphics/SVG/1.1/DTD/svg11.dtd">
<svg version="1.1" id="Layer_1" xmlns="http://www.w3.org/2000/svg" xmlns:xlink="http://www.w3.org/1999/xlink" x="0px" y="0px"
	 width="66.333px" height="79.454px" viewBox="0 0 66.333 79.454" enable-background="new 0 0 66.333 79.454" xml:space="preserve">
<g id="Layer_1_1_" display="none">
	<g display="inline">
		<path fill="#E7A723" d="M5.762,20.167c-3.344,0-6.066-2.719-6.066-6.062s2.723-6.063,6.066-6.063c0.939,0,1.842,0.209,2.68,0.622
			C8.702,8.79,8.807,9.103,8.68,9.361C8.555,9.621,8.24,9.729,7.982,9.6c-0.695-0.342-1.441-0.515-2.22-0.515
			c-2.77,0-5.023,2.252-5.023,5.02c0,2.767,2.254,5.019,5.023,5.019c2.771,0,5.025-2.252,5.025-5.019
			c0-0.883-0.232-1.749-0.672-2.507c-0.146-0.25-0.061-0.568,0.189-0.713c0.25-0.144,0.568-0.061,0.713,0.189
			c0.531,0.916,0.813,1.964,0.813,3.03C11.83,17.448,9.107,20.167,5.762,20.167z"/>
	</g>
	<path display="inline" fill="#E7A723" d="M11.303,7.934c-0.229-0.177-0.557-0.135-0.732,0.091l-5.529,7.099l-1.104-2.107
		c-0.131-0.256-0.447-0.353-0.703-0.222c-0.256,0.134-0.354,0.449-0.221,0.704l1.479,2.825c0,0.002,0.002,0.002,0.004,0.004
		c0.033,0.063,0.078,0.12,0.137,0.166c0.012,0.01,0.027,0.013,0.039,0.021c0.016,0.01,0.029-0.079,0.045-0.07
		c0.076,0.039,0.168,0.062,0.25,0.062l-0.014-0.093c0.002,0,0.002,0,0.002,0c0.004,0,0.008,0.093,0.012,0.093
		c0.076-0.002,0.15,0.028,0.219-0.006c0.004-0.001,0.006,0.024,0.01,0.022c0.066-0.035,0.121-0.07,0.164-0.125
		c0.002-0.002,0.004,0.003,0.006,0.001l6.027-7.734C11.57,8.437,11.529,8.112,11.303,7.934z"/>
</g>
<g id="Layer_2" display="none">
	<path display="inline" fill="#EEA421" d="M-0.554,19.958c0-2.9,2.351-5.252,5.252-5.252c2.9,0,5.251,2.352,5.251,5.252"/>
	<circle display="inline" fill="#EEA421" cx="4.196" cy="10.413" r="2.375"/>
</g>
<g id="Layer_3" display="none">
	<g display="inline">
		<g>
			<path fill="#E7A723" d="M10.732,9.356c0,0.605-0.002,1.219,0,1.832c0.002,0.107-0.035,0.157-0.148,0.156
				c-0.613-0.002-1.227,0-1.947,0c0.225-0.215,0.367-0.373,0.535-0.504c0.199-0.156,0.135-0.25-0.025-0.392
				C7.143,8.673,4.061,8.84,2.28,10.831c-0.805,0.898-1.221,1.953-1.258,3.158c-0.013,0.383-0.188,0.6-0.489,0.6
				C0.22,14.59,0.042,14.361,0.046,13.96c0.025-2.826,2.269-5.324,5.076-5.66C6.94,8.08,8.525,8.583,9.881,9.807
				c0.137,0.123,0.209,0.133,0.33-0.006c0.141-0.163,0.305-0.307,0.461-0.458C10.676,9.34,10.691,9.347,10.732,9.356z"/>
			<path fill="#E7A723" d="M1.42,16.149c0.006,0.275-0.206,0.495-0.48,0.496c-0.271,0.002-0.497-0.224-0.495-0.49
				c0.003-0.251,0.221-0.474,0.473-0.484C1.187,15.658,1.415,15.874,1.42,16.149z"/>
			<path fill="#E7A723" d="M2.114,18.393c-0.263,0.008-0.5-0.223-0.502-0.488c-0.002-0.254,0.205-0.473,0.464-0.485
				c0.278-0.015,0.502,0.188,0.511,0.464C2.596,18.155,2.381,18.387,2.114,18.393z"/>
			<path fill="#E7A723" d="M9.688,18.393c-0.268-0.008-0.479-0.24-0.469-0.514c0.012-0.275,0.234-0.476,0.514-0.46
				c0.258,0.015,0.467,0.237,0.461,0.489C10.189,18.172,9.949,18.403,9.688,18.393z"/>
			<path fill="#E7A723" d="M3.834,19.559c-0.269-0.006-0.482-0.236-0.475-0.51c0.01-0.275,0.23-0.477,0.511-0.464
				c0.259,0.013,0.466,0.228,0.465,0.483C4.333,19.332,4.094,19.565,3.834,19.559z"/>
			<path fill="#E7A723" d="M8.443,19.075c-0.004,0.268-0.236,0.495-0.5,0.487c-0.266-0.007-0.486-0.244-0.477-0.511
				c0.012-0.26,0.223-0.462,0.484-0.465C8.227,18.585,8.445,18.802,8.443,19.075z"/>
			<path fill="#E7A723" d="M5.904,19.963c-0.269,0.002-0.495-0.224-0.492-0.492c0.002-0.27,0.231-0.49,0.5-0.481
				c0.259,0.007,0.466,0.216,0.472,0.476C6.39,19.737,6.174,19.961,5.904,19.963z"/>
		</g>
		<path fill="#E7A723" d="M8.664,15.266l0.002-0.002l-0.064-0.025c-0.014-0.005-0.021-0.012-0.037-0.017
			c-0.008-0.003-0.018-0.006-0.025-0.008L7.577,14.83l-0.05-0.01c-0.023-0.007-0.047-0.012-0.07-0.017l-0.074-0.017l-0.01,0.013
			c-0.219-0.017-0.412,0.07-0.574,0.328c-0.116,0.184-0.239,0.146-0.393,0.029c-0.514-0.387-0.981-0.82-1.382-1.324
			c-0.37-0.463-0.376-0.473,0.047-0.876c0.086-0.082,0.12-0.16,0.128-0.244l0.013-0.019l-0.027-0.078
			c-0.007-0.035,0.001-0.063-0.017-0.104c-0.055-0.127-0.105-0.255-0.157-0.384l-0.17-0.48c-0.019-0.056-0.04-0.111-0.057-0.168
			c-0.004-0.014-0.011-0.021-0.015-0.033l-0.029-0.08l-0.003,0.01c-0.089-0.174-0.231-0.197-0.436-0.16
			c-1.136,0.206-1.751,1.469-1.177,2.488c0.75,1.332,1.808,2.373,3.131,3.141c0.256,0.148,0.539,0.222,0.837,0.217
			c0.865-0.004,1.611-0.678,1.678-1.508C8.783,15.418,8.764,15.327,8.664,15.266z"/>
	</g>
</g>
<path fill="#53682B" d="M65.488,33c0-17.674-14.327-32-32-32c-17.674,0-32,14.326-32,32c0,15.061,10.408,27.686,24.422,31.09
	c4.053,7.885,7.785,14.285,7.785,14.285s3.769-6.459,7.845-14.398C55.314,60.407,65.488,47.893,65.488,33z"/>
<g>
	<path fill="#FFFFFF" d="M16.68,27.347c-1.182,0-2.111,0.419-2.788,1.257c-0.677,0.837-1.016,1.994-1.016,3.468
		c0,1.543,0.326,2.711,0.977,3.503c0.651,0.792,1.593,1.188,2.827,1.188c0.534,0,1.05-0.053,1.549-0.159
		c0.499-0.106,1.018-0.242,1.558-0.409v1.764c-0.987,0.373-2.105,0.559-3.356,0.559c-1.842,0-3.256-0.558-4.243-1.674
		c-0.987-1.116-1.48-2.712-1.48-4.789c0-1.308,0.239-2.453,0.718-3.434s1.172-1.733,2.079-2.255
		c0.906-0.522,1.971-0.783,3.193-0.783c1.285,0,2.473,0.27,3.563,0.809l-0.74,1.712c-0.425-0.201-0.874-0.377-1.347-0.529
		C17.7,27.423,17.202,27.347,16.68,27.347z"/>
	<path fill="#FFFFFF" d="M32.42,38.346h-2.065v-5.671h-5.8v5.671h-2.057V25.764h2.057v5.146h5.8v-5.146h2.065V38.346z"/>
	<path fill="#FFFFFF" d="M44.064,29.568c0,1.313-0.431,2.321-1.291,3.021c-0.86,0.7-2.085,1.05-3.675,1.05H37.79v4.708h-2.057
		V25.764h3.623c1.572,0,2.75,0.322,3.533,0.964C43.672,27.37,44.064,28.317,44.064,29.568z M37.79,31.909h1.094
		c1.055,0,1.83-0.184,2.323-0.551s0.74-0.941,0.74-1.721c0-0.723-0.222-1.262-0.663-1.618c-0.441-0.355-1.13-0.534-2.064-0.534
		h-1.43V31.909z"/>
	<path fill="#FFFFFF" d="M51.723,31.521h4.631v6.317c-0.758,0.247-1.485,0.422-2.182,0.525c-0.697,0.104-1.451,0.155-2.26,0.155
		c-1.904,0-3.373-0.563-4.406-1.691s-1.549-2.718-1.549-4.772c0-2.025,0.582-3.61,1.746-4.755c1.166-1.145,2.77-1.717,4.812-1.717
		c1.313,0,2.559,0.252,3.735,0.757l-0.723,1.713c-1.021-0.471-2.043-0.706-3.064-0.706c-1.342,0-2.404,0.422-3.184,1.265
		c-0.781,0.843-1.171,1.997-1.171,3.459c0,1.538,0.351,2.707,1.054,3.507c0.703,0.8,1.715,1.2,3.034,1.2
		c0.665,0,1.377-0.083,2.134-0.25v-3.244h-2.607V31.521z"/>
</g>
</svg>
