<?xml version="1.0" encoding="utf-8"?>
<!-- Generator: Adobe Illustrator 16.0.0, SVG Export Plug-In . SVG Version: 6.00 Build 0)  -->
<!DOCTYPE svg PUBLIC "-//W3C//DTD SVG 1.1//EN" "http://www.w3.org/Graphics/SVG/1.1/DTD/svg11.dtd">
<svg version="1.1" id="Layer_1" xmlns="http://www.w3.org/2000/svg" xmlns:xlink="http://www.w3.org/1999/xlink" x="0px" y="0px"
	 width="55px" height="55px" viewBox="0 0 55 55" enable-background="new 0 0 55 55" xml:space="preserve">
<g>
	<circle cx="27.5" cy="27.5" r="26.286"/>
	<path fill="#E7A723" d="M27.5,54.786c-15.045,0-27.286-12.24-27.286-27.286c0-15.045,12.24-27.286,27.286-27.286
		S54.786,12.455,54.786,27.5C54.786,42.546,42.545,54.786,27.5,54.786z M27.5,2.214C13.557,2.214,2.214,13.557,2.214,27.5
		c0,13.941,11.343,25.286,25.286,25.286c13.943,0,25.287-11.345,25.287-25.286C52.786,13.557,41.441,2.214,27.5,2.214z"/>
</g>
<g>
	<path fill="#FFFFFF" d="M39.721,18.179c-0.65,0-1.178,0.441-1.178,0.988v4.391H15.909v-8.134c0-0.546-0.527-0.989-1.177-0.989
		c-0.649,0-1.177,0.443-1.177,0.989v12.088h2.354v-1.978h22.634v1.977h2.354v-8.344C40.896,18.621,40.371,18.179,39.721,18.179z"/>
</g>
<g>
	<circle fill="#FFFFFF" cx="18.916" cy="20.875" r="2.224"/>
</g>
<g>
	<path fill="#FFFFFF" d="M21.502,22.875L21.502,22.875c0-1.543,0.665-2.793,1.484-2.793h13.43c0.82,0,1.484,1.251,1.484,2.793l0,0"
		/>
</g>
<g>
	<path fill="#FFFFFF" d="M37.654,37.372h2.627v3.584c-0.43,0.141-0.843,0.24-1.238,0.299c-0.395,0.059-0.822,0.088-1.281,0.088
		c-1.082,0-1.914-0.32-2.5-0.959c-0.586-0.641-0.879-1.543-0.879-2.708c0-1.149,0.33-2.048,0.99-2.698
		c0.661-0.648,1.571-0.974,2.729-0.974c0.745,0,1.452,0.144,2.12,0.43l-0.41,0.972c-0.58-0.267-1.159-0.399-1.739-0.399
		c-0.762,0-1.364,0.239-1.807,0.718c-0.443,0.479-0.664,1.133-0.664,1.963c0,0.872,0.198,1.536,0.598,1.989
		c0.399,0.455,0.974,0.683,1.722,0.683c0.377,0,0.781-0.048,1.211-0.143v-1.841h-1.48v-1.003H37.654z"/>
	<path fill="#FFFFFF" d="M18.347,35.004c-0.671,0-1.198,0.236-1.582,0.713s-0.576,1.131-0.576,1.968
		c0,0.876,0.185,1.538,0.554,1.987s0.904,0.674,1.604,0.674c0.303,0,0.596-0.029,0.879-0.09c0.282-0.061,0.578-0.139,0.884-0.232
		v1.002c-0.561,0.211-1.195,0.316-1.904,0.316c-1.045,0-1.847-0.316-2.406-0.949c-0.561-0.634-0.84-1.539-0.84-2.718
		c0-0.742,0.135-1.392,0.407-1.948c0.272-0.556,0.665-0.982,1.179-1.279c0.515-0.295,1.119-0.443,1.813-0.443
		c0.729,0,1.402,0.152,2.021,0.459l-0.42,0.972c-0.242-0.114-0.496-0.214-0.765-0.301C18.924,35.047,18.643,35.004,18.347,35.004z"
		/>
	<path fill="#FFFFFF" d="M33.43,36.264c0,0.745-0.244,1.316-0.732,1.714c-0.489,0.397-1.184,0.597-2.085,0.597H29.87v2.67h-1.167
		v-7.139h2.057c0.892,0,1.56,0.184,2.004,0.547C33.207,35.017,33.43,35.554,33.43,36.264z M29.869,37.592h0.62
		c0.599,0,1.039-0.104,1.317-0.313c0.279-0.209,0.42-0.535,0.42-0.978c0-0.41-0.125-0.716-0.375-0.918
		C31.6,35.182,31.21,35.08,30.68,35.08h-0.812L29.869,37.592L29.869,37.592z"/>
	<path fill="#FFFFFF" d="M27.279,41.244h-1.172v-3.219h-3.291v3.219h-1.168v-7.139h1.168v2.92h3.291v-2.92h1.172V41.244z"/>
</g>
</svg>
