<?xml version="1.0" encoding="utf-8"?>
<!-- Generator: Adobe Illustrator 16.0.0, SVG Export Plug-In . SVG Version: 6.00 Build 0)  -->
<!DOCTYPE svg PUBLIC "-//W3C//DTD SVG 1.1//EN" "http://www.w3.org/Graphics/SVG/1.1/DTD/svg11.dtd">
<svg version="1.1" id="Layer_1" xmlns="http://www.w3.org/2000/svg" xmlns:xlink="http://www.w3.org/1999/xlink" x="0px" y="0px"
	 width="55px" height="55px" viewBox="0 0 55 55" enable-background="new 0 0 55 55" xml:space="preserve">
<g>
	<circle cx="27.5" cy="27.5" r="26.286"/>
	<path fill="#E7A723" d="M27.5,54.786c-15.045,0-27.286-12.24-27.286-27.286c0-15.045,12.24-27.286,27.286-27.286
		S54.786,12.455,54.786,27.5C54.786,42.546,42.545,54.786,27.5,54.786z M27.5,2.214C13.557,2.214,2.214,13.557,2.214,27.5
		c0,13.942,11.343,25.286,25.286,25.286c13.943,0,25.287-11.344,25.287-25.286C52.786,13.557,41.442,2.214,27.5,2.214z"/>
</g>
<g enable-background="new    ">
	<path fill="#FFFFFF" d="M21.157,34.828c-0.67,0-1.198,0.237-1.582,0.713s-0.576,1.131-0.576,1.968c0,0.876,0.185,1.538,0.554,1.987
		s0.904,0.674,1.604,0.674c0.303,0,0.596-0.03,0.879-0.09c0.283-0.061,0.578-0.138,0.884-0.232v1.001
		c-0.56,0.212-1.195,0.317-1.904,0.317c-1.045,0-1.847-0.316-2.407-0.949c-0.56-0.634-0.84-1.539-0.84-2.718
		c0-0.742,0.136-1.392,0.408-1.948s0.665-0.983,1.179-1.279s1.118-0.444,1.812-0.444c0.729,0,1.403,0.153,2.021,0.459l-0.42,0.972
		c-0.241-0.114-0.496-0.214-0.764-0.301C21.735,34.871,21.453,34.828,21.157,34.828z"/>
	<path fill="#FFFFFF" d="M26.923,41.068h-1.167v-6.138h-2.1V33.93h5.367v1.001h-2.1V41.068z"/>
	<path fill="#FFFFFF" d="M36.455,37.489c0,0.866-0.165,1.595-0.495,2.188c-0.331,0.593-0.812,1.009-1.443,1.25l1.709,1.841h-1.572
		l-1.348-1.602h-0.19c-1.078,0-1.905-0.32-2.483-0.959c-0.577-0.641-0.866-1.549-0.866-2.728s0.29-2.083,0.871-2.715
		s1.41-0.947,2.488-0.947c1.062,0,1.882,0.32,2.461,0.962S36.455,36.324,36.455,37.489z M31.006,37.489
		c0,0.879,0.177,1.546,0.532,1.999c0.354,0.455,0.88,0.682,1.577,0.682c0.693,0,1.217-0.225,1.569-0.674
		c0.354-0.449,0.53-1.118,0.53-2.007c0-0.876-0.175-1.54-0.524-1.992c-0.351-0.452-0.872-0.679-1.565-0.679
		c-0.7,0-1.229,0.227-1.585,0.679S31.006,36.613,31.006,37.489z"/>
</g>
<g>
	<path fill="#FFFFFF" d="M39.721,18.179c-0.65,0-1.178,0.441-1.178,0.988v4.391H15.909v-8.134c0-0.546-0.527-0.989-1.177-0.989
		c-0.649,0-1.177,0.443-1.177,0.989v12.088h2.354v-1.978h22.634v1.977h2.354v-8.344C40.897,18.621,40.371,18.179,39.721,18.179z"/>
</g>
<g>
	<circle fill="#FFFFFF" cx="18.916" cy="20.875" r="2.224"/>
</g>
<g>
	<path fill="#FFFFFF" d="M21.502,22.875L21.502,22.875c0-1.543,0.665-2.793,1.484-2.793h13.43c0.82,0,1.485,1.251,1.485,2.793l0,0"
		/>
</g>
<g>
</g>
</svg>
