<?xml version="1.0" encoding="utf-8"?>
<!-- Generator: Adobe Illustrator 16.0.0, SVG Export Plug-In . SVG Version: 6.00 Build 0)  -->
<!DOCTYPE svg PUBLIC "-//W3C//DTD SVG 1.1//EN" "http://www.w3.org/Graphics/SVG/1.1/DTD/svg11.dtd">
<svg version="1.1" id="Layer_1" xmlns="http://www.w3.org/2000/svg" xmlns:xlink="http://www.w3.org/1999/xlink" x="0px" y="0px"
	 width="95px" height="95px" viewBox="0 0 95 95" enable-background="new 0 0 95 95" xml:space="preserve">
<g>
	<circle cx="47.131" cy="47.75" r="45.988"/>
	<path fill="#057A7B" d="M47.13,94.616c-25.841,0-46.866-21.023-46.866-46.866c0-25.844,21.024-46.866,46.866-46.866
		c25.843,0,46.866,21.023,46.866,46.866C93.996,73.596,72.975,94.616,47.13,94.616z M47.13,2.64
		c-24.873,0-45.108,20.236-45.108,45.11c0,24.873,20.235,45.111,45.108,45.111S92.241,72.625,92.241,47.75
		C92.241,22.876,72.003,2.64,47.13,2.64z"/>
</g>
<rect x="39.375" y="30.75" fill="#FFFFFF" width="15.5" height="4.25"/>
<g id="Layer_1_1_">
</g>
<g enable-background="new    ">
	<path fill="#FFFFFF" d="M26.627,69.308c0,0.635-0.229,1.133-0.688,1.494s-1.092,0.542-1.899,0.542s-1.468-0.125-1.982-0.376v-1.104
		c0.326,0.153,0.671,0.273,1.038,0.361s0.707,0.132,1.023,0.132c0.462,0,0.803-0.088,1.023-0.264s0.33-0.412,0.33-0.708
		c0-0.267-0.101-0.493-0.303-0.679s-0.619-0.405-1.25-0.659c-0.651-0.264-1.11-0.564-1.377-0.903s-0.4-0.745-0.4-1.221
		c0-0.596,0.211-1.064,0.635-1.406s0.991-0.513,1.704-0.513c0.684,0,1.364,0.149,2.041,0.449l-0.371,0.952
		c-0.635-0.267-1.201-0.4-1.699-0.4c-0.377,0-0.664,0.082-0.859,0.246c-0.195,0.165-0.293,0.382-0.293,0.652
		c0,0.186,0.039,0.344,0.117,0.477c0.078,0.131,0.207,0.256,0.386,0.373s0.501,0.271,0.967,0.464
		c0.524,0.218,0.908,0.422,1.152,0.61s0.423,0.402,0.537,0.64S26.627,68.985,26.627,69.308z"/>
	<path fill="#FFFFFF" d="M33.639,71.246h-1.172v-3.218h-3.291v3.218h-1.167v-7.139h1.167v2.92h3.291v-2.92h1.172V71.246z"/>
	<path fill="#FFFFFF" d="M41.856,67.667c0,1.162-0.291,2.065-0.872,2.71s-1.404,0.967-2.468,0.967c-1.078,0-1.905-0.32-2.483-0.959
		c-0.578-0.641-0.867-1.549-0.867-2.728s0.291-2.083,0.872-2.715s1.41-0.947,2.488-0.947c1.061,0,1.881,0.32,2.461,0.962
		S41.856,66.502,41.856,67.667z M36.407,67.667c0,0.879,0.177,1.546,0.532,1.999c0.355,0.455,0.88,0.682,1.577,0.682
		c0.693,0,1.217-0.225,1.57-0.674s0.53-1.118,0.53-2.007c0-0.876-0.175-1.54-0.525-1.992s-0.872-0.679-1.565-0.679
		c-0.7,0-1.228,0.227-1.584,0.679S36.407,66.791,36.407,67.667z"/>
	<path fill="#FFFFFF" d="M48.116,66.266c0,0.745-0.244,1.316-0.732,1.714s-1.183,0.596-2.085,0.596h-0.742v2.671H43.39v-7.139h2.056
		c0.892,0,1.56,0.183,2.004,0.547S48.116,65.556,48.116,66.266z M44.557,67.594h0.62c0.599,0,1.039-0.104,1.318-0.313
		s0.42-0.534,0.42-0.977c0-0.41-0.125-0.716-0.376-0.918s-0.641-0.303-1.172-0.303h-0.811V67.594z"/>
	<path fill="#FFFFFF" d="M54.269,66.266c0,0.745-0.244,1.316-0.732,1.714s-1.183,0.596-2.085,0.596h-0.742v2.671h-1.167v-7.139
		h2.056c0.893,0,1.561,0.183,2.004,0.547C54.047,65.019,54.269,65.556,54.269,66.266z M50.709,67.594h0.62
		c0.599,0,1.038-0.104,1.318-0.313s0.42-0.534,0.42-0.977c0-0.41-0.126-0.716-0.376-0.918s-0.641-0.303-1.172-0.303h-0.811V67.594z"
		/>
	<path fill="#FFFFFF" d="M55.694,71.246v-7.139h1.167v7.139H55.694z"/>
	<path fill="#FFFFFF" d="M64.693,71.246h-1.431l-3.511-5.688h-0.039l0.024,0.317c0.046,0.605,0.068,1.159,0.068,1.66v3.711h-1.06
		v-7.139h1.416l3.501,5.659h0.029c-0.007-0.075-0.02-0.348-0.039-0.817c-0.02-0.471-0.029-0.838-0.029-1.102v-3.74h1.069V71.246z"/>
	<path fill="#FFFFFF" d="M69.498,67.374h2.627v3.584c-0.43,0.14-0.842,0.239-1.238,0.298c-0.395,0.059-0.822,0.088-1.281,0.088
		c-1.08,0-1.914-0.32-2.5-0.959c-0.586-0.641-0.879-1.543-0.879-2.708c0-1.149,0.33-2.048,0.991-2.698
		c0.661-0.648,1.571-0.974,2.729-0.974c0.746,0,1.451,0.144,2.119,0.43l-0.41,0.972c-0.58-0.267-1.158-0.4-1.738-0.4
		c-0.762,0-1.363,0.239-1.807,0.718s-0.664,1.133-0.664,1.963c0,0.872,0.199,1.536,0.598,1.989c0.399,0.455,0.973,0.682,1.722,0.682
		c0.378,0,0.781-0.047,1.211-0.142v-1.841h-1.479V67.374z"/>
</g>
<path fill="#057A7B" d="M56.744,30.596c0-0.478-0.295-0.596-0.659-0.596h-4.871h-8.428h-4.872c-0.364,0-0.659,0.118-0.659,0.596
	l-3.029,21.493c0,0.478,0.295,0.911,0.658,0.911h7.901h8.428h7.901c0.362,0,0.657-0.434,0.657-0.911L56.744,30.596z M43,32.5
	c0,0.829-0.671,1.5-1.5,1.5l0,0c-0.829,0-1.5-0.671-1.5-1.5l0,0c0-0.829,0.671-1.5,1.5-1.5l0,0C42.329,31,43,31.671,43,32.5L43,32.5
	z M54,32.5c0,0.829-0.672,1.5-1.5,1.5l0,0c-0.828,0-1.5-0.671-1.5-1.5l0,0c0-0.829,0.672-1.5,1.5-1.5l0,0
	C53.328,31,54,31.671,54,32.5L54,32.5z"/>
<path fill="#057A7B" d="M53,31.852v-4.348c0-3.831-2.523-6.612-6-6.612c-3.477,0-6,2.781-6,6.612v4.368
	c-0.198,0.16-0.333,0.396-0.333,0.67c0,0.483,0.392,0.875,0.875,0.875s0.875-0.392,0.875-0.875c0-0.312-0.172-0.572-0.417-0.727
	v-4.311c0-3.304,2.056-5.612,5-5.612c2.943,0,5,2.308,5,5.612v4.331c-0.229,0.158-0.389,0.409-0.389,0.708
	c0,0.483,0.393,0.875,0.875,0.875s0.875-0.392,0.875-0.875C53.361,32.254,53.215,32.011,53,31.852z"/>
</svg>
