<?xml version="1.0" encoding="utf-8"?>
<!-- Generator: Adobe Illustrator 16.0.0, SVG Export Plug-In . SVG Version: 6.00 Build 0)  -->
<!DOCTYPE svg PUBLIC "-//W3C//DTD SVG 1.1//EN" "http://www.w3.org/Graphics/SVG/1.1/DTD/svg11.dtd">
<svg version="1.1" id="Layer_1" xmlns="http://www.w3.org/2000/svg" xmlns:xlink="http://www.w3.org/1999/xlink" x="0px" y="0px"
	 width="21.75px" height="24.021px" viewBox="0 0 21.75 24.021" enable-background="new 0 0 21.75 24.021" xml:space="preserve">
<g id="Layer_2" display="none">
	<g display="inline">
		<path fill="#FCB033" d="M81.734-108.728c1.6,0.229,1.66,0.294,1.936,1.875c0.239,1.376,0.482,2.752,0.725,4.129
			c0.334,1.887-0.188,2.743-2.031,3.331c-0.51,2.644-1.09,3.253-3.008,3.172c-1.678-0.07-2.309-0.835-2.563-3.224
			c-1.217,0-2.455,0-3.688,0c-1.223,0-2.438,0-3.363,0c-0.498,1.02-0.758,2.006-1.375,2.645c-0.428,0.44-1.354,0.546-2.055,0.546
			c-1.615-0.001-2.213-0.823-2.434-3.061c-0.467-0.236-0.982-0.406-1.395-0.729c-0.729-0.588-0.938-1.412-0.771-2.332
			c0.271-1.492,0.543-2.979,0.812-4.477c0.274-1.584,0.334-1.646,1.896-1.875c0.145-1.043,0.229-2.108,0.438-3.148
			c0.461-2.288,2.349-3.991,4.676-4.091c2.314-0.101,4.646-0.119,6.961-0.014c2.765,0.125,4.725,2.123,5.008,4.893
			C81.574-110.319,81.65-109.552,81.734-108.728z M79.627-108.692c0.213-3.413-1.111-5.618-3.75-5.199
			c-0.202,1.612-0.385,1.771-2.018,1.771c-0.416,0.003-0.832,0.001-1.248,0.001c-1.938-0.001-1.951-0.014-2.348-1.834
			c-2.803-0.211-3.854,1.938-3.719,5.262C70.909-108.692,75.27-108.692,79.627-108.692z M65.955-105.452
			c-1.061,0.005-1.943,0.876-1.953,1.921c-0.01,1.061,0.953,1.991,2.016,1.964c1.039-0.029,1.914-0.943,1.896-1.981
			C67.896-104.606,67.018-105.457,65.955-105.452z M80.191-105.454c-1.063,0.02-1.924,0.896-1.916,1.944
			c0.007,1.043,0.896,1.932,1.937,1.937c1.075,0.009,2.006-0.938,1.97-2.005C82.146-104.631,81.258-105.47,80.191-105.454z"/>
	</g>
	<g display="inline">
		<path fill="#FCB033" d="M86.5-95.5c-0.275,0-0.5-0.224-0.5-0.5v-14c0-0.272,0.225-0.5,0.5-0.5s0.5,0.228,0.5,0.5v14
			C87-95.724,86.775-95.5,86.5-95.5z"/>
	</g>
	<g display="inline">
		<path fill="#FCB033" d="M88.5-95.5c-0.275,0-0.5-0.224-0.5-0.5v-14c0-0.272,0.225-0.5,0.5-0.5s0.5,0.228,0.5,0.5v14
			C89-95.724,88.775-95.5,88.5-95.5z"/>
	</g>
	<g display="inline">
		<g>
			<path fill="#FCB033" d="M90.541-116.948c0,0.705-0.221,1.244-0.662,1.619c-0.439,0.373-1.066,0.563-1.88,0.563h-0.597v2.33
				h-1.389v-6.555h2.094c0.795,0,1.396,0.174,1.813,0.518C90.334-118.135,90.541-117.625,90.541-116.948z M87.402-115.906h0.457
				c0.429,0,0.748-0.086,0.959-0.254c0.213-0.17,0.318-0.414,0.318-0.734c0-0.326-0.094-0.566-0.271-0.725
				c-0.184-0.152-0.456-0.229-0.838-0.229H87.4v1.941H87.402z"/>
		</g>
	</g>
	<g display="inline">
		<path fill="#FCB033" d="M87.584-110.24c-3.309,0-6-2.688-6-6c0-3.309,2.691-6,6-6s6,2.691,6,6
			C93.584-112.931,90.893-110.24,87.584-110.24z M87.584-121.24c-2.757,0-5,2.243-5,5c0,2.761,2.243,5,5,5s5-2.239,5-5
			C92.584-118.997,90.341-121.24,87.584-121.24z"/>
	</g>
	<g display="inline">
		<path fill="#FCB033" d="M21,1.853v20.729C21,23.08,20.273,24,19.67,24H5.738C5.134,24,4,23.08,4,22.585V1.853
			C4,1.338,5.189,1,5.738,1H19.67C20.219,1,21,1.338,21,1.853z M5,22.585C5,22.716,5.724,23,5.738,23H20c0,0,0-0.283,0-0.414V1.853
			C20,1.717,20,2,20,2H5.738C5.558,2,5,1.717,5,1.853V22.585z"/>
	</g>
	<g display="inline">
		<path fill="#FCB033" d="M16.82,3H8.076C7.605,3,8,3.674,8,4.223v10.421C8,15.195,7.605,15,8.076,15h8.744
			c0.492,0,0.18,0.152,0.18-0.354V4.223C17,3.716,17.313,3,16.82,3z M16.82,15h-0.609c-0.141-2-1.746-3.452-3.711-3.452
			S8.929,13,8.789,15H8.076C7.924,15,8,14.76,8,14.646V4.223C8,4.109,7.924,4,8.076,4h8.744C16.975,4,17,4.055,17,4.223v10.421
			C17,14.814,16.975,15,16.82,15z"/>
		<circle fill="#FCB033" cx="12.216" cy="8.558" r="1.984"/>
	</g>
	<g display="inline">
		<path fill="#FCB033" d="M7,15V3h11v12H7z M8,3v12h9V3H8z"/>
	</g>
	<rect x="7" y="14" display="inline" fill="#FCB033" width="11" height="1"/>
	<path display="inline" fill="#E7A723" d="M7.676,22.07v0.008l0.105-0.045c0.023-0.014,0.04-0.014,0.061-0.027
		c0.017-0.002,0.029-0.014,0.042-0.02L9.489,21.3l0.069-0.047c0.038-0.02,0.071-0.041,0.104-0.063l0.106-0.07l-0.003-0.027
		c0.279-0.237,0.408-0.567,0.296-1.067c-0.083-0.356,0.111-0.455,0.431-0.504c1.072-0.146,2.146-0.188,3.22-0.063
		c0.995,0.111,1.013,0.117,0.987,1.104c-0.006,0.194,0.049,0.332,0.137,0.438l0.008,0.037l0.125,0.063
		c0.051,0.028,0.074,0.069,0.146,0.104c0.213,0.086,0.429,0.178,0.644,0.271l0.771,0.366c0.095,0.048,0.187,0.084,0.271,0.138
		c0.021,0.015,0.038,0.015,0.063,0.021l0.129,0.063l-0.009-0.021c0.313,0.104,0.509-0.039,0.709-0.328
		c1.104-1.592,0.343-3.823-1.558-4.358c-2.479-0.692-4.974-0.683-7.462-0.022c-0.484,0.131-0.903,0.379-1.254,0.737
		c-1.029,1.031-1.117,2.722-0.21,3.789C7.351,22.033,7.485,22.119,7.676,22.07z"/>
</g>
<g id="gym" display="none">
	<g display="inline">
		<path fill="#FCB033" d="M3.073,6.405l0.592,0.412c-4.084,8.996,1.83,13.951,1.891,14c0.104,0.084,0.228,0.125,0.351,0.125
			c0.163,0,0.323-0.069,0.435-0.207c0.194-0.237,0.158-0.59-0.082-0.784c-0.219-0.183-5.212-4.425-1.659-12.479L6.147,8.55
			C6.244,8.616,6.355,8.65,6.467,8.65c0.175,0,0.349-0.083,0.458-0.24c0.177-0.252,0.114-0.601-0.139-0.777L3.901,5.619l-0.61-3.312
			C3.235,2.004,2.949,1.81,2.64,1.858C2.336,1.915,2.136,2.206,2.192,2.51l0.651,3.538C2.871,6.192,2.953,6.321,3.073,6.405z"/>
		<path fill="#FCB033" d="M22.579,18.884c0-2.926-2.381-5.352-5.31-5.352c-1.438,0-2.742,0.561-3.699,1.492l0.635-0.123L4.2,24
			H1.902c-0.31,0-0.559,0.189-0.559,0.5c0,0.313,0.25,0.5,0.559,0.5H3.02h7.544H22.02c0.313,0,0.563-0.188,0.563-0.5
			c0-0.311-0.253-0.5-0.563-0.5h-3.134C21.021,24,22.579,21.246,22.579,18.884z M11.837,24l1.587-1.393
			C14.032,23.253,14.809,24,15.67,24H11.837z M17.27,22.988c-1.24,0-2.343-0.551-3.104-1.406l2.389-2.389
			c0.221-0.219,0.221-0.57,0-0.791c-0.221-0.217-0.568-0.217-0.791,0l-1.869,1.871l-0.218-3.586
			c0.729-1.236,2.063-2.076,3.604-2.076c2.312,0,4.188,1.879,4.188,4.188C21.461,21.109,19.581,22.988,17.27,22.988z"/>
		<path fill="#FCB033" d="M23.133,8.973l-0.744-0.744C22.285,8.14,22.154,8,22.02,8h-5.588c-0.299,0-0.545,0.325-0.559,0.624
			c-0.014,0.298,0.21,0.604,0.507,0.628l0.945,0.108l1.549,0.623c-0.001,0.006-0.004,0.014-0.005,0.02l-0.561,2.331
			c-0.072,0.3,0.107,0.604,0.414,0.676c0.045,0.014,0.088,0.02,0.131,0.02c0.252,0,0.479-0.17,0.543-0.428l0.521-2.188l0.869,0.344
			c0.063,0.025,0.135,0.039,0.204,0.039c0.083,0,0.162-0.019,0.234-0.054L23,9.901c0.172-0.08,0.29-0.242,0.313-0.427
			C23.346,9.284,23.273,9.097,23.133,8.973z"/>
	</g>
</g>
<g id="Layer_18" display="none">
</g>
<g id="concierge" display="none">
	<g display="inline">
		<path fill="#FCB033" d="M24.591,17.482c-0.147-2.652-1.307-5.253-3.11-7.193c-0.914-0.979-1.979-1.815-3.172-2.44
			c-0.582-0.31-1.188-0.563-1.813-0.765c-0.25-0.08-0.467-0.132-0.452-0.438c0.019-0.438,0.015-0.873,0.009-1.313
			c-0.004-0.391-0.014-0.545,0.264-0.817c0.188-0.186,0.313-0.418,0.33-0.681c0.059-0.646-0.535-1.1-1.066-1.32
			c-1.354-0.564-3.002-0.557-4.419-0.276c-0.596,0.114-1.245,0.325-1.679,0.77c-0.446,0.45-0.408,1.148,0.065,1.563
			c0.179,0.156,0.408,0.227,0.403,0.5C9.94,5.458,9.937,5.843,9.941,6.229c0.003,0.263,0.098,0.585-0.219,0.674
			C9.375,6.999,9.031,7.11,8.692,7.234c-2.408,0.895-4.439,2.572-5.828,4.727c-0.688,1.066-1.198,2.244-1.497,3.479
			c-0.146,0.603-0.242,1.217-0.292,1.834c-0.046,0.567-0.132,1.088-0.04,1.658C1.1,19.33,2.181,19,2.447,19c0.841,0,1.682,0,2.523,0
			c1.617,0,3.234,0,4.851,0c3.222,0,6.447,0.166,9.667,0.125c1.205-0.016,2.412,0.027,3.619,0.021
			c0.367-0.004,1.209,0.17,1.52-0.082c0.109-0.095,0.016-0.629,0.016-0.771C24.643,18.007,24.605,17.757,24.591,17.482
			C24.547,16.699,24.596,17.566,24.591,17.482z M15.271,3.76c-0.926,0.605-3.823,0.605-4.733,0C11.428,3.15,14.373,3.15,15.271,3.76
			z M14.419,6.334c0.04,0.319-0.247,0.234-0.459,0.21c-0.38-0.045-0.765-0.063-1.147-0.063c-0.354,0-0.713,0.016-1.064,0.05
			c-0.249,0.023-0.184-0.429-0.184-0.593c0.004-0.318,0.211-0.332,0.478-0.301c0.319,0.034,0.653,0.017,0.979,0.017
			c0.354,0,0.709,0.003,1.063,0C14.573,5.648,14.369,5.94,14.419,6.334C14.448,6.567,14.396,6.161,14.419,6.334z M22.876,17.755
			C22.865,17.833,22.721,18,22.645,18c-0.188,0-0.387,0-0.58,0c-0.387,0-0.771,0-1.151,0c-0.843,0-1.679,0-2.517,0
			c-1.604,0-3.215,0-4.817,0c-3.233,0-6.461-0.098-9.692-0.123c-0.289-0.004-0.81-0.09-1.072-0.213
			c-0.22-0.104-0.058-0.635-0.032-0.805c0.113-0.715,0.294-1.43,0.548-2.107c0.471-1.256,1.2-2.401,2.109-3.389
			c1.767-1.908,4.24-3.034,6.833-3.208c2.793-0.188,5.592,0.917,7.607,2.837c0.896,0.854,1.618,1.876,2.141,3
			c0.268,0.582,0.479,1.232,0.646,1.85"/>
		<path fill="#FCB033" d="M20.604,13.732c-0.854-1.899-2.479-3.273-4.303-4.227c-0.867-0.448-1.783-0.614-2.496,0.215
			c-0.466,0.537-0.584,1.356-0.14,1.946c0.248,0.33,0.614,0.49,0.974,0.671c0.428,0.221,0.844,0.46,1.232,0.743
			c0.729,0.533,1.35,1.207,1.768,2.016c0.188,0.354,0.33,0.688,0.709,0.883c0.385,0.191,0.856,0.193,1.258,0.047
			C20.498,15.688,21.006,14.621,20.604,13.732C20.261,12.979,20.702,13.953,20.604,13.732z M19.072,14.906
			c-0.215,0.027-0.276-0.229-0.35-0.373c-0.148-0.295-0.318-0.576-0.517-0.846c-0.382-0.535-0.854-1.006-1.36-1.413
			c-0.478-0.368-0.982-0.686-1.518-0.961c-0.188-0.104-0.54-0.193-0.686-0.37c-0.172-0.216,0.146-0.537,0.342-0.589
			c0.416-0.11,1.104,0.438,1.443,0.646c0.537,0.327,1.049,0.7,1.508,1.131C18.277,12.443,20.373,14.74,19.072,14.906
			C18.9,14.93,19.294,14.878,19.072,14.906z"/>
		<rect x="1" y="20" fill="#FCB033" width="24" height="2"/>
	</g>
</g>
<g id="maid" display="none">
	<g display="inline">
		<g>
			<path fill="#FCB033" d="M9.823,24.296c0.415,0,0.753,0.312,0.812,0.703h4.646c0.057-0.396,0.396-0.703,0.81-0.703
				s0.753,0.312,0.813,0.703h4.937c-0.168-2.871-2.126-4.354-4.046-5.436c-0.193-0.105-0.261-0.318-0.35-0.611
				c-0.021-0.057-0.041-0.135-0.063-0.191c-0.258-0.077-0.834-0.114-1.267-0.146c-0.528-0.031-1.034-0.064-1.418-0.162l-1.707,3.146
				l-1.812-3.261c-0.294,0.101-0.697,0.188-1.232,0.308c-0.449,0.097-1.002,0.215-1.225,0.31c-0.03,0.053-0.071,0.146-0.099,0.198
				c-0.108,0.235-0.203,0.438-0.393,0.539c-2.389,1.289-4.242,2.507-4.4,5.31h5.184C9.07,24.604,9.411,24.296,9.823,24.296z
				 M16.091,21.885c0.454,0,0.822,0.367,0.822,0.822c0,0.453-0.368,0.824-0.822,0.824s-0.821-0.371-0.821-0.824
				C15.27,22.253,15.637,21.885,16.091,21.885z M9.823,21.885c0.454,0,0.823,0.367,0.823,0.822c0,0.453-0.369,0.824-0.823,0.824
				c-0.453,0-0.822-0.371-0.822-0.824C9.001,22.253,9.37,21.885,9.823,21.885z"/>
			<path fill="#FCB033" d="M10.886,7.879C10.062,7.985,9.426,8.341,8.95,8.96c-1.41,1.828-0.855,5.278-0.85,5.313l0.216,1.287
				c0.839,0.861,1.926,1.486,3.149,1.76c0.021,0.006,0.041,0.012,0.063,0.018c0.41,0.086,0.842,0.131,1.271,0.131
				c2.208,0,4.143-1.146,5.252-2.879l-0.061-0.694l-0.305-3.542C13.932,9.919,11.475,8.302,10.886,7.879z M9.736,11.726
				c0-0.454,0.369-0.823,0.823-0.823c0.456,0,0.824,0.369,0.824,0.823s-0.368,0.819-0.824,0.819
				C10.104,12.549,9.736,12.181,9.736,11.726z M14.9,14.574c-1.316,0.828-2.896,0.834-4.174-0.064
				c-0.456-0.313,0.119-0.965,0.569-0.646c0.951,0.668,2.163,0.604,3.125-0.004C14.893,13.563,15.372,14.277,14.9,14.574z
				 M14.898,12.549c-0.453,0-0.821-0.365-0.821-0.819s0.368-0.823,0.821-0.823c0.455,0,0.822,0.369,0.822,0.823
				S15.354,12.549,14.898,12.549z"/>
			<path fill="#FCB033" d="M6.666,12.373c0.235,0.617,0.571,1.273,1.043,1.964c0,0-1.083-6.464,3.288-6.872
				c0,0,2.685,2.113,7.058,2.521l0.331,3.871c0,0,0.192-0.319,0.4-0.877c0.269-0.729,0.563-1.858,0.481-3.215
				c-0.039-0.667-0.172-1.392-0.439-2.145c-0.193-0.541-0.458-1.099-0.813-1.665c0,0.07-0.002,0.146-0.002,0.214v0.2H17.87h-0.563
				h-0.596H8.88H8.288H7.721H7.623C7.474,6.53,7.154,6.909,6.856,7.478C6.494,8.168,6.168,9.137,6.225,10.34
				C6.255,10.959,6.388,11.638,6.666,12.373z"/>
			<path fill="#FCB033" d="M7.865,5.52c0.001,0.059,0.001,0.112,0.003,0.172c0,0.094,0,0.188,0.002,0.282h0.265h0.62h0.679h6.728
				h0.68h0.62h0.156c0-0.151,0.006-0.305,0.006-0.454c0.002-0.034,0.002-0.067,0.002-0.104c0-0.094,0-0.188,0.003-0.284
				c0-0.091,0-0.182,0-0.271c-0.003-0.998-0.068-1.938-0.505-2.376c-0.194-0.198-0.458-0.293-0.806-0.293H9.171
				c-0.349,0-0.611,0.095-0.806,0.293C7.902,2.955,7.854,3.98,7.861,5.049c0,0.104,0.002,0.199,0.002,0.302
				C7.865,5.407,7.865,5.463,7.865,5.52z"/>
		</g>
	</g>
</g>
<g id="welcome_hamper-02" display="none">
	<g display="inline">
		<path fill="#FCB033" d="M12.969,21.843v0.271V21.843z"/>
		<polygon fill="#FCB033" points="10.26,21.843 10.26,22.115 10.261,21.843 		"/>
		<polygon fill="#FCB033" points="15.677,21.843 15.677,22.115 15.678,21.843 		"/>
		<path fill="#FCB033" d="M24.275,10.72l-0.383-0.387c-0.213-0.211-0.453-0.746-0.539-0.66L19.602,13H6.263L2.509,9.677
			C2.423,9.591,2.183,9.909,1.97,10.121l-0.383,0.491c-0.211,0.211-0.313,0.075-0.228,0.16L3.965,13H2.677
			C2.377,13,2,14.105,2,14.404v0.541C2,15.246,2.377,16,2.677,16h1.43l1.598,7.479C5.748,24.007,6.126,24,6.801,24h12.064
			c0.675,0,1.053-0.002,1.097-0.535L21.578,16h1.141C23.018,16,23,15.246,23,14.945v-0.541C23,14.105,23.018,13,22.719,13h-0.82
			l2.605-2.174C24.589,10.74,24.488,10.932,24.275,10.72z M9,21.843v-4.875c0-0.299,0.701-0.541,1-0.541s1,0.242,1,0.541v4.875
			c0,0.304-0.701,0.543-1,0.543S9,22.143,9,21.843z M12,21.843v-4.875c0-0.299,0.702-0.541,1-0.541c0.299,0,1,0.242,1,0.541v4.875
			c0,0.304-0.701,0.543-1,0.543C12.702,22.385,12,22.143,12,21.843z M15,21.843v-4.875c0-0.299,0.701-0.541,1-0.541s1,0.242,1,0.541
			v4.875c0,0.304-0.701,0.543-1,0.543S15,22.143,15,21.843z"/>
	</g>
</g>
<g id="pet_friendly" display="none">
	<g display="inline">
		<path fill="#FCB033" d="M-53.053-86.798c-1.216,0.831-3.753-0.922-6.297-0.941c-2.543-0.019-5.152,1.741-6.325,0.942
			c-1.173-0.799,1.126-7.194,6.325-7.214C-54.151-94.031-51.836-87.629-53.053-86.798z"/>
	</g>
	
		<ellipse transform="matrix(0.1383 0.9904 -0.9904 0.1383 -151.1219 -14.8245)" display="inline" fill="#FCB033" cx="-67.042" cy="-94.255" rx="3.037" ry="2.203"/>
	
		<ellipse transform="matrix(0.0554 0.9985 -0.9985 0.0554 -156.7 -30.0038)" display="inline" fill="#FCB033" cx="-62.493" cy="-97.818" rx="3.037" ry="2.203"/>
	
		<ellipse transform="matrix(-0.2219 0.9751 -0.9751 -0.2219 -165.0994 -64.6219)" display="inline" fill="#FCB033" cx="-56.767" cy="-98.182" rx="3.037" ry="2.203"/>
	
		<ellipse transform="matrix(-0.5998 0.8002 -0.8002 -0.5998 -158.8143 -112.2179)" display="inline" fill="#FCB033" cx="-51.343" cy="-95.827" rx="3.037" ry="2.203"/>
	<g display="inline">
		<path fill="#FCB033" d="M-12.053-90.798c-1.216,0.831-3.753-0.922-6.297-0.941c-2.543-0.019-5.152,1.741-6.325,0.942
			c-1.173-0.799,1.126-7.194,6.325-7.214C-13.151-98.031-10.836-91.629-12.053-90.798z"/>
	</g>
	
		<ellipse transform="matrix(0.1383 0.9904 -0.9904 0.1383 -119.7561 -58.8833)" display="inline" fill="#FCB033" cx="-26.041" cy="-98.26" rx="3.037" ry="2.203"/>
	
		<ellipse transform="matrix(0.0554 0.9985 -0.9985 0.0554 -121.9649 -74.717)" display="inline" fill="#FCB033" cx="-21.494" cy="-101.817" rx="3.037" ry="2.203"/>
	
		<ellipse transform="matrix(-0.2221 0.975 -0.975 -0.2221 -118.8737 -109.5183)" display="inline" fill="#FCB033" cx="-15.749" cy="-102.179" rx="3.038" ry="2.203"/>
	
		<ellipse transform="matrix(-0.5998 0.8001 -0.8001 -0.5998 -96.4286 -151.4338)" display="inline" fill="#FCB033" cx="-10.345" cy="-99.831" rx="3.037" ry="2.203"/>
	<g display="inline">
		<g>
			<path fill="none" stroke="#FCB033" stroke-miterlimit="10" d="M18.678,22.712c-1.363,0.938-4.213-1.028-7.066-1.055
				c-2.854-0.021-5.775,1.953-7.093,1.059c-1.317-0.896,1.264-8.069,7.093-8.096C17.445,14.6,20.043,21.783,18.678,22.712z"/>
		</g>
		
			<ellipse transform="matrix(0.1387 0.9903 -0.9903 0.1387 16.1179 8.8272)" fill="none" stroke="#FCB033" stroke-miterlimit="10" cx="2.984" cy="13.679" rx="3.409" ry="2.472"/>
		
			<ellipse transform="matrix(0.0557 0.9984 -0.9984 0.0557 17.2931 1.0659)" fill="none" stroke="#FCB033" stroke-miterlimit="10" cx="8.083" cy="9.676" rx="3.409" ry="2.472"/>
		
			<ellipse transform="matrix(-0.2221 0.975 -0.975 -0.2221 26.7901 -2.8313)" fill="none" stroke="#FCB033" stroke-miterlimit="10" cx="14.524" cy="9.271" rx="3.407" ry="2.471"/>
		
			<ellipse transform="matrix(-0.5992 0.8006 -0.8006 -0.5992 42.4663 2.5274)" fill="none" stroke="#FCB033" stroke-miterlimit="10" cx="20.601" cy="11.893" rx="3.408" ry="2.473"/>
	</g>
</g>
<g id="welcome_hamper-01" display="none">
	<g display="inline">
		<path fill="#FCB033" d="M12.605,21.333v0.328V21.333z"/>
		<polygon fill="#FCB033" points="9.322,21.333 9.322,21.662 9.323,21.333 		"/>
		<polygon fill="#FCB033" points="15.889,21.662 15.889,21.333 15.889,21.333 		"/>
		<path fill="#FCB033" d="M24.424,12H21.79h-0.845c-0.314-5-4.114-8.126-8.75-8.126C7.558,3.874,3.759,7,3.443,12H3.092H0.129
			C-0.234,12,0,11.954,0,12.316v0.657C0,13.337-0.234,13,0.129,13h1.733L3.8,22.71C3.853,23.359,4.311,24,5.128,24h14.626
			c0.816,0,1.275-0.646,1.327-1.299L23.041,13h1.382C24.788,13,25,13.337,25,12.973v-0.657C25,11.954,24.788,12,24.424,12z
			 M9,21.333v-5.91c0-0.356,0.638-0.651,1-0.651s1,0.295,1,0.651v5.91c0,0.363-0.638,0.658-1,0.658S9,21.697,9,21.333z M12,21.333
			v-5.91c0-0.356,0.639-0.651,1-0.651s1,0.295,1,0.651v5.91c0,0.363-0.639,0.658-1,0.658S12,21.697,12,21.333z M17,21.333
			c0,0.363-0.637,0.658-1,0.658s-1-0.295-1-0.658v-5.91c0-0.356,0.637-0.651,1-0.651s1,0.295,1,0.651V21.333z M12.195,4.531
			C16.459,4.531,19.96,8,20.288,12H4.102C4.431,8,7.931,4.531,12.195,4.531z"/>
	</g>
</g>
<g>
	<path fill="#EA4D00" d="M16.633,2.564c-0.006,0.004-0.012,0.016-0.018,0.02C16.945,2.581,16.626,2.568,16.633,2.564z"/>
	<path fill="#EA4D00" d="M19.023,2.454c0.23-0.146,0.475-0.411,0.475-0.71V1.258C19.498,0.794,18.877,0,18.413,0h-1.931
		c-0.463,0-0.984,0.794-0.984,1.258v0.485c0,0.298,0.229,0.563,0.463,0.71c-0.273,0.419-0.52,1.033-0.792,1.729
		c-1.04-0.349-2.187-0.537-3.396-0.537c-2.758,0-4.944,1.212-5.985,2.25l0.073,0.065l-4.939,4.727C0.468,11.251,0,11.887,0,12.569
		c-0.001,0.887,0.498,1.885,1.498,2.646v4.571c0,1.396,1.168,2.215,2.325,2.215h6.384c0.104,0,0.197,0.279,0.291,0.438
		c0.183,0.3,0.41,0.688,0.852,0.8c0.388,0.094,0.8,0.329,1.227,0.329c2.032,0,4.235-1.563,5.522-2.563h1.517
		c0.995-0.002,1.882-1.17,1.882-2.165v-8.667C21.498,9.751,20.219,4.284,19.023,2.454z M6.614,6.076l0.071-0.004
		c1.046-0.849,2.866-1.704,5.106-1.704c1.123,0,2.2,0.175,3.16,0.49c-0.547,1.522-1.025,3.271-1.28,4.339
		c-0.894-0.84-2.747-0.854-5.089-0.813C8.067,8.393,7.534,8.402,6.99,8.402c-1.178,0-2.276,0.176-3.232,0.488L6.614,6.076z
		 M3.823,21c-1.097,0-1.325-0.846-1.325-1.215v-5.031l-0.14-0.094c-1.246-0.566-1.46-1.217-1.46-2.086
		c0-1.931,2.679-3.438,6.075-3.438c0.548,0,1.094,0.004,1.613-0.007c2.112-0.039,3.953-0.047,4.62,0.608
		c0.188,0.185,0.292,0.069,0.292,0.792v1.783c0-0.047-0.426-0.077-0.652-0.077c-1.367,0-2.842,0.865-3.471,1.701
		c-1.486,1.974-1.858,4.722-0.881,6.778c0.096,0.2,0.233,0.28,0.386,0.28L3.823,21L3.823,21z M17.59,20.127
		c-1.148,1.522-3.162,2.547-5.014,2.547c-0.369,0-0.723-0.041-1.055-0.123c-0.146-0.03-0.25-0.19-0.414-0.448
		c-0.132-0.22-0.326-0.461-0.562-0.642c-0.002-0.002-0.053-0.004-0.053-0.006l-0.417-0.123l0.5,0.5
		c-0.192,0-0.539-0.858-0.723-0.938c-0.373-0.151-0.606-0.168-0.714-0.396c-0.855-1.805-0.511-4.436,0.802-6.176
		c0.512-0.682,1.761-1.392,2.888-1.392c0.209,0,0.397,0.036,0.575,0.09c0.332,0.101,0.564,0.474,0.843,0.896
		c0.149,0.242,0.313,0.494,0.51,0.724c0.138,0.151,0.271,0.278,0.41,0.387c0.396,0.283,0.878,0.41,1.349,0.533
		c0.498,0.129,0.969,0.254,1.188,0.555C18.507,17.22,18.305,19.18,17.59,20.127z M20.498,18.836c0,0.601-0.285,1.164-0.883,1.164
		h-1.088c0.557-1,0.599-3.117-0.241-4.271c-0.369-0.506-0.988-0.688-1.588-0.849c-0.334-0.088-0.675-0.188-0.948-0.342
		c0.008-0.031,0.02-0.063,0.021-0.098c0.013-0.427,1.354-0.835,2.56-0.865c0.198-0.006,0.356-0.164,0.353-0.363
		c-0.006-0.194-0.17-0.321-0.371-0.332c-0.188,0.009-0.644,0.031-1.147,0.119c0.003-0.412-0.337-0.934-0.771-1.353
		c-0.604-0.579-1.447-0.656-1.479-0.658l-0.444-0.037l0.059,0.439c0.005,0.035,0.113,0.877,0.72,1.458
		c0.229,0.218,0.459,0.394,0.685,0.517c-0.326,0.15-0.601,0.354-0.744,0.621c-0.104-0.146-0.063-0.299-0.156-0.449
		c-0.197-0.305-0.52-0.604-0.52-0.844V10.17c0-0.841,1.432-7.168,2.117-7.168c-0.063,0-0.142,0-0.25,0l0,0l0.268-0.437l0.862-0.563
		H16.37l0,0h0.116c-0.063,0,0.017-0.188,0.017-0.257V1.258c0-0.063-0.08-0.258-0.017-0.258h1.932c0.064,0,0.085,0.191,0.085,0.258
		v0.485C18.503,1.808,18.482,2,18.418,2h-0.915v0.585c0,0,0.156-0.015,0.147-0.021c0.679,0.442,2.853,6.757,2.853,7.604v8.667
		L20.498,18.836L20.498,18.836z M16.568,13.133v-0.276l0,0V13.133z M16.369,12.791c-0.165-0.076-0.396-0.228-0.639-0.458
		c-0.146-0.142-0.25-0.31-0.326-0.468c0.162,0.068,0.332,0.167,0.479,0.308C16.143,12.422,16.292,12.64,16.369,12.791z"/>
</g>
<path fill="#EA4D00" d="M5.125,7.593C5.1,7.598,4.756,7.443,5.637,7.355c0.433-0.05,0.951-0.088,1.498-0.13
	C7.68,7.182,8.271,7.167,8.844,7.138l0.857-0.005c0.28,0.006,0.557-0.012,0.807,0.013c0.252,0.016,0.496,0.026,0.726,0.043
	c0.225,0.02,0.454,0.017,0.624,0.051c0.689,0.107,1.147,0.178,1.147,0.178s-0.504-0.036-1.265-0.087
	c-0.176-0.021-0.417-0.002-0.638-0.004c-0.228,0.002-0.467,0.004-0.713,0.007C10.151,7.329,9.878,7.36,9.62,7.375L8.833,7.426
	c-0.53,0.063-1.049,0.109-1.529,0.182c-0.48,0.067-0.921,0.131-1.288,0.199c-0.737,0.12-2.192,0.315-2.223,0.318L5.125,7.593z"/>
<path fill="#EA4D00" d="M5.998,6.621C5.975,6.627,5.65,6.447,6.459,6.358c0.398-0.051,0.874-0.088,1.375-0.13
	C8.337,6.186,8.88,6.175,9.407,6.149l0.791,0.008c0.257,0.008,0.513-0.006,0.746,0.023c0.231,0.019,0.458,0.033,0.669,0.055
	c0.207,0.021,0.422,0.021,0.576,0.063c0.642,0.127,1.063,0.212,1.063,0.212s-0.466-0.109-1.17-0.18
	c-0.16-0.021-0.382-0.079-0.589-0.079c-0.208,0-0.428,0-0.656,0c-0.22,0-0.471,0.093-0.709,0.104l-0.72,0.084
	c-0.486,0.063-0.963,0.127-1.402,0.2C7.568,6.712,7.165,6.785,6.829,6.857C6.152,6.99,4.816,7.193,4.79,7.196L5.998,6.621z"/>
<path fill="#EA4D00" d="M7.256,5.683C7.233,5.689,6.906,5.51,7.721,5.421c0.401-0.051,0.88-0.088,1.386-0.13
	s1.054-0.053,1.585-0.079l0.797,0.011c0.258,0.008,0.517-0.009,0.751,0.021c0.232,0.021,0.462,0.036,0.675,0.055
	C13.124,5.32,13.34,5.32,13.496,5.36c0.645,0.127,1.072,0.212,1.072,0.212s-0.471-0.112-1.18-0.18
	c-0.16-0.024-0.386-0.079-0.595-0.079c-0.21,0-0.433,0-0.661,0c-0.221,0-0.475,0.093-0.714,0.104L10.69,5.501
	c-0.49,0.063-0.97,0.127-1.413,0.2C8.839,5.775,8.433,5.847,8.094,5.92C7.412,6.052,6.066,6.256,6.04,6.259L7.256,5.683z"/>
<g id="toiletries" display="none">
	<path display="inline" fill="#FCB033" d="M23.922,16.438l-0.845-1.146c0.377-0.246,1.063-0.799,1.202-1.631
		c0.087-0.521-0.051-1.042-0.407-1.562l0.05-0.037l-0.891-1.209c0.359-0.271,0.734-0.657,0.789-1.127
		c0.029-0.241-0.035-0.586-0.385-0.921l0.043-0.081l-9.041-4.656c-0.317-0.313-0.881-0.729-1.688-0.831
		C11.65,3.093,10.478,3.56,9.251,4.623L2.275,8.555L2.341,8.67L2.3,8.619l-1.83,1.396l1.732,1.015l-1.06,1.228
		c-0.085,0.103-0.123,0.23-0.101,0.358c0.021,0.13,0.099,0.241,0.212,0.307l0.65,0.374L0.47,14.389l1.732,1.016l-1.06,1.229
		c-0.085,0.104-0.123,0.23-0.101,0.357c0.021,0.129,0.099,0.238,0.212,0.307l0.65,0.373L0.47,18.764l6.194,3.633
		c0.172,0.127,3.231,2.396,6.203,2.396c1.055,0,2.1-0.285,2.999-1.057l6.961-3.922c0.051-0.025,1.264-0.646,1.452-1.777
		c0.087-0.521-0.051-1.045-0.407-1.563L23.922,16.438z M2.83,9.314L2.794,9.267l6.928-3.903l0.074-0.051
		c1.036-0.907,1.981-1.313,2.83-1.209c0.365,0.046,0.657,0.183,0.881,0.333l-0.056,0.104l0.461,0.237
		c0.064,0.072,0.102,0.124,0.105,0.131l0.063-0.04l8.721,4.492l-0.018,0.021c0.082,0.064,0.176,0.159,0.166,0.243
		c-0.026,0.236-0.526,0.639-0.984,0.857l-6.642,3.813c-2.896,2.537-8.081-1.313-8.177-1.379l-5.11-2.999L2.83,9.314z M2.725,13.771
		l8.192,4.729c0.069,0.041,0.145,0.063,0.22,0.063c0.15,0,0.298-0.078,0.378-0.224c0.116-0.209,0.049-0.479-0.166-0.598l-9.2-5.315
		l0.821-0.945l3.694,2.165c0.174,0.133,3.258,2.422,6.214,2.422c1.045,0,2.074-0.287,2.951-1.062l5.273-3.021l0.787,1.115
		l-8.648,4.147c-0.217,0.104-0.309,0.365-0.204,0.582c0.075,0.158,0.231,0.25,0.396,0.25c0.063,0,0.127-0.016,0.189-0.043
		l9.115-4.377c0.115-0.057,0.201-0.16,0.234-0.285c0.025-0.125,0.008-0.258-0.066-0.358l-1.04-1.471l0.416-0.234l0.597,0.813
		l-0.068,0.068c0.467,0.476,0.672,0.919,0.606,1.322c-0.114,0.69-0.974,1.144-1,1.149l-7.019,3.955l-0.073,0.049
		c-2.896,2.537-8.081-1.313-8.177-1.381L2.037,14.29L2.725,13.771z M22.417,19.042l-7.019,3.955l-0.073,0.051
		c-2.896,2.535-8.081-1.313-8.177-1.383l-5.111-2.996l0.688-0.521l8.192,4.729c0.069,0.039,0.145,0.062,0.22,0.062
		c0.15,0,0.298-0.076,0.378-0.222c0.116-0.209,0.049-0.479-0.166-0.598l-9.2-5.315l0.821-0.947l3.694,2.162
		c0.172,0.133,3.231,2.397,6.203,2.397c1.055,0,2.1-0.285,2.999-1.057l5.262-2.967l0.764,1.08l-8.646,4.146
		c-0.22,0.104-0.312,0.365-0.204,0.586c0.075,0.156,0.229,0.246,0.396,0.246c0.063,0,0.127-0.015,0.188-0.043l9.115-4.375
		c0.113-0.058,0.199-0.16,0.232-0.283c0.027-0.127,0.008-0.26-0.064-0.359l-1.016-1.434l0.42-0.229l0.563,0.771l-0.064,0.066
		c0.467,0.477,0.672,0.92,0.604,1.322C23.303,18.585,22.443,19.029,22.417,19.042z"/>
</g>
<g id="phone" display="none">
	<g display="inline">
		<path fill="#FCB033" d="M7.963,1.26c0.008,0.013,0.05,0.083,0.072,0.188c0.03,0.104,0.075,0.232,0.121,0.36L8.86,3.796
			c0.183,0.456,0.374,0.936,0.573,1.4c0.076,0.188,0.084,0.333,0.09,0.429L9.7,6.151L9.573,6.343C9.5,6.759,9.299,7.112,8.952,7.441
			C7.724,8.614,7.724,8.614,8.828,9.995c1.381,1.738,3.031,3.319,5.045,4.838c0.298,0.224,0.428,0.254,0.477,0.254
			c0.037,0,0.121-0.065,0.217-0.229c0.604-0.957,1.396-1.451,2.349-1.479l0.038-0.045l0.629,0.07
			c0.104,0.021,0.215,0.045,0.32,0.086l0.106,0.014l3.745,1.482c0.066,0.018,0.116,0.043,0.145,0.055l0.699,0.457l0.08,0.129
			c0.233,0.371,0.235,0.809,0.205,1.141c-0.27,3.34-3.307,6.074-6.771,6.092H16.04c-1.188,0-2.298-0.293-3.31-0.873
			C7.648,19.028,3.665,15.032,0.882,10.1c-1.09-1.94-1.172-4.205-0.229-6.219c0.942-2.001,2.801-3.43,4.979-3.82
			C6.264-0.053,6.761-0.013,7.156,0.21 M6.27,1.055c-0.137,0-0.287,0.018-0.452,0.047C3.951,1.441,2.418,2.62,1.61,4.337
			C0.812,6.034,0.885,7.944,1.804,9.583c2.685,4.769,6.54,8.629,11.455,11.487c0.847,0.484,1.78,0.729,2.777,0.729v0.529
			l0.067-0.529c2.933-0.012,5.496-2.311,5.725-5.125c0.042-0.449-0.051-0.512-0.148-0.564l-0.414-0.172l-3.638-1.422
			c-0.137-0.039-0.198-0.059-0.259-0.064l-0.082-0.018l-0.172,0.018l-0.141-0.006c-0.418,0-0.973,0.113-1.52,0.979
			c-0.297,0.479-0.67,0.728-1.105,0.728c-0.431,0-0.806-0.229-1.109-0.461c-2.09-1.578-3.803-3.225-5.238-5.026
			c-1.564-1.955-1.546-2.29,0.22-3.979c0.25-0.236,0.302-0.421,0.319-0.582L8.544,6.07l-0.032-0.1
			C8.475,5.822,8.47,5.755,8.466,5.685C8.257,5.135,8.063,4.653,7.87,4.17L7.159,2.161c-0.054-0.152-0.107-0.305-0.15-0.458
			c0,0.003,0,0.005,0,0.005c-0.006,0-0.034-0.055-0.056-0.125L6.875,1.415C6.737,1.146,6.584,1.055,6.27,1.055z"/>
	</g>
</g>
<g id="car-park" display="none">
	<g display="inline">
		<path fill="#FCB033" d="M14.673,15.775c1.08,0.154,1.122,0.197,1.306,1.266c0.162,0.928,0.328,1.854,0.489,2.785
			c0.226,1.271-0.129,1.848-1.37,2.244c-0.344,1.783-0.729,2.193-2.027,2.141c-1.131-0.049-1.555-0.563-1.729-2.174
			c-0.821,0-1.656,0-2.49,0c-0.821,0-1.641,0-2.268,0c-0.336,0.688-0.511,1.354-0.928,1.781c-0.288,0.299-0.912,0.367-1.385,0.367
			c-1.089,0-1.492-0.561-1.637-2.063c-0.314-0.158-0.666-0.271-0.935-0.488c-0.494-0.396-0.637-0.946-0.523-1.567
			c0.182-1.008,0.366-2.017,0.544-3.021C1.908,15.979,1.944,15.94,3,15.776c0.095-0.699,0.153-1.42,0.294-2.121
			c0.311-1.543,1.582-2.69,3.152-2.758c1.562-0.068,3.131-0.08,4.693-0.009c1.864,0.085,3.185,1.432,3.375,3.296
			C14.564,14.703,14.617,15.221,14.673,15.775z M13.253,15.798c0.144-2.301-0.748-3.782-2.528-3.503
			c-0.137,1.085-0.26,1.195-1.36,1.199c-0.281,0.002-0.562,0-0.842,0c-1.304,0-1.316-0.012-1.583-1.239
			c-1.886-0.142-2.599,1.31-2.503,3.543C7.375,15.798,10.315,15.798,13.253,15.798z M4.034,17.986
			c-0.714,0.002-1.311,0.59-1.317,1.293c-0.006,0.713,0.643,1.344,1.359,1.322c0.7-0.021,1.291-0.641,1.278-1.336
			C5.342,18.557,4.749,17.98,4.034,17.986z M13.634,17.982c-0.714,0.012-1.295,0.602-1.292,1.313
			c0.004,0.703,0.604,1.308,1.305,1.312c0.729,0.002,1.354-0.64,1.33-1.354C14.952,18.541,14.352,17.973,13.634,17.982z"/>
	</g>
	<g display="inline">
		<g>
			<path fill="#FCB033" d="M21.8,8.651c0,0.573-0.181,1.011-0.538,1.313c-0.359,0.308-0.867,0.454-1.527,0.454H19.25v1.896h-1.128
				V6.991h1.7c0.645,0,1.136,0.137,1.473,0.417C21.631,7.686,21.8,8.1,21.8,8.651z M19.25,9.497h0.371
				c0.348,0,0.605-0.071,0.779-0.206c0.172-0.138,0.259-0.337,0.259-0.601c0-0.269-0.07-0.46-0.216-0.585
				c-0.146-0.127-0.373-0.189-0.68-0.189H19.25V9.497z"/>
		</g>
	</g>
	<g display="inline">
		<path fill="#FCB033" d="M19.502,14.583c-2.904,0-5.268-2.365-5.268-5.271c0-2.906,2.361-5.271,5.268-5.271
			c2.907,0,5.271,2.363,5.271,5.271C24.773,12.218,22.407,14.583,19.502,14.583z M19.502,4.923c-2.42,0-4.393,1.974-4.393,4.395
			c0,2.422,1.973,4.393,4.393,4.393c2.421,0,4.393-1.97,4.393-4.393S21.923,4.923,19.502,4.923z"/>
	</g>
	<g display="inline">
		<rect x="18" y="14" fill="#FCB033" width="2" height="10"/>
	</g>
</g>
<g id="nosmoking" display="none">
	<g display="inline">
		<path fill="#FCB033" d="M14.318,11.844L23.9,2.26c0.347-0.344,0.347-0.899,0-1.245c-0.344-0.349-0.902-0.349-1.246,0l-9.584,9.583
			L3.488,1.012c-0.345-0.349-0.903-0.349-1.248,0c-0.345,0.345-0.345,0.9,0,1.245l9.582,9.583L2.24,21.427
			c-0.345,0.347-0.345,0.902,0,1.248c0.172,0.177,0.398,0.263,0.624,0.263c0.226,0,0.452-0.086,0.624-0.263l9.583-9.582l9.584,9.582
			c0.178,0.177,0.396,0.263,0.623,0.263c0.229,0,0.451-0.086,0.623-0.263c0.353-0.346,0.353-0.901,0-1.248L14.318,11.844z"/>
		<path fill="#FCB033" d="M20.311,11.12L20.691,11H2.251C1.571,11,1,12.037,1,12.713v0.934C1,14.35,1.603,15,2.251,15h13.526h0.748
			h3.771c0.111,0,0.226,0.062,0.332,0.062c0.108,0,0.224-0.062,0.331-0.062h0.043l-0.384-0.037C21.02,14.826,21,14.458,21,14.057
			v-1.893C21,11.665,20.816,11.149,20.311,11.12z M4,14v-2h12v2H4z M17,12h2.545c-0.021,0-1.42-0.375-1.545,0.168v1.893
			C18,14.106,19.521,14,19.531,14H17V12z M20,14.057c0,0.176-0.325,0.313-0.5,0.313c-0.174,0-0.5-0.143-0.5-0.313v-1.893
			c0-0.174,0.326-0.313,0.5-0.313c0.175,0,0.5,0.142,0.5,0.313V14.057z"/>
		<g>
			<path fill="#FCB033" d="M2.002,10.51c-0.247-0.008-0.327-0.176-0.226-0.382C1.961,9.75,2.06,9.35,1.98,8.938
				C1.923,8.647,1.816,8.361,1.693,8.091C1.4,7.451,1.359,6.804,1.586,6.141c0.041-0.116,0.095-0.229,0.15-0.336
				c0.065-0.125,0.168-0.19,0.305-0.132c0.14,0.067,0.159,0.184,0.111,0.33C2.06,6.281,1.953,6.559,1.912,6.843
				C1.847,7.285,2.004,7.688,2.202,8.08C2.47,8.612,2.54,9.172,2.395,9.75c-0.05,0.204-0.13,0.402-0.219,0.593
				C2.138,10.423,2.042,10.474,2.002,10.51z"/>
		</g>
		<g>
			<path fill="#FCB033" d="M0.771,9.638c-0.237,0-0.313-0.155-0.247-0.355c0.087-0.263,0.188-0.528,0.23-0.799
				c0.068-0.448-0.083-0.86-0.284-1.257C0.154,6.598,0.123,5.945,0.351,5.28c0.04-0.115,0.093-0.227,0.147-0.337
				c0.066-0.134,0.174-0.202,0.317-0.131c0.146,0.067,0.14,0.19,0.098,0.334C0.826,5.437,0.721,5.729,0.68,6.027
				C0.621,6.447,0.779,6.83,0.964,7.203C1.283,7.839,1.311,8.498,1.08,9.169c-0.039,0.115-0.089,0.23-0.155,0.333
				C0.882,9.568,0.803,9.611,0.771,9.638z"/>
		</g>
	</g>
</g>
<g id="flat-screen-tv" display="none">
	<g display="inline">
		<path fill="#FCB033" d="M25,22H0V8h25V22z M1,21h23V9H1V21z"/>
	</g>
	<g display="inline">
		<rect x="2" y="10" fill="#FCB033" width="21" height="10"/>
	</g>
	<g display="inline">
		<rect x="2" y="23" fill="#FCB033" width="21" height="1"/>
	</g>
</g>
<g id="cctv" display="none">
	<path display="inline" fill="#FCB033" d="M23.882,8.583L9.279,2.477C8.295,2.065,7.693,2.229,7.441,2.835L5.796,6.767
		C5.795,6.769,5.795,6.771,5.794,6.774L5.205,8.182c-0.336,0.806,0.103,1.729,0.999,2.104l4.997,2.146L6,17.514v-3.125
		c0-0.201,0.071-0.218-0.051-0.336C5.742,13.848,6.375,14.125,5.288,14H2.306c-0.165,0-0.684-0.147-0.833-0.004
		C1.321,14.148,1,14.188,1,14.389v8.2C1,22.9,1.642,24,2.357,24h2.931C5.849,24,6,23.125,6,22.593V20h0.478
		c0.019,0,0.068-0.045,0.103-0.033C6.671,20,6.809,20.02,6.963,20.02c0.077,0,0.158-0.026,0.24-0.063
		c0.372-0.057,0.655-0.295,0.76-0.627l5.871-5.846l5.497,2.295c0.26,0.109,0.528,0.16,0.786,0.16c0.512,0,0.979-0.209,1.273-0.568
		l0.758,0.314l0.16,0.029c0.332,0,0.438-0.314,0.562-0.65c0.021-0.063,0.04-0.117,0.057-0.158l0.527-1.262
		c0.019-0.043,0.04-0.08,0.058-0.113c0.063-0.105,0.15-0.271,0.082-0.467l-0.083-0.188l-0.856-0.354l0.174-0.401
		c1.076-0.017,1.32-0.134,1.434-0.389l0.662-1.584C25.102,9.706,25.068,9.081,23.882,8.583z M5,22.593C5,22.755,5.35,22,5.288,23
		H2.433C2.413,22,2,22.669,2,22.593V15h3.341C5.389,15,5,14.468,5,14.471V17H4.116C3.584,17,3,17.955,3,18.492v0.586
		C3,19.313,3.275,20,4.116,20H5V22.593z M7.254,18.938l-0.021,0.123c-0.003,0.021-0.017,0.104-0.172,0.117l-0.096,0.008
		l-0.032,0.021c-0.026-0.008-0.058-0.063-0.082-0.076C6.753,19.093,6.63,19,6.488,19h-0.22H5.497h-1.38C3.967,19,4,19.074,4,19.078
		v-0.586C4,18.324,4.076,18,4.116,18H6.55l5.554-5.408l0.961,0.482L7.254,18.938z M19.629,15.064L6.501,9.576
		C5.995,9.364,5.743,8.892,5.916,8.479l0.151-0.362c0.17,0.199,0.39,0.37,0.659,0.482l7.004,2.8c0.555,0.229,5.59,0.656,8.259,0.713
		L21.65,12.92l-0.521,1.232c-0.001,0.004-0.004,0.008-0.005,0.012l-0.235,0.574C20.723,15.139,20.156,15.285,19.629,15.064z
		 M22.727,13.384l-0.51,1.226c-0.021,0.054-0.049,0.125-0.074,0.203c-0.004,0.01-0.008,0.021-0.012,0.028l-0.355-0.146
		c0.021-0.084,0.045-0.178,0.068-0.237l0.514-1.226L22.727,13.384z M24.207,9.845L23.6,11.295c-0.123,0.022-0.414,0.057-1.062,0.057
		c-2.687,0-8.065-0.508-8.517-0.663L7.018,7.885C6.624,7.722,6.392,7.346,6.507,7.065L7.16,5.504l0,0l0.992-2.372
		C8.181,3.063,8.209,3.02,8.349,3.02c0.15,0,0.363,0.057,0.632,0.17l14.602,6.104C24.311,9.598,24.232,9.784,24.207,9.845z"/>
</g>
<g id="air-con" display="none">
	<g display="inline">
		<path fill="#FCB033" d="M24.645,17.625c-0.104,0.238-0.293,0.31-0.543,0.31c-7.853-0.002-15.706-0.002-23.559,0
			c-0.249,0-0.439-0.063-0.543-0.31c0-2.873,0-5.745,0-8.616C0.055,8.86,0.095,8.703,0.167,8.563c0.329-0.646,0.87-0.922,1.584-0.92
			c2.478,0.005,4.955,0.002,7.433,0.002c4.542,0,9.091-0.003,13.636,0.008c0.312,0,0.643,0.061,0.929,0.177
			c0.515,0.208,0.749,0.67,0.896,1.179C24.645,11.88,24.645,14.751,24.645,17.625z M23.43,8.577c0,0.16,0.006,0.271,0,0.382
			c-0.031,0.497-0.304,0.869-0.742,0.986c-0.158,0.042-0.332,0.051-0.498,0.051C15.611,9.999,9.037,9.998,2.46,9.998
			c-0.112,0-0.224-0.005-0.335-0.018C1.662,9.926,1.312,9.593,1.241,9.13C1.215,8.96,1.212,8.787,1.196,8.582
			c-0.305,0.21-0.383,0.481-0.383,0.803c0.003,2.494,0.002,4.988,0.002,7.482c0,0.078,0,0.154,0,0.232c0.147,0,0.263,0,0.4,0
			c0-0.104,0-0.189,0-0.277c0-0.568-0.007-1.139,0.001-1.707c0.009-0.691,0.429-1.105,1.119-1.105
			c6.655-0.002,13.312-0.002,19.968,0c0.702,0,1.117,0.416,1.125,1.125c0.006,0.568,0.002,1.142,0.002,1.707
			c0,0.091,0,0.177,0,0.265c0.148,0,0.264,0,0.397,0c0-0.104,0-0.188,0-0.274c0-2.466,0-4.926,0-7.387
			c0-0.088,0.003-0.178-0.009-0.269C23.789,8.934,23.688,8.735,23.43,8.577z M1.774,8.465c0,0.204-0.013,0.384,0.003,0.557
			c0.024,0.252,0.189,0.397,0.442,0.427c0.08,0.008,0.16,0.006,0.241,0.006c6.576,0.001,13.153,0.001,19.729,0
			c0.098,0,0.211,0.026,0.283-0.018c0.143-0.086,0.313-0.191,0.363-0.328c0.066-0.191,0.033-0.418,0.044-0.644
			C15.827,8.465,8.813,8.465,1.774,8.465z M22.867,15.646c-7.038,0-14.056,0-21.088,0c0,0.178,0,0.34,0,0.516
			c7.036,0,14.056,0,21.088,0C22.867,15.99,22.867,15.832,22.867,15.646z M1.787,15.064c7.026,0,14.05,0,21.078,0
			c-0.021-0.381-0.198-0.521-0.639-0.521c-6.604,0-13.205,0-19.797,0c-0.088,0-0.177,0.002-0.263,0.021
			C1.905,14.617,1.785,14.779,1.787,15.064z M1.777,17.098c7.05,0,14.069,0,21.087,0c0-0.142,0-0.252,0-0.373
			c-7.038,0-14.058,0-21.087,0C1.777,16.854,1.777,16.971,1.777,17.098z"/>
		<path fill="#FCB033" d="M14.848,25c-0.289-0.014-0.384-0.207-0.264-0.449c0.215-0.438,0.33-0.907,0.236-1.396
			c-0.066-0.338-0.19-0.674-0.336-0.989c-0.342-0.75-0.396-1.511-0.123-2.285c0.047-0.137,0.104-0.271,0.175-0.396
			c0.073-0.146,0.196-0.222,0.356-0.146c0.164,0.076,0.186,0.211,0.129,0.39c-0.104,0.317-0.23,0.646-0.28,0.979
			c-0.076,0.521,0.108,0.988,0.34,1.447c0.315,0.623,0.396,1.281,0.228,1.959c-0.06,0.238-0.146,0.473-0.256,0.692
			C15.007,24.896,14.895,24.957,14.848,25z"/>
		<path fill="#FCB033" d="M12.385,24.996c-0.277,0-0.367-0.182-0.289-0.416c0.104-0.309,0.221-0.619,0.271-0.938
			c0.078-0.525-0.1-1.014-0.332-1.479c-0.372-0.73-0.407-1.502-0.145-2.281c0.047-0.135,0.107-0.266,0.172-0.395
			c0.078-0.156,0.203-0.236,0.373-0.154s0.164,0.229,0.111,0.396c-0.102,0.342-0.225,0.684-0.271,1.025
			c-0.064,0.492,0.117,0.943,0.336,1.385c0.373,0.74,0.406,1.52,0.139,2.305c-0.047,0.137-0.104,0.271-0.186,0.391
			C12.516,24.914,12.422,24.964,12.385,24.996z"/>
		<path fill="#FCB033" d="M12.343,12.917c0.386,0,0.771-0.006,1.155,0.002c0.271,0.006,0.434,0.229,0.29,0.401
			c-0.071,0.088-0.233,0.137-0.354,0.139c-0.738,0.019-1.477,0.008-2.215,0.008c-0.008,0-0.016,0-0.024,0
			c-0.187-0.006-0.373-0.024-0.375-0.271c-0.001-0.236,0.177-0.276,0.367-0.276C11.573,12.916,11.958,12.917,12.343,12.917z"/>
		<path fill="#FCB033" d="M22.048,13.257c-0.103,0.064-0.196,0.175-0.304,0.188c-0.155,0.025-0.26-0.092-0.262-0.25
			c0-0.168,0.104-0.286,0.271-0.26c0.104,0.019,0.195,0.135,0.292,0.209C22.048,13.182,22.048,13.218,22.048,13.257z"/>
		<path fill="#FCB033" d="M20.802,13.242c-0.099,0.07-0.186,0.18-0.294,0.203c-0.154,0.033-0.261-0.084-0.271-0.236
			c-0.008-0.17,0.104-0.293,0.27-0.271c0.104,0.014,0.2,0.127,0.303,0.192C20.8,13.167,20.801,13.205,20.802,13.242z"/>
		<path fill="#FCB033" d="M9.925,25c-0.275-0.01-0.377-0.182-0.306-0.381c0.081-0.234,0.188-0.461,0.244-0.699
			c0.126-0.543,0.044-1.063-0.212-1.563c-0.358-0.688-0.506-1.396-0.314-2.156c0.057-0.229,0.155-0.451,0.244-0.672
			c0.066-0.168,0.189-0.277,0.375-0.195c0.196,0.086,0.195,0.254,0.109,0.426c-0.27,0.535-0.349,1.104-0.195,1.685
			c0.069,0.261,0.191,0.506,0.302,0.752c0.393,0.865,0.382,1.724-0.033,2.57C10.086,24.869,9.974,24.947,9.925,25z"/>
		<path fill="#FCB033" d="M14.848,25c-0.289-0.014-0.384-0.207-0.264-0.449c0.215-0.438,0.33-0.907,0.236-1.396
			c-0.066-0.338-0.19-0.674-0.336-0.989c-0.342-0.75-0.396-1.511-0.123-2.285c0.047-0.137,0.104-0.271,0.175-0.396
			c0.073-0.146,0.196-0.222,0.356-0.146c0.164,0.076,0.186,0.211,0.129,0.39c-0.104,0.317-0.23,0.646-0.28,0.979
			c-0.076,0.521,0.108,0.988,0.34,1.447c0.315,0.623,0.396,1.281,0.228,1.959c-0.06,0.238-0.146,0.473-0.256,0.692
			C15.007,24.896,14.895,24.957,14.848,25z"/>
		<path fill="#FCB033" d="M12.385,24.996c-0.277,0-0.367-0.182-0.289-0.416c0.104-0.309,0.221-0.619,0.271-0.938
			c0.078-0.525-0.1-1.014-0.332-1.479c-0.372-0.73-0.407-1.502-0.145-2.281c0.047-0.135,0.107-0.266,0.172-0.395
			c0.078-0.156,0.203-0.236,0.373-0.154s0.164,0.229,0.111,0.396c-0.102,0.342-0.225,0.684-0.271,1.025
			c-0.064,0.492,0.117,0.943,0.336,1.385c0.373,0.74,0.406,1.52,0.139,2.305c-0.047,0.137-0.104,0.271-0.186,0.391
			C12.516,24.914,12.422,24.964,12.385,24.996z"/>
	</g>
</g>
<g id="wi-fi" display="none">
	<g display="inline">
		<g>
			<g>
				<path fill="#FCB033" d="M4.812,24.166c-2.294,0-4.161-1.867-4.161-4.162c0-2.297,1.867-4.164,4.161-4.164
					c2.296,0,4.163,1.867,4.163,4.164C8.975,22.298,7.108,24.166,4.812,24.166z M4.812,17.199c-1.544,0-2.801,1.258-2.801,2.805
					c0,1.545,1.257,2.808,2.801,2.808c1.545,0,2.803-1.263,2.803-2.808C7.615,18.457,6.357,17.199,4.812,17.199z"/>
			</g>
		</g>
		<g>
			<g>
				<path fill="#FCB033" d="M17.822,25c-0.006,0-0.016,0-0.026,0H14.58c-0.375,0-0.68-0.104-0.68-0.481
					c0-7.865-5.658-13.699-13.406-13.699C0.119,10.814,0,10.607,0,10.232V7.016c0-0.375,0.119-0.684,0.495-0.684
					c9.783,0,17.964,8.309,18.073,18.182c0.02,0.063-0.021-0.063-0.021,0C18.55,24.891,18.198,25,17.822,25z M15.247,24h1.854
					C16.746,15,10,8.076,1,7.71v1.855C8,9.893,14.93,15,15.247,24z"/>
			</g>
		</g>
		<g>
			<g>
				<path fill="#FCB033" d="M24.127,25c-0.006,0-0.018,0-0.027,0h-3.213c-0.376,0-0.681-0.104-0.681-0.481
					c0-10.521-9.297-20.009-19.711-20.009C0.119,4.509,0,4.302,0,3.926V0.71c0-0.375,0.119-0.68,0.495-0.68
					c13.887,0,24.28,10.512,24.377,24.484c0.019,0.063-0.019-0.065-0.019,0C24.854,24.891,24.503,25,24.127,25z M21.555,24h1.856
					C23.086,11,13,1.731,1,1.399v1.856C12,3.655,21.164,13,21.555,24z"/>
			</g>
		</g>
	</g>
</g>
<g id="video-phone" display="none">
	<g display="inline">
		<path fill="#FCB033" d="M21,1.853v20.729C21,23.08,20.273,24,19.67,24H5.738C5.134,24,4,23.08,4,22.585V1.853
			C4,1.338,5.189,1,5.738,1H19.67C20.219,1,21,1.338,21,1.853z M5,22.585C5,22.716,5.724,23,5.738,23H20c0,0,0-0.283,0-0.414V1.853
			C20,1.717,20,2,20,2H5.738C5.558,2,5,1.717,5,1.853V22.585z"/>
	</g>
	<g display="inline">
		<path fill="#FCB033" d="M16.82,3H8.076C7.605,3,8,3.674,8,4.223v10.421C8,15.195,7.605,15,8.076,15h8.744
			c0.492,0,0.18,0.152,0.18-0.354V4.223C17,3.716,17.313,3,16.82,3z M16.82,15h-0.609c-0.141-2-1.746-3.452-3.711-3.452
			S8.929,13,8.789,15H8.076C7.924,15,8,14.76,8,14.646V4.223C8,4.109,7.924,4,8.076,4h8.744C16.975,4,17,4.055,17,4.223v10.421
			C17,14.814,16.975,15,16.82,15z"/>
		<circle fill="#FCB033" cx="12.216" cy="8.558" r="1.984"/>
	</g>
	<g display="inline">
		<path fill="#FCB033" d="M7,15V3h11v12H7z M8,3v12h9V3H8z"/>
	</g>
	<rect x="7" y="14" display="inline" fill="#FCB033" width="11" height="1"/>
	<path display="inline" fill="#E7A723" d="M7.676,22.07v0.008l0.105-0.045c0.023-0.014,0.04-0.014,0.061-0.027
		c0.017-0.002,0.029-0.014,0.042-0.02L9.489,21.3l0.069-0.047c0.038-0.02,0.071-0.041,0.104-0.063l0.106-0.07l-0.003-0.027
		c0.279-0.237,0.408-0.567,0.296-1.067c-0.083-0.356,0.111-0.455,0.431-0.504c1.072-0.146,2.146-0.188,3.22-0.063
		c0.995,0.111,1.013,0.117,0.987,1.104c-0.006,0.194,0.049,0.332,0.137,0.438l0.008,0.037l0.125,0.063
		c0.051,0.028,0.074,0.069,0.146,0.104c0.213,0.086,0.429,0.178,0.644,0.271l0.771,0.366c0.095,0.048,0.187,0.084,0.271,0.138
		c0.021,0.015,0.038,0.015,0.063,0.021l0.129,0.063l-0.009-0.021c0.313,0.104,0.509-0.039,0.709-0.328
		c1.104-1.592,0.343-3.823-1.558-4.358c-2.479-0.692-4.974-0.683-7.462-0.022c-0.484,0.131-0.903,0.379-1.254,0.737
		c-1.029,1.031-1.117,2.722-0.21,3.789C7.351,22.033,7.485,22.119,7.676,22.07z"/>
</g>
<circle fill="#EA4D00" cx="5.375" cy="14.635" r="0.188"/>
<circle fill="#EA4D00" cx="4.563" cy="18.51" r="0.188"/>
<circle fill="#EA4D00" cx="12.188" cy="11.448" r="0.188"/>
<circle fill="#EA4D00" cx="9.25" cy="10.948" r="0.188"/>
<circle fill="#EA4D00" cx="6.75" cy="18.135" r="0.234"/>
<circle fill="#EA4D00" cx="3.25" cy="11.26" r="0.22"/>
</svg>
