<?xml version="1.0" encoding="utf-8"?>
<!-- Generator: Adobe Illustrator 16.0.0, SVG Export Plug-In . SVG Version: 6.00 Build 0)  -->
<!DOCTYPE svg PUBLIC "-//W3C//DTD SVG 1.1//EN" "http://www.w3.org/Graphics/SVG/1.1/DTD/svg11.dtd">
<svg version="1.1" id="Layer_1" xmlns="http://www.w3.org/2000/svg" xmlns:xlink="http://www.w3.org/1999/xlink" x="0px" y="0px"
	 width="23.75px" height="20.625px" viewBox="0 0 23.75 20.625" enable-background="new 0 0 23.75 20.625" xml:space="preserve">
<g id="Layer_2" display="none">
	<g display="inline">
		<path fill="#FCB033" d="M81.734-108.728c1.6,0.229,1.66,0.294,1.936,1.875c0.239,1.376,0.482,2.752,0.725,4.129
			c0.334,1.887-0.188,2.742-2.021,3.331c-0.521,2.644-1.101,3.253-3.019,3.172c-1.681-0.07-2.312-0.835-2.563-3.229
			c-1.217,0-2.455,0-3.688,0c-1.229,0-2.438,0-3.36,0c-0.498,1.021-0.761,2.006-1.375,2.646c-0.431,0.438-1.354,0.546-2.058,0.546
			c-1.615-0.001-2.213-0.823-2.438-3.062c-0.467-0.235-0.979-0.405-1.396-0.726c-0.729-0.588-0.938-1.412-0.771-2.332
			c0.271-1.492,0.543-2.982,0.813-4.477c0.271-1.584,0.334-1.643,1.896-1.875c0.146-1.043,0.229-2.108,0.438-3.148
			c0.461-2.288,2.351-3.991,4.678-4.091c2.313-0.104,4.646-0.119,6.961-0.014c2.765,0.125,4.724,2.122,5.008,4.893
			C81.574-110.319,81.65-109.552,81.734-108.728z M79.627-108.692c0.213-3.413-1.111-5.617-3.75-5.198
			c-0.202,1.611-0.385,1.771-2.018,1.773c-0.416,0.003-0.832,0.001-1.248,0.001c-1.938-0.001-1.951-0.014-2.348-1.834
			c-2.813-0.211-3.854,1.938-3.729,5.258C70.909-108.692,75.27-108.692,79.627-108.692z M65.955-105.452
			c-1.061,0.005-1.943,0.876-1.953,1.921c-0.01,1.058,0.953,1.991,2.016,1.96c1.039-0.028,1.914-0.942,1.896-1.979
			C67.896-104.606,67.018-105.457,65.955-105.452z M80.191-105.454c-1.063,0.017-1.924,0.892-1.916,1.944
			c0.007,1.043,0.896,1.932,1.937,1.937c1.075,0.005,2.006-0.94,1.97-2.005C82.146-104.631,81.258-105.47,80.191-105.454z"/>
	</g>
	<g display="inline">
		<path fill="#FCB033" d="M86.5-95.5c-0.275,0-0.5-0.224-0.5-0.5v-14c0-0.276,0.225-0.5,0.5-0.5s0.5,0.224,0.5,0.5v14
			C87-95.724,86.775-95.5,86.5-95.5z"/>
	</g>
	<g display="inline">
		<path fill="#FCB033" d="M88.5-95.5c-0.275,0-0.5-0.224-0.5-0.5v-14c0-0.276,0.225-0.5,0.5-0.5s0.5,0.224,0.5,0.5v14
			C89-95.724,88.775-95.5,88.5-95.5z"/>
	</g>
	<g display="inline">
		<g>
			<path fill="#FCB033" d="M90.541-116.947c0,0.705-0.221,1.244-0.662,1.619c-0.439,0.373-1.066,0.56-1.88,0.56h-0.597v2.329h-1.389
				v-6.551h2.094c0.795,0,1.396,0.17,1.813,0.515C90.334-118.135,90.541-117.625,90.541-116.947z M87.402-115.906h0.457
				c0.429,0,0.748-0.086,0.959-0.254c0.213-0.17,0.313-0.414,0.313-0.738c0-0.325-0.09-0.565-0.27-0.721
				c-0.188-0.156-0.455-0.231-0.838-0.231H87.4v1.944H87.402z"/>
		</g>
	</g>
	<g display="inline">
		<path fill="#FCB033" d="M87.584-110.24c-3.309,0-6-2.69-6-6c0-3.309,2.691-6,6-6s6,2.691,6,6
			C93.584-112.931,90.893-110.24,87.584-110.24z M87.584-121.24c-2.757,0-5,2.243-5,5c0,2.757,2.243,5,5,5s5-2.243,5-5
			C92.584-118.997,90.341-121.24,87.584-121.24z"/>
	</g>
	<g display="inline">
		<path fill="#FCB033" d="M21,1.854v20.732C21,23.08,20.273,24,19.67,24H5.738C5.134,24,4,23.08,4,22.586V1.854
			C4,1.338,5.189,1,5.738,1H19.67C20.219,1,21,1.338,21,1.854z M5,22.586C5,22.717,5.724,23,5.738,23H20c0,0,0-0.283,0-0.414V1.854
			C20,1.717,20,2,20,2H5.738C5.558,2,5,1.717,5,1.854V22.586z"/>
	</g>
	<g display="inline">
		<path fill="#FCB033" d="M16.82,3H8.076C7.605,3,8,3.674,8,4.223v10.421C8,15.195,7.605,15,8.076,15h8.744
			c0.492,0,0.18,0.152,0.18-0.354V4.223C17,3.716,17.313,3,16.82,3z M16.82,15h-0.609c-0.141-2-1.746-3.452-3.711-3.452
			S8.929,13,8.789,15H8.076C7.924,15,8,14.761,8,14.646V4.223C8,4.109,7.924,4,8.076,4h8.744C16.975,4,17,4.055,17,4.223v10.421
			C17,14.814,16.975,15,16.82,15z"/>
		<circle fill="#FCB033" cx="12.216" cy="8.558" r="1.984"/>
	</g>
	<g display="inline">
		<path fill="#FCB033" d="M7,15V3h11v12H7z M8,3v12h9V3H8z"/>
	</g>
	<rect x="7" y="14" display="inline" fill="#FCB033" width="11" height="1"/>
	<path display="inline" fill="#E7A723" d="M7.676,22.07v0.007l0.105-0.044c0.023-0.016,0.04-0.016,0.061-0.027
		c0.017-0.003,0.029-0.014,0.042-0.02L9.489,21.3l0.069-0.047c0.038-0.019,0.071-0.04,0.104-0.062l0.106-0.07l-0.003-0.027
		c0.279-0.242,0.408-0.572,0.296-1.072c-0.083-0.354,0.111-0.453,0.431-0.504c1.073-0.146,2.146-0.187,3.22-0.062
		c0.995,0.112,1.013,0.118,0.987,1.103c-0.006,0.199,0.049,0.332,0.137,0.442l0.008,0.037l0.125,0.06
		c0.051,0.033,0.074,0.074,0.146,0.104c0.213,0.087,0.429,0.179,0.644,0.271l0.771,0.37c0.095,0.044,0.187,0.084,0.271,0.134
		c0.021,0.021,0.038,0.021,0.063,0.022L17,22.061l-0.018-0.016c0.313,0.102,0.518-0.039,0.709-0.328
		c1.104-1.593,0.352-3.828-1.56-4.363c-2.479-0.688-4.973-0.678-7.461-0.021c-0.484,0.13-0.903,0.379-1.254,0.735
		c-1.029,1.029-1.117,2.724-0.21,3.789C7.351,22.033,7.485,22.118,7.676,22.07z"/>
</g>
<g id="gym" display="none">
	<g display="inline">
		<path fill="#FCB033" d="M3.073,6.405l0.592,0.412c-4.084,8.996,1.83,13.951,1.891,14c0.104,0.084,0.228,0.125,0.351,0.125
			c0.163,0,0.323-0.063,0.435-0.207C6.536,20.5,6.5,20.145,6.26,19.953c-0.219-0.186-5.212-4.428-1.659-12.48L6.147,8.55
			c0.097,0.066,0.208,0.1,0.32,0.1c0.175,0,0.349-0.083,0.458-0.24c0.177-0.252,0.114-0.602-0.139-0.777L3.901,5.619l-0.61-3.313
			C3.235,2.004,2.949,1.81,2.64,1.858C2.336,1.915,2.136,2.206,2.192,2.51l0.651,3.538C2.871,6.192,2.953,6.321,3.073,6.405z"/>
		<path fill="#FCB033" d="M22.579,18.885c0-2.927-2.381-5.352-5.31-5.352c-1.438,0-2.742,0.561-3.699,1.492l0.635-0.123L4.2,24
			H1.902c-0.31,0-0.559,0.189-0.559,0.5S1.593,25,1.902,25H3.02h7.544H22.02c0.313,0,0.563-0.189,0.563-0.5S22.328,24,22.02,24
			h-3.134C21.021,24,22.579,21.245,22.579,18.885z M11.837,24l1.587-1.393C14.032,23.253,14.809,24,15.67,24H11.837z M17.27,22.988
			c-1.229,0-2.343-0.551-3.104-1.407l2.389-2.388c0.221-0.221,0.221-0.571,0-0.791c-0.221-0.219-0.568-0.219-0.791,0l-1.869,1.871
			l-0.218-3.586c0.729-1.236,2.063-2.076,3.604-2.076c2.312,0,4.188,1.879,4.188,4.188C21.461,21.109,19.581,22.988,17.27,22.988z"
			/>
		<path fill="#FCB033" d="M23.133,8.973l-0.744-0.744C22.285,8.14,22.154,8,22.02,8h-5.588c-0.299,0-0.545,0.325-0.559,0.624
			c-0.014,0.298,0.21,0.601,0.507,0.628l0.945,0.108l1.549,0.623c-0.001,0.006-0.004,0.014-0.005,0.02l-0.561,2.331
			c-0.072,0.3,0.104,0.604,0.414,0.676c0.045,0.01,0.088,0.018,0.131,0.018c0.252,0,0.479-0.168,0.543-0.428l0.521-2.188
			l0.869,0.344c0.063,0.025,0.135,0.039,0.204,0.039c0.083,0,0.164-0.019,0.234-0.054l1.771-0.84c0.172-0.08,0.29-0.242,0.313-0.428
			C23.346,9.284,23.273,9.097,23.133,8.973z"/>
	</g>
</g>
<g id="Layer_18" display="none">
</g>
<g id="concierge" display="none">
	<g display="inline">
		<path fill="#FCB033" d="M24.591,17.482c-0.147-2.652-1.307-5.254-3.11-7.193c-0.914-0.981-1.979-1.819-3.172-2.444
			c-0.582-0.306-1.188-0.56-1.813-0.761c-0.25-0.08-0.467-0.132-0.452-0.439c0.019-0.436,0.015-0.873,0.009-1.309
			c-0.004-0.391-0.014-0.545,0.264-0.821c0.188-0.182,0.313-0.418,0.33-0.677c0.063-0.647-0.535-1.1-1.063-1.324
			c-1.354-0.563-3.002-0.553-4.419-0.275c-0.596,0.113-1.245,0.324-1.679,0.77C9.039,3.459,9.077,4.157,9.55,4.572
			c0.179,0.155,0.408,0.227,0.403,0.5C9.94,5.458,9.937,5.843,9.941,6.229c0.003,0.264,0.098,0.586-0.219,0.675
			c-0.347,0.095-0.691,0.206-1.03,0.33c-2.408,0.895-4.439,2.571-5.828,4.727c-0.688,1.066-1.198,2.243-1.497,3.477
			c-0.146,0.604-0.242,1.229-0.292,1.834c-0.046,0.572-0.132,1.101-0.04,1.658C1.1,19.329,2.181,19,2.447,19
			c0.841,0,1.682,0,2.521,0c1.617,0,3.234,0,4.851,0c3.222,0,6.449,0.166,9.667,0.125c1.205-0.016,2.412,0.027,3.619,0.016
			c0.367-0.004,1.209,0.17,1.521-0.082c0.108-0.091,0.017-0.629,0.017-0.771C24.643,18.008,24.605,17.758,24.591,17.482
			C24.547,16.699,24.596,17.566,24.591,17.482z M15.271,3.761c-0.938,0.605-3.823,0.605-4.733,0
			C11.428,3.15,14.373,3.15,15.271,3.761z M14.419,6.334c0.04,0.319-0.247,0.234-0.459,0.21c-0.38-0.045-0.765-0.063-1.147-0.063
			c-0.354,0-0.708,0.016-1.063,0.05c-0.25,0.021-0.18-0.43-0.18-0.594c0.004-0.317,0.212-0.331,0.473-0.301
			c0.324,0.038,0.652,0.021,0.979,0.021c0.354,0,0.709,0.003,1.063,0C14.573,5.648,14.369,5.94,14.419,6.334
			C14.448,6.567,14.396,6.161,14.419,6.334z M22.876,17.755C22.865,17.833,22.721,18,22.645,18c-0.188,0-0.387,0-0.58,0
			c-0.387,0-0.771,0-1.146,0c-0.849,0-1.685,0-2.521,0c-1.604,0-3.215,0-4.813,0c-3.233,0-6.461-0.098-9.692-0.124
			c-0.289-0.003-0.81-0.09-1.072-0.212c-0.22-0.104-0.058-0.635-0.032-0.805c0.113-0.717,0.294-1.438,0.548-2.108
			c0.471-1.255,1.2-2.405,2.109-3.388c1.767-1.908,4.24-3.034,6.829-3.208c2.792-0.188,5.583,0.917,7.612,2.837
			c0.896,0.854,1.618,1.876,2.146,3c0.268,0.581,0.479,1.23,0.646,1.85"/>
		<path fill="#FCB033" d="M20.604,13.732c-0.854-1.899-2.479-3.273-4.303-4.229c-0.867-0.452-1.783-0.618-2.496,0.211
			c-0.466,0.541-0.584,1.36-0.14,1.95c0.248,0.33,0.614,0.49,0.974,0.671c0.428,0.216,0.844,0.46,1.232,0.743
			c0.729,0.533,1.35,1.206,1.768,2.012c0.188,0.354,0.33,0.688,0.709,0.889c0.385,0.189,0.856,0.19,1.258,0.047
			C20.498,15.688,21.006,14.621,20.604,13.732C20.261,12.979,20.702,13.952,20.604,13.732z M19.072,14.906
			c-0.215,0.025-0.276-0.229-0.35-0.374c-0.148-0.294-0.318-0.576-0.521-0.845c-0.385-0.535-0.854-1.019-1.364-1.418
			c-0.474-0.367-0.979-0.682-1.514-0.961c-0.188-0.102-0.54-0.191-0.688-0.369c-0.172-0.216,0.146-0.537,0.344-0.589
			c0.418-0.109,1.104,0.44,1.441,0.646c0.537,0.327,1.049,0.699,1.51,1.131C18.277,12.443,20.373,14.739,19.072,14.906
			C18.9,14.93,19.294,14.879,19.072,14.906z"/>
		<rect x="1" y="20" fill="#FCB033" width="24" height="2"/>
	</g>
</g>
<g id="maid" display="none">
	<g display="inline">
		<g>
			<path fill="#FCB033" d="M9.823,24.296c0.415,0,0.753,0.308,0.812,0.704h4.646c0.057-0.396,0.396-0.704,0.81-0.704
				s0.753,0.308,0.813,0.704h4.937c-0.168-2.871-2.126-4.357-4.046-5.436c-0.193-0.105-0.261-0.319-0.35-0.612
				c-0.021-0.056-0.041-0.134-0.063-0.191c-0.258-0.081-0.834-0.118-1.267-0.146c-0.528-0.032-1.034-0.064-1.418-0.162l-1.707,3.143
				l-1.813-3.256c-0.294,0.096-0.697,0.188-1.232,0.303c-0.449,0.104-1.002,0.217-1.225,0.313c-0.03,0.052-0.071,0.144-0.099,0.196
				c-0.108,0.229-0.203,0.438-0.393,0.539C5.84,20.979,3.987,22.197,3.829,25h5.184C9.07,24.604,9.411,24.296,9.823,24.296z
				 M16.091,21.886c0.454,0,0.822,0.368,0.822,0.823c0,0.453-0.368,0.824-0.822,0.824s-0.821-0.371-0.821-0.824
				C15.27,22.254,15.637,21.886,16.091,21.886z M9.823,21.886c0.454,0,0.823,0.368,0.823,0.823c0,0.453-0.369,0.824-0.823,0.824
				c-0.453,0-0.822-0.371-0.822-0.824C9.001,22.254,9.37,21.886,9.823,21.886z"/>
			<path fill="#FCB033" d="M10.886,7.879C10.062,7.985,9.426,8.341,8.95,8.96c-1.41,1.828-0.855,5.278-0.85,5.313l0.216,1.285
				c0.839,0.854,1.926,1.479,3.149,1.762c0.021,0.005,0.041,0.011,0.063,0.018c0.41,0.085,0.836,0.13,1.271,0.13
				c2.208,0,4.143-1.146,5.252-2.878l-0.061-0.699l-0.305-3.542C13.932,9.919,11.475,8.302,10.886,7.879z M9.736,11.727
				c0-0.455,0.369-0.822,0.823-0.822c0.456,0,0.824,0.367,0.824,0.822c0,0.453-0.368,0.822-0.824,0.822
				C10.104,12.549,9.736,12.182,9.736,11.727z M14.9,14.573c-1.316,0.829-2.896,0.834-4.174-0.063
				c-0.456-0.316,0.119-0.965,0.569-0.646c0.951,0.668,2.163,0.604,3.125-0.005C14.893,13.563,15.372,14.277,14.9,14.573z
				 M14.898,12.549c-0.453,0-0.821-0.369-0.821-0.822c0-0.455,0.368-0.822,0.821-0.822c0.455,0,0.813,0.367,0.813,0.822
				C15.711,12.18,15.354,12.549,14.898,12.549z"/>
			<path fill="#FCB033" d="M6.666,12.373c0.235,0.617,0.571,1.273,1.043,1.965c0,0-1.083-6.465,3.288-6.872
				c0,0,2.685,2.113,7.058,2.52l0.331,3.872c0,0,0.192-0.313,0.4-0.875c0.269-0.728,0.563-1.854,0.481-3.208
				c-0.039-0.667-0.186-1.388-0.439-2.141c-0.193-0.541-0.458-1.099-0.813-1.665c0,0.07-0.002,0.143-0.002,0.214v0.19H17.87h-0.563
				h-0.596H8.88H8.288H7.721H7.623C7.474,6.53,7.154,6.909,6.856,7.479c-0.362,0.69-0.688,1.658-0.631,2.862
				C6.255,10.959,6.388,11.639,6.666,12.373z"/>
			<path fill="#FCB033" d="M7.865,5.52c0.001,0.06,0.001,0.116,0.003,0.173c0,0.094,0,0.188,0.002,0.281h0.265h0.62h0.679h6.728
				h0.68h0.62h0.156c0-0.15,0.006-0.301,0.006-0.454c0.002-0.033,0.002-0.066,0.002-0.103c0-0.094,0-0.188,0.003-0.284
				c0-0.091,0-0.182,0-0.272c-0.003-0.998-0.068-1.935-0.505-2.376c-0.194-0.198-0.458-0.293-0.806-0.293H9.171
				c-0.349,0-0.611,0.095-0.806,0.293C7.902,2.955,7.854,3.98,7.861,5.049c0,0.101,0.002,0.199,0.002,0.298
				C7.865,5.407,7.865,5.463,7.865,5.52z"/>
		</g>
	</g>
</g>
<g id="welcome_hamper-02" display="none">
	<g display="inline">
		<path fill="#FCB033" d="M12.969,21.844v0.271V21.844z"/>
		<polygon fill="#FCB033" points="10.26,21.844 10.26,22.115 10.261,21.844 		"/>
		<polygon fill="#FCB033" points="15.677,21.844 15.677,22.115 15.678,21.844 		"/>
		<path fill="#FCB033" d="M24.275,10.72l-0.383-0.383c-0.213-0.211-0.453-0.746-0.539-0.66L19.602,13H6.263L2.509,9.677
			C2.423,9.591,2.183,9.909,1.97,10.121l-0.383,0.491c-0.211,0.211-0.313,0.075-0.228,0.159L3.965,13H2.677
			C2.377,13,2,14.105,2,14.404v0.541C2,15.246,2.377,16,2.677,16h1.43l1.598,7.475C5.748,24.008,6.126,24,6.801,24h12.064
			c0.675,0,1.053-0.002,1.097-0.535L21.578,16h1.141C23.018,16,23,15.246,23,14.945v-0.541C23,14.105,23.018,13,22.719,13h-0.82
			l2.605-2.174C24.589,10.74,24.488,10.932,24.275,10.72z M9,21.844v-4.875c0-0.299,0.701-0.542,1-0.542s1,0.243,1,0.542v4.875
			c0,0.299-0.701,0.542-1,0.542S9,22.143,9,21.844z M12,21.844v-4.875c0-0.299,0.702-0.542,1-0.542c0.299,0,1,0.243,1,0.542v4.875
			c0,0.299-0.701,0.542-1,0.542C12.702,22.386,12,22.143,12,21.844z M15,21.844v-4.875c0-0.299,0.701-0.542,1-0.542s1,0.243,1,0.542
			v4.875c0,0.299-0.701,0.542-1,0.542S15,22.143,15,21.844z"/>
	</g>
</g>
<g id="pet_friendly" display="none">
	<g display="inline">
		<path fill="#FCB033" d="M-53.053-86.798c-1.216,0.831-3.753-0.922-6.297-0.941c-2.543-0.019-5.152,1.741-6.325,0.942
			c-1.173-0.799,1.126-7.194,6.325-7.214C-54.151-94.031-51.836-87.629-53.053-86.798z"/>
	</g>
	
		<ellipse transform="matrix(-0.1383 -0.9904 0.9904 -0.1383 17.0475 -173.7091)" display="inline" fill="#FCB033" cx="-67.047" cy="-94.271" rx="3.037" ry="2.203"/>
	
		<ellipse transform="matrix(-0.0553 -0.9985 0.9985 -0.0553 31.726 -165.6287)" display="inline" fill="#FCB033" cx="-62.491" cy="-97.823" rx="3.037" ry="2.203"/>
	
		<ellipse transform="matrix(0.2219 -0.9751 0.9751 0.2219 51.5563 -131.7525)" display="inline" fill="#FCB033" cx="-56.771" cy="-98.179" rx="3.037" ry="2.203"/>
	
		<ellipse transform="matrix(0.5996 -0.8003 0.8003 0.5996 56.1333 -79.4545)" display="inline" fill="#FCB033" cx="-51.342" cy="-95.828" rx="3.037" ry="2.203"/>
	<g display="inline">
		<path fill="#FCB033" d="M-12.053-90.798c-1.216,0.831-3.753-0.922-6.297-0.941c-2.543-0.019-5.152,1.741-6.325,0.942
			c-1.173-0.799,1.126-7.194,6.325-7.214C-13.151-98.031-10.836-91.629-12.053-90.798z"/>
	</g>
	
		<ellipse transform="matrix(-0.1383 -0.9904 0.9904 -0.1383 67.6846 -137.6455)" display="inline" fill="#FCB033" cx="-26.04" cy="-98.269" rx="3.037" ry="2.203"/>
	
		<ellipse transform="matrix(-0.0554 -0.9985 0.9985 -0.0554 78.9816 -128.9164)" display="inline" fill="#FCB033" cx="-21.491" cy="-101.819" rx="3.037" ry="2.203"/>
	
		<ellipse transform="matrix(0.2219 -0.9751 0.9751 0.2219 87.3858 -94.8528)" display="inline" fill="#FCB033" cx="-15.737" cy="-102.178" rx="3.037" ry="2.203"/>
	
		<ellipse transform="matrix(0.5997 -0.8002 0.8002 0.5997 75.7557 -48.2449)" display="inline" fill="#FCB033" cx="-10.343" cy="-99.84" rx="3.037" ry="2.203"/>
	<g display="inline">
		<g>
			<path fill="none" stroke="#FCB033" stroke-miterlimit="10" d="M18.678,22.713c-1.363,0.938-4.213-1.033-7.066-1.056
				c-2.854-0.021-5.781,1.954-7.099,1.059c-1.317-0.896,1.264-8.073,7.099-8.095C17.445,14.6,20.043,21.782,18.678,22.713z"/>
		</g>
		
			<ellipse transform="matrix(-0.1383 -0.9904 0.9904 -0.1383 -10.1495 18.5256)" fill="none" stroke="#FCB033" stroke-miterlimit="10" cx="2.985" cy="13.678" rx="3.409" ry="2.472"/>
		
			<ellipse transform="matrix(-0.0555 -0.9985 0.9985 -0.0555 -1.1311 18.2874)" fill="none" stroke="#FCB033" stroke-miterlimit="10" cx="8.084" cy="9.679" rx="3.411" ry="2.472"/>
		
			<ellipse transform="matrix(0.2223 -0.975 0.975 0.2223 2.2584 21.3747)" fill="none" stroke="#FCB033" stroke-miterlimit="10" cx="14.527" cy="9.272" rx="3.409" ry="2.471"/>
		
			<ellipse transform="matrix(0.6002 -0.7999 0.7999 0.6002 -1.2759 21.234)" fill="none" stroke="#FCB033" stroke-miterlimit="10" cx="20.603" cy="11.893" rx="3.405" ry="2.474"/>
	</g>
</g>
<g id="welcome_hamper-01" display="none">
	<g display="inline">
		<path fill="#FCB033" d="M12.605,21.334v0.328V21.334z"/>
		<polygon fill="#FCB033" points="9.322,21.334 9.322,21.662 9.323,21.334 		"/>
		<polygon fill="#FCB033" points="15.889,21.662 15.889,21.334 15.889,21.334 		"/>
		<path fill="#FCB033" d="M24.424,12H21.79h-0.845c-0.314-5-4.114-8.126-8.75-8.126C7.558,3.874,3.759,7,3.443,12H3.092H0.129
			C-0.234,12,0,11.954,0,12.316v0.656C0,13.337-0.234,13,0.129,13h1.733L3.8,22.71C3.853,23.359,4.311,24,5.128,24h14.626
			c0.816,0,1.275-0.65,1.327-1.3l1.96-9.7h1.382C24.788,13,25,13.337,25,12.973v-0.656C25,11.954,24.788,12,24.424,12z M9,21.334
			v-5.91c0-0.361,0.638-0.656,1-0.656s1,0.295,1,0.656v5.91c0,0.363-0.638,0.657-1,0.657S9,21.697,9,21.334z M12,21.334v-5.91
			c0-0.361,0.639-0.656,1-0.656s1,0.295,1,0.656v5.91c0,0.363-0.639,0.657-1,0.657S12,21.697,12,21.334z M17,21.334
			c0,0.363-0.637,0.657-1,0.657s-1-0.294-1-0.657v-5.91c0-0.361,0.637-0.656,1-0.656s1,0.295,1,0.656V21.334z M12.196,4.531
			C16.459,4.531,19.96,8,20.288,12H4.102C4.431,8,7.931,4.531,12.196,4.531z"/>
	</g>
</g>
<g id="wlecome-provisions" display="none">
	<g display="inline">
		<path fill="#FCB033" d="M18.135,3.564c-0.006,0.003-0.012,0.015-0.018,0.019C18.448,3.58,18.128,3.568,18.135,3.564z"/>
		<path fill="#FCB033" d="M20.525,3.453C20.762,3.304,21,3.042,21,2.743V2.258C21,1.794,20.379,1,19.915,1h-1.931
			C17.521,1,17,1.794,17,2.258v0.485c0,0.298,0.229,0.561,0.463,0.71c-0.273,0.419-0.52,1.033-0.792,1.729
			c-1.04-0.346-2.187-0.537-3.396-0.537c-2.758,0-4.944,1.213-5.985,2.25l0.073,0.068l-4.939,4.725
			c-0.454,0.563-0.922,1.199-0.922,1.881C1.501,14.454,2,15.453,3,16.213v4.571C3,22.184,4.168,23,5.325,23h6.384
			c0.104,0,0.197,0.279,0.291,0.434c0.183,0.301,0.41,0.69,0.852,0.801c0.396,0.104,0.801,0.332,1.229,0.332
			c2.03,0,4.233-1.563,5.521-2.563h1.521C22.113,22,23,20.832,23,19.836v-8.667C23,10.75,21.721,5.283,20.525,3.453z M8.116,7.075
			l0.071-0.004c1.046-0.849,2.866-1.704,5.106-1.704c1.123,0,2.2,0.175,3.16,0.491c-0.547,1.524-1.025,3.27-1.28,4.338
			c-0.894-0.839-2.747-0.854-5.089-0.813c-0.515,0.01-1.048,0.02-1.592,0.02c-1.178,0-2.276,0.176-3.232,0.488L8.116,7.075z
			 M5.325,22C4.228,22,4,21.154,4,20.784v-5.031l-0.14-0.094c-1.246-0.566-1.46-1.216-1.46-2.085c0-1.932,2.679-3.438,6.075-3.438
			c0.548,0,1.094,0.001,1.613-0.007c2.112-0.039,3.953-0.047,4.62,0.608C14.896,10.922,15,10.807,15,11.529v1.783
			c0-0.057-0.426-0.078-0.652-0.078c-1.367,0-2.842,0.863-3.471,1.699c-1.486,1.979-1.858,4.729-0.881,6.774
			c0.096,0.21,0.233,0.29,0.386,0.29L5.325,22L5.325,22z M19.092,21.128c-1.148,1.522-3.162,2.546-5.014,2.546
			c-0.369,0-0.723-0.041-1.055-0.122c-0.146-0.034-0.25-0.192-0.408-0.452c-0.133-0.216-0.326-0.461-0.563-0.639
			C12.051,22.459,12,22.457,12,22.455l-0.417-0.122l0.5,0.5c-0.192,0-0.539-0.862-0.723-0.938c-0.373-0.146-0.606-0.168-0.714-0.395
			c-0.855-1.805-0.511-4.434,0.802-6.176c0.512-0.682,1.761-1.393,2.888-1.393c0.209,0,0.402,0.028,0.576,0.092
			c0.332,0.1,0.568,0.473,0.842,0.896c0.154,0.242,0.314,0.494,0.51,0.724c0.133,0.151,0.271,0.278,0.41,0.385
			c0.398,0.285,0.878,0.412,1.344,0.535c0.498,0.129,0.969,0.254,1.188,0.563C20.009,18.221,19.807,20.182,19.092,21.128z
			 M22,19.836C22,20.434,21.715,21,21.117,21h-1.088c0.557-1,0.599-3.116-0.241-4.271c-0.369-0.506-0.988-0.688-1.588-0.845
			c-0.334-0.088-0.675-0.19-0.948-0.342c0.008-0.031,0.02-0.067,0.021-0.099c0.013-0.428,1.354-0.834,2.56-0.865
			c0.199-0.005,0.356-0.163,0.353-0.362c-0.006-0.198-0.17-0.325-0.371-0.333c-0.188,0.006-0.644,0.032-1.146,0.12
			c0.003-0.412-0.337-0.935-0.771-1.353c-0.604-0.582-1.445-0.657-1.479-0.659l-0.44-0.038l0.063,0.439
			c0.005,0.025,0.108,0.879,0.72,1.459c0.229,0.217,0.461,0.396,0.688,0.519c-0.325,0.149-0.604,0.354-0.744,0.622
			c-0.104-0.146-0.063-0.301-0.153-0.449C16.316,14.234,16,13.934,16,13.695v-2.527C16,10.327,17.428,4,18.117,4
			c-0.063,0-0.139,0-0.25,0l0,0l0.268-0.436L19,3h-1.133l0,0h0.117C17.92,3,18,2.809,18,2.743V2.258C18,2.192,17.92,2,17.984,2
			h1.931C19.98,2,20,2.192,20,2.258v0.485C20,2.809,19.98,3,19.915,3H19v0.584c0,0,0.156-0.015,0.148-0.02
			C19.826,4.009,22,10.32,22,11.168V19.836z M18.07,14.133v-0.279l0,0V14.133z M17.871,13.791c-0.165-0.076-0.396-0.227-0.639-0.459
			c-0.146-0.141-0.25-0.309-0.326-0.468c0.162,0.067,0.333,0.167,0.479,0.308C17.645,13.422,17.794,13.641,17.871,13.791z"/>
	</g>
	<path display="inline" fill="#FCB033" d="M6.367,8.343c-0.013,0.006-0.193-0.15,0.268-0.237c0.227-0.051,0.498-0.089,0.784-0.131
		c0.285-0.043,0.595-0.059,0.895-0.087l0.449-0.002c0.145,0.003,0.291-0.012,0.422,0.01c0.132,0.016,0.26,0.029,0.38,0.044
		c0.117,0.019,0.238,0.016,0.326,0.05c0.361,0.104,0.601,0.177,0.601,0.177S10.228,8.132,9.83,8.08
		C9.738,8.06,9.612,8.078,9.496,8.076C9.377,8.078,9.252,8.08,9.123,8.083C8.998,8.078,8.855,8.11,8.72,8.124L8.308,8.176
		c-0.277,0.063-0.549,0.108-0.8,0.178S7.026,8.486,6.834,8.553C6.448,8.677,5.686,8.871,5.67,8.874L6.367,8.343z"/>
	<path display="inline" fill="#FCB033" d="M7.372,7.37C7.359,7.376,7.174,7.197,7.635,7.109c0.227-0.052,0.498-0.088,0.784-0.131
		C8.705,6.938,9.015,6.926,9.315,6.9l0.451,0.007c0.146,0.007,0.292-0.006,0.425,0.021c0.132,0.021,0.261,0.038,0.382,0.057
		c0.118,0.022,0.24,0.022,0.329,0.063c0.364,0.127,0.606,0.212,0.606,0.212s-0.266-0.112-0.667-0.181C10.75,7.055,10.624,7,10.506,7
		c-0.119,0-0.244,0-0.374,0c-0.125,0-0.268,0.093-0.404,0.105L9.316,7.189c-0.277,0.063-0.549,0.127-0.799,0.2
		c-0.25,0.073-0.48,0.146-0.671,0.219C7.46,7.739,6.699,7.943,6.684,7.946L7.372,7.37z"/>
	<rect x="33.001" y="-17.95" display="inline" fill="#FCB033" width="7.666" height="6.899"/>
</g>
<g id="toiletries" display="none">
	<path display="inline" fill="#FCB033" d="M22.986,16.241l-0.776-1.054c0.347-0.229,0.978-0.732,1.104-1.498
		c0.08-0.479-0.047-0.959-0.375-1.438l0.047-0.034l-0.818-1.109c0.331-0.25,0.676-0.604,0.727-1.037
		c0.025-0.223-0.033-0.539-0.354-0.848l0.038-0.073l-8.308-4.28c-0.293-0.285-0.813-0.667-1.549-0.764
		C11.705,3.973,10.627,4.403,9.5,5.378L3.09,8.997l0.063,0.108l-0.039-0.05l-1.681,1.281l1.591,0.934L2.05,12.396
		c-0.078,0.093-0.112,0.213-0.092,0.33c0.02,0.108,0.091,0.224,0.195,0.271l0.597,0.354l-1.317,1.006l1.591,0.938l-0.97,1.124
		c-0.078,0.091-0.112,0.212-0.092,0.329c0.02,0.118,0.091,0.223,0.195,0.281l0.597,0.344l-1.317,1.005l5.692,3.337
		c0.159,0.118,2.97,2.206,5.7,2.205c0.97,0,1.93-0.262,2.756-0.971l6.396-3.604c0.047-0.021,1.162-0.592,1.336-1.635
		c0.078-0.479-0.047-0.959-0.375-1.436L22.986,16.241z M3.605,9.695L3.572,9.651l6.366-3.587l0.068-0.048
		c0.952-0.833,1.822-1.206,2.602-1.11c0.336,0.042,0.604,0.168,0.813,0.306L13.37,5.313l0.423,0.217
		c0.063,0.063,0.094,0.113,0.104,0.121l0.063-0.04l8.021,4.128L21.949,9.76c0.076,0.06,0.162,0.146,0.152,0.225
		c-0.021,0.217-0.48,0.583-0.904,0.788l-6.104,3.504c-2.659,2.33-7.426-1.207-7.514-1.271L2.876,10.25L3.605,9.695z M3.508,13.789
		l7.527,4.347c0.063,0.036,0.133,0.056,0.202,0.056c0.138,0,0.274-0.063,0.347-0.188c0.112-0.188,0.045-0.438-0.147-0.563
		l-8.458-4.881l0.754-0.873l3.395,1.987c0.16,0.121,2.994,2.229,5.71,2.229c0.96,0,1.906-0.271,2.712-0.971l4.847-2.774l0.729,1.021
		l-7.948,3.814c-0.195,0.096-0.281,0.337-0.188,0.529c0.07,0.146,0.214,0.229,0.363,0.229c0.061,0,0.104-0.014,0.174-0.039
		l8.379-4.021c0.104-0.055,0.187-0.146,0.216-0.264c0.026-0.113,0.007-0.236-0.063-0.338L21.1,11.747l0.381-0.22l0.563,0.748
		l-0.063,0.063c0.438,0.438,0.612,0.846,0.563,1.217c-0.104,0.646-0.896,1.047-0.918,1.063l-6.448,3.634l-0.063,0.046
		c-2.658,2.331-7.429-1.207-7.521-1.271L2.88,14.27L3.508,13.789z M21.604,18.635L15.16,22.27l-0.068,0.049
		c-2.658,2.326-7.426-1.209-7.514-1.271L2.88,18.292l0.632-0.479l7.527,4.354c0.063,0.035,0.133,0.054,0.202,0.054
		c0.138,0,0.274-0.063,0.347-0.193c0.112-0.188,0.045-0.438-0.147-0.557l-8.46-4.887l0.754-0.872l3.395,1.987
		c0.159,0.117,2.97,2.203,5.7,2.203c0.97,0,1.93-0.271,2.756-0.979l4.835-2.729l0.702,0.986l-7.948,3.813
		c-0.198,0.099-0.282,0.337-0.188,0.536c0.068,0.146,0.227,0.229,0.363,0.229c0.063,0,0.116-0.017,0.174-0.034L21.9,17.71
		c0.104-0.053,0.188-0.147,0.217-0.262c0.027-0.115,0.007-0.238-0.063-0.334l-0.938-1.313l0.385-0.215l0.521,0.707l-0.063,0.063
		c0.436,0.438,0.617,0.854,0.563,1.229C22.418,18.214,21.628,18.623,21.604,18.635z"/>
</g>
<g id="phone" display="none">
	<g display="inline">
		<path fill="#FCB033" d="M9.911,3.09c0.006,0.008,0.043,0.071,0.062,0.161c0.026,0.09,0.064,0.199,0.104,0.309l0.604,1.706
			c0.157,0.392,0.321,0.8,0.491,1.201c0.065,0.161,0.072,0.286,0.077,0.368l0.151,0.45L11.292,7.45
			c-0.063,0.356-0.234,0.66-0.533,0.941c-1.054,1.007-1.054,1.007-0.106,2.19c1.185,1.491,2.601,2.849,4.328,4.149
			c0.256,0.188,0.367,0.22,0.41,0.22c0.03,0,0.104-0.063,0.188-0.194c0.521-0.82,1.188-1.247,2.01-1.266l0.033-0.039l0.539,0.063
			c0.089,0.021,0.185,0.037,0.276,0.071l0.094,0.013l3.215,1.271c0.059,0.016,0.1,0.035,0.123,0.047l0.6,0.395l0.069,0.108
			c0.196,0.315,0.198,0.688,0.176,0.974c-0.229,2.865-2.836,5.215-5.812,5.229H16.84c-1.02,0-1.971-0.251-2.836-0.749
			c-4.36-2.536-7.779-5.971-10.164-10.196c-0.939-1.667-1.01-3.61-0.2-5.335C4.448,3.625,6.043,2.4,7.911,2.061
			c0.542-0.098,0.968-0.063,1.307,0.13 M8.458,2.914c-0.118,0-0.246,0.015-0.388,0.041c-1.601,0.29-2.916,1.301-3.609,2.773
			c-0.685,1.456-0.622,3.096,0.167,4.5c2.303,4.086,5.61,7.403,9.826,9.854c0.726,0.416,1.526,0.628,2.383,0.628v0.455l0.058-0.455
			c2.521-0.01,4.717-1.979,4.912-4.396c0.035-0.396-0.045-0.438-0.129-0.484l-0.354-0.146l-3.12-1.223
			c-0.117-0.033-0.171-0.044-0.224-0.057l-0.068-0.021l-0.146,0.021l-0.119-0.006c-0.354,0-0.83,0.1-1.299,0.838
			c-0.256,0.412-0.574,0.621-0.953,0.621c-0.354,0-0.688-0.196-0.953-0.396c-1.791-1.354-3.25-2.762-4.481-4.313
			c-1.35-1.676-1.334-1.963,0.18-3.414c0.215-0.203,0.259-0.359,0.274-0.5V7.21l-0.027-0.081c-0.032-0.126-0.036-0.184-0.04-0.244
			C10.163,6.414,9.996,6,9.831,5.586l-0.61-1.723C9.175,3.733,9.129,3.6,9.093,3.467c0,0.002,0,0.004,0,0.004
			c-0.005,0-0.029-0.047-0.047-0.104L8.977,3.223C8.859,2.992,8.728,2.914,8.458,2.914z"/>
	</g>
</g>
<g id="car-park" display="none">
	<g display="inline">
		<path fill="#FCB033" d="M14.573,15.682c1.017,0.146,1.057,0.188,1.229,1.189c0.152,0.874,0.308,1.747,0.462,2.623
			c0.211,1.197-0.123,1.74-1.291,2.113c-0.324,1.681-0.688,2.063-1.91,2.017c-1.063-0.046-1.458-0.53-1.625-2.048
			c-0.773,0-1.56,0-2.345,0c-0.773,0-1.545,0-2.136,0c-0.316,0.646-0.481,1.271-0.874,1.679c-0.271,0.28-0.859,0.347-1.305,0.347
			c-1.026,0-1.405-0.521-1.542-1.938c-0.3-0.153-0.631-0.264-0.885-0.464c-0.465-0.375-0.6-0.896-0.493-1.479
			c0.171-0.949,0.345-1.896,0.512-2.845c0.177-1.008,0.211-1.043,1.206-1.19c0.089-0.658,0.144-1.338,0.277-1.998
			c0.293-1.455,1.49-2.535,2.969-2.6c1.471-0.063,2.949-0.074,4.42-0.009c1.755,0.08,3,1.349,3.181,3.104
			C14.473,14.669,14.521,15.157,14.573,15.682z M13.234,15.702c0.136-2.167-0.703-3.567-2.38-3.302
			c-0.129,1.021-0.245,1.125-1.281,1.129c-0.265,0.002-0.529,0-0.793,0c-1.229,0-1.239-0.012-1.49-1.168
			c-1.777-0.133-2.448,1.229-2.358,3.34C7.699,15.702,10.469,15.702,13.234,15.702z M4.553,17.762
			c-0.672,0.002-1.235,0.563-1.24,1.221c-0.006,0.683,0.605,1.271,1.28,1.244c0.659-0.021,1.215-0.6,1.204-1.259
			C5.785,18.298,5.227,17.758,4.553,17.762z M13.596,17.759c-0.674,0.011-1.222,0.566-1.218,1.236
			c0.004,0.662,0.569,1.228,1.229,1.229c0.684,0.002,1.271-0.604,1.252-1.273C14.836,18.283,14.271,17.749,13.596,17.759z"/>
	</g>
	<g display="inline">
		<g>
			<path fill="#FCB033" d="M21.285,8.97c0,0.54-0.17,0.952-0.508,1.239c-0.338,0.286-0.815,0.427-1.438,0.427h-0.455v1.783H17.82
				V7.406h1.603c0.606,0,1.069,0.129,1.388,0.394C21.126,8.061,21.285,8.451,21.285,8.97z M18.884,9.767h0.351
				c0.326,0,0.57-0.066,0.733-0.193c0.161-0.13,0.243-0.317,0.243-0.565c0-0.25-0.066-0.434-0.203-0.551
				c-0.137-0.12-0.351-0.178-0.641-0.178h-0.483V9.767z"/>
		</g>
	</g>
	<g display="inline">
		<path fill="#FCB033" d="M19.121,14.557c-2.736,0-4.961-2.226-4.961-4.963c0-2.735,2.225-4.962,4.961-4.962
			s4.965,2.227,4.965,4.962C24.086,12.331,21.857,14.557,19.121,14.557z M19.121,5.458c-2.279,0-4.137,1.854-4.137,4.135
			c0,2.281,1.854,4.14,4.137,4.14c2.279,0,4.137-1.854,4.137-4.14C23.258,7.313,21.4,5.458,19.121,5.458z"/>
	</g>
	<g display="inline">
		<rect x="18" y="14" fill="#FCB033" width="2" height="9"/>
	</g>
</g>
<g id="nosmoking" display="none">
	<g display="inline">
		<path fill="#FCB033" d="M14.171,10.844l8.915-8.917c0.322-0.319,0.322-0.841,0-1.162c-0.318-0.32-0.84-0.32-1.16,0l-8.917,8.917
			L4.092,0.765c-0.321-0.32-0.84-0.32-1.161,0c-0.321,0.321-0.321,0.842,0,1.162l8.916,8.917l-8.916,8.917
			c-0.321,0.319-0.321,0.841,0,1.161c0.16,0.16,0.371,0.24,0.581,0.24c0.21,0,0.421-0.08,0.581-0.24l8.917-8.917l8.917,8.917
			c0.16,0.16,0.37,0.24,0.58,0.24s0.421-0.08,0.58-0.24c0.322-0.32,0.322-0.842,0-1.161L14.171,10.844z"/>
		<path fill="#FCB033" d="M20.051,10.142L20.102,10H2.941C2.308,10,2,11.023,2,11.652v0.863C2,13.175,2.338,14,2.941,14h12.586
			h0.695h3.512c0.104,0,0.207,0.053,0.31,0.053c0.101,0,0.205-0.053,0.308-0.053h0.039l-0.051-0.145
			C20.713,13.729,21,13.275,21,12.9v-1.76C21,10.677,20.523,10.168,20.051,10.142z M4,13v-2h12v2H4z M17,11h2.033
			C19.014,11,18,11.079,18,11.146v1.758C18,12.95,19.012,13,19.021,13H17V11z M20,12.902c0,0.162-0.338,0.293-0.5,0.293
			S19,13.064,19,12.902v-1.758c0-0.162,0.338-0.295,0.5-0.295s0.5,0.133,0.5,0.295V12.902z"/>
		<g>
			<path fill="#FCB033" d="M2.71,9.604C2.48,9.595,2.405,9.439,2.5,9.247C2.672,8.895,2.763,8.523,2.689,8.14
				C2.636,7.869,2.537,7.604,2.422,7.352c-0.272-0.596-0.311-1.196-0.1-1.814C2.36,5.43,2.41,5.326,2.462,5.224
				c0.06-0.115,0.156-0.176,0.283-0.117c0.131,0.061,0.148,0.167,0.104,0.305c-0.085,0.257-0.185,0.515-0.223,0.78
				c-0.061,0.409,0.086,0.787,0.27,1.149c0.249,0.495,0.314,1.018,0.18,1.556C3.03,9.086,2.955,9.271,2.872,9.447
				C2.836,9.521,2.746,9.569,2.71,9.604z"/>
		</g>
		<g>
			<path fill="#FCB033" d="M1.564,8.792c-0.22,0-0.292-0.144-0.23-0.331C1.416,8.216,1.51,7.97,1.549,7.717
				c0.063-0.417-0.077-0.8-0.264-1.17C0.99,5.962,0.961,5.355,1.173,4.736C1.209,4.629,1.259,4.525,1.31,4.423
				C1.372,4.298,1.472,4.235,1.605,4.3c0.135,0.065,0.13,0.182,0.091,0.313c-0.082,0.27-0.179,0.541-0.217,0.819
				c-0.055,0.39,0.092,0.746,0.265,1.093C2.041,7.117,2.066,7.73,1.853,8.354C1.816,8.461,1.77,8.569,1.708,8.664
				C1.668,8.726,1.594,8.767,1.564,8.792z"/>
		</g>
	</g>
</g>
<g id="flat-screen-tv" display="none">
	<g display="inline">
		<path fill="#FCB033" d="M25,22H0V8h25V22z M1,21h23V9H1V21z"/>
	</g>
	<g display="inline">
		<rect x="2" y="10" fill="#FCB033" width="21" height="10"/>
	</g>
	<g display="inline">
		<rect x="2" y="23" fill="#FCB033" width="21" height="1"/>
	</g>
</g>
<g id="cctv" display="none">
	<path display="inline" fill="#FCB033" d="M23.882,8.583L9.279,2.477C8.295,2.065,7.693,2.229,7.441,2.835L5.796,6.767
		C5.795,6.769,5.795,6.771,5.794,6.774L5.205,8.182c-0.336,0.807,0.103,1.73,0.999,2.105l4.997,2.145L6,17.514v-3.125
		c0-0.201,0.071-0.213-0.051-0.336C5.742,13.848,6.375,14.125,5.288,14H2.306c-0.165,0-0.684-0.152-0.833-0.004
		C1.321,14.148,1,14.188,1,14.389v8.205C1,22.9,1.642,24,2.357,24h2.931C5.849,24,6,23.125,6,22.594V20h0.478
		c0.019,0,0.068-0.046,0.103-0.033c0.09,0.033,0.228,0.051,0.382,0.051c0.077,0,0.158-0.021,0.24-0.063
		c0.372-0.057,0.655-0.295,0.76-0.627l5.871-5.846l5.497,2.295c0.26,0.104,0.528,0.16,0.786,0.16c0.512,0,0.979-0.209,1.273-0.568
		l0.758,0.313l0.16,0.031c0.332,0,0.438-0.314,0.562-0.65c0.021-0.063,0.04-0.106,0.057-0.147l0.527-1.271
		c0.019-0.043,0.04-0.078,0.058-0.104c0.063-0.104,0.15-0.271,0.082-0.478l-0.083-0.188l-0.854-0.357l0.17-0.396
		c1.08-0.019,1.321-0.134,1.434-0.39l0.662-1.584C25.102,9.706,25.068,9.081,23.882,8.583z M5,22.594C5,22.756,5.35,22,5.288,23
		H2.433C2.413,22,2,22.67,2,22.594V15h3.341C5.389,15,5,14.469,5,14.471V17H4.116C3.584,17,3,17.955,3,18.491v0.586
		C3,19.313,3.275,20,4.116,20H5V22.594z M7.254,18.938l-0.021,0.123c-0.003,0.025-0.017,0.105-0.172,0.117l-0.096,0.008
		l-0.032,0.021c-0.026-0.008-0.058-0.066-0.082-0.077C6.753,19.093,6.63,19,6.488,19h-0.22H5.497h-1.38C3.967,19,4,19.074,4,19.077
		v-0.586C4,18.323,4.076,18,4.116,18H6.55l5.553-5.408l0.961,0.482L7.254,18.938z M19.629,15.064L6.501,9.576
		C5.995,9.364,5.743,8.892,5.916,8.479l0.151-0.361c0.17,0.199,0.39,0.37,0.659,0.481L13.73,11.4c0.555,0.23,5.59,0.654,8.259,0.713
		L21.65,12.92l-0.521,1.232c-0.001,0.004-0.004,0.008-0.005,0.011l-0.235,0.575C20.723,15.139,20.156,15.285,19.629,15.064z
		 M22.727,13.384l-0.51,1.224c-0.021,0.063-0.049,0.125-0.074,0.201c-0.004,0.021-0.008,0.021-0.012,0.032l-0.355-0.147
		c0.021-0.084,0.045-0.18,0.068-0.229l0.514-1.229L22.727,13.384z M24.207,9.845l-0.607,1.45c-0.123,0.021-0.414,0.053-1.062,0.053
		c-2.687,0-8.065-0.504-8.517-0.663l-7.003-2.8c-0.394-0.164-0.626-0.54-0.511-0.82L7.16,5.504l0,0l0.992-2.372
		c0.029-0.071,0.057-0.114,0.197-0.114c0.15,0,0.363,0.058,0.632,0.17l14.602,6.105C24.311,9.598,24.232,9.784,24.207,9.845z"/>
</g>
<g id="air-con" display="none">
	<g display="inline">
		<path fill="#FCB033" d="M25,13.258c-0.104,0.238-0.293,0.305-0.543,0.305c-7.852-0.002-15.705-0.002-23.558,0
			c-0.249,0-0.439-0.063-0.543-0.305c0-2.873,0-5.745,0-8.616c0.055-0.148,0.095-0.306,0.167-0.445
			c0.329-0.646,0.87-0.922,1.584-0.92c2.478,0.003,4.956,0,7.434,0c4.543,0,9.091-0.003,13.637,0.008
			c0.313,0,0.643,0.061,0.928,0.177c0.521,0.208,0.75,0.67,0.896,1.179C25,7.513,25,10.385,25,13.258z M23.785,4.209
			c0,0.16,0.006,0.271,0,0.382c-0.031,0.497-0.303,0.869-0.741,0.986c-0.159,0.042-0.332,0.051-0.499,0.051
			C15.969,5.631,9.394,5.631,2.817,5.63c-0.112,0-0.224-0.005-0.335-0.018c-0.463-0.053-0.814-0.386-0.884-0.85
			c-0.026-0.17-0.03-0.343-0.046-0.548c-0.305,0.21-0.383,0.482-0.383,0.804c0.003,2.494,0.002,4.988,0.002,7.481
			c0,0.079,0,0.155,0,0.233c0.147,0,0.263,0,0.4,0c0-0.104,0-0.189,0-0.276c0-0.569-0.007-1.14,0.001-1.708
			c0.009-0.69,0.429-1.105,1.119-1.105c6.655-0.001,13.312-0.001,19.968,0c0.702,0,1.116,0.417,1.125,1.124
			c0.006,0.569,0.001,1.139,0.001,1.708c0,0.086,0,0.172,0,0.26c0.148,0,0.264,0,0.398,0c0-0.104,0-0.188,0-0.271
			c0-2.463,0-4.925,0-7.386c0-0.088,0.002-0.179-0.021-0.266C24.146,4.567,24.044,4.368,23.785,4.209z M2.13,4.098
			c0,0.204-0.013,0.381,0.003,0.554c0.023,0.251,0.189,0.4,0.441,0.427c0.08,0.008,0.16,0.006,0.241,0.006
			c6.576,0.001,13.153,0.001,19.73,0c0.098,0,0.211,0.026,0.283-0.018c0.143-0.086,0.318-0.191,0.369-0.328
			c0.068-0.191,0.033-0.418,0.044-0.641C16.184,4.098,9.169,4.098,2.13,4.098z M23.225,11.279c-7.039,0-14.057,0-21.089,0
			c0,0.179,0,0.341,0,0.515c7.036,0,14.056,0,21.089,0C23.225,11.622,23.225,11.465,23.225,11.279z M2.143,10.697
			c7.026,0,14.05,0,21.078,0c-0.021-0.38-0.197-0.521-0.639-0.521c-6.6,0-13.198,0-19.797,0c-0.088,0-0.177,0-0.263,0.021
			C2.262,10.25,2.142,10.412,2.143,10.697z M2.133,12.73c7.05,0,14.069,0,21.088,0c0-0.146,0-0.252,0-0.375
			c-7.039,0-14.059,0-21.088,0C2.133,12.486,2.133,12.604,2.133,12.73z"/>
		<path fill="#FCB033" d="M15.203,20.632c-0.288-0.012-0.383-0.207-0.264-0.448c0.215-0.438,0.33-0.912,0.229-1.396
			c-0.063-0.339-0.188-0.675-0.336-0.992c-0.342-0.75-0.396-1.508-0.124-2.285c0.056-0.137,0.104-0.268,0.185-0.396
			c0.063-0.146,0.188-0.223,0.354-0.147c0.166,0.076,0.188,0.21,0.13,0.384c-0.104,0.323-0.229,0.647-0.277,0.982
			c-0.076,0.518,0.105,0.991,0.34,1.449c0.313,0.623,0.396,1.281,0.229,1.959c-0.063,0.238-0.147,0.472-0.256,0.691
			C15.363,20.529,15.251,20.59,15.203,20.632z"/>
		<path fill="#FCB033" d="M12.741,20.629c-0.278,0-0.367-0.181-0.29-0.417c0.102-0.308,0.221-0.619,0.27-0.937
			c0.08-0.525-0.098-1.01-0.332-1.479c-0.373-0.731-0.408-1.502-0.142-2.276c0.046-0.14,0.109-0.271,0.172-0.396
			c0.077-0.156,0.203-0.233,0.373-0.151c0.169,0.079,0.163,0.229,0.112,0.396c-0.1,0.341-0.225,0.682-0.272,1.025
			c-0.067,0.481,0.116,0.938,0.335,1.381c0.374,0.744,0.407,1.521,0.137,2.308c-0.047,0.136-0.104,0.271-0.183,0.392
			C12.872,20.546,12.777,20.598,12.741,20.629z"/>
		<path fill="#FCB033" d="M12.699,8.55c0.386,0,0.77-0.006,1.154,0.002c0.271,0.006,0.434,0.229,0.291,0.402
			c-0.071,0.087-0.233,0.136-0.355,0.138c-0.737,0.014-1.476,0.007-2.214,0.007c-0.008,0-0.016,0-0.024,0
			c-0.187-0.005-0.373-0.028-0.375-0.271C11.175,8.59,11.353,8.55,11.543,8.55C11.929,8.548,12.315,8.55,12.699,8.55z"/>
		<path fill="#FCB033" d="M22.404,8.89C22.3,8.956,22.207,9.06,22.1,9.078c-0.154,0.025-0.262-0.091-0.263-0.249
			c-0.001-0.168,0.108-0.287,0.271-0.26c0.105,0.018,0.195,0.135,0.293,0.208C22.404,8.814,22.404,8.852,22.404,8.89z"/>
		<path fill="#FCB033" d="M21.158,8.875c-0.1,0.072-0.186,0.18-0.294,0.203c-0.154,0.033-0.261-0.083-0.271-0.236
			c-0.008-0.169,0.101-0.294,0.263-0.272c0.106,0.013,0.201,0.127,0.313,0.195C21.156,8.801,21.157,8.838,21.158,8.875z"/>
		<path fill="#FCB033" d="M10.282,20.633c-0.275-0.011-0.377-0.181-0.306-0.382c0.081-0.233,0.188-0.461,0.244-0.699
			c0.126-0.543,0.044-1.063-0.212-1.561c-0.358-0.688-0.506-1.396-0.314-2.157c0.057-0.23,0.155-0.452,0.244-0.672
			c0.066-0.167,0.189-0.278,0.375-0.196c0.196,0.087,0.195,0.255,0.109,0.427c-0.27,0.535-0.349,1.104-0.195,1.688
			c0.069,0.26,0.191,0.506,0.302,0.753c0.393,0.857,0.382,1.721-0.033,2.563C10.443,20.502,10.33,20.58,10.282,20.633z"/>
		<path fill="#FCB033" d="M15.203,20.632c-0.288-0.012-0.383-0.207-0.264-0.448c0.215-0.438,0.33-0.912,0.229-1.396
			c-0.063-0.339-0.188-0.675-0.336-0.992c-0.342-0.75-0.396-1.508-0.124-2.285c0.056-0.137,0.104-0.268,0.185-0.396
			c0.063-0.146,0.188-0.223,0.354-0.147c0.166,0.076,0.188,0.21,0.13,0.384c-0.104,0.323-0.229,0.647-0.277,0.982
			c-0.076,0.518,0.105,0.991,0.34,1.449c0.313,0.623,0.396,1.281,0.229,1.959c-0.063,0.238-0.147,0.472-0.256,0.691
			C15.363,20.529,15.251,20.59,15.203,20.632z"/>
		<path fill="#FCB033" d="M12.741,20.629c-0.278,0-0.367-0.181-0.29-0.417c0.102-0.308,0.221-0.619,0.27-0.937
			c0.08-0.525-0.098-1.01-0.332-1.479c-0.373-0.731-0.408-1.502-0.142-2.276c0.046-0.14,0.109-0.271,0.172-0.396
			c0.077-0.156,0.203-0.233,0.373-0.151c0.169,0.079,0.163,0.229,0.112,0.396c-0.1,0.341-0.225,0.682-0.272,1.025
			c-0.067,0.481,0.116,0.938,0.335,1.381c0.374,0.744,0.407,1.521,0.137,2.308c-0.047,0.136-0.104,0.271-0.183,0.392
			C12.872,20.546,12.777,20.598,12.741,20.629z"/>
	</g>
</g>
<g id="video-phone" display="none">
	<g display="inline">
		<path fill="#FCB033" d="M21,1.854v20.732C21,23.08,20.273,24,19.67,24H5.738C5.134,24,4,23.08,4,22.586V1.854
			C4,1.338,5.189,1,5.738,1H19.67C20.219,1,21,1.338,21,1.854z M5,22.586C5,22.717,5.724,23,5.738,23H20c0,0,0-0.283,0-0.414V1.854
			C20,1.717,20,2,20,2H5.738C5.558,2,5,1.717,5,1.854V22.586z"/>
	</g>
	<g display="inline">
		<path fill="#FCB033" d="M16.82,3H8.076C7.605,3,8,3.674,8,4.223v10.421C8,15.195,7.605,15,8.076,15h8.744
			c0.492,0,0.18,0.152,0.18-0.354V4.223C17,3.716,17.313,3,16.82,3z M16.82,15h-0.609c-0.141-2-1.746-3.452-3.711-3.452
			S8.929,13,8.789,15H8.076C7.924,15,8,14.761,8,14.646V4.223C8,4.109,7.924,4,8.076,4h8.744C16.975,4,17,4.055,17,4.223v10.421
			C17,14.814,16.975,15,16.82,15z"/>
		<circle fill="#FCB033" cx="12.216" cy="8.558" r="1.984"/>
	</g>
	<g display="inline">
		<path fill="#FCB033" d="M7,15V3h11v12H7z M8,3v12h9V3H8z"/>
	</g>
	<rect x="7" y="14" display="inline" fill="#FCB033" width="11" height="1"/>
	<path display="inline" fill="#E7A723" d="M7.676,22.07v0.007l0.105-0.044c0.023-0.016,0.04-0.016,0.061-0.027
		c0.017-0.003,0.029-0.014,0.042-0.02L9.489,21.3l0.069-0.047c0.038-0.019,0.071-0.04,0.104-0.062l0.106-0.07l-0.003-0.027
		c0.279-0.242,0.408-0.572,0.296-1.072c-0.083-0.354,0.111-0.453,0.431-0.504c1.073-0.146,2.146-0.187,3.22-0.062
		c0.995,0.112,1.013,0.118,0.987,1.103c-0.006,0.199,0.049,0.332,0.137,0.442l0.008,0.037l0.125,0.06
		c0.051,0.033,0.074,0.074,0.146,0.104c0.213,0.087,0.429,0.179,0.644,0.271l0.771,0.37c0.095,0.044,0.187,0.084,0.271,0.134
		c0.021,0.021,0.038,0.021,0.063,0.022L17,22.061l-0.018-0.016c0.313,0.102,0.518-0.039,0.709-0.328
		c1.104-1.593,0.352-3.828-1.56-4.363c-2.479-0.688-4.973-0.678-7.461-0.021c-0.484,0.13-0.903,0.379-1.254,0.735
		c-1.029,1.029-1.117,2.724-0.21,3.789C7.351,22.033,7.485,22.118,7.676,22.07z"/>
</g>
<path fill="#6A1A41" d="M22.043,5.763L11.966,1.49c-0.092-0.039-0.195-0.039-0.287,0L1.555,5.782
	C1.393,5.85,1.303,6.025,1.339,6.196c0.036,0.172,0.206,0.289,0.366,0.29l9.771-0.234v6.521H3.873c-0.203,0-0.367,0.164-0.367,0.365
	c0,0.204,0.164,0.368,0.367,0.368h7.604v5.654h-1.348c-0.204,0-0.367,0.164-0.367,0.364c0,0.201,0.164,0.367,0.367,0.367h3.665
	c0.203,0,0.366-0.164,0.366-0.365c0-0.2-0.163-0.364-0.366-0.364H12.21v-5.654h7.604c0.205,0,0.369-0.164,0.369-0.368
	c0-0.201-0.164-0.365-0.369-0.365H12.21V6.253l9.729,0.233c0.004,0,0.006,0,0.009,0c0.008,0,0.012,0,0.016,0
	c0.201,0,0.367-0.164,0.367-0.367C22.329,5.945,22.207,5.798,22.043,5.763z"/>
<g>
	<g>
		<path fill="#6A1A41" d="M21.875,19.91c-0.203,0-0.366-0.164-0.366-0.367v-1.861l0.058-1.49c-0.002,0-0.004,0-0.008,0h-4.301v3.354
			c0,0.203-0.164,0.367-0.365,0.367c-0.205,0-0.369-0.164-0.369-0.367v-3.72c0-0.201,0.164-0.365,0.369-0.365h4.344l0.516-4.108
			c0.021-0.195,0.186-0.334,0.393-0.32c0.197,0.017,0.347,0.183,0.338,0.38l-0.237,6.29v1.846
			C22.241,19.746,22.078,19.91,21.875,19.91z"/>
	</g>
	<g>
		<path fill="#6A1A41" d="M6.995,19.91c-0.203,0-0.366-0.164-0.366-0.367v-3.352H2.326c-0.002,0-0.004,0-0.006,0l0.057,1.479v1.872
			c0,0.203-0.165,0.367-0.366,0.367c-0.204,0-0.367-0.164-0.367-0.367v-1.86l-0.238-6.273c-0.007-0.197,0.14-0.363,0.337-0.381
			c0.209-0.016,0.369,0.125,0.393,0.32l0.515,4.109h4.344c0.203,0,0.366,0.164,0.366,0.365v3.72
			C7.36,19.746,7.198,19.91,6.995,19.91z"/>
	</g>
</g>
</svg>
