<?xml version="1.0" encoding="utf-8"?>
<!-- Generator: Adobe Illustrator 16.0.0, SVG Export Plug-In . SVG Version: 6.00 Build 0)  -->
<!DOCTYPE svg PUBLIC "-//W3C//DTD SVG 1.1//EN" "http://www.w3.org/Graphics/SVG/1.1/DTD/svg11.dtd">
<svg version="1.1" id="Layer_1" xmlns="http://www.w3.org/2000/svg" xmlns:xlink="http://www.w3.org/1999/xlink" x="0px" y="0px"
	 width="95px" height="95px" viewBox="0 0 95 95" enable-background="new 0 0 95 95" xml:space="preserve">
<g id="Layer_1_1_">
</g>
<g>
	<circle cx="47.131" cy="47.75" r="45.988"/>
	<path fill="#9C4023" d="M47.13,94.616c-25.841,0-46.866-21.023-46.866-46.866c0-25.844,21.024-46.866,46.866-46.866
		c25.843,0,46.866,21.023,46.866,46.866C93.996,73.596,72.975,94.616,47.13,94.616z M47.13,2.64
		c-24.873,0-45.108,20.236-45.108,45.11c0,24.873,20.235,45.111,45.108,45.111S92.241,72.625,92.241,47.75
		C92.241,22.876,72.003,2.64,47.13,2.64z"/>
</g>
<g enable-background="new    ">
	<path fill="#FFFFFF" d="M29.801,71.246h-1.157v-7.139h4.028v0.984h-2.871v2.231h2.69v0.989h-2.69V71.246z"/>
	<path fill="#FFFFFF" d="M40.304,67.667c0,1.162-0.291,2.065-0.872,2.71s-1.404,0.967-2.468,0.967c-1.078,0-1.905-0.32-2.483-0.959
		c-0.578-0.641-0.867-1.549-0.867-2.728s0.291-2.083,0.872-2.716c0.581-0.631,1.41-0.946,2.488-0.946
		c1.061,0,1.881,0.319,2.461,0.962S40.304,66.502,40.304,67.667z M34.854,67.667c0,0.879,0.177,1.546,0.532,1.999
		c0.355,0.455,0.88,0.682,1.577,0.682c0.693,0,1.217-0.225,1.57-0.674c0.353-0.449,0.53-1.117,0.53-2.007
		c0-0.876-0.175-1.54-0.525-1.992s-0.872-0.679-1.565-0.679c-0.7,0-1.228,0.227-1.584,0.679S34.854,66.791,34.854,67.667z"/>
	<path fill="#FFFFFF" d="M48.175,67.667c0,1.162-0.291,2.065-0.872,2.71c-0.581,0.645-1.404,0.967-2.468,0.967
		c-1.078,0-1.905-0.32-2.483-0.959c-0.578-0.641-0.867-1.549-0.867-2.728s0.291-2.083,0.872-2.716
		c0.581-0.631,1.41-0.946,2.488-0.946c1.061,0,1.881,0.319,2.461,0.962C47.886,65.6,48.175,66.502,48.175,67.667z M42.726,67.667
		c0,0.879,0.177,1.546,0.532,1.999c0.355,0.455,0.88,0.682,1.577,0.682c0.693,0,1.217-0.225,1.57-0.674s0.53-1.117,0.53-2.007
		c0-0.876-0.175-1.54-0.525-1.992c-0.35-0.452-0.872-0.679-1.565-0.679c-0.7,0-1.228,0.227-1.584,0.679
		C42.905,66.127,42.726,66.791,42.726,67.667z"/>
	<path fill="#FFFFFF" d="M55.514,67.607c0,1.18-0.326,2.08-0.979,2.703c-0.654,0.623-1.599,0.936-2.827,0.936H49.71v-7.139h2.207
		c1.136,0,2.021,0.306,2.649,0.918C55.197,65.637,55.514,66.498,55.514,67.607z M54.283,67.646c0-1.709-0.799-2.563-2.397-2.563
		h-1.011v5.183h0.83C53.424,70.266,54.283,69.393,54.283,67.646z"/>
	<path fill="#FFFFFF" d="M59.171,69.355c0-0.426,0.104-0.797,0.313-1.115c0.207-0.316,0.584-0.633,1.127-0.944
		c-0.31-0.36-0.521-0.667-0.633-0.915c-0.11-0.25-0.168-0.508-0.168-0.773c0-0.496,0.178-0.887,0.528-1.172
		c0.354-0.287,0.828-0.431,1.425-0.431c0.575,0,1.028,0.14,1.356,0.417c0.328,0.279,0.493,0.654,0.493,1.126
		c0,0.371-0.11,0.708-0.329,1.011c-0.222,0.303-0.589,0.605-1.103,0.908l1.688,1.631c0.264-0.349,0.483-0.857,0.659-1.533h1.182
		c-0.229,0.927-0.593,1.68-1.094,2.263l1.47,1.421h-1.479L63.88,70.54c-0.332,0.269-0.687,0.468-1.063,0.604
		c-0.375,0.135-0.791,0.203-1.246,0.203c-0.748,0-1.338-0.18-1.764-0.533C59.383,70.459,59.171,69.973,59.171,69.355z
		 M61.632,70.357c0.597,0,1.104-0.174,1.528-0.522l-1.87-1.841c-0.345,0.222-0.583,0.429-0.713,0.623
		c-0.13,0.193-0.195,0.414-0.195,0.66c0,0.32,0.113,0.58,0.339,0.779C60.947,70.258,61.251,70.357,61.632,70.357z M60.904,65.646
		c0,0.205,0.055,0.396,0.164,0.58c0.106,0.184,0.261,0.377,0.455,0.582c0.369-0.209,0.627-0.404,0.773-0.584
		c0.146-0.183,0.223-0.385,0.223-0.607c0-0.213-0.07-0.381-0.211-0.508c-0.145-0.127-0.33-0.19-0.564-0.19
		c-0.258,0-0.461,0.065-0.613,0.197C60.98,65.248,60.904,65.424,60.904,65.646z"/>
</g>
<g enable-background="new    ">
	<path fill="#FFFFFF" d="M35.467,77.607c0,1.18-0.327,2.08-0.981,2.703c-0.654,0.623-1.597,0.936-2.827,0.936h-1.997v-7.139h2.207
		c1.136,0,2.02,0.306,2.651,0.918C35.151,75.637,35.467,76.498,35.467,77.607z M34.236,77.646c0-1.709-0.799-2.563-2.397-2.563
		h-1.011v5.183h0.83C33.377,80.266,34.236,79.393,34.236,77.646z"/>
	<path fill="#FFFFFF" d="M37,81.246v-7.139h1.167v7.139H37z"/>
	<path fill="#FFFFFF" d="M45.999,81.246h-1.431l-3.511-5.688h-0.039l0.024,0.315c0.045,0.604,0.068,1.159,0.068,1.66v3.711h-1.06
		v-7.14h1.416l3.501,5.658h0.029c-0.006-0.074-0.02-0.348-0.039-0.815c-0.02-0.472-0.029-0.839-0.029-1.103v-3.74h1.069v7.14
		L45.999,81.246L45.999,81.246z"/>
	<path fill="#FFFFFF" d="M47.884,81.246v-7.139h1.167v7.139H47.884z"/>
	<path fill="#FFFFFF" d="M56.883,81.246h-1.431l-3.511-5.688h-0.039l0.022,0.315c0.048,0.604,0.068,1.159,0.068,1.66v3.711h-1.062
		v-7.14h1.416l3.502,5.658h0.028c-0.007-0.074-0.021-0.348-0.039-0.815c-0.021-0.472-0.028-0.839-0.028-1.103v-3.74h1.068v7.14
		L56.883,81.246L56.883,81.246z"/>
	<path fill="#FFFFFF" d="M61.688,77.374h2.627v3.584c-0.43,0.14-0.842,0.239-1.236,0.298s-0.822,0.088-1.281,0.088
		c-1.08,0-1.914-0.32-2.5-0.959c-0.586-0.641-0.879-1.543-0.879-2.708c0-1.149,0.33-2.048,0.991-2.698
		c0.659-0.646,1.569-0.974,2.729-0.974c0.745,0,1.45,0.144,2.118,0.431l-0.409,0.973c-0.58-0.268-1.158-0.4-1.738-0.4
		c-0.762,0-1.362,0.239-1.808,0.719c-0.442,0.479-0.663,1.133-0.663,1.963c0,0.873,0.198,1.537,0.598,1.988
		c0.398,0.455,0.974,0.684,1.723,0.684c0.378,0,0.781-0.047,1.211-0.144v-1.841h-1.479v-1.002L61.688,77.374L61.688,77.374z"/>
</g>
<path fill="#9C4023" d="M62.102,23.25c-1.854-1.855-5.617-1.104-8.397,1.68c-2.152,2.152-3.089,4.889-2.544,6.879L33.274,48.547
	c-0.454,0.453-0.454,1.184,0,1.639l1.583,1.582c0.452,0.453,1.185,0.453,1.637,0l16.818-17.645c2.004,0.688,4.871-0.236,7.105-2.473
	C63.205,28.865,63.958,25.105,62.102,23.25z"/>
<path fill="#9C4023" d="M60.697,48.7l-18.24-17.385l0.015-0.014c0.264-0.264,0.604-1.392,0.403-1.718
	c-0.021-0.076-0.058-0.148-0.118-0.208l-8.067-8.068c-0.182-0.181-0.476-0.181-0.655,0c-0.143,0.143-0.171,0.353-0.089,0.526
	l5.591,5.591c0.04,0.04,0.071,0.088,0.094,0.135l0.005,0.004v0.001c0.093,0.194,0.063,0.433-0.099,0.594
	c-0.103,0.104-0.235,0.153-0.368,0.153c-0.134,0-0.267-0.049-0.369-0.153l-5.669-5.667c-0.144-0.026-0.298,0.016-0.409,0.128
	c-0.125,0.125-0.162,0.304-0.113,0.462l5.635,5.635c0.204,0.203,0.204,0.532,0,0.737c-0.101,0.101-0.234,0.153-0.369,0.153
	c-0.132,0-0.266-0.052-0.368-0.153l-5.635-5.636c-0.158-0.047-0.337-0.011-0.462,0.114c-0.11,0.112-0.154,0.267-0.128,0.409
	l5.669,5.67c0.203,0.203,0.203,0.533,0,0.736c-0.102,0.102-0.234,0.152-0.368,0.152c-0.078,0-0.155-0.02-0.228-0.055l-0.002,0.001
	l-0.004-0.004c-0.048-0.024-0.095-0.055-0.136-0.095l-5.591-5.591c-0.172-0.082-0.383-0.054-0.525,0.089
	c-0.181,0.182-0.181,0.474,0,0.655l7.323,7.322c0.007,0.01,0.013,0.02,0.022,0.029L38.29,34.1c0.26,0.261,1.482-0.099,1.759-0.375
	l0.203-0.203l17.225,18.401c0.453,0.453,1.188,0.453,1.64,0l1.584-1.584C61.148,49.887,61.148,49.154,60.697,48.7z"/>
</svg>
