<?xml version="1.0" encoding="utf-8"?>
<!-- Generator: Adobe Illustrator 16.0.0, SVG Export Plug-In . SVG Version: 6.00 Build 0)  -->
<!DOCTYPE svg PUBLIC "-//W3C//DTD SVG 1.1//EN" "http://www.w3.org/Graphics/SVG/1.1/DTD/svg11.dtd">
<svg version="1.1" id="Layer_1" xmlns="http://www.w3.org/2000/svg" xmlns:xlink="http://www.w3.org/1999/xlink" x="0px" y="0px"
	 width="15.583px" height="16px" viewBox="0 0 15.583 16" enable-background="new 0 0 15.583 16" xml:space="preserve">
<g id="Layer_1_1_" display="none">
	<g display="inline">
		<path fill="#E7A723" d="M6.262,15.919c-3.344,0-6.066-2.719-6.066-6.062c0-3.343,2.723-6.063,6.066-6.063
			c0.939,0,1.842,0.209,2.68,0.622c0.26,0.126,0.365,0.439,0.238,0.697c-0.125,0.261-0.439,0.369-0.698,0.24
			c-0.695-0.342-1.441-0.515-2.22-0.515c-2.77,0-5.023,2.252-5.023,5.02c0,2.771,2.254,5.021,5.023,5.021
			c2.771,0,5.025-2.252,5.025-5.021c0-0.883-0.232-1.749-0.672-2.5c-0.146-0.25-0.064-0.568,0.188-0.713
			c0.25-0.144,0.566-0.061,0.713,0.189c0.529,0.916,0.813,1.964,0.813,3.023C12.331,13.203,9.607,15.919,6.262,15.919z"/>
	</g>
	<path display="inline" fill="#E7A723" d="M11.803,3.688c-0.229-0.177-0.557-0.135-0.732,0.091l-5.529,7.1L4.438,8.77
		C4.307,8.514,3.99,8.417,3.734,8.548c-0.255,0.134-0.353,0.449-0.22,0.703l1.479,2.826c0,0.002,0.002,0.002,0.004,0.004
		c0.033,0.063,0.078,0.119,0.137,0.166c0.012,0.01,0.027,0.012,0.039,0.021c0.016,0.01,0.029-0.078,0.045-0.063
		c0.076,0.037,0.168,0.063,0.25,0.063L5.454,12.17c0.002,0,0.002,0,0.002,0c0.004,0,0.008,0.092,0.012,0.092
		c0.076-0.002,0.15,0.029,0.219-0.006c0.004,0,0.006,0.021,0.01,0.021c0.066-0.032,0.121-0.067,0.164-0.125
		c0.002-0.002,0.004,0.005,0.006,0.002l6.027-7.733C12.07,4.191,12.029,3.866,11.803,3.688z"/>
</g>
<g id="Layer_2" display="none">
	<path display="inline" fill="#EEA421" d="M-0.054,15.71c0-2.899,2.351-5.252,5.252-5.252c2.9,0,5.251,2.353,5.251,5.252"/>
	<circle display="inline" fill="#EEA421" cx="4.696" cy="6.167" r="2.375"/>
</g>
<g id="Layer_3" display="none">
	<g display="inline">
		<g>
			<path fill="#E7A723" d="M11.232,5.11c0,0.605-0.002,1.219,0,1.832c0.002,0.107-0.034,0.157-0.147,0.156
				c-0.605-0.002-1.228,0-1.939,0c0.229-0.215,0.359-0.373,0.527-0.504C9.872,6.438,9.81,6.344,9.65,6.202
				C7.643,4.427,4.561,4.594,2.78,6.584c-0.805,0.899-1.221,1.955-1.258,3.16c-0.013,0.383-0.188,0.6-0.489,0.6
				c-0.313,0-0.491-0.229-0.487-0.629c0.025-2.826,2.269-5.324,5.076-5.66c1.818-0.22,3.404,0.283,4.759,1.508
				c0.137,0.123,0.209,0.133,0.33-0.006c0.141-0.163,0.305-0.307,0.461-0.458C11.176,5.094,11.191,5.101,11.232,5.11z"/>
			<path fill="#E7A723" d="M1.92,11.902c0.006,0.271-0.206,0.496-0.48,0.496C1.169,12.4,0.943,12.175,0.945,11.91
				c0.003-0.252,0.221-0.475,0.473-0.484C1.687,11.412,1.915,11.626,1.92,11.902z"/>
			<path fill="#E7A723" d="M2.614,14.146c-0.263,0.008-0.5-0.229-0.502-0.486c-0.002-0.256,0.205-0.475,0.464-0.486
				c0.278-0.014,0.502,0.188,0.511,0.465C3.096,13.91,2.881,14.141,2.614,14.146z"/>
			<path fill="#E7A723" d="M10.188,14.146c-0.268-0.015-0.479-0.238-0.469-0.521c0.012-0.271,0.234-0.479,0.514-0.459
				c0.258,0.021,0.467,0.234,0.461,0.488C10.689,13.925,10.45,14.158,10.188,14.146z"/>
			<path fill="#E7A723" d="M4.334,15.313c-0.269-0.006-0.482-0.229-0.475-0.51c0.01-0.275,0.23-0.478,0.511-0.464
				c0.259,0.013,0.466,0.228,0.465,0.481C4.833,15.085,4.594,15.318,4.334,15.313z"/>
			<path fill="#E7A723" d="M8.943,14.83c-0.004,0.268-0.235,0.494-0.5,0.486c-0.266-0.008-0.486-0.244-0.477-0.519
				c0.012-0.261,0.223-0.462,0.484-0.466C8.727,14.339,8.945,14.557,8.943,14.83z"/>
			<path fill="#E7A723" d="M6.404,15.716c-0.269,0.002-0.495-0.223-0.492-0.491c0.002-0.271,0.231-0.49,0.5-0.479
				c0.259,0.008,0.466,0.217,0.472,0.479C6.89,15.492,6.674,15.714,6.404,15.716z"/>
		</g>
		<path fill="#E7A723" d="M9.165,11.02l0.002-0.002l-0.063-0.021c-0.016-0.006-0.021-0.017-0.037-0.021
			c-0.008-0.004-0.02-0.01-0.023-0.013L8.086,10.58l-0.049-0.01c-0.023-0.012-0.047-0.017-0.07-0.021L7.89,10.534l-0.01,0.014
			c-0.219-0.018-0.412,0.07-0.574,0.328c-0.116,0.187-0.239,0.146-0.393,0.029c-0.514-0.396-0.981-0.82-1.382-1.324
			C5.155,9.125,5.149,9.115,5.572,8.71C5.658,8.628,5.692,8.55,5.7,8.466l0.013-0.02L5.685,8.371
			C5.678,8.333,5.686,8.306,5.668,8.265C5.614,8.138,5.563,8.01,5.511,7.881l-0.17-0.48C5.323,7.345,5.301,7.29,5.285,7.233
			C5.281,7.219,5.274,7.212,5.27,7.2L5.241,7.12L5.238,7.13C5.149,6.956,5.007,6.933,4.802,6.97
			C3.667,7.175,3.051,8.438,3.625,9.458c0.75,1.332,1.808,2.373,3.131,3.142c0.256,0.147,0.539,0.228,0.837,0.217
			c0.865-0.004,1.611-0.678,1.678-1.508C9.284,11.171,9.264,11.082,9.165,11.02z"/>
	</g>
</g>
<g>
	<path fill="#5C220F" d="M11.225,0.271H4.588C2.334,0.271,0.5,2.105,0.5,4.359v6.637c0,2.254,1.834,4.088,4.088,4.088h6.637
		c2.254,0,4.088-1.834,4.088-4.088V4.359C15.313,2.105,13.479,0.271,11.225,0.271z M13.999,10.996c0,1.529-1.244,2.773-2.771,2.773
		h-6.64c-1.529,0-2.773-1.244-2.773-2.773V4.359c0-1.529,1.244-2.773,2.773-2.773h6.637c1.529,0,2.773,1.244,2.773,2.773V10.996
		L13.999,10.996z"/>
	<path fill="#5C220F" d="M7.906,3.861c-2.104,0-3.817,1.712-3.817,3.816c0,2.104,1.713,3.817,3.817,3.817
		c2.104,0,3.817-1.713,3.817-3.817C11.723,5.573,10.01,3.861,7.906,3.861z M7.906,10.18c-1.38,0-2.503-1.121-2.503-2.501
		s1.123-2.502,2.503-2.502c1.379,0,2.502,1.122,2.502,2.502S9.286,10.18,7.906,10.18z"/>
	<path fill="#5C220F" d="M11.883,2.747c-0.254,0-0.502,0.102-0.682,0.281C11.02,3.208,10.92,3.456,10.92,3.71
		s0.103,0.503,0.281,0.682c0.18,0.18,0.428,0.283,0.682,0.283s0.502-0.104,0.682-0.283s0.283-0.428,0.283-0.682
		s-0.104-0.502-0.283-0.682C12.387,2.849,12.137,2.747,11.883,2.747z"/>
</g>
</svg>
