<?xml version="1.0" encoding="utf-8"?>
<!-- Generator: Adobe Illustrator 16.0.0, SVG Export Plug-In . SVG Version: 6.00 Build 0)  -->
<!DOCTYPE svg PUBLIC "-//W3C//DTD SVG 1.1//EN" "http://www.w3.org/Graphics/SVG/1.1/DTD/svg11.dtd">
<svg version="1.1" xmlns="http://www.w3.org/2000/svg" xmlns:xlink="http://www.w3.org/1999/xlink" x="0px" y="0px" width="25px"
	 height="25px" viewBox="0 0 25 25" enable-background="new 0 0 25 25" xml:space="preserve">
<g id="Layer_2" display="none">
	<g display="inline">
		<path fill="#FCB033" d="M81.734-108.728c1.6,0.23,1.661,0.294,1.936,1.875c0.239,1.376,0.483,2.752,0.725,4.129
			c0.333,1.887-0.19,2.743-2.031,3.331c-0.511,2.644-1.09,3.253-3.009,3.172c-1.677-0.07-2.308-0.835-2.566-3.224
			c-1.217,0-2.455,0-3.691,0c-1.217,0-2.433,0-3.364,0c-0.498,1.02-0.757,2.006-1.375,2.645c-0.427,0.44-1.353,0.546-2.055,0.546
			c-1.614-0.001-2.211-0.823-2.427-3.061c-0.467-0.236-0.988-0.406-1.388-0.726c-0.731-0.588-0.944-1.412-0.776-2.332
			c0.27-1.492,0.543-2.982,0.807-4.477c0.279-1.584,0.333-1.642,1.898-1.875c0.141-1.043,0.227-2.108,0.437-3.148
			c0.462-2.288,2.347-3.991,4.675-4.091c2.315-0.101,4.644-0.119,6.96-0.014c2.765,0.125,4.724,2.123,5.008,4.893
			C81.574-110.319,81.65-109.552,81.734-108.728z M79.627-108.692c0.213-3.413-1.111-5.618-3.75-5.199
			c-0.202,1.612-0.385,1.771-2.017,1.774c-0.417,0.003-0.833,0.001-1.249,0.001c-1.934-0.001-1.951-0.014-2.347-1.834
			c-2.797-0.211-3.854,1.937-3.713,5.258C70.909-108.692,75.27-108.692,79.627-108.692z M65.955-105.452
			c-1.06,0.005-1.944,0.876-1.953,1.921c-0.01,1.057,0.953,1.991,2.016,1.96c1.038-0.029,1.913-0.943,1.896-1.981
			C67.896-104.606,67.017-105.457,65.955-105.452z M80.192-105.454c-1.061,0.016-1.924,0.892-1.917,1.944
			c0.007,1.043,0.896,1.932,1.937,1.937c1.075,0.005,2.006-0.941,1.97-2.005C82.147-104.631,81.258-105.47,80.192-105.454z"/>
	</g>
	<g display="inline">
		<path fill="#FCB033" d="M86.5-95.5c-0.276,0-0.5-0.224-0.5-0.5v-14c0-0.276,0.224-0.5,0.5-0.5s0.5,0.224,0.5,0.5v14
			C87-95.724,86.776-95.5,86.5-95.5z"/>
	</g>
	<g display="inline">
		<path fill="#FCB033" d="M88.5-95.5c-0.276,0-0.5-0.224-0.5-0.5v-14c0-0.276,0.224-0.5,0.5-0.5s0.5,0.224,0.5,0.5v14
			C89-95.724,88.776-95.5,88.5-95.5z"/>
	</g>
	<g display="inline">
		<g>
			<path fill="#FCB033" d="M90.541-116.947c0,0.705-0.221,1.244-0.662,1.619c-0.44,0.373-1.066,0.559-1.88,0.559h-0.596v2.33h-1.389
				v-6.551h2.093c0.795,0,1.398,0.17,1.813,0.514C90.334-118.135,90.541-117.625,90.541-116.947z M87.403-115.906h0.457
				c0.428,0,0.747-0.086,0.959-0.254c0.212-0.17,0.318-0.414,0.318-0.738c0-0.326-0.088-0.566-0.267-0.721
				c-0.178-0.156-0.456-0.232-0.836-0.232h-0.632V-115.906z"/>
		</g>
	</g>
	<g display="inline">
		<path fill="#FCB033" d="M87.584-110.24c-3.309,0-6-2.691-6-6s2.691-6,6-6s6,2.691,6,6S90.893-110.24,87.584-110.24z
			 M87.584-121.24c-2.757,0-5,2.243-5,5s2.243,5,5,5s5-2.243,5-5S90.341-121.24,87.584-121.24z"/>
	</g>
	<g display="inline">
		<path fill="#FCB033" d="M21,1.853v20.733C21,23.08,20.274,24,19.67,24H5.738C5.134,24,4,23.08,4,22.586V1.853
			C4,1.338,5.189,1,5.738,1H19.67C20.219,1,21,1.338,21,1.853z M5,22.586C5,22.717,5.724,23,5.738,23H20c0,0,0-0.283,0-0.414V1.853
			C20,1.717,20,2,20,2H5.738C5.558,2,5,1.717,5,1.853V22.586z"/>
	</g>
	<g display="inline">
		<path fill="#FCB033" d="M16.821,3H8.076C7.605,3,8,3.674,8,4.223v10.422C8,15.195,7.605,15,8.076,15h8.745
			C17.313,15,17,15.153,17,14.646V4.223C17,3.716,17.313,3,16.821,3z M16.821,15h-0.61c-0.141-2-1.746-3.452-3.711-3.452
			C10.535,11.548,8.929,13,8.789,15H8.076C7.924,15,8,14.761,8,14.646V4.223C8,4.109,7.924,4,8.076,4h8.745
			C16.974,4,17,4.055,17,4.223v10.422C17,14.814,16.974,15,16.821,15z"/>
		<circle fill="#FCB033" cx="12.216" cy="8.558" r="1.984"/>
	</g>
	<g display="inline">
		<path fill="#FCB033" d="M7,15V3h11v12H7z M8,3v12h9V3H8z"/>
	</g>
	<rect x="7" y="14" display="inline" fill="#FCB033" width="11" height="1"/>
	<path display="inline" fill="#E7A723" d="M7.676,22.071v0.006l0.105-0.044c0.023-0.013,0.04-0.013,0.061-0.027
		c0.017-0.003,0.029-0.014,0.042-0.019l1.605-0.687l0.069-0.047c0.038-0.018,0.071-0.04,0.104-0.062l0.106-0.07l-0.003-0.027
		c0.279-0.243,0.408-0.573,0.296-1.073c-0.083-0.357,0.111-0.455,0.431-0.503c1.073-0.148,2.146-0.187,3.22-0.062
		c0.995,0.112,1.012,0.118,0.987,1.102c-0.006,0.2,0.049,0.333,0.137,0.443l0.008,0.037l0.125,0.06
		c0.05,0.033,0.074,0.074,0.145,0.104c0.213,0.087,0.429,0.179,0.644,0.271l0.772,0.37c0.088,0.044,0.18,0.084,0.267,0.133
		c0.021,0.014,0.038,0.013,0.058,0.023l0.129,0.062l-0.008-0.016c0.313,0.102,0.508-0.039,0.709-0.328
		c1.109-1.593,0.343-3.829-1.553-4.363c-2.477-0.695-4.973-0.678-7.461-0.024c-0.484,0.13-0.903,0.379-1.254,0.738
		c-1.028,1.032-1.116,2.722-0.209,3.79C7.351,22.033,7.485,22.118,7.676,22.071z"/>
</g>
<g id="gym">
	<g>
		<path fill="#FCB033" d="M2.473,4.95l0.631,0.439c-4.349,9.577,1.949,14.854,2.013,14.907c0.11,0.09,0.243,0.134,0.374,0.134
			c0.174,0,0.344-0.077,0.463-0.221c0.207-0.255,0.168-0.629-0.087-0.837C5.633,19.18,0.316,14.662,4.1,6.083l1.646,1.148
			c0.104,0.072,0.222,0.107,0.34,0.107c0.187,0,0.372-0.089,0.488-0.255c0.188-0.269,0.122-0.64-0.147-0.828L3.354,4.113
			L2.705,0.586c-0.06-0.322-0.364-0.529-0.693-0.478c-0.323,0.061-0.537,0.37-0.477,0.694L2.228,4.57
			C2.257,4.723,2.345,4.86,2.473,4.95z"/>
		<path fill="#FCB033" d="M23.243,18.396c0-3.116-2.535-5.776-5.653-5.776c-1.532,0-2.92,0.557-3.939,1.549l0.676,0.007L3.673,24
			H1.227c-0.33,0-0.595,0.17-0.595,0.5c0,0.329,0.266,0.5,0.595,0.5h1.189h8.033h12.198c0.328,0,0.595-0.171,0.595-0.5
			c0-0.33-0.267-0.5-0.595-0.5h-3.337C21.583,24,23.243,20.909,23.243,18.396z M11.805,24l1.689-1.482
			C14.143,23.204,14.969,24,15.886,24H11.805z M17.59,22.608c-1.321,0-2.495-0.586-3.312-1.499l2.543-2.541
			c0.23-0.233,0.23-0.609,0-0.843c-0.234-0.231-0.609-0.231-0.843,0l-1.993,1.992l-0.228-3.819c0.777-1.316,2.195-2.21,3.832-2.21
			c2.461,0,4.463,2,4.463,4.459C22.053,20.607,20.051,22.608,17.59,22.608z"/>
		<path fill="#FCB033" d="M23.833,7.684l-0.794-0.616C22.93,6.973,22.792,7,22.647,7h-5.95c-0.318,0-0.58,0.17-0.595,0.489
			c-0.015,0.317,0.224,0.552,0.539,0.581l1.007,0.072l1.649,0.641c-0.001,0.007-0.004,0.004-0.005,0.01l-0.596,2.476
			c-0.077,0.32,0.12,0.64,0.44,0.718c0.047,0.01,0.093,0.015,0.139,0.015c0.269,0,0.514-0.185,0.579-0.458l0.558-2.331l0.926,0.366
			c0.071,0.026,0.144,0.041,0.218,0.041c0.088,0,0.175-0.02,0.255-0.057l1.883-0.893c0.183-0.085,0.309-0.257,0.336-0.455
			C24.059,8.015,23.983,7.816,23.833,7.684z"/>
	</g>
</g>
<g id="Layer_18" display="none">
</g>
<g id="concierge" display="none">
	<g display="inline">
		<path fill-rule="evenodd" clip-rule="evenodd" fill="#FCB033" d="M24.591,17.483c-0.147-2.653-1.307-5.254-3.111-7.194
			c-0.913-0.981-1.984-1.819-3.171-2.444c-0.582-0.306-1.189-0.56-1.813-0.761c-0.25-0.08-0.466-0.132-0.452-0.439
			c0.019-0.436,0.015-0.873,0.009-1.309c-0.004-0.391-0.014-0.545,0.263-0.821c0.182-0.182,0.311-0.418,0.331-0.677
			c0.052-0.648-0.536-1.1-1.073-1.324c-1.352-0.564-3.002-0.553-4.419-0.276C10.559,2.352,9.91,2.563,9.476,3.008
			C9.034,3.459,9.072,4.157,9.545,4.571c0.179,0.156,0.408,0.227,0.403,0.5C9.94,5.458,9.937,5.843,9.941,6.229
			c0.003,0.263,0.098,0.585-0.219,0.674C9.375,6.999,9.031,7.11,8.692,7.234c-2.408,0.895-4.439,2.572-5.828,4.727
			c-0.688,1.066-1.198,2.243-1.497,3.476c-0.146,0.602-0.242,1.217-0.292,1.835c-0.046,0.572-0.132,1.087-0.04,1.657
			C1.1,19.329,2.181,19,2.447,19c0.841,0,1.682,0,2.523,0c1.617,0,3.234,0,4.851,0c3.222,0,6.447,0.166,9.667,0.125
			c1.206-0.015,2.413,0.027,3.62,0.016c0.367-0.004,1.209,0.169,1.519-0.082c0.11-0.091,0.015-0.629,0.015-0.771
			C24.643,18.008,24.606,17.758,24.591,17.483C24.547,16.699,24.596,17.566,24.591,17.483z M15.271,3.761
			c-0.925,0.605-3.823,0.605-4.733,0C11.428,3.15,14.373,3.15,15.271,3.761z M14.419,6.334c0.04,0.319-0.247,0.234-0.459,0.21
			c-0.38-0.045-0.764-0.064-1.147-0.063c-0.357,0-0.714,0.016-1.07,0.05c-0.249,0.023-0.179-0.429-0.179-0.593
			c0.004-0.318,0.212-0.332,0.473-0.301c0.324,0.038,0.658,0.017,0.982,0.017c0.355,0,0.71,0.003,1.063,0
			C14.573,5.648,14.369,5.94,14.419,6.334C14.448,6.567,14.396,6.161,14.419,6.334z M22.876,17.755
			C22.865,17.833,22.721,18,22.644,18c-0.193,0-0.386,0-0.579,0c-0.387,0-0.772,0-1.158,0c-0.836,0-1.673,0-2.51,0
			c-1.607,0-3.216,0-4.824,0c-3.233,0-6.461-0.097-9.692-0.124c-0.289-0.003-0.81-0.09-1.072-0.212
			c-0.22-0.103-0.058-0.634-0.032-0.804c0.113-0.715,0.294-1.431,0.548-2.109c0.471-1.255,1.2-2.405,2.109-3.388
			c1.767-1.908,4.24-3.034,6.829-3.208c2.793-0.188,5.592,0.917,7.612,2.837c0.897,0.853,1.618,1.876,2.136,3
			c0.267,0.581,0.481,1.232,0.647,1.85"/>
		<path fill-rule="evenodd" clip-rule="evenodd" fill="#FCB033" d="M20.603,13.733c-0.859-1.9-2.48-3.274-4.302-4.222
			c-0.867-0.452-1.783-0.618-2.497,0.211c-0.465,0.541-0.583,1.36-0.139,1.95c0.248,0.33,0.615,0.49,0.974,0.671
			c0.428,0.216,0.843,0.46,1.232,0.743c0.729,0.533,1.349,1.206,1.768,2.01c0.187,0.356,0.33,0.688,0.708,0.882
			c0.386,0.198,0.857,0.199,1.259,0.047C20.498,15.688,21.006,14.621,20.603,13.733C20.261,12.979,20.702,13.952,20.603,13.733z
			 M19.072,14.906c-0.214,0.028-0.276-0.228-0.35-0.374c-0.148-0.294-0.318-0.576-0.51-0.844c-0.382-0.535-0.85-1.007-1.366-1.412
			c-0.472-0.368-0.983-0.682-1.512-0.961c-0.192-0.102-0.54-0.193-0.68-0.37c-0.172-0.216,0.141-0.537,0.338-0.589
			c0.417-0.11,1.108,0.44,1.447,0.646c0.537,0.327,1.049,0.7,1.508,1.131C18.278,12.443,20.373,14.739,19.072,14.906
			C18.901,14.929,19.294,14.879,19.072,14.906z"/>
		<rect x="1" y="20" fill-rule="evenodd" clip-rule="evenodd" fill="#FCB033" width="24" height="2"/>
	</g>
</g>
<g id="maid" display="none">
	<g display="inline">
		<g>
			<path fill="#FCB033" d="M9.823,24.296c0.415,0,0.753,0.308,0.812,0.704h4.646c0.057-0.396,0.396-0.704,0.81-0.704
				s0.753,0.308,0.813,0.704h4.937c-0.168-2.871-2.126-4.357-4.046-5.436c-0.193-0.105-0.261-0.319-0.349-0.612
				c-0.018-0.055-0.042-0.133-0.063-0.191c-0.258-0.082-0.834-0.119-1.267-0.146c-0.528-0.032-1.034-0.064-1.418-0.162l-1.707,3.143
				l-1.812-3.256c-0.294,0.096-0.697,0.185-1.232,0.302c-0.449,0.096-1.002,0.216-1.225,0.309c-0.03,0.052-0.071,0.142-0.099,0.2
				C8.515,19.386,8.42,19.589,8.23,19.69C5.84,20.978,3.987,22.197,3.829,25h5.184C9.07,24.604,9.411,24.296,9.823,24.296z
				 M16.091,21.886c0.454,0,0.822,0.368,0.822,0.823c0,0.453-0.368,0.824-0.822,0.824s-0.822-0.371-0.822-0.824
				C15.269,22.254,15.637,21.886,16.091,21.886z M9.823,21.886c0.454,0,0.823,0.368,0.823,0.823c0,0.453-0.369,0.824-0.823,0.824
				c-0.453,0-0.822-0.371-0.822-0.824C9.001,22.254,9.37,21.886,9.823,21.886z"/>
			<path fill="#FCB033" d="M10.886,7.879C10.062,7.985,9.426,8.341,8.95,8.96c-1.41,1.828-0.855,5.278-0.85,5.313l0.216,1.288
				c0.839,0.867,1.926,1.492,3.149,1.76c0.021,0.004,0.041,0.01,0.063,0.017c0.41,0.085,0.836,0.13,1.271,0.13
				c2.208,0,4.142-1.15,5.252-2.878l-0.061-0.699l-0.304-3.544C13.931,9.919,11.475,8.302,10.886,7.879z M9.736,11.726
				c0-0.454,0.369-0.823,0.823-0.823c0.456,0,0.824,0.369,0.824,0.823s-0.368,0.823-0.824,0.823
				C10.104,12.549,9.736,12.181,9.736,11.726z M14.9,14.573c-1.316,0.829-2.894,0.834-4.174-0.063
				c-0.456-0.319,0.119-0.965,0.569-0.649c0.951,0.668,2.163,0.603,3.125-0.003C14.892,13.562,15.372,14.277,14.9,14.573z
				 M14.898,12.549c-0.453,0-0.821-0.369-0.821-0.823s0.368-0.823,0.821-0.823c0.455,0,0.823,0.369,0.823,0.823
				S15.354,12.549,14.898,12.549z"/>
			<path fill="#FCB033" d="M6.666,12.373c0.235,0.617,0.571,1.273,1.043,1.965c0,0-1.083-6.465,3.288-6.872
				c0,0,2.685,2.113,7.057,2.519l0.332,3.87c0,0,0.192-0.32,0.4-0.877c0.269-0.726,0.563-1.859,0.482-3.216
				c-0.039-0.667-0.173-1.388-0.44-2.141c-0.193-0.541-0.458-1.099-0.812-1.665c0,0.07-0.002,0.143-0.002,0.214v0.198h-0.139H17.31
				h-0.592H8.88H8.288H7.721H7.623C7.474,6.53,7.154,6.909,6.856,7.478c-0.362,0.691-0.688,1.659-0.631,2.863
				C6.255,10.959,6.388,11.638,6.666,12.373z"/>
			<path fill="#FCB033" d="M7.865,5.52c0.001,0.059,0.001,0.116,0.003,0.172c0,0.094,0,0.188,0.002,0.282h0.265h0.62h0.679h6.728
				h0.68h0.62h0.156c0-0.151,0.006-0.301,0.006-0.454c0.002-0.034,0.002-0.067,0.002-0.103c0-0.094,0-0.189,0.003-0.284
				c0-0.091,0-0.182,0-0.273c-0.003-0.998-0.069-1.934-0.505-2.376c-0.195-0.198-0.458-0.293-0.806-0.293H9.171
				c-0.349,0-0.611,0.095-0.806,0.293C7.902,2.955,7.854,3.98,7.861,5.049c0,0.1,0.002,0.199,0.002,0.298
				C7.865,5.407,7.865,5.463,7.865,5.52z"/>
		</g>
	</g>
</g>
<g id="welcome_hamper-02" display="none">
	<g display="inline">
		<polygon fill="#FCB033" points="12.969,21.844 12.969,22.115 12.969,21.844 		"/>
		<polygon fill="#FCB033" points="10.26,21.844 10.26,22.115 10.261,21.844 		"/>
		<polygon fill="#FCB033" points="15.677,21.844 15.677,22.115 15.678,21.844 		"/>
		<path fill="#FCB033" d="M24.275,10.72l-0.383-0.383c-0.212-0.211-0.452-0.746-0.538-0.66L19.601,13H6.263L2.509,9.677
			C2.423,9.591,2.183,9.909,1.97,10.121l-0.383,0.491c-0.211,0.211-0.313,0.075-0.228,0.16L3.965,13H2.677
			C2.377,13,2,14.105,2,14.405v0.541C2,15.246,2.377,16,2.677,16h1.43l1.598,7.475C5.748,24.008,6.126,24,6.801,24h12.064
			c0.675,0,1.053-0.002,1.097-0.535L21.578,16h1.141C23.018,16,23,15.246,23,14.946v-0.541c0-0.3,0.018-1.405-0.281-1.405h-0.82
			l2.605-2.174C24.589,10.74,24.488,10.932,24.275,10.72z M9,21.844v-4.875c0-0.299,0.701-0.542,1-0.542c0.299,0,1,0.243,1,0.542
			v4.875c0,0.299-0.701,0.542-1,0.542C9.701,22.386,9,22.143,9,21.844z M12,21.844v-4.875c0-0.299,0.702-0.542,1-0.542
			c0.299,0,1,0.243,1,0.542v4.875c0,0.299-0.701,0.542-1,0.542C12.702,22.386,12,22.143,12,21.844z M15,21.844v-4.875
			c0-0.299,0.701-0.542,1-0.542s1,0.243,1,0.542v4.875c0,0.299-0.701,0.542-1,0.542S15,22.143,15,21.844z"/>
	</g>
</g>
<g id="pet_friendly" display="none">
	<g display="inline">
		<path fill="#FCB033" d="M-53.053-86.798c-1.216,0.831-3.753-0.922-6.297-0.941c-2.543-0.019-5.152,1.741-6.325,0.942
			s1.126-7.194,6.325-7.214S-51.836-87.629-53.053-86.798z"/>
	</g>
	
		<ellipse transform="matrix(0.9904 -0.1384 0.1384 0.9904 12.4008 -10.1859)" display="inline" fill="#FCB033" cx="-67.037" cy="-94.256" rx="2.203" ry="3.037"/>
	
		<ellipse transform="matrix(0.9985 -0.0555 0.0555 0.9985 5.3351 -3.6209)" display="inline" fill="#FCB033" cx="-62.493" cy="-97.821" rx="2.203" ry="3.037"/>
	
		<ellipse transform="matrix(0.975 0.2221 -0.2221 0.975 -23.2256 10.1533)" display="inline" fill="#FCB033" cx="-56.754" cy="-98.183" rx="2.203" ry="3.037"/>
	
		<ellipse transform="matrix(0.8002 0.5997 -0.5997 0.8002 -67.7351 11.6413)" display="inline" fill="#FCB033" cx="-51.34" cy="-95.842" rx="2.203" ry="3.037"/>
	<g display="inline">
		<path fill="#FCB033" d="M-12.053-90.798c-1.216,0.831-3.753-0.922-6.297-0.941c-2.543-0.019-5.152,1.741-6.325,0.942
			s1.126-7.194,6.325-7.214S-10.836-91.629-12.053-90.798z"/>
	</g>
	
		<ellipse transform="matrix(0.9904 -0.1384 0.1384 0.9904 13.349 -4.5496)" display="inline" fill="#FCB033" cx="-26.037" cy="-98.256" rx="2.203" ry="3.037"/>
	
		<ellipse transform="matrix(0.9985 -0.0555 0.0555 0.9985 5.6205 -1.3505)" display="inline" fill="#FCB033" cx="-21.493" cy="-101.821" rx="2.203" ry="3.037"/>
	
		<ellipse transform="matrix(0.975 0.2221 -0.2221 0.975 -23.0899 0.9466)" display="inline" fill="#FCB033" cx="-15.754" cy="-102.183" rx="2.203" ry="3.037"/>
	
		<ellipse transform="matrix(0.8002 0.5997 -0.5997 0.8002 -61.9427 -13.7462)" display="inline" fill="#FCB033" cx="-10.34" cy="-99.842" rx="2.203" ry="3.037"/>
	<g display="inline">
		<g>
			<path fill="none" stroke="#FCB033" stroke-miterlimit="10" d="M18.678,22.713c-1.364,0.935-4.213-1.033-7.066-1.056
				c-2.854-0.021-5.781,1.955-7.099,1.059c-1.317-0.896,1.264-8.073,7.099-8.095C17.446,14.599,20.043,21.782,18.678,22.713z"/>
		</g>
		
			<ellipse transform="matrix(0.9904 -0.1383 0.1383 0.9904 -1.8622 0.5439)" fill="none" stroke="#FCB033" stroke-miterlimit="10" cx="2.984" cy="13.677" rx="2.472" ry="3.408"/>
		
			<ellipse transform="matrix(0.9985 -0.0556 0.0556 0.9985 -0.5254 0.4644)" fill="none" stroke="#FCB033" stroke-miterlimit="10" cx="8.084" cy="9.676" rx="2.472" ry="3.408"/>
		
			<ellipse transform="matrix(0.975 0.2222 -0.2222 0.975 2.4223 -2.9953)" fill="none" stroke="#FCB033" stroke-miterlimit="10" cx="14.525" cy="9.269" rx="2.471" ry="3.408"/>
		
			<ellipse transform="matrix(0.8003 0.5996 -0.5996 0.8003 11.2464 -9.9761)" fill="none" stroke="#FCB033" stroke-miterlimit="10" cx="20.6" cy="11.896" rx="2.472" ry="3.408"/>
	</g>
</g>
<g id="welcome_hamper-01" display="none">
	<g display="inline">
		<polygon fill="#FCB033" points="12.605,22.334 12.605,22.662 12.606,22.334 		"/>
		<polygon fill="#FCB033" points="9.322,22.334 9.322,22.662 9.323,22.334 		"/>
		<polygon fill="#FCB033" points="15.888,22.662 15.889,22.334 15.888,22.334 		"/>
		<path fill="#FCB033" d="M24.424,13H21.79h-0.844c-0.315-5-4.115-8.126-8.75-8.126C7.558,4.874,3.759,8,3.443,13H3.092H0.129
			C-0.234,13,0,12.954,0,13.316v0.656C0,14.337-0.234,14,0.129,14h1.733L3.8,23.71C3.853,24.359,4.311,25,5.128,25h14.626
			c0.816,0,1.275-0.651,1.327-1.3l1.96-9.7h1.382C24.788,14,25,14.337,25,13.973v-0.656C25,12.954,24.788,13,24.424,13z M9,22.334
			v-5.91c0-0.362,0.638-0.656,1-0.656s1,0.294,1,0.656v5.91c0,0.363-0.638,0.657-1,0.657S9,22.697,9,22.334z M12,22.334v-5.91
			c0-0.362,0.639-0.656,1-0.656s1,0.294,1,0.656v5.91c0,0.363-0.639,0.657-1,0.657S12,22.697,12,22.334z M17,22.334
			c0,0.363-0.637,0.657-1,0.657s-1-0.294-1-0.657v-5.91c0-0.362,0.637-0.656,1-0.656s1,0.294,1,0.656V22.334z M12.196,5.531
			C16.459,5.531,19.96,9,20.288,13H4.102C4.431,9,7.931,5.531,12.196,5.531z"/>
	</g>
</g>
<g id="wlecome-provisions" display="none">
	<g display="inline">
		<path fill="#FCB033" d="M18.135,3.564c-0.006,0.003-0.012,0.015-0.018,0.019C18.448,3.58,18.128,3.568,18.135,3.564z"/>
		<path fill="#FCB033" d="M20.525,3.453C20.762,3.304,21,3.042,21,2.743V2.258C21,1.794,20.379,1,19.915,1h-1.93
			C17.521,1,17,1.794,17,2.258v0.485c0,0.298,0.229,0.561,0.463,0.71c-0.273,0.419-0.52,1.033-0.792,1.729
			c-1.04-0.346-2.187-0.537-3.396-0.537c-2.758,0-4.944,1.212-5.985,2.25l0.073,0.068l-4.939,4.724
			c-0.454,0.563-0.922,1.2-0.922,1.881C1.501,14.454,2,15.453,3,16.213v4.571C3,22.183,4.168,23,5.325,23h6.384
			c0.104,0,0.197,0.279,0.291,0.434c0.183,0.299,0.41,0.69,0.852,0.798c0.388,0.096,0.8,0.333,1.227,0.333
			c2.032,0,4.235-1.564,5.522-2.564h1.517C22.113,22,23,20.832,23,19.836v-8.667C23,10.75,21.721,5.283,20.525,3.453z M8.116,7.075
			l0.071-0.004c1.046-0.848,2.866-1.704,5.106-1.704c1.123,0,2.2,0.175,3.16,0.491c-0.547,1.525-1.025,3.27-1.28,4.338
			c-0.894-0.839-2.747-0.853-5.089-0.813C9.569,9.393,9.036,9.402,8.492,9.402c-1.178,0-2.276,0.176-3.232,0.489L8.116,7.075z
			 M5.325,22C4.228,22,4,21.154,4,20.784v-5.031l-0.14-0.094c-1.246-0.566-1.46-1.216-1.46-2.085c0-1.931,2.679-3.438,6.075-3.438
			c0.548,0,1.094,0.001,1.613-0.007c2.112-0.039,3.953-0.047,4.62,0.608C14.896,10.922,15,10.807,15,11.529v1.783
			c0-0.047-0.426-0.078-0.652-0.078c-1.367,0-2.842,0.865-3.471,1.701c-1.486,1.974-1.858,4.721-0.881,6.783
			C10.092,21.92,10.229,22,10.382,22H5.325z M19.092,21.128c-1.148,1.523-3.162,2.546-5.014,2.546c-0.369,0-0.723-0.041-1.055-0.122
			c-0.143-0.035-0.249-0.194-0.408-0.452c-0.132-0.216-0.326-0.462-0.562-0.639C12.051,22.459,12,22.457,12,22.455l-0.417-0.122
			l0.5,0.5c-0.192,0-0.539-0.862-0.723-0.938c-0.373-0.154-0.606-0.169-0.714-0.395c-0.855-1.804-0.511-4.433,0.802-6.176
			c0.512-0.679,1.761-1.39,2.888-1.39c0.209,0,0.402,0.038,0.576,0.09c0.332,0.099,0.568,0.472,0.842,0.899
			c0.154,0.242,0.314,0.494,0.509,0.719c0.134,0.156,0.269,0.283,0.411,0.385c0.398,0.286,0.878,0.413,1.344,0.535
			c0.498,0.13,0.969,0.255,1.186,0.553C20.009,18.221,19.806,20.181,19.092,21.128z M22,19.836C22,20.434,21.715,21,21.117,21
			h-1.088c0.557-1,0.599-3.116-0.241-4.271c-0.369-0.506-0.988-0.688-1.588-0.845c-0.334-0.088-0.674-0.192-0.948-0.342
			c0.008-0.031,0.02-0.067,0.021-0.098c0.013-0.426,1.359-0.834,2.56-0.866c0.199-0.005,0.356-0.163,0.352-0.362
			c-0.006-0.199-0.169-0.326-0.37-0.333c-0.189,0.005-0.644,0.032-1.154,0.12c0.003-0.412-0.337-0.934-0.772-1.352
			c-0.604-0.58-1.447-0.658-1.482-0.66l-0.444-0.038l0.056,0.441c0.004,0.036,0.115,0.877,0.717,1.457
			c0.227,0.218,0.459,0.392,0.682,0.515c-0.327,0.154-0.598,0.356-0.745,0.622c-0.106-0.145-0.06-0.296-0.157-0.449
			C16.316,14.234,16,13.933,16,13.695v-2.527C16,10.327,17.428,4,18.117,4c-0.062,0-0.138,0-0.25,0l0,0l0.268-0.436L19,3h-1.133l0,0
			h0.118C17.92,3,18,2.809,18,2.743V2.258C18,2.192,17.92,2,17.985,2h1.93C19.98,2,20,2.192,20,2.258v0.485
			C20,2.809,19.98,3,19.915,3H19v0.584c0,0,0.156-0.015,0.148-0.02C19.826,4.009,22,10.32,22,11.168V19.836z M18.07,14.133v-0.279
			c0,0,0,0,0.001,0L18.07,14.133z M17.871,13.791c-0.165-0.076-0.397-0.227-0.639-0.459c-0.146-0.141-0.25-0.309-0.326-0.468
			c0.162,0.069,0.333,0.167,0.479,0.308C17.645,13.422,17.794,13.641,17.871,13.791z"/>
	</g>
	<path display="inline" fill="#FCB033" d="M6.367,8.343c-0.013,0.006-0.193-0.15,0.268-0.237c0.227-0.05,0.498-0.088,0.784-0.13
		c0.285-0.043,0.595-0.059,0.895-0.087l0.449-0.002C8.908,7.89,9.054,7.875,9.185,7.897c0.132,0.015,0.26,0.029,0.38,0.043
		c0.117,0.019,0.238,0.016,0.326,0.05c0.361,0.106,0.601,0.177,0.601,0.177S10.228,8.132,9.83,8.08
		C9.738,8.06,9.612,8.078,9.496,8.076C9.377,8.078,9.252,8.08,9.123,8.083C8.998,8.078,8.855,8.11,8.72,8.124L8.308,8.176
		c-0.277,0.062-0.549,0.108-0.8,0.178S7.026,8.485,6.834,8.553C6.448,8.677,5.686,8.871,5.67,8.874L6.367,8.343z"/>
	<path display="inline" fill="#FCB033" d="M7.372,7.37C7.359,7.376,7.174,7.197,7.635,7.109c0.227-0.051,0.498-0.088,0.784-0.13
		C8.705,6.937,9.015,6.926,9.315,6.9l0.451,0.007c0.146,0.007,0.292-0.006,0.425,0.022c0.132,0.019,0.261,0.038,0.382,0.056
		c0.118,0.023,0.24,0.023,0.329,0.063c0.364,0.127,0.606,0.212,0.606,0.212s-0.266-0.113-0.667-0.181C10.75,7.055,10.624,7,10.506,7
		c-0.119,0-0.244,0-0.374,0c-0.125,0-0.268,0.093-0.404,0.105L9.316,7.189c-0.277,0.063-0.549,0.127-0.799,0.2
		c-0.25,0.073-0.48,0.145-0.671,0.218C7.46,7.739,6.699,7.943,6.684,7.946L7.372,7.37z"/>
	<rect x="33.001" y="-17.95" display="inline" fill="#FCB033" width="7.666" height="6.899"/>
</g>
<g id="toiletries" display="none">
	<path display="inline" fill="#FCB033" d="M23.922,16.438l-0.845-1.146c0.377-0.246,1.063-0.798,1.202-1.63
		c0.087-0.521-0.051-1.043-0.407-1.562l0.05-0.037l-0.891-1.209c0.36-0.271,0.735-0.657,0.79-1.127
		c0.028-0.241-0.036-0.586-0.385-0.921l0.042-0.081l-9.041-4.656c-0.317-0.31-0.88-0.726-1.686-0.831
		c-1.098-0.144-2.271,0.323-3.498,1.386L2.275,8.555l0.066,0.118L2.3,8.619l-1.83,1.394l1.732,1.015l-1.06,1.228
		c-0.085,0.099-0.123,0.23-0.101,0.358c0.021,0.13,0.099,0.242,0.212,0.307l0.65,0.374L0.47,14.389l1.732,1.015l-1.06,1.229
		c-0.085,0.099-0.123,0.23-0.101,0.358c0.021,0.129,0.099,0.24,0.212,0.307l0.65,0.373L0.47,18.764l6.194,3.632
		c0.172,0.128,3.231,2.4,6.203,2.399c1.055,0,2.1-0.285,2.999-1.057l6.961-3.922c0.051-0.026,1.264-0.644,1.452-1.778
		c0.087-0.52-0.051-1.044-0.407-1.562L23.922,16.438z M2.83,9.314L2.794,9.267l6.928-3.903l0.074-0.051
		c1.036-0.907,1.982-1.313,2.83-1.209c0.365,0.046,0.657,0.183,0.881,0.333l-0.056,0.108l0.461,0.237
		c0.065,0.072,0.102,0.124,0.106,0.131l0.063-0.043l8.721,4.492l-0.018,0.022c0.082,0.064,0.176,0.159,0.166,0.243
		c-0.026,0.236-0.526,0.635-0.984,0.857l-6.642,3.813c-2.895,2.537-8.081-1.313-8.177-1.38L2.037,9.918L2.83,9.314z M2.725,13.771
		l8.192,4.729c0.069,0.04,0.145,0.059,0.22,0.059c0.15,0,0.298-0.078,0.378-0.219c0.122-0.209,0.049-0.478-0.16-0.599l-9.205-5.314
		l0.821-0.949l3.694,2.165c0.174,0.132,3.258,2.421,6.214,2.421c1.045,0,2.074-0.286,2.951-1.056l5.273-3.021l0.788,1.114
		l-8.649,4.152c-0.216,0.104-0.309,0.366-0.204,0.582c0.075,0.159,0.231,0.25,0.396,0.25c0.063,0,0.127-0.015,0.189-0.043
		l9.115-4.376c0.116-0.057,0.202-0.16,0.234-0.285s0.008-0.258-0.066-0.364l-1.04-1.466l0.416-0.238l0.597,0.813l-0.068,0.068
		c0.467,0.476,0.672,0.919,0.606,1.322c-0.114,0.695-0.974,1.141-1,1.153l-7.018,3.955l-0.074,0.05
		c-2.895,2.536-8.081-1.313-8.177-1.381l-5.111-2.998L2.725,13.771z M22.417,19.043l-7.018,3.955l-0.074,0.051
		c-2.895,2.534-8.081-1.314-8.177-1.383l-5.111-2.997l0.688-0.523l8.192,4.73c0.069,0.04,0.145,0.057,0.22,0.057
		c0.15,0,0.298-0.076,0.378-0.217c0.122-0.209,0.049-0.478-0.16-0.598l-9.205-5.315l0.821-0.948l3.694,2.163
		c0.172,0.132,3.231,2.402,6.203,2.402c1.055,0,2.1-0.286,2.999-1.057l5.262-2.966l0.764,1.079l-8.649,4.151
		c-0.216,0.104-0.309,0.365-0.204,0.585c0.075,0.156,0.231,0.247,0.396,0.247c0.063,0,0.127-0.014,0.189-0.043l9.115-4.375
		c0.116-0.057,0.202-0.16,0.234-0.284c0.032-0.126,0.008-0.26-0.066-0.364l-1.013-1.428l0.419-0.234l0.566,0.77l-0.068,0.068
		c0.467,0.475,0.672,0.919,0.606,1.321C23.303,18.585,22.443,19.03,22.417,19.043z"/>
</g>
<g id="phone" display="none">
	<g display="inline">
		<path fill="#FCB033" d="M7.963,1.261c0.008,0.009,0.05,0.083,0.072,0.188c0.03,0.104,0.075,0.232,0.121,0.36L8.86,3.796
			c0.183,0.456,0.374,0.932,0.573,1.4c0.076,0.188,0.084,0.333,0.09,0.429L9.7,6.151L9.573,6.343C9.5,6.759,9.299,7.112,8.952,7.441
			C7.724,8.614,7.724,8.614,8.828,9.995c1.381,1.738,3.032,3.319,5.045,4.838c0.298,0.22,0.428,0.254,0.477,0.254
			c0.037,0,0.12-0.07,0.216-0.227c0.604-0.958,1.391-1.453,2.343-1.475l0.038-0.046l0.629,0.07c0.104,0.021,0.215,0.046,0.327,0.086
			l0.106,0.014l3.745,1.483c0.067,0.018,0.116,0.042,0.144,0.055l0.699,0.457l0.081,0.129c0.233,0.37,0.235,0.802,0.205,1.134
			c-0.27,3.341-3.307,6.078-6.771,6.093h-0.076c-1.186,0-2.298-0.293-3.306-0.873C7.647,19.03,3.662,15.032,0.881,10.101
			c-1.09-1.94-1.172-4.205-0.229-6.215c0.942-2.001,2.801-3.43,4.979-3.824C6.263-0.052,6.76-0.012,7.155,0.212 M6.27,1.055
			c-0.137,0-0.287,0.018-0.452,0.047C3.951,1.441,2.418,2.62,1.61,4.337C0.812,6.034,0.885,7.944,1.804,9.583
			c2.685,4.764,6.54,8.629,11.455,11.487c0.846,0.485,1.78,0.732,2.777,0.732v0.53l0.067-0.53c2.933-0.012,5.497-2.31,5.725-5.125
			c0.042-0.454-0.051-0.512-0.149-0.569l-0.414-0.173l-3.637-1.422c-0.137-0.039-0.199-0.052-0.259-0.064l-0.082-0.017l-0.172,0.017
			l-0.14-0.005c-0.419,0-0.967,0.112-1.514,0.977c-0.297,0.48-0.67,0.724-1.112,0.724c-0.424,0-0.799-0.232-1.109-0.462
			c-2.09-1.578-3.803-3.22-5.238-5.027c-1.564-1.955-1.546-2.29,0.22-3.98c0.25-0.236,0.302-0.419,0.319-0.582l0.003-0.029
			L8.512,5.969C8.475,5.822,8.47,5.755,8.466,5.685C8.257,5.135,8.063,4.653,7.87,4.17L7.159,2.161
			C7.105,2.009,7.052,1.856,7.009,1.703c0,0.003,0,0.005,0,0.005c-0.006,0-0.034-0.055-0.056-0.125L6.875,1.415
			C6.737,1.146,6.584,1.055,6.27,1.055z"/>
	</g>
</g>
<g id="car-park" display="none">
	<g display="inline">
		<path fill="#FCB033" d="M14.673,15.776c1.08,0.154,1.122,0.197,1.306,1.264c0.162,0.929,0.327,1.855,0.489,2.785
			c0.225,1.271-0.129,1.849-1.37,2.245c-0.344,1.783-0.734,2.193-2.027,2.14c-1.132-0.048-1.557-0.563-1.731-2.174
			c-0.821,0-1.656,0-2.49,0c-0.821,0-1.641,0-2.268,0c-0.336,0.688-0.511,1.354-0.928,1.782c-0.288,0.298-0.912,0.368-1.385,0.368
			c-1.089-0.001-1.492-0.555-1.637-2.063c-0.314-0.158-0.666-0.273-0.935-0.488c-0.494-0.398-0.637-0.952-0.523-1.572
			c0.182-1.008,0.366-2.012,0.544-3.019c0.188-1.07,0.224-1.107,1.28-1.266c0.095-0.702,0.153-1.42,0.294-2.122
			c0.311-1.544,1.582-2.691,3.152-2.759c1.562-0.068,3.131-0.08,4.693-0.009c1.864,0.085,3.185,1.432,3.377,3.298
			C14.565,14.702,14.617,15.221,14.673,15.776z M13.253,15.799c0.143-2.301-0.748-3.787-2.528-3.504
			c-0.137,1.086-0.26,1.195-1.36,1.198c-0.281,0.002-0.562,0-0.842,0c-1.304,0-1.316-0.011-1.583-1.238
			c-1.886-0.142-2.599,1.306-2.503,3.544C7.375,15.799,10.315,15.799,13.253,15.799z M4.034,17.986
			c-0.714,0.002-1.311,0.59-1.317,1.294c-0.006,0.712,0.643,1.343,1.359,1.322c0.7-0.021,1.291-0.636,1.278-1.336
			C5.342,18.556,4.749,17.981,4.034,17.986z M13.634,17.983c-0.714,0.01-1.295,0.601-1.292,1.313
			c0.004,0.703,0.604,1.302,1.305,1.305c0.726,0.003,1.354-0.634,1.329-1.353C14.952,18.54,14.352,17.973,13.634,17.983z"/>
	</g>
	<g display="inline">
		<g>
			<path fill="#FCB033" d="M21.8,8.651c0,0.573-0.181,1.011-0.538,1.315c-0.359,0.304-0.867,0.454-1.528,0.454H19.25v1.894h-1.128
				V6.991h1.7c0.645,0,1.136,0.137,1.473,0.417C21.631,7.686,21.8,8.1,21.8,8.651z M19.25,9.497h0.371
				c0.348,0,0.605-0.071,0.78-0.206c0.171-0.138,0.258-0.337,0.258-0.601c0-0.265-0.07-0.46-0.216-0.585
				c-0.146-0.127-0.372-0.189-0.68-0.189H19.25V9.497z"/>
		</g>
	</g>
	<g display="inline">
		<path fill="#FCB033" d="M19.502,14.583c-2.905,0-5.268-2.364-5.268-5.27c0-2.905,2.362-5.269,5.268-5.269s5.271,2.363,5.271,5.269
			C24.773,12.219,22.407,14.583,19.502,14.583z M19.502,4.923c-2.42,0-4.392,1.97-4.392,4.391c0,2.422,1.972,4.393,4.392,4.393
			c2.421,0,4.393-1.97,4.393-4.393C23.895,6.893,21.923,4.923,19.502,4.923z"/>
	</g>
	<g display="inline">
		<rect x="18" y="14" fill="#FCB033" width="2" height="10"/>
	</g>
</g>
<g id="nosmoking" display="none">
	<g display="inline">
		<path fill="#FCB033" d="M14.319,11.844l9.582-9.583c0.346-0.344,0.346-0.903,0-1.249c-0.344-0.345-0.903-0.345-1.247,0
			l-9.583,9.583L3.488,1.012c-0.345-0.345-0.903-0.345-1.248,0c-0.345,0.345-0.345,0.904,0,1.249l9.582,9.583L2.24,21.427
			c-0.345,0.343-0.345,0.903,0,1.248c0.172,0.172,0.398,0.258,0.624,0.258c0.226,0,0.452-0.086,0.624-0.258l9.583-9.582l9.583,9.582
			c0.172,0.172,0.397,0.258,0.623,0.258c0.225,0,0.452-0.086,0.624-0.258c0.346-0.345,0.346-0.905,0-1.248L14.319,11.844z"/>
		<path fill="#FCB033" d="M20.31,11.12L20.691,11H2.251C1.571,11,1,12.037,1,12.713v0.929C1,14.349,1.603,15,2.251,15h13.527h0.747
			h3.773c0.111,0,0.223,0.057,0.332,0.057S20.852,15,20.961,15h0.043l-0.384-0.037c0.4-0.137,0.38-0.505,0.38-0.906v-1.889
			C21,11.665,20.817,11.149,20.31,11.12z M4,14v-2h12v2H4z M17,12h2.545c-0.022,0-1.42-0.375-1.545,0.168v1.889
			C18,14.106,19.521,14,19.531,14H17V12z M20,14.057c0,0.175-0.325,0.315-0.5,0.315c-0.174,0-0.5-0.141-0.5-0.315v-1.889
			c0-0.174,0.326-0.316,0.5-0.316c0.175,0,0.5,0.142,0.5,0.316V14.057z"/>
		<g>
			<path fill-rule="evenodd" clip-rule="evenodd" fill="#FCB033" d="M2.002,10.51c-0.247-0.008-0.327-0.176-0.226-0.382
				C1.961,9.75,2.06,9.35,1.98,8.938C1.923,8.647,1.816,8.361,1.693,8.091C1.4,7.451,1.359,6.804,1.586,6.141
				c0.041-0.116,0.095-0.228,0.15-0.336C1.801,5.68,1.904,5.615,2.041,5.677c0.14,0.065,0.159,0.18,0.111,0.328
				C2.06,6.281,1.953,6.559,1.912,6.843C1.847,7.285,2.004,7.688,2.202,8.08C2.47,8.612,2.54,9.172,2.395,9.75
				c-0.05,0.204-0.13,0.402-0.219,0.593C2.138,10.423,2.042,10.474,2.002,10.51z"/>
		</g>
		<g>
			<path fill-rule="evenodd" clip-rule="evenodd" fill="#FCB033" d="M0.771,9.638c-0.237,0-0.313-0.155-0.247-0.355
				c0.087-0.263,0.188-0.528,0.23-0.799c0.068-0.448-0.083-0.86-0.284-1.257C0.154,6.598,0.123,5.945,0.351,5.28
				c0.04-0.115,0.093-0.227,0.147-0.337c0.066-0.134,0.174-0.202,0.317-0.131c0.146,0.071,0.14,0.194,0.098,0.334
				C0.826,5.437,0.721,5.729,0.68,6.027C0.621,6.447,0.779,6.83,0.964,7.203c0.319,0.636,0.347,1.295,0.116,1.966
				c-0.039,0.115-0.089,0.23-0.155,0.333C0.882,9.568,0.803,9.611,0.771,9.638z"/>
		</g>
	</g>
</g>
<g id="flat-screen-tv" display="none">
	<g display="inline">
		<path fill="#FCB033" d="M25,22H0V8h25V22z M1,21h23V9H1V21z"/>
	</g>
	<g display="inline">
		<rect x="2" y="10" fill="#FCB033" width="21" height="10"/>
	</g>
	<g display="inline">
		<rect x="2" y="23" fill="#FCB033" width="21" height="1"/>
	</g>
</g>
<g id="cctv" display="none">
	<path display="inline" fill="#FCB033" d="M23.882,8.583L9.279,2.477C8.295,2.065,7.693,2.229,7.441,2.835L5.796,6.767
		C5.795,6.769,5.795,6.771,5.794,6.774L5.205,8.182c-0.336,0.806,0.103,1.73,0.999,2.105l4.997,2.145L6,17.514v-3.126
		c0-0.2,0.071-0.212-0.051-0.335C5.742,13.848,6.375,14.125,5.288,14H2.306c-0.165,0-0.684-0.152-0.833-0.004
		C1.321,14.148,1,14.188,1,14.388v8.206C1,22.901,1.642,24,2.357,24h2.931C5.849,24,6,23.125,6,22.594V20h0.478
		c0.019,0,0.068-0.046,0.103-0.033C6.671,20,6.809,20.018,6.963,20.018c0.077,0,0.158-0.029,0.24-0.064
		c0.372-0.056,0.655-0.295,0.76-0.627l5.871-5.845l5.497,2.296c0.26,0.109,0.528,0.16,0.786,0.16c0.512,0,0.979-0.21,1.273-0.57
		l0.759,0.316l0.159,0.033c0.333,0,0.443-0.318,0.562-0.655c0.021-0.061,0.04-0.117,0.057-0.158l0.527-1.262
		c0.019-0.042,0.04-0.08,0.058-0.112c0.061-0.108,0.15-0.271,0.082-0.467l-0.083-0.187l-0.857-0.359l0.168-0.401
		c1.083-0.017,1.327-0.134,1.434-0.389l0.662-1.584C25.101,9.706,25.068,9.081,23.882,8.583z M5,22.594C5,22.756,5.35,22,5.288,23
		H2.433C2.413,22,2,22.67,2,22.594V15h3.341C5.389,15,5,14.469,5,14.471V17H4.116C3.584,17,3,17.955,3,18.491v0.586
		C3,19.313,3.275,20,4.116,20H5V22.594z M7.254,18.937l-0.021,0.124c-0.003,0.025-0.017,0.105-0.172,0.117l-0.096,0.008
		l-0.032,0.021c-0.026-0.008-0.058-0.067-0.082-0.077C6.753,19.093,6.63,19,6.488,19H6.268H5.497h-1.38C3.967,19,4,19.074,4,19.077
		v-0.586C4,18.323,4.076,18,4.116,18H6.55l5.553-5.408l0.961,0.482L7.254,18.937z M19.629,15.064L6.501,9.576
		C5.995,9.364,5.743,8.892,5.916,8.479l0.151-0.362c0.17,0.199,0.39,0.37,0.659,0.482l7.004,2.8c0.555,0.232,5.59,0.656,8.259,0.713
		L21.65,12.92l-0.516,1.232c-0.001,0.004-0.004,0.008-0.005,0.011l-0.24,0.575C20.722,15.139,20.156,15.285,19.629,15.064z
		 M22.727,13.384l-0.51,1.222c-0.022,0.052-0.049,0.125-0.075,0.203c-0.004,0.01-0.007,0.02-0.011,0.032l-0.356-0.149
		c0.019-0.084,0.045-0.179,0.069-0.239l0.513-1.225L22.727,13.384z M24.207,9.845l-0.607,1.45c-0.123,0.022-0.414,0.053-1.062,0.053
		c-2.686,0-8.066-0.504-8.517-0.663l-7.003-2.8c-0.394-0.164-0.626-0.54-0.511-0.821L7.16,5.504l0,0l0.992-2.372
		c0.029-0.071,0.057-0.114,0.197-0.114c0.15,0,0.363,0.057,0.632,0.17l14.602,6.105C24.31,9.598,24.232,9.784,24.207,9.845z"/>
</g>
<g id="air-con" display="none">
	<g display="inline">
		<path fill-rule="evenodd" clip-rule="evenodd" fill="#FCB033" d="M24.644,17.625c-0.103,0.238-0.293,0.305-0.543,0.305
			c-7.852-0.002-15.705-0.002-23.558,0c-0.249,0-0.439-0.066-0.543-0.305c0-2.873,0-5.745,0-8.616
			c0.055-0.149,0.095-0.306,0.167-0.446c0.329-0.645,0.87-0.922,1.584-0.92c2.478,0.005,4.955,0.002,7.433,0.002
			c4.543,0,9.091-0.003,13.637,0.008c0.311,0,0.642,0.061,0.928,0.177c0.514,0.208,0.749,0.67,0.895,1.179
			C24.644,11.88,24.644,14.752,24.644,17.625z M23.429,8.577c0,0.16,0.006,0.271,0,0.382c-0.031,0.497-0.303,0.869-0.741,0.986
			c-0.159,0.042-0.332,0.051-0.499,0.051C15.612,9.999,9.037,9.998,2.46,9.998c-0.112,0-0.224-0.005-0.335-0.018
			C1.662,9.926,1.312,9.593,1.241,9.13C1.215,8.96,1.212,8.787,1.196,8.582C0.891,8.792,0.813,9.063,0.813,9.385
			c0.003,2.494,0.002,4.988,0.002,7.481c0,0.079,0,0.155,0,0.233c0.147,0,0.263,0,0.4,0c0-0.104,0-0.189,0-0.277
			c0-0.568-0.007-1.139,0.001-1.707c0.009-0.691,0.429-1.105,1.119-1.105c6.655-0.002,13.312-0.002,19.968,0
			c0.702,0,1.117,0.416,1.125,1.124c0.006,0.569,0.001,1.138,0.001,1.708c0,0.086,0,0.171,0,0.26c0.149,0,0.264,0,0.398,0
			c0-0.104,0-0.191,0-0.277c0-2.463,0-4.925,0-7.386c0-0.088,0.003-0.178-0.008-0.265C23.789,8.934,23.688,8.735,23.429,8.577z
			 M1.774,8.465c0,0.204-0.013,0.38,0.003,0.553C1.801,9.27,1.966,9.419,2.219,9.445c0.08,0.008,0.16,0.006,0.241,0.006
			c6.576,0.001,13.153,0.001,19.73,0c0.097,0,0.211,0.026,0.283-0.018c0.142-0.086,0.319-0.191,0.369-0.328
			c0.068-0.191,0.033-0.418,0.044-0.64C15.827,8.465,8.813,8.465,1.774,8.465z M22.867,15.646c-7.038,0-14.056,0-21.088,0
			c0,0.178,0,0.341,0,0.515c7.036,0,14.056,0,21.088,0C22.867,15.989,22.867,15.832,22.867,15.646z M1.787,15.064
			c7.026,0,14.05,0,21.078,0c-0.021-0.38-0.198-0.52-0.639-0.52c-6.6,0-13.198,0-19.797,0c-0.088,0-0.177,0.001-0.263,0.019
			C1.905,14.617,1.785,14.779,1.787,15.064z M1.777,17.098c7.05,0,14.069,0,21.087,0c0-0.137,0-0.252,0-0.373
			c-7.038,0-14.058,0-21.087,0C1.777,16.854,1.777,16.971,1.777,17.098z"/>
		<path fill-rule="evenodd" clip-rule="evenodd" fill="#FCB033" d="M14.847,24.999c-0.288-0.012-0.383-0.207-0.263-0.448
			c0.215-0.444,0.33-0.912,0.237-1.396c-0.067-0.339-0.191-0.675-0.336-0.992c-0.342-0.75-0.392-1.508-0.124-2.285
			c0.047-0.137,0.108-0.268,0.175-0.396c0.073-0.145,0.196-0.221,0.356-0.147c0.165,0.075,0.186,0.21,0.13,0.384
			c-0.105,0.323-0.231,0.647-0.281,0.982c-0.076,0.517,0.109,0.991,0.34,1.449c0.315,0.623,0.396,1.281,0.228,1.959
			c-0.06,0.239-0.152,0.472-0.256,0.693C15.007,24.896,14.895,24.957,14.847,24.999z"/>
		<path fill-rule="evenodd" clip-rule="evenodd" fill="#FCB033" d="M12.385,24.996c-0.278,0-0.367-0.181-0.29-0.417
			c0.102-0.307,0.221-0.619,0.269-0.937c0.081-0.525-0.097-1.008-0.332-1.475c-0.372-0.735-0.407-1.502-0.141-2.281
			c0.046-0.135,0.109-0.266,0.172-0.394c0.077-0.156,0.203-0.236,0.373-0.154c0.169,0.082,0.163,0.228,0.113,0.393
			c-0.101,0.341-0.225,0.682-0.273,1.031c-0.068,0.492,0.116,0.942,0.335,1.378c0.374,0.746,0.407,1.519,0.136,2.305
			c-0.047,0.136-0.104,0.271-0.182,0.39C12.516,24.913,12.422,24.965,12.385,24.996z"/>
		<path fill-rule="evenodd" clip-rule="evenodd" fill="#FCB033" d="M12.343,12.917c0.386,0,0.77-0.006,1.155,0.002
			c0.271,0.006,0.433,0.228,0.29,0.402c-0.071,0.087-0.233,0.136-0.355,0.138c-0.737,0.014-1.476,0.008-2.214,0.008
			c-0.008,0-0.016,0-0.024,0c-0.187-0.006-0.373-0.029-0.375-0.271c-0.001-0.238,0.177-0.278,0.367-0.278
			C11.573,12.916,11.958,12.917,12.343,12.917z"/>
		<path fill-rule="evenodd" clip-rule="evenodd" fill="#FCB033" d="M22.048,13.257c-0.102,0.065-0.197,0.171-0.304,0.188
			c-0.155,0.025-0.26-0.092-0.261-0.249c-0.001-0.168,0.109-0.287,0.273-0.26c0.105,0.018,0.195,0.134,0.292,0.208
			C22.048,13.182,22.048,13.219,22.048,13.257z"/>
		<path fill-rule="evenodd" clip-rule="evenodd" fill="#FCB033" d="M20.802,13.242c-0.099,0.071-0.186,0.18-0.294,0.203
			c-0.154,0.033-0.261-0.084-0.271-0.236c-0.008-0.17,0.1-0.294,0.263-0.273c0.106,0.013,0.2,0.127,0.3,0.196
			C20.8,13.168,20.801,13.205,20.802,13.242z"/>
		<path fill-rule="evenodd" clip-rule="evenodd" fill="#FCB033" d="M9.925,25c-0.275-0.011-0.377-0.181-0.306-0.382
			c0.081-0.233,0.188-0.461,0.244-0.699c0.126-0.543,0.044-1.067-0.212-1.561c-0.358-0.684-0.506-1.396-0.314-2.157
			c0.057-0.23,0.155-0.452,0.244-0.672c0.066-0.167,0.189-0.278,0.375-0.196c0.196,0.087,0.195,0.255,0.109,0.426
			c-0.27,0.536-0.349,1.1-0.195,1.68c0.069,0.26,0.191,0.506,0.302,0.753c0.393,0.864,0.382,1.721-0.033,2.57
			C10.086,24.869,9.974,24.947,9.925,25z"/>
		<path fill-rule="evenodd" clip-rule="evenodd" fill="#FCB033" d="M14.847,24.999c-0.288-0.012-0.383-0.207-0.263-0.448
			c0.215-0.444,0.33-0.912,0.237-1.396c-0.067-0.339-0.191-0.675-0.336-0.992c-0.342-0.75-0.392-1.508-0.124-2.285
			c0.047-0.137,0.108-0.268,0.175-0.396c0.073-0.145,0.196-0.221,0.356-0.147c0.165,0.075,0.186,0.21,0.13,0.384
			c-0.105,0.323-0.231,0.647-0.281,0.982c-0.076,0.517,0.109,0.991,0.34,1.449c0.315,0.623,0.396,1.281,0.228,1.959
			c-0.06,0.239-0.152,0.472-0.256,0.693C15.007,24.896,14.895,24.957,14.847,24.999z"/>
		<path fill-rule="evenodd" clip-rule="evenodd" fill="#FCB033" d="M12.385,24.996c-0.278,0-0.367-0.181-0.29-0.417
			c0.102-0.307,0.221-0.619,0.269-0.937c0.081-0.525-0.097-1.008-0.332-1.475c-0.372-0.735-0.407-1.502-0.141-2.281
			c0.046-0.135,0.109-0.266,0.172-0.394c0.077-0.156,0.203-0.236,0.373-0.154c0.169,0.082,0.163,0.228,0.113,0.393
			c-0.101,0.341-0.225,0.682-0.273,1.031c-0.068,0.492,0.116,0.942,0.335,1.378c0.374,0.746,0.407,1.519,0.136,2.305
			c-0.047,0.136-0.104,0.271-0.182,0.39C12.516,24.913,12.422,24.965,12.385,24.996z"/>
	</g>
</g>
<g id="wi-fi" display="none">
	<g display="inline">
		<g>
			<g>
				<path fill="#FCB033" d="M4.812,24.165c-2.294,0-4.161-1.866-4.161-4.162s1.867-4.164,4.161-4.164
					c2.296,0,4.163,1.868,4.163,4.164S7.108,24.165,4.812,24.165z M4.812,17.198c-1.544,0-2.801,1.258-2.801,2.805
					c0,1.545,1.257,2.803,2.801,2.803c1.545,0,2.803-1.258,2.803-2.803C7.615,18.456,6.357,17.198,4.812,17.198z"/>
			</g>
		</g>
		<g>
			<g>
				<path fill="#FCB033" d="M17.822,25c-0.005,0-0.015,0-0.026,0H14.58c-0.375,0-0.68-0.109-0.68-0.486
					c0-7.865-5.658-13.699-13.406-13.699C0.119,10.814,0,10.607,0,10.232V7.016c0-0.375,0.119-0.68,0.495-0.68
					c9.783,0,17.964,8.304,18.074,18.178c0.019,0.063-0.019-0.066-0.019,0C18.55,24.891,18.198,25,17.822,25z M15.247,24h1.854
					C16.746,15,10,8.076,1,7.71v1.855C8,9.893,14.929,15,15.247,24z"/>
			</g>
		</g>
		<g>
			<g>
				<path fill="#FCB033" d="M24.127,25c-0.006,0-0.018,0-0.027,0h-3.213c-0.376,0-0.681-0.109-0.681-0.486
					c0-10.521-9.297-20.005-19.711-20.005C0.119,4.509,0,4.302,0,3.926V0.71c0-0.375,0.119-0.68,0.495-0.68
					c13.887,0,24.281,10.512,24.377,24.484c0.019,0.063-0.019-0.067-0.019-0.001C24.854,24.891,24.503,25,24.127,25z M21.555,24
					h1.856C23.086,11,13,1.731,1,1.399v1.86C12,3.655,21.164,13,21.555,24z"/>
			</g>
		</g>
	</g>
</g>
<g id="video-phone" display="none">
	<g display="inline">
		<path fill="#FCB033" d="M21,1.853v20.733C21,23.08,20.274,24,19.67,24H5.738C5.134,24,4,23.08,4,22.586V1.853
			C4,1.338,5.189,1,5.738,1H19.67C20.219,1,21,1.338,21,1.853z M5,22.586C5,22.717,5.724,23,5.738,23H20c0,0,0-0.283,0-0.414V1.853
			C20,1.717,20,2,20,2H5.738C5.558,2,5,1.717,5,1.853V22.586z"/>
	</g>
	<g display="inline">
		<path fill="#FCB033" d="M16.821,3H8.076C7.605,3,8,3.674,8,4.223v10.422C8,15.195,7.605,15,8.076,15h8.745
			C17.313,15,17,15.153,17,14.646V4.223C17,3.716,17.313,3,16.821,3z M16.821,15h-0.61c-0.141-2-1.746-3.452-3.711-3.452
			C10.535,11.548,8.929,13,8.789,15H8.076C7.924,15,8,14.761,8,14.646V4.223C8,4.109,7.924,4,8.076,4h8.745
			C16.974,4,17,4.055,17,4.223v10.422C17,14.814,16.974,15,16.821,15z"/>
		<circle fill="#FCB033" cx="12.216" cy="8.558" r="1.984"/>
	</g>
	<g display="inline">
		<path fill="#FCB033" d="M7,15V3h11v12H7z M8,3v12h9V3H8z"/>
	</g>
	<rect x="7" y="14" display="inline" fill="#FCB033" width="11" height="1"/>
	<path display="inline" fill="#E7A723" d="M7.676,22.071v0.006l0.105-0.044c0.023-0.013,0.04-0.013,0.061-0.027
		c0.017-0.003,0.029-0.014,0.042-0.019l1.605-0.687l0.069-0.047c0.038-0.018,0.071-0.04,0.104-0.062l0.106-0.07l-0.003-0.027
		c0.279-0.243,0.408-0.573,0.296-1.073c-0.083-0.357,0.111-0.455,0.431-0.503c1.073-0.148,2.146-0.187,3.22-0.062
		c0.995,0.112,1.012,0.118,0.987,1.102c-0.006,0.2,0.049,0.333,0.137,0.443l0.008,0.037l0.125,0.06
		c0.05,0.033,0.074,0.074,0.145,0.104c0.213,0.087,0.429,0.179,0.644,0.271l0.772,0.37c0.088,0.044,0.18,0.084,0.267,0.133
		c0.021,0.014,0.038,0.013,0.058,0.023l0.129,0.062l-0.008-0.016c0.313,0.102,0.508-0.039,0.709-0.328
		c1.109-1.593,0.343-3.829-1.553-4.363c-2.477-0.695-4.973-0.678-7.461-0.024c-0.484,0.13-0.903,0.379-1.254,0.738
		c-1.028,1.032-1.116,2.722-0.209,3.79C7.351,22.033,7.485,22.118,7.676,22.071z"/>
</g>
</svg>
