<?xml version="1.0" encoding="utf-8"?>
<!-- Generator: Adobe Illustrator 16.0.0, SVG Export Plug-In . SVG Version: 6.00 Build 0)  -->
<!DOCTYPE svg PUBLIC "-//W3C//DTD SVG 1.1//EN" "http://www.w3.org/Graphics/SVG/1.1/DTD/svg11.dtd">
<svg version="1.1" id="Layer_1" xmlns="http://www.w3.org/2000/svg" xmlns:xlink="http://www.w3.org/1999/xlink" x="0px" y="0px"
	 width="18.375px" height="25px" viewBox="0 0 18.375 25" enable-background="new 0 0 18.375 25" xml:space="preserve">
<g id="Layer_2" display="none">
	<g display="inline">
		<path fill="#FCB033" d="M78.734-108.728c1.6,0.23,1.66,0.294,1.936,1.875c0.239,1.376,0.482,2.752,0.725,4.129
			c0.334,1.887-0.188,2.743-2.031,3.331c-0.51,2.644-1.09,3.253-3.008,3.172c-1.678-0.07-2.309-0.835-2.564-3.224
			c-1.217,0-2.455,0-3.689,0c-1.219,0-2.435,0-3.363,0c-0.498,1.02-0.758,2.006-1.375,2.645c-0.428,0.44-1.354,0.546-2.055,0.546
			c-1.615-0.001-2.213-0.823-2.43-3.061c-0.467-0.236-0.986-0.406-1.391-0.726c-0.729-0.588-0.941-1.412-0.773-2.332
			c0.271-1.492,0.543-2.982,0.809-4.477c0.277-1.584,0.334-1.642,1.896-1.875c0.143-1.043,0.229-2.108,0.438-3.148
			c0.461-2.288,2.348-3.991,4.675-4.091c2.315-0.101,4.645-0.119,6.961-0.014c2.765,0.125,4.724,2.123,5.008,4.893
			C78.574-110.319,78.65-109.552,78.734-108.728z M76.627-108.692c0.213-3.413-1.111-5.618-3.75-5.199
			c-0.202,1.612-0.385,1.771-2.018,1.774c-0.416,0.003-0.832,0.001-1.248,0.001c-1.937-0.001-1.951-0.014-2.348-1.834
			c-2.799-0.211-3.854,1.937-3.715,5.258C67.909-108.692,72.27-108.692,76.627-108.692z M62.955-105.452
			c-1.061,0.005-1.943,0.876-1.953,1.921c-0.01,1.057,0.953,1.991,2.016,1.96c1.039-0.029,1.914-0.943,1.896-1.981
			C64.896-104.606,64.018-105.457,62.955-105.452z M77.191-105.454c-1.063,0.016-1.924,0.892-1.916,1.944
			c0.007,1.043,0.896,1.932,1.937,1.937c1.075,0.005,2.006-0.941,1.97-2.005C79.146-104.631,78.258-105.47,77.191-105.454z"/>
	</g>
	<g display="inline">
		<path fill="#FCB033" d="M83.5-95.5c-0.275,0-0.5-0.224-0.5-0.5v-14c0-0.276,0.225-0.5,0.5-0.5s0.5,0.224,0.5,0.5v14
			C84-95.724,83.775-95.5,83.5-95.5z"/>
	</g>
	<g display="inline">
		<path fill="#FCB033" d="M85.5-95.5c-0.275,0-0.5-0.224-0.5-0.5v-14c0-0.276,0.225-0.5,0.5-0.5s0.5,0.224,0.5,0.5v14
			C86-95.724,85.775-95.5,85.5-95.5z"/>
	</g>
	<g display="inline">
		<g>
			<path fill="#FCB033" d="M87.541-116.947c0,0.705-0.221,1.244-0.662,1.619c-0.439,0.373-1.066,0.559-1.88,0.559h-0.597v2.33
				h-1.389v-6.551h2.094c0.795,0,1.396,0.17,1.813,0.514C87.334-118.135,87.541-117.625,87.541-116.947z M84.402-115.906h0.457
				c0.429,0,0.748-0.086,0.959-0.254c0.213-0.17,0.318-0.414,0.318-0.738c0-0.326-0.09-0.566-0.269-0.721
				c-0.181-0.156-0.456-0.232-0.836-0.232H84.4v1.945H84.402z"/>
		</g>
	</g>
	<g display="inline">
		<path fill="#FCB033" d="M84.584-110.24c-3.309,0-6-2.691-6-6c0-3.309,2.691-6,6-6s6,2.691,6,6
			C90.584-112.931,87.893-110.24,84.584-110.24z M84.584-121.24c-2.757,0-5,2.243-5,5c0,2.757,2.243,5,5,5s5-2.243,5-5
			C89.584-118.997,87.341-121.24,84.584-121.24z"/>
	</g>
	<g display="inline">
		<path fill="#FCB033" d="M18,1.853v20.733C18,23.08,17.273,24,16.67,24H2.738C2.134,24,1,23.08,1,22.586V1.853
			C1,1.338,2.189,1,2.738,1H16.67C17.219,1,18,1.338,18,1.853z M2,22.586C2,22.717,2.724,23,2.738,23H17c0,0,0-0.283,0-0.414V1.853
			C17,1.717,17,2,17,2H2.738C2.558,2,2,1.717,2,1.853V22.586z"/>
	</g>
	<g display="inline">
		<path fill="#FCB033" d="M13.82,3H5.076C4.605,3,5,3.674,5,4.223v10.421C5,15.195,4.605,15,5.076,15h8.744
			c0.492,0,0.18,0.152,0.18-0.354V4.223C14,3.716,14.313,3,13.82,3z M13.82,15h-0.609c-0.141-2-1.746-3.452-3.711-3.452
			S5.929,13,5.789,15H5.076C4.924,15,5,14.761,5,14.646V4.223C5,4.109,4.924,4,5.076,4h8.744C13.975,4,14,4.055,14,4.223v10.421
			C14,14.814,13.975,15,13.82,15z"/>
		<circle fill="#FCB033" cx="9.216" cy="8.558" r="1.984"/>
	</g>
	<g display="inline">
		<path fill="#FCB033" d="M4,15V3h11v12H4z M5,3v12h9V3H5z"/>
	</g>
	<rect x="4" y="14" display="inline" fill="#FCB033" width="11" height="1"/>
	<path display="inline" fill="#E7A723" d="M4.676,22.07v0.007l0.105-0.044c0.023-0.014,0.04-0.014,0.061-0.027
		c0.017-0.003,0.029-0.014,0.042-0.02L6.489,21.3l0.069-0.047c0.038-0.019,0.071-0.04,0.104-0.062l0.106-0.07l-0.003-0.027
		c0.279-0.242,0.408-0.572,0.296-1.072c-0.083-0.355,0.111-0.455,0.431-0.504c1.073-0.146,2.146-0.187,3.22-0.062
		c0.995,0.112,1.013,0.118,0.987,1.103c-0.006,0.199,0.049,0.332,0.137,0.442l0.008,0.037l0.125,0.06
		c0.051,0.033,0.074,0.074,0.146,0.104c0.213,0.087,0.429,0.179,0.644,0.271l0.771,0.37c0.091,0.044,0.183,0.084,0.27,0.134
		c0.021,0.016,0.038,0.015,0.061,0.022l0.129,0.062l-0.008-0.016c0.313,0.102,0.508-0.039,0.709-0.328
		c1.106-1.593,0.342-3.828-1.556-4.363c-2.479-0.692-4.973-0.678-7.461-0.021c-0.484,0.13-0.903,0.379-1.254,0.736
		c-1.029,1.031-1.117,2.723-0.21,3.789C4.351,22.033,4.485,22.118,4.676,22.07z"/>
</g>
<g id="gym" display="none">
	<g display="inline">
		<path fill="#FCB033" d="M0.073,6.405l0.592,0.412c-4.084,8.996,1.83,13.951,1.891,14c0.104,0.084,0.228,0.125,0.351,0.125
			c0.163,0,0.323-0.069,0.435-0.207c0.194-0.236,0.158-0.59-0.082-0.783c-0.219-0.184-5.212-4.426-1.659-12.48l1.546,1.078
			C3.244,8.616,3.355,8.65,3.467,8.65c0.175,0,0.349-0.083,0.458-0.24c0.177-0.252,0.114-0.601-0.139-0.777L0.901,5.619l-0.61-3.312
			C0.235,2.004-0.051,1.81-0.36,1.858C-0.664,1.915-0.864,2.206-0.808,2.51l0.651,3.538C-0.129,6.192-0.047,6.321,0.073,6.405z"/>
		<path fill="#FCB033" d="M19.579,18.885c0-2.927-2.381-5.352-5.31-5.352c-1.438,0-2.742,0.561-3.699,1.492l0.635-0.123L1.2,24
			h-2.298c-0.31,0-0.559,0.189-0.559,0.5s0.25,0.5,0.559,0.5H0.02h7.544H19.02c0.312,0,0.562-0.189,0.562-0.5S19.328,24,19.02,24
			h-3.134C18.021,24,19.579,21.245,19.579,18.885z M8.837,24l1.587-1.393C11.032,23.253,11.809,24,12.67,24H8.837z M14.27,22.988
			c-1.24,0-2.343-0.551-3.106-1.407l2.388-2.388c0.219-0.219,0.219-0.571,0-0.791c-0.22-0.217-0.57-0.217-0.791,0l-1.871,1.871
			l-0.215-3.586c0.729-1.236,2.063-2.076,3.602-2.076c2.312,0,4.188,1.879,4.188,4.188C18.461,21.109,16.581,22.988,14.27,22.988z"
			/>
		<path fill="#FCB033" d="M20.133,8.973l-0.744-0.744C19.285,8.14,19.154,8,19.02,8h-5.588c-0.299,0-0.545,0.325-0.559,0.624
			c-0.014,0.298,0.21,0.601,0.507,0.628l0.945,0.108l1.549,0.623c-0.001,0.006-0.004,0.014-0.005,0.02l-0.561,2.331
			c-0.072,0.3,0.111,0.604,0.414,0.676c0.045,0.01,0.088,0.016,0.131,0.016c0.252,0,0.479-0.169,0.543-0.427l0.522-2.188
			l0.869,0.344c0.063,0.025,0.135,0.039,0.204,0.039c0.083,0,0.164-0.019,0.236-0.054L20.001,9.9c0.172-0.08,0.29-0.242,0.313-0.427
			C20.346,9.284,20.273,9.097,20.133,8.973z"/>
	</g>
</g>
<g id="Layer_18" display="none">
</g>
<g id="concierge" display="none">
	<g display="inline">
		<path fill="#FCB033" d="M21.591,17.482c-0.147-2.652-1.307-5.253-3.11-7.193c-0.914-0.981-1.982-1.819-3.172-2.444
			c-0.582-0.306-1.188-0.56-1.813-0.761c-0.25-0.08-0.467-0.132-0.452-0.439c0.019-0.436,0.015-0.873,0.009-1.309
			c-0.004-0.391-0.014-0.545,0.264-0.821c0.184-0.182,0.313-0.418,0.33-0.677c0.055-0.648-0.535-1.1-1.07-1.324
			C11.221,1.949,9.57,1.959,8.153,2.236C7.559,2.352,6.91,2.563,6.476,3.008C6.034,3.459,6.072,4.157,6.545,4.571
			c0.179,0.156,0.408,0.227,0.403,0.5C6.94,5.458,6.937,5.843,6.941,6.229c0.003,0.263,0.098,0.585-0.219,0.674
			C6.375,6.999,6.031,7.11,5.692,7.234c-2.408,0.895-4.439,2.572-5.828,4.727c-0.688,1.066-1.198,2.243-1.497,3.477
			c-0.146,0.604-0.242,1.217-0.292,1.834c-0.046,0.572-0.132,1.088-0.04,1.658C-1.9,19.329-0.819,19-0.553,19
			c0.841,0,1.682,0,2.523,0c1.617,0,3.234,0,4.851,0c3.222,0,6.447,0.166,9.667,0.125c1.205-0.016,2.412,0.027,3.619,0.016
			c0.367-0.004,1.209,0.17,1.52-0.082c0.109-0.091,0.016-0.629,0.016-0.771C21.643,18.008,21.605,17.758,21.591,17.482
			C21.547,16.699,21.596,17.566,21.591,17.482z M12.271,3.761c-0.926,0.605-3.823,0.605-4.733,0
			C8.428,3.15,11.373,3.15,12.271,3.761z M11.419,6.334c0.04,0.319-0.247,0.234-0.459,0.21c-0.38-0.045-0.765-0.064-1.147-0.063
			c-0.355,0-0.712,0.016-1.068,0.05c-0.25,0.023-0.18-0.429-0.18-0.593C8.568,5.62,8.776,5.606,9.037,5.637
			c0.324,0.038,0.658,0.017,0.982,0.017c0.354,0,0.709,0.003,1.063,0C11.573,5.648,11.369,5.94,11.419,6.334
			C11.448,6.567,11.396,6.161,11.419,6.334z M19.876,17.755C19.865,17.833,19.721,18,19.645,18c-0.191,0-0.387,0-0.58,0
			c-0.387,0-0.771,0-1.155,0c-0.839,0-1.675,0-2.513,0c-1.604,0-3.215,0-4.821,0c-3.233,0-6.461-0.098-9.692-0.124
			c-0.289-0.003-0.81-0.09-1.072-0.212c-0.22-0.104-0.058-0.635-0.032-0.805c0.113-0.715,0.294-1.43,0.548-2.108
			c0.471-1.255,1.2-2.405,2.109-3.388c1.767-1.908,4.24-3.034,6.829-3.208c2.793-0.188,5.592,0.917,7.612,2.837
			c0.896,0.853,1.618,1.876,2.137,3c0.268,0.581,0.48,1.232,0.646,1.85"/>
		<path fill="#FCB033" d="M17.604,13.732c-0.857-1.899-2.479-3.273-4.303-4.224c-0.867-0.452-1.783-0.618-2.496,0.211
			c-0.466,0.541-0.584,1.36-0.14,1.95c0.248,0.33,0.614,0.49,0.974,0.671c0.428,0.217,0.844,0.46,1.232,0.743
			c0.729,0.533,1.35,1.206,1.768,2.012c0.188,0.354,0.33,0.688,0.709,0.883c0.385,0.195,0.856,0.196,1.258,0.047
			C17.498,15.688,18.006,14.621,17.604,13.732C17.261,12.979,17.702,13.952,17.604,13.732z M16.072,14.906
			c-0.215,0.027-0.276-0.229-0.35-0.374c-0.148-0.294-0.318-0.576-0.513-0.845c-0.382-0.535-0.853-1.006-1.364-1.413
			c-0.474-0.368-0.982-0.683-1.514-0.961c-0.189-0.102-0.54-0.193-0.682-0.37c-0.172-0.216,0.143-0.537,0.34-0.589
			c0.417-0.11,1.105,0.44,1.445,0.646c0.537,0.327,1.049,0.7,1.508,1.131C15.277,12.443,17.373,14.739,16.072,14.906
			C15.9,14.93,16.294,14.879,16.072,14.906z"/>
		<rect x="-2" y="20" fill="#FCB033" width="24" height="2"/>
	</g>
</g>
<g id="maid" display="none">
	<g display="inline">
		<g>
			<path fill="#FCB033" d="M6.823,24.296c0.415,0,0.753,0.308,0.812,0.704h4.646c0.057-0.396,0.396-0.704,0.81-0.704
				s0.753,0.308,0.813,0.704h4.937c-0.168-2.871-2.126-4.357-4.046-5.436c-0.193-0.105-0.261-0.319-0.35-0.612
				c-0.02-0.056-0.041-0.134-0.063-0.191c-0.258-0.081-0.834-0.118-1.267-0.146c-0.528-0.032-1.034-0.064-1.418-0.162L9.99,21.596
				l-1.812-3.257c-0.294,0.097-0.697,0.185-1.232,0.302c-0.449,0.096-1.002,0.217-1.225,0.312c-0.03,0.052-0.071,0.142-0.099,0.198
				c-0.107,0.235-0.202,0.438-0.392,0.539C2.84,20.979,0.987,22.197,0.829,25h5.184C6.07,24.604,6.411,24.296,6.823,24.296z
				 M13.091,21.886c0.454,0,0.822,0.368,0.822,0.823c0,0.453-0.368,0.824-0.822,0.824s-0.821-0.371-0.821-0.824
				C12.27,22.254,12.637,21.886,13.091,21.886z M6.823,21.886c0.454,0,0.823,0.368,0.823,0.823c0,0.453-0.369,0.824-0.823,0.824
				c-0.453,0-0.822-0.371-0.822-0.824C6.001,22.254,6.37,21.886,6.823,21.886z"/>
			<path fill="#FCB033" d="M7.886,7.879C7.062,7.985,6.426,8.341,5.95,8.96c-1.41,1.828-0.855,5.278-0.85,5.313l0.216,1.287
				c0.839,0.865,1.926,1.49,3.149,1.76c0.021,0.005,0.041,0.011,0.063,0.018c0.41,0.085,0.836,0.13,1.271,0.13
				c2.208,0,4.143-1.149,5.252-2.878l-0.061-0.699l-0.305-3.542C10.932,9.919,8.475,8.302,7.886,7.879z M6.736,11.726
				c0-0.454,0.369-0.823,0.823-0.823c0.456,0,0.824,0.369,0.824,0.823s-0.368,0.823-0.824,0.823
				C7.104,12.549,6.736,12.181,6.736,11.726z M11.9,14.573c-1.316,0.829-2.896,0.834-4.174-0.063
				c-0.456-0.318,0.119-0.965,0.569-0.648c0.951,0.668,2.163,0.604,3.125-0.004C11.893,13.563,12.372,14.277,11.9,14.573z
				 M11.898,12.549c-0.453,0-0.821-0.369-0.821-0.823s0.368-0.823,0.821-0.823c0.455,0,0.822,0.369,0.822,0.823
				S12.354,12.549,11.898,12.549z"/>
			<path fill="#FCB033" d="M3.666,12.373c0.235,0.617,0.571,1.273,1.043,1.965c0,0-1.083-6.465,3.288-6.872
				c0,0,2.685,2.113,7.058,2.519l0.331,3.871c0,0,0.192-0.318,0.4-0.876c0.269-0.726,0.563-1.858,0.481-3.215
				c-0.039-0.667-0.172-1.388-0.439-2.141c-0.193-0.541-0.458-1.099-0.813-1.665c0,0.07-0.002,0.143-0.002,0.214V6.37h-0.141h-0.563
				h-0.595H5.88H5.288H4.721H4.623C4.474,6.53,4.154,6.909,3.856,7.478c-0.362,0.691-0.688,1.659-0.631,2.863
				C3.255,10.959,3.388,11.638,3.666,12.373z"/>
			<path fill="#FCB033" d="M4.865,5.52c0.001,0.059,0.001,0.116,0.003,0.172c0,0.094,0,0.188,0.002,0.282h0.265h0.62h0.679h6.728
				h0.68h0.62h0.156c0-0.151,0.006-0.301,0.006-0.454c0.002-0.034,0.002-0.067,0.002-0.103c0-0.094,0-0.189,0.003-0.284
				c0-0.091,0-0.182,0-0.273c-0.003-0.998-0.068-1.934-0.505-2.376c-0.194-0.198-0.458-0.293-0.806-0.293H6.171
				c-0.349,0-0.611,0.095-0.806,0.293C4.902,2.955,4.854,3.98,4.861,5.049c0,0.1,0.002,0.199,0.002,0.298
				C4.865,5.407,4.865,5.463,4.865,5.52z"/>
		</g>
	</g>
</g>
<g id="welcome_hamper-02" display="none">
	<g display="inline">
		<path fill="#FCB033" d="M9.969,21.844v0.271V21.844z"/>
		<polygon fill="#FCB033" points="7.26,21.844 7.26,22.115 7.261,21.844 		"/>
		<polygon fill="#FCB033" points="12.677,21.844 12.677,22.115 12.678,21.844 		"/>
		<path fill="#FCB033" d="M21.275,10.72l-0.383-0.383c-0.213-0.211-0.453-0.746-0.539-0.66L16.602,13H3.263l-3.754-3.323
			c-0.085-0.086-0.326,0.232-0.539,0.444l-0.383,0.491c-0.211,0.211-0.313,0.075-0.228,0.16L0.965,13h-1.289
			C-0.623,13-1,14.105-1,14.404v0.541C-1,15.246-0.623,16-0.323,16h1.43l1.598,7.475C2.748,24.008,3.126,24,3.801,24h12.064
			c0.675,0,1.053-0.002,1.097-0.535L18.578,16h1.141C20.018,16,20,15.246,20,14.945v-0.541C20,14.105,20.018,13,19.719,13h-0.82
			l2.605-2.174C21.589,10.74,21.488,10.932,21.275,10.72z M6,21.844v-4.875c0-0.299,0.701-0.542,1-0.542s1,0.243,1,0.542v4.875
			c0,0.299-0.701,0.542-1,0.542S6,22.143,6,21.844z M9,21.844v-4.875c0-0.299,0.702-0.542,1-0.542c0.299,0,1,0.243,1,0.542v4.875
			c0,0.299-0.701,0.542-1,0.542C9.702,22.386,9,22.143,9,21.844z M12,21.844v-4.875c0-0.299,0.701-0.542,1-0.542s1,0.243,1,0.542
			v4.875c0,0.299-0.701,0.542-1,0.542S12,22.143,12,21.844z"/>
	</g>
</g>
<g id="pet_friendly" display="none">
	<g display="inline">
		<path fill="#FCB033" d="M-56.053-86.798c-1.216,0.831-3.753-0.922-6.297-0.941c-2.543-0.019-5.152,1.741-6.325,0.942
			c-1.173-0.799,1.126-7.194,6.325-7.214C-57.151-94.031-54.836-87.629-56.053-86.798z"/>
	</g>
	
		<ellipse transform="matrix(0.1383 0.9904 -0.9904 0.1383 -153.7132 -11.8586)" display="inline" fill="#FCB033" cx="-70.042" cy="-94.261" rx="3.037" ry="2.203"/>
	
		<ellipse transform="matrix(0.0555 0.9985 -0.9985 0.0555 -159.5399 -26.9985)" display="inline" fill="#FCB033" cx="-65.5" cy="-97.823" rx="3.037" ry="2.203"/>
	
		<ellipse transform="matrix(-0.2221 0.975 -0.975 -0.2221 -168.7536 -61.7263)" display="inline" fill="#FCB033" cx="-59.754" cy="-98.18" rx="3.037" ry="2.203"/>
	
		<ellipse transform="matrix(-0.5998 0.8001 -0.8001 -0.5998 -163.611 -109.8395)" display="inline" fill="#FCB033" cx="-54.338" cy="-95.834" rx="3.037" ry="2.203"/>
	<g display="inline">
		<path fill="#FCB033" d="M-15.053-90.798c-1.216,0.831-3.753-0.922-6.297-0.941c-2.543-0.019-5.152,1.741-6.325,0.942
			c-1.173-0.799,1.126-7.194,6.325-7.214C-16.151-98.031-13.836-91.629-15.053-90.798z"/>
	</g>
	
		<ellipse transform="matrix(0.1384 0.9904 -0.9904 0.1384 -122.3323 -55.8944)" display="inline" fill="#FCB033" cx="-29.041" cy="-98.257" rx="3.037" ry="2.203"/>
	
		<ellipse transform="matrix(0.0555 0.9985 -0.9985 0.0555 -124.8074 -71.7168)" display="inline" fill="#FCB033" cx="-24.498" cy="-101.825" rx="3.037" ry="2.203"/>
	
		<ellipse transform="matrix(-0.2221 0.975 -0.975 -0.2221 -122.5458 -106.5926)" display="inline" fill="#FCB033" cx="-18.752" cy="-102.181" rx="3.037" ry="2.203"/>
	
		<ellipse transform="matrix(-0.5998 0.8002 -0.8002 -0.5998 -101.2271 -149.0381)" display="inline" fill="#FCB033" cx="-13.341" cy="-99.835" rx="3.037" ry="2.203"/>
	<g display="inline">
		<g>
			<path fill="none" stroke="#FCB033" stroke-miterlimit="10" d="M15.678,22.713c-1.363,0.936-4.213-1.033-7.066-1.056
				c-2.854-0.021-5.781,1.954-7.099,1.059c-1.317-0.896,1.264-8.073,7.099-8.095C14.445,14.6,17.043,21.782,15.678,22.713z"/>
		</g>
		
			<ellipse transform="matrix(0.1383 0.9904 -0.9904 0.1383 13.5324 11.8017)" fill="none" stroke="#FCB033" stroke-miterlimit="10" cx="-0.016" cy="13.677" rx="3.409" ry="2.472"/>
		
			<ellipse transform="matrix(0.0557 0.9984 -0.9984 0.0557 14.463 4.0627)" fill="none" stroke="#FCB033" stroke-miterlimit="10" cx="5.084" cy="9.677" rx="3.408" ry="2.472"/>
		
			<ellipse transform="matrix(-0.2222 0.975 -0.975 -0.2222 23.1233 0.0921)" fill="none" stroke="#FCB033" stroke-miterlimit="10" cx="11.525" cy="9.269" rx="3.408" ry="2.47"/>
		
			<ellipse transform="matrix(-0.5996 0.8003 -0.8003 -0.5996 37.6708 4.9399)" fill="none" stroke="#FCB033" stroke-miterlimit="10" cx="17.6" cy="11.894" rx="3.407" ry="2.473"/>
	</g>
</g>
<g id="welcome_hamper-01" display="none">
	<g display="inline">
		<path fill="#FCB033" d="M9.605,21.334v0.328V21.334z"/>
		<polygon fill="#FCB033" points="6.322,21.334 6.322,21.662 6.323,21.334 		"/>
		<polygon fill="#FCB033" points="12.889,21.662 12.889,21.334 12.889,21.334 		"/>
		<path fill="#FCB033" d="M21.424,12H18.79h-0.845c-0.314-5-4.114-8.126-8.75-8.126C4.558,3.874,0.759,7,0.443,12H0.092h-2.963
			C-3.234,12-3,11.954-3,12.316v0.656C-3,13.337-3.234,13-2.871,13h1.733L0.8,22.71C0.853,23.359,1.311,24,2.128,24h14.626
			c0.816,0,1.275-0.65,1.327-1.3l1.96-9.7h1.382C21.788,13,22,13.337,22,12.973v-0.656C22,11.954,21.788,12,21.424,12z M6,21.334
			v-5.91c0-0.361,0.638-0.656,1-0.656s1,0.295,1,0.656v5.91c0,0.363-0.638,0.657-1,0.657S6,21.697,6,21.334z M9,21.334v-5.91
			c0-0.361,0.639-0.656,1-0.656c0.361,0,1,0.295,1,0.656v5.91c0,0.363-0.639,0.657-1,0.657C9.639,21.991,9,21.697,9,21.334z
			 M14,21.334c0,0.363-0.637,0.657-1,0.657s-1-0.294-1-0.657v-5.91c0-0.361,0.637-0.656,1-0.656s1,0.295,1,0.656V21.334z
			 M9.195,4.531C13.459,4.531,16.96,8,17.288,12H1.102C1.431,8,4.931,4.531,9.195,4.531z"/>
	</g>
</g>
<g id="wlecome-provisions" display="none">
	<g display="inline">
		<path fill="#FCB033" d="M15.135,3.564c-0.006,0.003-0.012,0.015-0.018,0.019C15.448,3.58,15.128,3.568,15.135,3.564z"/>
		<path fill="#FCB033" d="M17.525,3.453C17.762,3.304,18,3.042,18,2.743V2.258C18,1.794,17.379,1,16.915,1h-1.931
			C14.521,1,14,1.794,14,2.258v0.485c0,0.298,0.229,0.561,0.463,0.71c-0.273,0.419-0.52,1.033-0.792,1.729
			c-1.04-0.346-2.187-0.537-3.396-0.537c-2.758,0-4.944,1.212-5.985,2.25l0.073,0.068l-4.939,4.724
			c-0.454,0.563-0.922,1.2-0.922,1.881c0,0.886,0.499,1.885,1.499,2.645v4.571C0,22.184,1.168,23,2.325,23h6.384
			C8.813,23,8.906,23.279,9,23.434c0.184,0.299,0.41,0.69,0.852,0.799c0.39,0.098,0.801,0.332,1.229,0.332
			c2.031,0,4.234-1.563,5.521-2.563h1.518C19.113,22,20,20.832,20,19.836v-8.667C20,10.75,18.721,5.283,17.525,3.453z M5.116,7.075
			l0.071-0.004c1.046-0.848,2.866-1.704,5.106-1.704c1.123,0,2.2,0.175,3.16,0.491c-0.547,1.525-1.025,3.27-1.28,4.338
			c-0.894-0.839-2.747-0.853-5.089-0.813c-0.515,0.01-1.048,0.019-1.592,0.019c-1.178,0-2.276,0.176-3.232,0.489L5.116,7.075z
			 M2.325,22C1.228,22,1,21.154,1,20.784v-5.031l-0.14-0.094c-1.246-0.566-1.46-1.216-1.46-2.085c0-1.931,2.679-3.438,6.075-3.438
			c0.548,0,1.094,0.001,1.613-0.007c2.112-0.039,3.953-0.047,4.62,0.608C11.896,10.922,12,10.807,12,11.529v1.784
			c0-0.047-0.426-0.078-0.652-0.078c-1.367,0-2.842,0.865-3.471,1.701c-1.486,1.976-1.858,4.723-0.881,6.782
			C7.092,21.92,7.229,22,7.382,22H2.325z M16.092,21.128c-1.148,1.522-3.162,2.546-5.014,2.546c-0.369,0-0.723-0.041-1.055-0.122
			c-0.146-0.034-0.25-0.194-0.408-0.452c-0.133-0.216-0.326-0.461-0.562-0.639C9.051,22.459,9,22.457,9,22.455l-0.417-0.122l0.5,0.5
			c-0.192,0-0.539-0.862-0.723-0.938C7.987,21.74,7.754,21.727,7.646,21.5c-0.855-1.805-0.511-4.434,0.802-6.176
			c0.512-0.68,1.761-1.391,2.888-1.391c0.209,0,0.402,0.039,0.576,0.09c0.332,0.1,0.568,0.473,0.842,0.897
			c0.154,0.242,0.314,0.494,0.51,0.722c0.133,0.153,0.271,0.28,0.41,0.385c0.398,0.285,0.878,0.412,1.344,0.535
			c0.498,0.129,0.969,0.254,1.188,0.553C17.009,18.221,16.807,20.182,16.092,21.128z M19,19.836C19,20.434,18.715,21,18.117,21
			h-1.088c0.557-1,0.599-3.116-0.241-4.271c-0.369-0.506-0.988-0.688-1.588-0.845c-0.334-0.088-0.675-0.192-0.948-0.342
			c0.008-0.031,0.02-0.067,0.021-0.099c0.013-0.426,1.356-0.834,2.56-0.865c0.199-0.005,0.356-0.163,0.353-0.362
			c-0.006-0.198-0.17-0.325-0.371-0.333c-0.188,0.006-0.644,0.032-1.151,0.12c0.003-0.412-0.337-0.935-0.771-1.353
			c-0.604-0.58-1.447-0.657-1.481-0.659l-0.444-0.038l0.057,0.441c0.004,0.035,0.115,0.877,0.719,1.458
			c0.227,0.217,0.459,0.393,0.682,0.516c-0.326,0.152-0.598,0.355-0.744,0.622c-0.105-0.146-0.061-0.298-0.156-0.449
			C13.316,14.234,13,13.934,13,13.695v-2.527C13,10.327,14.428,4,15.117,4c-0.063,0-0.139,0-0.25,0l0,0l0.268-0.436L16,3h-1.133l0,0
			h0.117C14.92,3,15,2.809,15,2.743V2.258C15,2.192,14.92,2,14.984,2h1.931C16.98,2,17,2.192,17,2.258v0.485
			C17,2.809,16.98,3,16.915,3H16v0.584c0,0,0.156-0.015,0.148-0.02C16.826,4.009,19,10.32,19,11.168V19.836z M15.07,14.133v-0.279
			l0,0V14.133z M14.871,13.791c-0.165-0.076-0.396-0.227-0.639-0.459c-0.146-0.141-0.25-0.309-0.326-0.468
			c0.162,0.069,0.333,0.167,0.479,0.308C14.645,13.422,14.794,13.641,14.871,13.791z"/>
	</g>
	<path display="inline" fill="#FCB033" d="M3.367,8.343c-0.013,0.006-0.193-0.15,0.268-0.237c0.227-0.05,0.498-0.088,0.784-0.13
		c0.285-0.043,0.595-0.059,0.895-0.087l0.449-0.002c0.145,0.003,0.291-0.012,0.422,0.01c0.132,0.015,0.26,0.029,0.38,0.043
		c0.117,0.019,0.238,0.016,0.326,0.05c0.361,0.106,0.601,0.177,0.601,0.177S7.228,8.132,6.83,8.08
		C6.738,8.06,6.612,8.078,6.496,8.076C6.377,8.078,6.252,8.08,6.123,8.083C5.998,8.078,5.855,8.11,5.72,8.124L5.308,8.176
		c-0.277,0.062-0.549,0.108-0.8,0.178S4.026,8.485,3.834,8.553C3.448,8.677,2.686,8.871,2.67,8.874L3.367,8.343z"/>
	<path display="inline" fill="#FCB033" d="M4.372,7.37C4.359,7.376,4.174,7.197,4.635,7.109c0.227-0.051,0.498-0.088,0.784-0.13
		S6.015,6.926,6.315,6.9l0.451,0.007c0.146,0.007,0.292-0.006,0.425,0.022c0.132,0.019,0.261,0.038,0.382,0.056
		c0.118,0.023,0.24,0.023,0.329,0.063C8.266,7.175,8.508,7.26,8.508,7.26S8.242,7.147,7.842,7.08C7.75,7.055,7.624,7,7.506,7
		C7.387,7,7.262,7,7.132,7C7.006,7,6.864,7.093,6.728,7.105L6.316,7.189c-0.277,0.063-0.549,0.127-0.799,0.2
		c-0.25,0.073-0.48,0.145-0.671,0.218C4.46,7.739,3.699,7.943,3.684,7.946L4.372,7.37z"/>
	<rect x="30.001" y="-17.95" display="inline" fill="#FCB033" width="7.666" height="6.899"/>
</g>
<g id="toiletries" display="none">
	<path display="inline" fill="#FCB033" d="M19.986,16.241l-0.776-1.054c0.347-0.229,0.978-0.732,1.104-1.498
		c0.08-0.479-0.047-0.959-0.375-1.437l0.047-0.034l-0.818-1.111c0.331-0.249,0.676-0.604,0.727-1.036
		c0.025-0.222-0.033-0.539-0.354-0.847l0.038-0.074l-8.308-4.279c-0.293-0.285-0.812-0.667-1.549-0.764
		c-1.011-0.13-2.089,0.299-3.216,1.275L0.095,8.997l0.061,0.108l-0.038-0.05l-1.681,1.281l1.591,0.933l-0.974,1.127
		c-0.078,0.092-0.112,0.213-0.092,0.33c0.02,0.119,0.091,0.223,0.195,0.282l0.597,0.346l-1.317,1.004l1.591,0.935l-0.974,1.129
		c-0.078,0.091-0.112,0.212-0.092,0.329c0.02,0.118,0.091,0.223,0.195,0.282l0.597,0.343l-1.317,1.005l5.692,3.337
		c0.159,0.118,2.97,2.206,5.7,2.205c0.97,0,1.93-0.262,2.756-0.971l6.396-3.604c0.047-0.022,1.162-0.593,1.336-1.636
		c0.078-0.479-0.047-0.959-0.375-1.437L19.986,16.241z M0.605,9.695L0.572,9.651l6.366-3.587l0.068-0.047
		c0.952-0.833,1.822-1.206,2.602-1.111c0.335,0.042,0.604,0.168,0.81,0.306l-0.051,0.1l0.423,0.217
		c0.062,0.066,0.094,0.114,0.101,0.121l0.057-0.04l8.016,4.128l-0.018,0.021c0.076,0.059,0.162,0.146,0.152,0.224
		c-0.022,0.217-0.481,0.583-0.904,0.788l-6.104,3.504c-2.66,2.33-7.426-1.207-7.514-1.271l-4.697-2.755L0.605,9.695z M0.508,13.789
		l7.527,4.347c0.063,0.036,0.133,0.054,0.202,0.054c0.138,0,0.274-0.069,0.347-0.198c0.112-0.192,0.045-0.438-0.147-0.552
		l-8.458-4.882l0.754-0.873l3.395,1.989c0.16,0.121,2.994,2.226,5.71,2.226c0.96,0,1.906-0.264,2.712-0.971l4.847-2.776l0.727,1.023
		l-7.948,3.815c-0.198,0.096-0.282,0.337-0.188,0.533c0.07,0.146,0.214,0.229,0.363,0.229c0.06,0,0.116-0.014,0.174-0.039
		l8.377-4.021c0.105-0.053,0.188-0.146,0.217-0.262c0.027-0.115,0.007-0.238-0.063-0.336L18.1,11.747l0.381-0.219l0.549,0.748
		l-0.063,0.063c0.432,0.438,0.617,0.847,0.559,1.218c-0.104,0.639-0.896,1.047-0.918,1.06l-6.449,3.634l-0.067,0.046
		c-2.659,2.331-7.426-1.207-7.514-1.269l-4.697-2.756L0.508,13.789z M18.604,18.635l-6.445,3.635l-0.068,0.047
		c-2.659,2.328-7.426-1.209-7.514-1.271l-4.697-2.754l0.632-0.479l7.527,4.348c0.063,0.035,0.133,0.053,0.202,0.053
		c0.138,0,0.274-0.068,0.347-0.197c0.112-0.193,0.045-0.438-0.147-0.552l-8.458-4.884l0.754-0.872l3.395,1.987
		c0.159,0.121,2.97,2.207,5.7,2.207c0.97,0,1.93-0.264,2.756-0.971l4.835-2.728l0.702,0.991l-7.948,3.813
		c-0.197,0.098-0.283,0.338-0.188,0.537c0.07,0.145,0.214,0.229,0.365,0.229c0.058,0,0.114-0.012,0.174-0.039l8.377-4.021
		c0.104-0.053,0.186-0.146,0.215-0.262s0.007-0.238-0.061-0.334l-0.934-1.313l0.385-0.216l0.521,0.707l-0.063,0.063
		c0.431,0.438,0.617,0.847,0.56,1.216C19.418,18.214,18.628,18.623,18.604,18.635z"/>
</g>
<g id="phone" display="none">
	<g display="inline">
		<path fill="#FCB033" d="M6.911,3.09c0.006,0.008,0.043,0.071,0.062,0.161C6.999,3.341,7.037,3.45,7.077,3.56L7.68,5.266
			c0.157,0.391,0.321,0.799,0.491,1.201c0.065,0.161,0.072,0.286,0.077,0.368L8.4,7.285L8.292,7.45
			C8.229,7.807,8.057,8.11,7.759,8.392c-1.054,1.006-1.054,1.006-0.106,2.19c1.185,1.491,2.601,2.848,4.328,4.15
			c0.256,0.188,0.367,0.219,0.41,0.219c0.03,0,0.104-0.061,0.187-0.194c0.519-0.821,1.19-1.247,2.01-1.266l0.033-0.039l0.539,0.062
			c0.089,0.021,0.185,0.038,0.278,0.072l0.092,0.012l3.215,1.272c0.058,0.016,0.1,0.036,0.123,0.047l0.6,0.394l0.069,0.109
			c0.198,0.316,0.2,0.688,0.176,0.973c-0.229,2.866-2.836,5.215-5.81,5.229h-0.063c-1.019,0-1.971-0.251-2.836-0.749
			c-4.36-2.536-7.779-5.969-10.164-10.196C-0.099,9.01-0.17,7.067,0.64,5.342c0.808-1.717,2.403-2.943,4.271-3.281
			C5.453,1.963,5.879,1.998,6.218,2.19 M5.458,2.914c-0.118,0-0.246,0.015-0.388,0.041c-1.601,0.29-2.916,1.301-3.609,2.774
			c-0.685,1.456-0.622,3.095,0.167,4.5c2.303,4.085,5.61,7.403,9.826,9.854c0.726,0.416,1.526,0.628,2.383,0.628v0.455l0.058-0.455
			c2.519-0.01,4.717-1.98,4.912-4.396c0.035-0.39-0.045-0.438-0.129-0.485l-0.354-0.146l-3.12-1.223
			c-0.117-0.033-0.171-0.044-0.224-0.057l-0.068-0.016l-0.146,0.016l-0.119-0.006c-0.358,0-0.83,0.1-1.299,0.838
			c-0.256,0.412-0.574,0.621-0.953,0.621c-0.365,0-0.688-0.196-0.953-0.396C9.648,14.107,8.18,12.7,6.947,11.149
			C5.602,9.471,5.618,9.184,7.132,7.734c0.215-0.203,0.259-0.359,0.274-0.5L7.409,7.21L7.381,7.129
			C7.35,7.003,7.346,6.945,7.342,6.886C7.163,6.414,6.996,6,6.831,5.586l-0.61-1.723c-0.046-0.13-0.092-0.262-0.128-0.394
			c0,0.002,0,0.004,0,0.004c-0.005,0-0.029-0.047-0.047-0.108L5.977,3.223C5.859,2.992,5.728,2.914,5.458,2.914z"/>
	</g>
</g>
<g id="car-park" display="none">
	<g display="inline">
		<path fill="#FCB033" d="M11.573,15.682c1.017,0.146,1.057,0.188,1.229,1.189c0.152,0.874,0.308,1.747,0.462,2.623
			c0.211,1.197-0.123,1.74-1.291,2.113c-0.324,1.681-0.689,2.063-1.91,2.017c-1.063-0.046-1.463-0.53-1.627-2.048
			c-0.773,0-1.56,0-2.345,0c-0.773,0-1.545,0-2.136,0c-0.316,0.648-0.481,1.273-0.874,1.679c-0.271,0.28-0.859,0.347-1.305,0.347
			c-1.026,0-1.405-0.521-1.542-1.94c-0.296-0.149-0.627-0.261-0.881-0.46c-0.465-0.375-0.6-0.896-0.493-1.479
			c0.171-0.949,0.345-1.896,0.512-2.846c0.177-1.008,0.211-1.043,1.206-1.189c0.089-0.66,0.144-1.338,0.277-1.998
			c0.293-1.457,1.49-2.538,2.969-2.601c1.471-0.064,2.949-0.075,4.42-0.009c1.755,0.08,3,1.349,3.181,3.105
			C11.473,14.669,11.521,15.157,11.573,15.682z M10.234,15.702c0.136-2.167-0.703-3.567-2.38-3.302
			c-0.129,1.023-0.245,1.125-1.281,1.129c-0.265,0.002-0.529,0-0.793,0c-1.228,0-1.239-0.01-1.49-1.168
			c-1.777-0.133-2.448,1.23-2.358,3.34C4.699,15.702,7.469,15.702,10.234,15.702z M1.553,17.762
			c-0.672,0.002-1.235,0.557-1.24,1.219c-0.006,0.672,0.605,1.268,1.28,1.246c0.659-0.021,1.215-0.6,1.204-1.259
			C2.785,18.298,2.227,17.758,1.553,17.762z M10.596,17.759c-0.674,0.011-1.222,0.566-1.218,1.236
			c0.004,0.662,0.569,1.228,1.229,1.229c0.684,0.002,1.271-0.601,1.252-1.274C11.836,18.283,11.271,17.749,10.596,17.759z"/>
	</g>
	<g display="inline">
		<g>
			<path fill="#FCB033" d="M18.285,8.97c0,0.54-0.17,0.952-0.508,1.239c-0.338,0.286-0.815,0.427-1.438,0.427h-0.455v1.783H14.82
				V7.406h1.603c0.606,0,1.069,0.129,1.388,0.394C18.126,8.061,18.285,8.451,18.285,8.97z M15.884,9.767h0.351
				c0.326,0,0.57-0.067,0.733-0.194c0.161-0.13,0.243-0.317,0.243-0.565c0-0.25-0.066-0.434-0.203-0.551
				c-0.137-0.12-0.351-0.178-0.641-0.178h-0.483V9.767z"/>
		</g>
	</g>
	<g display="inline">
		<path fill="#FCB033" d="M16.121,14.557c-2.736,0-4.961-2.226-4.961-4.963c0-2.736,2.225-4.962,4.961-4.962
			s4.965,2.226,4.965,4.962C21.086,12.331,18.857,14.557,16.121,14.557z M16.121,5.458c-2.279,0-4.137,1.855-4.137,4.135
			c0,2.281,1.854,4.138,4.137,4.138c2.279,0,4.137-1.854,4.137-4.138C20.258,7.313,18.4,5.458,16.121,5.458z"/>
	</g>
	<g display="inline">
		<rect x="15" y="14" fill="#FCB033" width="2" height="9"/>
	</g>
</g>
<g id="nosmoking" display="none">
	<g display="inline">
		<path fill="#FCB033" d="M11.171,10.844l8.915-8.917c0.322-0.32,0.322-0.841,0-1.162c-0.318-0.321-0.84-0.321-1.16,0l-8.917,8.917
			L1.092,0.765c-0.321-0.321-0.84-0.321-1.161,0c-0.321,0.321-0.321,0.841,0,1.162l8.916,8.917l-8.916,8.917
			c-0.321,0.319-0.321,0.841,0,1.161c0.16,0.16,0.371,0.24,0.581,0.24c0.21,0,0.421-0.08,0.581-0.24l8.917-8.917l8.917,8.917
			c0.16,0.16,0.37,0.24,0.58,0.24s0.421-0.08,0.58-0.24c0.322-0.32,0.322-0.842,0-1.161L11.171,10.844z"/>
		<path fill="#FCB033" d="M17.051,10.142L17.102,10H-0.059C-0.692,10-1,11.023-1,11.653v0.865C-1,13.175-0.662,14-0.059,14h12.586
			h0.695h3.512c0.104,0,0.207,0.053,0.31,0.053c0.101,0,0.205-0.053,0.308-0.053h0.039l-0.051-0.145
			c0.373-0.127,0.66-0.58,0.66-0.954v-1.758C18,10.677,17.523,10.168,17.051,10.142z M1,13v-2h12v2H1z M14,11h2.033
			C16.014,11,15,11.079,15,11.146v1.758C15,12.95,16.012,13,16.021,13H14V11z M17,12.902c0,0.163-0.338,0.293-0.5,0.293
			S16,13.064,16,12.902v-1.757c0-0.162,0.338-0.294,0.5-0.294s0.5,0.132,0.5,0.294V12.902z"/>
		<g>
			<path fill="#FCB033" d="M-0.29,9.603C-0.52,9.595-0.595,9.439-0.5,9.247c0.172-0.352,0.263-0.724,0.189-1.107
				c-0.053-0.271-0.152-0.537-0.267-0.788c-0.272-0.596-0.311-1.197-0.1-1.815C-0.64,5.43-0.59,5.326-0.538,5.224
				c0.06-0.116,0.156-0.176,0.283-0.118c0.131,0.061,0.148,0.167,0.104,0.305c-0.085,0.257-0.185,0.515-0.223,0.78
				c-0.061,0.41,0.086,0.787,0.27,1.15c0.249,0.495,0.314,1.017,0.18,1.555C0.03,9.086-0.045,9.271-0.128,9.447
				C-0.164,9.522-0.254,9.569-0.29,9.603z"/>
		</g>
		<g>
			<path fill="#FCB033" d="M-1.436,8.792c-0.22,0-0.292-0.144-0.23-0.331C-1.584,8.216-1.49,7.97-1.451,7.717
				c0.063-0.417-0.077-0.8-0.264-1.17C-2.01,5.962-2.039,5.355-1.827,4.736C-1.79,4.629-1.741,4.525-1.69,4.423
				C-1.628,4.298-1.528,4.235-1.395,4.3c0.135,0.065,0.13,0.181,0.091,0.311c-0.082,0.271-0.179,0.542-0.217,0.82
				c-0.055,0.391,0.092,0.747,0.265,1.094c0.297,0.592,0.322,1.206,0.108,1.829c-0.037,0.107-0.083,0.215-0.145,0.31
				C-1.332,8.726-1.406,8.767-1.436,8.792z"/>
		</g>
	</g>
</g>
<g id="flat-screen-tv" display="none">
	<g display="inline">
		<path fill="#FCB033" d="M22,22H-3V8h25V22z M-2,21h23V9H-2V21z"/>
	</g>
	<g display="inline">
		<rect x="-1" y="10" fill="#FCB033" width="21" height="10"/>
	</g>
	<g display="inline">
		<rect x="-1" y="23" fill="#FCB033" width="21" height="1"/>
	</g>
</g>
<g id="cctv" display="none">
	<path display="inline" fill="#FCB033" d="M20.882,8.583L6.279,2.477C5.295,2.065,4.693,2.229,4.441,2.835L2.796,6.767
		C2.795,6.769,2.795,6.771,2.794,6.774L2.205,8.182c-0.336,0.806,0.103,1.73,0.999,2.105l4.997,2.145L3,17.514v-3.125
		c0-0.201,0.071-0.213-0.051-0.336C2.742,13.848,3.375,14.125,2.288,14h-2.982c-0.165,0-0.684-0.152-0.833-0.004
		C-1.679,14.148-2,14.188-2,14.389v8.205C-2,22.9-1.358,24-0.643,24h2.931C2.849,24,3,23.125,3,22.594V20h0.478
		c0.019,0,0.068-0.046,0.103-0.033c0.09,0.033,0.228,0.051,0.382,0.051c0.077,0,0.158-0.026,0.24-0.063
		c0.372-0.057,0.655-0.295,0.76-0.627l5.871-5.846l5.497,2.295c0.26,0.108,0.528,0.16,0.786,0.16c0.512,0,0.979-0.209,1.273-0.568
		l0.758,0.314l0.16,0.032c0.332,0,0.44-0.317,0.562-0.653c0.021-0.063,0.04-0.117,0.057-0.158l0.527-1.262
		c0.019-0.043,0.04-0.08,0.058-0.113c0.063-0.106,0.15-0.271,0.082-0.467l-0.083-0.188l-0.856-0.358l0.17-0.401
		c1.08-0.017,1.324-0.134,1.434-0.389l0.662-1.584C22.102,9.706,22.068,9.081,20.882,8.583z M2,22.594C2,22.756,2.35,22,2.288,23
		h-2.855C-0.587,22-1,22.67-1,22.594V15h3.341C2.389,15,2,14.469,2,14.471V17H1.116C0.584,17,0,17.955,0,18.491v0.586
		C0,19.313,0.275,20,1.116,20H2V22.594z M4.254,18.938l-0.021,0.123c-0.003,0.025-0.017,0.105-0.172,0.117l-0.096,0.008
		l-0.032,0.021c-0.026-0.008-0.058-0.066-0.082-0.077C3.753,19.093,3.63,19,3.488,19h-0.22H2.497h-1.38C0.967,19,1,19.074,1,19.077
		v-0.586C1,18.323,1.076,18,1.116,18H3.55l5.553-5.408l0.961,0.482L4.254,18.938z M16.629,15.064L3.501,9.576
		C2.995,9.364,2.743,8.892,2.916,8.479l0.151-0.362c0.17,0.199,0.39,0.37,0.659,0.482l7.004,2.8c0.555,0.232,5.59,0.656,8.259,0.713
		L18.65,12.92l-0.519,1.232c-0.001,0.004-0.004,0.008-0.005,0.011l-0.238,0.575C17.723,15.139,17.156,15.285,16.629,15.064z
		 M19.727,13.384l-0.51,1.222c-0.021,0.055-0.049,0.125-0.074,0.203c-0.004,0.01-0.008,0.021-0.012,0.032l-0.355-0.149
		c0.021-0.084,0.045-0.178,0.068-0.236l0.514-1.227L19.727,13.384z M21.207,9.845l-0.607,1.45c-0.123,0.022-0.414,0.053-1.062,0.053
		c-2.687,0-8.065-0.504-8.517-0.663l-7.003-2.8c-0.394-0.164-0.626-0.54-0.511-0.821l0.653-1.56l0,0l0.992-2.372
		c0.029-0.071,0.057-0.114,0.197-0.114c0.15,0,0.363,0.057,0.632,0.17l14.602,6.105C21.311,9.598,21.232,9.784,21.207,9.845z"/>
</g>
<g id="air-con" display="none">
	<g display="inline">
		<path fill="#FCB033" d="M22,13.258c-0.104,0.238-0.293,0.305-0.543,0.305c-7.852-0.002-15.705-0.002-23.558,0
			c-0.249,0-0.439-0.063-0.543-0.305c0-2.873,0-5.745,0-8.616c0.055-0.149,0.095-0.306,0.167-0.446
			c0.329-0.645,0.87-0.922,1.584-0.92C1.585,3.28,4.063,3.277,6.541,3.277c4.543,0,9.091-0.003,13.637,0.008
			c0.313,0,0.643,0.061,0.928,0.177c0.517,0.208,0.75,0.67,0.896,1.179C22,7.513,22,10.385,22,13.258z M20.785,4.209
			c0,0.16,0.006,0.271,0,0.382c-0.031,0.497-0.303,0.869-0.741,0.986c-0.159,0.042-0.332,0.051-0.499,0.051
			C12.969,5.631,6.394,5.631-0.183,5.63c-0.112,0-0.224-0.005-0.335-0.018c-0.463-0.053-0.813-0.387-0.884-0.849
			c-0.026-0.17-0.029-0.343-0.045-0.548C-1.752,4.424-1.83,4.696-1.83,5.018c0.003,2.494,0.002,4.988,0.002,7.481
			c0,0.079,0,0.155,0,0.233c0.147,0,0.263,0,0.4,0c0-0.104,0-0.189,0-0.276c0-0.569-0.007-1.139,0.001-1.708
			c0.009-0.69,0.429-1.105,1.119-1.105c6.655-0.001,13.312-0.001,19.968,0c0.701,0,1.117,0.417,1.125,1.124
			c0.006,0.569,0.001,1.138,0.001,1.708c0,0.086,0,0.172,0,0.26c0.149,0,0.264,0,0.397,0c0-0.104,0-0.19,0-0.277
			c0-2.463,0-4.925,0-7.386c0-0.088,0.004-0.178-0.01-0.265C21.146,4.567,21.044,4.368,20.785,4.209z M-0.87,4.098
			c0,0.204-0.013,0.38,0.003,0.553c0.023,0.251,0.189,0.401,0.441,0.427c0.08,0.008,0.16,0.006,0.241,0.006
			c6.576,0.001,13.153,0.001,19.73,0c0.098,0,0.211,0.026,0.283-0.018c0.143-0.086,0.318-0.191,0.369-0.328
			c0.068-0.191,0.033-0.418,0.044-0.64C13.184,4.098,6.169,4.098-0.87,4.098z M20.225,11.28c-7.039,0-14.057,0-21.089,0
			c0,0.178,0,0.34,0,0.514c7.036,0,14.056,0,21.089,0C20.225,11.622,20.225,11.465,20.225,11.28z M-0.857,10.697
			c7.026,0,14.05,0,21.078,0c-0.021-0.38-0.197-0.519-0.639-0.519c-6.6,0-13.198,0-19.797,0c-0.088,0-0.177,0-0.263,0.018
			C-0.738,10.25-0.858,10.412-0.857,10.697z M-0.867,12.73c7.05,0,14.069,0,21.088,0c0-0.137,0-0.252,0-0.373
			c-7.039,0-14.059,0-21.088,0C-0.867,12.486-0.867,12.604-0.867,12.73z"/>
		<path fill="#FCB033" d="M12.203,20.632c-0.288-0.012-0.383-0.207-0.264-0.448c0.215-0.441,0.33-0.912,0.235-1.396
			c-0.065-0.339-0.188-0.675-0.336-0.992c-0.342-0.75-0.392-1.508-0.124-2.285c0.049-0.137,0.108-0.268,0.178-0.396
			c0.07-0.145,0.193-0.221,0.354-0.147c0.165,0.075,0.188,0.21,0.13,0.384c-0.104,0.323-0.229,0.647-0.278,0.982
			c-0.076,0.518,0.106,0.991,0.34,1.449c0.313,0.623,0.396,1.281,0.228,1.959c-0.06,0.238-0.151,0.472-0.256,0.693
			C12.363,20.529,12.251,20.59,12.203,20.632z"/>
		<path fill="#FCB033" d="M9.741,20.629c-0.278,0-0.367-0.181-0.29-0.417c0.102-0.308,0.221-0.619,0.27-0.937
			c0.08-0.525-0.098-1.008-0.332-1.478c-0.373-0.733-0.408-1.502-0.142-2.278c0.046-0.138,0.108-0.269,0.172-0.396
			c0.077-0.156,0.203-0.234,0.373-0.152c0.169,0.08,0.163,0.229,0.112,0.394c-0.1,0.341-0.225,0.682-0.272,1.03
			c-0.067,0.49,0.116,0.94,0.335,1.379c0.374,0.746,0.407,1.519,0.137,2.305c-0.047,0.136-0.104,0.271-0.183,0.39
			C9.872,20.546,9.777,20.598,9.741,20.629z"/>
		<path fill="#FCB033" d="M9.699,8.55c0.386,0,0.77-0.006,1.154,0.002c0.271,0.006,0.434,0.227,0.291,0.402
			c-0.071,0.087-0.233,0.136-0.355,0.138c-0.737,0.013-1.477,0.007-2.214,0.007c-0.008,0-0.016,0-0.024,0
			C8.364,9.094,8.178,9.07,8.176,8.829C8.175,8.59,8.353,8.55,8.543,8.55C8.929,8.548,9.314,8.55,9.699,8.55z"/>
		<path fill="#FCB033" d="M19.404,8.89C19.3,8.956,19.207,9.06,19.1,9.078c-0.154,0.025-0.262-0.091-0.263-0.249
			c-0.001-0.168,0.108-0.287,0.271-0.26c0.105,0.018,0.195,0.135,0.293,0.208C19.404,8.814,19.404,8.852,19.404,8.89z"/>
		<path fill="#FCB033" d="M18.158,8.875c-0.1,0.072-0.186,0.18-0.294,0.203c-0.154,0.033-0.261-0.083-0.271-0.236
			c-0.008-0.169,0.101-0.294,0.263-0.273c0.106,0.013,0.201,0.127,0.303,0.196C18.156,8.801,18.157,8.838,18.158,8.875z"/>
		<path fill="#FCB033" d="M7.282,20.633c-0.275-0.011-0.377-0.181-0.306-0.382c0.081-0.233,0.188-0.461,0.244-0.699
			c0.126-0.543,0.044-1.067-0.212-1.561c-0.358-0.685-0.506-1.396-0.314-2.157c0.057-0.23,0.155-0.452,0.244-0.672
			c0.066-0.167,0.189-0.278,0.375-0.196c0.196,0.087,0.195,0.255,0.109,0.427c-0.27,0.535-0.349,1.102-0.195,1.682
			c0.069,0.26,0.191,0.506,0.302,0.753c0.393,0.862,0.382,1.721-0.033,2.567C7.443,20.502,7.33,20.58,7.282,20.633z"/>
		<path fill="#FCB033" d="M12.203,20.632c-0.288-0.012-0.383-0.207-0.264-0.448c0.215-0.441,0.33-0.912,0.235-1.396
			c-0.065-0.339-0.188-0.675-0.336-0.992c-0.342-0.75-0.392-1.508-0.124-2.285c0.049-0.137,0.108-0.268,0.178-0.396
			c0.07-0.145,0.193-0.221,0.354-0.147c0.165,0.075,0.188,0.21,0.13,0.384c-0.104,0.323-0.229,0.647-0.278,0.982
			c-0.076,0.518,0.106,0.991,0.34,1.449c0.313,0.623,0.396,1.281,0.228,1.959c-0.06,0.238-0.151,0.472-0.256,0.693
			C12.363,20.529,12.251,20.59,12.203,20.632z"/>
		<path fill="#FCB033" d="M9.741,20.629c-0.278,0-0.367-0.181-0.29-0.417c0.102-0.308,0.221-0.619,0.27-0.937
			c0.08-0.525-0.098-1.008-0.332-1.478c-0.373-0.733-0.408-1.502-0.142-2.278c0.046-0.138,0.108-0.269,0.172-0.396
			c0.077-0.156,0.203-0.234,0.373-0.152c0.169,0.08,0.163,0.229,0.112,0.394c-0.1,0.341-0.225,0.682-0.272,1.03
			c-0.067,0.49,0.116,0.94,0.335,1.379c0.374,0.746,0.407,1.519,0.137,2.305c-0.047,0.136-0.104,0.271-0.183,0.39
			C9.872,20.546,9.777,20.598,9.741,20.629z"/>
	</g>
</g>
<g id="wi-fi" display="none">
	<g display="inline">
		<g>
			<g>
				<path fill="#FCB033" d="M3.008,22.343c-1.936,0-3.512-1.575-3.512-3.513s1.576-3.516,3.512-3.516
					c1.938,0,3.513,1.578,3.513,3.516S4.946,22.343,3.008,22.343z M3.008,16.463c-1.303,0-2.364,1.063-2.364,2.367
					c0,1.304,1.061,2.365,2.364,2.365c1.304,0,2.366-1.063,2.366-2.365C5.374,17.523,4.313,16.463,3.008,16.463z"/>
			</g>
		</g>
		<g>
			<g>
				<path fill="#FCB033" d="M13.988,23c-0.004,0-0.014,0-0.022,0h-2.714c-0.316,0-0.572-0.068-0.572-0.387
					c0-6.639-4.75-11.549-11.289-11.549c-0.317,0-0.391-0.163-0.391-0.48V7.87c0-0.317,0.074-0.574,0.391-0.574
					c8.256,0,15.148,7.009,15.24,15.341c0.016,0.053-0.021-0.08-0.021-0.021C14.607,22.932,14.307,23,13.988,23z M11.814,22h1.563
					C13.08,15,7,8.764,0,8.456v1.565C6,10.298,11.546,15,11.814,22z"/>
			</g>
		</g>
		<g>
			<g>
				<path fill="#FCB033" d="M19.309,23c-0.004,0-0.015,0-0.021,0h-2.712C16.257,23,16,22.932,16,22.613
					C16,13.734,8.18,5.742-0.609,5.742C-0.926,5.742-1,5.58-1,5.262V2.548c0-0.317,0.074-0.574,0.391-0.574
					c11.72,0,20.478,8.872,20.56,20.663c0.016,0.053-0.021-0.08-0.021-0.021C19.93,22.932,19.626,23,19.309,23z M17.139,22h1.566
					C18.432,11,10,3.41,0,3.13V4.7C9,5.034,16.809,13,17.139,22z"/>
			</g>
		</g>
	</g>
</g>
<g>
	<path fill="#FCB033" d="M16.559,25H3.863c-0.948,0-1.72-0.648-1.72-1.445V2.363c0-0.796,0.771-1.445,1.72-1.445h12.695
		c0.949,0,1.721,0.648,1.721,1.445v21.192C18.279,24.352,17.508,25,16.559,25z M3.863,1.939c-0.4,0-0.699,0.224-0.699,0.424v21.192
		c0,0.201,0.299,0.424,0.699,0.424h12.695c0.4,0,0.699-0.223,0.699-0.424V2.363c0-0.2-0.299-0.424-0.699-0.424H3.863z"/>
	<g>
		<circle fill="#FCB033" cx="9.945" cy="7.512" r="1.467"/>
		<path fill="#FCB033" d="M13.773,3.411h-7.59c-0.716,0-1.234,0.363-1.234,0.864v8.021c0,0.501,0.519,0.863,1.234,0.863h7.59
			c0.715,0,1.232-0.362,1.232-0.863V4.274C15.006,3.773,14.488,3.411,13.773,3.411z M13.986,12.111
			c-0.051,0.014-0.122,0.025-0.213,0.025h-0.927c-0.209-1.422-1.423-2.518-2.901-2.518c-1.48,0-2.693,1.095-2.902,2.518H6.184
			c-0.092,0-0.162-0.012-0.213-0.025V4.457c0.051-0.013,0.121-0.025,0.213-0.025h7.59c0.091,0,0.162,0.012,0.213,0.025V12.111z"/>
	</g>
	<g>
		<path fill="#FCB033" d="M6.799,21.937c0,0.272-0.222,0.493-0.495,0.493s-0.495-0.221-0.495-0.493c0-0.275,0.222-0.496,0.495-0.496
			S6.799,21.661,6.799,21.937z"/>
	</g>
	<g>
		<path fill="#FCB033" d="M8.615,21.937c0,0.272-0.221,0.493-0.494,0.493c-0.274,0-0.496-0.221-0.496-0.493
			c0-0.275,0.222-0.496,0.496-0.496C8.395,21.44,8.615,21.661,8.615,21.937z"/>
	</g>
	<g>
		<path fill="#FCB033" d="M10.432,21.937c0,0.272-0.221,0.493-0.496,0.493c-0.271,0-0.494-0.221-0.494-0.493
			c0-0.275,0.223-0.496,0.494-0.496C10.211,21.44,10.432,21.661,10.432,21.937z"/>
	</g>
	<g>
		<path fill="#FCB033" d="M12.248,21.937c0,0.272-0.223,0.493-0.494,0.493c-0.274,0-0.496-0.221-0.496-0.493
			c0-0.275,0.222-0.496,0.496-0.496C12.025,21.44,12.248,21.661,12.248,21.937z"/>
	</g>
	<g>
		<path fill="#FCB033" d="M14.064,21.937c0,0.272-0.222,0.493-0.493,0.493c-0.274,0-0.497-0.221-0.497-0.493
			c0-0.275,0.223-0.496,0.497-0.496C13.843,21.44,14.064,21.661,14.064,21.937z"/>
	</g>
	<g>
		<path fill="#FCB033" d="M6.799,20.173c0,0.275-0.222,0.498-0.495,0.498s-0.495-0.223-0.495-0.498c0-0.271,0.222-0.493,0.495-0.493
			S6.799,19.901,6.799,20.173z"/>
	</g>
	<g>
		<path fill="#FCB033" d="M8.615,20.173c0,0.275-0.221,0.498-0.494,0.498c-0.274,0-0.496-0.223-0.496-0.498
			c0-0.271,0.222-0.493,0.496-0.493C8.395,19.68,8.615,19.901,8.615,20.173z"/>
	</g>
	<g>
		<path fill="#FCB033" d="M10.432,20.173c0,0.275-0.221,0.498-0.496,0.498c-0.271,0-0.494-0.223-0.494-0.498
			c0-0.271,0.223-0.493,0.494-0.493C10.211,19.68,10.432,19.901,10.432,20.173z"/>
	</g>
	<g>
		<path fill="#FCB033" d="M12.248,20.173c0,0.275-0.223,0.498-0.494,0.498c-0.274,0-0.496-0.223-0.496-0.498
			c0-0.271,0.222-0.493,0.496-0.493C12.025,19.68,12.248,19.901,12.248,20.173z"/>
	</g>
	<g>
		<path fill="#FCB033" d="M14.064,20.173c0,0.275-0.222,0.498-0.493,0.498c-0.274,0-0.497-0.223-0.497-0.498
			c0-0.271,0.223-0.493,0.497-0.493C13.843,19.68,14.064,19.901,14.064,20.173z"/>
	</g>
	<g>
		<circle fill="#FCB033" cx="6.304" cy="18.413" r="0.495"/>
	</g>
	<g>
		<circle fill="#FCB033" cx="8.12" cy="18.413" r="0.495"/>
	</g>
	<g>
		<circle fill="#FCB033" cx="9.937" cy="18.413" r="0.495"/>
	</g>
	<g>
		<circle fill="#FCB033" cx="11.753" cy="18.413" r="0.495"/>
	</g>
	<g>
		<circle fill="#FCB033" cx="13.569" cy="18.413" r="0.495"/>
	</g>
	<path fill="#FCB033" d="M0.719,3.75C0.315,3.75,0,4.104,0,4.555v10.182c0,0.451,0.315,0.805,0.719,0.805s0.72-0.354,0.72-0.805
		V4.555C1.438,4.104,1.122,3.75,0.719,3.75z"/>
	<g>
		<path fill="#FCB033" d="M7.967,15.75c0,0.414-0.336,0.75-0.75,0.75H6.842c-0.414,0-0.75-0.336-0.75-0.75l0,0
			c0-0.414,0.336-0.75,0.75-0.75h0.375C7.631,15,7.967,15.336,7.967,15.75L7.967,15.75z"/>
		<path fill="#FCB033" d="M10.842,15.75c0,0.414-0.336,0.75-0.75,0.75H9.717c-0.414,0-0.75-0.336-0.75-0.75l0,0
			c0-0.414,0.336-0.75,0.75-0.75h0.375C10.506,15,10.842,15.336,10.842,15.75L10.842,15.75z"/>
		<path fill="#FCB033" d="M13.717,15.75c0,0.414-0.336,0.75-0.75,0.75h-0.375c-0.414,0-0.75-0.336-0.75-0.75l0,0
			c0-0.414,0.336-0.75,0.75-0.75h0.375C13.381,15,13.717,15.336,13.717,15.75L13.717,15.75z"/>
	</g>
</g>
</svg>
