<?xml version="1.0" encoding="utf-8"?>
<!-- Generator: Adobe Illustrator 16.0.0, SVG Export Plug-In . SVG Version: 6.00 Build 0)  -->
<!DOCTYPE svg PUBLIC "-//W3C//DTD SVG 1.1//EN" "http://www.w3.org/Graphics/SVG/1.1/DTD/svg11.dtd">
<svg version="1.1" id="Layer_1" xmlns="http://www.w3.org/2000/svg" xmlns:xlink="http://www.w3.org/1999/xlink" x="0px" y="0px"
	 width="24.333px" height="16.969px" viewBox="0 0 24.333 16.969" enable-background="new 0 0 24.333 16.969" xml:space="preserve">
<g id="Layer_2" display="none">
	<g display="inline">
		<path fill="#FCB033" d="M81.734-113.915c1.601,0.229,1.66,0.294,1.937,1.875c0.238,1.376,0.481,2.752,0.727,4.129
			c0.334,1.887-0.188,2.743-2.029,3.331c-0.512,2.644-1.092,3.253-3.01,3.172c-1.678-0.07-2.311-0.835-2.563-3.224
			c-1.217,0-2.455,0-3.69,0c-1.218,0-2.435,0-3.362,0c-0.498,1.02-0.759,2.006-1.375,2.645c-0.429,0.44-1.354,0.546-2.056,0.546
			c-1.615-0.001-2.213-0.823-2.429-3.061c-0.467-0.236-0.987-0.406-1.391-0.727c-0.73-0.588-0.941-1.412-0.773-2.332
			c0.271-1.491,0.543-2.981,0.808-4.477c0.278-1.584,0.334-1.643,1.897-1.875c0.142-1.043,0.228-2.108,0.438-3.148
			c0.461-2.288,2.348-3.99,4.674-4.091c2.316-0.101,4.646-0.119,6.961-0.014c2.767,0.125,4.727,2.123,5.008,4.893
			C81.575-115.507,81.65-114.739,81.734-113.915z M79.627-113.88c0.213-3.413-1.111-5.618-3.75-5.199
			c-0.203,1.612-0.385,1.771-2.021,1.773c-0.416,0.004-0.832,0.001-1.248,0.001c-1.938-0.001-1.948-0.014-2.348-1.834
			c-2.8-0.211-3.854,1.938-3.716,5.259C70.909-113.88,75.27-113.88,79.627-113.88z M65.956-110.64
			c-1.062,0.006-1.941,0.876-1.953,1.922c-0.01,1.057,0.953,1.99,2.018,1.96c1.039-0.029,1.914-0.943,1.896-1.981
			C67.896-109.794,67.018-110.645,65.956-110.64z M80.191-110.642c-1.062,0.017-1.924,0.893-1.916,1.944
			c0.007,1.043,0.896,1.932,1.937,1.938c1.076,0.005,2.006-0.941,1.973-2.006C82.146-109.818,81.258-110.657,80.191-110.642z"/>
	</g>
	<g display="inline">
		<path fill="#FCB033" d="M86.5-100.688c-0.275,0-0.5-0.224-0.5-0.5v-14c0-0.275,0.225-0.5,0.5-0.5c0.272,0,0.5,0.225,0.5,0.5v14
			C87-100.911,86.775-100.688,86.5-100.688z"/>
	</g>
	<g display="inline">
		<path fill="#FCB033" d="M88.5-100.688c-0.275,0-0.5-0.224-0.5-0.5v-14c0-0.275,0.225-0.5,0.5-0.5c0.272,0,0.5,0.225,0.5,0.5v14
			C89-100.911,88.775-100.688,88.5-100.688z"/>
	</g>
	<g display="inline">
		<g>
			<path fill="#FCB033" d="M90.542-122.135c0,0.704-0.222,1.243-0.662,1.618c-0.438,0.373-1.064,0.56-1.881,0.56h-0.597v2.33h-1.389
				v-6.551h2.094c0.795,0,1.396,0.17,1.813,0.514C90.334-123.322,90.542-122.813,90.542-122.135z M87.402-121.094h0.457
				c0.429,0,0.748-0.087,0.959-0.255c0.214-0.17,0.318-0.414,0.318-0.737c0-0.326-0.089-0.566-0.269-0.722
				c-0.182-0.156-0.455-0.231-0.836-0.231H87.4v1.945H87.402z"/>
		</g>
	</g>
	<g display="inline">
		<path fill="#FCB033" d="M87.584-115.427c-3.312,0-6-2.691-6-6c0-3.31,2.688-6,6-6c3.309,0,6,2.69,6,6
			C93.584-118.119,90.893-115.427,87.584-115.427z M87.584-126.427c-2.758,0-5,2.242-5,5c0,2.757,2.242,5,5,5c2.756,0,5-2.243,5-5
			C92.584-124.185,90.34-126.427,87.584-126.427z"/>
	</g>
	<g display="inline">
		<path fill="#FCB033" d="M21-3.334v20.732c0,0.494-0.729,1.414-1.33,1.414H5.738C5.134,18.813,4,17.893,4,17.398V-3.334
			C4-3.85,5.189-4.188,5.738-4.188H19.67C20.219-4.188,21-3.849,21-3.334z M5,17.398c0,0.131,0.724,0.414,0.738,0.414H20
			c0,0,0-0.283,0-0.414V-3.334c0-0.137,0,0.146,0,0.146H5.738C5.558-3.188,5-3.471,5-3.334V17.398z"/>
	</g>
	<g display="inline">
		<path fill="#FCB033" d="M16.82-2.188H8.076C7.605-2.188,8-1.514,8-0.964V9.458c0,0.55-0.395,0.354,0.076,0.354h8.744
			C17.312,9.813,17,9.965,17,9.458V-0.964C17-1.471,17.313-2.188,16.82-2.188z M16.82,9.813h-0.608
			c-0.142-2-1.746-3.452-3.709-3.452c-1.965,0-3.571,1.452-3.711,3.452H8.076C7.924,9.813,8,9.573,8,9.458V-0.964
			c0-0.114-0.076-0.224,0.076-0.224h8.744C16.974-1.188,17-1.132,17-0.964V9.458C17,9.627,16.975,9.813,16.82,9.813z"/>
		<circle fill="#FCB033" cx="12.216" cy="3.371" r="1.984"/>
	</g>
	<g display="inline">
		<path fill="#FCB033" d="M7,9.813v-12h11v12H7z M8-2.188v12h9v-12H8z"/>
	</g>
	<rect x="7" y="8.813" display="inline" fill="#FCB033" width="11" height="1"/>
	<path display="inline" fill="#E7A723" d="M7.676,16.884v0.007l0.105-0.045c0.023-0.013,0.04-0.013,0.061-0.027
		c0.017-0.002,0.029-0.014,0.042-0.019l1.605-0.688l0.069-0.047c0.038-0.018,0.071-0.039,0.104-0.062l0.106-0.069L9.765,15.91
		c0.279-0.243,0.408-0.573,0.296-1.073c-0.083-0.354,0.111-0.455,0.431-0.503c1.073-0.146,2.146-0.188,3.219-0.063
		c0.996,0.11,1.014,0.117,0.988,1.104c-0.009,0.199,0.049,0.333,0.137,0.439l0.008,0.037l0.125,0.063
		c0.051,0.03,0.074,0.071,0.146,0.104c0.213,0.086,0.428,0.178,0.643,0.271l0.771,0.37c0.091,0.044,0.183,0.084,0.271,0.133
		c0.021,0.016,0.037,0.016,0.061,0.021l0.129,0.063l-0.008-0.02c0.313,0.104,0.508-0.039,0.709-0.328
		c1.105-1.594,0.344-3.825-1.557-4.359c-2.479-0.691-4.971-0.678-7.459-0.021c-0.484,0.131-0.903,0.379-1.254,0.735
		c-1.028,1.032-1.116,2.726-0.209,3.79C7.351,16.846,7.485,16.932,7.676,16.884z"/>
</g>
<g id="gym" display="none">
	<g display="inline">
		<path fill="#FCB033" d="M3.073,1.217l0.592,0.412c-4.084,8.995,1.83,13.951,1.891,14c0.104,0.084,0.228,0.125,0.351,0.125
			c0.163,0,0.323-0.072,0.435-0.207c0.194-0.238,0.158-0.591-0.082-0.786C6.041,14.58,1.048,10.338,4.601,2.281l1.546,1.077
			C6.244,3.427,6.355,3.46,6.467,3.46c0.175,0,0.349-0.083,0.458-0.24c0.177-0.252,0.114-0.6-0.139-0.777L3.901,0.431l-0.61-3.312
			C3.235-3.183,2.949-3.378,2.64-3.33C2.336-3.272,2.136-2.982,2.192-2.678L2.843,0.86C2.871,1.004,2.953,1.133,3.073,1.217z"/>
		<path fill="#FCB033" d="M22.579,13.697c0-2.928-2.381-5.352-5.31-5.352c-1.438,0-2.742,0.562-3.699,1.492l0.636-0.123L4.2,18.813
			H1.902c-0.31,0-0.559,0.19-0.559,0.5c0,0.313,0.25,0.5,0.559,0.5H3.02h7.544H22.02c0.311,0,0.561-0.188,0.561-0.5
			c0-0.31-0.25-0.5-0.561-0.5h-3.135C21.021,18.813,22.579,16.059,22.579,13.697z M11.837,18.813l1.587-1.392
			c0.607,0.646,1.385,1.392,2.246,1.392H11.837z M17.27,17.801c-1.24,0-2.344-0.55-3.107-1.406l2.389-2.388
			c0.22-0.219,0.22-0.571,0-0.791c-0.221-0.218-0.569-0.218-0.791,0l-1.87,1.871L13.67,11.5c0.729-1.236,2.063-2.076,3.6-2.076
			c2.313,0,4.191,1.879,4.191,4.188C21.461,15.922,19.581,17.801,17.27,17.801z"/>
		<path fill="#FCB033" d="M23.133,3.785l-0.744-0.744c-0.104-0.089-0.23-0.229-0.369-0.229h-5.588c-0.299,0-0.545,0.325-0.559,0.624
			c-0.017,0.298,0.209,0.602,0.506,0.628l0.945,0.108l1.549,0.623c0,0.006-0.004,0.014-0.004,0.02l-0.563,2.331
			c-0.072,0.3,0.11,0.604,0.414,0.676c0.045,0.011,0.088,0.017,0.131,0.017c0.252,0,0.479-0.172,0.543-0.43l0.521-2.188l0.869,0.344
			c0.064,0.025,0.135,0.039,0.205,0.039c0.082,0,0.164-0.019,0.236-0.054L23,4.712c0.172-0.08,0.289-0.242,0.313-0.427
			C23.346,4.096,23.273,3.909,23.133,3.785z"/>
	</g>
</g>
<g id="Layer_18" display="none">
</g>
<g id="concierge" display="none">
	<g display="inline">
		<path fill="#FCB033" d="M24.59,12.296c-0.146-2.653-1.307-5.254-3.109-7.194c-0.914-0.98-1.982-1.818-3.172-2.443
			c-0.582-0.307-1.188-0.561-1.813-0.762c-0.25-0.08-0.47-0.132-0.453-0.438c0.02-0.437,0.016-0.873,0.01-1.31
			c-0.004-0.391-0.014-0.545,0.264-0.82c0.184-0.183,0.313-0.418,0.33-0.678c0.055-0.647-0.535-1.1-1.07-1.323
			c-1.354-0.564-3-0.554-4.417-0.276c-0.6,0.113-1.249,0.323-1.683,0.768C9.034-1.728,9.072-1.03,9.545-0.616
			c0.179,0.156,0.408,0.227,0.403,0.5C9.94,0.27,9.937,0.656,9.941,1.042c0.003,0.263,0.098,0.585-0.219,0.674
			c-0.347,0.096-0.691,0.207-1.03,0.332C6.285,2.941,4.253,4.619,2.864,6.774C2.176,7.84,1.666,9.018,1.367,10.25
			c-0.146,0.602-0.242,1.217-0.292,1.835c-0.046,0.572-0.132,1.087-0.04,1.657c0.064,0.398,1.146,0.068,1.412,0.068
			c0.841,0,1.682,0,2.523,0c1.617,0,3.234,0,4.851,0c3.223,0,6.447,0.166,9.667,0.125c1.205-0.018,2.412,0.024,3.619,0.018
			c0.367-0.004,1.209,0.169,1.521-0.082c0.108-0.092,0.018-0.629,0.018-0.771C24.643,12.82,24.605,12.57,24.59,12.296
			C24.547,11.512,24.596,12.379,24.59,12.296z M15.271-1.426c-0.926,0.604-3.823,0.604-4.733,0
			C11.428-2.038,14.374-2.038,15.271-1.426z M14.418,1.146c0.041,0.319-0.246,0.234-0.459,0.21
			c-0.379-0.045-0.767-0.063-1.146-0.063c-0.356,0-0.713,0.016-1.069,0.05c-0.249,0.023-0.179-0.429-0.179-0.593
			c0.004-0.318,0.212-0.332,0.473-0.301c0.324,0.037,0.658,0.017,0.982,0.017c0.354,0,0.709,0.003,1.063,0
			C14.573,0.46,14.37,0.753,14.418,1.146C14.448,1.38,14.396,0.973,14.418,1.146z M22.875,12.566
			c-0.01,0.078-0.154,0.246-0.23,0.246c-0.191,0-0.387,0-0.58,0c-0.387,0-0.771,0-1.156,0c-0.838,0-1.674,0-2.512,0
			c-1.605,0-3.215,0-4.822,0c-3.233,0-6.458-0.101-9.692-0.125c-0.289-0.002-0.81-0.09-1.072-0.211
			c-0.22-0.104-0.058-0.638-0.032-0.808c0.113-0.715,0.294-1.431,0.548-2.106c0.471-1.254,1.2-2.403,2.109-3.391
			c1.767-1.908,4.24-3.034,6.829-3.208c2.793-0.188,5.592,0.917,7.612,2.837c0.896,0.854,1.617,1.876,2.136,3
			c0.269,0.581,0.481,1.232,0.647,1.85"/>
		<path fill="#FCB033" d="M20.604,8.546c-0.857-1.9-2.479-3.274-4.303-4.222c-0.867-0.452-1.783-0.618-2.496,0.211
			c-0.467,0.541-0.584,1.359-0.141,1.949c0.248,0.33,0.612,0.49,0.975,0.672c0.428,0.216,0.844,0.46,1.232,0.742
			c0.729,0.533,1.35,1.206,1.768,2.011c0.188,0.354,0.33,0.688,0.709,0.882c0.385,0.198,0.855,0.199,1.258,0.047
			C20.499,10.5,21.006,9.434,20.604,8.546C20.26,7.792,20.702,8.765,20.604,8.546z M19.072,9.719
			c-0.215,0.028-0.276-0.228-0.35-0.373c-0.147-0.295-0.318-0.577-0.513-0.845c-0.381-0.535-0.854-1.007-1.364-1.412
			c-0.474-0.368-0.982-0.682-1.513-0.961c-0.19-0.103-0.541-0.193-0.684-0.37c-0.172-0.216,0.145-0.537,0.342-0.589
			c0.416-0.11,1.104,0.439,1.443,0.646c0.537,0.327,1.049,0.7,1.508,1.131C18.277,7.255,20.374,9.552,19.072,9.719
			C18.9,9.741,19.293,9.691,19.072,9.719z"/>
		<rect x="1" y="14.813" fill="#FCB033" width="24" height="2"/>
	</g>
</g>
<g id="maid" display="none">
	<g display="inline">
		<g>
			<path fill="#FCB033" d="M9.823,19.107c0.415,0,0.753,0.31,0.812,0.705h4.647c0.057-0.396,0.395-0.705,0.809-0.705
				s0.756,0.31,0.813,0.705h4.937c-0.168-2.871-2.125-4.356-4.045-5.438c-0.191-0.104-0.262-0.317-0.351-0.61
				c-0.019-0.057-0.041-0.135-0.063-0.188c-0.258-0.082-0.834-0.119-1.266-0.146c-0.529-0.031-1.035-0.063-1.419-0.162l-1.706,3.146
				l-1.813-3.259c-0.294,0.099-0.697,0.188-1.232,0.305c-0.449,0.096-1.002,0.216-1.225,0.311c-0.03,0.051-0.071,0.144-0.099,0.198
				c-0.108,0.236-0.202,0.438-0.393,0.541c-2.39,1.287-4.243,2.509-4.401,5.312h5.184C9.07,19.416,9.411,19.107,9.823,19.107z
				 M16.09,16.698c0.455,0,0.822,0.366,0.822,0.821c0,0.453-0.367,0.821-0.822,0.821c-0.453,0-0.82-0.368-0.82-0.821
				S15.637,16.698,16.09,16.698z M9.823,16.698c0.454,0,0.823,0.366,0.823,0.821c0,0.453-0.369,0.821-0.823,0.821
				c-0.453,0-0.822-0.368-0.822-0.821S9.37,16.698,9.823,16.698z"/>
			<path fill="#FCB033" d="M10.886,2.691c-0.825,0.106-1.46,0.462-1.936,1.081C7.541,5.6,8.095,9.051,8.1,9.085l0.216,1.288
				c0.839,0.867,1.926,1.492,3.149,1.76c0.021,0.004,0.041,0.01,0.063,0.018c0.41,0.084,0.836,0.129,1.271,0.129
				c2.207,0,4.143-1.146,5.252-2.877l-0.061-0.697L17.684,5.16C13.932,4.731,11.475,3.115,10.886,2.691z M9.736,6.539
				c0-0.454,0.369-0.823,0.823-0.823c0.456,0,0.824,0.369,0.824,0.823s-0.368,0.822-0.824,0.822
				C10.104,7.362,9.736,6.993,9.736,6.539z M14.9,9.386c-1.315,0.829-2.896,0.835-4.174-0.063c-0.456-0.319,0.119-0.966,0.569-0.649
				c0.951,0.668,2.163,0.604,3.125-0.003C14.893,8.374,15.372,9.09,14.9,9.386z M14.898,7.362c-0.453,0-0.821-0.368-0.821-0.822
				s0.368-0.823,0.821-0.823c0.455,0,0.822,0.369,0.822,0.823S15.354,7.362,14.898,7.362z"/>
			<path fill="#FCB033" d="M6.666,7.186C6.901,7.803,7.237,8.459,7.709,9.15c0,0-1.083-6.465,3.288-6.875
				c0,0,2.685,2.113,7.058,2.52l0.33,3.87c0,0,0.193-0.32,0.4-0.877c0.27-0.727,0.563-1.859,0.479-3.216
				c-0.039-0.667-0.173-1.389-0.438-2.142c-0.193-0.541-0.459-1.099-0.813-1.665c0,0.07-0.002,0.144-0.002,0.214v0.2h-0.141H17.31
				h-0.595H8.88H8.288H7.721H7.623C7.474,1.343,7.154,1.722,6.856,2.291c-0.362,0.69-0.688,1.658-0.631,2.863
				C6.255,5.772,6.388,6.451,6.666,7.186z"/>
			<path fill="#FCB033" d="M7.865,0.333c0.001,0.059,0.001,0.116,0.003,0.172c0,0.094,0,0.188,0.002,0.282h0.265h0.62h0.679h6.729
				h0.68h0.619h0.156c0-0.151,0.006-0.302,0.006-0.454c0.002-0.034,0.002-0.067,0.002-0.104c0-0.094,0-0.188,0.004-0.284
				c0-0.091,0-0.182,0-0.272c-0.004-0.998-0.066-1.934-0.506-2.376c-0.191-0.198-0.457-0.293-0.806-0.293H9.171
				c-0.349,0-0.611,0.095-0.806,0.293C7.902-2.232,7.854-1.208,7.861-0.138c0,0.101,0.002,0.199,0.002,0.299
				C7.865,0.219,7.865,0.276,7.865,0.333z"/>
		</g>
	</g>
</g>
<g id="welcome_hamper-02" display="none">
	<g display="inline">
		<path fill="#FCB033" d="M12.969,16.656v0.271V16.656z"/>
		<polygon fill="#FCB033" points="10.26,16.656 10.26,16.928 10.261,16.656 		"/>
		<polygon fill="#FCB033" points="15.676,16.656 15.676,16.928 15.678,16.656 		"/>
		<path fill="#FCB033" d="M24.275,5.532l-0.383-0.384c-0.213-0.211-0.453-0.746-0.539-0.659L19.6,7.812H6.263L2.509,4.49
			C2.423,4.403,2.183,4.722,1.97,4.933L1.587,5.424C1.376,5.636,1.274,5.499,1.36,5.584l2.605,2.229H2.677
			C2.377,7.813,2,8.918,2,9.218v0.541c0,0.3,0.377,1.054,0.677,1.054h1.43l1.598,7.479c0.043,0.528,0.421,0.521,1.096,0.521h12.065
			c0.674,0,1.053-0.002,1.096-0.535l1.617-7.465h1.143c0.299,0,0.279-0.754,0.279-1.054V9.218c0-0.3,0.02-1.405-0.279-1.405H21.9
			l2.604-2.174C24.588,5.553,24.488,5.744,24.275,5.532z M9,16.656v-4.875c0-0.301,0.701-0.542,1-0.542s1,0.241,1,0.542v4.875
			c0,0.299-0.701,0.542-1,0.542S9,16.955,9,16.656z M12,16.656v-4.875c0-0.301,0.702-0.542,1-0.542c0.297,0,1,0.241,1,0.542v4.875
			c0,0.299-0.701,0.542-1,0.542S12,16.955,12,16.656z M15,16.656v-4.875c0-0.301,0.701-0.542,1-0.542s1,0.241,1,0.542v4.875
			c0,0.299-0.701,0.542-1,0.542S15,16.955,15,16.656z"/>
	</g>
</g>
<g id="pet_friendly">
	<g>
		<g>
			<path fill="#53682B" d="M18.32,16.261c-1.375,0.94-4.241-1.042-7.118-1.063c-2.875-0.021-5.823,1.968-7.149,1.063
				c-1.326-0.901,1.273-8.131,7.149-8.152C17.079,8.086,19.697,15.323,18.32,16.261z"/>
		</g>
		
			<ellipse transform="matrix(-0.1382 -0.9904 0.9904 -0.1382 -4.8954 11.4003)" fill="#53682B" cx="2.512" cy="7.83" rx="3.433" ry="2.49"/>
		
			<ellipse transform="matrix(-0.0556 -0.9985 0.9985 -0.0556 4.2755 11.65)" fill="#53682B" cx="7.647" cy="3.803" rx="3.434" ry="2.49"/>
		
			<ellipse transform="matrix(0.2219 -0.9751 0.9751 0.2219 7.6924 16.4265)" fill="#53682B" cx="14.138" cy="3.394" rx="3.433" ry="2.491"/>
		
			<ellipse transform="matrix(0.5994 -0.8005 0.8005 0.5994 3.2807 18.6347)" fill="#53682B" cx="20.257" cy="6.04" rx="3.432" ry="2.49"/>
	</g>
</g>
<g id="welcome_hamper-01" display="none">
	<g display="inline">
		<path fill="#FCB033" d="M12.605,17.146v0.328V17.146z"/>
		<polygon fill="#FCB033" points="9.322,17.146 9.322,17.475 9.323,17.146 		"/>
		<polygon fill="#FCB033" points="15.889,17.475 15.889,17.146 15.889,17.146 		"/>
		<path fill="#FCB033" d="M24.424,7.813H21.79h-0.845c-0.313-5-4.114-8.126-8.75-8.126c-4.638,0-8.438,3.126-8.752,8.126H3.092
			H0.129C-0.234,7.813,0,7.766,0,8.129v0.656c0,0.363-0.234,0.026,0.129,0.026h1.733l1.938,9.71
			c0.052,0.646,0.511,1.289,1.328,1.289h14.626c0.813,0,1.272-0.649,1.326-1.303l1.961-9.7h1.381C24.788,8.813,25,9.148,25,8.785
			V8.129C25,7.766,24.788,7.813,24.424,7.813z M9,17.146v-5.91c0-0.361,0.638-0.655,1-0.655s1,0.294,1,0.655v5.91
			c0,0.359-0.638,0.653-1,0.653S9,17.51,9,17.146z M12,17.146v-5.91c0-0.361,0.639-0.655,1-0.655c0.358,0,1,0.294,1,0.655v5.91
			c0,0.359-0.642,0.653-1,0.653C12.639,17.802,12,17.51,12,17.146z M17,17.146c0,0.359-0.64,0.653-1,0.653c-0.363,0-1-0.294-1-0.653
			v-5.91c0-0.361,0.637-0.655,1-0.655c0.36,0,1,0.294,1,0.655V17.146z M12.195,0.343c4.265,0,7.765,3.469,8.093,7.469H4.102
			C4.431,3.813,7.931,0.343,12.195,0.343z"/>
	</g>
</g>
<g id="wlecome-provisions" display="none">
	<g display="inline">
		<path fill="#FCB033" d="M18.135-1.624c-0.006,0.003-0.012,0.015-0.018,0.019C18.448-1.608,18.127-1.619,18.135-1.624z"/>
		<path fill="#FCB033" d="M20.525-1.734C20.762-1.884,21-2.146,21-2.444V-2.93c0-0.464-0.621-1.258-1.086-1.258h-1.933
			C17.521-4.188,17-3.394,17-2.93v0.485c0,0.298,0.229,0.562,0.463,0.71c-0.273,0.419-0.521,1.033-0.793,1.729
			c-1.039-0.347-2.188-0.537-3.396-0.537c-2.758,0-4.944,1.212-5.985,2.25l0.073,0.067L2.423,6.5C1.97,7.063,1.501,7.7,1.501,8.381
			C1.501,9.268,2,10.266,3,11.025v4.57c0,1.396,1.168,2.217,2.325,2.217h6.384c0.104,0,0.197,0.275,0.291,0.435
			c0.184,0.299,0.41,0.688,0.852,0.798c0.389,0.096,0.801,0.333,1.229,0.333c2.031,0,4.234-1.563,5.521-2.563h1.518
			c0.996,0,1.883-1.168,1.883-2.164V5.981C23,5.562,21.721,0.095,20.525-1.734z M8.116,1.888l0.071-0.004
			c1.046-0.848,2.866-1.704,5.106-1.704c1.123,0,2.199,0.175,3.16,0.491c-0.547,1.524-1.025,3.27-1.281,4.338
			c-0.896-0.839-2.749-0.853-5.088-0.813c-0.515,0.01-1.048,0.019-1.592,0.019c-1.178,0-2.276,0.176-3.232,0.489L8.116,1.888z
			 M5.325,16.813C4.228,16.813,4,15.967,4,15.598v-5.031l-0.14-0.094C2.614,9.906,2.4,9.256,2.4,8.387
			c0-1.931,2.679-3.438,6.075-3.438c0.548,0,1.094,0.001,1.613-0.008c2.112-0.039,3.954-0.047,4.62,0.608
			C14.896,5.735,15,5.62,15,6.342v1.783c0-0.047-0.426-0.078-0.652-0.078c-1.367,0-2.842,0.865-3.471,1.701
			c-1.486,1.975-1.858,4.721-0.881,6.783c0.096,0.199,0.233,0.279,0.386,0.279L5.325,16.813L5.325,16.813z M19.092,15.939
			c-1.148,1.521-3.162,2.547-5.014,2.547c-0.369,0-0.726-0.041-1.058-0.121c-0.146-0.035-0.25-0.194-0.408-0.452
			c-0.133-0.218-0.326-0.462-0.563-0.64c0-0.002-0.051-0.004-0.051-0.006l-0.417-0.121l0.5,0.5c-0.192,0-0.539-0.859-0.723-0.938
			c-0.373-0.151-0.606-0.169-0.714-0.396c-0.855-1.806-0.511-4.435,0.802-6.178c0.512-0.679,1.761-1.39,2.888-1.39
			c0.209,0,0.4,0.038,0.576,0.09c0.332,0.099,0.566,0.474,0.842,0.897c0.154,0.242,0.313,0.494,0.511,0.721
			c0.133,0.154,0.271,0.281,0.409,0.385c0.396,0.286,0.877,0.413,1.345,0.535c0.498,0.13,0.969,0.255,1.188,0.553
			C20.008,13.033,19.807,14.993,19.092,15.939z M22,14.648c0,0.599-0.285,1.164-0.883,1.164h-1.091c0.56-1,0.601-3.117-0.239-4.271
			c-0.369-0.506-0.988-0.688-1.588-0.846c-0.334-0.088-0.677-0.191-0.947-0.342c0.008-0.03,0.02-0.066,0.021-0.102
			c0.013-0.426,1.356-0.834,2.56-0.863c0.199-0.008,0.356-0.162,0.354-0.361c-0.006-0.198-0.17-0.325-0.371-0.333
			c-0.188,0.006-0.646,0.032-1.151,0.12c0.004-0.412-0.336-0.934-0.771-1.352c-0.604-0.58-1.447-0.658-1.479-0.66l-0.451-0.035
			l0.057,0.441c0.004,0.036,0.115,0.877,0.717,1.457c0.229,0.218,0.459,0.392,0.684,0.515c-0.325,0.154-0.6,0.356-0.744,0.622
			c-0.104-0.145-0.063-0.296-0.153-0.448C16.316,9.047,16,8.745,16,8.508V5.981c0-0.842,1.428-7.168,2.117-7.168
			c-0.063,0-0.142,0-0.25,0l0,0l0.268-0.436L19-2.188h-1.133l0,0h0.114C17.92-2.188,18-2.379,18-2.444V-2.93
			c0-0.064-0.08-0.258-0.019-0.258h1.933C19.98-3.188,20-2.995,20-2.93v0.485c0,0.065-0.021,0.257-0.086,0.257H19v0.584
			c0,0,0.156-0.015,0.146-0.02C19.827-1.178,22,5.132,22,5.981V14.648z M18.07,8.945V8.666l0,0V8.945z M17.872,8.604
			c-0.166-0.076-0.396-0.227-0.64-0.459c-0.146-0.141-0.25-0.309-0.325-0.468c0.161,0.069,0.332,0.167,0.479,0.308
			C17.645,8.234,17.793,8.453,17.872,8.604z"/>
	</g>
	<path display="inline" fill="#FCB033" d="M6.367,3.156c-0.013,0.006-0.193-0.15,0.268-0.237c0.227-0.05,0.498-0.088,0.784-0.13
		c0.285-0.043,0.595-0.06,0.895-0.087L8.763,2.7c0.145,0.003,0.291-0.013,0.422,0.01c0.132,0.015,0.26,0.029,0.38,0.043
		c0.117,0.019,0.238,0.016,0.326,0.05c0.361,0.106,0.601,0.177,0.601,0.177S10.228,2.945,9.83,2.892
		C9.738,2.872,9.612,2.89,9.496,2.888C9.377,2.89,9.252,2.893,9.123,2.895C8.998,2.89,8.855,2.922,8.72,2.936L8.308,2.99
		c-0.277,0.062-0.549,0.107-0.8,0.178c-0.251,0.069-0.482,0.13-0.674,0.198C6.448,3.49,5.686,3.683,5.67,3.686L6.367,3.156z"/>
	<path display="inline" fill="#FCB033" d="M7.372,2.182C7.359,2.189,7.174,2.01,7.635,1.921c0.227-0.051,0.498-0.088,0.784-0.13
		C8.705,1.75,9.015,1.738,9.315,1.713L9.766,1.72c0.146,0.007,0.292-0.006,0.425,0.022c0.132,0.019,0.261,0.037,0.382,0.056
		c0.118,0.022,0.24,0.022,0.329,0.063c0.364,0.127,0.606,0.213,0.606,0.213s-0.266-0.113-0.667-0.182
		c-0.092-0.023-0.218-0.08-0.336-0.08c-0.119,0-0.244,0-0.374,0c-0.125,0-0.268,0.093-0.404,0.105L9.316,2.002
		c-0.277,0.063-0.549,0.127-0.799,0.2c-0.25,0.072-0.48,0.145-0.671,0.218C7.46,2.551,6.699,2.756,6.684,2.759L7.372,2.182z"/>
	<rect x="33" y="-23.138" display="inline" fill="#FCB033" width="7.666" height="6.899"/>
</g>
<g id="toiletries" display="none">
	<path display="inline" fill="#FCB033" d="M23.922,11.251l-0.846-1.146c0.377-0.246,1.063-0.799,1.2-1.63
		c0.089-0.521-0.051-1.043-0.405-1.562l0.051-0.037l-0.891-1.209C23.39,5.396,23.765,5.01,23.82,4.54
		c0.029-0.241-0.034-0.586-0.385-0.921l0.043-0.081l-9.041-4.656c-0.317-0.311-0.881-0.726-1.688-0.831
		c-1.098-0.144-2.271,0.323-3.498,1.386L2.275,3.368l0.066,0.117L2.3,3.432L0.47,4.826l1.732,1.015l-1.06,1.228
		c-0.085,0.099-0.122,0.23-0.1,0.358c0.021,0.13,0.099,0.242,0.212,0.307l0.65,0.374L0.47,9.201l1.732,1.015l-1.06,1.229
		c-0.085,0.1-0.123,0.229-0.101,0.354c0.021,0.132,0.099,0.24,0.212,0.31l0.65,0.373L0.47,13.576l6.194,3.632
		c0.172,0.128,3.231,2.399,6.204,2.397c1.055,0,2.1-0.285,2.998-1.06l6.961-3.922c0.051-0.022,1.264-0.646,1.452-1.774
		c0.087-0.521-0.051-1.045-0.407-1.563L23.922,11.251z M2.83,4.127L2.794,4.08l6.928-3.903l0.074-0.051
		c1.036-0.907,1.982-1.313,2.83-1.209c0.365,0.046,0.658,0.183,0.88,0.333l-0.055,0.107l0.461,0.237
		c0.063,0.072,0.102,0.124,0.104,0.131l0.063-0.043l8.721,4.492l-0.018,0.021c0.082,0.064,0.176,0.159,0.166,0.243
		c-0.027,0.236-0.527,0.636-0.984,0.857l-6.641,3.814c-2.893,2.537-8.08-1.313-8.176-1.379l-5.11-2.999L2.83,4.127z M2.725,8.583
		l8.192,4.729c0.069,0.039,0.145,0.06,0.22,0.06c0.15,0,0.298-0.078,0.378-0.22c0.122-0.209,0.049-0.479-0.16-0.603L2.149,7.24
		L2.97,6.291l3.694,2.165c0.174,0.132,3.258,2.421,6.213,2.421c1.045,0,2.074-0.286,2.951-1.057L21.102,6.8l0.789,1.114l-8.648,4.15
		c-0.217,0.104-0.309,0.367-0.203,0.582c0.072,0.16,0.229,0.25,0.396,0.25c0.063,0,0.127-0.018,0.188-0.043l9.113-4.375
		c0.117-0.057,0.203-0.16,0.234-0.285s0.008-0.258-0.066-0.363l-1.039-1.466l0.416-0.238l0.598,0.813l-0.065,0.068
		c0.468,0.476,0.672,0.919,0.604,1.322c-0.112,0.694-0.976,1.142-1,1.151L15.4,13.436l-0.073,0.051
		c-2.896,2.535-8.082-1.313-8.178-1.381l-5.11-3L2.725,8.583z M22.417,13.855l-7.019,3.955l-0.073,0.051
		c-2.896,2.533-8.081-1.313-8.177-1.383L2.037,13.48l0.688-0.521l8.192,4.729c0.069,0.041,0.145,0.062,0.22,0.062
		c0.15,0,0.298-0.076,0.378-0.222c0.122-0.209,0.049-0.478-0.16-0.598L2.15,11.615l0.821-0.948l3.694,2.163
		c0.172,0.132,3.231,2.4,6.203,2.4c1.055,0,2.1-0.285,3-1.06l5.262-2.966l0.766,1.079l-8.646,4.147
		c-0.22,0.104-0.312,0.364-0.205,0.584c0.076,0.156,0.229,0.248,0.396,0.248c0.063,0,0.127-0.015,0.188-0.043l9.115-4.375
		c0.113-0.058,0.199-0.16,0.232-0.285c0.029-0.125,0.008-0.26-0.064-0.359l-1.016-1.432l0.42-0.23l0.564,0.771l-0.066,0.065
		c0.467,0.478,0.672,0.919,0.604,1.321C23.303,13.396,22.443,13.843,22.417,13.855z"/>
</g>
<g id="phone" display="none">
	<g display="inline">
		<path fill="#FCB033" d="M7.963-3.927c0.008,0.009,0.05,0.083,0.072,0.188c0.03,0.104,0.075,0.232,0.121,0.36L8.86-1.391
			c0.183,0.456,0.374,0.933,0.573,1.4c0.076,0.188,0.084,0.333,0.09,0.429L9.7,0.963L9.573,1.155C9.5,1.572,9.299,1.925,8.952,2.254
			C7.724,3.427,7.724,3.427,8.828,4.807c1.381,1.738,3.032,3.319,5.045,4.837c0.297,0.222,0.428,0.254,0.477,0.254
			c0.037,0,0.121-0.068,0.217-0.229c0.604-0.958,1.393-1.453,2.344-1.476l0.039-0.046l0.629,0.07
			c0.104,0.021,0.215,0.046,0.324,0.086l0.105,0.014L21.754,9.8c0.063,0.021,0.115,0.046,0.145,0.058l0.699,0.457l0.08,0.129
			c0.232,0.371,0.234,0.804,0.205,1.136c-0.271,3.341-3.307,6.078-6.771,6.093h-0.074c-1.188,0-2.297-0.293-3.307-0.873
			C7.647,13.843,3.662,9.846,0.881,4.914c-1.09-1.94-1.172-4.205-0.229-6.215c0.942-2.001,2.801-3.431,4.979-3.824
			C6.263-5.24,6.76-5.199,7.155-4.975 M6.27-4.132c-0.137,0-0.287,0.018-0.452,0.047c-1.867,0.339-3.4,1.517-4.208,3.233
			C0.812,0.846,0.885,2.757,1.804,4.395c2.685,4.765,6.54,8.628,11.454,11.487c0.848,0.485,1.781,0.732,2.777,0.732v0.528
			l0.065-0.528c2.935-0.013,5.496-2.313,5.728-5.125c0.041-0.454-0.054-0.513-0.148-0.569l-0.414-0.173l-3.639-1.422
			c-0.137-0.039-0.197-0.054-0.258-0.064l-0.082-0.017l-0.172,0.017l-0.144-0.005c-0.418,0-0.97,0.112-1.517,0.977
			c-0.297,0.48-0.67,0.729-1.108,0.729c-0.429,0-0.804-0.229-1.106-0.462C11.15,8.919,9.437,7.276,8.002,5.47
			c-1.564-1.955-1.546-2.29,0.22-3.979c0.25-0.235,0.302-0.419,0.319-0.581l0.003-0.029L8.512,0.782
			C8.475,0.634,8.47,0.567,8.466,0.498C8.257-0.052,8.063-0.535,7.87-1.018L7.159-3.026c-0.054-0.152-0.107-0.305-0.15-0.459
			c0,0.003,0,0.005,0,0.005c-0.006,0-0.034-0.055-0.056-0.125L6.875-3.772C6.737-4.041,6.584-4.132,6.27-4.132z"/>
	</g>
</g>
<g id="car-park" display="none">
	<g display="inline">
		<path fill="#FCB033" d="M14.672,10.589c1.08,0.154,1.123,0.197,1.307,1.265c0.162,0.933,0.328,1.854,0.488,2.785
			c0.227,1.271-0.129,1.848-1.369,2.244c-0.344,1.783-0.732,2.193-2.027,2.141c-1.13-0.049-1.555-0.563-1.729-2.174
			c-0.821,0-1.656,0-2.49,0c-0.821,0-1.641,0-2.268,0c-0.336,0.688-0.511,1.354-0.928,1.781c-0.288,0.299-0.912,0.368-1.385,0.368
			c-1.089-0.001-1.492-0.556-1.637-2.063c-0.314-0.158-0.666-0.271-0.935-0.483C1.205,16.055,1.062,15.5,1.176,14.88
			c0.182-1.008,0.366-2.013,0.544-3.021C1.908,10.79,1.944,10.753,3,10.591c0.095-0.702,0.153-1.42,0.294-2.122
			c0.31-1.544,1.581-2.692,3.15-2.759c1.562-0.068,3.131-0.08,4.693-0.009C13,5.786,14.32,7.132,14.514,8.999
			C14.564,9.516,14.618,10.033,14.672,10.589z M13.252,10.611c0.145-2.301-0.75-3.786-2.527-3.504
			c-0.137,1.086-0.26,1.195-1.36,1.198c-0.281,0.002-0.562,0-0.842,0c-1.304,0-1.316-0.011-1.583-1.238
			c-1.886-0.142-2.599,1.307-2.503,3.544C7.375,10.611,10.315,10.611,13.252,10.611z M4.034,12.799
			c-0.714,0.002-1.311,0.59-1.317,1.294c-0.006,0.712,0.643,1.343,1.359,1.322c0.7-0.021,1.291-0.638,1.278-1.336
			C5.342,13.368,4.749,12.794,4.034,12.799z M13.633,12.796c-0.713,0.011-1.294,0.601-1.292,1.313
			c0.004,0.703,0.604,1.303,1.305,1.306c0.729,0.003,1.354-0.636,1.33-1.354C14.952,13.354,14.352,12.785,13.633,12.796z"/>
	</g>
	<g display="inline">
		<g>
			<path fill="#FCB033" d="M21.799,3.463c0,0.573-0.18,1.011-0.537,1.314c-0.359,0.305-0.867,0.454-1.527,0.454H19.25v1.895h-1.129
				V1.804h1.698c0.646,0,1.138,0.137,1.476,0.417C21.631,2.499,21.799,2.913,21.799,3.463z M19.25,4.31h0.371
				c0.348,0,0.604-0.07,0.776-0.206c0.172-0.138,0.261-0.337,0.261-0.601c0-0.266-0.07-0.46-0.218-0.585
				c-0.146-0.127-0.373-0.189-0.681-0.189h-0.51V4.31z"/>
		</g>
	</g>
	<g display="inline">
		<path fill="#FCB033" d="M19.502,9.396c-2.904,0-5.271-2.363-5.271-5.271c0-2.905,2.36-5.27,5.271-5.27
			c2.906,0,5.271,2.363,5.271,5.27S22.407,9.396,19.502,9.396z M19.502-0.265c-2.42,0-4.396,1.971-4.396,4.392
			c0,2.422,1.976,4.393,4.396,4.393s4.393-1.97,4.393-4.393C23.895,1.705,21.922-0.265,19.502-0.265z"/>
	</g>
	<g display="inline">
		<rect x="18" y="8.813" fill="#FCB033" width="2" height="10"/>
	</g>
</g>
<g id="nosmoking" display="none">
	<g display="inline">
		<path fill="#FCB033" d="M14.318,6.656L23.9-2.927c0.347-0.345,0.347-0.903,0-1.249c-0.344-0.346-0.901-0.346-1.246,0L13.07,5.407
			L3.488-4.175c-0.345-0.346-0.903-0.346-1.248,0c-0.345,0.345-0.345,0.903,0,1.249l9.582,9.583L2.24,16.24
			c-0.345,0.343-0.345,0.902,0,1.246c0.172,0.174,0.398,0.26,0.624,0.26c0.226,0,0.452-0.086,0.624-0.26l9.583-9.583l9.584,9.583
			c0.174,0.174,0.396,0.26,0.623,0.26s0.451-0.086,0.623-0.26c0.348-0.344,0.348-0.903,0-1.246L14.318,6.656z"/>
		<path fill="#FCB033" d="M20.311,5.933l0.381-0.12H2.251C1.571,5.813,1,6.849,1,7.526v0.93c0,0.706,0.603,1.356,1.251,1.356h13.526
			h0.748h3.771c0.111,0,0.228,0.058,0.332,0.058c0.109,0,0.226-0.058,0.33-0.058H21L20.62,9.775C21.021,9.639,21,9.271,21,8.869
			V6.98C21,6.478,20.816,5.962,20.311,5.933z M4,8.813v-2h12v2H4z M17,6.813h2.545c-0.021,0-1.42-0.375-1.545,0.168v1.89
			c0,0.05,1.521-0.058,1.531-0.058H17V6.813z M20,8.869c0,0.175-0.326,0.314-0.5,0.314S19,9.041,19,8.869V6.98
			c0-0.174,0.326-0.315,0.5-0.315S20,6.807,20,6.98V8.869z"/>
		<g>
			<path fill="#FCB033" d="M2.002,5.322C1.756,5.314,1.675,5.146,1.777,4.94C1.961,4.562,2.06,4.162,1.98,3.75
				C1.923,3.459,1.816,3.173,1.693,2.904C1.4,2.263,1.359,1.617,1.586,0.953c0.041-0.116,0.095-0.229,0.15-0.336
				C1.801,0.492,1.904,0.428,2.041,0.49C2.181,0.555,2.2,0.67,2.152,0.818C2.06,1.093,1.953,1.371,1.912,1.656
				c-0.065,0.44,0.092,0.845,0.29,1.235C2.47,3.424,2.54,3.985,2.395,4.563c-0.05,0.204-0.13,0.402-0.219,0.594
				C2.138,5.235,2.042,5.287,2.002,5.322z"/>
		</g>
		<g>
			<path fill="#FCB033" d="M0.771,4.451c-0.237,0-0.313-0.155-0.247-0.355c0.087-0.263,0.188-0.528,0.23-0.799
				C0.822,2.849,0.671,2.437,0.47,2.04C0.154,1.412,0.122,0.759,0.35,0.094c0.04-0.115,0.093-0.227,0.147-0.337
				c0.066-0.134,0.174-0.202,0.317-0.131C0.96-0.303,0.954-0.18,0.912-0.04C0.826,0.25,0.721,0.541,0.68,0.839
				C0.621,1.26,0.779,1.643,0.964,2.015C1.283,2.651,1.311,3.31,1.08,3.981c-0.039,0.115-0.089,0.23-0.155,0.333
				C0.882,4.38,0.803,4.424,0.771,4.451z"/>
		</g>
	</g>
</g>
<g id="flat-screen-tv" display="none">
	<g display="inline">
		<path fill="#FCB033" d="M25,16.813H0v-14h25V16.813z M1,15.813h23v-12H1V15.813z"/>
	</g>
	<g display="inline">
		<rect x="2" y="4.813" fill="#FCB033" width="21" height="10"/>
	</g>
	<g display="inline">
		<rect x="2" y="17.813" fill="#FCB033" width="21" height="1"/>
	</g>
</g>
<g id="cctv" display="none">
	<path display="inline" fill="#FCB033" d="M23.881,3.395L9.279-2.711C8.295-3.122,7.693-2.958,7.441-2.353L5.796,1.579
		C5.795,1.582,5.795,1.584,5.794,1.586L5.205,2.994C4.869,3.8,5.308,4.725,6.204,5.1l4.997,2.146L6,12.326V9.2
		C6,9,6.071,8.988,5.949,8.865C5.742,8.66,6.375,8.938,5.288,8.813H2.306c-0.165,0-0.684-0.151-0.833-0.004C1.321,8.961,1,9,1,9.2
		v8.206c0,0.308,0.642,1.404,1.357,1.404h2.931C5.849,18.813,6,17.938,6,17.406v-2.596h0.478c0.019,0,0.068-0.045,0.103-0.033
		c0.091,0.033,0.228,0.053,0.382,0.053c0.077,0,0.158-0.029,0.24-0.064c0.372-0.056,0.655-0.295,0.76-0.627l5.872-5.845l5.496,2.296
		c0.26,0.109,0.528,0.16,0.787,0.16c0.512,0,0.979-0.21,1.272-0.57l0.758,0.316l0.16,0.031c0.332,0,0.44-0.316,0.562-0.653
		c0.021-0.062,0.041-0.117,0.057-0.158l0.527-1.262c0.021-0.042,0.041-0.08,0.061-0.112c0.063-0.108,0.148-0.271,0.082-0.467
		L23.51,7.687L22.652,7.33l0.168-0.401c1.084-0.017,1.328-0.134,1.435-0.389l0.662-1.584C25.102,4.519,25.068,3.894,23.881,3.395z
		 M5,17.406c0,0.16,0.35-0.596,0.288,0.404H2.433C2.413,16.811,2,17.48,2,17.406V9.813h3.341C5.389,9.813,5,9.281,5,9.283v2.527
		H4.116C3.584,11.813,3,12.768,3,13.305v0.586c0,0.235,0.275,0.922,1.116,0.922H5V17.406z M7.254,13.749l-0.021,0.124
		c-0.003,0.023-0.017,0.104-0.172,0.117l-0.096,0.008L6.933,14.02c-0.026-0.009-0.058-0.063-0.082-0.078
		c-0.099-0.031-0.222-0.129-0.363-0.129h-0.22H5.497h-1.38C3.967,13.813,4,13.887,4,13.891v-0.586c0-0.169,0.076-0.492,0.116-0.492
		H6.55l5.554-5.408l0.961,0.482L7.254,13.749z M19.629,9.877L6.501,4.388C5.995,4.177,5.743,3.705,5.916,3.291l0.151-0.362
		c0.17,0.199,0.39,0.37,0.659,0.482l7.004,2.8c0.556,0.231,5.59,0.656,8.259,0.713L21.65,7.732l-0.519,1.232
		c0,0.004-0.004,0.008-0.004,0.011L20.889,9.55C20.723,9.951,20.157,10.098,19.629,9.877z M22.727,8.196l-0.51,1.223
		c-0.021,0.052-0.049,0.125-0.074,0.203c-0.004,0.01-0.008,0.021-0.012,0.03l-0.355-0.147c0.02-0.084,0.045-0.179,0.068-0.239
		l0.514-1.225L22.727,8.196z M24.208,4.658L23.6,6.107c-0.123,0.022-0.414,0.054-1.063,0.054c-2.688,0-8.064-0.504-8.519-0.663
		L7.018,2.697c-0.394-0.163-0.626-0.539-0.511-0.82L7.16,0.316l0,0l0.992-2.372C8.181-2.127,8.209-2.17,8.349-2.17
		c0.15,0,0.363,0.057,0.632,0.17l14.602,6.104C24.311,4.411,24.232,4.596,24.208,4.658z"/>
</g>
<g id="air-con" display="none">
	<g display="inline">
		<path fill="#FCB033" d="M24.645,12.438c-0.104,0.238-0.293,0.31-0.543,0.31c-7.854-0.002-15.706-0.002-23.559,0
			c-0.249,0-0.439-0.063-0.543-0.31c0-2.873,0-5.745,0-8.616c0.055-0.148,0.095-0.306,0.167-0.445
			c0.329-0.646,0.87-0.922,1.584-0.92c2.478,0.003,4.955,0,7.433,0c4.542,0,9.091-0.003,13.636,0.008
			c0.312,0,0.644,0.061,0.929,0.177c0.518,0.208,0.75,0.67,0.896,1.179C24.645,6.693,24.645,9.564,24.645,12.438z M23.43,3.389
			c0,0.16,0.006,0.271,0,0.382c-0.031,0.497-0.305,0.869-0.742,0.986c-0.158,0.042-0.332,0.051-0.498,0.051
			C15.611,4.811,9.037,4.811,2.46,4.81c-0.112,0-0.224-0.005-0.335-0.018C1.662,4.74,1.312,4.405,1.241,3.943
			C1.215,3.772,1.212,3.6,1.196,3.395C0.891,3.604,0.813,3.876,0.813,4.197c0.003,2.494,0.002,4.989,0.002,7.481
			c0,0.079,0,0.155,0,0.233c0.147,0,0.263,0,0.4,0c0-0.104,0-0.188,0-0.277c0-0.567-0.007-1.139,0.001-1.707
			c0.009-0.69,0.429-1.105,1.119-1.105c6.655-0.002,13.312-0.002,19.968,0c0.701,0,1.117,0.417,1.125,1.124
			c0.006,0.57,0.002,1.143,0.002,1.709c0,0.09,0,0.175,0,0.264c0.148,0,0.264,0,0.396,0c0-0.104,0-0.188,0-0.273
			c0-2.467,0-4.929,0-7.39c0-0.088,0.004-0.178-0.011-0.266C23.79,3.747,23.688,3.547,23.43,3.389z M1.774,3.277
			c0,0.204-0.013,0.381,0.003,0.554c0.023,0.251,0.189,0.4,0.441,0.427c0.08,0.008,0.16,0.006,0.241,0.006
			c6.576,0.001,13.152,0.001,19.73,0c0.097,0,0.211,0.026,0.283-0.018c0.142-0.086,0.317-0.191,0.366-0.328
			c0.068-0.191,0.033-0.418,0.045-0.641C15.827,3.277,8.813,3.277,1.774,3.277z M22.868,10.459c-7.039,0-14.057,0-21.089,0
			c0,0.178,0,0.341,0,0.516c7.036,0,14.056,0,21.089,0C22.868,10.802,22.868,10.645,22.868,10.459z M1.787,9.877
			c7.026,0,14.049,0,21.079,0c-0.021-0.38-0.199-0.521-0.64-0.521c-6.603,0-13.2,0-19.797,0c-0.088,0-0.177,0.002-0.263,0.021
			C1.905,9.43,1.785,9.592,1.787,9.877z M1.777,11.91c7.05,0,14.069,0,21.087,0c0-0.139,0-0.252,0-0.373c-7.037,0-14.058,0-21.087,0
			C1.777,11.667,1.777,11.783,1.777,11.91z"/>
		<path fill="#FCB033" d="M14.848,19.813c-0.289-0.013-0.385-0.207-0.264-0.444c0.215-0.444,0.33-0.912,0.233-1.396
			c-0.063-0.341-0.188-0.677-0.336-0.992c-0.342-0.75-0.396-1.508-0.123-2.285c0.05-0.137,0.104-0.27,0.177-0.396
			c0.071-0.146,0.194-0.221,0.354-0.146c0.164,0.076,0.188,0.212,0.129,0.387c-0.104,0.32-0.229,0.646-0.278,0.98
			c-0.076,0.519,0.106,0.988,0.34,1.446c0.313,0.623,0.396,1.281,0.229,1.959c-0.061,0.239-0.15,0.474-0.256,0.693
			C15.006,19.709,14.895,19.77,14.848,19.813z"/>
		<path fill="#FCB033" d="M12.385,19.809c-0.277,0-0.367-0.181-0.289-0.416c0.102-0.308,0.221-0.619,0.269-0.938
			c0.081-0.525-0.097-1.01-0.332-1.477c-0.372-0.733-0.407-1.502-0.141-2.279c0.046-0.137,0.109-0.268,0.171-0.395
			c0.078-0.156,0.203-0.236,0.373-0.154s0.164,0.229,0.113,0.394c-0.101,0.341-0.225,0.683-0.273,1.031
			c-0.067,0.491,0.117,0.94,0.336,1.378c0.373,0.746,0.406,1.52,0.137,2.305c-0.047,0.137-0.104,0.271-0.184,0.391
			C12.516,19.727,12.422,19.777,12.385,19.809z"/>
		<path fill="#FCB033" d="M12.343,7.729c0.386,0,0.771-0.006,1.156,0.002c0.271,0.006,0.436,0.229,0.289,0.402
			c-0.07,0.087-0.23,0.136-0.354,0.138c-0.738,0.015-1.477,0.008-2.215,0.008c-0.008,0-0.016,0-0.024,0
			c-0.187-0.006-0.373-0.028-0.375-0.271C10.819,7.77,10.997,7.73,11.187,7.73C11.573,7.728,11.958,7.729,12.343,7.729z"/>
		<path fill="#FCB033" d="M22.047,8.069c-0.104,0.065-0.195,0.172-0.303,0.188c-0.156,0.025-0.263-0.092-0.265-0.249
			c0-0.168,0.106-0.287,0.271-0.26c0.104,0.018,0.195,0.134,0.291,0.208C22.047,7.994,22.047,8.031,22.047,8.069z"/>
		<path fill="#FCB033" d="M20.801,8.055c-0.098,0.071-0.186,0.18-0.293,0.203c-0.154,0.033-0.262-0.084-0.271-0.236
			c-0.008-0.17,0.102-0.294,0.266-0.272c0.104,0.013,0.199,0.127,0.299,0.195C20.799,7.98,20.801,8.018,20.801,8.055z"/>
		<path fill="#FCB033" d="M9.925,19.813c-0.275-0.011-0.377-0.181-0.306-0.381C9.7,19.2,9.807,18.971,9.863,18.732
			c0.126-0.543,0.044-1.065-0.212-1.563c-0.358-0.687-0.506-1.396-0.314-2.155c0.057-0.229,0.155-0.451,0.244-0.674
			c0.066-0.167,0.189-0.275,0.375-0.193c0.196,0.086,0.195,0.254,0.109,0.427c-0.27,0.534-0.349,1.101-0.195,1.681
			c0.069,0.262,0.191,0.506,0.302,0.753c0.393,0.864,0.382,1.722-0.033,2.57C10.086,19.682,9.974,19.76,9.925,19.813z"/>
		<path fill="#FCB033" d="M14.848,19.813c-0.289-0.013-0.385-0.207-0.264-0.444c0.215-0.444,0.33-0.912,0.233-1.396
			c-0.063-0.341-0.188-0.677-0.336-0.992c-0.342-0.75-0.396-1.508-0.123-2.285c0.05-0.137,0.104-0.27,0.177-0.396
			c0.071-0.146,0.194-0.221,0.354-0.146c0.164,0.076,0.188,0.212,0.129,0.387c-0.104,0.32-0.229,0.646-0.278,0.98
			c-0.076,0.519,0.106,0.988,0.34,1.446c0.313,0.623,0.396,1.281,0.229,1.959c-0.061,0.239-0.15,0.474-0.256,0.693
			C15.006,19.709,14.895,19.77,14.848,19.813z"/>
		<path fill="#FCB033" d="M12.385,19.809c-0.277,0-0.367-0.181-0.289-0.416c0.102-0.308,0.221-0.619,0.269-0.938
			c0.081-0.525-0.097-1.01-0.332-1.477c-0.372-0.733-0.407-1.502-0.141-2.279c0.046-0.137,0.109-0.268,0.171-0.395
			c0.078-0.156,0.203-0.236,0.373-0.154s0.164,0.229,0.113,0.394c-0.101,0.341-0.225,0.683-0.273,1.031
			c-0.067,0.491,0.117,0.94,0.336,1.378c0.373,0.746,0.406,1.52,0.137,2.305c-0.047,0.137-0.104,0.271-0.184,0.391
			C12.516,19.727,12.422,19.777,12.385,19.809z"/>
	</g>
</g>
<g id="wi-fi" display="none">
	<g display="inline">
		<g>
			<g>
				<path fill="#FCB033" d="M4.812,18.979c-2.294,0-4.161-1.867-4.161-4.162c0-2.297,1.867-4.164,4.161-4.164
					c2.296,0,4.163,1.867,4.163,4.164C8.975,17.111,7.108,18.979,4.812,18.979z M4.812,12.011c-1.544,0-2.801,1.259-2.801,2.806
					c0,1.545,1.257,2.807,2.801,2.807c1.545,0,2.803-1.262,2.803-2.807C7.615,13.27,6.357,12.011,4.812,12.011z"/>
			</g>
		</g>
		<g>
			<g>
				<path fill="#FCB033" d="M17.822,19.813c-0.006,0-0.016,0-0.026,0h-3.215c-0.375,0-0.681-0.104-0.681-0.481
					c0-7.866-5.658-13.7-13.406-13.7C0.119,5.627,0,5.42,0,5.044V1.828c0-0.375,0.119-0.681,0.495-0.681
					c9.783,0,17.964,8.305,18.073,18.179c0.021,0.063-0.021-0.066-0.021,0C18.549,19.703,18.198,19.813,17.822,19.813z
					 M15.247,18.813h1.854C16.747,9.813,10,2.888,1,2.523v1.855C8,4.706,14.93,9.813,15.247,18.813z"/>
			</g>
		</g>
		<g>
			<g>
				<path fill="#FCB033" d="M24.127,19.813c-0.006,0-0.021,0-0.027,0h-3.213c-0.377,0-0.682-0.104-0.682-0.481
					c0-10.521-9.296-20.006-19.71-20.006C0.119-0.679,0-0.885,0-1.26v-3.217c0-0.375,0.119-0.68,0.495-0.68
					c13.886,0,24.28,10.512,24.376,24.484c0.02,0.063-0.021-0.067-0.021-0.001C24.854,19.703,24.502,19.813,24.127,19.813z
					 M21.555,18.813h1.855C23.086,5.813,13-3.456,1-3.788v1.859C12-1.532,21.165,7.813,21.555,18.813z"/>
			</g>
		</g>
	</g>
</g>
<g id="video-phone" display="none">
	<g display="inline">
		<path fill="#FCB033" d="M21-3.334v20.732c0,0.494-0.729,1.414-1.33,1.414H5.738C5.134,18.813,4,17.893,4,17.398V-3.334
			C4-3.85,5.189-4.188,5.738-4.188H19.67C20.219-4.188,21-3.849,21-3.334z M5,17.398c0,0.131,0.724,0.414,0.738,0.414H20
			c0,0,0-0.283,0-0.414V-3.334c0-0.137,0,0.146,0,0.146H5.738C5.558-3.188,5-3.471,5-3.334V17.398z"/>
	</g>
	<g display="inline">
		<path fill="#FCB033" d="M16.82-2.188H8.076C7.605-2.188,8-1.514,8-0.964V9.458c0,0.55-0.395,0.354,0.076,0.354h8.744
			C17.312,9.813,17,9.965,17,9.458V-0.964C17-1.471,17.313-2.188,16.82-2.188z M16.82,9.813h-0.608
			c-0.142-2-1.746-3.452-3.709-3.452c-1.965,0-3.571,1.452-3.711,3.452H8.076C7.924,9.813,8,9.573,8,9.458V-0.964
			c0-0.114-0.076-0.224,0.076-0.224h8.744C16.974-1.188,17-1.132,17-0.964V9.458C17,9.627,16.975,9.813,16.82,9.813z"/>
		<circle fill="#FCB033" cx="12.216" cy="3.371" r="1.984"/>
	</g>
	<g display="inline">
		<path fill="#FCB033" d="M7,9.813v-12h11v12H7z M8-2.188v12h9v-12H8z"/>
	</g>
	<rect x="7" y="8.813" display="inline" fill="#FCB033" width="11" height="1"/>
	<path display="inline" fill="#E7A723" d="M7.676,16.884v0.007l0.105-0.045c0.023-0.013,0.04-0.013,0.061-0.027
		c0.017-0.002,0.029-0.014,0.042-0.019l1.605-0.688l0.069-0.047c0.038-0.018,0.071-0.039,0.104-0.062l0.106-0.069L9.765,15.91
		c0.279-0.243,0.408-0.573,0.296-1.073c-0.083-0.354,0.111-0.455,0.431-0.503c1.073-0.146,2.146-0.188,3.219-0.063
		c0.996,0.11,1.014,0.117,0.988,1.104c-0.009,0.199,0.049,0.333,0.137,0.439l0.008,0.037l0.125,0.063
		c0.051,0.03,0.074,0.071,0.146,0.104c0.213,0.086,0.428,0.178,0.643,0.271l0.771,0.37c0.091,0.044,0.183,0.084,0.271,0.133
		c0.021,0.016,0.037,0.016,0.061,0.021l0.129,0.063l-0.008-0.02c0.313,0.104,0.508-0.039,0.709-0.328
		c1.105-1.594,0.344-3.825-1.557-4.359c-2.479-0.691-4.971-0.678-7.459-0.021c-0.484,0.131-0.903,0.379-1.254,0.735
		c-1.028,1.032-1.116,2.726-0.209,3.79C7.351,16.846,7.485,16.932,7.676,16.884z"/>
</g>
</svg>
