<?xml version="1.0" encoding="utf-8"?>
<!-- Generator: Adobe Illustrator 16.0.0, SVG Export Plug-In . SVG Version: 6.00 Build 0)  -->
<!DOCTYPE svg PUBLIC "-//W3C//DTD SVG 1.1//EN" "http://www.w3.org/Graphics/SVG/1.1/DTD/svg11.dtd">
<svg version="1.1" id="Layer_1" xmlns="http://www.w3.org/2000/svg" xmlns:xlink="http://www.w3.org/1999/xlink" x="0px" y="0px"
	 width="95px" height="95px" viewBox="0 0 95 95" enable-background="new 0 0 95 95" xml:space="preserve">
<g>
	<circle cx="47.821" cy="47" r="46.119"/>
	<path fill="#E7A723" d="M47.82,93.919C21.949,93.919,0.902,72.871,0.902,47S21.949,0.081,47.82,0.081
		c25.872,0,46.918,21.048,46.918,46.919S73.691,93.919,47.82,93.919z M47.82,1.681C22.832,1.681,2.501,22.011,2.501,47
		s20.33,45.318,45.319,45.318c24.991,0,45.321-20.329,45.321-45.318S72.811,1.681,47.82,1.681z"/>
</g>
<g>
	<path fill="#FFFFFF" d="M21.004,67.986v2.818h-1.153v-7.057h1.993c0.91,0,1.584,0.17,2.022,0.512s0.656,0.855,0.656,1.545
		c0,0.879-0.457,1.504-1.371,1.877l1.993,3.123h-1.313l-1.689-2.818H21.004z M21.004,67.029h0.801c0.537,0,0.926-0.1,1.168-0.299
		c0.241-0.198,0.362-0.494,0.362-0.888c0-0.399-0.13-0.686-0.391-0.858c-0.26-0.174-0.653-0.262-1.177-0.262h-0.763V67.029z"/>
	<path fill="#FFFFFF" d="M30.16,70.805h-3.991v-7.056h3.991v0.976h-2.838v1.92h2.659v0.965h-2.659v2.217h2.838V70.805z"/>
	<path fill="#FFFFFF" d="M35.753,68.889c0,0.627-0.227,1.12-0.681,1.478c-0.454,0.356-1.08,0.536-1.877,0.536
		c-0.797,0-1.451-0.125-1.959-0.373v-1.09c0.322,0.15,0.664,0.271,1.026,0.356c0.362,0.087,0.699,0.131,1.011,0.131
		c0.457,0,0.794-0.087,1.011-0.261c0.217-0.174,0.326-0.407,0.326-0.7c0-0.264-0.1-0.487-0.299-0.671
		c-0.2-0.184-0.611-0.4-1.236-0.65c-0.644-0.262-1.097-0.56-1.361-0.894c-0.264-0.335-0.396-0.737-0.396-1.207
		c0-0.589,0.209-1.052,0.627-1.39s0.98-0.508,1.685-0.508c0.676,0,1.348,0.148,2.017,0.444l-0.367,0.94
		c-0.627-0.264-1.187-0.396-1.679-0.396c-0.374,0-0.657,0.081-0.85,0.244c-0.193,0.162-0.29,0.377-0.29,0.645
		c0,0.184,0.039,0.341,0.116,0.471c0.077,0.131,0.205,0.254,0.381,0.369c0.177,0.115,0.496,0.269,0.956,0.459
		c0.518,0.216,0.898,0.417,1.139,0.604c0.241,0.188,0.418,0.397,0.531,0.633S35.753,68.57,35.753,68.889z"/>
	<path fill="#FFFFFF" d="M37.119,70.805v-7.056h1.153v7.056H37.119z"/>
	<path fill="#FFFFFF" d="M45.874,67.209c0,1.165-0.323,2.057-0.97,2.672c-0.646,0.616-1.578,0.924-2.794,0.924h-1.974v-7.056h2.181
		c1.123,0,1.997,0.302,2.621,0.907C45.562,65.261,45.874,66.111,45.874,67.209z M44.658,67.248c0-1.689-0.79-2.534-2.37-2.534
		h-0.999v5.121h0.82C43.808,69.835,44.658,68.973,44.658,67.248z"/>
	<path fill="#FFFFFF" d="M51.381,70.805H47.39v-7.056h3.991v0.976h-2.838v1.92h2.659v0.965h-2.659v2.217h2.838V70.805z"/>
	<path fill="#FFFFFF" d="M58.784,70.805H57.37l-3.47-5.621h-0.039l0.023,0.313c0.045,0.6,0.067,1.146,0.067,1.641v3.668h-1.048
		v-7.056h1.4l3.459,5.594h0.029c-0.007-0.073-0.02-0.344-0.038-0.809c-0.021-0.466-0.028-0.828-0.028-1.089v-3.696h1.057
		L58.784,70.805L58.784,70.805z"/>
	<path fill="#FFFFFF" d="M63.648,64.637c-0.662,0-1.185,0.235-1.563,0.705c-0.38,0.471-0.57,1.118-0.57,1.944
		c0,0.866,0.184,1.521,0.549,1.965c0.365,0.442,0.894,0.666,1.586,0.666c0.299,0,0.588-0.03,0.867-0.09
		c0.28-0.06,0.571-0.136,0.875-0.229v0.99c-0.555,0.209-1.182,0.313-1.884,0.313c-1.032,0-1.825-0.313-2.379-0.938
		c-0.554-0.626-0.83-1.521-0.83-2.688c0-0.732,0.136-1.375,0.403-1.926c0.27-0.55,0.656-0.971,1.165-1.264s1.104-0.439,1.791-0.439
		c0.721,0,1.387,0.151,1.998,0.455l-0.415,0.959c-0.238-0.111-0.49-0.211-0.756-0.297C64.221,64.68,63.941,64.637,63.648,64.637z"/>
	<path fill="#FFFFFF" d="M70.902,70.805h-3.991v-7.056h3.991v0.976h-2.838v1.92h2.658v0.965h-2.658v2.217h2.838V70.805z"/>
	<path fill="#FFFFFF" d="M76.496,68.889c0,0.627-0.227,1.12-0.682,1.478c-0.453,0.356-1.078,0.536-1.877,0.536
		c-0.797,0-1.451-0.125-1.959-0.373v-1.09c0.321,0.15,0.664,0.271,1.024,0.356c0.362,0.087,0.699,0.131,1.013,0.131
		c0.457,0,0.793-0.087,1.01-0.261c0.218-0.174,0.326-0.407,0.326-0.7c0-0.264-0.1-0.487-0.3-0.671c-0.198-0.184-0.61-0.4-1.235-0.65
		c-0.644-0.262-1.096-0.56-1.36-0.894c-0.265-0.335-0.396-0.737-0.396-1.207c0-0.589,0.209-1.052,0.627-1.39
		s0.979-0.508,1.685-0.508c0.676,0,1.349,0.148,2.019,0.444l-0.367,0.94c-0.627-0.264-1.188-0.396-1.68-0.396
		c-0.373,0-0.656,0.081-0.85,0.244c-0.193,0.162-0.29,0.377-0.29,0.645c0,0.184,0.039,0.341,0.116,0.471
		c0.076,0.131,0.203,0.254,0.382,0.369c0.177,0.115,0.495,0.269,0.955,0.459c0.518,0.216,0.897,0.417,1.139,0.604
		c0.242,0.188,0.419,0.397,0.531,0.633S76.496,68.57,76.496,68.889z"/>
</g>
<g>
	<path fill="#FFFFFF" d="M69.262,30.646c-1.14,0-2.064,0.774-2.064,1.733v7.704H27.484v-14.27c0-0.958-0.923-1.735-2.065-1.735
		c-1.14,0-2.065,0.777-2.065,1.735V47.02h4.13v-3.47h39.711v3.469h4.132v-14.64C71.327,31.421,70.404,30.646,69.262,30.646z"/>
</g>
<g>
	<circle fill="#FFFFFF" cx="32.76" cy="35.377" r="3.902"/>
</g>
<g>
	<path fill="#FFFFFF" d="M37.298,38.886L37.298,38.886c0-2.707,1.166-4.901,2.604-4.901h23.562c1.438,0,2.604,2.195,2.604,4.901l0,0
		"/>
</g>
<g display="none">
	<path display="inline" fill="#FFFFFF" d="M-145.875,5.888c0,0.95-0.345,1.691-1.034,2.222c-0.689,0.533-1.625,0.799-2.805,0.799
		c-1.279,0-2.264-0.165-2.953-0.496v-1.21c0.44,0.188,0.925,0.334,1.444,0.445c0.522,0.105,1.038,0.163,1.552,0.163
		c0.835,0,1.466-0.16,1.888-0.479c0.425-0.316,0.636-0.759,0.636-1.323c0-0.374-0.074-0.679-0.225-0.919
		c-0.151-0.239-0.402-0.459-0.754-0.661c-0.353-0.202-0.886-0.431-1.607-0.688c-1.004-0.356-1.721-0.784-2.152-1.277
		c-0.431-0.494-0.646-1.133-0.646-1.926c0-0.832,0.314-1.494,0.938-1.984c0.625-0.493,1.452-0.739,2.481-0.739
		c1.072,0,2.059,0.197,2.96,0.591l-0.392,1.092c-0.891-0.373-1.758-0.562-2.6-0.562c-0.665,0-1.184,0.143-1.557,0.428
		c-0.373,0.285-0.562,0.685-0.562,1.187c0,0.377,0.068,0.682,0.207,0.921c0.138,0.24,0.371,0.46,0.697,0.656
		c0.328,0.2,0.829,0.422,1.503,0.662c1.132,0.401,1.911,0.835,2.339,1.3C-146.088,4.55-145.875,5.152-145.875,5.888z"/>
	<path display="inline" fill="#FFFFFF" d="M-136.882,8.76l-1.343-3.431h-4.326l-1.329,3.431h-1.271l4.267-10.838h1.055l4.247,10.838
		H-136.882z M-138.619,4.196l-1.255-3.342c-0.161-0.426-0.33-0.941-0.502-1.558c-0.108,0.471-0.262,0.992-0.465,1.558l-1.269,3.342
		H-138.619z"/>
	<path display="inline" fill="#FFFFFF" d="M-134.099,8.76V-2.032h1.253v9.654h4.761V8.76H-134.099L-134.099,8.76z"/>
	<path display="inline" fill="#FFFFFF" d="M-120.235,8.76h-6.018V-2.032h6.018v1.115h-4.761V2.56h4.473v1.106h-4.473v3.973h4.761
		V8.76L-120.235,8.76z"/>
	<path display="inline" fill="#FFFFFF" d="M-111.75,5.888c0,0.95-0.345,1.691-1.034,2.222c-0.688,0.533-1.624,0.799-2.805,0.799
		c-1.281,0-2.265-0.165-2.953-0.496v-1.21c0.443,0.186,0.925,0.334,1.447,0.442s1.038,0.163,1.551,0.163
		c0.836,0,1.466-0.157,1.888-0.477c0.425-0.319,0.636-0.759,0.636-1.323c0-0.374-0.074-0.682-0.227-0.919
		c-0.149-0.239-0.4-0.462-0.751-0.661c-0.352-0.202-0.888-0.431-1.605-0.69c-1.005-0.356-1.723-0.781-2.153-1.274
		c-0.431-0.494-0.645-1.136-0.645-1.926c0-0.832,0.311-1.494,0.937-1.987c0.625-0.49,1.45-0.738,2.479-0.738
		c1.074,0,2.062,0.196,2.963,0.59l-0.392,1.095c-0.893-0.376-1.758-0.564-2.6-0.564c-0.665,0-1.184,0.146-1.557,0.428
		c-0.374,0.288-0.562,0.685-0.562,1.189c0,0.374,0.068,0.682,0.208,0.921c0.139,0.237,0.371,0.457,0.698,0.656
		c0.326,0.2,0.828,0.419,1.503,0.662c1.131,0.401,1.912,0.832,2.337,1.297C-111.964,4.55-111.75,5.152-111.75,5.888z"/>
	<path display="inline" fill="#FFFFFF" d="M-102.295,8.76h-1.253v-9.677h-3.417v-1.115h8.091v1.115h-3.421V8.76z"/>
	<path display="inline" fill="#FFFFFF" d="M-91.233,8.76h-6.018V-2.032h6.018v1.115h-4.763V2.56h4.473v1.106h-4.473v3.973h4.763
		V8.76z"/>
	<path display="inline" fill="#FFFFFF" d="M-82.057,8.76l-1.345-3.431h-4.327l-1.328,3.431h-1.271l4.268-10.838h1.057l4.245,10.838
		H-82.057z M-83.792,4.196l-1.255-3.342c-0.16-0.426-0.33-0.941-0.502-1.558c-0.108,0.471-0.264,0.992-0.463,1.558l-1.27,3.342
		H-83.792z"/>
	<path display="inline" fill="#FFFFFF" d="M-74.497,8.76l-3.662-9.568h-0.06c0.068,0.759,0.104,1.66,0.104,2.704V8.76h-1.161V-2.032
		h1.891l3.419,8.904h0.059l3.447-8.904h1.875V8.76h-1.256V1.807c0-0.799,0.036-1.665,0.105-2.598h-0.06l-3.691,9.551H-74.497z"/>
</g>
<g>
	<circle cx="47.821" cy="47" r="46.119"/>
	<path fill="#E7A723" d="M47.82,93.919C21.949,93.919,0.902,72.871,0.902,47S21.949,0.081,47.82,0.081
		c25.872,0,46.918,21.048,46.918,46.919S73.691,93.919,47.82,93.919z M47.82,1.681C22.832,1.681,2.501,22.011,2.501,47
		s20.33,45.318,45.319,45.318c24.991,0,45.321-20.329,45.321-45.318S72.811,1.681,47.82,1.681z"/>
</g>
<g>
	<path fill="#FFFFFF" d="M69.262,30.646c-1.14,0-2.064,0.774-2.064,1.733v7.704H27.484v-14.27c0-0.958-0.923-1.735-2.065-1.735
		c-1.14,0-2.065,0.777-2.065,1.735V47.02h4.13v-3.47h39.711v3.469h4.132v-14.64C71.327,31.421,70.404,30.646,69.262,30.646z"/>
</g>
<g>
	<circle fill="#FFFFFF" cx="32.76" cy="35.377" r="3.902"/>
</g>
<g>
	<path fill="#FFFFFF" d="M37.298,38.886L37.298,38.886c0-2.707,1.166-4.901,2.604-4.901h23.562c1.438,0,2.604,2.195,2.604,4.901l0,0
		"/>
</g>
<g>
	<path fill="#FFFFFF" d="M20.541,67.877v2.852h-1.167V63.59h2.017c0.921,0,1.603,0.173,2.046,0.518
		c0.443,0.346,0.664,0.866,0.664,1.563c0,0.889-0.462,1.522-1.387,1.899l2.017,3.159h-1.328l-1.709-2.852H20.541z M20.541,66.91
		h0.811c0.543,0,0.938-0.101,1.182-0.303c0.244-0.201,0.366-0.501,0.366-0.898c0-0.403-0.132-0.693-0.396-0.869
		s-0.661-0.264-1.191-0.264h-0.771V66.91z"/>
	<path fill="#FFFFFF" d="M29.803,70.729h-4.038V63.59h4.038v0.986h-2.871v1.943h2.69v0.977h-2.69v2.241h2.871V70.729z"/>
	<path fill="#FFFFFF" d="M35.462,68.79c0,0.635-0.229,1.133-0.688,1.494s-1.092,0.542-1.899,0.542s-1.468-0.125-1.982-0.376v-1.104
		c0.326,0.153,0.671,0.273,1.038,0.361s0.707,0.132,1.023,0.132c0.462,0,0.803-0.088,1.023-0.264s0.33-0.411,0.33-0.708
		c0-0.267-0.101-0.493-0.303-0.679s-0.619-0.405-1.25-0.659c-0.651-0.264-1.11-0.564-1.377-0.903c-0.267-0.338-0.4-0.745-0.4-1.221
		c0-0.596,0.211-1.064,0.635-1.406s0.991-0.513,1.704-0.513c0.684,0,1.364,0.15,2.041,0.449l-0.371,0.952
		c-0.635-0.267-1.201-0.4-1.699-0.4c-0.377,0-0.664,0.082-0.859,0.247c-0.195,0.164-0.293,0.382-0.293,0.651
		c0,0.186,0.039,0.345,0.117,0.477s0.207,0.256,0.386,0.373s0.501,0.272,0.967,0.464c0.524,0.219,0.908,0.422,1.152,0.61
		c0.244,0.189,0.423,0.402,0.537,0.64C35.405,68.188,35.462,68.468,35.462,68.79z"/>
	<path fill="#FFFFFF" d="M36.844,70.729V63.59h1.167v7.139H36.844z"/>
	<path fill="#FFFFFF" d="M45.702,67.091c0,1.179-0.327,2.079-0.981,2.703c-0.654,0.623-1.597,0.935-2.827,0.935h-1.997V63.59h2.207
		c1.136,0,2.02,0.307,2.651,0.918C45.386,65.12,45.702,65.981,45.702,67.091z M44.471,67.13c0-1.709-0.799-2.563-2.397-2.563h-1.011
		v5.181h0.83C43.612,69.747,44.471,68.875,44.471,67.13z"/>
	<path fill="#FFFFFF" d="M51.273,70.729h-4.039V63.59h4.039v0.986h-2.871v1.943h2.689v0.977h-2.689v2.241h2.871V70.729z"/>
	<path fill="#FFFFFF" d="M58.764,70.729h-1.432l-3.51-5.688h-0.039l0.023,0.317c0.046,0.605,0.068,1.159,0.068,1.66v3.711h-1.059
		V63.59h1.416l3.5,5.659h0.029c-0.006-0.074-0.02-0.348-0.039-0.817c-0.02-0.471-0.029-0.838-0.029-1.102v-3.74h1.07V70.729z"/>
	<path fill="#FFFFFF" d="M63.686,64.488c-0.671,0-1.198,0.238-1.582,0.713c-0.385,0.476-0.576,1.132-0.576,1.968
		c0,0.876,0.184,1.538,0.554,1.987s0.904,0.674,1.604,0.674c0.303,0,0.596-0.03,0.879-0.09c0.283-0.061,0.577-0.138,0.883-0.232
		v1.001c-0.56,0.212-1.194,0.317-1.904,0.317c-1.045,0-1.847-0.316-2.406-0.949c-0.561-0.634-0.84-1.539-0.84-2.718
		c0-0.742,0.135-1.392,0.407-1.948s0.665-0.982,1.179-1.279c0.515-0.296,1.119-0.444,1.813-0.444c0.729,0,1.402,0.153,2.021,0.459
		l-0.42,0.972c-0.241-0.113-0.496-0.214-0.765-0.3C64.264,64.531,63.981,64.488,63.686,64.488z"/>
	<path fill="#FFFFFF" d="M71.023,70.729h-4.037V63.59h4.037v0.986h-2.871v1.943h2.691v0.977h-2.691v2.241h2.871V70.729z"/>
	<path fill="#FFFFFF" d="M76.684,68.79c0,0.635-0.23,1.133-0.689,1.494s-1.092,0.542-1.898,0.542c-0.808,0-1.469-0.125-1.982-0.376
		v-1.104c0.325,0.153,0.671,0.273,1.037,0.361s0.707,0.132,1.023,0.132c0.462,0,0.803-0.088,1.022-0.264s0.329-0.411,0.329-0.708
		c0-0.267-0.101-0.493-0.303-0.679c-0.201-0.186-0.618-0.405-1.25-0.659c-0.65-0.264-1.109-0.564-1.377-0.903
		c-0.267-0.338-0.4-0.745-0.4-1.221c0-0.596,0.212-1.064,0.635-1.406c0.424-0.342,0.992-0.513,1.705-0.513
		c0.684,0,1.363,0.15,2.041,0.449l-0.371,0.952c-0.635-0.267-1.201-0.4-1.699-0.4c-0.378,0-0.664,0.082-0.859,0.247
		c-0.195,0.164-0.293,0.382-0.293,0.651c0,0.186,0.039,0.345,0.117,0.477s0.206,0.256,0.385,0.373
		c0.18,0.117,0.502,0.272,0.967,0.464c0.524,0.219,0.908,0.422,1.152,0.61c0.244,0.189,0.424,0.402,0.537,0.64
		C76.626,68.188,76.684,68.468,76.684,68.79z"/>
</g>
</svg>
