<?xml version="1.0" encoding="utf-8"?>
<!-- Generator: Adobe Illustrator 16.0.0, SVG Export Plug-In . SVG Version: 6.00 Build 0)  -->
<!DOCTYPE svg PUBLIC "-//W3C//DTD SVG 1.1//EN" "http://www.w3.org/Graphics/SVG/1.1/DTD/svg11.dtd">
<svg version="1.1" id="Layer_1" xmlns="http://www.w3.org/2000/svg" xmlns:xlink="http://www.w3.org/1999/xlink" x="0px" y="0px"
	 width="20px" height="20px" viewBox="0 0 20 20" enable-background="new 0 0 20 20" xml:space="preserve">
<g>
	<g>
		<path fill="#EA4D00" d="M9.825,0.244c0.281,0,0.565-0.015,0.846,0c5.388,0.315,8.729,3.582,9.109,8.848
			c0.03,0.454,0.028,0.913,0,1.366c-0.337,4.718-3.667,8.401-8.653,8.782c-2.107,0.162-3.999-0.358-5.466-1.172
			c-1.687,0.592-3.489,1.063-5.138,1.688c-0.023,0-0.043,0-0.065,0c0.466-1.768,1.153-3.313,1.626-5.069
			c-0.526-1.131-1.184-2.455-1.301-4.104C0.339,4.396,4.703,0.831,9.825,0.244z M9.956,17.679c4.51,0.193,7.776-3.219,8.194-7.021
			c0.476-4.263-2.572-8.456-7.156-8.784c-4.918-0.352-8.389,3.153-8.65,7.48c-0.132,2.16,0.638,3.614,1.497,5.138
			C3.495,15.406,3.235,16.4,2.865,17.29c1.092-0.229,1.997-0.646,3.058-0.909C7.27,17.136,8.243,17.605,9.956,17.679z"/>
	</g>
	<path fill="#EA4D00" d="M9.131,10.783c0.905,0.913,1.335,1.329,2.001,1.494c0.351,0.086,0.377,0.021,0.489-0.078
		c0.111-0.102,0.768-1.227,1.443-1.192c0.615,0.031,1.793,1.195,1.9,2.16c0.042,0.392-0.799,1.175-1.546,1.478
		c-0.646,0.268-1.33,0.279-2.179-0.168c-0.809-0.43-1.771-1.059-3.238-2.687c-1.465-1.629-1.99-2.651-2.331-3.501
		C5.321,7.401,5.41,6.729,5.743,6.11c0.381-0.705,1.253-1.453,1.638-1.369c0.95,0.21,1.986,1.507,1.949,2.118
		C9.291,7.535,8.1,8.063,7.986,8.164c-0.111,0.1-0.177,0.121-0.128,0.477C7.95,9.317,8.319,9.788,9.131,10.783z"/>
</g>
</svg>
