<?xml version="1.0" encoding="utf-8"?>
<!-- Generator: Adobe Illustrator 16.0.0, SVG Export Plug-In . SVG Version: 6.00 Build 0)  -->
<!DOCTYPE svg PUBLIC "-//W3C//DTD SVG 1.1//EN" "http://www.w3.org/Graphics/SVG/1.1/DTD/svg11.dtd">
<svg version="1.1" id="Layer_1" xmlns="http://www.w3.org/2000/svg" xmlns:xlink="http://www.w3.org/1999/xlink" x="0px" y="0px"
	 width="21.229px" height="14.381px" viewBox="0 0 21.229 14.381" enable-background="new 0 0 21.229 14.381" xml:space="preserve">
<g id="Layer_1_1_" display="none">
	<g display="inline">
		<path fill="#E7A723" d="M5.762,15.669c-3.344,0-6.066-2.719-6.066-6.063c0-3.342,2.729-6.063,6.066-6.063
			c0.939,0,1.842,0.209,2.68,0.622c0.265,0.127,0.365,0.44,0.238,0.698C8.555,5.124,8.24,5.232,7.982,5.103
			C7.29,4.761,6.544,4.588,5.762,4.588c-2.77,0-5.021,2.252-5.021,5.021c0,2.771,2.254,5.021,5.021,5.021
			c2.771,0,5.025-2.252,5.025-5.021c0-0.883-0.232-1.75-0.672-2.502c-0.146-0.25-0.063-0.568,0.188-0.713
			c0.25-0.144,0.568-0.061,0.713,0.189c0.531,0.916,0.813,1.964,0.813,3.024C11.83,12.953,9.107,15.669,5.762,15.669z"/>
	</g>
	<path display="inline" fill="#E7A723" d="M11.304,3.438c-0.229-0.177-0.558-0.135-0.733,0.091l-5.523,7.1L3.938,8.521
		C3.807,8.265,3.49,8.167,3.234,8.298c-0.255,0.135-0.353,0.449-0.22,0.703l1.479,2.826c0,0.002,0.002,0.002,0.004,0.004
		c0.027,0.063,0.078,0.119,0.137,0.166c0.012,0.01,0.027,0.012,0.039,0.021c0.016,0.01,0.029-0.08,0.045-0.069
		c0.076,0.038,0.168,0.061,0.25,0.061l-0.014-0.092c0.002,0,0.002,0,0.002,0c0.004,0,0.008,0.092,0.012,0.092
		c0.076-0.002,0.15,0.029,0.219-0.006c0.004,0,0.006,0.024,0.014,0.022c0.063-0.034,0.117-0.069,0.16-0.125
		c0.002-0.002,0.01,0.002,0.012,0l6.021-7.733C11.569,3.941,11.528,3.616,11.304,3.438z"/>
</g>
<g id="Layer_2" display="none">
	<path display="inline" fill="#EEA421" d="M-0.554,15.46c0-2.898,2.354-5.252,5.258-5.252c2.896,0,5.251,2.354,5.251,5.252"/>
	<circle display="inline" fill="#EEA421" cx="4.196" cy="5.917" r="2.375"/>
</g>
<g id="Layer_3" display="none">
	<g display="inline">
		<g>
			<path fill="#E7A723" d="M10.732,4.86c0,0.605-0.002,1.219,0,1.832c0.002,0.107-0.031,0.157-0.146,0.156
				c-0.613-0.002-1.229,0-1.947,0c0.229-0.215,0.367-0.373,0.535-0.504c0.199-0.156,0.135-0.25-0.025-0.392
				C7.143,4.177,4.061,4.344,2.281,6.334C1.473,7.233,1.057,8.289,1.02,9.494c-0.013,0.383-0.188,0.6-0.483,0.6
				c-0.313,0-0.491-0.229-0.487-0.629c0.021-2.826,2.269-5.324,5.076-5.66c1.813-0.22,3.398,0.283,4.759,1.508
				c0.137,0.123,0.209,0.133,0.33-0.006c0.14-0.163,0.304-0.307,0.46-0.458C10.676,4.844,10.691,4.851,10.732,4.86z"/>
			<path fill="#E7A723" d="M1.42,11.653c0.006,0.271-0.206,0.494-0.48,0.496c-0.271,0.002-0.497-0.229-0.495-0.489
				c0.009-0.252,0.227-0.476,0.479-0.484C1.187,11.162,1.415,11.376,1.42,11.653z"/>
			<path fill="#E7A723" d="M2.115,13.897c-0.269,0.008-0.5-0.229-0.508-0.487c-0.002-0.255,0.205-0.474,0.47-0.486
				c0.272-0.014,0.502,0.188,0.511,0.466C2.596,13.66,2.381,13.892,2.115,13.897z"/>
			<path fill="#E7A723" d="M9.688,13.897C9.42,13.89,9.209,13.658,9.219,13.38c0.012-0.271,0.234-0.475,0.514-0.459
				c0.264,0.018,0.473,0.236,0.461,0.488C10.189,13.675,9.949,13.908,9.688,13.897z"/>
			<path fill="#E7A723" d="M3.834,15.063c-0.271-0.006-0.482-0.235-0.479-0.514c0.016-0.271,0.23-0.479,0.517-0.466
				c0.259,0.019,0.466,0.229,0.465,0.479C4.333,14.835,4.094,15.069,3.834,15.063z"/>
			<path fill="#E7A723" d="M8.443,14.58c-0.004,0.269-0.23,0.494-0.5,0.485c-0.266-0.006-0.48-0.244-0.477-0.51
				c0.012-0.267,0.223-0.468,0.484-0.472C8.227,14.089,8.445,14.306,8.443,14.58z"/>
			<path fill="#E7A723" d="M5.904,15.466c-0.269,0.002-0.489-0.223-0.486-0.49c0.002-0.271,0.229-0.49,0.5-0.479
				c0.259,0.008,0.466,0.217,0.472,0.479C6.39,15.242,6.174,15.464,5.904,15.466z"/>
		</g>
		<path fill="#E7A723" d="M8.664,10.771l0.002-0.002l-0.064-0.021c-0.014-0.008-0.021-0.017-0.037-0.021
			c-0.008-0.002-0.018-0.008-0.021-0.01L7.58,10.333l-0.055-0.01c-0.021-0.008-0.047-0.014-0.064-0.018l-0.074-0.021L7.375,10.3
			c-0.225-0.018-0.412,0.07-0.574,0.328c-0.116,0.186-0.239,0.146-0.393,0.029c-0.52-0.389-0.981-0.82-1.388-1.324
			C4.656,8.875,4.649,8.865,5.073,8.46C5.158,8.378,5.192,8.3,5.2,8.216l0.013-0.02L5.185,8.121
			C5.178,8.083,5.186,8.056,5.168,8.015C5.115,7.888,5.063,7.759,5.011,7.63l-0.17-0.479C4.823,7.095,4.801,7.04,4.785,6.983
			C4.781,6.969,4.774,6.962,4.77,6.95L4.741,6.87L4.738,6.88C4.649,6.706,4.508,6.683,4.302,6.72
			C3.167,6.925,2.551,8.188,3.125,9.208c0.75,1.332,1.808,2.373,3.131,3.141c0.256,0.148,0.539,0.227,0.837,0.217
			c0.865-0.004,1.611-0.678,1.678-1.508C8.783,10.921,8.764,10.832,8.664,10.771z"/>
	</g>
</g>
<path fill="#057A7B" d="M20.935,6.271c0-3.41-4.641-6.174-10.359-6.174C4.848,0.097,0.21,2.861,0.21,6.271
	c0,3.41,4.639,6.175,10.356,6.175c1.021,0,1.996-0.09,2.93-0.252c0.798,1.373,2.478,2.039,4.039,1.511
	c0.437-0.147,0.813-0.379,1.146-0.664c-1.059-0.067-2.037-0.635-2.625-1.535C18.979,10.414,20.935,8.479,20.935,6.271z"/>
</svg>
