<?xml version="1.0" encoding="utf-8"?>
<!-- Generator: Adobe Illustrator 16.0.0, SVG Export Plug-In . SVG Version: 6.00 Build 0)  -->
<!DOCTYPE svg PUBLIC "-//W3C//DTD SVG 1.1//EN" "http://www.w3.org/Graphics/SVG/1.1/DTD/svg11.dtd">
<svg version="1.1" id="Layer_1" xmlns="http://www.w3.org/2000/svg" xmlns:xlink="http://www.w3.org/1999/xlink" x="0px" y="0px"
	 width="40px" height="40px" viewBox="0 0 40 40" enable-background="new 0 0 40 40" xml:space="preserve">
<g id="Layer_2">
	<path fill="#FCB033" d="M15.875,15.027c0.15-0.25,0.101-0.301-0.084-0.083c-1.177,1.387-4.443,5.563-4.593,8.278
		c-0.15,2.715,3.591,4.926,4.248,4.926C12.704,24.758,12.778,20.001,15.875,15.027L15.875,15.027L15.875,15.027L15.875,15.027z"/>
	<path fill="#FCB033" d="M38.32,1.858c-0.119,0.093-1.15,0.862-1.791,1.458c0.232,0,0.383,0.044,0.445,0.14
		c-0.516-0.258-1.295,0.429-1.602,0.811c-0.004,0.003,0.568-0.075,0.777,0.186c-1.113-0.324-1.807,0.57-2.025,0.818
		c0.26-0.024,0.674-0.08,0.959,0.205c-1.121-0.344-1.955,0.382-2.316,0.895c0.287-0.003,0.643,0.055,0.895,0.308
		c-1.211-0.491-2.289,0.674-2.674,1.143c0.428-0.199,0.945-0.132,1.621,0.197c-1.578-0.301-2.23,0.336-2.23,0.336
		s0.563-2.869,0.744-4.282c0.078-0.609-0.311-0.427-0.5-0.091c-0.625,1.115-1.199,1.371-1.596,2.361
		c0.363,0.365,0.76,1.007,0.68,2.101c-0.209-0.886-1.016-1.67-1.553-2.105c0.219-1.084-0.029-1.384,0.734-3.004
		C29.045,3,28.938,3.062,28.68,3.174c-0.822,0.324-1.672,1.309-2.049,2.191c-1.945-1.068-4.082-1.466-4.211-2.709
		c-0.057-0.544,0.836-1.053,2.715,0.04c-0.299-1.741-2.326-1.703-2.891-0.963c-0.809,1.117,0.424,2.84,1.822,4.069
		c-1.002-0.272-3.033-1.985-2.664-3.581c-0.291,0.631-0.162,1.474,0.184,1.926c-0.678,0-1.369-0.749-1.287-1.596
		c0.064-0.671,0.666-0.8,1.072-0.649c-0.037-0.502-0.666-0.835-1.156-0.38c-0.974,0.908,0.117,2.903,2.016,3.937
		c-0.479,0-1.104-0.309-1.615-0.694c-0.119,0.596,1.121,1.507,2.072,2.146c-1.967-0.697-3.631-2.274-3.475-3.813
		c-0.137,0.611-0.04,1.311,0.413,2.071C18.036,4.732,15.493,4.617,13,5.215c2.753-0.456,5.212,0.897,5.212,1.238
		c-0.736-0.288-4.623-1.66-8.696,0.592c0.349-0.443,1.045-0.933,1.604-1.223C10.417,6.116,9.9,6.407,9.373,6.821
		c-0.992,0.78-1.327,1.984,0.587,1.71c-0.754-0.32-0.995-1.049,0.357-1.542c2.323-0.843,4.729-0.385,5.867-0.058
		c-1.312,0.02-3.241,0.278-5.152,1.273c2.032-0.808,4.912-1.074,6.921-0.531c-1.012-0.004-1.858,0.102-2.596,0.277
		c1.24,0,2.775,0.105,3.77,0.651c-4.992-0.795-9.911,0.905-11.836,3.167c0.452-0.981,1.282-2.101,2.295-2.856
		c-3.019,1.581-3.942,4.89-5.875,4.422c0.899,1.104,2.481,0.043,3.411-0.643c1.379-1.017,3.2-1.783,5.443-1.943
		c-3.817,1.173-5.169,4.176-5.169,5.171c0.625-1.759,4.563-2.527,6.324-3.722c0,0-3.592,3.132-5.469,4.039
		c2.09-0.703,3.425-1.598,4.128-2.12c-2.168,3.053-6.508,3.237-9.241,4.83c-1.161,0.677-2.195,1.814-2.325,3.116
		c-0.673-1.605,0.469-3.449,3.693-4.606c-0.479,0.144-1.637,0.502-2.243,0.829c-2.955,1.593-2.669,3.91-1.112,5.626
		c-0.875-3.856,4.177-2.545,7.806-4.634c-2.479,3.109-5.193,3.132-5.125,1.964C2.723,22.621,4.054,23.496,6.022,23
		c-2.605,1-3.496,1.953-3.95,2.631c3.13-1.313,4.859-1.598,5.878-1.941c1.02-0.342,1.801-1.656,1.976-1.938
		c2.621-4.231,6.536-14.661,16.166-14.562c-0.049,0.242-0.264,0.935-0.264,1.432c0,0.694,0.273,0.928,1.029,0.824
		c0.326-0.044,0.654,0.281,0.936,0.692c0.33,0.483,0.521,0.939,0.826,1.338c-0.309-0.117-0.604-0.057-0.791,0.044
		c-0.129,0.07-0.098,0.194,0.018,0.208c0.34,0.042,0.504,0.158,0.701,0.426c0.314,0.431,0.148,0.795,0.047,0.693
		c-0.18-0.179-0.158-0.398-0.699-0.578c-0.67-0.225-1.141,0.29-1.566,0.29c0,0.611,0.564,0.995,1.012,1.084
		c0.447,0.089,0.916-0.131,1.139-0.131c0.182,0,0.539-0.125,0.787,0.415s2.271,4.259,3.668,6.006
		c0.309,0.384,0.891,0.545,0.957,1.028c-1.381-0.216-1.244,1.666-1.105,1.806c0.143,0.143,0.016,0.414-0.199,0.244
		c-0.611-0.477-0.816-1.658-1.506-2.311c-1.277-1.208-3.117-2.4-3.117-2.877c0.559,0.216,1.545,0.305,2.652,1.15
		c0-0.504-2.277-2.906-3.016-3.273c-0.736-0.366-1.434-0.378-2.338-1.918c-0.074,2.118,1.418,3.331,1.418,3.331
		s-2.129,1.417-3.34,0.205c-0.178,1.077,0.508,2.144,1.184,2.787c-2.174-0.862-3.564-3.566-1.459-8.32
		c0.145-0.329-0.025-0.47-0.271-0.256c-6.974,6.007-5.973,13.339-3.064,19.067c-0.759-0.152-1.595-0.424-2.483-0.441
		c0.918,0.861,2.756,1.973,4.379,4.357c0.945,1.389,1.66,3.123,2.176,5.488c1.414-8.273-5.111-10.34-3.178-18.699
		c0.041-0.188,0.135-0.188,0.143-0.004c0.152,4.484,3.813,7.16,3.813,12.242c2.326-5.6-0.34-11.531,0.383-13.298
		c0.189,0.042,0.277,0.061,0.414,0.082c1.869,1.523,3.941,1.883,5.068,3.012c0.4,0.58,0.34,1.332,0.736,1.803
		c0.277,0.328,1.15,0.273,1.711,0.029c0.527,0.346,1.088,0.105,1.729-0.24c0.34-0.18,0.488-0.854,1.063-1.713
		c0.273-0.406,0.516-1.795,0.291-2.322c-0.104-0.236-0.891-1.025-1.412-1.81c-1.066-1.596-1.928-3.224-2.088-3.778
		c-0.131-0.448-0.15-0.806-0.041-1.225c0.127-0.472,0.334-0.604,0.334-1.499c-0.102-0.422-0.762-0.886-1.047-1.271
		c-0.623-0.854-0.539-1.073-0.539-1.073s0.781-0.524,1.781-2.067c0.436-0.35,0.883-0.724,1.244-1.399
		c0.451-0.375,0.881-0.826,1.109-1.251c0.422-0.375,0.682-0.609,0.957-1.066c0.354-0.34,0.578-0.598,0.832-0.949
		c0.545-0.503,1.205-1.385,1.355-1.558C38.631,1.745,38.576,1.659,38.32,1.858L38.32,1.858L38.32,1.858L38.32,1.858z"/>
</g>
</svg>
