<?xml version="1.0" encoding="utf-8"?>
<!-- Generator: Adobe Illustrator 16.0.0, SVG Export Plug-In . SVG Version: 6.00 Build 0)  -->
<!DOCTYPE svg PUBLIC "-//W3C//DTD SVG 1.1//EN" "http://www.w3.org/Graphics/SVG/1.1/DTD/svg11.dtd" [
	<!ENTITY ns_flows "http://ns.adobe.com/Flows/1.0/">
	<!ENTITY ns_extend "http://ns.adobe.com/Extensibility/1.0/">
	<!ENTITY ns_ai "http://ns.adobe.com/AdobeIllustrator/10.0/">
	<!ENTITY ns_graphs "http://ns.adobe.com/Graphs/1.0/">
]>
<svg version="1.1" id="Layer_1" xmlns:x="&ns_extend;" xmlns:i="&ns_ai;" xmlns:graph="&ns_graphs;"
	 xmlns="http://www.w3.org/2000/svg" xmlns:xlink="http://www.w3.org/1999/xlink" xmlns:a="http://ns.adobe.com/AdobeSVGViewerExtensions/3.0/"
	 x="0px" y="0px" width="16.188px" height="9.584px" viewBox="0 0 16.188 9.584" enable-background="new 0 0 16.188 9.584"
	 xml:space="preserve">
<g id="close_icon" display="none">
	<g display="inline">
		<path d="M7.992-11.613c10.467,0,18.98,8.515,18.98,18.981c0,10.465-8.515,18.979-18.98,18.979c-10.467,0-18.98-8.515-18.98-18.979
			C-10.988-3.099-2.474-11.613,7.992-11.613 M7.992-12.613c-11.034,0-19.98,8.946-19.98,19.981c0,11.034,8.946,19.979,19.98,19.979
			s19.98-8.945,19.98-19.979C27.974-3.667,19.027-12.613,7.992-12.613L7.992-12.613z"/>
	</g>
	<g display="inline">
		<path d="M10.005,8.74C9.9,8.848,9.794,8.953,9.687,9.061C9.579,9.169,9.474,9.271,9.367,9.378
			c3.282,3.267,6.027,5.731,6.198,5.562S13.271,12.023,10.005,8.74z"/>
		<path d="M6.847,5.583C3.565,2.318,0.82-0.148,0.648,0.023s2.296,2.916,5.562,6.198c0.105-0.107,0.21-0.212,0.317-0.32
			C6.635,5.793,6.74,5.689,6.847,5.583z"/>
		<path d="M8.706,7.395c3.664-3.684,6.434-6.765,6.242-6.957C14.756,0.246,11.675,3.014,7.99,6.68
			C7.87,6.798,7.752,6.916,7.631,7.037S7.393,7.275,7.273,7.395c-3.666,3.685-6.433,6.766-6.24,6.958
			c0.191,0.192,3.272-2.578,6.958-6.243C8.11,7.993,8.228,7.876,8.349,7.755C8.47,7.633,8.587,7.516,8.706,7.395z"/>
	</g>
</g>
<g id="man_icon" display="none">
	<circle display="inline" fill="#E7A723" cx="8.23" cy="2.867" r="2.68"/>
	<path display="inline" fill="#E7A723" d="M15.73,15.188c-0.189-3.994-3.459-7.181-7.5-7.181s-7.311,3.187-7.5,7.181H15.73z"/>
</g>
<g id="Layer_3" display="none">
	<path display="inline" fill="#E7A723" d="M7.052,8.628c0.393,0.663,0.583,0.968,0.946,1.161c0.189,0.102,0.217,0.066,0.296,0.025
		c0.08-0.041,0.625-0.601,1.014-0.481c0.354,0.106,0.87,0.958,0.792,1.535c-0.031,0.231-0.636,0.567-1.113,0.634
		c-0.417,0.059-0.814-0.031-1.242-0.415c-0.409-0.368-0.877-0.875-1.492-2.037C5.635,7.887,5.479,7.216,5.405,6.672
		C5.329,6.104,5.479,5.726,5.762,5.416C6.088,5.06,6.706,4.752,6.915,4.857c0.522,0.262,0.937,1.166,0.826,1.518
		C7.62,6.761,6.849,6.895,6.769,6.937S6.647,6.981,6.624,7.195C6.579,7.603,6.724,7.931,7.052,8.628z"/>
	<g display="inline">
		<path fill="#E7A723" d="M2.716,7.23c0.01-2.818,2.436-5.103,5.44-5.103c0.86,0,1.674,0.193,2.396,0.528l0.795-0.805l0.624-0.633
			c-1.117-0.625-2.419-0.992-3.814-0.992c-4.126,0-7.473,3.136-7.471,7.005C0.688,8.879,2.71,8.719,2.716,7.23z"/>
		<polygon fill="#E7A723" points="10.263,2.983 9.432,3.879 11.794,4.415 12.152,4.497 14.154,4.95 13.517,2.896 13.437,2.639 
			12.721,0.327 11.718,1.41 11.078,2.103 		"/>
	</g>
	<circle display="inline" fill="#E7A723" cx="1.851" cy="10.279" r="0.894"/>
	<circle display="inline" fill="#E7A723" cx="3.271" cy="12.294" r="0.894"/>
	<circle display="inline" fill="#E7A723" cx="5.356" cy="13.598" r="0.894"/>
	<circle display="inline" fill="#E7A723" cx="8.042" cy="14.295" r="0.893"/>
	<circle display="inline" fill="#E7A723" cx="10.867" cy="13.678" r="0.894"/>
	<circle display="inline" fill="#E7A723" cx="13.047" cy="11.909" r="0.894"/>
</g>
<g id="Layer_4" display="none">
	<g display="inline">
		<path fill="#E7A723" d="M14.146,3.417c-0.336,0.385-0.65,0.906-1.229,1.438c0.716,0.96,0.625,2.083,0.575,2.917
			c-0.189,3.176-2.581,5.763-5.764,5.763s-5.763-2.581-5.763-5.763c0-3.183,2.581-5.763,5.763-5.763c1.66,0,2.949,0.318,4,1.44
			c0.622-0.434,1.11-0.798,1.527-1.086C11.832,0.722,10.072,0,7.729,0C3.437,0-0.042,3.479-0.042,7.771
			c0,4.292,3.479,7.771,7.771,7.771S15.5,12.063,15.5,7.771C15.5,5.877,15.271,4.766,14.146,3.417z"/>
		<path fill="#E7A723" d="M6.815,10.654c0.326,0.332,0.729,0.408,0.937,0.158l0.125-0.16C7.566,10.945,7.126,10.948,6.815,10.654z"
			/>
		<path fill="#E7A723" d="M9.801,5.985l-2.392,2.46l0.545,0.656C8.25,9.459,8.285,10.01,8.06,10.414l2.561-3.315
			c0.106-0.131,0.92-1.242,1.731-2.359c0.504-0.693,1.008-1.387,1.345-1.851C13.943,2.547,14.1,2.331,14.1,2.331
			s-0.195,0.163-0.503,0.419c-0.417,0.348-1.04,0.868-1.662,1.391C10.92,4.994,9.909,5.854,9.801,5.985z"/>
		<path fill="#E7A723" d="M4.747,6.705c-0.337,0.406-0.336,1.063,0,1.468l1.988,2.397c0.025,0.029,0.053,0.058,0.08,0.084
			c0.312,0.294,0.75,0.291,1.062-0.002C7.904,10.627,7.93,10.6,7.955,10.57c0.04-0.049,0.076-0.103,0.105-0.156
			c0.226-0.404,0.19-0.955-0.105-1.313L7.409,8.445l-1.444-1.74C5.628,6.3,5.082,6.3,4.747,6.705z"/>
	</g>
</g>
<g id="hamburger" display="none">
	<path display="inline" fill="#E7A723" d="M16.188,1.073c0,0.592-0.479,1.073-1.072,1.073H1.073C0.48,2.146,0,1.666,0,1.073l0,0
		C0,0.48,0.48,0,1.073,0h14.041C15.707,0,16.188,0.48,16.188,1.073L16.188,1.073z"/>
	<path display="inline" fill="#E7A723" d="M16.188,14.427c0,0.593-0.479,1.073-1.072,1.073H1.073C0.48,15.5,0,15.02,0,14.427l0,0
		c0-0.593,0.479-1.073,1.073-1.073h14.041C15.707,13.354,16.188,13.834,16.188,14.427L16.188,14.427z"/>
	<path display="inline" fill="#E7A723" d="M16.188,7.75c0,0.593-0.479,1.073-1.072,1.073H1.073C0.48,8.823,0,8.343,0,7.75l0,0
		C0,7.157,0.48,6.677,1.073,6.677h14.041C15.707,6.677,16.188,7.157,16.188,7.75L16.188,7.75z"/>
</g>
<g id="Layer_6">
	<polygon fill="#FFFFFF" points="8.111,8.93 4.043,4.602 -0.024,0.27 8.111,0.27 16.246,0.27 12.179,4.602 	"/>
</g>
</svg>
