<?xml version="1.0" encoding="utf-8"?>
<!-- Generator: Adobe Illustrator 16.0.0, SVG Export Plug-In . SVG Version: 6.00 Build 0)  -->
<!DOCTYPE svg PUBLIC "-//W3C//DTD SVG 1.1//EN" "http://www.w3.org/Graphics/SVG/1.1/DTD/svg11.dtd">
<svg version="1.1" id="Layer_1" xmlns="http://www.w3.org/2000/svg" xmlns:xlink="http://www.w3.org/1999/xlink" x="0px" y="0px"
	 width="25px" height="17.5px" viewBox="0 0 25 17.5" enable-background="new 0 0 25 17.5" xml:space="preserve">
<g id="Layer_2" display="none">
	<g display="inline">
		<path fill="#FCB033" d="M81.734-116.228c1.6,0.23,1.66,0.294,1.936,1.875c0.239,1.376,0.482,2.752,0.725,4.129
			c0.334,1.887-0.188,2.743-2.031,3.331c-0.51,2.644-1.09,3.253-3.008,3.172c-1.678-0.07-2.309-0.835-2.564-3.224
			c-1.217,0-2.455,0-3.689,0c-1.219,0-2.435,0-3.363,0c-0.498,1.02-0.758,2.006-1.375,2.645c-0.428,0.44-1.354,0.546-2.055,0.546
			c-1.615-0.001-2.213-0.823-2.43-3.061c-0.467-0.236-0.986-0.406-1.391-0.726c-0.729-0.588-0.941-1.412-0.773-2.332
			c0.271-1.492,0.543-2.982,0.809-4.477c0.277-1.584,0.334-1.642,1.896-1.875c0.143-1.043,0.229-2.108,0.438-3.148
			c0.461-2.288,2.348-3.991,4.675-4.091c2.315-0.101,4.645-0.119,6.961-0.014c2.765,0.125,4.724,2.123,5.008,4.893
			C81.574-117.819,81.65-117.052,81.734-116.228z M79.627-116.192c0.213-3.413-1.111-5.618-3.75-5.199
			c-0.202,1.612-0.385,1.771-2.018,1.774c-0.416,0.003-0.832,0.001-1.248,0.001c-1.937-0.001-1.951-0.014-2.348-1.834
			c-2.799-0.211-3.854,1.937-3.715,5.258C70.909-116.192,75.27-116.192,79.627-116.192z M65.955-112.952
			c-1.061,0.005-1.943,0.876-1.953,1.921c-0.01,1.057,0.953,1.991,2.016,1.96c1.039-0.029,1.914-0.943,1.896-1.981
			C67.896-112.106,67.018-112.957,65.955-112.952z M80.191-112.954c-1.063,0.016-1.924,0.892-1.916,1.944
			c0.007,1.043,0.896,1.932,1.937,1.937c1.075,0.005,2.006-0.941,1.97-2.005C82.146-112.131,81.258-112.97,80.191-112.954z"/>
	</g>
	<g display="inline">
		<path fill="#FCB033" d="M86.5-103c-0.275,0-0.5-0.224-0.5-0.5v-14c0-0.276,0.225-0.5,0.5-0.5s0.5,0.224,0.5,0.5v14
			C87-103.224,86.775-103,86.5-103z"/>
	</g>
	<g display="inline">
		<path fill="#FCB033" d="M88.5-103c-0.275,0-0.5-0.224-0.5-0.5v-14c0-0.276,0.225-0.5,0.5-0.5s0.5,0.224,0.5,0.5v14
			C89-103.224,88.775-103,88.5-103z"/>
	</g>
	<g display="inline">
		<g>
			<path fill="#FCB033" d="M90.541-124.447c0,0.705-0.221,1.244-0.662,1.619c-0.439,0.373-1.066,0.559-1.88,0.559h-0.597v2.33
				h-1.389v-6.551h2.094c0.795,0,1.396,0.17,1.813,0.514C90.334-125.635,90.541-125.125,90.541-124.447z M87.402-123.406h0.457
				c0.429,0,0.748-0.086,0.959-0.254c0.213-0.17,0.318-0.414,0.318-0.738c0-0.326-0.09-0.566-0.269-0.721
				c-0.181-0.156-0.456-0.232-0.836-0.232H87.4v1.945H87.402z"/>
		</g>
	</g>
	<g display="inline">
		<path fill="#FCB033" d="M87.584-117.74c-3.309,0-6-2.691-6-6c0-3.309,2.691-6,6-6s6,2.691,6,6
			C93.584-120.431,90.893-117.74,87.584-117.74z M87.584-128.74c-2.757,0-5,2.243-5,5c0,2.757,2.243,5,5,5s5-2.243,5-5
			C92.584-126.497,90.341-128.74,87.584-128.74z"/>
	</g>
	<g display="inline">
		<path fill="#FCB033" d="M21-5.647v20.733c0,0.494-0.727,1.414-1.33,1.414H5.738C5.134,16.5,4,15.58,4,15.086V-5.647
			C4-6.162,5.189-6.5,5.738-6.5H19.67C20.219-6.5,21-6.162,21-5.647z M5,15.086C5,15.217,5.724,15.5,5.738,15.5H20
			c0,0,0-0.283,0-0.414V-5.647C20-5.783,20-5.5,20-5.5H5.738C5.558-5.5,5-5.783,5-5.647V15.086z"/>
	</g>
	<g display="inline">
		<path fill="#FCB033" d="M16.82-4.5H8.076C7.605-4.5,8-3.826,8-3.277V7.146C8,7.695,7.605,7.5,8.076,7.5h8.744
			C17.313,7.5,17,7.653,17,7.146V-3.277C17-3.784,17.313-4.5,16.82-4.5z M16.82,7.5h-0.609c-0.141-2-1.746-3.452-3.711-3.452
			S8.929,5.5,8.789,7.5H8.076C7.924,7.5,8,7.261,8,7.146V-3.277C8-3.391,7.924-3.5,8.076-3.5h8.744C16.975-3.5,17-3.445,17-3.277
			V7.146C17,7.314,16.975,7.5,16.82,7.5z"/>
		<circle fill="#FCB033" cx="12.216" cy="1.058" r="1.984"/>
	</g>
	<g display="inline">
		<path fill="#FCB033" d="M7,7.5v-12h11v12H7z M8-4.5v12h9v-12H8z"/>
	</g>
	<rect x="7" y="6.5" display="inline" fill="#FCB033" width="11" height="1"/>
	<path display="inline" fill="#E7A723" d="M7.676,14.57v0.007l0.105-0.044c0.023-0.014,0.04-0.014,0.061-0.027
		c0.017-0.003,0.029-0.014,0.042-0.02L9.489,13.8l0.069-0.047c0.038-0.019,0.071-0.04,0.104-0.062l0.106-0.07l-0.003-0.027
		c0.279-0.242,0.408-0.572,0.296-1.072c-0.083-0.355,0.111-0.455,0.431-0.504c1.073-0.146,2.146-0.187,3.22-0.062
		c0.995,0.112,1.013,0.118,0.987,1.103c-0.006,0.199,0.049,0.332,0.137,0.442l0.008,0.037l0.125,0.06
		c0.051,0.033,0.074,0.074,0.146,0.104c0.213,0.087,0.429,0.179,0.644,0.271l0.771,0.37c0.091,0.044,0.183,0.084,0.27,0.134
		c0.021,0.016,0.038,0.015,0.061,0.022l0.129,0.062l-0.008-0.016c0.313,0.102,0.508-0.039,0.709-0.328
		c1.106-1.593,0.342-3.828-1.556-4.363C13.654,9.159,11.158,9.177,8.67,9.83c-0.484,0.13-0.903,0.379-1.254,0.738
		C6.388,11.6,6.3,13.29,7.207,14.357C7.351,14.533,7.485,14.618,7.676,14.57z"/>
</g>
<g id="gym" display="none">
	<g display="inline">
		<path fill="#FCB033" d="M3.073-1.095l0.592,0.412c-4.084,8.995,1.83,13.951,1.891,14c0.104,0.084,0.228,0.125,0.351,0.125
			c0.163,0,0.323-0.069,0.435-0.207c0.194-0.236,0.158-0.59-0.082-0.783C6.041,12.268,1.048,8.027,4.601-0.03l1.546,1.078
			c0.097,0.067,0.208,0.101,0.32,0.101c0.175,0,0.349-0.083,0.458-0.24c0.177-0.252,0.114-0.601-0.139-0.777L3.901-1.881
			l-0.61-3.312C3.235-5.496,2.949-5.69,2.64-5.642C2.336-5.585,2.136-5.294,2.192-4.99l0.651,3.538
			C2.871-1.308,2.953-1.179,3.073-1.095z"/>
		<path fill="#FCB033" d="M22.579,11.385c0-2.927-2.381-5.352-5.31-5.352c-1.438,0-2.742,0.561-3.699,1.492l0.635-0.123L4.2,16.5
			H1.902c-0.31,0-0.559,0.189-0.559,0.5s0.25,0.5,0.559,0.5H3.02h7.544H22.02c0.312,0,0.562-0.189,0.562-0.5s-0.25-0.5-0.562-0.5
			h-3.134C21.021,16.5,22.579,13.745,22.579,11.385z M11.837,16.5l1.587-1.393c0.608,0.646,1.385,1.393,2.246,1.393H11.837z
			 M17.27,15.488c-1.24,0-2.343-0.551-3.106-1.407l2.388-2.388c0.219-0.219,0.219-0.571,0-0.791c-0.22-0.217-0.57-0.217-0.791,0
			l-1.871,1.871l-0.215-3.586c0.729-1.236,2.063-2.076,3.602-2.076c2.312,0,4.188,1.879,4.188,4.188
			C21.461,13.609,19.581,15.488,17.27,15.488z"/>
		<path fill="#FCB033" d="M23.133,1.473l-0.744-0.744C22.285,0.64,22.154,0.5,22.02,0.5h-5.588c-0.299,0-0.545,0.325-0.559,0.624
			c-0.014,0.298,0.21,0.601,0.507,0.628l0.945,0.108l1.549,0.623c-0.001,0.006-0.004,0.014-0.005,0.02l-0.561,2.331
			c-0.072,0.3,0.111,0.603,0.414,0.676c0.045,0.01,0.088,0.016,0.131,0.016c0.252,0,0.479-0.172,0.543-0.43l0.522-2.188l0.869,0.344
			c0.063,0.025,0.135,0.039,0.204,0.039c0.083,0,0.164-0.019,0.236-0.054L23,2.399c0.172-0.08,0.29-0.242,0.313-0.427
			C23.346,1.784,23.273,1.597,23.133,1.473z"/>
	</g>
</g>
<g id="Layer_18" display="none">
</g>
<g id="concierge" display="none">
	<g display="inline">
		<path fill="#FCB033" d="M24.591,9.982c-0.147-2.652-1.307-5.253-3.11-7.193c-0.914-0.981-1.982-1.819-3.172-2.444
			c-0.582-0.306-1.188-0.56-1.813-0.761c-0.25-0.08-0.467-0.132-0.452-0.439c0.019-0.436,0.015-0.873,0.009-1.309
			c-0.004-0.391-0.014-0.545,0.264-0.821c0.184-0.182,0.313-0.418,0.33-0.677c0.055-0.648-0.535-1.1-1.07-1.324
			c-1.354-0.564-3.002-0.553-4.419-0.276c-0.596,0.114-1.245,0.324-1.679,0.77C9.034-4.041,9.072-3.343,9.545-2.929
			c0.179,0.156,0.408,0.227,0.403,0.5C9.94-2.042,9.937-1.657,9.941-1.271c0.003,0.263,0.098,0.585-0.219,0.674
			C9.375-0.501,9.031-0.39,8.692-0.266C6.285,0.629,4.253,2.307,2.864,4.461C2.176,5.527,1.666,6.704,1.367,7.938
			C1.221,8.539,1.125,9.154,1.075,9.771c-0.046,0.57-0.132,1.088-0.04,1.658C1.1,11.829,2.181,11.5,2.447,11.5
			c0.841,0,1.682,0,2.523,0c1.617,0,3.234,0,4.851,0c3.222,0,6.447,0.166,9.667,0.125c1.205-0.016,2.412,0.027,3.619,0.016
			c0.367-0.004,1.209,0.17,1.52-0.082c0.109-0.091,0.016-0.629,0.016-0.771C24.643,10.508,24.605,10.258,24.591,9.982
			C24.547,9.199,24.596,10.066,24.591,9.982z M15.271-3.739c-0.926,0.605-3.823,0.605-4.733,0C11.428-4.35,14.373-4.35,15.271-3.739
			z M14.419-1.166c0.04,0.319-0.247,0.234-0.459,0.21c-0.38-0.045-0.765-0.064-1.147-0.063c-0.357,0-0.714,0.016-1.07,0.05
			c-0.249,0.023-0.179-0.429-0.179-0.593c0.004-0.318,0.212-0.332,0.473-0.301c0.324,0.038,0.658,0.017,0.982,0.017
			c0.354,0,0.709,0.003,1.063,0C14.573-1.852,14.369-1.56,14.419-1.166C14.448-0.933,14.396-1.339,14.419-1.166z M22.876,10.255
			c-0.011,0.078-0.155,0.245-0.231,0.245c-0.191,0-0.387,0-0.58,0c-0.387,0-0.771,0-1.155,0c-0.839,0-1.675,0-2.513,0
			c-1.604,0-3.215,0-4.821,0c-3.233,0-6.461-0.098-9.692-0.124c-0.289-0.003-0.81-0.09-1.072-0.212
			c-0.222-0.102-0.06-0.635-0.034-0.805C2.889,8.646,3.071,7.93,3.325,7.251c0.471-1.255,1.2-2.405,2.109-3.388
			c1.767-1.908,4.24-3.034,6.829-3.208c2.793-0.188,5.592,0.917,7.612,2.837c0.896,0.853,1.618,1.876,2.136,3
			c0.267,0.581,0.481,1.232,0.647,1.85"/>
		<path fill="#FCB033" d="M20.604,6.233c-0.857-1.9-2.479-3.274-4.303-4.222c-0.867-0.452-1.783-0.618-2.496,0.211
			c-0.466,0.541-0.584,1.36-0.14,1.95c0.248,0.33,0.614,0.49,0.974,0.671c0.428,0.216,0.844,0.46,1.232,0.743
			c0.729,0.533,1.35,1.206,1.768,2.01c0.188,0.356,0.33,0.688,0.709,0.882c0.385,0.198,0.856,0.199,1.258,0.047
			C20.498,8.188,21.006,7.121,20.604,6.233C20.261,5.479,20.702,6.452,20.604,6.233z M19.072,7.406
			c-0.215,0.028-0.276-0.228-0.35-0.374c-0.148-0.294-0.318-0.576-0.513-0.844c-0.382-0.535-0.853-1.007-1.364-1.412
			c-0.474-0.368-0.982-0.682-1.514-0.961c-0.189-0.102-0.54-0.193-0.682-0.37c-0.172-0.216,0.143-0.537,0.34-0.589
			c0.417-0.11,1.105,0.44,1.445,0.646c0.537,0.327,1.049,0.7,1.508,1.131C18.277,4.943,20.373,7.239,19.072,7.406
			C18.9,7.429,19.294,7.379,19.072,7.406z"/>
		<rect x="1" y="12.5" fill="#FCB033" width="24" height="2"/>
	</g>
</g>
<g id="maid" display="none">
	<g display="inline">
		<g>
			<path fill="#FCB033" d="M9.823,16.796c0.415,0,0.753,0.308,0.812,0.704h4.646c0.057-0.396,0.396-0.704,0.81-0.704
				s0.753,0.308,0.813,0.704h4.937c-0.168-2.871-2.126-4.357-4.046-5.436c-0.193-0.105-0.261-0.319-0.35-0.612
				c-0.02-0.056-0.041-0.134-0.063-0.191c-0.258-0.081-0.834-0.118-1.267-0.146c-0.528-0.032-1.034-0.064-1.418-0.162l-1.707,3.143
				l-1.812-3.256c-0.294,0.096-0.697,0.186-1.232,0.303c-0.449,0.098-1.002,0.215-1.225,0.311c-0.03,0.052-0.071,0.143-0.099,0.197
				c-0.108,0.235-0.203,0.438-0.393,0.539c-2.39,1.287-4.243,2.51-4.401,5.313h5.184C9.07,17.104,9.411,16.796,9.823,16.796z
				 M16.091,14.386c0.454,0,0.822,0.368,0.822,0.823c0,0.453-0.368,0.824-0.822,0.824s-0.821-0.371-0.821-0.824
				C15.27,14.754,15.637,14.386,16.091,14.386z M9.823,14.386c0.454,0,0.823,0.368,0.823,0.823c0,0.453-0.369,0.824-0.823,0.824
				c-0.453,0-0.822-0.371-0.822-0.824C9.001,14.754,9.37,14.386,9.823,14.386z"/>
			<path fill="#FCB033" d="M10.886,0.379C10.062,0.485,9.426,0.841,8.95,1.46C7.541,3.288,8.095,6.738,8.1,6.772L8.316,8.06
				c0.839,0.867,1.926,1.492,3.149,1.76c0.021,0.004,0.041,0.01,0.063,0.017c0.41,0.085,0.836,0.13,1.271,0.13
				c2.208,0,4.143-1.15,5.252-2.878L17.989,6.39l-0.304-3.544C13.932,2.419,11.475,0.802,10.886,0.379z M9.736,4.226
				c0-0.454,0.369-0.823,0.823-0.823c0.456,0,0.824,0.369,0.824,0.823s-0.368,0.823-0.824,0.823
				C10.104,5.049,9.736,4.681,9.736,4.226z M14.9,7.073c-1.316,0.829-2.896,0.834-4.174-0.063c-0.456-0.319,0.119-0.965,0.569-0.649
				c0.951,0.668,2.163,0.603,3.125-0.003C14.893,6.062,15.372,6.777,14.9,7.073z M14.898,5.049c-0.453,0-0.821-0.369-0.821-0.823
				s0.368-0.823,0.821-0.823c0.455,0,0.822,0.369,0.822,0.823S15.354,5.049,14.898,5.049z"/>
			<path fill="#FCB033" d="M6.666,4.873C6.901,5.49,7.237,6.146,7.709,6.838c0,0-1.083-6.465,3.288-6.872
				c0,0,2.685,2.113,7.058,2.519l0.331,3.87c0,0,0.192-0.32,0.4-0.877c0.269-0.726,0.563-1.859,0.481-3.216
				c-0.039-0.667-0.172-1.388-0.439-2.141c-0.193-0.541-0.458-1.099-0.813-1.665c0,0.07-0.002,0.143-0.002,0.214v0.198h-0.141
				h-0.563h-0.595H8.88H8.288H7.721H7.623C7.474-0.97,7.154-0.591,6.856-0.022C6.494,0.669,6.168,1.637,6.225,2.841
				C6.255,3.459,6.388,4.138,6.666,4.873z"/>
			<path fill="#FCB033" d="M7.865-1.98c0.001,0.059,0.001,0.116,0.003,0.172c0,0.094,0,0.188,0.002,0.282h0.265h0.62h0.679h6.728
				h0.68h0.62h0.156c0-0.151,0.006-0.301,0.006-0.454c0.002-0.034,0.002-0.067,0.002-0.103c0-0.094,0-0.189,0.003-0.284
				c0-0.091,0-0.182,0-0.273c-0.003-0.998-0.068-1.934-0.505-2.376c-0.194-0.198-0.458-0.293-0.806-0.293H9.171
				c-0.349,0-0.611,0.095-0.806,0.293C7.902-4.545,7.854-3.52,7.861-2.451c0,0.1,0.002,0.199,0.002,0.298
				C7.865-2.093,7.865-2.037,7.865-1.98z"/>
		</g>
	</g>
</g>
<g id="welcome_hamper-02" display="none">
	<g display="inline">
		<path fill="#FCB033" d="M12.969,14.344v0.271V14.344z"/>
		<polygon fill="#FCB033" points="10.26,14.344 10.26,14.615 10.261,14.344 		"/>
		<polygon fill="#FCB033" points="15.677,14.344 15.677,14.615 15.678,14.344 		"/>
		<path fill="#FCB033" d="M24.275,3.22l-0.383-0.383c-0.213-0.211-0.453-0.746-0.539-0.66L19.602,5.5H6.263L2.509,2.177
			C2.423,2.091,2.183,2.409,1.97,2.621L1.587,3.112C1.376,3.323,1.274,3.187,1.36,3.271L3.965,5.5H2.677C2.377,5.5,2,6.605,2,6.905
			v0.541C2,7.746,2.377,8.5,2.677,8.5h1.43l1.598,7.475C5.748,16.508,6.126,16.5,6.801,16.5h12.064c0.675,0,1.053-0.002,1.097-0.535
			L21.578,8.5h1.141C23.018,8.5,23,7.746,23,7.446V6.905c0-0.3,0.018-1.405-0.281-1.405h-0.82l2.605-2.174
			C24.589,3.24,24.488,3.432,24.275,3.22z M9,14.344V9.469c0-0.299,0.701-0.542,1-0.542s1,0.243,1,0.542v4.875
			c0,0.299-0.701,0.542-1,0.542S9,14.643,9,14.344z M12,14.344V9.469c0-0.299,0.702-0.542,1-0.542c0.299,0,1,0.243,1,0.542v4.875
			c0,0.299-0.701,0.542-1,0.542C12.702,14.886,12,14.643,12,14.344z M15,14.344V9.469c0-0.299,0.701-0.542,1-0.542s1,0.243,1,0.542
			v4.875c0,0.299-0.701,0.542-1,0.542S15,14.643,15,14.344z"/>
	</g>
</g>
<g id="pet_friendly" display="none">
	<g display="inline">
		<path fill="#FCB033" d="M-53.053-94.298c-1.216,0.831-3.753-0.922-6.297-0.941c-2.543-0.019-5.152,1.741-6.325,0.942
			c-1.173-0.799,1.126-7.194,6.325-7.214C-54.151-101.531-51.836-95.129-53.053-94.298z"/>
	</g>
	
		<ellipse transform="matrix(0.1383 0.9904 -0.9904 0.1383 -158.5522 -21.2912)" display="inline" fill="#FCB033" cx="-67.041" cy="-101.758" rx="3.037" ry="2.203"/>
	
		<ellipse transform="matrix(0.0555 0.9985 -0.9985 0.0555 -164.189 -37.069)" display="inline" fill="#FCB033" cx="-62.5" cy="-105.323" rx="3.037" ry="2.203"/>
	
		<ellipse transform="matrix(-0.222 0.9751 -0.9751 -0.222 -172.3946 -73.8072)" display="inline" fill="#FCB033" cx="-56.75" cy="-105.684" rx="3.037" ry="2.203"/>
	
		<ellipse transform="matrix(-0.5997 0.8002 -0.8002 -0.5997 -164.8203 -124.2341)" display="inline" fill="#FCB033" cx="-51.338" cy="-103.34" rx="3.037" ry="2.203"/>
	<g display="inline">
		<path fill="#FCB033" d="M-12.053-98.298c-1.216,0.831-3.753-0.922-6.297-0.941c-2.543-0.019-5.152,1.741-6.325,0.942
			c-1.173-0.799,1.126-7.194,6.325-7.214C-13.151-105.531-10.836-99.129-12.053-98.298z"/>
	</g>
	
		<ellipse transform="matrix(0.1384 0.9904 -0.9904 0.1384 -127.1759 -65.3278)" display="inline" fill="#FCB033" cx="-26.041" cy="-105.758" rx="3.037" ry="2.203"/>
	
		<ellipse transform="matrix(0.0555 0.9985 -0.9985 0.0555 -129.4526 -81.7899)" display="inline" fill="#FCB033" cx="-21.497" cy="-109.317" rx="3.037" ry="2.203"/>
	
		<ellipse transform="matrix(-0.2221 0.975 -0.975 -0.2221 -126.1946 -118.6839)" display="inline" fill="#FCB033" cx="-15.754" cy="-109.681" rx="3.037" ry="2.203"/>
	
		<ellipse transform="matrix(-0.5997 0.8002 -0.8002 -0.5997 -102.4388 -163.4204)" display="inline" fill="#FCB033" cx="-10.344" cy="-107.333" rx="3.037" ry="2.203"/>
	<g display="inline">
		<g>
			<path fill="none" stroke="#FCB033" stroke-miterlimit="10" d="M18.678,15.213c-1.363,0.936-4.213-1.033-7.066-1.056
				c-2.854-0.021-5.781,1.954-7.099,1.059c-1.317-0.896,1.264-8.073,7.099-8.095C17.445,7.099,20.043,14.282,18.678,15.213z"/>
		</g>
		
			<ellipse transform="matrix(0.1383 0.9904 -0.9904 0.1383 8.689 2.368)" fill="none" stroke="#FCB033" stroke-miterlimit="10" cx="2.984" cy="6.177" rx="3.408" ry="2.472"/>
		
			<ellipse transform="matrix(0.0556 0.9985 -0.9985 0.0556 9.8075 -6.0171)" fill="none" stroke="#FCB033" stroke-miterlimit="10" cx="8.084" cy="2.176" rx="3.408" ry="2.472"/>
		
			<ellipse transform="matrix(-0.2223 0.975 -0.975 -0.2223 19.4795 -11.9997)" fill="none" stroke="#FCB033" stroke-miterlimit="10" cx="14.525" cy="1.769" rx="3.408" ry="2.47"/>
		
			<ellipse transform="matrix(-0.5995 0.8004 -0.8004 -0.5995 36.4651 -9.4603)" fill="none" stroke="#FCB033" stroke-miterlimit="10" cx="20.6" cy="4.394" rx="3.408" ry="2.472"/>
	</g>
</g>
<g id="welcome_hamper-01" display="none">
	<g display="inline">
		<polygon fill="#FCB033" points="12.605,13.834 12.605,14.162 12.606,13.834 		"/>
		<polygon fill="#FCB033" points="9.322,13.834 9.322,14.162 9.323,13.834 		"/>
		<polygon fill="#FCB033" points="15.889,14.162 15.889,13.834 15.889,13.834 		"/>
		<path fill="#FCB033" d="M24.424,4.5H21.79h-0.845c-0.314-5-4.114-8.126-8.75-8.126C7.558-3.626,3.759-0.5,3.443,4.5H3.092H0.129
			C-0.234,4.5,0,4.454,0,4.816v0.657C0,5.837-0.234,5.5,0.129,5.5h1.733L3.8,15.21c0.052,0.649,0.511,1.29,1.328,1.29h14.626
			c0.816,0,1.275-0.65,1.327-1.3l1.96-9.7h1.382C24.788,5.5,25,5.837,25,5.473V4.816C25,4.454,24.788,4.5,24.424,4.5z M9,13.834
			v-5.91c0-0.362,0.638-0.656,1-0.656s1,0.294,1,0.656v5.91c0,0.363-0.638,0.657-1,0.657S9,14.197,9,13.834z M12,13.834v-5.91
			c0-0.362,0.639-0.656,1-0.656c0.361,0,1,0.294,1,0.656v5.91c0,0.363-0.639,0.657-1,0.657C12.639,14.491,12,14.197,12,13.834z
			 M17,13.834c0,0.363-0.637,0.657-1,0.657s-1-0.294-1-0.657v-5.91c0-0.362,0.637-0.656,1-0.656s1,0.294,1,0.656V13.834z
			 M12.196-2.969c4.263,0,7.764,3.469,8.092,7.469H4.102C4.431,0.5,7.931-2.969,12.196-2.969z"/>
	</g>
</g>
<g id="wlecome-provisions" display="none">
	<g display="inline">
		<path fill="#FCB033" d="M18.135-3.936c-0.006,0.003-0.012,0.015-0.018,0.019C18.448-3.92,18.128-3.932,18.135-3.936z"/>
		<path fill="#FCB033" d="M20.525-4.047C20.762-4.196,21-4.458,21-4.757v-0.485C21-5.706,20.379-6.5,19.915-6.5h-1.931
			C17.521-6.5,17-5.706,17-5.242v0.485c0,0.298,0.229,0.561,0.463,0.71c-0.273,0.419-0.52,1.033-0.792,1.729
			c-1.04-0.346-2.187-0.537-3.396-0.537c-2.758,0-4.944,1.212-5.985,2.25l0.073,0.068l-4.94,4.725
			C1.97,4.75,1.501,5.387,1.501,6.068C1.501,6.954,2,7.953,3,8.713v4.571C3,14.684,4.168,15.5,5.325,15.5h6.384
			c0.104,0,0.197,0.279,0.291,0.434c0.183,0.299,0.41,0.69,0.852,0.799c0.388,0.098,0.8,0.332,1.227,0.332
			c2.032,0,4.235-1.563,5.522-2.563h1.517c0.996,0,1.883-1.168,1.883-2.164v-8.67C23,3.25,21.721-2.217,20.525-4.047z M8.116-0.425
			l0.071-0.004c1.046-0.848,2.866-1.704,5.106-1.704c1.123,0,2.2,0.175,3.16,0.491c-0.547,1.525-1.025,3.27-1.28,4.338
			c-0.894-0.839-2.747-0.853-5.089-0.813c-0.515,0.01-1.048,0.019-1.592,0.019c-1.178,0-2.276,0.176-3.232,0.489L8.116-0.425z
			 M5.325,14.5C4.228,14.5,4,13.654,4,13.284V8.253L3.86,8.159C2.614,7.593,2.4,6.943,2.4,6.074c0-1.931,2.679-3.438,6.075-3.438
			c0.548,0,1.094,0.001,1.613-0.007c2.112-0.039,3.953-0.047,4.62,0.608C14.896,3.422,15,3.307,15,4.029v1.783
			c0-0.047-0.426-0.078-0.652-0.078c-1.367,0-2.842,0.865-3.471,1.701c-1.486,1.974-1.858,4.721-0.881,6.783
			c0.096,0.201,0.233,0.281,0.386,0.281L5.325,14.5L5.325,14.5z M19.092,13.628c-1.148,1.522-3.162,2.546-5.014,2.546
			c-0.369,0-0.723-0.041-1.055-0.122c-0.146-0.034-0.25-0.194-0.408-0.452c-0.132-0.216-0.326-0.461-0.562-0.639
			C12.051,14.959,12,14.957,12,14.955l-0.417-0.122l0.5,0.5c-0.192,0-0.539-0.862-0.723-0.938c-0.373-0.151-0.606-0.168-0.714-0.395
			c-0.855-1.805-0.511-4.434,0.802-6.176c0.512-0.679,1.761-1.39,2.888-1.39c0.209,0,0.402,0.038,0.576,0.09
			c0.332,0.099,0.568,0.472,0.842,0.899c0.154,0.242,0.314,0.494,0.51,0.719c0.133,0.156,0.271,0.283,0.41,0.385
			c0.398,0.286,0.878,0.413,1.344,0.535c0.498,0.13,0.969,0.254,1.188,0.553C20.009,10.721,19.807,12.682,19.092,13.628z M22,12.336
			c0,0.598-0.285,1.164-0.883,1.164h-1.088c0.557-1,0.599-3.116-0.241-4.271C19.419,8.724,18.8,8.541,18.2,8.385
			c-0.334-0.088-0.675-0.192-0.948-0.342c0.008-0.031,0.02-0.067,0.021-0.098c0.013-0.426,1.356-0.834,2.56-0.866
			c0.199-0.005,0.356-0.163,0.353-0.362c-0.006-0.199-0.17-0.326-0.371-0.333c-0.188,0.005-0.644,0.032-1.151,0.12
			c0.003-0.412-0.337-0.934-0.771-1.352c-0.604-0.58-1.447-0.658-1.481-0.66L15.96,4.454l0.056,0.441
			c0.004,0.036,0.115,0.877,0.717,1.457c0.229,0.218,0.459,0.392,0.685,0.515c-0.327,0.154-0.601,0.356-0.745,0.622
			c-0.104-0.146-0.063-0.296-0.154-0.449C16.316,6.734,16,6.433,16,6.195V3.668C16,2.827,17.428-3.5,18.117-3.5
			c-0.063,0-0.139,0-0.25,0l0,0l0.268-0.436L19-4.5h-1.133l0,0h0.117C17.92-4.5,18-4.691,18-4.757v-0.485
			C18-5.308,17.92-5.5,17.984-5.5h1.931C19.98-5.5,20-5.308,20-5.242v0.485C20-4.691,19.98-4.5,19.915-4.5H19v0.584
			c0,0,0.156-0.015,0.148-0.02C19.826-3.491,22,2.82,22,3.668V12.336z M18.07,6.633V6.354l0,0V6.633z M17.871,6.291
			c-0.165-0.076-0.396-0.227-0.639-0.459c-0.146-0.141-0.25-0.309-0.326-0.468c0.162,0.069,0.333,0.167,0.479,0.308
			C17.645,5.922,17.794,6.141,17.871,6.291z"/>
	</g>
	<path display="inline" fill="#FCB033" d="M6.367,0.843c-0.013,0.006-0.193-0.15,0.268-0.237c0.227-0.05,0.498-0.088,0.784-0.13
		c0.285-0.043,0.595-0.059,0.895-0.087l0.449-0.002c0.145,0.003,0.291-0.012,0.422,0.01c0.132,0.015,0.26,0.029,0.38,0.043
		c0.117,0.019,0.238,0.016,0.326,0.05c0.361,0.106,0.601,0.177,0.601,0.177S10.228,0.632,9.83,0.58
		C9.738,0.56,9.612,0.578,9.496,0.576C9.377,0.578,9.252,0.58,9.123,0.583C8.998,0.578,8.855,0.61,8.72,0.624L8.308,0.676
		c-0.277,0.062-0.549,0.108-0.8,0.178S7.026,0.985,6.834,1.053C6.448,1.177,5.686,1.371,5.67,1.374L6.367,0.843z"/>
	<path display="inline" fill="#FCB033" d="M7.372-0.13C7.359-0.124,7.174-0.303,7.635-0.391c0.227-0.051,0.498-0.088,0.784-0.13
		S9.015-0.574,9.315-0.6l0.451,0.007c0.146,0.007,0.292-0.006,0.425,0.022c0.132,0.019,0.261,0.038,0.382,0.056
		c0.118,0.023,0.24,0.023,0.329,0.063c0.364,0.127,0.606,0.212,0.606,0.212s-0.266-0.113-0.667-0.181
		C10.75-0.445,10.624-0.5,10.506-0.5c-0.119,0-0.244,0-0.374,0c-0.125,0-0.268,0.093-0.404,0.105L9.316-0.311
		c-0.277,0.063-0.549,0.127-0.799,0.2c-0.25,0.073-0.48,0.145-0.671,0.218C7.46,0.239,6.699,0.443,6.684,0.446L7.372-0.13z"/>
	<rect x="33.001" y="-25.45" display="inline" fill="#FCB033" width="7.666" height="6.899"/>
</g>
<g id="toiletries" display="none">
	<path display="inline" fill="#FCB033" d="M22.986,8.741L22.21,7.688c0.347-0.227,0.978-0.733,1.104-1.498
		c0.08-0.479-0.047-0.958-0.375-1.435l0.047-0.034L22.168,3.61c0.331-0.249,0.676-0.604,0.727-1.036
		c0.025-0.222-0.033-0.539-0.354-0.847l0.038-0.074l-8.308-4.279c-0.293-0.285-0.812-0.667-1.549-0.764
		c-1.009-0.132-2.087,0.297-3.214,1.273L3.095,1.497l0.061,0.108l-0.038-0.05L1.437,2.837L3.028,3.77L2.054,4.897
		c-0.078,0.091-0.112,0.212-0.092,0.33c0.02,0.119,0.091,0.222,0.195,0.282l0.597,0.344L1.437,6.857L3.028,7.79L2.054,8.919
		C1.976,9.01,1.941,9.131,1.961,9.248c0.02,0.118,0.091,0.221,0.195,0.281l0.597,0.344l-1.317,1.005l5.692,3.337
		c0.159,0.118,2.97,2.206,5.7,2.205c0.97,0,1.93-0.262,2.756-0.971l6.396-3.604c0.047-0.023,1.16-0.594,1.334-1.637
		c0.08-0.479-0.047-0.959-0.375-1.435L22.986,8.741z M3.605,2.195L3.572,2.151l6.366-3.587l0.068-0.047
		c0.952-0.833,1.822-1.206,2.601-1.111c0.336,0.042,0.604,0.168,0.81,0.306l-0.051,0.1l0.423,0.217
		c0.061,0.066,0.094,0.114,0.1,0.121l0.057-0.04l8.017,4.128l-0.019,0.021c0.076,0.059,0.162,0.146,0.152,0.224
		c-0.025,0.216-0.484,0.582-0.906,0.787l-6.104,3.504c-2.66,2.331-7.426-1.207-7.514-1.269L2.876,2.75L3.605,2.195z M3.508,6.289
		l7.527,4.347c0.063,0.036,0.133,0.054,0.202,0.054c0.138,0,0.274-0.069,0.347-0.198c0.112-0.192,0.045-0.438-0.147-0.552
		L2.979,5.055l0.754-0.873l3.395,1.989c0.16,0.121,2.994,2.225,5.71,2.225c0.96,0,1.906-0.263,2.712-0.97l4.847-2.776l0.727,1.023
		l-7.948,3.815c-0.199,0.096-0.284,0.337-0.188,0.535c0.072,0.146,0.213,0.229,0.365,0.229c0.059,0,0.115-0.014,0.174-0.039
		L21.9,6.192c0.104-0.052,0.187-0.147,0.216-0.262c0.028-0.115,0.007-0.237-0.062-0.335L21.1,4.247l0.381-0.219l0.549,0.747
		L21.966,4.84c0.429,0.437,0.617,0.845,0.558,1.215c-0.104,0.639-0.896,1.048-0.92,1.06l-6.445,3.634l-0.068,0.046
		c-2.66,2.331-7.426-1.207-7.514-1.27l-4.7-2.754L3.508,6.289z M21.604,11.135l-6.445,3.635l-0.068,0.047
		c-2.66,2.328-7.426-1.209-7.514-1.271l-4.697-2.754l0.632-0.479l7.527,4.348c0.063,0.035,0.133,0.053,0.202,0.053
		c0.138,0,0.274-0.068,0.347-0.197c0.112-0.193,0.045-0.438-0.147-0.552L2.98,9.077l0.754-0.872l3.395,1.986
		c0.159,0.121,2.97,2.207,5.7,2.207c0.97,0,1.93-0.264,2.756-0.972l4.835-2.726l0.702,0.99l-7.948,3.813
		c-0.199,0.097-0.284,0.336-0.188,0.537c0.071,0.146,0.213,0.229,0.364,0.229c0.06,0,0.116-0.015,0.174-0.041L21.9,10.21
		c0.105-0.053,0.188-0.146,0.217-0.262c0.027-0.115,0.007-0.238-0.063-0.334l-0.932-1.313l0.385-0.215l0.521,0.707l-0.063,0.063
		c0.431,0.437,0.617,0.845,0.558,1.212C22.418,10.714,21.628,11.123,21.604,11.135z"/>
</g>
<g id="phone" display="none">
	<g display="inline">
		<path fill="#FCB033" d="M9.911-4.41c0.006,0.008,0.043,0.071,0.062,0.161c0.026,0.09,0.064,0.199,0.104,0.309l0.604,1.706
			c0.157,0.391,0.321,0.799,0.491,1.201c0.065,0.161,0.072,0.286,0.077,0.368l0.151,0.45L11.292-0.05
			c-0.063,0.357-0.234,0.66-0.533,0.942c-1.054,1.006-1.054,1.006-0.106,2.19c1.185,1.491,2.601,2.847,4.328,4.151
			c0.256,0.188,0.367,0.218,0.41,0.218c0.03,0,0.104-0.061,0.187-0.194c0.519-0.822,1.19-1.247,2.01-1.266l0.033-0.039l0.539,0.061
			c0.089,0.019,0.185,0.039,0.278,0.073l0.092,0.012l3.215,1.272c0.058,0.016,0.1,0.036,0.123,0.047l0.6,0.393l0.069,0.11
			c0.198,0.317,0.2,0.688,0.176,0.973c-0.229,2.866-2.836,5.214-5.81,5.227h-0.063c-1.019,0-1.971-0.251-2.836-0.749
			C9.64,10.834,6.221,7.404,3.836,3.174C2.901,1.51,2.83-0.433,3.64-2.158c0.808-1.717,2.403-2.943,4.271-3.281
			C8.453-5.537,8.879-5.502,9.218-5.31 M8.458-4.586c-0.118,0-0.246,0.015-0.388,0.041c-1.601,0.29-2.916,1.301-3.609,2.774
			c-0.685,1.456-0.622,3.095,0.167,4.5c2.303,4.086,5.61,7.403,9.826,9.854c0.726,0.416,1.526,0.628,2.383,0.628v0.455l0.058-0.455
			c2.519-0.01,4.717-1.98,4.912-4.396c0.035-0.39-0.045-0.438-0.129-0.488l-0.354-0.148l-3.12-1.22
			c-0.117-0.033-0.171-0.044-0.224-0.055l-0.068-0.015l-0.146,0.015l-0.119-0.005c-0.358,0-0.83,0.097-1.299,0.838
			c-0.256,0.412-0.574,0.621-0.953,0.621c-0.365,0-0.688-0.199-0.953-0.396C12.648,6.608,11.178,5.2,9.946,3.649
			C8.604,1.972,8.62,1.685,10.134,0.235c0.215-0.203,0.259-0.359,0.274-0.5L10.41-0.29l-0.027-0.081
			c-0.032-0.126-0.036-0.184-0.04-0.244c-0.179-0.472-0.346-0.886-0.511-1.3l-0.61-1.723C9.176-3.768,9.13-3.9,9.094-4.032
			c0,0.002,0,0.004,0,0.004c-0.005,0-0.029-0.047-0.047-0.108l-0.07-0.141C8.859-4.508,8.728-4.586,8.458-4.586z"/>
	</g>
</g>
<g id="car-park" display="none">
	<g display="inline">
		<path fill="#FCB033" d="M14.573,8.181c1.017,0.146,1.057,0.186,1.229,1.19c0.152,0.874,0.308,1.747,0.462,2.623
			c0.211,1.197-0.123,1.74-1.291,2.113c-0.324,1.681-0.689,2.063-1.91,2.017c-1.063-0.046-1.463-0.53-1.627-2.048
			c-0.773,0-1.56,0-2.345,0c-0.773,0-1.545,0-2.136,0c-0.316,0.648-0.481,1.273-0.874,1.679c-0.271,0.28-0.859,0.347-1.305,0.347
			c-1.026,0-1.405-0.521-1.542-1.94C2.936,14.011,2.605,13.9,2.351,13.7c-0.465-0.375-0.6-0.896-0.493-1.479
			c0.171-0.949,0.345-1.896,0.512-2.845c0.176-1.009,0.21-1.044,1.205-1.192c0.091-0.663,0.145-1.339,0.279-2
			c0.293-1.454,1.49-2.535,2.969-2.598c1.471-0.064,2.949-0.075,4.42-0.009c1.755,0.08,3,1.349,3.181,3.107
			C14.473,7.169,14.521,7.657,14.573,8.181z M13.234,8.202c0.136-2.167-0.703-3.567-2.38-3.301
			c-0.129,1.023-0.245,1.125-1.281,1.128c-0.265,0.002-0.529,0-0.793,0c-1.228,0-1.239-0.01-1.49-1.166
			c-1.777-0.134-2.448,1.23-2.358,3.339C7.699,8.202,10.469,8.202,13.234,8.202z M4.553,10.262c-0.672,0.002-1.235,0.557-1.24,1.219
			c-0.006,0.672,0.605,1.268,1.28,1.246c0.659-0.021,1.215-0.6,1.204-1.259C5.785,10.798,5.227,10.258,4.553,10.262z M13.596,10.259
			c-0.674,0.011-1.222,0.566-1.218,1.236c0.004,0.662,0.569,1.228,1.229,1.229c0.684,0.002,1.271-0.601,1.252-1.274
			C14.836,10.783,14.271,10.249,13.596,10.259z"/>
	</g>
	<g display="inline">
		<g>
			<path fill="#FCB033" d="M21.285,1.47c0,0.54-0.17,0.952-0.508,1.239c-0.338,0.286-0.815,0.427-1.438,0.427h-0.455v1.783H17.82
				v-5.013h1.603c0.606,0,1.069,0.129,1.388,0.394C21.126,0.561,21.285,0.951,21.285,1.47z M18.884,2.267h0.351
				c0.326,0,0.57-0.067,0.733-0.194c0.161-0.13,0.243-0.317,0.243-0.565c0-0.25-0.066-0.434-0.203-0.551
				c-0.137-0.12-0.351-0.178-0.641-0.178h-0.483V2.267z"/>
		</g>
	</g>
	<g display="inline">
		<path fill="#FCB033" d="M19.121,7.057c-2.736,0-4.961-2.226-4.961-4.963c0-2.736,2.225-4.962,4.961-4.962s4.965,2.226,4.965,4.962
			C24.086,4.831,21.857,7.057,19.121,7.057z M19.121-2.042c-2.279,0-4.137,1.855-4.137,4.135c0,2.281,1.854,4.137,4.137,4.137
			c2.279,0,4.137-1.855,4.137-4.137C23.258-0.187,21.4-2.042,19.121-2.042z"/>
	</g>
	<g display="inline">
		<rect x="18" y="6.5" fill="#FCB033" width="2" height="9"/>
	</g>
</g>
<g id="nosmoking" display="none">
	<g display="inline">
		<path fill="#FCB033" d="M14.171,3.344l8.915-8.917c0.322-0.32,0.322-0.841,0-1.162c-0.318-0.321-0.84-0.321-1.16,0l-8.917,8.917
			L4.092-6.735c-0.321-0.321-0.84-0.321-1.161,0c-0.321,0.321-0.321,0.841,0,1.162l8.916,8.917l-8.916,8.917
			c-0.321,0.319-0.321,0.841,0,1.161c0.16,0.16,0.371,0.24,0.581,0.24c0.21,0,0.421-0.08,0.581-0.24l8.917-8.917l8.917,8.917
			c0.16,0.16,0.37,0.24,0.58,0.24s0.421-0.08,0.58-0.24c0.322-0.32,0.322-0.842,0-1.161L14.171,3.344z"/>
		<path fill="#FCB033" d="M20.051,2.642L20.102,2.5H2.941C2.308,2.5,2,3.523,2,4.153v0.864C2,5.675,2.338,6.5,2.941,6.5h12.586
			h0.695h3.512c0.104,0,0.207,0.053,0.31,0.053c0.101,0,0.205-0.053,0.308-0.053h0.039L20.34,6.355C20.713,6.229,21,5.776,21,5.403
			V3.646C21,3.177,20.523,2.668,20.051,2.642z M4,5.5v-2h12v2H4z M17,3.5h2.033C19.014,3.5,18,3.579,18,3.646v1.758
			C18,5.45,19.012,5.5,19.021,5.5H17V3.5z M20,5.403c0,0.162-0.338,0.293-0.5,0.293S19,5.565,19,5.403V3.646
			c0-0.162,0.338-0.294,0.5-0.294S20,3.483,20,3.646V5.403z"/>
		<g>
			<path fill="#FCB033" d="M2.71,2.103C2.48,2.095,2.405,1.939,2.5,1.747C2.672,1.395,2.763,1.023,2.689,0.64
				C2.636,0.369,2.537,0.103,2.422-0.148c-0.272-0.596-0.311-1.197-0.1-1.815C2.36-2.07,2.41-2.174,2.462-2.276
				c0.06-0.116,0.156-0.176,0.283-0.118c0.131,0.061,0.148,0.167,0.104,0.305c-0.085,0.257-0.185,0.515-0.223,0.78
				c-0.061,0.41,0.086,0.787,0.27,1.15c0.249,0.495,0.314,1.017,0.18,1.555C3.03,1.586,2.955,1.771,2.872,1.947
				C2.836,2.022,2.746,2.069,2.71,2.103z"/>
		</g>
		<g>
			<path fill="#FCB033" d="M1.564,1.292c-0.22,0-0.292-0.144-0.23-0.331C1.416,0.716,1.51,0.47,1.549,0.217
				c0.063-0.417-0.077-0.8-0.264-1.17C0.99-1.538,0.961-2.145,1.173-2.764C1.209-2.871,1.259-2.975,1.31-3.077
				C1.372-3.202,1.472-3.265,1.605-3.2c0.135,0.065,0.13,0.181,0.091,0.311c-0.082,0.271-0.179,0.542-0.217,0.82
				C1.424-1.678,1.571-1.322,1.744-0.975C2.041-0.383,2.066,0.23,1.853,0.854C1.816,0.961,1.77,1.069,1.708,1.164
				C1.668,1.226,1.594,1.267,1.564,1.292z"/>
		</g>
	</g>
</g>
<g id="flat-screen-tv" display="none">
	<g display="inline">
		<path fill="#FCB033" d="M25,14.5H0v-14h25V14.5z M1,13.5h23v-12H1V13.5z"/>
	</g>
	<g display="inline">
		<rect x="2" y="2.5" fill="#FCB033" width="21" height="10"/>
	</g>
	<g display="inline">
		<rect x="2" y="15.5" fill="#FCB033" width="21" height="1"/>
	</g>
</g>
<g id="cctv" display="none">
	<path display="inline" fill="#FCB033" d="M23.882,1.083L9.279-5.023C8.295-5.435,7.693-5.271,7.441-4.665L5.796-0.733
		C5.795-0.731,5.795-0.729,5.794-0.726L5.205,0.682c-0.336,0.806,0.103,1.73,0.999,2.105l4.997,2.145L6,10.014V6.888
		c0-0.2,0.071-0.212-0.051-0.335C5.742,6.348,6.375,6.625,5.288,6.5H2.306c-0.165,0-0.684-0.152-0.833-0.004
		C1.321,6.648,1,6.688,1,6.888v8.206C1,15.4,1.642,16.5,2.357,16.5h2.931C5.849,16.5,6,15.625,6,15.094V12.5h0.478
		c0.019,0,0.068-0.046,0.103-0.033c0.091,0.033,0.228,0.051,0.382,0.051c0.077,0,0.158-0.026,0.24-0.063
		c0.372-0.057,0.655-0.295,0.76-0.627l5.871-5.845l5.497,2.296c0.26,0.109,0.528,0.16,0.786,0.16c0.512,0,0.979-0.21,1.273-0.57
		l0.758,0.316l0.16,0.033c0.332,0,0.44-0.318,0.562-0.655c0.021-0.061,0.04-0.117,0.057-0.158l0.527-1.262
		c0.019-0.042,0.04-0.08,0.058-0.112c0.063-0.108,0.15-0.271,0.082-0.467l-0.083-0.187l-0.856-0.359l0.17-0.401
		c1.08-0.017,1.324-0.134,1.434-0.389l0.662-1.584C25.102,2.206,25.068,1.581,23.882,1.083z M5,15.094
		C5,15.256,5.35,14.5,5.288,15.5H2.433C2.413,14.5,2,15.17,2,15.094V7.5h3.341C5.389,7.5,5,6.969,5,6.971V9.5H4.116
		C3.584,9.5,3,10.455,3,10.991v0.586C3,11.813,3.275,12.5,4.116,12.5H5V15.094z M7.254,11.438l-0.021,0.123
		c-0.003,0.025-0.017,0.105-0.172,0.117l-0.096,0.008l-0.032,0.021c-0.026-0.008-0.058-0.066-0.082-0.077
		C6.753,11.593,6.63,11.5,6.488,11.5h-0.22H5.497h-1.38C3.967,11.5,4,11.574,4,11.577v-0.586C4,10.823,4.076,10.5,4.116,10.5H6.55
		l5.553-5.408l0.961,0.482L7.254,11.438z M19.629,7.564L6.501,2.076C5.995,1.864,5.743,1.392,5.916,0.979l0.151-0.362
		c0.17,0.199,0.39,0.37,0.659,0.482l7.004,2.8c0.555,0.232,5.59,0.656,8.259,0.713L21.65,5.42l-0.519,1.232
		c-0.001,0.004-0.004,0.008-0.005,0.011l-0.238,0.575C20.723,7.639,20.156,7.785,19.629,7.564z M22.727,5.884l-0.51,1.222
		c-0.021,0.052-0.049,0.125-0.074,0.203c-0.004,0.01-0.008,0.02-0.012,0.032l-0.355-0.149c0.021-0.084,0.045-0.179,0.068-0.239
		l0.514-1.225L22.727,5.884z M24.207,2.345L23.6,3.795c-0.123,0.022-0.414,0.053-1.062,0.053c-2.687,0-8.065-0.504-8.517-0.663
		l-7.003-2.8c-0.394-0.164-0.626-0.54-0.511-0.821l0.653-1.56l0,0l0.992-2.372c0.029-0.071,0.057-0.114,0.197-0.114
		c0.15,0,0.363,0.057,0.632,0.17l14.602,6.105C24.311,2.098,24.232,2.284,24.207,2.345z"/>
</g>
<g id="air-con">
	<g>
		<path fill="#9C9A00" d="M24.645,10.125c-0.104,0.238-0.293,0.305-0.543,0.305c-7.853-0.002-15.706-0.002-23.559,0
			c-0.249,0-0.439-0.063-0.543-0.305C0,7.252,0,4.38,0,1.509C0.055,1.36,0.095,1.203,0.167,1.063c0.329-0.645,0.87-0.922,1.584-0.92
			c2.478,0.005,4.955,0.002,7.433,0.002c4.542,0,9.091-0.003,13.636,0.008c0.312,0,0.643,0.061,0.929,0.177
			c0.515,0.208,0.749,0.67,0.896,1.179C24.645,4.38,24.645,7.252,24.645,10.125z M23.43,1.077c0,0.16,0.006,0.271,0,0.382
			c-0.031,0.497-0.304,0.869-0.742,0.986c-0.158,0.042-0.332,0.051-0.498,0.051C15.611,2.499,9.037,2.498,2.46,2.498
			c-0.112,0-0.224-0.005-0.335-0.018C1.662,2.426,1.312,2.093,1.241,1.63C1.215,1.46,1.212,1.287,1.196,1.082
			c-0.305,0.21-0.383,0.481-0.383,0.803c0.003,2.494,0.002,4.988,0.002,7.481c0,0.079,0,0.155,0,0.233c0.147,0,0.263,0,0.4,0
			c0-0.104,0-0.189,0-0.277c0-0.568-0.007-1.139,0.001-1.707C1.226,6.924,1.645,6.51,2.335,6.51c6.655-0.002,13.312-0.002,19.968,0
			c0.702,0,1.117,0.416,1.125,1.124c0.006,0.569,0.002,1.138,0.002,1.708c0,0.086,0,0.172,0,0.26c0.148,0,0.264,0,0.397,0
			c0-0.104,0-0.188,0-0.274c0-2.463,0-4.925,0-7.386c0-0.088,0.003-0.178-0.009-0.265C23.789,1.434,23.688,1.235,23.43,1.077z
			 M1.774,0.965c0,0.204-0.013,0.38,0.003,0.553C1.801,1.77,1.966,1.919,2.219,1.945c0.08,0.008,0.16,0.006,0.241,0.006
			c6.576,0.001,13.153,0.001,19.729,0c0.098,0,0.211,0.026,0.283-0.018c0.143-0.086,0.317-0.191,0.367-0.328
			c0.068-0.191,0.033-0.418,0.044-0.64C15.827,0.965,8.813,0.965,1.774,0.965z M22.867,8.146c-7.038,0-14.056,0-21.088,0
			c0,0.178,0,0.341,0,0.515c7.036,0,14.056,0,21.088,0C22.867,8.489,22.867,8.332,22.867,8.146z M1.787,7.564
			c7.026,0,14.05,0,21.078,0c-0.021-0.38-0.198-0.52-0.639-0.52c-6.603,0-13.201,0-19.797,0c-0.088,0-0.177,0.001-0.263,0.019
			C1.905,7.117,1.785,7.279,1.787,7.564z M1.777,9.598c7.05,0,14.069,0,21.087,0c0-0.137,0-0.252,0-0.373
			c-7.038,0-14.058,0-21.087,0C1.777,9.354,1.777,9.471,1.777,9.598z"/>
		<path fill="#9C9A00" d="M14.848,17.499c-0.289-0.013-0.384-0.207-0.264-0.448c0.215-0.443,0.33-0.912,0.236-1.396
			c-0.066-0.338-0.19-0.674-0.336-0.989c-0.342-0.75-0.394-1.511-0.123-2.285c0.047-0.137,0.105-0.271,0.175-0.396
			c0.073-0.146,0.196-0.223,0.356-0.146c0.164,0.075,0.186,0.21,0.129,0.385c-0.104,0.322-0.23,0.646-0.28,0.981
			c-0.076,0.517,0.108,0.989,0.34,1.448c0.315,0.623,0.396,1.281,0.228,1.959c-0.06,0.238-0.149,0.473-0.256,0.691
			C15.007,17.396,14.895,17.457,14.848,17.499z"/>
		<path fill="#9C9A00" d="M12.385,17.496c-0.278,0-0.367-0.182-0.29-0.417c0.102-0.308,0.221-0.619,0.269-0.937
			c0.081-0.525-0.097-1.011-0.332-1.478c-0.372-0.733-0.407-1.502-0.141-2.281c0.046-0.135,0.109-0.266,0.172-0.394
			c0.077-0.156,0.203-0.236,0.373-0.154c0.169,0.082,0.163,0.229,0.113,0.395c-0.101,0.342-0.225,0.683-0.273,1.029
			c-0.068,0.492,0.116,0.942,0.335,1.381c0.374,0.743,0.407,1.519,0.136,2.305c-0.047,0.136-0.104,0.271-0.182,0.39
			C12.516,17.413,12.422,17.465,12.385,17.496z"/>
		<path fill="#9C9A00" d="M12.343,5.417c0.386,0,0.771-0.006,1.155,0.002c0.271,0.006,0.434,0.228,0.29,0.402
			c-0.071,0.087-0.233,0.136-0.354,0.138c-0.738,0.014-1.477,0.008-2.215,0.008c-0.008,0-0.016,0-0.024,0
			c-0.187-0.006-0.373-0.029-0.375-0.271c-0.001-0.238,0.177-0.278,0.367-0.278C11.573,5.416,11.958,5.417,12.343,5.417z"/>
		<path fill="#9C9A00" d="M22.048,5.757c-0.103,0.065-0.196,0.171-0.304,0.188c-0.155,0.025-0.26-0.092-0.262-0.249
			c0-0.168,0.107-0.287,0.271-0.26c0.104,0.018,0.195,0.134,0.292,0.208C22.048,5.682,22.048,5.719,22.048,5.757z"/>
		<path fill="#9C9A00" d="M20.802,5.742c-0.099,0.071-0.186,0.18-0.294,0.203c-0.154,0.033-0.261-0.084-0.271-0.236
			c-0.008-0.17,0.103-0.294,0.266-0.273c0.104,0.013,0.2,0.127,0.3,0.196C20.8,5.668,20.801,5.705,20.802,5.742z"/>
		<path fill="#9C9A00" d="M9.925,17.5c-0.275-0.011-0.377-0.182-0.306-0.382c0.081-0.233,0.188-0.461,0.244-0.699
			c0.126-0.543,0.044-1.067-0.212-1.562c-0.358-0.686-0.506-1.396-0.314-2.156c0.057-0.23,0.155-0.452,0.244-0.672
			c0.066-0.168,0.189-0.278,0.375-0.196c0.196,0.087,0.195,0.255,0.109,0.426c-0.27,0.536-0.349,1.101-0.195,1.681
			c0.069,0.262,0.191,0.506,0.302,0.752c0.393,0.865,0.382,1.724-0.033,2.57C10.086,17.369,9.974,17.447,9.925,17.5z"/>
		<path fill="#9C9A00" d="M14.848,17.499c-0.289-0.013-0.384-0.207-0.264-0.448c0.215-0.443,0.33-0.912,0.236-1.396
			c-0.066-0.338-0.19-0.674-0.336-0.989c-0.342-0.75-0.394-1.511-0.123-2.285c0.047-0.137,0.105-0.271,0.175-0.396
			c0.073-0.146,0.196-0.223,0.356-0.146c0.164,0.075,0.186,0.21,0.129,0.385c-0.104,0.322-0.23,0.646-0.28,0.981
			c-0.076,0.517,0.108,0.989,0.34,1.448c0.315,0.623,0.396,1.281,0.228,1.959c-0.06,0.238-0.149,0.473-0.256,0.691
			C15.007,17.396,14.895,17.457,14.848,17.499z"/>
		<path fill="#9C9A00" d="M12.385,17.496c-0.278,0-0.367-0.182-0.29-0.417c0.102-0.308,0.221-0.619,0.269-0.937
			c0.081-0.525-0.097-1.011-0.332-1.478c-0.372-0.733-0.407-1.502-0.141-2.281c0.046-0.135,0.109-0.266,0.172-0.394
			c0.077-0.156,0.203-0.236,0.373-0.154c0.169,0.082,0.163,0.229,0.113,0.395c-0.101,0.342-0.225,0.683-0.273,1.029
			c-0.068,0.492,0.116,0.942,0.335,1.381c0.374,0.743,0.407,1.519,0.136,2.305c-0.047,0.136-0.104,0.271-0.182,0.39
			C12.516,17.413,12.422,17.465,12.385,17.496z"/>
	</g>
</g>
<g id="wi-fi" display="none">
	<g display="inline">
		<g>
			<g>
				<path fill="#FCB033" d="M4.812,16.665c-2.294,0-4.161-1.866-4.161-4.162s1.867-4.164,4.161-4.164
					c2.296,0,4.163,1.868,4.163,4.164S7.108,16.665,4.812,16.665z M4.812,9.698c-1.544,0-2.801,1.258-2.801,2.805
					c0,1.545,1.257,2.804,2.801,2.804c1.545,0,2.803-1.259,2.803-2.804C7.615,10.956,6.357,9.698,4.812,9.698z"/>
			</g>
		</g>
		<g>
			<g>
				<path fill="#FCB033" d="M17.822,17.5c-0.006,0-0.016,0-0.026,0H14.58c-0.375,0-0.68-0.109-0.68-0.486
					c0-7.865-5.658-13.699-13.406-13.699C0.119,3.314,0,3.107,0,2.732v-3.216c0-0.375,0.119-0.68,0.495-0.68
					c9.783,0,17.964,8.304,18.073,18.178c0.02,0.063-0.021-0.063-0.021,0C18.55,17.391,18.198,17.5,17.822,17.5z M15.247,16.5h1.854
					C16.746,7.5,10,0.576,1,0.21v1.855C8,2.393,14.93,7.5,15.247,16.5z"/>
			</g>
		</g>
		<g>
			<g>
				<path fill="#FCB033" d="M24.127,17.5c-0.006,0-0.018,0-0.027,0h-3.213c-0.376,0-0.681-0.109-0.681-0.486
					c0-10.521-9.297-20.005-19.711-20.005C0.119-2.991,0-3.198,0-3.574V-6.79c0-0.375,0.119-0.68,0.495-0.68
					c13.887,0,24.28,10.512,24.377,24.484c0.019,0.063-0.019-0.064-0.019,0C24.854,17.391,24.503,17.5,24.127,17.5z M21.555,16.5
					h1.856C23.086,3.5,13-5.769,1-6.101v1.86C12-3.845,21.164,5.5,21.555,16.5z"/>
			</g>
		</g>
	</g>
</g>
<g id="video-phone" display="none">
	<g display="inline">
		<path fill="#FCB033" d="M21-5.647v20.733c0,0.494-0.727,1.414-1.33,1.414H5.738C5.134,16.5,4,15.58,4,15.086V-5.647
			C4-6.162,5.189-6.5,5.738-6.5H19.67C20.219-6.5,21-6.162,21-5.647z M5,15.086C5,15.217,5.724,15.5,5.738,15.5H20
			c0,0,0-0.283,0-0.414V-5.647C20-5.783,20-5.5,20-5.5H5.738C5.558-5.5,5-5.783,5-5.647V15.086z"/>
	</g>
	<g display="inline">
		<path fill="#FCB033" d="M16.82-4.5H8.076C7.605-4.5,8-3.826,8-3.277V7.146C8,7.695,7.605,7.5,8.076,7.5h8.744
			C17.313,7.5,17,7.653,17,7.146V-3.277C17-3.784,17.313-4.5,16.82-4.5z M16.82,7.5h-0.609c-0.141-2-1.746-3.452-3.711-3.452
			S8.929,5.5,8.789,7.5H8.076C7.924,7.5,8,7.261,8,7.146V-3.277C8-3.391,7.924-3.5,8.076-3.5h8.744C16.975-3.5,17-3.445,17-3.277
			V7.146C17,7.314,16.975,7.5,16.82,7.5z"/>
		<circle fill="#FCB033" cx="12.216" cy="1.058" r="1.984"/>
	</g>
	<g display="inline">
		<path fill="#FCB033" d="M7,7.5v-12h11v12H7z M8-4.5v12h9v-12H8z"/>
	</g>
	<rect x="7" y="6.5" display="inline" fill="#FCB033" width="11" height="1"/>
	<path display="inline" fill="#E7A723" d="M7.676,14.57v0.007l0.105-0.044c0.023-0.014,0.04-0.014,0.061-0.027
		c0.017-0.003,0.029-0.014,0.042-0.02L9.489,13.8l0.069-0.047c0.038-0.019,0.071-0.04,0.104-0.062l0.106-0.07l-0.003-0.027
		c0.279-0.242,0.408-0.572,0.296-1.072c-0.083-0.355,0.111-0.455,0.431-0.504c1.073-0.146,2.146-0.187,3.22-0.062
		c0.995,0.112,1.013,0.118,0.987,1.103c-0.006,0.199,0.049,0.332,0.137,0.442l0.008,0.037l0.125,0.06
		c0.051,0.033,0.074,0.074,0.146,0.104c0.213,0.087,0.429,0.179,0.644,0.271l0.771,0.37c0.091,0.044,0.183,0.084,0.27,0.134
		c0.021,0.016,0.038,0.015,0.061,0.022l0.129,0.062l-0.008-0.016c0.313,0.102,0.508-0.039,0.709-0.328
		c1.106-1.593,0.342-3.828-1.556-4.363C13.654,9.159,11.158,9.177,8.67,9.83c-0.484,0.13-0.903,0.379-1.254,0.738
		C6.388,11.6,6.3,13.29,7.207,14.357C7.351,14.533,7.485,14.618,7.676,14.57z"/>
</g>
</svg>
