<?xml version="1.0" encoding="utf-8"?>
<!-- Generator: Adobe Illustrator 16.0.0, SVG Export Plug-In . SVG Version: 6.00 Build 0)  -->
<!DOCTYPE svg PUBLIC "-//W3C//DTD SVG 1.1//EN" "http://www.w3.org/Graphics/SVG/1.1/DTD/svg11.dtd">
<svg version="1.1" id="Layer_1" xmlns="http://www.w3.org/2000/svg" xmlns:xlink="http://www.w3.org/1999/xlink" x="0px" y="0px"
	 width="14.417px" height="16.417px" viewBox="0 0 14.417 16.417" enable-background="new 0 0 14.417 16.417" xml:space="preserve">
<path d="M11.18,6.25c1.556,0,2.82-1.266,2.82-2.82c0-1.557-1.265-2.821-2.82-2.821s-2.82,1.265-2.82,2.821
	c0,0.2,0.022,0.395,0.062,0.583L5.276,5.561C4.76,4.981,4.016,4.609,3.18,4.609c-1.556,0-2.82,1.265-2.82,2.821
	c0,1.555,1.265,2.82,2.82,2.82c0.553,0,1.065-0.166,1.5-0.441l2.873,2.614c-0.121,0.313-0.194,0.651-0.194,1.007
	c0,1.555,1.265,2.82,2.82,2.82S13,14.985,13,13.43c0-1.557-1.265-2.821-2.82-2.821c-0.653,0-1.247,0.231-1.726,0.606l-2.768-2.52
	C5.88,8.313,6,7.887,6,7.43C6,7.25,5.979,7.074,5.947,6.903l3.172-1.562C9.634,5.897,10.363,6.25,11.18,6.25z"/>
</svg>
