<?xml version="1.0" encoding="utf-8"?>
<!-- Generator: Adobe Illustrator 16.0.0, SVG Export Plug-In . SVG Version: 6.00 Build 0)  -->
<!DOCTYPE svg PUBLIC "-//W3C//DTD SVG 1.1//EN" "http://www.w3.org/Graphics/SVG/1.1/DTD/svg11.dtd">
<svg version="1.1" id="Layer_1" xmlns="http://www.w3.org/2000/svg" xmlns:xlink="http://www.w3.org/1999/xlink" x="0px" y="0px"
	 width="25px" height="20.25px" viewBox="0 0 25 20.25" enable-background="new 0 0 25 20.25" xml:space="preserve">
<g id="Layer_2" display="none">
	<g display="inline">
		<path fill="#FCB033" d="M81.734-113.478c1.6,0.23,1.66,0.294,1.936,1.875c0.239,1.376,0.482,2.752,0.725,4.129
			c0.334,1.887-0.188,2.743-2.031,3.331c-0.51,2.644-1.09,3.253-3.008,3.172c-1.678-0.07-2.309-0.835-2.565-3.224
			c-1.217,0-2.455,0-3.69,0c-1.218,0-2.434,0-3.363,0c-0.498,1.02-0.758,2.006-1.375,2.645c-0.428,0.44-1.354,0.546-2.055,0.546
			c-1.615-0.001-2.213-0.823-2.429-3.061c-0.467-0.236-0.987-0.406-1.39-0.726c-0.729-0.588-0.942-1.412-0.774-2.332
			c0.271-1.492,0.543-2.982,0.808-4.477c0.278-1.584,0.334-1.642,1.897-1.875c0.142-1.043,0.228-2.108,0.438-3.148
			c0.461-2.288,2.347-3.991,4.674-4.091c2.316-0.101,4.645-0.119,6.961-0.014c2.765,0.125,4.724,2.123,5.008,4.893
			C81.574-115.069,81.65-114.302,81.734-113.478z M79.627-113.442c0.213-3.413-1.111-5.618-3.75-5.199
			c-0.202,1.612-0.385,1.771-2.018,1.774c-0.416,0.003-0.832,0.001-1.248,0.001c-1.936-0.001-1.951-0.014-2.348-1.834
			c-2.798-0.211-3.854,1.937-3.714,5.258C70.909-113.442,75.27-113.442,79.627-113.442z M65.955-110.202
			c-1.061,0.005-1.943,0.876-1.953,1.921c-0.01,1.057,0.953,1.991,2.016,1.96c1.039-0.029,1.914-0.943,1.896-1.981
			C67.896-109.356,67.018-110.207,65.955-110.202z M80.191-110.204c-1.062,0.016-1.924,0.892-1.916,1.944
			c0.007,1.043,0.896,1.932,1.937,1.937c1.075,0.005,2.006-0.941,1.97-2.005C82.146-109.381,81.258-110.22,80.191-110.204z"/>
	</g>
	<g display="inline">
		<path fill="#FCB033" d="M86.5-100.25c-0.275,0-0.5-0.224-0.5-0.5v-14c0-0.276,0.225-0.5,0.5-0.5s0.5,0.224,0.5,0.5v14
			C87-100.474,86.775-100.25,86.5-100.25z"/>
	</g>
	<g display="inline">
		<path fill="#FCB033" d="M88.5-100.25c-0.275,0-0.5-0.224-0.5-0.5v-14c0-0.276,0.225-0.5,0.5-0.5s0.5,0.224,0.5,0.5v14
			C89-100.474,88.775-100.25,88.5-100.25z"/>
	</g>
	<g display="inline">
		<g>
			<path fill="#FCB033" d="M90.541-121.697c0,0.705-0.221,1.244-0.662,1.619c-0.439,0.373-1.066,0.559-1.88,0.559h-0.597v2.33
				h-1.389v-6.551h2.094c0.795,0,1.396,0.17,1.813,0.514C90.334-122.885,90.541-122.375,90.541-121.697z M87.402-120.656h0.457
				c0.429,0,0.748-0.086,0.959-0.254c0.213-0.17,0.318-0.414,0.318-0.738c0-0.326-0.089-0.566-0.268-0.721
				c-0.18-0.156-0.456-0.232-0.836-0.232H87.4v1.945H87.402z"/>
		</g>
	</g>
	<g display="inline">
		<path fill="#FCB033" d="M87.584-114.99c-3.309,0-6-2.691-6-6c0-3.309,2.691-6,6-6s6,2.691,6,6
			C93.584-117.681,90.893-114.99,87.584-114.99z M87.584-125.99c-2.757,0-5,2.243-5,5c0,2.757,2.243,5,5,5s5-2.243,5-5
			C92.584-123.747,90.341-125.99,87.584-125.99z"/>
	</g>
	<g display="inline">
		<path fill="#FCB033" d="M21-2.897v20.733c0,0.494-0.727,1.414-1.33,1.414H5.738C5.134,19.25,4,18.33,4,17.836V-2.897
			C4-3.412,5.189-3.75,5.738-3.75H19.67C20.219-3.75,21-3.412,21-2.897z M5,17.836c0,0.131,0.724,0.414,0.738,0.414H20
			c0,0,0-0.283,0-0.414V-2.897c0-0.136,0,0.147,0,0.147H5.738C5.558-2.75,5-3.033,5-2.897V17.836z"/>
	</g>
	<g display="inline">
		<path fill="#FCB033" d="M16.82-1.75H8.076C7.605-1.75,8-1.076,8-0.527V9.896c0,0.55-0.395,0.354,0.076,0.354h8.744
			c0.492,0,0.18,0.153,0.18-0.354V-0.527C17-1.034,17.313-1.75,16.82-1.75z M16.82,10.25h-0.609c-0.141-2-1.746-3.452-3.711-3.452
			S8.929,8.25,8.789,10.25H8.076C7.924,10.25,8,10.011,8,9.896V-0.527C8-0.641,7.924-0.75,8.076-0.75h8.744
			c0.154,0,0.18,0.055,0.18,0.223V9.896C17,10.064,16.975,10.25,16.82,10.25z"/>
		<circle fill="#FCB033" cx="12.216" cy="3.808" r="1.984"/>
	</g>
	<g display="inline">
		<path fill="#FCB033" d="M7,10.25v-12h11v12H7z M8-1.75v12h9v-12H8z"/>
	</g>
	<rect x="7" y="9.25" display="inline" fill="#FCB033" width="11" height="1"/>
	<path display="inline" fill="#E7A723" d="M7.676,17.32v0.007l0.105-0.044c0.023-0.014,0.04-0.014,0.061-0.027
		c0.017-0.003,0.029-0.014,0.042-0.02l1.605-0.688l0.069-0.047c0.038-0.02,0.071-0.04,0.104-0.063l0.106-0.069l-0.003-0.027
		c0.279-0.241,0.408-0.571,0.296-1.071c-0.083-0.357,0.111-0.455,0.431-0.504c1.073-0.147,2.146-0.188,3.22-0.063
		c0.995,0.111,1.013,0.118,0.987,1.104c-0.006,0.198,0.049,0.332,0.137,0.441l0.008,0.037l0.125,0.061
		c0.051,0.032,0.074,0.073,0.146,0.104c0.213,0.087,0.429,0.179,0.644,0.271l0.771,0.369c0.09,0.044,0.182,0.084,0.269,0.135
		c0.021,0.014,0.038,0.013,0.06,0.021l0.129,0.063l-0.008-0.017c0.313,0.103,0.508-0.039,0.709-0.328
		c1.107-1.593,0.342-3.827-1.555-4.362c-2.479-0.694-4.973-0.679-7.461-0.023c-0.484,0.13-0.903,0.379-1.254,0.738
		C6.39,14.35,6.302,16.04,7.209,17.107C7.351,17.283,7.485,17.368,7.676,17.32z"/>
</g>
<g id="gym" display="none">
	<g display="inline">
		<path fill="#FCB033" d="M3.073,1.655l0.592,0.412c-4.084,8.996,1.83,13.951,1.891,14c0.104,0.084,0.228,0.125,0.351,0.125
			c0.163,0,0.323-0.07,0.435-0.207C6.536,15.747,6.5,15.395,6.26,15.2c-0.219-0.183-5.212-4.425-1.659-12.48l1.546,1.078
			c0.097,0.067,0.208,0.101,0.32,0.101c0.175,0,0.349-0.083,0.458-0.24c0.177-0.252,0.114-0.601-0.139-0.777L3.901,0.869
			l-0.61-3.312C3.235-2.746,2.949-2.94,2.64-2.892C2.336-2.835,2.136-2.544,2.192-2.24l0.651,3.538
			C2.871,1.442,2.953,1.571,3.073,1.655z"/>
		<path fill="#FCB033" d="M22.579,14.135c0-2.927-2.381-5.352-5.31-5.352c-1.438,0-2.742,0.561-3.699,1.492l0.635-0.123L4.2,19.25
			H1.902c-0.31,0-0.559,0.189-0.559,0.5s0.25,0.5,0.559,0.5H3.02h7.544H22.02c0.311,0,0.561-0.189,0.561-0.5s-0.25-0.5-0.561-0.5
			h-3.134C21.021,19.25,22.579,16.495,22.579,14.135z M11.837,19.25l1.587-1.393c0.608,0.646,1.385,1.393,2.246,1.393H11.837z
			 M17.27,18.238c-1.24,0-2.343-0.551-3.107-1.407l2.388-2.388c0.218-0.219,0.218-0.571,0-0.791c-0.22-0.217-0.571-0.217-0.791,0
			l-1.872,1.871l-0.214-3.586c0.729-1.236,2.063-2.078,3.601-2.078c2.312,0,4.189,1.879,4.189,4.188
			C21.461,16.359,19.581,18.238,17.27,18.238z"/>
		<path fill="#FCB033" d="M23.133,4.223l-0.744-0.744C22.285,3.39,22.154,3.25,22.02,3.25h-5.588c-0.299,0-0.545,0.325-0.559,0.624
			c-0.014,0.298,0.21,0.601,0.507,0.628l0.945,0.108l1.549,0.623c-0.001,0.006-0.004,0.014-0.005,0.02l-0.561,2.331
			c-0.072,0.3,0.112,0.603,0.414,0.676c0.045,0.01,0.088,0.016,0.131,0.016c0.252,0,0.48-0.172,0.543-0.43l0.523-2.188l0.869,0.344
			c0.064,0.025,0.135,0.039,0.204,0.039c0.083,0,0.164-0.019,0.237-0.054l1.771-0.838c0.172-0.08,0.29-0.242,0.313-0.427
			C23.346,4.534,23.273,4.347,23.133,4.223z"/>
	</g>
</g>
<g id="Layer_18" display="none">
</g>
<g id="concierge" display="none">
	<g display="inline">
		<path fill="#FCB033" d="M24.591,12.732c-0.147-2.652-1.307-5.253-3.11-7.193c-0.914-0.981-1.983-1.819-3.172-2.444
			c-0.582-0.306-1.188-0.56-1.813-0.761c-0.25-0.08-0.467-0.132-0.452-0.439c0.019-0.436,0.015-0.873,0.009-1.309
			c-0.004-0.391-0.014-0.545,0.264-0.821c0.183-0.182,0.312-0.418,0.33-0.677c0.054-0.648-0.535-1.1-1.071-1.324
			c-1.353-0.564-3.002-0.553-4.419-0.276c-0.596,0.114-1.245,0.324-1.679,0.77C9.034-1.291,9.072-0.593,9.545-0.179
			c0.179,0.156,0.408,0.227,0.403,0.5C9.94,0.708,9.937,1.093,9.941,1.479c0.003,0.263,0.098,0.585-0.219,0.674
			C9.375,2.249,9.031,2.36,8.692,2.484C6.285,3.379,4.253,5.057,2.864,7.211c-0.688,1.066-1.198,2.243-1.497,3.477
			c-0.146,0.603-0.242,1.217-0.292,1.834c-0.046,0.572-0.132,1.088-0.04,1.658c0.064,0.398,1.146,0.069,1.412,0.069
			c0.841,0,1.682,0,2.523,0c1.617,0,3.234,0,4.851,0c3.222,0,6.447,0.166,9.667,0.125c1.205-0.015,2.412,0.026,3.619,0.017
			c0.367-0.005,1.209,0.168,1.52-0.082c0.109-0.092,0.016-0.629,0.016-0.771C24.643,13.258,24.605,13.008,24.591,12.732
			C24.547,11.949,24.596,12.816,24.591,12.732z M15.271-0.989c-0.926,0.605-3.823,0.605-4.733,0C11.428-1.6,14.373-1.6,15.271-0.989
			z M14.419,1.584c0.04,0.319-0.247,0.234-0.459,0.21c-0.38-0.045-0.765-0.064-1.147-0.063c-0.357,0-0.714,0.016-1.07,0.05
			c-0.249,0.023-0.179-0.429-0.179-0.593c0.004-0.318,0.212-0.332,0.473-0.301c0.324,0.038,0.658,0.017,0.982,0.017
			c0.354,0,0.709,0.003,1.063,0C14.573,0.898,14.369,1.19,14.419,1.584C14.448,1.817,14.396,1.411,14.419,1.584z M22.876,13.005
			c-0.011,0.078-0.155,0.245-0.231,0.245c-0.192,0-0.387,0-0.58,0c-0.387,0-0.771,0-1.156,0c-0.838,0-1.674,0-2.512,0
			c-1.605,0-3.215,0-4.822,0c-3.233,0-6.461-0.098-9.692-0.124c-0.289-0.003-0.81-0.09-1.072-0.212
			c-0.22-0.104-0.058-0.635-0.032-0.805c0.113-0.715,0.294-1.43,0.548-2.108c0.471-1.255,1.2-2.405,2.109-3.388
			c1.767-1.908,4.24-3.034,6.829-3.208c2.792-0.188,5.591,0.917,7.612,2.837c0.896,0.853,1.618,1.876,2.136,3
			c0.268,0.581,0.481,1.232,0.647,1.85"/>
		<path fill="#FCB033" d="M20.604,8.983c-0.858-1.9-2.479-3.274-4.303-4.222c-0.867-0.452-1.783-0.618-2.496,0.211
			c-0.466,0.541-0.584,1.36-0.14,1.95c0.248,0.33,0.614,0.49,0.974,0.671c0.428,0.216,0.844,0.46,1.232,0.743
			c0.729,0.533,1.35,1.206,1.768,2.01c0.188,0.356,0.33,0.688,0.709,0.882c0.385,0.196,0.856,0.197,1.258,0.047
			C20.498,10.938,21.006,9.871,20.604,8.983C20.261,8.229,20.702,9.202,20.604,8.983z M19.072,10.156
			c-0.215,0.028-0.276-0.228-0.35-0.374c-0.148-0.294-0.318-0.576-0.512-0.844c-0.382-0.535-0.852-1.007-1.365-1.412
			c-0.473-0.368-0.982-0.682-1.513-0.961c-0.19-0.102-0.54-0.193-0.681-0.37c-0.172-0.216,0.142-0.537,0.339-0.589
			c0.417-0.11,1.106,0.44,1.446,0.646c0.537,0.327,1.049,0.7,1.508,1.131C18.277,7.693,20.373,9.989,19.072,10.156
			C18.9,10.179,19.294,10.129,19.072,10.156z"/>
		<rect x="1" y="15.25" fill="#FCB033" width="24" height="2"/>
	</g>
</g>
<g id="maid" display="none">
	<g display="inline">
		<g>
			<path fill="#FCB033" d="M9.823,19.546c0.415,0,0.753,0.308,0.812,0.704h4.646c0.057-0.396,0.396-0.704,0.81-0.704
				s0.753,0.308,0.813,0.704h4.937c-0.168-2.871-2.126-4.357-4.046-5.436c-0.193-0.105-0.261-0.319-0.35-0.612
				c-0.019-0.056-0.041-0.134-0.063-0.191c-0.258-0.081-0.834-0.118-1.267-0.146c-0.528-0.032-1.034-0.064-1.418-0.162l-1.707,3.143
				l-1.812-3.256c-0.294,0.096-0.697,0.186-1.232,0.303c-0.449,0.097-1.002,0.215-1.225,0.31c-0.03,0.052-0.071,0.142-0.099,0.198
				c-0.108,0.235-0.203,0.438-0.393,0.539c-2.39,1.287-4.243,2.509-4.401,5.312h5.184C9.07,19.854,9.411,19.546,9.823,19.546z
				 M16.091,17.136c0.454,0,0.822,0.368,0.822,0.823c0,0.453-0.368,0.824-0.822,0.824s-0.821-0.371-0.821-0.824
				C15.27,17.504,15.637,17.136,16.091,17.136z M9.823,17.136c0.454,0,0.823,0.368,0.823,0.823c0,0.453-0.369,0.824-0.823,0.824
				c-0.453,0-0.822-0.371-0.822-0.824C9.001,17.504,9.37,17.136,9.823,17.136z"/>
			<path fill="#FCB033" d="M10.886,3.129C10.062,3.235,9.426,3.591,8.95,4.21C7.541,6.038,8.095,9.488,8.1,9.522l0.216,1.289
				c0.839,0.866,1.926,1.491,3.149,1.76c0.021,0.005,0.041,0.011,0.063,0.018c0.41,0.085,0.836,0.13,1.271,0.13
				c2.208,0,4.143-1.149,5.252-2.878l-0.062-0.7l-0.304-3.544C13.932,5.169,11.475,3.552,10.886,3.129z M9.736,6.976
				c0-0.454,0.369-0.823,0.823-0.823c0.456,0,0.824,0.369,0.824,0.823s-0.368,0.823-0.824,0.823
				C10.104,7.799,9.736,7.431,9.736,6.976z M14.9,9.823c-1.316,0.829-2.896,0.834-4.174-0.063c-0.456-0.319,0.119-0.965,0.569-0.649
				c0.951,0.668,2.163,0.603,3.125-0.003C14.893,8.812,15.372,9.527,14.9,9.823z M14.898,7.799c-0.453,0-0.821-0.369-0.821-0.823
				s0.368-0.823,0.821-0.823c0.455,0,0.822,0.369,0.822,0.823S15.354,7.799,14.898,7.799z"/>
			<path fill="#FCB033" d="M6.666,7.623C6.901,8.24,7.237,8.896,7.709,9.588c0,0-1.083-6.465,3.288-6.872
				c0,0,2.685,2.113,7.058,2.519l0.331,3.87c0,0,0.192-0.32,0.4-0.877c0.269-0.726,0.563-1.859,0.481-3.216
				c-0.039-0.667-0.172-1.388-0.439-2.141c-0.193-0.541-0.458-1.099-0.813-1.665c0,0.07-0.002,0.143-0.002,0.214v0.198h-0.14h-0.563
				h-0.594H8.88H8.288H7.721H7.623C7.474,1.78,7.154,2.159,6.856,2.728C6.494,3.419,6.168,4.387,6.225,5.591
				C6.255,6.209,6.388,6.888,6.666,7.623z"/>
			<path fill="#FCB033" d="M7.865,0.77c0.001,0.059,0.001,0.116,0.003,0.172c0,0.094,0,0.188,0.002,0.282h0.265h0.62h0.679h6.728
				h0.68h0.62h0.156c0-0.151,0.006-0.301,0.006-0.454c0.002-0.034,0.002-0.067,0.002-0.103c0-0.094,0-0.189,0.003-0.284
				c0-0.091,0-0.182,0-0.273c-0.003-0.998-0.068-1.934-0.505-2.376c-0.194-0.198-0.458-0.293-0.806-0.293H9.171
				c-0.349,0-0.611,0.095-0.806,0.293C7.902-1.795,7.854-0.77,7.861,0.299c0,0.1,0.002,0.199,0.002,0.298
				C7.865,0.657,7.865,0.713,7.865,0.77z"/>
		</g>
	</g>
</g>
<g id="welcome_hamper-02" display="none">
	<g display="inline">
		<path fill="#FCB033" d="M12.969,17.094v0.271V17.094z"/>
		<polygon fill="#FCB033" points="10.26,17.094 10.26,17.365 10.261,17.094 		"/>
		<polygon fill="#FCB033" points="15.677,17.094 15.677,17.365 15.678,17.094 		"/>
		<path fill="#FCB033" d="M24.275,5.97l-0.383-0.383c-0.213-0.211-0.453-0.746-0.539-0.66L19.602,8.25H6.263L2.509,4.927
			C2.423,4.841,2.183,5.159,1.97,5.371L1.587,5.862C1.376,6.073,1.274,5.937,1.36,6.021L3.965,8.25H2.677
			C2.377,8.25,2,9.355,2,9.655v0.541c0,0.3,0.377,1.054,0.677,1.054h1.43l1.598,7.475c0.043,0.533,0.421,0.525,1.096,0.525h12.064
			c0.675,0,1.053-0.002,1.097-0.535l1.616-7.465h1.141c0.299,0,0.281-0.754,0.281-1.054V9.655c0-0.3,0.018-1.405-0.281-1.405h-0.82
			l2.605-2.174C24.589,5.99,24.488,6.182,24.275,5.97z M9,17.094v-4.875c0-0.299,0.701-0.542,1-0.542s1,0.243,1,0.542v4.875
			c0,0.299-0.701,0.542-1,0.542S9,17.393,9,17.094z M12,17.094v-4.875c0-0.299,0.702-0.542,1-0.542c0.299,0,1,0.243,1,0.542v4.875
			c0,0.299-0.701,0.542-1,0.542C12.702,17.636,12,17.393,12,17.094z M15,17.094v-4.875c0-0.299,0.701-0.542,1-0.542s1,0.243,1,0.542
			v4.875c0,0.299-0.701,0.542-1,0.542S15,17.393,15,17.094z"/>
	</g>
</g>
<g id="pet_friendly" display="none">
	<g display="inline">
		<path fill="#FCB033" d="M-53.053-91.548c-1.216,0.831-3.753-0.922-6.297-0.941c-2.543-0.019-5.152,1.741-6.325,0.942
			c-1.173-0.799,1.126-7.194,6.325-7.214C-54.151-98.781-51.836-92.379-53.053-91.548z"/>
	</g>
	
		<ellipse transform="matrix(-0.9904 0.1384 -0.1384 -0.9904 -147.1423 -187.7877)" display="inline" fill="#FCB033" cx="-67.042" cy="-99.01" rx="2.203" ry="3.037"/>
	
		<ellipse transform="matrix(-0.9985 0.0555 -0.0555 -0.9985 -130.5885 -201.5142)" display="inline" fill="#FCB033" cx="-62.495" cy="-102.571" rx="2.203" ry="3.037"/>
	
		<ellipse transform="matrix(-0.975 -0.2221 0.2221 -0.975 -89.228 -215.9086)" display="inline" fill="#FCB033" cx="-56.753" cy="-102.938" rx="2.203" ry="3.037"/>
	
		<ellipse transform="matrix(-0.8002 -0.5997 0.5997 -0.8002 -32.0963 -211.8697)" display="inline" fill="#FCB033" cx="-51.339" cy="-100.589" rx="2.203" ry="3.037"/>
	<g display="inline">
		<path fill="#FCB033" d="M-12.053-95.548c-1.216,0.831-3.753-0.922-6.297-0.941c-2.543-0.019-5.152,1.741-6.325,0.942
			c-1.173-0.799,1.126-7.194,6.325-7.214C-13.151-102.781-10.836-96.379-12.053-95.548z"/>
	</g>
	
		<ellipse transform="matrix(-0.9904 0.1384 -0.1384 -0.9904 -66.0877 -201.4252)" display="inline" fill="#FCB033" cx="-26.04" cy="-103.01" rx="2.203" ry="3.037"/>
	
		<ellipse transform="matrix(-0.9985 0.0555 -0.0555 -0.9985 -48.8729 -211.7853)" display="inline" fill="#FCB033" cx="-21.495" cy="-106.572" rx="2.203" ry="3.037"/>
	
		<ellipse transform="matrix(-0.975 -0.2221 0.2221 -0.975 -7.3647 -214.6846)" display="inline" fill="#FCB033" cx="-15.753" cy="-106.928" rx="2.203" ry="3.037"/>
	
		<ellipse transform="matrix(-0.8002 -0.5997 0.5997 -0.8002 44.1078 -194.4804)" display="inline" fill="#FCB033" cx="-10.342" cy="-104.587" rx="2.203" ry="3.037"/>
	<g display="inline">
		<g>
			<path fill="none" stroke="#FCB033" stroke-miterlimit="10" d="M18.678,17.963c-1.363,0.936-4.213-1.033-7.066-1.056
				c-2.854-0.021-5.781,1.954-7.099,1.059c-1.317-0.896,1.264-8.073,7.099-8.095C17.445,9.849,20.043,17.032,18.678,17.963z"/>
		</g>
		
			<ellipse transform="matrix(-0.9904 0.1383 -0.1383 -0.9904 7.1738 17.3562)" fill="none" stroke="#FCB033" stroke-miterlimit="10" cx="2.984" cy="8.927" rx="2.472" ry="3.408"/>
		
			<ellipse transform="matrix(-0.9985 0.0556 -0.0556 -0.9985 16.4304 9.3959)" fill="none" stroke="#FCB033" stroke-miterlimit="10" cx="8.084" cy="4.927" rx="2.472" ry="3.408"/>
		
			<ellipse transform="matrix(-0.975 -0.2222 0.2222 -0.975 27.6831 12.1533)" fill="none" stroke="#FCB033" stroke-miterlimit="10" cx="14.525" cy="4.52" rx="2.47" ry="3.408"/>
		
			<ellipse transform="matrix(-0.8004 -0.5995 0.5995 -0.8004 32.804 25.2122)" fill="none" stroke="#FCB033" stroke-miterlimit="10" cx="20.6" cy="7.145" rx="2.472" ry="3.408"/>
	</g>
</g>
<g id="welcome_hamper-01">
	<g>
		<polygon fill="#6A1A41" points="12.605,17.584 12.605,17.912 12.606,17.584 		"/>
		<polygon fill="#6A1A41" points="9.322,17.584 9.322,17.912 9.323,17.584 		"/>
		<polygon fill="#6A1A41" points="15.889,17.912 15.889,17.584 15.889,17.584 		"/>
		<path fill="#6A1A41" d="M24.424,8.25H21.79h-0.845c-0.314-5-4.114-8.126-8.75-8.126c-4.638,0-8.437,3.126-8.752,8.126H3.092H0.129
			C-0.234,8.25,0,8.204,0,8.566v0.656C0,9.587-0.234,9.25,0.129,9.25h1.733L3.8,18.96c0.052,0.649,0.511,1.29,1.328,1.29h14.626
			c0.816,0,1.275-0.65,1.327-1.3l1.96-9.7h1.382C24.788,9.25,25,9.587,25,9.223V8.566C25,8.204,24.788,8.25,24.424,8.25z
			 M8.424,17.584v-5.91c0-0.361,0.638-0.656,1-0.656c0.362,0,1,0.295,1,0.656v5.91c0,0.363-0.638,0.657-1,0.657
			C9.062,18.241,8.424,17.947,8.424,17.584z M11.424,17.584v-5.91c0-0.361,0.639-0.656,1-0.656c0.361,0,1,0.295,1,0.656v5.91
			c0,0.363-0.639,0.657-1,0.657C12.063,18.241,11.424,17.947,11.424,17.584z M16.424,17.584c0,0.363-0.637,0.657-1,0.657
			s-1-0.294-1-0.657v-5.91c0-0.361,0.637-0.656,1-0.656s1,0.295,1,0.656V17.584z M12.196,0.781c4.263,0,7.764,3.469,8.092,7.469
			H4.102C4.431,4.25,7.931,0.781,12.196,0.781z"/>
	</g>
</g>
<g id="wlecome-provisions" display="none">
	<g display="inline">
		<path fill="#FCB033" d="M18.135-1.186c-0.006,0.003-0.012,0.015-0.018,0.019C18.448-1.17,18.128-1.182,18.135-1.186z"/>
		<path fill="#FCB033" d="M20.525-1.297C20.762-1.446,21-1.708,21-2.007v-0.485c0-0.464-0.621-1.258-1.085-1.258h-1.931
			C17.521-3.75,17-2.956,17-2.492v0.485c0,0.298,0.229,0.561,0.463,0.71c-0.273,0.419-0.52,1.033-0.792,1.729
			c-1.04-0.346-2.187-0.537-3.396-0.537c-2.758,0-4.944,1.212-5.985,2.25l0.073,0.068l-4.94,4.725C1.97,7.5,1.501,8.137,1.501,8.818
			C1.501,9.704,2,10.703,3,11.463v4.571c0,1.397,1.168,2.216,2.325,2.216h6.384c0.104,0,0.197,0.279,0.291,0.434
			c0.183,0.299,0.41,0.69,0.852,0.799c0.388,0.097,0.8,0.332,1.227,0.332c2.032,0,4.235-1.563,5.522-2.563h1.517
			c0.996,0,1.883-1.168,1.883-2.164v-8.67C23,6,21.721,0.533,20.525-1.297z M8.116,2.325l0.071-0.004
			c1.046-0.848,2.866-1.704,5.106-1.704c1.123,0,2.2,0.175,3.16,0.491c-0.547,1.525-1.025,3.27-1.28,4.338
			c-0.894-0.839-2.747-0.853-5.089-0.813c-0.515,0.01-1.048,0.019-1.592,0.019c-1.178,0-2.276,0.176-3.232,0.489L8.116,2.325z
			 M5.325,17.25C4.228,17.25,4,16.404,4,16.034v-5.031l-0.14-0.094C2.614,10.343,2.4,9.693,2.4,8.824
			c0-1.931,2.679-3.438,6.075-3.438c0.548,0,1.094,0.001,1.613-0.007c2.112-0.039,3.953-0.047,4.62,0.608
			C14.896,6.172,15,6.057,15,6.779v1.783c0-0.047-0.426-0.078-0.652-0.078c-1.367,0-2.842,0.865-3.471,1.701
			c-1.486,1.974-1.858,4.721-0.881,6.783c0.096,0.201,0.233,0.281,0.386,0.281L5.325,17.25L5.325,17.25z M19.092,16.378
			c-1.148,1.522-3.162,2.546-5.014,2.546c-0.369,0-0.723-0.041-1.055-0.122c-0.145-0.034-0.25-0.194-0.408-0.452
			c-0.132-0.216-0.326-0.461-0.562-0.639C12.051,17.709,12,17.707,12,17.705l-0.417-0.122l0.5,0.5c-0.192,0-0.539-0.862-0.723-0.938
			c-0.373-0.152-0.606-0.168-0.714-0.395c-0.855-1.805-0.511-4.434,0.802-6.176c0.512-0.679,1.761-1.39,2.888-1.39
			c0.209,0,0.402,0.038,0.576,0.09c0.332,0.099,0.568,0.472,0.842,0.899c0.154,0.242,0.314,0.494,0.51,0.72
			c0.133,0.155,0.27,0.282,0.41,0.385c0.398,0.285,0.878,0.412,1.344,0.535c0.498,0.129,0.969,0.254,1.188,0.554
			C20.009,13.471,19.807,15.432,19.092,16.378z M22,15.086c0,0.598-0.285,1.164-0.883,1.164h-1.088c0.557-1,0.599-3.116-0.241-4.271
			c-0.369-0.506-0.988-0.688-1.588-0.845c-0.334-0.088-0.675-0.192-0.948-0.342c0.008-0.031,0.02-0.067,0.021-0.099
			c0.013-0.425,1.357-0.833,2.56-0.865c0.199-0.005,0.356-0.163,0.353-0.362c-0.006-0.199-0.17-0.326-0.371-0.333
			c-0.188,0.005-0.644,0.032-1.152,0.12c0.003-0.412-0.337-0.934-0.771-1.352c-0.604-0.58-1.447-0.658-1.481-0.66L15.96,7.204
			l0.056,0.441c0.004,0.036,0.115,0.877,0.717,1.457c0.229,0.218,0.459,0.392,0.684,0.515c-0.327,0.154-0.6,0.356-0.745,0.622
			c-0.104-0.146-0.062-0.296-0.155-0.449C16.316,9.484,16,9.183,16,8.945V6.418c0-0.842,1.428-7.168,2.117-7.168
			c-0.063,0-0.139,0-0.25,0l0,0l0.268-0.436L19-1.75h-1.133l0,0h0.117C17.92-1.75,18-1.941,18-2.007v-0.485
			c0-0.065-0.08-0.258-0.016-0.258h1.931C19.98-2.75,20-2.558,20-2.492v0.485c0,0.065-0.02,0.257-0.085,0.257H19v0.584
			c0,0,0.156-0.015,0.148-0.02C19.826-0.741,22,5.57,22,6.418V15.086z M18.07,9.383V9.104l0,0V9.383z M17.871,9.041
			c-0.165-0.076-0.396-0.227-0.639-0.459c-0.146-0.141-0.25-0.309-0.326-0.468c0.162,0.069,0.333,0.167,0.479,0.308
			C17.645,8.672,17.794,8.891,17.871,9.041z"/>
	</g>
	<path display="inline" fill="#FCB033" d="M6.367,3.593c-0.013,0.006-0.193-0.15,0.268-0.237c0.227-0.05,0.498-0.088,0.784-0.13
		c0.285-0.043,0.595-0.059,0.895-0.087l0.449-0.002c0.145,0.003,0.291-0.012,0.422,0.01c0.132,0.015,0.26,0.029,0.38,0.043
		c0.117,0.019,0.238,0.016,0.326,0.05c0.361,0.106,0.601,0.177,0.601,0.177S10.228,3.382,9.83,3.33
		C9.738,3.31,9.612,3.328,9.496,3.326C9.377,3.328,9.252,3.33,9.123,3.333C8.998,3.328,8.855,3.36,8.72,3.374L8.308,3.426
		c-0.277,0.062-0.549,0.108-0.8,0.178S7.026,3.735,6.834,3.803C6.448,3.927,5.686,4.121,5.67,4.124L6.367,3.593z"/>
	<path display="inline" fill="#FCB033" d="M7.372,2.62C7.359,2.626,7.174,2.447,7.635,2.359c0.227-0.051,0.498-0.088,0.784-0.13
		S9.015,2.176,9.315,2.15l0.451,0.007c0.146,0.007,0.292-0.006,0.425,0.022c0.132,0.019,0.261,0.038,0.382,0.056
		c0.118,0.023,0.24,0.023,0.329,0.063c0.364,0.127,0.606,0.212,0.606,0.212s-0.266-0.113-0.667-0.181
		c-0.092-0.024-0.218-0.08-0.336-0.08c-0.119,0-0.244,0-0.374,0c-0.125,0-0.268,0.093-0.404,0.105L9.316,2.439
		c-0.277,0.063-0.549,0.127-0.799,0.2c-0.25,0.073-0.48,0.145-0.671,0.218C7.46,2.989,6.699,3.193,6.684,3.196L7.372,2.62z"/>
	<rect x="33.001" y="-22.7" display="inline" fill="#FCB033" width="7.666" height="6.899"/>
</g>
<g id="toiletries" display="none">
	<path display="inline" fill="#FCB033" d="M23.922,11.688l-0.845-1.146c0.377-0.246,1.063-0.798,1.202-1.63
		c0.087-0.521-0.051-1.043-0.407-1.562l0.05-0.037l-0.891-1.209c0.359-0.271,0.734-0.657,0.789-1.127
		c0.029-0.241-0.035-0.586-0.385-0.921l0.043-0.081l-9.041-4.656c-0.317-0.31-0.881-0.726-1.688-0.831
		c-1.098-0.144-2.271,0.323-3.498,1.386L2.275,3.805l0.066,0.118L2.3,3.869L0.47,5.263l1.732,1.015l-1.06,1.228
		c-0.085,0.098-0.122,0.23-0.1,0.358c0.021,0.13,0.099,0.242,0.212,0.307l0.65,0.374L0.47,9.639l1.732,1.015l-1.06,1.229
		c-0.085,0.1-0.123,0.23-0.101,0.358c0.021,0.129,0.099,0.239,0.212,0.307l0.65,0.373L0.47,14.014l6.194,3.633
		c0.172,0.127,3.231,2.399,6.203,2.398c1.055,0,2.1-0.285,2.999-1.057l6.961-3.922c0.051-0.026,1.264-0.646,1.452-1.778
		c0.087-0.521-0.051-1.044-0.407-1.562L23.922,11.688z M2.83,4.564L2.794,4.517l6.928-3.903l0.074-0.051
		c1.036-0.907,1.982-1.313,2.83-1.209c0.365,0.046,0.657,0.183,0.881,0.333l-0.056,0.108l0.461,0.237
		c0.064,0.072,0.102,0.124,0.105,0.131L14.08,0.12l8.721,4.492l-0.018,0.022c0.082,0.064,0.176,0.159,0.166,0.243
		c-0.026,0.236-0.526,0.635-0.984,0.857l-6.642,3.813c-2.895,2.537-8.081-1.313-8.177-1.38l-5.11-2.999L2.83,4.564z M2.725,9.021
		l8.192,4.729c0.069,0.04,0.145,0.059,0.22,0.059c0.15,0,0.298-0.078,0.378-0.219c0.122-0.209,0.049-0.479-0.16-0.599L2.149,7.677
		L2.97,6.728l3.694,2.165c0.174,0.132,3.258,2.421,6.214,2.421c1.045,0,2.074-0.287,2.951-1.058l5.272-3.021l0.789,1.114
		l-8.649,4.152c-0.216,0.104-0.309,0.366-0.204,0.582c0.074,0.159,0.23,0.25,0.396,0.25c0.063,0,0.127-0.016,0.188-0.043
		l9.113-4.376c0.117-0.057,0.203-0.16,0.234-0.285c0.032-0.125,0.008-0.258-0.066-0.364L21.866,6.8l0.416-0.238l0.597,0.813
		l-0.068,0.068c0.467,0.476,0.672,0.919,0.606,1.322c-0.114,0.695-0.974,1.141-1,1.153l-7.019,3.955l-0.073,0.05
		c-2.895,2.536-8.081-1.313-8.177-1.381L2.037,9.544L2.725,9.021z M22.417,14.293l-7.019,3.955l-0.073,0.051
		c-2.895,2.534-8.081-1.314-8.177-1.383l-5.111-2.997l0.688-0.522l8.192,4.729c0.069,0.04,0.145,0.058,0.22,0.058
		c0.15,0,0.298-0.076,0.378-0.218c0.122-0.209,0.049-0.478-0.16-0.598L2.15,12.053l0.821-0.947l3.694,2.162
		c0.172,0.133,3.231,2.402,6.203,2.402c1.055,0,2.1-0.286,2.999-1.057l5.262-2.967l0.764,1.08l-8.647,4.149
		c-0.218,0.104-0.309,0.365-0.204,0.585c0.075,0.156,0.23,0.247,0.396,0.247c0.063,0,0.127-0.015,0.188-0.043l9.115-4.375
		c0.114-0.058,0.2-0.16,0.233-0.284c0.031-0.126,0.008-0.26-0.065-0.363l-1.015-1.429l0.42-0.233l0.565,0.771l-0.067,0.067
		c0.467,0.476,0.672,0.92,0.605,1.322C23.303,13.835,22.443,14.279,22.417,14.293z"/>
</g>
<g id="phone" display="none">
	<g display="inline">
		<path fill="#FCB033" d="M7.963-3.489c0.008,0.009,0.05,0.083,0.072,0.188c0.03,0.104,0.075,0.232,0.121,0.36L8.86-0.954
			c0.183,0.456,0.374,0.932,0.573,1.4c0.076,0.188,0.084,0.333,0.09,0.429L9.7,1.401L9.573,1.593C9.5,2.009,9.299,2.362,8.952,2.691
			C7.724,3.864,7.724,3.864,8.828,5.245c1.381,1.738,3.032,3.319,5.045,4.838c0.298,0.22,0.428,0.254,0.477,0.254
			c0.037,0,0.121-0.07,0.217-0.227c0.604-0.958,1.392-1.453,2.344-1.475l0.038-0.046l0.629,0.07
			c0.104,0.021,0.215,0.046,0.325,0.086l0.106,0.014l3.745,1.483c0.066,0.018,0.116,0.042,0.145,0.055l0.699,0.457l0.08,0.129
			c0.233,0.37,0.235,0.803,0.205,1.135c-0.27,3.34-3.307,6.078-6.771,6.092h-0.074c-1.188,0-2.298-0.293-3.306-0.873
			c-5.084-2.957-9.069-6.954-11.85-11.885c-1.09-1.94-1.172-4.205-0.229-6.215c0.942-2.001,2.801-3.43,4.979-3.824
			c0.632-0.114,1.129-0.074,1.524,0.15 M6.27-3.695c-0.137,0-0.287,0.018-0.452,0.047C3.951-3.309,2.418-2.13,1.61-0.413
			C0.812,1.284,0.885,3.194,1.804,4.833c2.685,4.764,6.54,8.629,11.455,11.487c0.847,0.484,1.78,0.73,2.777,0.73v0.53l0.067-0.53
			c2.933-0.012,5.496-2.31,5.725-5.125c0.042-0.453-0.051-0.512-0.148-0.568l-0.414-0.172l-3.638-1.422
			c-0.137-0.039-0.198-0.052-0.259-0.064l-0.082-0.017l-0.172,0.017l-0.141-0.005c-0.418,0-0.968,0.112-1.515,0.977
			c-0.297,0.479-0.67,0.724-1.11,0.724c-0.426,0-0.801-0.23-1.109-0.461c-2.09-1.579-3.803-3.221-5.238-5.026
			c-1.564-1.955-1.546-2.29,0.22-3.98c0.25-0.236,0.302-0.419,0.319-0.582l0.003-0.029L8.512,1.219
			C8.475,1.072,8.47,1.005,8.466,0.935C8.257,0.385,8.063-0.097,7.87-0.58L7.159-2.589c-0.054-0.152-0.107-0.305-0.15-0.458
			c0,0.003,0,0.005,0,0.005c-0.006,0-0.034-0.055-0.056-0.125L6.875-3.335C6.737-3.604,6.584-3.695,6.27-3.695z"/>
	</g>
</g>
<g id="car-park" display="none">
	<g display="inline">
		<path fill="#FCB033" d="M14.673,11.025c1.08,0.154,1.122,0.197,1.306,1.265c0.162,0.929,0.328,1.854,0.489,2.785
			c0.226,1.271-0.129,1.849-1.37,2.245c-0.344,1.783-0.732,2.193-2.027,2.14c-1.13-0.048-1.555-0.563-1.729-2.174
			c-0.821,0-1.656,0-2.49,0c-0.821,0-1.641,0-2.268,0c-0.336,0.688-0.511,1.354-0.928,1.782c-0.288,0.298-0.912,0.367-1.385,0.367
			c-1.089,0-1.492-0.556-1.637-2.063c-0.314-0.158-0.666-0.272-0.935-0.488c-0.494-0.397-0.637-0.95-0.523-1.571
			c0.182-1.008,0.366-2.013,0.544-3.02c0.188-1.068,0.224-1.105,1.28-1.268c0.095-0.7,0.153-1.418,0.294-2.121
			c0.311-1.544,1.582-2.691,3.152-2.759c1.562-0.068,3.131-0.08,4.693-0.009C13,6.223,14.32,7.57,14.514,9.437
			C14.564,9.952,14.617,10.471,14.673,11.025z M13.253,11.049c0.144-2.301-0.748-3.787-2.528-3.504
			c-0.137,1.086-0.26,1.195-1.36,1.198c-0.281,0.002-0.562,0-0.842,0c-1.304,0-1.316-0.011-1.583-1.238
			c-1.886-0.142-2.599,1.306-2.503,3.544C7.375,11.049,10.315,11.049,13.253,11.049z M4.034,13.236
			c-0.714,0.002-1.311,0.59-1.317,1.293c-0.006,0.713,0.643,1.344,1.359,1.322c0.7-0.021,1.291-0.637,1.278-1.336
			C5.342,13.807,4.749,13.23,4.034,13.236z M13.634,13.232c-0.714,0.011-1.295,0.602-1.292,1.313
			c0.004,0.703,0.604,1.303,1.305,1.307c0.728,0.002,1.354-0.636,1.33-1.354C14.952,13.79,14.352,13.223,13.634,13.232z"/>
	</g>
	<g display="inline">
		<g>
			<path fill="#FCB033" d="M21.8,3.901c0,0.573-0.181,1.011-0.538,1.315C20.902,5.52,20.395,5.67,19.732,5.67H19.25v1.894h-1.128
				V2.241h1.7c0.645,0,1.136,0.137,1.473,0.417C21.631,2.936,21.8,3.35,21.8,3.901z M19.25,4.747h0.371
				c0.348,0,0.605-0.071,0.779-0.206c0.172-0.138,0.259-0.337,0.259-0.601c0-0.265-0.07-0.46-0.216-0.585
				c-0.146-0.127-0.373-0.189-0.68-0.189H19.25V4.747z"/>
		</g>
	</g>
	<g display="inline">
		<path fill="#FCB033" d="M19.502,9.833c-2.904,0-5.268-2.364-5.268-5.27c0-2.905,2.361-5.269,5.268-5.269
			c2.907,0,5.271,2.363,5.271,5.269S22.407,9.833,19.502,9.833z M19.502,0.173c-2.42,0-4.393,1.97-4.393,4.391
			c0,2.422,1.973,4.393,4.393,4.393c2.421,0,4.393-1.97,4.393-4.393C23.895,2.143,21.923,0.173,19.502,0.173z"/>
	</g>
	<g display="inline">
		<rect x="18" y="9.25" fill="#FCB033" width="2" height="10"/>
	</g>
</g>
<g id="nosmoking" display="none">
	<g display="inline">
		<path fill="#FCB033" d="M14.318,7.094L23.9-2.489c0.347-0.344,0.347-0.903,0-1.249c-0.344-0.345-0.902-0.345-1.246,0L13.07,5.845
			L3.488-3.738c-0.345-0.345-0.903-0.345-1.248,0c-0.345,0.345-0.345,0.904,0,1.249l9.582,9.583L2.24,16.677
			c-0.345,0.343-0.345,0.903,0,1.248c0.172,0.173,0.398,0.259,0.624,0.259c0.226,0,0.452-0.086,0.624-0.259l9.583-9.582l9.584,9.582
			c0.173,0.173,0.396,0.259,0.623,0.259c0.226,0,0.451-0.086,0.623-0.259c0.348-0.345,0.348-0.905,0-1.248L14.318,7.094z"/>
		<path fill="#FCB033" d="M20.311,6.37l0.381-0.12H2.251C1.571,6.25,1,7.287,1,7.963v0.929c0,0.706,0.603,1.357,1.251,1.357h13.526
			h0.748h3.771c0.111,0,0.225,0.057,0.332,0.057c0.109,0,0.223-0.057,0.33-0.057h0.043l-0.384-0.037
			c0.399-0.137,0.38-0.505,0.38-0.906V7.418C21,6.915,20.816,6.399,20.311,6.37z M4,9.25v-2h12v2H4z M17,7.25h2.545
			c-0.021,0-1.42-0.375-1.545,0.168v1.889c0,0.05,1.521-0.057,1.531-0.057H17V7.25z M20,9.307c0,0.175-0.325,0.315-0.5,0.315
			c-0.174,0-0.5-0.141-0.5-0.315V7.418c0-0.174,0.326-0.316,0.5-0.316c0.175,0,0.5,0.142,0.5,0.316V9.307z"/>
		<g>
			<path fill="#FCB033" d="M2.002,5.76C1.756,5.751,1.675,5.584,1.777,5.378C1.961,5,2.06,4.6,1.98,4.188
				C1.923,3.897,1.816,3.611,1.693,3.341C1.4,2.701,1.359,2.054,1.586,1.391c0.041-0.116,0.095-0.228,0.15-0.336
				c0.065-0.125,0.168-0.19,0.305-0.128c0.14,0.065,0.159,0.18,0.111,0.328C2.06,1.531,1.953,1.809,1.912,2.093
				C1.847,2.535,2.004,2.938,2.202,3.33C2.47,3.862,2.54,4.422,2.395,5c-0.05,0.204-0.13,0.402-0.219,0.593
				C2.138,5.673,2.042,5.724,2.002,5.76z"/>
		</g>
		<g>
			<path fill="#FCB033" d="M0.771,4.888c-0.237,0-0.313-0.155-0.247-0.355c0.087-0.263,0.188-0.528,0.23-0.799
				c0.068-0.448-0.083-0.86-0.284-1.257C0.154,1.848,0.123,1.195,0.351,0.53c0.04-0.115,0.093-0.227,0.147-0.337
				c0.066-0.134,0.174-0.202,0.317-0.131c0.146,0.071,0.14,0.194,0.098,0.334C0.826,0.687,0.721,0.979,0.68,1.277
				C0.621,1.697,0.779,2.08,0.964,2.453C1.283,3.089,1.311,3.748,1.08,4.419c-0.039,0.115-0.089,0.23-0.155,0.333
				C0.882,4.818,0.803,4.861,0.771,4.888z"/>
		</g>
	</g>
</g>
<g id="flat-screen-tv" display="none">
	<g display="inline">
		<path fill="#FCB033" d="M25,17.25H0v-14h25V17.25z M1,16.25h23v-12H1V16.25z"/>
	</g>
	<g display="inline">
		<rect x="2" y="5.25" fill="#FCB033" width="21" height="10"/>
	</g>
	<g display="inline">
		<rect x="2" y="18.25" fill="#FCB033" width="21" height="1"/>
	</g>
</g>
<g id="cctv" display="none">
	<path display="inline" fill="#FCB033" d="M23.882,3.833L9.279-2.273C8.295-2.685,7.693-2.521,7.441-1.915L5.796,2.017
		C5.795,2.019,5.795,2.021,5.794,2.024L5.205,3.432c-0.336,0.806,0.103,1.73,0.999,2.105l4.997,2.145L6,12.764V9.638
		c0-0.2,0.071-0.212-0.051-0.335C5.742,9.098,6.375,9.375,5.288,9.25H2.306c-0.165,0-0.684-0.152-0.833-0.004
		C1.321,9.398,1,9.438,1,9.638v8.206c0,0.309,0.642,1.406,1.357,1.406h2.931C5.849,19.25,6,18.375,6,17.844V15.25h0.478
		c0.019,0,0.068-0.046,0.103-0.033c0.091,0.033,0.228,0.051,0.382,0.051c0.077,0,0.158-0.027,0.24-0.063
		c0.372-0.057,0.655-0.295,0.76-0.627l5.871-5.845l5.497,2.294c0.26,0.109,0.528,0.16,0.786,0.16c0.512,0,0.979-0.209,1.273-0.568
		l0.758,0.314l0.16,0.033c0.332,0,0.441-0.318,0.562-0.655c0.021-0.061,0.04-0.117,0.057-0.158l0.527-1.262
		c0.019-0.042,0.04-0.08,0.058-0.112c0.063-0.108,0.15-0.271,0.082-0.467l-0.083-0.187l-0.856-0.359l0.169-0.401
		c1.081-0.017,1.325-0.134,1.434-0.389l0.662-1.584C25.102,4.956,25.068,4.331,23.882,3.833z M5,17.844
		c0,0.162,0.35-0.594,0.288,0.406H2.433C2.413,17.25,2,17.92,2,17.844V10.25h3.341C5.389,10.25,5,9.719,5,9.721v2.529H4.116
		C3.584,12.25,3,13.205,3,13.741v0.586c0,0.235,0.275,0.923,1.116,0.923H5V17.844z M7.254,14.188l-0.021,0.123
		c-0.003,0.025-0.017,0.105-0.172,0.117l-0.096,0.008l-0.032,0.021c-0.026-0.008-0.058-0.066-0.082-0.077
		c-0.098-0.037-0.221-0.13-0.363-0.13h-0.22H5.497h-1.38C3.967,14.25,4,14.324,4,14.327v-0.586c0-0.168,0.076-0.491,0.116-0.491
		H6.55l5.553-5.408l0.961,0.482L7.254,14.188z M19.629,10.314L6.501,4.826C5.995,4.614,5.743,4.142,5.916,3.729l0.151-0.362
		c0.17,0.199,0.39,0.37,0.659,0.482l7.004,2.8c0.555,0.232,5.59,0.656,8.259,0.713L21.65,8.17l-0.518,1.232
		c-0.001,0.004-0.004,0.008-0.005,0.011l-0.239,0.575C20.723,10.389,20.156,10.535,19.629,10.314z M22.727,8.634l-0.51,1.222
		c-0.021,0.052-0.049,0.125-0.074,0.203c-0.004,0.01-0.008,0.02-0.012,0.032l-0.355-0.149c0.02-0.084,0.045-0.179,0.068-0.239
		l0.514-1.225L22.727,8.634z M24.207,5.095L23.6,6.545c-0.123,0.022-0.414,0.053-1.062,0.053c-2.687,0-8.065-0.504-8.517-0.663
		l-7.003-2.8c-0.394-0.164-0.626-0.54-0.511-0.821l0.653-1.56l0,0l0.992-2.372c0.029-0.071,0.057-0.114,0.197-0.114
		c0.15,0,0.363,0.057,0.632,0.17l14.602,6.105C24.311,4.848,24.232,5.034,24.207,5.095z"/>
</g>
<g id="air-con" display="none">
	<g display="inline">
		<path fill="#FCB033" d="M24.645,12.875c-0.104,0.238-0.293,0.305-0.543,0.305c-7.853-0.002-15.706-0.002-23.559,0
			c-0.249,0-0.439-0.064-0.543-0.305c0-2.873,0-5.745,0-8.616C0.055,4.11,0.095,3.953,0.167,3.813
			c0.329-0.645,0.87-0.922,1.584-0.92c2.478,0.005,4.955,0.002,7.433,0.002c4.542,0,9.091-0.003,13.636,0.008
			c0.312,0,0.643,0.061,0.929,0.177c0.515,0.208,0.749,0.67,0.896,1.179C24.645,7.13,24.645,10.002,24.645,12.875z M23.43,3.827
			c0,0.16,0.006,0.271,0,0.382c-0.031,0.497-0.304,0.869-0.742,0.986c-0.158,0.042-0.332,0.051-0.498,0.051
			C15.611,5.249,9.037,5.248,2.46,5.248c-0.112,0-0.224-0.005-0.335-0.018C1.662,5.176,1.312,4.843,1.241,4.38
			C1.215,4.21,1.212,4.037,1.196,3.832c-0.305,0.21-0.383,0.481-0.383,0.803c0.003,2.494,0.002,4.988,0.002,7.481
			c0,0.079,0,0.155,0,0.233c0.147,0,0.263,0,0.4,0c0-0.104,0-0.189,0-0.277c0-0.568-0.007-1.139,0.001-1.707
			C1.226,9.674,1.645,9.26,2.335,9.26c6.655-0.002,13.312-0.002,19.968,0c0.702,0,1.117,0.416,1.125,1.124
			c0.006,0.569,0.002,1.138,0.002,1.708c0,0.086,0,0.172,0,0.26c0.148,0,0.264,0,0.397,0c0-0.104,0-0.189,0-0.275
			c0-2.463,0-4.925,0-7.386c0-0.088,0.003-0.178-0.009-0.265C23.789,4.184,23.688,3.985,23.43,3.827z M1.774,3.715
			c0,0.204-0.013,0.38,0.003,0.553C1.801,4.52,1.966,4.669,2.219,4.695c0.08,0.008,0.16,0.006,0.241,0.006
			c6.576,0.001,13.153,0.001,19.729,0c0.098,0,0.211,0.026,0.283-0.018c0.143-0.086,0.318-0.191,0.368-0.328
			c0.068-0.191,0.033-0.418,0.044-0.64C15.827,3.715,8.813,3.715,1.774,3.715z M22.867,10.896c-7.038,0-14.056,0-21.088,0
			c0,0.178,0,0.34,0,0.515c7.036,0,14.056,0,21.088,0C22.867,11.239,22.867,11.082,22.867,10.896z M1.787,10.314
			c7.026,0,14.05,0,21.078,0c-0.021-0.38-0.198-0.52-0.639-0.52c-6.602,0-13.2,0-19.797,0c-0.088,0-0.177,0.001-0.263,0.019
			C1.905,9.867,1.785,10.029,1.787,10.314z M1.777,12.348c7.05,0,14.069,0,21.087,0c0-0.137,0-0.252,0-0.373
			c-7.038,0-14.058,0-21.087,0C1.777,12.104,1.777,12.221,1.777,12.348z"/>
		<path fill="#FCB033" d="M14.848,20.249c-0.289-0.013-0.384-0.207-0.264-0.448c0.215-0.443,0.33-0.912,0.236-1.396
			c-0.066-0.338-0.19-0.674-0.336-0.99c-0.342-0.75-0.393-1.51-0.123-2.285c0.047-0.137,0.106-0.27,0.175-0.396
			c0.073-0.146,0.196-0.222,0.356-0.146c0.164,0.075,0.186,0.21,0.129,0.385c-0.104,0.322-0.23,0.646-0.28,0.981
			c-0.076,0.517,0.108,0.989,0.34,1.448c0.315,0.623,0.396,1.281,0.228,1.959c-0.06,0.238-0.15,0.473-0.256,0.692
			C15.007,20.146,14.895,20.207,14.848,20.249z"/>
		<path fill="#FCB033" d="M12.385,20.246c-0.278,0-0.367-0.182-0.29-0.417c0.102-0.308,0.221-0.619,0.269-0.937
			c0.081-0.525-0.097-1.01-0.332-1.477c-0.372-0.734-0.407-1.502-0.141-2.281C11.937,15,12,14.869,12.063,14.741
			c0.077-0.156,0.203-0.236,0.373-0.154c0.169,0.082,0.163,0.229,0.113,0.394c-0.101,0.342-0.225,0.683-0.273,1.03
			c-0.068,0.492,0.116,0.942,0.335,1.38c0.374,0.744,0.407,1.519,0.136,2.305c-0.047,0.136-0.104,0.271-0.182,0.39
			C12.516,20.163,12.422,20.215,12.385,20.246z"/>
		<path fill="#FCB033" d="M12.343,8.167c0.386,0,0.771-0.006,1.155,0.002c0.271,0.006,0.434,0.228,0.29,0.402
			c-0.071,0.087-0.233,0.136-0.354,0.138c-0.738,0.014-1.477,0.008-2.215,0.008c-0.008,0-0.016,0-0.024,0
			c-0.187-0.006-0.373-0.029-0.375-0.271c-0.001-0.238,0.177-0.278,0.367-0.278C11.573,8.166,11.958,8.167,12.343,8.167z"/>
		<path fill="#FCB033" d="M22.048,8.507c-0.103,0.065-0.196,0.171-0.304,0.188c-0.155,0.025-0.26-0.092-0.262-0.249
			c0-0.168,0.108-0.287,0.272-0.26c0.104,0.018,0.195,0.134,0.292,0.208C22.048,8.432,22.048,8.469,22.048,8.507z"/>
		<path fill="#FCB033" d="M20.802,8.492c-0.099,0.071-0.186,0.18-0.294,0.203c-0.154,0.033-0.261-0.084-0.271-0.236
			c-0.008-0.17,0.102-0.294,0.265-0.273c0.104,0.013,0.2,0.127,0.3,0.196C20.8,8.418,20.801,8.455,20.802,8.492z"/>
		<path fill="#FCB033" d="M9.925,20.25c-0.275-0.011-0.377-0.182-0.306-0.382c0.081-0.233,0.188-0.461,0.244-0.699
			c0.126-0.543,0.044-1.067-0.212-1.562c-0.358-0.685-0.506-1.396-0.314-2.156c0.057-0.23,0.155-0.452,0.244-0.672
			c0.066-0.168,0.189-0.278,0.375-0.196c0.196,0.087,0.195,0.255,0.109,0.426c-0.27,0.536-0.349,1.101-0.195,1.681
			c0.069,0.261,0.191,0.506,0.302,0.752c0.393,0.865,0.382,1.723-0.033,2.57C10.086,20.119,9.974,20.197,9.925,20.25z"/>
		<path fill="#FCB033" d="M14.848,20.249c-0.289-0.013-0.384-0.207-0.264-0.448c0.215-0.443,0.33-0.912,0.236-1.396
			c-0.066-0.338-0.19-0.674-0.336-0.99c-0.342-0.75-0.393-1.51-0.123-2.285c0.047-0.137,0.106-0.27,0.175-0.396
			c0.073-0.146,0.196-0.222,0.356-0.146c0.164,0.075,0.186,0.21,0.129,0.385c-0.104,0.322-0.23,0.646-0.28,0.981
			c-0.076,0.517,0.108,0.989,0.34,1.448c0.315,0.623,0.396,1.281,0.228,1.959c-0.06,0.238-0.15,0.473-0.256,0.692
			C15.007,20.146,14.895,20.207,14.848,20.249z"/>
		<path fill="#FCB033" d="M12.385,20.246c-0.278,0-0.367-0.182-0.29-0.417c0.102-0.308,0.221-0.619,0.269-0.937
			c0.081-0.525-0.097-1.01-0.332-1.477c-0.372-0.734-0.407-1.502-0.141-2.281C11.937,15,12,14.869,12.063,14.741
			c0.077-0.156,0.203-0.236,0.373-0.154c0.169,0.082,0.163,0.229,0.113,0.394c-0.101,0.342-0.225,0.683-0.273,1.03
			c-0.068,0.492,0.116,0.942,0.335,1.38c0.374,0.744,0.407,1.519,0.136,2.305c-0.047,0.136-0.104,0.271-0.182,0.39
			C12.516,20.163,12.422,20.215,12.385,20.246z"/>
	</g>
</g>
<g id="wi-fi" display="none">
	<g display="inline">
		<g>
			<g>
				<path fill="#FCB033" d="M4.812,19.415c-2.294,0-4.161-1.866-4.161-4.162s1.867-4.164,4.161-4.164
					c2.296,0,4.163,1.868,4.163,4.164S7.108,19.415,4.812,19.415z M4.812,12.448c-1.544,0-2.801,1.258-2.801,2.805
					c0,1.545,1.257,2.804,2.801,2.804c1.545,0,2.803-1.259,2.803-2.804C7.615,13.706,6.357,12.448,4.812,12.448z"/>
			</g>
		</g>
		<g>
			<g>
				<path fill="#FCB033" d="M17.822,20.25c-0.006,0-0.016,0-0.026,0H14.58c-0.375,0-0.68-0.109-0.68-0.486
					c0-7.865-5.658-13.699-13.406-13.699C0.119,6.064,0,5.857,0,5.482V2.266c0-0.375,0.119-0.68,0.495-0.68
					c9.783,0,17.964,8.304,18.073,18.178c0.02,0.063-0.02-0.064-0.02,0C18.55,20.141,18.198,20.25,17.822,20.25z M15.247,19.25
					h1.854C16.746,10.25,10,3.326,1,2.96v1.855C8,5.143,14.93,10.25,15.247,19.25z"/>
			</g>
		</g>
		<g>
			<g>
				<path fill="#FCB033" d="M24.127,20.25c-0.006,0-0.018,0-0.027,0h-3.213c-0.376,0-0.681-0.109-0.681-0.486
					c0-10.521-9.297-20.005-19.711-20.005C0.119-0.241,0-0.448,0-0.824V-4.04c0-0.375,0.119-0.68,0.495-0.68
					c13.887,0,24.28,10.512,24.377,24.484c0.019,0.063-0.019-0.065-0.019,0C24.854,20.141,24.503,20.25,24.127,20.25z M21.555,19.25
					h1.856C23.086,6.25,13-3.019,1-3.351v1.86C12-1.095,21.164,8.25,21.555,19.25z"/>
			</g>
		</g>
	</g>
</g>
<g id="video-phone" display="none">
	<g display="inline">
		<path fill="#FCB033" d="M21-2.897v20.733c0,0.494-0.727,1.414-1.33,1.414H5.738C5.134,19.25,4,18.33,4,17.836V-2.897
			C4-3.412,5.189-3.75,5.738-3.75H19.67C20.219-3.75,21-3.412,21-2.897z M5,17.836c0,0.131,0.724,0.414,0.738,0.414H20
			c0,0,0-0.283,0-0.414V-2.897c0-0.136,0,0.147,0,0.147H5.738C5.558-2.75,5-3.033,5-2.897V17.836z"/>
	</g>
	<g display="inline">
		<path fill="#FCB033" d="M16.82-1.75H8.076C7.605-1.75,8-1.076,8-0.527V9.896c0,0.55-0.395,0.354,0.076,0.354h8.744
			c0.492,0,0.18,0.153,0.18-0.354V-0.527C17-1.034,17.313-1.75,16.82-1.75z M16.82,10.25h-0.609c-0.141-2-1.746-3.452-3.711-3.452
			S8.929,8.25,8.789,10.25H8.076C7.924,10.25,8,10.011,8,9.896V-0.527C8-0.641,7.924-0.75,8.076-0.75h8.744
			c0.154,0,0.18,0.055,0.18,0.223V9.896C17,10.064,16.975,10.25,16.82,10.25z"/>
		<circle fill="#FCB033" cx="12.216" cy="3.808" r="1.984"/>
	</g>
	<g display="inline">
		<path fill="#FCB033" d="M7,10.25v-12h11v12H7z M8-1.75v12h9v-12H8z"/>
	</g>
	<rect x="7" y="9.25" display="inline" fill="#FCB033" width="11" height="1"/>
	<path display="inline" fill="#E7A723" d="M7.676,17.32v0.007l0.105-0.044c0.023-0.014,0.04-0.014,0.061-0.027
		c0.017-0.003,0.029-0.014,0.042-0.02l1.605-0.688l0.069-0.047c0.038-0.02,0.071-0.04,0.104-0.063l0.106-0.069l-0.003-0.027
		c0.279-0.241,0.408-0.571,0.296-1.071c-0.083-0.357,0.111-0.455,0.431-0.504c1.073-0.147,2.146-0.188,3.22-0.063
		c0.995,0.111,1.013,0.118,0.987,1.104c-0.006,0.198,0.049,0.332,0.137,0.441l0.008,0.037l0.125,0.061
		c0.051,0.032,0.074,0.073,0.146,0.104c0.213,0.087,0.429,0.179,0.644,0.271l0.771,0.369c0.09,0.044,0.182,0.084,0.269,0.135
		c0.021,0.014,0.038,0.013,0.06,0.021l0.129,0.063l-0.008-0.017c0.313,0.103,0.508-0.039,0.709-0.328
		c1.107-1.593,0.342-3.827-1.555-4.362c-2.479-0.694-4.973-0.679-7.461-0.023c-0.484,0.13-0.903,0.379-1.254,0.738
		C6.39,14.35,6.302,16.04,7.209,17.107C7.351,17.283,7.485,17.368,7.676,17.32z"/>
</g>
</svg>
