<?xml version="1.0" encoding="utf-8"?>
<!-- Generator: Adobe Illustrator 16.0.0, SVG Export Plug-In . SVG Version: 6.00 Build 0)  -->
<!DOCTYPE svg PUBLIC "-//W3C//DTD SVG 1.1//EN" "http://www.w3.org/Graphics/SVG/1.1/DTD/svg11.dtd">
<svg version="1.1" id="Layer_1" xmlns="http://www.w3.org/2000/svg" xmlns:xlink="http://www.w3.org/1999/xlink" x="0px" y="0px"
	 width="95px" height="95px" viewBox="0 0 95 95" enable-background="new 0 0 95 95" xml:space="preserve">
<g>
	<circle cx="47.852" cy="47.499" r="46.074"/>
	<path fill="#708F34" d="M47.851,94.454c-25.888,0-46.952-21.063-46.952-46.955c0-25.892,21.064-46.954,46.952-46.954
		c25.891,0,46.954,21.062,46.954,46.954C94.805,73.393,73.742,94.454,47.851,94.454z M47.851,2.303
		c-24.918,0-45.194,20.274-45.194,45.196s20.276,45.197,45.194,45.197c24.922,0,45.197-20.275,45.197-45.197
		C93.048,22.578,72.773,2.303,47.851,2.303z"/>
</g>
<g>
	<path fill="#FFFFFF" d="M28.166,71.282l-0.705-1.959h-2.695l-0.69,1.959H22.86l2.637-7.08h1.253l2.637,7.08H28.166z M27.157,68.331
		l-0.662-1.918c-0.047-0.127-0.113-0.33-0.198-0.609c-0.085-0.273-0.144-0.479-0.177-0.605c-0.087,0.396-0.213,0.827-0.381,1.299
		l-0.636,1.836L27.157,68.331L27.157,68.331z"/>
	<path fill="#FFFFFF" d="M33.318,65.118c-0.661,0-1.184,0.235-1.563,0.705c-0.379,0.471-0.568,1.116-0.568,1.942
		c0,0.862,0.182,1.519,0.546,1.963c0.364,0.442,0.894,0.664,1.583,0.664c0.299,0,0.588-0.028,0.868-0.089
		c0.28-0.061,0.569-0.137,0.873-0.229v0.989c-0.553,0.207-1.179,0.313-1.879,0.313c-1.032,0-1.824-0.313-2.378-0.938
		c-0.554-0.623-0.83-1.52-0.83-2.684c0-0.73,0.134-1.375,0.403-1.924c0.269-0.551,0.656-0.973,1.164-1.266
		c0.508-0.291,1.105-0.438,1.791-0.438c0.72,0,1.384,0.15,1.996,0.451l-0.416,0.961c-0.237-0.113-0.488-0.213-0.753-0.297
		C33.891,65.163,33.611,65.118,33.318,65.118z"/>
	<path fill="#FFFFFF" d="M39.013,71.282h-1.154V65.22h-2.073V64.23h5.298v0.989h-2.073L39.013,71.282L39.013,71.282z"/>
	<path fill="#FFFFFF" d="M42.165,71.282V64.23h1.154v7.052H42.165z"/>
	<path fill="#FFFFFF" d="M49.195,64.23h1.197l-2.471,7.052h-1.215l-2.459-7.052h1.186l1.471,4.384
		c0.077,0.211,0.16,0.479,0.247,0.809c0.086,0.33,0.142,0.576,0.167,0.738c0.042-0.246,0.106-0.527,0.192-0.851
		c0.088-0.321,0.158-0.563,0.212-0.716L49.195,64.23z"/>
	<path fill="#FFFFFF" d="M51.322,71.282V64.23h1.152v7.052H51.322z"/>
	<path fill="#FFFFFF" d="M56.771,71.282H55.62V65.22h-2.074V64.23h5.298v0.989H56.77L56.771,71.282L56.771,71.282z"/>
	<path fill="#FFFFFF" d="M59.925,71.282V64.23h1.151v7.052H59.925z"/>
	<path fill="#FFFFFF" d="M66.925,71.282h-3.985V64.23h3.985v0.976H64.09v1.918h2.655v0.967H64.09v2.213h2.835V71.282z"/>
	<path fill="#FFFFFF" d="M72.514,69.366c0,0.629-0.228,1.118-0.68,1.477c-0.454,0.357-1.078,0.535-1.876,0.535
		s-1.45-0.123-1.958-0.371v-1.09c0.32,0.149,0.663,0.271,1.023,0.356c0.361,0.089,0.699,0.132,1.012,0.132
		c0.456,0,0.794-0.084,1.01-0.263c0.217-0.175,0.325-0.405,0.325-0.696c0-0.265-0.101-0.486-0.3-0.671
		c-0.198-0.185-0.609-0.399-1.233-0.651c-0.644-0.262-1.096-0.558-1.36-0.894c-0.264-0.334-0.395-0.735-0.395-1.205
		c0-0.588,0.209-1.049,0.626-1.387c0.418-0.339,0.979-0.507,1.683-0.507c0.676,0,1.349,0.146,2.017,0.441l-0.365,0.938
		c-0.626-0.263-1.188-0.396-1.681-0.396c-0.371,0-0.653,0.084-0.848,0.246c-0.195,0.161-0.289,0.377-0.289,0.643
		c0,0.185,0.037,0.341,0.114,0.472c0.078,0.129,0.206,0.252,0.381,0.369c0.179,0.112,0.495,0.269,0.955,0.454
		c0.519,0.218,0.897,0.421,1.138,0.605c0.242,0.186,0.418,0.396,0.53,0.631C72.457,68.771,72.514,69.05,72.514,69.366z"/>
</g>
<g>
	<path fill="#708F34" d="M51.018,43.469c-0.045,0.108-0.078,0.193-0.111,0.278c-0.729,1.8-1.461,3.602-2.188,5.403
		c-0.297,0.736-0.58,1.479-0.619,2.289c-0.025,0.645,0.254,1.068,0.791,1.162c0.346,0.061,0.678-0.037,0.903-0.275
		c0.409-0.436,0.856-0.865,1.138-1.381c1.289-2.357,2.529-4.741,3.784-7.118c0.543-1.031,0.319-1.91-0.643-2.57
		c-1.354-0.928-2.706-1.856-4.056-2.782c-0.093-0.062-0.18-0.128-0.285-0.203c1.074-1.722,2.133-3.416,3.225-5.162
		c0.104,0.231,0.182,0.395,0.255,0.559c0.386,0.843,0.741,1.698,1.17,2.519c0.272,0.522,0.731,0.813,1.373,0.785
		c1.437-0.062,2.875-0.064,4.308-0.145c0.563-0.031,1.121-0.178,1.668-0.319c0.297-0.079,0.511-0.314,0.514-0.652
		c0.006-0.373-0.128-0.688-0.486-0.845c-0.188-0.083-0.385-0.156-0.581-0.176c-1.358-0.133-2.718-0.255-4.075-0.363
		c-0.246-0.021-0.375-0.097-0.477-0.329c-0.614-1.417-1.25-2.83-1.868-4.249c-0.175-0.404-0.423-0.717-0.809-0.953
		c-0.718-0.443-1.399-0.946-2.11-1.404c-0.23-0.152-0.495-0.292-0.764-0.354c-1.639-0.373-3.279-0.723-4.917-1.085
		c-0.556-0.122-1.035-0.006-1.485,0.348c-1.275,1.001-2.568,1.978-3.842,2.979c-0.311,0.242-0.596,0.525-0.853,0.827
		c-0.157,0.188-0.279,0.43-0.341,0.667c-0.141,0.544,0.204,0.944,0.759,0.878c0.309-0.035,0.634-0.106,0.906-0.245
		c1.406-0.716,2.8-1.451,4.187-2.208c0.354-0.189,0.671-0.252,1.063-0.151c0.775,0.197,1.563,0.351,2.385,0.53
		c-0.082,0.128-0.14,0.221-0.199,0.313c-1.169,1.739-2.35,3.476-3.509,5.224c-0.265,0.397-0.494,0.822-0.685,1.257
		c-0.598,1.365-0.243,2.433,1.049,3.323c1.727,1.191,3.491,2.326,5.24,3.484C50.889,43.365,50.941,43.41,51.018,43.469z
		 M43.135,39.734c-0.063,0.081-0.127,0.162-0.187,0.243c-0.446,0.617-0.886,1.243-1.346,1.855c-0.077,0.104-0.237,0.197-0.365,0.206
		c-1.919,0.138-3.842,0.254-5.762,0.389c-0.562,0.038-1.121,0.112-1.574,0.496c-0.537,0.454-0.509,1.257,0.064,1.658
		c0.172,0.121,0.375,0.234,0.576,0.267c0.792,0.125,1.588,0.241,2.387,0.307c1.748,0.136,3.496,0.234,5.245,0.352
		c0.677,0.045,1.272-0.174,1.671-0.708c0.629-0.835,1.197-1.717,1.798-2.594C44.721,41.451,43.71,40.827,43.135,39.734z
		 M55.646,27.354c1.537,0.012,2.822-1.262,2.852-2.83c0.029-1.537-1.251-2.832-2.821-2.85c-1.563-0.021-2.866,1.266-2.866,2.834
		C52.809,26.053,54.092,27.34,55.646,27.354z"/>
	<path fill="#708F34" d="M51.018,43.469c-0.076-0.06-0.129-0.104-0.188-0.145c-1.748-1.158-3.513-2.294-5.24-3.484
		c-1.292-0.89-1.647-1.959-1.049-3.323c0.19-0.436,0.42-0.86,0.685-1.257c1.161-1.748,2.339-3.484,3.508-5.224
		c0.063-0.091,0.117-0.184,0.199-0.313c-0.822-0.18-1.608-0.333-2.384-0.53c-0.392-0.101-0.709-0.04-1.063,0.151
		c-1.386,0.756-2.781,1.491-4.187,2.208c-0.273,0.138-0.598,0.209-0.906,0.245c-0.555,0.064-0.9-0.334-0.759-0.878
		c0.063-0.237,0.185-0.48,0.341-0.667c0.257-0.302,0.542-0.584,0.853-0.827c1.273-1.001,2.566-1.978,3.842-2.979
		c0.45-0.354,0.93-0.47,1.485-0.348c1.638,0.363,3.279,0.713,4.917,1.085c0.269,0.062,0.53,0.201,0.764,0.354
		c0.711,0.458,1.394,0.959,2.11,1.404c0.386,0.236,0.634,0.549,0.809,0.953c0.617,1.419,1.253,2.831,1.868,4.249
		c0.101,0.232,0.229,0.31,0.476,0.329c1.358,0.108,2.717,0.231,4.076,0.363c0.197,0.02,0.396,0.093,0.581,0.176
		c0.358,0.157,0.492,0.472,0.486,0.845c-0.003,0.337-0.216,0.572-0.513,0.652c-0.547,0.143-1.106,0.289-1.668,0.319
		c-1.434,0.079-2.871,0.083-4.309,0.145c-0.645,0.027-1.104-0.264-1.373-0.785c-0.429-0.822-0.783-1.676-1.17-2.519
		c-0.072-0.164-0.148-0.327-0.255-0.559c-1.092,1.748-2.149,3.44-3.226,5.162c0.106,0.074,0.193,0.142,0.285,0.203
		c1.351,0.926,2.703,1.854,4.057,2.782c0.962,0.661,1.186,1.539,0.643,2.57c-1.255,2.377-2.494,4.76-3.783,7.117
		c-0.281,0.517-0.729,0.947-1.139,1.382c-0.229,0.237-0.561,0.336-0.9,0.274c-0.539-0.095-0.82-0.521-0.791-1.162
		c0.037-0.812,0.319-1.55,0.615-2.289c0.729-1.8,1.457-3.603,2.188-5.402C50.939,43.663,50.973,43.578,51.018,43.469z"/>
	<path fill="#708F34" d="M43.135,39.734c0.574,1.093,1.584,1.717,2.508,2.467c-0.602,0.877-1.169,1.759-1.798,2.594
		c-0.4,0.535-0.994,0.753-1.671,0.708c-1.749-0.116-3.498-0.215-5.245-0.352c-0.799-0.065-1.595-0.182-2.387-0.306
		c-0.201-0.032-0.404-0.146-0.576-0.267c-0.572-0.4-0.6-1.204-0.064-1.659c0.452-0.383,1.013-0.458,1.574-0.495
		c1.92-0.134,3.843-0.25,5.762-0.389c0.128-0.008,0.288-0.103,0.365-0.205c0.46-0.611,0.9-1.238,1.346-1.855
		C43.008,39.896,43.072,39.814,43.135,39.734z"/>
	<path fill="#708F34" d="M55.646,27.354c-1.556-0.014-2.838-1.301-2.838-2.847c0-1.568,1.305-2.854,2.866-2.834
		c1.57,0.02,2.853,1.314,2.821,2.85C58.47,26.092,57.184,27.366,55.646,27.354z"/>
</g>
</svg>
