<?xml version="1.0" encoding="utf-8"?>
<!-- Generator: Adobe Illustrator 16.0.0, SVG Export Plug-In . SVG Version: 6.00 Build 0)  -->
<!DOCTYPE svg PUBLIC "-//W3C//DTD SVG 1.1//EN" "http://www.w3.org/Graphics/SVG/1.1/DTD/svg11.dtd">
<svg version="1.1" id="Layer_1" xmlns="http://www.w3.org/2000/svg" xmlns:xlink="http://www.w3.org/1999/xlink" x="0px" y="0px"
	 width="25.438px" height="21.703px" viewBox="0 0 25.438 21.703" enable-background="new 0 0 25.438 21.703" xml:space="preserve">
<g id="Layer_2" display="none">
	<g display="inline">
		<path fill="#FCB033" d="M81.734-111.915c1.603,0.229,1.66,0.294,1.938,1.875c0.239,1.376,0.479,2.752,0.725,4.129
			c0.334,1.887-0.188,2.743-2.029,3.331c-0.512,2.644-1.092,3.253-3.01,3.172c-1.678-0.07-2.309-0.835-2.563-3.224
			c-1.217,0-2.455,0-3.69,0c-1.218,0-2.434,0-3.361,0c-0.497,1.02-0.76,2.006-1.375,2.645c-0.43,0.44-1.354,0.546-2.057,0.546
			c-1.615-0.001-2.213-0.823-2.429-3.061c-0.467-0.236-0.987-0.406-1.391-0.727c-0.729-0.588-0.941-1.412-0.773-2.332
			c0.271-1.491,0.543-2.981,0.808-4.477c0.278-1.584,0.334-1.643,1.897-1.875c0.142-1.043,0.228-2.108,0.438-3.148
			c0.462-2.288,2.35-3.99,4.677-4.091c2.313-0.101,4.645-0.119,6.961-0.014c2.765,0.125,4.724,2.123,5.008,4.893
			C81.574-113.507,81.65-112.739,81.734-111.915z M79.627-111.88c0.213-3.413-1.111-5.618-3.75-5.199
			c-0.202,1.612-0.385,1.771-2.021,1.773c-0.416,0.004-0.832,0.001-1.248,0.001c-1.936-0.001-1.948-0.014-2.348-1.834
			c-2.798-0.211-3.854,1.938-3.714,5.259C70.909-111.88,75.27-111.88,79.627-111.88z M65.955-108.64
			c-1.063,0.006-1.943,0.876-1.953,1.922c-0.01,1.057,0.953,1.99,2.016,1.96c1.039-0.029,1.914-0.943,1.896-1.981
			C67.896-107.794,67.018-108.645,65.955-108.64z M80.191-108.642c-1.062,0.017-1.924,0.893-1.916,1.944
			c0.01,1.043,0.896,1.932,1.938,1.938c1.075,0.005,2.006-0.941,1.97-2.006C82.146-107.818,81.258-108.657,80.191-108.642z"/>
	</g>
	<g display="inline">
		<path fill="#FCB033" d="M86.5-98.688c-0.275,0-0.5-0.224-0.5-0.5v-14c0-0.275,0.225-0.5,0.5-0.5c0.272,0,0.5,0.225,0.5,0.5v14
			C87-98.911,86.775-98.688,86.5-98.688z"/>
	</g>
	<g display="inline">
		<path fill="#FCB033" d="M88.5-98.688c-0.275,0-0.5-0.224-0.5-0.5v-14c0-0.275,0.225-0.5,0.5-0.5c0.272,0,0.5,0.225,0.5,0.5v14
			C89-98.911,88.775-98.688,88.5-98.688z"/>
	</g>
	<g display="inline">
		<g>
			<path fill="#FCB033" d="M90.541-120.135c0,0.704-0.224,1.243-0.662,1.618c-0.439,0.373-1.066,0.56-1.88,0.56h-0.6v2.33h-1.389
				v-6.551h2.094c0.795,0,1.396,0.17,1.813,0.514C90.334-121.322,90.541-120.813,90.541-120.135z M87.402-119.094h0.457
				c0.432,0,0.748-0.087,0.959-0.255c0.216-0.17,0.318-0.414,0.318-0.737c0-0.326-0.089-0.566-0.268-0.722
				c-0.183-0.156-0.456-0.231-0.836-0.231H87.4v1.945H87.402z"/>
		</g>
	</g>
	<g display="inline">
		<path fill="#FCB033" d="M87.584-113.427c-3.312,0-6-2.691-6-6c0-3.31,2.688-6,6-6c3.309,0,6,2.69,6,6
			C93.584-116.119,90.893-113.427,87.584-113.427z M87.584-124.427c-2.757,0-5,2.242-5,5c0,2.757,2.243,5,5,5s5-2.243,5-5
			C92.584-122.185,90.341-124.427,87.584-124.427z"/>
	</g>
	<g display="inline">
		<path fill="#FCB033" d="M21-1.334v20.732c0,0.494-0.729,1.414-1.33,1.414H5.738C5.134,20.813,4,19.893,4,19.398V-1.334
			C4-1.85,5.189-2.188,5.738-2.188H19.67C20.219-2.188,21-1.849,21-1.334z M5,19.398c0,0.131,0.724,0.414,0.735,0.414H20
			c0,0,0-0.283,0-0.414V-1.334c0-0.137,0,0.146,0,0.146H5.738C5.558-1.188,5-1.471,5-1.334V19.398z"/>
	</g>
	<g display="inline">
		<path fill="#FCB033" d="M16.82-0.188H8.076C7.605-0.188,8,0.486,8,1.036v10.422c0,0.55-0.396,0.354,0.076,0.354h8.741
			c0.492,0,0.183,0.149,0.183-0.354V1.036C17,0.529,17.313-0.188,16.82-0.188z M16.82,11.813h-0.606
			c-0.144-2-1.746-3.452-3.711-3.452S8.93,9.813,8.79,11.813H8.076C7.924,11.813,8,11.573,8,11.458V1.036
			c0-0.114-0.076-0.224,0.076-0.224h8.741C16.974,0.812,17,0.868,17,1.036v10.422C17,11.627,16.975,11.813,16.82,11.813z"/>
		<circle fill="#FCB033" cx="12.216" cy="5.371" r="1.984"/>
	</g>
	<g display="inline">
		<path fill="#FCB033" d="M7,11.813v-12h11v12H7z M8-0.188v12h9v-12H8z"/>
	</g>
	<rect x="7" y="10.813" display="inline" fill="#FCB033" width="11" height="1"/>
	<path display="inline" fill="#E7A723" d="M7.676,18.884v0.007l0.105-0.045c0.021-0.013,0.037-0.013,0.061-0.027
		c0.017-0.002,0.029-0.014,0.042-0.019l1.605-0.688l0.066-0.047c0.038-0.018,0.071-0.039,0.104-0.062l0.104-0.069L9.761,17.91
		c0.279-0.243,0.408-0.573,0.296-1.073c-0.083-0.354,0.111-0.455,0.434-0.503c1.07-0.146,2.146-0.188,3.22-0.063
		c0.995,0.11,1.013,0.117,0.986,1.104c-0.008,0.199,0.05,0.333,0.138,0.439l0.008,0.037l0.125,0.063
		c0.051,0.03,0.074,0.071,0.146,0.104c0.214,0.086,0.43,0.178,0.645,0.271l0.771,0.37c0.093,0.044,0.185,0.084,0.271,0.133
		c0.021,0.016,0.038,0.016,0.06,0.021l0.129,0.063l-0.008-0.02c0.313,0.104,0.508-0.039,0.709-0.328
		c1.107-1.594,0.345-3.825-1.555-4.359c-2.479-0.691-4.973-0.678-7.461-0.021c-0.484,0.131-0.903,0.379-1.254,0.735
		c-1.028,1.032-1.116,2.726-0.209,3.79C7.351,18.846,7.485,18.932,7.676,18.884z"/>
</g>
<g id="gym" display="none">
	<g display="inline">
		<path fill="#FCB033" d="M3.073,3.217l0.592,0.412c-4.084,8.995,1.83,13.951,1.891,14c0.104,0.084,0.229,0.125,0.354,0.125
			c0.16,0,0.32-0.072,0.435-0.207c0.194-0.238,0.158-0.591-0.082-0.786c-0.22-0.181-5.213-4.423-1.66-12.479l1.546,1.077
			C6.244,5.427,6.355,5.46,6.467,5.46c0.175,0,0.349-0.083,0.458-0.24c0.177-0.252,0.114-0.6-0.139-0.777L3.901,2.431L3.291-0.881
			C3.235-1.183,2.949-1.378,2.64-1.33C2.336-1.272,2.136-0.982,2.192-0.678L2.843,2.86C2.871,3.004,2.953,3.133,3.073,3.217z"/>
		<path fill="#FCB033" d="M22.579,15.697c0-2.928-2.381-5.352-5.313-5.352c-1.438,0-2.742,0.562-3.699,1.492l0.638-0.123L4.2,20.813
			H1.902c-0.31,0-0.559,0.19-0.559,0.5c0,0.313,0.25,0.5,0.559,0.5H3.02h7.544H22.02c0.313,0,0.563-0.188,0.563-0.5
			c0-0.31-0.25-0.5-0.563-0.5h-3.134C21.021,20.813,22.579,18.059,22.579,15.697z M11.837,20.813l1.587-1.392
			c0.608,0.646,1.385,1.392,2.246,1.392H11.837z M17.27,19.801c-1.24,0-2.343-0.55-3.104-1.406l2.388-2.388
			c0.218-0.219,0.218-0.571,0-0.791c-0.22-0.218-0.571-0.218-0.791,0l-1.872,1.871L13.671,13.5c0.729-1.236,2.062-2.076,3.599-2.076
			c2.313,0,4.191,1.879,4.191,4.188C21.461,17.922,19.581,19.801,17.27,19.801z"/>
		<path fill="#FCB033" d="M23.133,5.785l-0.744-0.744c-0.104-0.089-0.229-0.229-0.369-0.229h-5.588
			c-0.299,0-0.545,0.325-0.559,0.624c-0.017,0.298,0.21,0.602,0.507,0.628l0.945,0.108l1.549,0.623
			c-0.001,0.006-0.004,0.014-0.005,0.02l-0.563,2.331c-0.072,0.3,0.112,0.604,0.414,0.676c0.045,0.011,0.088,0.017,0.131,0.017
			c0.252,0,0.48-0.172,0.543-0.43l0.523-2.188l0.869,0.344c0.063,0.025,0.135,0.039,0.204,0.039c0.083,0,0.162-0.019,0.234-0.054
			L23,6.712c0.172-0.08,0.29-0.242,0.313-0.427C23.346,6.096,23.273,5.909,23.133,5.785z"/>
	</g>
</g>
<g id="Layer_18" display="none">
</g>
<g id="concierge" display="none">
	<g display="inline">
		<path fill="#FCB033" d="M24.591,14.296c-0.147-2.653-1.307-5.254-3.11-7.194c-0.914-0.98-1.98-1.818-3.172-2.443
			c-0.582-0.307-1.188-0.561-1.813-0.762c-0.25-0.08-0.47-0.132-0.452-0.438c0.019-0.437,0.015-0.873,0.009-1.31
			c-0.004-0.391-0.014-0.545,0.264-0.82c0.186-0.183,0.313-0.418,0.33-0.678c0.057-0.647-0.535-1.1-1.068-1.323
			c-1.354-0.564-3.002-0.554-4.419-0.276C10.559-0.835,9.911-0.625,9.476-0.18C9.034,0.272,9.072,0.97,9.545,1.384
			c0.179,0.156,0.408,0.227,0.403,0.5C9.94,2.27,9.937,2.656,9.941,3.042c0.003,0.263,0.101,0.585-0.219,0.674
			c-0.347,0.096-0.688,0.207-1.03,0.332C6.285,4.941,4.253,6.619,2.865,8.774C2.176,9.84,1.666,11.018,1.367,12.25
			c-0.146,0.602-0.242,1.217-0.292,1.835c-0.049,0.572-0.135,1.087-0.04,1.657c0.063,0.398,1.146,0.068,1.409,0.068
			c0.844,0,1.685,0,2.523,0c1.617,0,3.234,0,4.851,0c3.225,0,6.447,0.166,9.667,0.125c1.205-0.018,2.412,0.024,3.619,0.018
			c0.367-0.004,1.209,0.169,1.521-0.082c0.106-0.092,0.016-0.629,0.016-0.771C24.643,14.82,24.605,14.57,24.591,14.296
			C24.547,13.512,24.596,14.379,24.591,14.296z M15.271,0.574c-0.926,0.604-3.82,0.604-4.73,0
			C11.428-0.038,14.373-0.038,15.271,0.574z M14.419,3.146c0.04,0.319-0.247,0.234-0.459,0.21c-0.38-0.045-0.768-0.063-1.147-0.063
			c-0.354,0-0.713,0.016-1.066,0.05c-0.249,0.023-0.182-0.429-0.182-0.593c0.004-0.318,0.212-0.332,0.476-0.301
			c0.321,0.037,0.655,0.017,0.979,0.017c0.354,0,0.709,0.003,1.063,0C14.573,2.46,14.369,2.753,14.419,3.146
			C14.448,3.38,14.396,2.973,14.419,3.146z M22.876,14.566c-0.011,0.078-0.155,0.246-0.231,0.246c-0.189,0-0.387,0-0.58,0
			c-0.387,0-0.771,0-1.153,0c-0.841,0-1.677,0-2.515,0c-1.604,0-3.215,0-4.819,0c-3.233,0-6.461-0.101-9.692-0.125
			c-0.289-0.002-0.81-0.09-1.072-0.211c-0.22-0.104-0.058-0.638-0.031-0.808c0.112-0.715,0.296-1.431,0.55-2.106
			c0.471-1.254,1.197-2.403,2.106-3.391c1.77-1.908,4.24-3.034,6.829-3.208c2.792-0.188,5.591,0.917,7.612,2.837
			c0.896,0.854,1.618,1.876,2.136,3c0.271,0.58,0.481,1.231,0.647,1.85"/>
		<path fill="#FCB033" d="M20.604,10.546c-0.855-1.9-2.479-3.274-4.303-4.222c-0.867-0.452-1.783-0.618-2.496,0.211
			c-0.466,0.541-0.584,1.359-0.14,1.949c0.248,0.33,0.611,0.49,0.974,0.672c0.428,0.216,0.844,0.46,1.232,0.742
			c0.729,0.533,1.35,1.206,1.768,2.011c0.188,0.354,0.33,0.688,0.709,0.882c0.385,0.198,0.856,0.199,1.258,0.047
			C20.498,12.5,21.006,11.434,20.604,10.546C20.261,9.792,20.702,10.766,20.604,10.546z M19.072,11.719
			c-0.215,0.028-0.273-0.228-0.35-0.373c-0.146-0.295-0.318-0.576-0.512-0.845c-0.382-0.535-0.854-1.007-1.365-1.412
			c-0.473-0.368-0.982-0.682-1.513-0.961c-0.19-0.103-0.54-0.193-0.684-0.37c-0.172-0.216,0.145-0.537,0.342-0.589
			c0.417-0.11,1.104,0.439,1.443,0.646c0.537,0.327,1.049,0.7,1.508,1.131C18.277,9.255,20.373,11.552,19.072,11.719
			C18.9,11.741,19.294,11.691,19.072,11.719z"/>
		<rect x="1" y="16.813" fill="#FCB033" width="24" height="2"/>
	</g>
</g>
<g id="maid" display="none">
	<g display="inline">
		<g>
			<path fill="#FCB033" d="M9.823,21.107c0.412,0,0.753,0.31,0.812,0.705h4.646c0.057-0.396,0.396-0.705,0.81-0.705
				s0.753,0.31,0.813,0.705h4.938c-0.168-2.871-2.126-4.356-4.046-5.438c-0.193-0.104-0.261-0.317-0.353-0.61
				c-0.019-0.057-0.041-0.135-0.063-0.188c-0.258-0.082-0.834-0.119-1.267-0.146c-0.528-0.031-1.034-0.063-1.421-0.162L12.99,18.41
				l-1.813-3.258c-0.294,0.098-0.697,0.187-1.232,0.304c-0.446,0.096-1.002,0.216-1.225,0.31c-0.03,0.051-0.071,0.145-0.099,0.199
				c-0.108,0.236-0.202,0.438-0.396,0.541c-2.39,1.287-4.243,2.508-4.398,5.311h5.184C9.07,21.416,9.411,21.107,9.823,21.107z
				 M16.091,18.698c0.454,0,0.822,0.366,0.822,0.821c0,0.453-0.368,0.821-0.822,0.821s-0.821-0.368-0.821-0.821
				S15.637,18.698,16.091,18.698z M9.823,18.698c0.451,0,0.82,0.366,0.82,0.821c0,0.453-0.369,0.821-0.82,0.821
				c-0.453,0-0.822-0.368-0.822-0.821S9.37,18.698,9.823,18.698z"/>
			<path fill="#FCB033" d="M10.886,4.691c-0.825,0.106-1.46,0.462-1.936,1.081C7.541,7.6,8.095,11.051,8.1,11.085l0.216,1.288
				c0.839,0.867,1.929,1.492,3.149,1.76c0.021,0.004,0.041,0.01,0.063,0.018c0.41,0.084,0.839,0.129,1.271,0.129
				c2.208,0,4.143-1.146,5.252-2.877l-0.061-0.695L17.686,7.16C13.932,6.731,11.475,5.115,10.886,4.691z M9.736,8.539
				c0-0.454,0.369-0.823,0.823-0.823c0.456,0,0.824,0.369,0.824,0.823s-0.368,0.822-0.824,0.822
				C10.104,9.362,9.736,8.993,9.736,8.539z M14.9,11.386c-1.313,0.829-2.896,0.835-4.174-0.063
				c-0.456-0.319,0.119-0.966,0.569-0.649c0.951,0.668,2.163,0.604,3.125-0.003C14.893,10.374,15.372,11.09,14.9,11.386z
				 M14.898,9.362c-0.453,0-0.818-0.368-0.818-0.822s0.365-0.823,0.818-0.823c0.455,0,0.822,0.369,0.822,0.823
				S15.354,9.362,14.898,9.362z"/>
			<path fill="#FCB033" d="M6.666,9.186C6.9,9.803,7.236,10.459,7.709,11.15c0,0-1.083-6.464,3.288-6.872
				c0,0,2.685,2.113,7.058,2.52l0.331,3.87c0,0,0.192-0.32,0.4-0.877c0.269-0.727,0.563-1.859,0.479-3.216
				c-0.039-0.667-0.172-1.389-0.438-2.142c-0.193-0.541-0.458-1.099-0.813-1.665c0,0.07-0.002,0.144-0.002,0.214V3.18h-0.14H17.31
				h-0.594H8.88H8.288H7.721H7.623C7.474,3.342,7.153,3.721,6.855,4.29c-0.359,0.69-0.687,1.658-0.63,2.863
				C6.255,7.772,6.388,8.451,6.666,9.186z"/>
			<path fill="#FCB033" d="M7.865,2.333c0.001,0.059,0.001,0.116,0.003,0.172c0,0.094,0,0.188,0.002,0.282h0.265h0.62h0.679h6.729
				h0.68h0.62h0.156c0-0.151,0.006-0.302,0.006-0.454c0.002-0.034,0.002-0.067,0.002-0.104c0-0.094,0-0.188,0.003-0.284
				c0-0.091,0-0.182,0-0.272c-0.003-0.998-0.068-1.934-0.505-2.376c-0.194-0.198-0.458-0.293-0.809-0.293H9.171
				c-0.352,0-0.611,0.095-0.806,0.293C7.902-0.232,7.854,0.792,7.861,1.862c0,0.101,0.002,0.199,0.002,0.299
				C7.865,2.219,7.865,2.276,7.865,2.333z"/>
		</g>
	</g>
</g>
<g id="welcome_hamper-02" display="none">
	<g display="inline">
		<path fill="#FCB033" d="M12.969,18.656v0.271V18.656z"/>
		<polygon fill="#FCB033" points="10.26,18.656 10.26,18.928 10.261,18.656 		"/>
		<polygon fill="#FCB033" points="15.677,18.656 15.677,18.928 15.678,18.656 		"/>
		<path fill="#FCB033" d="M24.275,7.532l-0.383-0.384c-0.213-0.211-0.453-0.746-0.539-0.659L19.6,9.812H6.263L2.509,6.49
			C2.423,6.403,2.183,6.722,1.97,6.933L1.587,7.424C1.376,7.636,1.274,7.499,1.36,7.584l2.605,2.229H2.677
			C2.377,9.813,2,10.918,2,11.218v0.541c0,0.3,0.377,1.054,0.677,1.054h1.43l1.601,7.479c0.043,0.528,0.421,0.521,1.096,0.521
			h12.064c0.675,0,1.053-0.002,1.097-0.535l1.616-7.465h1.141c0.299,0,0.281-0.754,0.281-1.054v-0.541
			c0-0.3,0.018-1.405-0.281-1.405H21.9l2.605-2.174C24.589,7.553,24.488,7.744,24.275,7.532z M9,18.656v-4.875
			c0-0.301,0.701-0.542,1-0.542s1,0.241,1,0.542v4.875c0,0.299-0.701,0.542-1,0.542S9,18.955,9,18.656z M12,18.656v-4.875
			c0-0.301,0.702-0.542,1-0.542c0.299,0,1,0.241,1,0.542v4.875c0,0.299-0.701,0.542-1,0.542C12.702,19.198,12,18.955,12,18.656z
			 M15,18.656v-4.875c0-0.301,0.701-0.542,1-0.542s1,0.241,1,0.542v4.875c0,0.299-0.701,0.542-1,0.542S15,18.955,15,18.656z"/>
	</g>
</g>
<g id="pet_friendly" display="none">
	<g display="inline">
		<path fill="#FCB033" d="M-53.053-89.986c-1.216,0.831-3.753-0.922-6.297-0.94c-2.543-0.02-5.149,1.74-6.322,0.941
			c-1.176-0.799,1.126-7.194,6.322-7.214C-54.151-97.219-51.836-90.816-53.053-89.986z"/>
	</g>
	
		<ellipse transform="matrix(-0.1384 -0.9904 0.9904 -0.1384 20.19 -177.3263)" display="inline" fill="#FCB033" cx="-67.037" cy="-97.445" rx="3.037" ry="2.203"/>
	
		<ellipse transform="matrix(-0.0555 -0.9985 0.9985 -0.0555 34.9004 -169.0114)" display="inline" fill="#FCB033" cx="-62.491" cy="-101.013" rx="3.037" ry="2.203"/>
	
		<ellipse transform="matrix(0.222 -0.9751 0.9751 0.222 54.6724 -134.2093)" display="inline" fill="#FCB033" cx="-56.761" cy="-101.363" rx="3.036" ry="2.202"/>
	
		<ellipse transform="matrix(0.5996 -0.8003 0.8003 0.5996 58.6833 -80.7316)" display="inline" fill="#FCB033" cx="-51.344" cy="-99.016" rx="3.037" ry="2.203"/>
	<g display="inline">
		<path fill="#FCB033" d="M-12.053-93.986c-1.216,0.831-3.753-0.922-6.297-0.94c-2.543-0.02-5.149,1.74-6.322,0.941
			c-1.176-0.799,1.126-7.194,6.322-7.214C-13.151-101.219-10.836-94.816-12.053-93.986z"/>
	</g>
	
		<ellipse transform="matrix(-0.1383 -0.9904 0.9904 -0.1383 70.8264 -141.2615)" display="inline" fill="#FCB033" cx="-26.042" cy="-101.443" rx="3.037" ry="2.202"/>
	
		<ellipse transform="matrix(-0.0553 -0.9985 0.9985 -0.0553 82.1707 -132.2787)" display="inline" fill="#FCB033" cx="-21.492" cy="-105.012" rx="3.037" ry="2.204"/>
	
		<ellipse transform="matrix(0.2222 -0.975 0.975 0.2222 90.4717 -97.3105)" display="inline" fill="#FCB033" cx="-15.756" cy="-105.36" rx="3.037" ry="2.202"/>
	
		<ellipse transform="matrix(0.5997 -0.8002 0.8002 0.5997 78.3061 -49.5146)" display="inline" fill="#FCB033" cx="-10.34" cy="-103.029" rx="3.037" ry="2.204"/>
	<g display="inline">
		<g>
			<path fill="none" stroke="#FCB033" stroke-miterlimit="10" d="M18.678,19.525c-1.363,0.936-4.213-1.032-7.066-1.06
				c-2.854-0.021-5.778,1.955-7.099,1.062c-1.317-0.896,1.264-8.071,7.099-8.094C17.445,11.411,20.043,18.596,18.678,19.525z"/>
		</g>
		
			<ellipse transform="matrix(-0.1383 -0.9904 0.9904 -0.1383 -6.9903 14.8961)" fill="none" stroke="#FCB033" stroke-miterlimit="10" cx="2.985" cy="10.489" rx="3.407" ry="2.473"/>
		
			<ellipse transform="matrix(-0.0556 -0.9985 0.9985 -0.0556 2.0556 14.9204)" fill="none" stroke="#FCB033" stroke-miterlimit="10" cx="8.084" cy="6.488" rx="3.408" ry="2.474"/>
		
			<ellipse transform="matrix(0.2221 -0.975 0.975 0.2221 5.3673 18.8947)" fill="none" stroke="#FCB033" stroke-miterlimit="10" cx="14.525" cy="6.084" rx="3.408" ry="2.471"/>
		
			<ellipse transform="matrix(0.5996 -0.8003 0.8003 0.5996 1.2788 19.9738)" fill="none" stroke="#FCB033" stroke-miterlimit="10" cx="20.6" cy="8.709" rx="3.408" ry="2.473"/>
	</g>
</g>
<g id="welcome_hamper-01" display="none">
	<g display="inline">
		<path fill="#FCB033" d="M12.605,18.146v0.328V18.146z"/>
		<polygon fill="#FCB033" points="9.322,18.146 9.322,18.475 9.323,18.146 		"/>
		<polygon fill="#FCB033" points="15.889,18.475 15.889,18.146 15.889,18.146 		"/>
		<path fill="#FCB033" d="M24.424,8.813H21.79h-0.848c-0.313-5-4.111-8.126-8.75-8.126c-4.638,0-8.436,3.126-8.751,8.126h-0.35
			H0.129C-0.234,8.813,0,8.766,0,9.129v0.657c0,0.363-0.234,0.026,0.129,0.026h1.73l1.94,9.709c0.052,0.646,0.511,1.291,1.328,1.291
			h14.626c0.813,0,1.272-0.65,1.327-1.304l1.96-9.7h1.382c0.364,0,0.576,0.337,0.576-0.026V9.129
			C25,8.766,24.788,8.813,24.424,8.813z M9,18.146v-5.91c0-0.361,0.638-0.655,1-0.655c0.359,0,1,0.294,1,0.655v5.91
			c0,0.359-0.641,0.653-1,0.653C9.638,18.802,9,18.51,9,18.146z M12,18.146v-5.91c0-0.361,0.639-0.655,1-0.655
			c0.358,0,1,0.294,1,0.655v5.91c0,0.359-0.642,0.653-1,0.653C12.639,18.802,12,18.51,12,18.146z M17,18.146
			c0,0.359-0.64,0.653-1,0.653c-0.363,0-1-0.294-1-0.653v-5.91c0-0.361,0.637-0.655,1-0.655c0.36,0,1,0.294,1,0.655V18.146z
			 M12.196,1.343c4.266,0,7.767,3.469,8.095,7.469H4.102C4.431,4.813,7.931,1.343,12.196,1.343z"/>
	</g>
</g>
<g id="wlecome-provisions" display="none">
	<g display="inline">
		<path fill="#FCB033" d="M18.135,0.376c-0.006,0.003-0.012,0.015-0.018,0.019C18.448,0.392,18.128,0.381,18.135,0.376z"/>
		<path fill="#FCB033" d="M20.525,0.266C20.762,0.116,21-0.146,21-0.444V-0.93c0-0.464-0.621-1.258-1.085-1.258h-1.934
			C17.521-2.188,17-1.394,17-0.93v0.485c0,0.298,0.229,0.562,0.463,0.71c-0.273,0.419-0.521,1.033-0.792,1.729
			c-1.04-0.347-2.188-0.537-3.396-0.537c-2.758,0-4.941,1.212-5.982,2.25l0.07,0.067L2.423,8.5C1.97,9.063,1.501,9.7,1.501,10.381
			C1.501,11.268,2,12.266,3,13.025v4.57c0,1.396,1.168,2.217,2.325,2.217h6.384c0.104,0,0.197,0.275,0.291,0.435
			c0.183,0.299,0.41,0.688,0.852,0.798c0.392,0.096,0.801,0.333,1.229,0.333c2.029,0,4.232-1.563,5.521-2.563h1.52
			c0.996,0,1.883-1.168,1.883-2.164V7.981C23,7.562,21.721,2.095,20.525,0.266z M8.116,3.888l0.068-0.004
			c1.046-0.848,2.866-1.704,5.106-1.704c1.123,0,2.2,0.175,3.16,0.491c-0.549,1.524-1.025,3.27-1.28,4.338
			c-0.896-0.839-2.747-0.853-5.089-0.813C9.565,6.206,9.034,6.215,8.49,6.215c-1.181,0-2.276,0.176-3.232,0.489L8.116,3.888z
			 M5.325,18.813C4.228,18.813,4,17.967,4,17.598v-5.031L3.86,12.473C2.616,11.91,2.4,11.256,2.4,10.39
			c0-1.931,2.682-3.438,6.075-3.438c0.548,0,1.094,0.001,1.613-0.008c2.112-0.039,3.953-0.047,4.62,0.608
			C14.896,7.735,15,7.62,15,8.342v1.783c0-0.047-0.426-0.078-0.652-0.078c-1.367,0-2.842,0.865-3.471,1.701
			c-1.486,1.975-1.858,4.721-0.881,6.783c0.096,0.199,0.23,0.279,0.386,0.279L5.325,18.813L5.325,18.813z M19.092,17.939
			c-1.148,1.521-3.162,2.547-5.014,2.547c-0.369,0-0.726-0.041-1.058-0.121c-0.145-0.035-0.25-0.194-0.405-0.452
			c-0.136-0.218-0.326-0.462-0.563-0.64C12.051,19.271,12,19.27,12,19.268l-0.417-0.121l0.5,0.5c-0.192,0-0.539-0.858-0.726-0.938
			c-0.373-0.152-0.604-0.169-0.714-0.396c-0.854-1.805-0.511-4.434,0.805-6.177c0.512-0.679,1.761-1.39,2.888-1.39
			c0.209,0,0.399,0.038,0.576,0.09c0.332,0.1,0.565,0.473,0.842,0.898c0.154,0.242,0.313,0.494,0.51,0.72
			c0.133,0.155,0.271,0.282,0.41,0.385c0.396,0.286,0.878,0.413,1.344,0.535c0.498,0.13,0.969,0.255,1.188,0.553
			C20.009,15.033,19.807,16.993,19.092,17.939z M22,16.648c0,0.599-0.285,1.164-0.883,1.164h-1.091c0.56-1,0.602-3.117-0.238-4.271
			c-0.369-0.506-0.988-0.688-1.588-0.846c-0.334-0.088-0.678-0.191-0.948-0.342c0.008-0.03,0.02-0.066,0.021-0.102
			c0.016-0.426,1.357-0.834,2.563-0.863c0.199-0.008,0.354-0.165,0.353-0.364c-0.006-0.198-0.17-0.325-0.371-0.333
			c-0.188,0.006-0.644,0.033-1.149,0.121C18.67,10.4,18.33,9.878,17.896,9.46c-0.604-0.58-1.446-0.658-1.479-0.66L15.96,8.767
			l0.056,0.441c0.004,0.036,0.115,0.877,0.717,1.457c0.229,0.218,0.459,0.392,0.687,0.515c-0.327,0.154-0.603,0.356-0.745,0.622
			c-0.104-0.145-0.063-0.296-0.155-0.448C16.316,11.047,16,10.745,16,10.508V7.981c0-0.842,1.428-7.168,2.117-7.168
			c-0.063,0-0.142,0-0.25,0l0,0l0.268-0.436L19-0.188h-1.133l0,0h0.114C17.92-0.188,18-0.379,18-0.444V-0.93
			c0-0.064-0.08-0.258-0.019-0.258h1.934C19.98-1.188,20-0.995,20-0.93v0.485c0,0.065-0.021,0.257-0.085,0.257H19v0.584
			c0,0,0.156-0.015,0.146-0.02C19.826,0.822,22,7.132,22,7.981V16.648z M18.07,10.945v-0.278l0,0V10.945z M17.871,10.604
			c-0.165-0.076-0.396-0.227-0.642-0.459c-0.146-0.141-0.25-0.309-0.323-0.468c0.159,0.069,0.333,0.167,0.479,0.308
			C17.645,10.234,17.794,10.453,17.871,10.604z"/>
	</g>
	<path display="inline" fill="#FCB033" d="M6.367,5.156c-0.016,0.006-0.193-0.15,0.268-0.237c0.227-0.05,0.498-0.088,0.784-0.13
		c0.285-0.043,0.595-0.06,0.895-0.087L8.763,4.7c0.146,0.003,0.291-0.013,0.422,0.01c0.132,0.015,0.26,0.029,0.38,0.043
		c0.117,0.019,0.238,0.016,0.326,0.05c0.361,0.106,0.604,0.177,0.604,0.177S10.228,4.945,9.83,4.892
		C9.738,4.872,9.612,4.89,9.496,4.888C9.377,4.89,9.252,4.893,9.123,4.895C8.998,4.89,8.855,4.922,8.72,4.936L8.308,4.99
		c-0.274,0.062-0.549,0.107-0.8,0.178c-0.251,0.069-0.482,0.13-0.674,0.198C6.448,5.49,5.686,5.683,5.67,5.686L6.367,5.156z"/>
	<path display="inline" fill="#FCB033" d="M7.372,4.182C7.359,4.189,7.174,4.01,7.635,3.921c0.227-0.051,0.498-0.088,0.784-0.13
		C8.705,3.75,9.015,3.738,9.315,3.713L9.766,3.72c0.146,0.007,0.292-0.006,0.425,0.022c0.135,0.019,0.264,0.037,0.385,0.056
		c0.115,0.022,0.237,0.022,0.326,0.063c0.364,0.127,0.606,0.213,0.606,0.213s-0.266-0.113-0.667-0.182
		c-0.092-0.023-0.218-0.08-0.336-0.08c-0.119,0-0.244,0-0.374,0c-0.125,0-0.271,0.093-0.404,0.105L9.316,4.002
		c-0.274,0.063-0.549,0.127-0.799,0.2C8.267,4.274,8.037,4.347,7.846,4.42C7.46,4.551,6.699,4.756,6.684,4.759L7.372,4.182z"/>
	<rect x="33.001" y="-21.138" display="inline" fill="#FCB033" width="7.666" height="6.899"/>
</g>
<g id="toiletries" display="none">
	<path display="inline" fill="#FCB033" d="M22.986,13.055l-0.773-1.054c0.347-0.228,0.978-0.733,1.104-1.498
		c0.08-0.479-0.047-0.958-0.375-1.436l0.047-0.033L22.17,7.923c0.331-0.249,0.676-0.604,0.727-1.036
		c0.025-0.222-0.031-0.539-0.354-0.847l0.038-0.074l-8.311-4.279c-0.293-0.285-0.811-0.667-1.549-0.764
		c-1.01-0.132-2.088,0.297-3.215,1.272L3.095,5.81l0.063,0.108L3.12,5.868l-1.684,1.28l1.591,0.934L2.054,9.21
		C1.976,9.301,1.941,9.422,1.961,9.54c0.02,0.119,0.091,0.222,0.195,0.281l0.597,0.345L1.437,11.17l1.591,0.934l-0.974,1.129
		c-0.078,0.095-0.112,0.211-0.092,0.328c0.02,0.119,0.091,0.226,0.195,0.282l0.597,0.343l-1.317,1.004l5.692,3.338
		c0.159,0.117,2.97,2.205,5.7,2.205c0.97,0,1.93-0.262,2.756-0.972l6.396-3.604c0.047-0.023,1.162-0.593,1.336-1.636
		c0.078-0.479-0.047-0.959-0.375-1.438L22.986,13.055z M3.605,6.507L3.572,6.464l6.366-3.587l0.068-0.047
		c0.952-0.833,1.822-1.206,2.602-1.111c0.336,0.042,0.604,0.168,0.813,0.306l-0.051,0.101l0.423,0.217
		c0.061,0.066,0.094,0.114,0.1,0.121l0.059-0.04l8.017,4.128l-0.021,0.021c0.076,0.06,0.162,0.146,0.152,0.225
		c-0.021,0.217-0.479,0.583-0.904,0.788L15.09,11.09c-2.66,2.331-7.426-1.207-7.514-1.27l-4.7-2.758L3.605,6.507z M3.508,10.602
		l7.527,4.348c0.063,0.034,0.133,0.054,0.199,0.054c0.141,0,0.274-0.072,0.35-0.201c0.109-0.191,0.045-0.438-0.147-0.55L2.979,9.368
		l0.754-0.873l3.396,1.988c0.16,0.121,2.994,2.226,5.71,2.226c0.96,0,1.906-0.264,2.712-0.97l4.847-2.776l0.729,1.022L13.174,13.8
		c-0.199,0.097-0.283,0.337-0.188,0.535c0.07,0.146,0.216,0.229,0.363,0.229c0.062,0,0.116-0.018,0.174-0.039l8.377-4.021
		c0.105-0.052,0.188-0.147,0.219-0.262c0.025-0.115,0.007-0.237-0.063-0.335L21.098,8.56l0.381-0.219l0.549,0.747l-0.063,0.063
		c0.43,0.438,0.617,0.846,0.557,1.216c-0.104,0.639-0.895,1.048-0.918,1.06l-6.449,3.634l-0.063,0.047
		c-2.66,2.33-7.426-1.207-7.514-1.27L2.88,11.083L3.508,10.602z M21.604,15.447l-6.443,3.635l-0.068,0.047
		c-2.66,2.329-7.426-1.208-7.514-1.271L2.88,15.104l0.632-0.479l7.527,4.348c0.063,0.036,0.133,0.053,0.202,0.053
		c0.138,0,0.271-0.066,0.347-0.195c0.112-0.191,0.045-0.438-0.147-0.553l-8.46-4.889l0.754-0.871l3.396,1.987
		c0.159,0.121,2.97,2.207,5.7,2.207c0.97,0,1.93-0.263,2.756-0.971l4.835-2.728l0.702,0.989l-7.948,3.813
		c-0.199,0.099-0.283,0.338-0.188,0.537c0.068,0.146,0.216,0.229,0.363,0.229c0.062,0,0.116-0.016,0.174-0.04l8.377-4.021
		c0.105-0.054,0.188-0.146,0.219-0.264c0.025-0.113,0.007-0.236-0.063-0.334l-0.932-1.313l0.385-0.217l0.521,0.707l-0.063,0.063
		c0.429,0.438,0.617,0.845,0.558,1.214C22.418,15.025,21.628,15.436,21.604,15.447z"/>
</g>
<g id="phone" display="none">
	<g display="inline">
		<path fill="#FCB033" d="M9.911-0.097c0.006,0.009,0.043,0.071,0.062,0.161c0.026,0.09,0.064,0.199,0.104,0.31l0.604,1.706
			c0.157,0.391,0.321,0.799,0.491,1.2c0.063,0.161,0.072,0.286,0.077,0.368l0.148,0.45l-0.106,0.165
			c-0.063,0.357-0.234,0.66-0.533,0.942c-1.054,1.006-1.054,1.006-0.106,2.189c1.188,1.491,2.604,2.848,4.329,4.151
			c0.256,0.188,0.367,0.219,0.408,0.219c0.031,0,0.104-0.062,0.188-0.195c0.518-0.817,1.189-1.242,2.01-1.262l0.033-0.039
			l0.539,0.062c0.089,0.019,0.185,0.039,0.275,0.072l0.092,0.013l3.218,1.271c0.058,0.019,0.1,0.035,0.123,0.047l0.6,0.396
			l0.069,0.108c0.195,0.314,0.197,0.688,0.176,0.975c-0.229,2.864-2.836,5.214-5.813,5.229h-0.063c-1.021,0-1.971-0.252-2.836-0.75
			C9.64,15.148,6.221,11.718,3.836,7.487C2.901,5.822,2.83,3.879,3.64,2.155c0.811-1.717,2.403-2.942,4.271-3.28
			c0.542-0.099,0.968-0.063,1.307,0.129 M8.458-0.273c-0.118,0-0.246,0.016-0.391,0.041c-1.601,0.29-2.916,1.3-3.606,2.774
			c-0.688,1.456-0.622,3.095,0.167,4.5c2.303,4.086,5.607,7.401,9.826,9.854c0.726,0.416,1.523,0.627,2.383,0.627v0.455l0.058-0.455
			c2.521-0.01,4.717-1.979,4.912-4.396c0.035-0.393-0.045-0.438-0.129-0.486l-0.354-0.146l-3.12-1.222
			c-0.117-0.031-0.171-0.043-0.227-0.055l-0.065-0.015l-0.146,0.015l-0.119-0.005c-0.356,0-0.83,0.097-1.299,0.838
			c-0.256,0.412-0.574,0.621-0.953,0.621c-0.365,0-0.688-0.195-0.953-0.396c-1.793-1.354-3.261-2.76-4.495-4.313
			C8.604,6.285,8.62,5.998,10.134,4.548c0.215-0.203,0.259-0.359,0.274-0.5l0.002-0.025l-0.027-0.081
			c-0.032-0.126-0.036-0.184-0.04-0.243c-0.179-0.473-0.346-0.887-0.511-1.301l-0.61-1.723C9.176,0.545,9.13,0.413,9.094,0.281
			c0,0.002,0,0.004,0,0.004c-0.005,0-0.029-0.048-0.047-0.108l-0.07-0.142C8.859-0.195,8.728-0.273,8.458-0.273z"/>
	</g>
</g>
<g id="car-park">
	<g>
		<path fill="#53682B" d="M14.889,13.07c1.08,0.154,1.123,0.197,1.307,1.266c0.162,0.93,0.328,1.854,0.488,2.784
			c0.229,1.271-0.129,1.849-1.369,2.245c-0.344,1.783-0.73,2.193-2.024,2.141c-1.131-0.049-1.559-0.563-1.73-2.175
			c-0.82,0-1.656,0-2.49,0c-0.818,0-1.641,0-2.268,0c-0.336,0.688-0.511,1.354-0.928,1.782c-0.29,0.298-0.914,0.367-1.388,0.367
			c-1.089,0-1.489-0.558-1.637-2.063c-0.313-0.158-0.666-0.271-0.935-0.485c-0.494-0.397-0.64-0.953-0.524-1.572
			c0.185-1.01,0.366-2.014,0.544-3.021c0.188-1.067,0.227-1.104,1.28-1.266c0.095-0.702,0.153-1.421,0.294-2.122
			C3.82,9.408,5.091,8.26,6.659,8.193c1.562-0.068,3.131-0.08,4.69-0.009c1.865,0.085,3.188,1.432,3.378,3.296
			C14.781,11.997,14.834,12.516,14.889,13.07z M13.469,13.094c0.146-2.301-0.748-3.787-2.527-3.504
			c-0.137,1.086-0.26,1.195-1.357,1.198c-0.281,0.002-0.563,0-0.842,0c-1.307,0-1.316-0.011-1.583-1.238
			c-1.889-0.142-2.602,1.307-2.506,3.544C7.592,13.094,10.532,13.094,13.469,13.094z M4.251,15.281
			c-0.714,0.002-1.313,0.59-1.317,1.294c-0.006,0.712,0.645,1.343,1.359,1.321c0.7-0.021,1.291-0.64,1.275-1.336
			C5.558,15.852,4.966,15.275,4.251,15.281z M13.85,15.277c-0.713,0.011-1.295,0.602-1.291,1.313
			c0.004,0.703,0.604,1.305,1.308,1.307c0.727,0.004,1.354-0.637,1.327-1.354C15.17,15.836,14.568,15.268,13.85,15.277z"/>
	</g>
	<g>
		<g>
			<path fill="#53682B" d="M22.016,5.945c0,0.573-0.18,1.011-0.537,1.314c-0.356,0.305-0.867,0.454-1.524,0.454H19.47v1.895h-1.13
				V4.286h1.699c0.645,0,1.137,0.137,1.473,0.417C21.848,4.981,22.016,5.396,22.016,5.945z M19.467,6.792h0.371
				c0.348,0,0.604-0.07,0.779-0.206c0.172-0.138,0.259-0.337,0.259-0.601c0-0.266-0.069-0.46-0.216-0.585
				c-0.146-0.127-0.373-0.189-0.683-0.189h-0.514L19.467,6.792L19.467,6.792z"/>
		</g>
	</g>
	<g>
		<path fill="#53682B" d="M19.719,11.879c-2.903,0-5.268-2.364-5.268-5.271c0-2.905,2.358-5.27,5.268-5.27s5.271,2.364,5.271,5.27
			C24.99,9.514,22.624,11.879,19.719,11.879z M19.719,2.217c-2.42,0-4.393,1.971-4.393,4.392c0,2.422,1.973,4.393,4.393,4.393
			c2.422,0,4.394-1.97,4.394-4.393C24.111,4.188,22.139,2.217,19.719,2.217z"/>
	</g>
	<g>
		<rect x="18.217" y="11.295" fill="#53682B" width="2" height="10"/>
	</g>
</g>
<g id="nosmoking" display="none">
	<g display="inline">
		<path fill="#FCB033" d="M14.318,8.656L23.9-0.927c0.35-0.345,0.35-0.903,0-1.249c-0.344-0.346-0.899-0.346-1.246,0L13.07,7.407
			L3.488-2.175c-0.345-0.346-0.9-0.346-1.245,0c-0.348,0.345-0.348,0.903,0,1.249l9.579,9.583L2.24,18.24
			c-0.348,0.343-0.348,0.902,0,1.246c0.172,0.174,0.396,0.26,0.624,0.26c0.226,0,0.449-0.086,0.621-0.26l9.583-9.583l9.584,9.583
			c0.176,0.174,0.396,0.26,0.623,0.26c0.229,0,0.451-0.086,0.623-0.26c0.351-0.344,0.351-0.903,0-1.246L14.318,8.656z"/>
		<path fill="#FCB033" d="M20.311,7.933l0.381-0.12H2.251C1.571,7.813,1,8.849,1,9.526v0.93c0,0.706,0.603,1.356,1.251,1.356h13.523
			h0.748h3.771c0.11,0,0.225,0.058,0.332,0.058c0.106,0,0.223-0.058,0.33-0.058H21l-0.384-0.037c0.396-0.137,0.38-0.506,0.38-0.905
			V8.98C21,8.478,20.816,7.962,20.311,7.933z M4,10.813v-2h12v2H4z M17,8.813h2.545c-0.021,0-1.42-0.375-1.545,0.168v1.89
			c0,0.05,1.521-0.059,1.531-0.059H17V8.813z M20,10.869c0,0.175-0.325,0.314-0.5,0.314c-0.174,0-0.5-0.142-0.5-0.314V8.98
			c0-0.174,0.326-0.315,0.5-0.315c0.175,0,0.5,0.142,0.5,0.315V10.869z"/>
		<g>
			<path fill="#FCB033" d="M2.002,7.322C1.756,7.314,1.675,7.146,1.777,6.94C1.961,6.562,2.06,6.162,1.98,5.75
				C1.923,5.459,1.816,5.173,1.693,4.904C1.4,4.263,1.359,3.617,1.586,2.953c0.041-0.116,0.095-0.229,0.147-0.336
				c0.067-0.125,0.17-0.189,0.308-0.127C2.181,2.555,2.2,2.67,2.151,2.818C2.06,3.093,1.953,3.371,1.912,3.656
				c-0.065,0.44,0.092,0.845,0.29,1.235C2.47,5.424,2.54,5.985,2.395,6.563c-0.05,0.204-0.13,0.402-0.219,0.594
				C2.138,7.235,2.042,7.287,2.002,7.322z"/>
		</g>
		<g>
			<path fill="#FCB033" d="M0.771,6.451c-0.234,0-0.313-0.155-0.247-0.355c0.087-0.263,0.188-0.528,0.23-0.799
				C0.822,4.849,0.671,4.437,0.47,4.04C0.154,3.412,0.122,2.759,0.35,2.094c0.04-0.115,0.093-0.227,0.147-0.337
				c0.063-0.134,0.174-0.202,0.314-0.131C0.96,1.697,0.954,1.82,0.912,1.96C0.826,2.25,0.721,2.541,0.68,2.839
				C0.621,3.26,0.779,3.643,0.964,4.015C1.283,4.651,1.311,5.31,1.08,5.981c-0.039,0.115-0.089,0.23-0.155,0.333
				C0.882,6.38,0.803,6.424,0.771,6.451z"/>
		</g>
	</g>
</g>
<g id="flat-screen-tv" display="none">
	<g display="inline">
		<path fill="#FCB033" d="M25,18.813H0v-14h25V18.813z M1,17.813h23v-12H1V17.813z"/>
	</g>
	<g display="inline">
		<rect x="2" y="6.813" fill="#FCB033" width="21" height="10"/>
	</g>
	<g display="inline">
		<rect x="2" y="19.813" fill="#FCB033" width="21" height="1"/>
	</g>
</g>
<g id="cctv" display="none">
	<path display="inline" fill="#FCB033" d="M23.882,5.395L9.279-0.711C8.295-1.122,7.693-0.958,7.441-0.353L5.796,3.579
		C5.795,3.582,5.795,3.584,5.794,3.586L5.205,4.994C4.869,5.8,5.308,6.725,6.204,7.1l4.997,2.146L6,14.326V11.2
		c0-0.2,0.068-0.214-0.051-0.335c-0.207-0.205,0.426,0.07-0.661-0.055H2.306c-0.165,0-0.684-0.15-0.833-0.004
		C1.321,10.961,1,11,1,11.2v8.206c0,0.308,0.642,1.404,1.354,1.404h2.934C5.849,20.813,6,19.938,6,19.406v-2.596h0.478
		c0.021,0,0.068-0.045,0.104-0.033c0.091,0.033,0.228,0.053,0.382,0.053c0.077,0,0.158-0.029,0.24-0.064
		c0.372-0.056,0.652-0.295,0.76-0.627l5.871-5.845l5.497,2.296c0.26,0.109,0.525,0.16,0.786,0.16c0.512,0,0.979-0.21,1.271-0.57
		l0.758,0.316l0.16,0.031c0.332,0,0.441-0.316,0.563-0.653c0.021-0.062,0.04-0.117,0.057-0.158l0.527-1.262
		c0.019-0.042,0.04-0.08,0.058-0.112c0.063-0.108,0.15-0.271,0.082-0.467l-0.083-0.188l-0.86-0.357l0.168-0.401
		c1.084-0.017,1.328-0.134,1.438-0.389l0.662-1.584C25.102,6.519,25.068,5.894,23.882,5.395z M5,19.406
		c0,0.16,0.35-0.596,0.288,0.404H2.433C2.413,18.811,2,19.48,2,19.406v-7.596h3.341C5.389,11.813,5,11.281,5,11.283v2.527H4.116
		C3.584,13.813,3,14.768,3,15.305v0.586c0,0.235,0.272,0.922,1.116,0.922H5V19.406z M7.254,15.749l-0.021,0.124
		c-0.003,0.023-0.017,0.104-0.172,0.117l-0.096,0.008L6.933,16.02c-0.023-0.009-0.058-0.063-0.082-0.078
		c-0.099-0.031-0.222-0.129-0.363-0.129h-0.22H5.497h-1.38C3.967,15.813,4,15.887,4,15.891v-0.586c0-0.169,0.076-0.492,0.116-0.492
		H6.55l5.553-5.408l0.961,0.482L7.254,15.749z M19.629,11.877L6.501,6.388C5.995,6.177,5.743,5.705,5.916,5.291l0.148-0.362
		c0.17,0.199,0.393,0.37,0.659,0.482l7.004,2.8c0.558,0.231,5.59,0.656,8.262,0.713l-0.342,0.808l-0.518,1.232
		c-0.001,0.004-0.004,0.009-0.005,0.011l-0.239,0.575C20.723,11.951,20.156,12.098,19.629,11.877z M22.727,10.196l-0.51,1.223
		c-0.021,0.052-0.049,0.125-0.074,0.203c-0.004,0.01-0.008,0.021-0.012,0.03l-0.355-0.147c0.021-0.084,0.045-0.179,0.068-0.239
		l0.514-1.225L22.727,10.196z M24.207,6.658L23.6,8.107c-0.123,0.022-0.414,0.054-1.062,0.054c-2.688,0-8.065-0.504-8.52-0.663
		L7.018,4.697c-0.394-0.163-0.626-0.539-0.511-0.82L7.16,2.316l0,0L8.15-0.056C8.181-0.127,8.209-0.17,8.349-0.17
		c0.15,0,0.363,0.057,0.632,0.17l14.604,6.104C24.311,6.411,24.232,6.596,24.207,6.658z"/>
</g>
<g id="air-con" display="none">
	<g display="inline">
		<path fill="#FCB033" d="M24.645,14.438c-0.104,0.238-0.293,0.31-0.543,0.31c-7.853-0.002-15.706-0.002-23.559,0
			c-0.249,0-0.439-0.063-0.543-0.31c0-2.873,0-5.745,0-8.616c0.055-0.148,0.095-0.306,0.167-0.445
			c0.329-0.646,0.87-0.922,1.584-0.92c2.478,0.003,4.955,0,7.433,0c4.542,0,9.091-0.003,13.636,0.008
			c0.313,0,0.646,0.061,0.932,0.177c0.515,0.208,0.749,0.67,0.896,1.179C24.645,8.693,24.645,11.564,24.645,14.438z M23.43,5.389
			c0,0.16,0.006,0.271,0,0.382c-0.031,0.497-0.304,0.869-0.742,0.986c-0.158,0.042-0.332,0.051-0.498,0.051
			C15.611,6.811,9.037,6.811,2.46,6.81c-0.112,0-0.227-0.005-0.335-0.018C1.662,6.74,1.312,6.405,1.241,5.943
			C1.215,5.772,1.212,5.6,1.196,5.395C0.891,5.604,0.813,5.876,0.813,6.197c0.003,2.494,0.002,4.989,0.002,7.481
			c0,0.079,0,0.155,0,0.233c0.147,0,0.266,0,0.4,0c0-0.104,0-0.188,0-0.277c0-0.567-0.007-1.139,0.001-1.707
			c0.009-0.69,0.429-1.104,1.119-1.104c6.655-0.002,13.312-0.002,19.968,0c0.702,0,1.117,0.416,1.125,1.122
			c0.006,0.57,0.002,1.141,0.002,1.709c0,0.088,0,0.173,0,0.262c0.148,0,0.264,0,0.397,0c0-0.104,0-0.189,0-0.275
			c0-2.465,0-4.927,0-7.388c0-0.088,0.003-0.178-0.012-0.266C23.789,5.747,23.688,5.547,23.43,5.389z M1.774,5.277
			c0,0.204-0.013,0.381,0.003,0.554c0.023,0.251,0.189,0.4,0.441,0.427c0.08,0.008,0.16,0.006,0.241,0.006
			c6.576,0.001,13.149,0.001,19.729,0c0.1,0,0.211,0.026,0.283-0.018c0.145-0.086,0.317-0.191,0.367-0.328
			c0.068-0.191,0.033-0.418,0.044-0.641C15.827,5.277,8.813,5.277,1.774,5.277z M22.867,12.459c-7.038,0-14.059,0-21.091,0
			c0,0.178,0,0.341,0,0.516c7.036,0,14.059,0,21.091,0C22.867,12.802,22.867,12.645,22.867,12.459z M1.787,11.877
			c7.023,0,14.05,0,21.078,0c-0.021-0.38-0.198-0.521-0.642-0.521c-6.602,0-13.2,0-19.797,0c-0.088,0-0.177,0.002-0.263,0.021
			C1.905,11.43,1.785,11.592,1.787,11.877z M1.777,13.91c7.053,0,14.069,0,21.09,0c0-0.139,0-0.252,0-0.373
			c-7.038,0-14.061,0-21.09,0C1.777,13.667,1.777,13.783,1.777,13.91z"/>
		<path fill="#FCB033" d="M14.848,21.813c-0.289-0.013-0.384-0.207-0.264-0.444c0.215-0.444,0.33-0.912,0.233-1.396
			c-0.063-0.341-0.188-0.677-0.336-0.992c-0.342-0.75-0.393-1.508-0.123-2.285c0.05-0.137,0.106-0.27,0.178-0.396
			c0.07-0.146,0.193-0.221,0.354-0.146c0.164,0.076,0.188,0.212,0.129,0.387c-0.104,0.32-0.229,0.646-0.277,0.98
			c-0.076,0.519,0.105,0.988,0.34,1.446c0.313,0.623,0.396,1.281,0.228,1.959c-0.06,0.239-0.147,0.474-0.256,0.693
			C15.007,21.709,14.895,21.77,14.848,21.813z"/>
		<path fill="#FCB033" d="M12.385,21.809c-0.278,0-0.367-0.181-0.29-0.416c0.102-0.308,0.221-0.619,0.271-0.938
			c0.078-0.525-0.1-1.01-0.332-1.477c-0.372-0.733-0.407-1.502-0.144-2.279c0.046-0.137,0.109-0.268,0.172-0.395
			c0.077-0.156,0.203-0.236,0.373-0.154c0.169,0.082,0.164,0.229,0.113,0.394c-0.101,0.341-0.225,0.683-0.273,1.031
			c-0.065,0.491,0.116,0.94,0.335,1.378c0.373,0.746,0.406,1.52,0.139,2.305c-0.047,0.137-0.104,0.271-0.186,0.391
			C12.516,21.727,12.422,21.777,12.385,21.809z"/>
		<path fill="#FCB033" d="M12.343,9.729c0.386,0,0.771-0.006,1.155,0.002c0.271,0.006,0.434,0.229,0.29,0.402
			c-0.071,0.087-0.233,0.136-0.354,0.138c-0.738,0.015-1.477,0.008-2.215,0.008c-0.008,0-0.016,0-0.024,0
			c-0.187-0.006-0.373-0.028-0.375-0.271C10.819,9.77,10.997,9.73,11.187,9.73C11.573,9.728,11.958,9.729,12.343,9.729z"/>
		<path fill="#FCB033" d="M22.048,10.069c-0.104,0.065-0.196,0.172-0.304,0.188c-0.155,0.025-0.263-0.092-0.265-0.249
			c0-0.168,0.108-0.287,0.272-0.26c0.104,0.018,0.194,0.134,0.292,0.208C22.048,9.994,22.048,10.031,22.048,10.069z"/>
		<path fill="#FCB033" d="M20.802,10.055c-0.099,0.071-0.186,0.18-0.294,0.203c-0.154,0.033-0.261-0.084-0.271-0.236
			c-0.008-0.17,0.104-0.294,0.268-0.272c0.104,0.013,0.2,0.127,0.3,0.195C20.8,9.98,20.801,10.018,20.802,10.055z"/>
		<path fill="#FCB033" d="M9.925,21.813c-0.275-0.011-0.377-0.181-0.306-0.381C9.7,21.2,9.807,20.971,9.863,20.732
			c0.129-0.543,0.047-1.065-0.212-1.563c-0.355-0.687-0.506-1.396-0.313-2.155c0.057-0.229,0.155-0.451,0.244-0.674
			c0.063-0.167,0.188-0.275,0.375-0.193c0.193,0.086,0.192,0.254,0.106,0.427c-0.27,0.534-0.349,1.101-0.192,1.681
			c0.066,0.262,0.188,0.506,0.302,0.753c0.393,0.864,0.382,1.722-0.033,2.57C10.086,21.682,9.974,21.76,9.925,21.813z"/>
		<path fill="#FCB033" d="M14.848,21.813c-0.289-0.013-0.384-0.207-0.264-0.444c0.215-0.444,0.33-0.912,0.233-1.396
			c-0.063-0.341-0.188-0.677-0.336-0.992c-0.342-0.75-0.393-1.508-0.123-2.285c0.05-0.137,0.106-0.27,0.178-0.396
			c0.07-0.146,0.193-0.221,0.354-0.146c0.164,0.076,0.188,0.212,0.129,0.387c-0.104,0.32-0.229,0.646-0.277,0.98
			c-0.076,0.519,0.105,0.988,0.34,1.446c0.313,0.623,0.396,1.281,0.228,1.959c-0.06,0.239-0.147,0.474-0.256,0.693
			C15.007,21.709,14.895,21.77,14.848,21.813z"/>
		<path fill="#FCB033" d="M12.385,21.809c-0.278,0-0.367-0.181-0.29-0.416c0.102-0.308,0.221-0.619,0.271-0.938
			c0.078-0.525-0.1-1.01-0.332-1.477c-0.372-0.733-0.407-1.502-0.144-2.279c0.046-0.137,0.109-0.268,0.172-0.395
			c0.077-0.156,0.203-0.236,0.373-0.154c0.169,0.082,0.164,0.229,0.113,0.394c-0.101,0.341-0.225,0.683-0.273,1.031
			c-0.065,0.491,0.116,0.94,0.335,1.378c0.373,0.746,0.406,1.52,0.139,2.305c-0.047,0.137-0.104,0.271-0.186,0.391
			C12.516,21.727,12.422,21.777,12.385,21.809z"/>
	</g>
</g>
<g id="wi-fi" display="none">
	<g display="inline">
		<g>
			<g>
				<path fill="#FCB033" d="M4.812,20.979c-2.294,0-4.161-1.867-4.161-4.162c0-2.297,1.867-4.164,4.161-4.164
					c2.296,0,4.163,1.867,4.163,4.164C8.975,19.111,7.108,20.979,4.812,20.979z M4.812,14.011c-1.544,0-2.801,1.259-2.801,2.806
					c0,1.545,1.257,2.807,2.801,2.807c1.545,0,2.806-1.262,2.806-2.807C7.615,15.27,6.357,14.011,4.812,14.011z"/>
			</g>
		</g>
		<g>
			<g>
				<path fill="#FCB033" d="M17.822,21.813c-0.006,0-0.016,0-0.023,0H14.58c-0.375,0-0.683-0.104-0.683-0.481
					C13.9,13.464,8.242,7.63,0.494,7.63C0.119,7.627,0,7.42,0,7.044V3.828c0-0.375,0.119-0.681,0.495-0.681
					c9.78,0,17.964,8.305,18.07,18.179c0.021,0.063-0.02-0.066-0.02,0C18.55,21.703,18.198,21.813,17.822,21.813z M15.247,20.813
					h1.854C16.746,11.813,10,4.888,1,4.523v1.855C8,6.706,14.93,11.813,15.247,20.813z"/>
			</g>
		</g>
		<g>
			<g>
				<path fill="#FCB033" d="M24.127,21.813c-0.006,0-0.021,0-0.027,0h-3.213c-0.376,0-0.681-0.104-0.681-0.481
					c0-10.521-9.297-20.006-19.711-20.006C0.119,1.321,0,1.115,0,0.74v-3.217c0-0.375,0.119-0.68,0.495-0.68
					c13.887,0,24.277,10.512,24.377,24.484c0.019,0.063-0.021-0.067-0.021-0.001C24.854,21.703,24.503,21.813,24.127,21.813z
					 M21.555,20.813h1.856C23.086,7.813,13-1.456,1-1.788v1.859C12,0.468,21.164,9.813,21.555,20.813z"/>
			</g>
		</g>
	</g>
</g>
<g id="video-phone" display="none">
	<g display="inline">
		<path fill="#FCB033" d="M21-1.334v20.732c0,0.494-0.729,1.414-1.33,1.414H5.738C5.134,20.813,4,19.893,4,19.398V-1.334
			C4-1.85,5.189-2.188,5.738-2.188H19.67C20.219-2.188,21-1.849,21-1.334z M5,19.398c0,0.131,0.724,0.414,0.735,0.414H20
			c0,0,0-0.283,0-0.414V-1.334c0-0.137,0,0.146,0,0.146H5.738C5.558-1.188,5-1.471,5-1.334V19.398z"/>
	</g>
	<g display="inline">
		<path fill="#FCB033" d="M16.82-0.188H8.076C7.605-0.188,8,0.486,8,1.036v10.422c0,0.55-0.396,0.354,0.076,0.354h8.741
			c0.492,0,0.183,0.149,0.183-0.354V1.036C17,0.529,17.313-0.188,16.82-0.188z M16.82,11.813h-0.606
			c-0.144-2-1.746-3.452-3.711-3.452S8.93,9.813,8.79,11.813H8.076C7.924,11.813,8,11.573,8,11.458V1.036
			c0-0.114-0.076-0.224,0.076-0.224h8.741C16.974,0.812,17,0.868,17,1.036v10.422C17,11.627,16.975,11.813,16.82,11.813z"/>
		<circle fill="#FCB033" cx="12.216" cy="5.371" r="1.984"/>
	</g>
	<g display="inline">
		<path fill="#FCB033" d="M7,11.813v-12h11v12H7z M8-0.188v12h9v-12H8z"/>
	</g>
	<rect x="7" y="10.813" display="inline" fill="#FCB033" width="11" height="1"/>
	<path display="inline" fill="#E7A723" d="M7.676,18.884v0.007l0.105-0.045c0.021-0.013,0.037-0.013,0.061-0.027
		c0.017-0.002,0.029-0.014,0.042-0.019l1.605-0.688l0.066-0.047c0.038-0.018,0.071-0.039,0.104-0.062l0.104-0.069L9.761,17.91
		c0.279-0.243,0.408-0.573,0.296-1.073c-0.083-0.354,0.111-0.455,0.434-0.503c1.07-0.146,2.146-0.188,3.22-0.063
		c0.995,0.11,1.013,0.117,0.986,1.104c-0.008,0.199,0.05,0.333,0.138,0.439l0.008,0.037l0.125,0.063
		c0.051,0.03,0.074,0.071,0.146,0.104c0.214,0.086,0.43,0.178,0.645,0.271l0.771,0.37c0.093,0.044,0.185,0.084,0.271,0.133
		c0.021,0.016,0.038,0.016,0.06,0.021l0.129,0.063l-0.008-0.02c0.313,0.104,0.508-0.039,0.709-0.328
		c1.107-1.594,0.345-3.825-1.555-4.359c-2.479-0.691-4.973-0.678-7.461-0.021c-0.484,0.131-0.903,0.379-1.254,0.735
		c-1.028,1.032-1.116,2.726-0.209,3.79C7.351,18.846,7.485,18.932,7.676,18.884z"/>
</g>
</svg>
