<?xml version="1.0" encoding="utf-8"?>
<!-- Generator: Adobe Illustrator 16.0.0, SVG Export Plug-In . SVG Version: 6.00 Build 0)  -->
<!DOCTYPE svg PUBLIC "-//W3C//DTD SVG 1.1//EN" "http://www.w3.org/Graphics/SVG/1.1/DTD/svg11.dtd">
<svg version="1.1" id="Layer_1" xmlns="http://www.w3.org/2000/svg" xmlns:xlink="http://www.w3.org/1999/xlink" x="0px" y="0px"
	 width="17.979px" height="26.5px" viewBox="0 0 17.979 26.5" enable-background="new 0 0 17.979 26.5" xml:space="preserve">
<g>
	<path fill="#53682B" d="M14.345,13.909c0.183-0.144,0.306-0.356,0.306-0.604v-0.43c0-0.433-0.354-0.785-0.784-0.785h-0.216V8.772
		c0-0.219-0.087-0.416-0.246-0.555c-0.343-0.301-0.876-0.231-1.394-0.165C11.868,8.07,11.735,8.09,11.634,8.09h-0.983V6.087
		c0-0.299,0-0.997-0.796-0.997H9.651V2.842c0-0.536-0.774-1.752-1.516-1.752H6.194c-0.436,0-0.851,0.182-0.851,1.048
		c0,0.276,0.326,0.5,0.603,0.5c0.277,0,0.705-0.224,0.705-0.5c0-0.018,0-0.034,0-0.048l1.628-0.009
		c0.17,0.069,0.343,0.578,0.372,0.761V5.09H8.375c-0.087,0-0.352,0-0.546,0.202C7.633,5.495,7.642,5.741,7.648,5.939L7.65,8.09
		H6.725c-0.1,0-0.233-0.019-0.384-0.038C5.803,7.984,5.243,7.913,4.895,8.221c-0.157,0.14-0.244,0.335-0.244,0.551v1.318H4.312
		c-0.78,0-1.661,1.263-1.661,1.937v1.063H2.642c-0.658,0-0.991,0.562-0.991,1.668v10.203c0,0.279,0,1.129,0.991,1.129h5.23
		c0.108,0,0.443,0,0.661-0.253c0.207-0.241,0.161-0.53,0.135-0.704C8.661,25.08,8.65,25.023,8.65,24.961V24.09h2.119
		c0.159,0.559,0.491,1,1.021,1h2.572c0.896,0,1.285-1.225,1.285-1.85v-5.152C15.651,18.051,15.095,15.318,14.345,13.909z
		 M8.651,6.09h1v2h-1V6.09z M3.651,12.029c0.016-0.241,0.483-0.876,0.661-0.939h0.339h1H6.47c0.089,0.155,0.181,0.57,0.181,0.937
		v1.063h-3V12.029z M7.671,14.441C7.66,14.563,7.65,14.671,7.65,14.757v8.332v1v0.871c0,0.042,0.002,0.084,0.007,0.129l-5.005-0.007
		C2.65,25.038,2.65,24.989,2.65,24.96V14.758c0-0.41,0.041-0.591,0.07-0.668h0.93h3h1h0.044C7.695,14.204,7.679,14.355,7.671,14.441
		z M10.651,18.088v5.002h-2v-8.332c0-0.061,0.01-0.139,0.019-0.223c0.037-0.389,0.082-0.872-0.213-1.197
		c-0.146-0.16-0.354-0.248-0.582-0.248H7.651v-1.063c0-0.72-0.229-1.937-1.082-1.937H5.651V8.993
		c0.173,0.001,0.426,0.033,0.565,0.051C6.413,9.069,6.593,9.09,6.725,9.09h0.926h1h1h1h0.983c0.135,0,0.313-0.021,0.508-0.047
		c0.136-0.018,0.354-0.046,0.509-0.05v3.097h-0.215c-0.433,0-0.785,0.352-0.785,0.785v0.43c0,0.206,0.084,0.393,0.216,0.532
		C11.13,15.221,10.651,18.051,10.651,18.088z M14.651,23.24c0,0.328-0.192,0.765-0.313,0.85l-2.479,0.021
		c-0.081-0.072-0.209-0.469-0.209-0.871v-0.15v-4.998c0.019-0.447,0.782-3.354,1.181-4.002h0.506
		c0.408,0.618,1.287,3.479,1.313,3.998V23.24z"/>
	<path fill="#53682B" d="M5.617,5.854c0.475,0,0.859-0.386,0.859-0.861c0-0.083,0-0.338-0.433-1.056L5.617,3.225L5.189,3.937
		C4.756,4.655,4.756,4.909,4.756,4.993C4.756,5.467,5.143,5.854,5.617,5.854z"/>
</g>
<g id="Layer_2" display="none">
	<g display="inline">
		<path fill="#FCB033" d="M17.695,12.819C17.877,12.676,18,12.463,18,12.215v-0.43C18,11.352,17.646,11,17.215,11H17V7.682
			c0-0.219-0.087-0.416-0.246-0.555c-0.343-0.301-0.876-0.231-1.395-0.165C15.218,6.98,15.084,7,14.984,7H14V4.997
			C14,4.698,14,4,13.204,4H13V1.752C13,1.216,12.225,0,11.484,0H9.544C9.107,0,8.693,0.182,8.693,1.048c0,0.276,0.326,0.5,0.604,0.5
			S10,1.324,10,1.048C10,1.03,10,1.014,10,1l1.628-0.009C11.797,1.06,11.971,1.569,12,1.752V4h-0.275c-0.086,0-0.351,0-0.545,0.202
			c-0.197,0.203-0.188,0.449-0.183,0.647L10.999,7h-0.925C9.977,7,9.84,6.981,9.691,6.962c-0.539-0.067-1.099-0.139-1.445,0.17
			C8.087,7.271,8,7.466,8,7.682V9H7.661C6.88,9,6,10.263,6,10.937V12H5.991C5.333,12,5,12.562,5,13.668v10.203
			C5,24.15,5,25,5.991,25h5.229c0.107,0,0.442,0,0.659-0.253c0.207-0.241,0.162-0.531,0.136-0.704C12.011,23.99,12,23.934,12,23.871
			V23h2.119c0.158,0.559,0.49,1,1.021,1h2.573C18.611,24,19,22.775,19,22.15v-5.152C19,16.961,18.445,14.229,17.695,12.819z M12,5h1
			v2h-1V5z M7,10.939C7.015,10.698,7.484,10.063,7.661,10H8h1H9.82C9.908,10.155,10,10.57,10,10.937V12H7V10.939z M11.021,13.352
			C11.01,13.473,11,13.582,11,13.668V22v1v0.871c0,0.042,0.002,0.084,0.006,0.129l-5.004-0.007C6,23.949,6,23.9,6,23.871V13.668
			C6,13.257,6.041,13.077,6.07,13H7h3h1h0.044C11.044,13.114,11.029,13.266,11.021,13.352z M14,16.998V22h-2v-8.332
			c0-0.061,0.009-0.139,0.018-0.223c0.037-0.389,0.082-0.872-0.213-1.197C11.658,12.088,11.452,12,11.223,12H11v-1.063
			C11,10.217,10.771,9,9.918,9H9V7.903c0.172,0.001,0.425,0.033,0.564,0.051C9.764,7.979,9.943,8,10.074,8H11h1h1h1h0.982
			c0.136,0,0.313-0.021,0.509-0.047c0.136-0.018,0.354-0.046,0.509-0.05V11h-0.215C15.354,11,15,11.352,15,11.785v0.43
			c0,0.206,0.084,0.392,0.215,0.532C14.48,14.131,14,16.961,14,16.998z M18,22.15c0,0.328-0.193,0.765-0.313,0.85l-2.478,0.021
			C15.128,22.949,15,22.552,15,22.15V22v-4.998c0.018-0.447,0.782-3.354,1.18-4.002h0.506c0.408,0.618,1.287,3.479,1.314,3.998
			V22.15z"/>
		<path fill="#FCB033" d="M8.967,4.764c0.475,0,0.86-0.386,0.86-0.861c0-0.083,0-0.338-0.435-1.056L8.967,2.135L8.538,2.847
			C8.105,3.565,8.105,3.819,8.105,3.903C8.105,4.377,8.492,4.764,8.967,4.764z"/>
	</g>
</g>
</svg>
