<?xml version="1.0" encoding="utf-8"?>
<!-- Generator: Adobe Illustrator 16.0.0, SVG Export Plug-In . SVG Version: 6.00 Build 0)  -->
<!DOCTYPE svg PUBLIC "-//W3C//DTD SVG 1.1//EN" "http://www.w3.org/Graphics/SVG/1.1/DTD/svg11.dtd" [
	<!ENTITY ns_flows "http://ns.adobe.com/Flows/1.0/">
	<!ENTITY ns_extend "http://ns.adobe.com/Extensibility/1.0/">
	<!ENTITY ns_ai "http://ns.adobe.com/AdobeIllustrator/10.0/">
	<!ENTITY ns_graphs "http://ns.adobe.com/Graphs/1.0/">
]>
<svg version="1.1" id="Layer_1" xmlns:x="&ns_extend;" xmlns:i="&ns_ai;" xmlns:graph="&ns_graphs;"
	 xmlns="http://www.w3.org/2000/svg" xmlns:xlink="http://www.w3.org/1999/xlink" xmlns:a="http://ns.adobe.com/AdobeSVGViewerExtensions/3.0/"
	 x="0px" y="0px" width="25.334px" height="25px" viewBox="0 0 25.334 25" enable-background="new 0 0 25.334 25"
	 xml:space="preserve">
<g id="facebook" display="none">
	<path display="inline" fill="#E7A723" d="M23.236,8.655l-0.172,3.72l-3.481-0.038V25h-5.105V12.338l-2.619,0.072l-0.074-3.755
		h2.482c0-1.857-0.443-6.013,1.567-7.518c2.841-2.133,7.912-0.729,7.912-0.729l-0.639,3.887c0,0-1.754-0.327-2.082-0.327
		c-0.484,0-1.442,0.196-1.442,1.384v3.303H23.236z"/>
</g>
<g id="twitter" display="none">
	<path display="inline" fill="#E7A723" d="M31.223,4.985c-0.604,0.518-1.652,1.036-1.652,1.036s0.609,3.464-1.037,7.446
		c-1.652,3.986-3.653,6.58-8.782,9.35c-5.129,2.773-8.518,2.295-10.868,1.818c-2.347-0.479-3.825-1.125-5.65-2.51
		c0,0,3.069-0.176,4.431-0.693c1.701-0.64,3.914-2.164,3.914-2.164s-1.387-0.262-3.128-1.297c-1.74-1.039-2.346-2.772-2.346-2.772
		l2.695-0.259c0,0-1.828-0.604-3.564-2.335C3.493,10.87,3.841,8.878,3.841,8.878S4.451,9.224,5.057,9.4c0.609,0.173,1.567,0,1.567,0
		s-2.262-1.3-2.61-3.982c-0.345-2.685,0.698-4.07,0.698-4.07s2.724,2.972,5.39,4.416c3.04,1.646,7.387,1.903,7.387,1.903
		s-0.382-6.032,4.435-7.358c4.087-1.124,6,1.646,6,1.646s0.782,0,1.646-0.261c0.871-0.261,2.09-0.868,2.09-0.868s0,0.434-0.26,0.955
		c-0.262,0.518-0.782,1.04-1.045,1.297c-0.263,0.261-1.129,0.779-1.129,0.779s0.604,0.176,1.303,0.088
		C31.223,3.857,32.354,3.6,32.354,3.6S31.832,4.463,31.223,4.985z"/>
</g>
<g id="youtube" display="none">
	<path display="inline" fill="#E7A723" d="M13.959,17.249l9.434-4.89l-9.434-4.92V17.249z M35.021,14.039
		c0,2.826-0.349,5.652-0.349,5.652s-0.342,2.402-1.387,3.465c-1.328,1.389-2.815,1.396-3.501,1.476C24.9,24.986,17.564,25,17.564,25
		s-9.078-0.083-11.868-0.352c-0.782-0.146-2.524-0.104-3.852-1.492c-1.049-1.063-1.388-3.465-1.388-3.465s-0.347-2.826-0.347-5.652
		v-2.65c0-2.826,0.347-5.652,0.347-5.652s0.339-2.403,1.388-3.465C3.172,0.884,4.66,0.876,5.34,0.797
		c4.889-0.355,12.216-0.355,12.216-0.355h0.016c0,0,7.329,0,12.212,0.355c0.687,0.079,2.173,0.087,3.501,1.475
		c1.045,1.062,1.387,3.465,1.387,3.465s0.348,2.826,0.348,5.652v2.65H35.021z"/>
</g>
<g id="insta">
	<g>
		<path fill="#E7A723" d="M25.041,7.989V7.971c0-1.104,0.031-2.21-0.004-3.314c-0.09-2.623-2.253-4.696-4.872-4.696H9.963v6.125
			H8.67v-6.125H7.778v6.125H6.589v-6.122H5.557v6.122H4.254V0.052C3.198,0.279,2.241,0.92,2.223,0.934
			c-1.129,0.872-1.827,2.011-1.92,3.441C0.217,5.514,0.26,9.454,0.26,9.454v0.253h7.723c0.97-1.613,2.737-2.703,4.754-2.703
			c2.012,0.003,3.768,1.085,4.732,2.703h7.572V9.454V7.989z M25.041,12.056h-6.808c0.016,0.167,0.025,0.329,0.025,0.499
			c0.008,3.097-2.468,5.561-5.577,5.561c-3.02-0.005-5.484-2.492-5.499-5.546c0-0.173,0.011-0.344,0.029-0.514H0.26
			c0,2.695-0.003,5.389,0,8.088C0.267,22.805,2.456,25,5.103,25c5.037,0,10.078,0,15.113,0c2.626-0.003,4.821-2.195,4.825-4.841
			C25.044,17.461,25.041,14.758,25.041,12.056z M22.795,2.989c0.007,0.521,0,1.042,0,1.563c0,0.5,0.003,0.995,0,1.494
			c-0.004,0.63-0.36,0.999-0.979,0.999c-0.996,0.003-1.987,0.003-2.977,0c-0.587,0-0.956-0.361-0.964-0.94
			c-0.006-1.045-0.006-2.088,0-3.129c0.008-0.551,0.344-0.938,0.89-0.948c1.053-0.022,2.104-0.022,3.152,0
			C22.454,2.038,22.788,2.432,22.795,2.989z"/>
		<path fill="#E7A723" d="M12.651,8.609c-2.191,0-3.969,1.777-3.969,3.969c0,2.191,1.777,3.969,3.969,3.969s3.969-1.775,3.969-3.969
			C16.62,10.387,14.844,8.609,12.651,8.609z M12.651,15.316c-1.514,0-2.741-1.225-2.741-2.738c0-1.514,1.227-2.741,2.741-2.741
			c1.515,0,2.739,1.227,2.739,2.741C15.392,14.093,14.166,15.316,12.651,15.316z"/>
	</g>
</g>
</svg>
