<?xml version="1.0" encoding="utf-8"?>
<!-- Generator: Adobe Illustrator 16.0.0, SVG Export Plug-In . SVG Version: 6.00 Build 0)  -->
<!DOCTYPE svg PUBLIC "-//W3C//DTD SVG 1.1//EN" "http://www.w3.org/Graphics/SVG/1.1/DTD/svg11.dtd" [
	<!ENTITY ns_flows "http://ns.adobe.com/Flows/1.0/">
	<!ENTITY ns_extend "http://ns.adobe.com/Extensibility/1.0/">
	<!ENTITY ns_ai "http://ns.adobe.com/AdobeIllustrator/10.0/">
	<!ENTITY ns_graphs "http://ns.adobe.com/Graphs/1.0/">
]>
<svg version="1.1" id="Layer_1" xmlns:x="&ns_extend;" xmlns:i="&ns_ai;" xmlns:graph="&ns_graphs;"
	 xmlns="http://www.w3.org/2000/svg" xmlns:xlink="http://www.w3.org/1999/xlink" xmlns:a="http://ns.adobe.com/AdobeSVGViewerExtensions/3.0/"
	 x="0px" y="0px" width="35px" height="25px" viewBox="0 0 35 25" enable-background="new 0 0 35 25" xml:space="preserve">
<g id="facebook" display="none">
	<path display="inline" fill="#E7A723" d="M23.236,8.655l-0.172,3.72l-3.481-0.038V25h-5.105V12.338l-2.619,0.072l-0.074-3.755
		h2.482c0-1.857-0.443-6.013,1.567-7.518c2.841-2.133,7.912-0.729,7.912-0.729l-0.639,3.887c0,0-1.754-0.327-2.082-0.327
		c-0.484,0-1.442,0.196-1.442,1.384v3.303H23.236z"/>
</g>
<g id="twitter" display="none">
	<path display="inline" fill="#E7A723" d="M31.223,4.985c-0.604,0.518-1.652,1.036-1.652,1.036s0.609,3.464-1.037,7.446
		c-1.652,3.986-3.653,6.58-8.782,9.35c-5.129,2.773-8.518,2.295-10.868,1.818c-2.347-0.479-3.825-1.125-5.65-2.51
		c0,0,3.069-0.176,4.431-0.693c1.701-0.64,3.914-2.164,3.914-2.164s-1.387-0.262-3.128-1.297c-1.74-1.039-2.346-2.772-2.346-2.772
		l2.695-0.259c0,0-1.828-0.604-3.564-2.335C3.493,10.87,3.841,8.878,3.841,8.878S4.451,9.224,5.057,9.4c0.609,0.173,1.567,0,1.567,0
		s-2.262-1.3-2.61-3.982c-0.345-2.685,0.698-4.07,0.698-4.07s2.724,2.972,5.39,4.416c3.04,1.646,7.387,1.903,7.387,1.903
		s-0.382-6.032,4.435-7.358c4.087-1.124,6,1.646,6,1.646s0.782,0,1.646-0.261c0.871-0.261,2.09-0.868,2.09-0.868s0,0.434-0.26,0.955
		c-0.262,0.518-0.782,1.04-1.045,1.297c-0.263,0.261-1.129,0.779-1.129,0.779s0.604,0.176,1.303,0.088
		C31.223,3.857,32.354,3.6,32.354,3.6S31.832,4.463,31.223,4.985z"/>
</g>
<g id="youtube" display="none">
	<path display="inline" fill="#E7A723" d="M13.959,17.249l9.434-4.89l-9.434-4.92V17.249z M35.021,14.039
		c0,2.826-0.349,5.652-0.349,5.652s-0.342,2.402-1.387,3.465c-1.328,1.389-2.815,1.396-3.501,1.476C24.9,24.986,17.564,25,17.564,25
		s-9.078-0.083-11.868-0.352c-0.782-0.146-2.524-0.104-3.852-1.492c-1.049-1.063-1.388-3.465-1.388-3.465s-0.347-2.826-0.347-5.652
		v-2.65c0-2.826,0.347-5.652,0.347-5.652s0.339-2.403,1.388-3.465C3.172,0.884,4.66,0.876,5.34,0.797
		c4.889-0.355,12.216-0.355,12.216-0.355h0.016c0,0,7.329,0,12.212,0.355c0.687,0.079,2.173,0.087,3.501,1.475
		c1.045,1.062,1.387,3.465,1.387,3.465s0.348,2.826,0.348,5.652v2.65H35.021z"/>
</g>
<g id="pinterest" display="none">
	<path display="inline" fill="#E7A723" d="M24.219,15.688c-2.283,2.479-4.996,2.679-6.632,2.185
		c-1.633-0.49-2.105-1.595-2.105-1.595s-0.645,2.572-0.857,3.388c-0.13,0.5-0.213,1.122-0.858,2.33
		c-0.645,1.209-1.765,2.782-1.869,2.926c-0.106,0.138-0.337,0.087-0.354-0.083c-0.016-0.173-0.138-1.227-0.18-1.807
		c-0.04-0.579-0.032-1.655-0.014-2.088c0.019-0.435,0.139-1.104,0.335-1.93s1.476-6.161,1.728-7.418
		c-0.509-1.044-0.525-2.755-0.252-3.719c0.274-0.964,1.277-2.106,2.241-2.202c0.967-0.099,1.693,0.332,2.01,1.022
		c0.313,0.688,0.295,1.336,0.078,2.263c-0.215,0.924-1.004,3.461-1.161,4.111c-0.157,0.648,0.244,1.572,0.668,1.947
		c0.492,0.434,1.971,1.121,3.349,0.1c1.377-1.023,2.518-2.832,2.771-5.765c0.259-2.933-0.413-4.312-1.672-5.414
		c-1.258-1.102-3.561-1.848-6.275-1.14c-2.717,0.707-4.527,3.05-4.902,5.433c-0.374,2.38,0.611,3.618,0.945,4.032
		c0.332,0.412,0.176,0.571,0.138,0.709c-0.039,0.139-0.196,0.786-0.355,1.238c-0.157,0.454-0.473,0.374-0.67,0.276
		c-0.196-0.098-1.375-0.631-2.025-1.792C7.995,12.15,6.32,9.218,8.478,5.039c2.183-4.229,7.811-5.47,11.098-4.781
		c3.197,0.669,5.807,2.794,6.691,5.57C27.15,8.604,26.503,13.21,24.219,15.688z"/>
</g>
<g id="linkdin" display="none">
	<path display="inline" fill="#E7A723" d="M30.518,25H25.08v-9.854c0-0.676-0.078-1.096-0.525-1.813
		c-0.457-0.715-1.137-1.283-2.306-1.283c-0.979,0-1.772,0.416-2.456,1.171c-0.34,0.381-0.445,0.774-0.639,1.111V25h-5.588V8.161
		h5.588v2.654c0.551-0.792,1.498-3.032,5.283-3.032c4.155,0,6.08,3.399,6.08,7.361V25L30.518,25z M7.657,5.974
		c-1.721,0-3.115-1.321-3.115-2.947s1.395-2.943,3.115-2.943c1.72,0,3.115,1.316,3.115,2.943S9.377,5.974,7.657,5.974z M10.547,25
		h-5.74V8.161h5.74V25z"/>
</g>
<path fill-rule="evenodd" clip-rule="evenodd" fill="#E6A623" d="M13.902,17.267l9.413-4.88l-9.413-4.909V17.267z M34.916,14.063
	c0,2.82-0.347,5.639-0.347,5.639s-0.342,2.398-1.384,3.457c-1.325,1.387-2.81,1.393-3.493,1.473C24.818,24.985,17.499,25,17.499,25
	s-9.058-0.083-11.841-0.351c-0.78-0.146-2.519-0.104-3.843-1.49c-1.046-1.059-1.385-3.457-1.385-3.457s-0.346-2.818-0.346-5.639
	v-2.645C0.083,8.6,0.43,5.78,0.43,5.78s0.338-2.398,1.385-3.458c1.325-1.384,2.809-1.393,3.488-1.472
	c4.878-0.354,12.189-0.354,12.189-0.354h0.016c0,0,7.311,0,12.185,0.354c0.684,0.079,2.168,0.087,3.493,1.472
	c1.042,1.06,1.384,3.458,1.384,3.458s0.347,2.819,0.347,5.639V14.063z"/>
</svg>
