<?xml version="1.0" encoding="utf-8"?>
<!-- Generator: Adobe Illustrator 16.0.0, SVG Export Plug-In . SVG Version: 6.00 Build 0)  -->
<!DOCTYPE svg PUBLIC "-//W3C//DTD SVG 1.1//EN" "http://www.w3.org/Graphics/SVG/1.1/DTD/svg11.dtd">
<svg version="1.1" id="Layer_1" xmlns="http://www.w3.org/2000/svg" xmlns:xlink="http://www.w3.org/1999/xlink" x="0px" y="0px"
	 width="20px" height="20px" viewBox="0 0 20 20" enable-background="new 0 0 20 20" xml:space="preserve">
<g>
	<path fill="#53682B" d="M10.039,7.461c-0.298,0-0.542,0.164-0.733,0.489C9.116,8.277,9.02,8.609,9.02,8.948
		c0,0.244,0.063,0.443,0.186,0.598C9.33,9.701,9.477,9.778,9.647,9.778c0.268,0,0.516-0.148,0.738-0.447
		c0.227-0.297,0.338-0.642,0.338-1.031c0-0.26-0.065-0.465-0.197-0.614C10.395,7.534,10.232,7.461,10.039,7.461z"/>
	<path fill="#53682B" d="M10.063,0.485L0.658,7.823v6.464v5.559h10.385h8.424v-5.559V7.823L10.063,0.485z M8.123,6.726
		c0.51-0.601,1.224-0.9,2.146-0.9c0.75,0,1.357,0.222,1.816,0.666c0.459,0.446,0.688,0.986,0.688,1.622
		c0,0.542-0.186,1.028-0.551,1.457c-0.367,0.429-0.773,0.646-1.219,0.646c-0.195,0-0.335-0.04-0.416-0.12
		c-0.083-0.08-0.131-0.205-0.147-0.371c-0.286,0.325-0.584,0.488-0.9,0.488c-0.289,0-0.537-0.122-0.749-0.364
		C8.584,9.61,8.478,9.292,8.478,8.898c0-0.464,0.157-0.891,0.465-1.283c0.313-0.393,0.664-0.589,1.056-0.589
		c0.372,0,0.667,0.083,0.887,0.441l0.104-0.552h0.523l-0.422,2.068c-0.061,0.272-0.09,0.473-0.09,0.503
		c0,0.056,0.023,0.127,0.063,0.165c0.045,0.035,0.092,0.065,0.138,0.065c0.104,0,0.25-0.06,0.442-0.19
		c0.189-0.132,0.354-0.326,0.49-0.588c0.137-0.264,0.204-0.54,0.204-0.837c0-0.535-0.202-0.977-0.604-1.327
		c-0.403-0.349-0.899-0.522-1.492-0.522c-0.723,0-1.313,0.246-1.767,0.735C8.022,7.478,7.793,8.072,7.793,8.775
		c0,0.729,0.225,1.288,0.675,1.676c0.45,0.391,1.067,0.584,1.853,0.584c0.459,0,0.871,0.068,1.231-0.084
		c0.36-0.156,0.64-0.509,0.835-0.509h0.531c-0.163,0-0.466,0.494-0.908,0.768c-0.445,0.271-1.005,0.334-1.682,0.334
		c-0.946,0-1.678-0.276-2.194-0.759C7.619,10.303,7.36,9.647,7.36,8.849C7.36,8.046,7.615,7.328,8.123,6.726z M1.833,8.287
		l7.347,4.211l-7.347,5.193V8.287z M1.843,18.67l7.906-6.025l8.303,6.025H1.843z M18.292,17.691l-7.838-5.098l7.838-4.309V17.691z"
		/>
</g>
</svg>
