<?xml version="1.0" encoding="utf-8"?>
<!-- Generator: Adobe Illustrator 16.0.0, SVG Export Plug-In . SVG Version: 6.00 Build 0)  -->
<!DOCTYPE svg PUBLIC "-//W3C//DTD SVG 1.1//EN" "http://www.w3.org/Graphics/SVG/1.1/DTD/svg11.dtd">
<svg version="1.1" id="Layer_1" xmlns="http://www.w3.org/2000/svg" xmlns:xlink="http://www.w3.org/1999/xlink" x="0px" y="0px"
	 width="38.667px" height="62.242px" viewBox="0 0 38.667 62.242" enable-background="new 0 0 38.667 62.242" xml:space="preserve">
<g id="Layer_1_1_" display="none">
	<g display="inline">
		<path fill="#E7A723" d="M4.429,20.167c-3.344,0-6.066-2.719-6.066-6.062s2.723-6.063,6.066-6.063c0.939,0,1.842,0.209,2.68,0.622
			c0.26,0.126,0.365,0.439,0.238,0.697C7.222,9.621,6.907,9.729,6.649,9.6c-0.695-0.342-1.441-0.515-2.22-0.515
			c-2.77,0-5.023,2.252-5.023,5.02c0,2.767,2.254,5.019,5.023,5.019c2.771,0,5.025-2.252,5.025-5.019
			c0-0.883-0.232-1.749-0.672-2.507c-0.145-0.25-0.061-0.568,0.189-0.713c0.25-0.144,0.568-0.061,0.713,0.189
			c0.531,0.916,0.813,1.964,0.813,3.03C10.497,17.448,7.774,20.167,4.429,20.167z"/>
	</g>
	<path display="inline" fill="#E7A723" d="M9.97,7.934C9.741,7.757,9.413,7.799,9.237,8.025l-5.529,7.099l-1.104-2.107
		c-0.131-0.256-0.447-0.353-0.703-0.222c-0.256,0.134-0.354,0.449-0.221,0.704l1.479,2.825c0,0.002,0.002,0.002,0.004,0.004
		c0.033,0.063,0.078,0.12,0.137,0.166c0.012,0.01,0.027,0.013,0.039,0.021c0.016,0.01,0.029-0.079,0.045-0.07
		c0.076,0.039,0.168,0.062,0.25,0.062L3.62,16.413c0.002,0,0.002,0,0.002,0c0.004,0,0.008,0.093,0.012,0.093
		c0.076-0.002,0.15,0.028,0.219-0.006c0.004-0.001,0.006,0.024,0.01,0.022c0.066-0.035,0.121-0.07,0.164-0.125
		c0.002-0.002,0.004,0.003,0.006,0.001l6.027-7.734C10.237,8.437,10.196,8.112,9.97,7.934z"/>
</g>
<g id="Layer_2" display="none">
	<path display="inline" fill="#EEA421" d="M-1.887,19.958c0-2.9,2.351-5.252,5.252-5.252c2.9,0,5.251,2.352,5.251,5.252"/>
	<circle display="inline" fill="#EEA421" cx="2.863" cy="10.413" r="2.375"/>
</g>
<g id="Layer_3" display="none">
	<g display="inline">
		<g>
			<path fill="#E7A723" d="M9.399,9.356c0,0.605-0.002,1.219,0,1.832c0.002,0.107-0.035,0.157-0.148,0.156
				c-0.613-0.002-1.227,0-1.947,0c0.225-0.215,0.367-0.373,0.535-0.504c0.199-0.156,0.135-0.25-0.025-0.392
				C5.81,8.673,2.728,8.84,0.947,10.831c-0.805,0.898-1.221,1.953-1.258,3.158c-0.013,0.383-0.188,0.6-0.489,0.6
				c-0.313,0.001-0.491-0.228-0.487-0.629c0.025-2.826,2.269-5.324,5.076-5.66c1.818-0.22,3.404,0.283,4.759,1.508
				C8.685,9.93,8.757,9.94,8.878,9.801c0.141-0.163,0.305-0.307,0.461-0.458C9.343,9.34,9.358,9.347,9.399,9.356z"/>
			<path fill="#E7A723" d="M0.087,16.149c0.006,0.275-0.206,0.495-0.48,0.496c-0.271,0.002-0.497-0.224-0.495-0.49
				c0.003-0.251,0.221-0.474,0.473-0.484C-0.146,15.658,0.082,15.874,0.087,16.149z"/>
			<path fill="#E7A723" d="M0.781,18.393c-0.263,0.008-0.5-0.223-0.502-0.488c-0.002-0.254,0.205-0.473,0.464-0.485
				c0.278-0.015,0.502,0.188,0.511,0.464C1.263,18.155,1.048,18.387,0.781,18.393z"/>
			<path fill="#E7A723" d="M8.354,18.393c-0.268-0.008-0.479-0.24-0.469-0.514c0.012-0.275,0.234-0.476,0.514-0.46
				c0.258,0.015,0.467,0.237,0.461,0.489C8.856,18.172,8.616,18.403,8.354,18.393z"/>
			<path fill="#E7A723" d="M2.501,19.559c-0.269-0.006-0.482-0.236-0.475-0.51c0.01-0.275,0.23-0.477,0.511-0.464
				c0.259,0.013,0.466,0.228,0.465,0.483C3,19.332,2.761,19.565,2.501,19.559z"/>
			<path fill="#E7A723" d="M7.11,19.075c-0.004,0.268-0.236,0.495-0.5,0.487c-0.266-0.007-0.486-0.244-0.477-0.511
				c0.012-0.26,0.223-0.462,0.484-0.465C6.894,18.585,7.112,18.802,7.11,19.075z"/>
			<path fill="#E7A723" d="M4.571,19.963c-0.269,0.002-0.495-0.224-0.492-0.492c0.002-0.27,0.231-0.49,0.5-0.479
				c0.259,0.007,0.466,0.216,0.472,0.476C5.057,19.737,4.841,19.961,4.571,19.963z"/>
		</g>
		<path fill="#E7A723" d="M7.331,15.266l0.002-0.002l-0.064-0.025c-0.014-0.005-0.021-0.012-0.037-0.017
			c-0.008-0.003-0.018-0.006-0.025-0.008L6.244,14.83l-0.05-0.01c-0.023-0.007-0.047-0.012-0.07-0.017L6.05,14.787L6.04,14.8
			c-0.219-0.017-0.412,0.07-0.574,0.328c-0.116,0.184-0.239,0.146-0.393,0.029c-0.514-0.387-0.981-0.82-1.382-1.324
			c-0.37-0.463-0.376-0.473,0.047-0.876c0.086-0.082,0.12-0.16,0.128-0.244l0.013-0.019l-0.027-0.078
			c-0.007-0.035,0.001-0.063-0.017-0.104c-0.055-0.127-0.105-0.255-0.157-0.384l-0.17-0.48c-0.019-0.056-0.04-0.111-0.057-0.168
			c-0.004-0.014-0.011-0.021-0.015-0.033l-0.029-0.08l-0.003,0.01c-0.089-0.174-0.231-0.197-0.436-0.16
			c-1.136,0.206-1.751,1.469-1.177,2.488c0.75,1.332,1.808,2.373,3.131,3.141c0.256,0.148,0.539,0.222,0.837,0.217
			c0.865-0.004,1.611-0.678,1.678-1.508C7.45,15.418,7.431,15.327,7.331,15.266z"/>
	</g>
</g>
<path fill="#020202" d="M37.987,19.4c0,10.286-18.625,42.2-18.625,42.2S0.737,29.686,0.737,19.4c0-10.286,8.34-18.625,18.625-18.625
	C29.649,0.775,37.987,9.114,37.987,19.4z"/>
<g>
	<path fill="#D44954" d="M22.007,25.088c-0.031,0.076-0.053,0.135-0.076,0.191c-0.5,1.236-1.002,2.473-1.5,3.709
		c-0.205,0.506-0.4,1.016-0.426,1.57c-0.021,0.441,0.176,0.732,0.543,0.797c0.236,0.043,0.465-0.025,0.619-0.189
		c0.281-0.297,0.588-0.594,0.781-0.947c0.885-1.617,1.73-3.254,2.596-4.885c0.375-0.705,0.221-1.309-0.439-1.764
		c-0.928-0.637-1.855-1.271-2.783-1.908c-0.063-0.043-0.121-0.088-0.195-0.141c0.736-1.18,1.463-2.342,2.213-3.542
		c0.072,0.158,0.123,0.27,0.18,0.383c0.27,0.578,0.51,1.166,0.803,1.729c0.188,0.357,0.508,0.558,0.938,0.539
		c0.986-0.043,1.979-0.044,2.957-0.099c0.391-0.021,0.771-0.122,1.146-0.22c0.203-0.054,0.35-0.216,0.354-0.447
		c0.008-0.256-0.088-0.471-0.336-0.58c-0.127-0.056-0.262-0.107-0.396-0.119c-0.935-0.092-1.862-0.176-2.797-0.25
		c-0.168-0.014-0.261-0.067-0.326-0.226c-0.422-0.974-0.854-1.942-1.278-2.915c-0.121-0.279-0.289-0.492-0.558-0.654
		c-0.489-0.307-0.961-0.65-1.444-0.965c-0.162-0.104-0.345-0.199-0.524-0.242c-1.123-0.257-2.25-0.496-3.375-0.745
		c-0.381-0.085-0.709-0.004-1.02,0.239c-0.873,0.686-1.762,1.354-2.635,2.043c-0.213,0.167-0.41,0.361-0.586,0.568
		c-0.107,0.129-0.191,0.295-0.234,0.459c-0.096,0.372,0.141,0.646,0.521,0.602c0.213-0.024,0.436-0.072,0.623-0.168
		c0.963-0.492,1.922-0.996,2.873-1.515c0.242-0.132,0.459-0.173,0.729-0.104c0.531,0.136,1.07,0.24,1.634,0.365
		c-0.059,0.088-0.096,0.152-0.137,0.213c-0.807,1.194-1.615,2.387-2.412,3.586c-0.18,0.272-0.338,0.563-0.471,0.862
		c-0.41,0.937-0.166,1.669,0.721,2.281c1.186,0.816,2.396,1.596,3.595,2.391C21.919,25.018,21.957,25.049,22.007,25.088z
		 M16.599,22.526c-0.043,0.057-0.088,0.111-0.127,0.168c-0.307,0.424-0.609,0.854-0.924,1.271c-0.053,0.072-0.162,0.137-0.252,0.143
		c-1.316,0.094-2.637,0.174-3.953,0.266c-0.385,0.027-0.77,0.078-1.08,0.342c-0.369,0.311-0.35,0.861,0.043,1.137
		c0.117,0.084,0.256,0.162,0.396,0.184c0.543,0.084,1.088,0.166,1.637,0.209c1.199,0.094,2.4,0.162,3.6,0.242
		c0.465,0.031,0.873-0.119,1.148-0.486c0.432-0.572,0.82-1.18,1.232-1.779C17.687,23.706,16.993,23.276,16.599,22.526z
		 M25.183,14.029c1.057,0.01,1.939-0.865,1.959-1.941c0.02-1.054-0.859-1.941-1.936-1.956c-1.074-0.015-1.975,0.87-1.975,1.944
		C23.237,13.139,24.119,14.021,25.183,14.029z"/>
	<path fill="#D44954" d="M22.007,25.088c-0.051-0.039-0.088-0.07-0.127-0.098c-1.201-0.795-2.417-1.574-3.598-2.391
		c-0.887-0.611-1.131-1.344-0.721-2.281c0.133-0.299,0.291-0.59,0.471-0.862c0.797-1.199,1.605-2.392,2.41-3.586
		c0.041-0.061,0.08-0.125,0.138-0.213c-0.563-0.125-1.104-0.229-1.638-0.365c-0.27-0.068-0.486-0.027-0.729,0.104
		c-0.951,0.519-1.91,1.022-2.873,1.515c-0.188,0.096-0.41,0.144-0.623,0.168c-0.381,0.045-0.617-0.229-0.521-0.602
		c0.043-0.164,0.127-0.33,0.234-0.459c0.176-0.207,0.373-0.401,0.586-0.568c0.873-0.688,1.762-1.357,2.635-2.043
		c0.311-0.243,0.639-0.324,1.02-0.239c1.125,0.249,2.252,0.488,3.375,0.745c0.184,0.043,0.363,0.139,0.521,0.242
		c0.485,0.313,0.955,0.658,1.447,0.965c0.271,0.162,0.438,0.375,0.56,0.654c0.424,0.973,0.854,1.941,1.276,2.915
		c0.063,0.158,0.155,0.212,0.323,0.226c0.935,0.074,1.863,0.158,2.8,0.25c0.137,0.012,0.271,0.063,0.396,0.119
		c0.248,0.109,0.34,0.324,0.336,0.58c-0.004,0.229-0.146,0.394-0.353,0.447c-0.377,0.098-0.761,0.198-1.146,0.22
		c-0.983,0.055-1.973,0.056-2.957,0.099c-0.438,0.019-0.756-0.182-0.942-0.539c-0.293-0.563-0.537-1.15-0.804-1.729
		c-0.051-0.113-0.104-0.229-0.174-0.383c-0.75,1.199-1.479,2.361-2.213,3.542c0.07,0.053,0.133,0.098,0.19,0.141
		c0.933,0.637,1.854,1.271,2.78,1.908c0.66,0.455,0.814,1.059,0.439,1.764c-0.857,1.631-1.712,3.268-2.598,4.885
		c-0.191,0.354-0.5,0.65-0.779,0.947c-0.154,0.164-0.385,0.232-0.619,0.189C20.167,31.291,19.97,31,19.99,30.558
		c0.023-0.555,0.223-1.064,0.428-1.57c0.496-1.236,1-2.473,1.5-3.709C21.955,25.223,21.976,25.165,22.007,25.088z"/>
	<path fill="#D44954" d="M16.599,22.526c0.395,0.75,1.088,1.18,1.721,1.695c-0.412,0.604-0.801,1.207-1.232,1.779
		c-0.275,0.367-0.684,0.518-1.148,0.486c-1.199-0.08-2.4-0.148-3.6-0.242c-0.549-0.043-1.094-0.125-1.637-0.209
		c-0.141-0.021-0.279-0.1-0.396-0.184c-0.393-0.275-0.412-0.826-0.043-1.137c0.311-0.264,0.695-0.314,1.08-0.342
		c1.316-0.092,2.637-0.172,3.953-0.266c0.09-0.006,0.199-0.07,0.252-0.143c0.314-0.418,0.617-0.848,0.924-1.271
		C16.511,22.637,16.556,22.583,16.599,22.526z"/>
	<path fill="#D44954" d="M25.183,14.029c-1.064-0.008-1.945-0.896-1.945-1.953c0-1.074,0.895-1.959,1.969-1.944
		c1.076,0.015,1.955,0.902,1.938,1.956C27.123,13.164,26.24,14.039,25.183,14.029z"/>
</g>
</svg>
