<?xml version="1.0" encoding="utf-8"?>
<!-- Generator: Adobe Illustrator 16.0.0, SVG Export Plug-In . SVG Version: 6.00 Build 0)  -->
<!DOCTYPE svg PUBLIC "-//W3C//DTD SVG 1.1//EN" "http://www.w3.org/Graphics/SVG/1.1/DTD/svg11.dtd">
<svg version="1.1" id="Layer_1" xmlns="http://www.w3.org/2000/svg" xmlns:xlink="http://www.w3.org/1999/xlink" x="0px" y="0px"
	 width="16.917px" height="14.386px" viewBox="0 0 16.917 14.386" enable-background="new 0 0 16.917 14.386" xml:space="preserve">
<g id="Layer_1_1_" display="none">
	<g display="inline">
		<path fill="#E7A723" d="M5.762,15.919c-3.344,0-6.066-2.719-6.066-6.063c0-3.343,2.723-6.063,6.066-6.063
			c0.939,0,1.842,0.209,2.68,0.622c0.26,0.126,0.365,0.439,0.238,0.697c-0.125,0.261-0.44,0.369-0.698,0.24
			C7.287,5.01,6.541,4.837,5.762,4.837c-2.77,0-5.023,2.252-5.023,5.02c0,2.77,2.254,5.021,5.023,5.021
			c2.771,0,5.024-2.252,5.024-5.021c0-0.883-0.231-1.749-0.677-2.507C9.966,7.1,10.05,6.782,10.3,6.637
			c0.25-0.144,0.566-0.061,0.714,0.189c0.528,0.917,0.813,1.962,0.813,3.03C11.83,13.203,9.107,15.919,5.762,15.919z"/>
	</g>
	<path display="inline" fill="#E7A723" d="M11.302,3.688c-0.229-0.177-0.557-0.135-0.731,0.091l-5.529,7.1L3.938,8.77
		C3.807,8.514,3.49,8.417,3.234,8.548c-0.255,0.134-0.353,0.449-0.22,0.703l1.479,2.826c0,0.002,0.002,0.002,0.004,0.004
		c0.033,0.063,0.078,0.119,0.137,0.166c0.012,0.01,0.027,0.012,0.039,0.021c0.016,0.01,0.029-0.079,0.045-0.069
		c0.076,0.039,0.168,0.061,0.25,0.061l-0.014-0.092c0.002,0,0.002,0,0.002,0c0.004,0,0.008,0.092,0.012,0.092
		c0.076-0.002,0.15,0.029,0.219-0.006c0.004,0,0.006,0.024,0.01,0.022c0.066-0.034,0.121-0.069,0.164-0.125
		c0.002-0.002,0.004,0.003,0.006,0.001l6.027-7.734C11.57,4.191,11.529,3.866,11.302,3.688z"/>
</g>
<g id="Layer_2" display="none">
	<path display="inline" fill="#EEA421" d="M-0.554,15.71c0-2.899,2.351-5.252,5.252-5.252c2.9,0,5.25,2.353,5.25,5.252"/>
	<circle display="inline" fill="#EEA421" cx="4.196" cy="6.167" r="2.375"/>
</g>
<g id="Layer_3" display="none">
	<g display="inline">
		<g>
			<path fill="#E7A723" d="M10.732,5.11c0,0.605-0.002,1.219,0,1.832c0.002,0.107-0.035,0.157-0.148,0.156
				c-0.607-0.002-1.227,0-1.941,0c0.225-0.215,0.361-0.373,0.529-0.504C9.371,6.438,9.31,6.344,9.15,6.202
				C7.143,4.427,4.061,4.594,2.28,6.584c-0.805,0.899-1.221,1.955-1.258,3.16c-0.013,0.383-0.188,0.6-0.489,0.6
				c-0.313,0-0.491-0.229-0.487-0.629C0.071,6.89,2.315,4.392,5.122,4.056C6.94,3.834,8.526,4.337,9.88,5.562
				c0.138,0.123,0.209,0.133,0.33-0.006c0.142-0.163,0.306-0.307,0.461-0.458C10.675,5.094,10.691,5.101,10.732,5.11z"/>
			<path fill="#E7A723" d="M1.42,11.903c0.006,0.274-0.206,0.495-0.48,0.496c-0.271,0.002-0.497-0.224-0.495-0.489
				c0.003-0.252,0.221-0.475,0.473-0.484C1.187,11.412,1.415,11.626,1.42,11.903z"/>
			<path fill="#E7A723" d="M2.114,14.147c-0.263,0.009-0.5-0.224-0.502-0.487c-0.002-0.254,0.205-0.474,0.464-0.486
				c0.278-0.014,0.502,0.189,0.511,0.47C2.596,13.91,2.381,14.141,2.114,14.147z"/>
			<path fill="#E7A723" d="M9.688,14.147c-0.269-0.008-0.479-0.239-0.47-0.515c0.013-0.274,0.234-0.475,0.515-0.459
				c0.259,0.015,0.468,0.236,0.461,0.488C10.189,13.925,9.949,14.158,9.688,14.147z"/>
			<path fill="#E7A723" d="M3.834,15.313c-0.269-0.006-0.482-0.235-0.475-0.511c0.01-0.274,0.23-0.477,0.511-0.463
				c0.259,0.013,0.466,0.228,0.465,0.479C4.333,15.085,4.094,15.319,3.834,15.313z"/>
			<path fill="#E7A723" d="M8.443,14.83c-0.004,0.271-0.236,0.494-0.5,0.486c-0.266-0.007-0.486-0.244-0.477-0.511
				c0.012-0.261,0.223-0.462,0.484-0.466C8.227,14.339,8.445,14.556,8.443,14.83z"/>
			<path fill="#E7A723" d="M5.904,15.716c-0.269,0.002-0.495-0.223-0.492-0.491c0.002-0.271,0.231-0.49,0.5-0.483
				c0.259,0.008,0.466,0.217,0.472,0.477C6.39,15.492,6.174,15.714,5.904,15.716z"/>
		</g>
		<path fill="#E7A723" d="M8.664,11.02l0.002-0.002l-0.064-0.024c-0.014-0.006-0.021-0.013-0.037-0.018
			c-0.008-0.003-0.018-0.006-0.025-0.008l-0.963-0.385l-0.049-0.01c-0.023-0.013-0.047-0.018-0.07-0.021l-0.074-0.02l-0.01,0.014
			c-0.219-0.02-0.412,0.07-0.574,0.328c-0.116,0.187-0.239,0.146-0.393,0.027c-0.514-0.388-0.981-0.818-1.382-1.322
			C4.655,9.125,4.649,9.115,5.072,8.71C5.158,8.628,5.192,8.55,5.2,8.466l0.013-0.021L5.185,8.371
			C5.178,8.333,5.186,8.306,5.168,8.265C5.114,8.138,5.063,8.009,5.011,7.88l-0.17-0.479C4.823,7.345,4.801,7.29,4.785,7.233
			C4.781,7.219,4.774,7.212,4.77,7.2L4.741,7.12L4.738,7.13C4.649,6.956,4.507,6.933,4.302,6.97
			C3.167,7.175,2.551,8.438,3.125,9.458c0.75,1.332,1.808,2.373,3.131,3.141c0.256,0.148,0.539,0.223,0.837,0.217
			c0.865-0.004,1.611-0.678,1.678-1.508C8.783,11.171,8.764,11.082,8.664,11.02z"/>
	</g>
</g>
<path fill="#057A7B" d="M16.737,4.542c0-2.324-1.884-4.209-4.208-4.209c-1.888,0-3.467,1.252-4,2.964
	c-0.534-1.712-2.112-2.964-4-2.964c-2.324,0-4.209,1.885-4.209,4.209c0,0.917,0.301,1.758,0.798,2.448
	c1.885,3.695,7.411,7.093,7.411,7.093s5.523-3.397,7.409-7.091C16.437,6.301,16.737,5.459,16.737,4.542z"/>
</svg>
