<?xml version="1.0" encoding="utf-8"?>
<!-- Generator: Adobe Illustrator 16.0.0, SVG Export Plug-In . SVG Version: 6.00 Build 0)  -->
<!DOCTYPE svg PUBLIC "-//W3C//DTD SVG 1.1//EN" "http://www.w3.org/Graphics/SVG/1.1/DTD/svg11.dtd">
<svg version="1.1" id="Layer_1" xmlns="http://www.w3.org/2000/svg" xmlns:xlink="http://www.w3.org/1999/xlink" x="0px" y="0px"
	 width="29.75px" height="29.875px" viewBox="0 0 29.75 29.875" enable-background="new 0 0 29.75 29.875" xml:space="preserve">
<g>
	<path fill="#5C220F" d="M14.917,29.459c-7.995,0-14.5-6.505-14.5-14.5s6.504-14.5,14.5-14.5s14.499,6.505,14.499,14.5
		S22.912,29.459,14.917,29.459z M14.917,1.471c-7.438,0-13.488,6.051-13.488,13.488c0,7.438,6.05,13.488,13.488,13.488
		c7.438,0,13.488-6.051,13.488-13.488C28.405,7.522,22.354,1.471,14.917,1.471z"/>
</g>
<g>
	<path fill="#5C220F" d="M14.892,18.734c-0.133,0-0.26-0.053-0.354-0.146l-6.859-6.859c-0.195-0.195-0.195-0.512,0-0.707
		c0.195-0.195,0.512-0.195,0.707,0l6.505,6.505l6.363-6.364c0.195-0.195,0.512-0.195,0.707,0c0.195,0.195,0.195,0.512,0,0.707
		l-6.717,6.718C15.151,18.682,15.024,18.734,14.892,18.734z"/>
</g>
</svg>
