<?xml version="1.0" encoding="utf-8"?>
<!-- Generator: Adobe Illustrator 16.0.0, SVG Export Plug-In . SVG Version: 6.00 Build 0)  -->
<!DOCTYPE svg PUBLIC "-//W3C//DTD SVG 1.1//EN" "http://www.w3.org/Graphics/SVG/1.1/DTD/svg11.dtd">
<svg version="1.1" id="Layer_1" xmlns="http://www.w3.org/2000/svg" xmlns:xlink="http://www.w3.org/1999/xlink" x="0px" y="0px"
	 width="95px" height="95px" viewBox="0 0 95 95" enable-background="new 0 0 95 95" xml:space="preserve">
<g>
	<circle cx="47.501" cy="48.076" r="45.629"/>
	<path fill="#057A7B" d="M47.5,94.576c-25.639,0-46.5-20.857-46.5-46.5c0-25.642,20.86-46.5,46.5-46.5
		c25.641,0,46.5,20.859,46.5,46.5C94,73.719,73.143,94.576,47.5,94.576z M47.5,3.318c-24.679,0-44.757,20.079-44.757,44.758
		c0,24.679,20.078,44.759,44.757,44.759c24.68,0,44.76-20.078,44.76-44.759C92.26,23.396,72.18,3.318,47.5,3.318z"/>
</g>
<g>
	<path fill="#FFFFFF" d="M23.403,71.628h-1.141v-6.002h-2.054v-0.979h5.248v0.979h-2.053V71.628z"/>
	<path fill="#FFFFFF" d="M27.667,68.843v2.787h-1.142v-6.981h1.974c0.901,0,1.566,0.17,2.001,0.509
		c0.432,0.337,0.648,0.849,0.648,1.526c0,0.869-0.451,1.489-1.355,1.854l1.972,3.092h-1.298l-1.672-2.787H27.667L27.667,68.843z
		 M27.667,67.896h0.793c0.531,0,0.916-0.103,1.156-0.297c0.239-0.195,0.357-0.487,0.357-0.884c0-0.393-0.129-0.677-0.387-0.847
		c-0.258-0.174-0.647-0.264-1.165-0.264h-0.754V67.896z"/>
	<path fill="#FFFFFF" d="M37.108,71.628l-0.697-1.938h-2.669l-0.683,1.938h-1.203l2.612-7.009h1.24l2.613,7.009H37.108z
		 M36.11,68.708l-0.654-1.901c-0.048-0.128-0.113-0.326-0.197-0.602c-0.085-0.271-0.145-0.477-0.175-0.604
		c-0.085,0.39-0.212,0.817-0.377,1.283l-0.63,1.818h2.034L36.11,68.708L36.11,68.708z"/>
	<path fill="#FFFFFF" d="M45.058,71.628h-1.399l-3.433-5.563h-0.038l0.023,0.313c0.043,0.59,0.067,1.133,0.067,1.622v3.629H39.24
		v-6.98h1.384l3.424,5.537h0.029c-0.007-0.071-0.02-0.341-0.04-0.801c-0.018-0.46-0.026-0.82-0.026-1.076V64.65h1.046L45.058,71.628
		L45.058,71.628z"/>
	<path fill="#FFFFFF" d="M50.926,69.732c0,0.619-0.226,1.105-0.672,1.461c-0.449,0.354-1.07,0.529-1.859,0.529
		c-0.788,0-1.435-0.123-1.938-0.367v-1.078c0.318,0.147,0.657,0.267,1.015,0.354c0.357,0.083,0.693,0.128,1,0.128
		c0.449,0,0.781-0.086,0.996-0.258c0.219-0.172,0.322-0.399,0.322-0.692c0-0.262-0.1-0.479-0.295-0.664
		c-0.197-0.18-0.605-0.395-1.225-0.644c-0.636-0.259-1.084-0.553-1.348-0.883c-0.262-0.331-0.392-0.73-0.392-1.194
		c0-0.582,0.206-1.041,0.621-1.376c0.413-0.334,0.968-0.5,1.666-0.5c0.668,0,1.334,0.146,1.996,0.438l-0.361,0.93
		c-0.621-0.26-1.174-0.391-1.661-0.391c-0.372,0-0.651,0.08-0.842,0.24c-0.188,0.159-0.287,0.375-0.287,0.639
		c0,0.182,0.039,0.338,0.114,0.466c0.078,0.128,0.205,0.25,0.379,0.364c0.174,0.115,0.49,0.266,0.945,0.455
		c0.513,0.211,0.889,0.412,1.125,0.596c0.237,0.186,0.414,0.394,0.524,0.627C50.87,69.145,50.926,69.417,50.926,69.732z"/>
	<path fill="#FFFFFF" d="M56.9,66.757c0,0.73-0.24,1.288-0.717,1.677c-0.479,0.392-1.158,0.582-2.041,0.582h-0.729v2.612h-1.143
		v-6.981h2.013c0.871,0,1.522,0.181,1.959,0.535C56.682,65.538,56.9,66.064,56.9,66.757z M53.418,68.057h0.607
		c0.586,0,1.016-0.103,1.289-0.306c0.271-0.204,0.41-0.521,0.41-0.954c0-0.398-0.123-0.699-0.369-0.896
		c-0.244-0.196-0.625-0.297-1.146-0.297h-0.794L53.418,68.057L53.418,68.057z"/>
	<path fill="#FFFFFF" d="M64.492,68.128c0,1.135-0.284,2.021-0.854,2.651c-0.568,0.63-1.373,0.943-2.416,0.943
		c-1.054,0-1.861-0.313-2.428-0.938s-0.85-1.515-0.85-2.667c0-1.151,0.283-2.035,0.854-2.655c0.569-0.616,1.383-0.925,2.436-0.925
		c1.037,0,1.84,0.314,2.406,0.939C64.208,66.105,64.492,66.991,64.492,68.128z M59.162,68.128c0,0.861,0.174,1.513,0.521,1.958
		c0.347,0.441,0.857,0.664,1.539,0.664c0.68,0,1.19-0.22,1.535-0.66c0.348-0.438,0.52-1.094,0.52-1.96
		c0-0.854-0.17-1.504-0.512-1.946c-0.345-0.442-0.854-0.666-1.531-0.666c-0.688,0-1.201,0.224-1.549,0.666
		C59.338,66.624,59.162,67.273,59.162,68.128z"/>
	<path fill="#FFFFFF" d="M67.132,68.843v2.787H65.99v-6.981h1.972c0.901,0,1.567,0.17,2.001,0.509
		c0.436,0.337,0.65,0.849,0.65,1.526c0,0.869-0.451,1.489-1.354,1.854l1.972,3.092h-1.299l-1.673-2.787H67.132L67.132,68.843z
		 M67.132,67.896h0.793c0.531,0,0.916-0.103,1.156-0.297c0.239-0.195,0.356-0.487,0.356-0.884c0-0.393-0.129-0.677-0.389-0.847
		c-0.258-0.174-0.646-0.264-1.166-0.264H67.13L67.132,67.896L67.132,67.896z"/>
	<path fill="#FFFFFF" d="M74.652,71.628H73.51v-6.002h-2.052v-0.979h5.248v0.979H74.65v6.002H74.652z"/>
</g>
<path fill="#057A7B" d="M61.436,33.396c2.5,0.361,2.598,0.46,3.024,2.929c0.374,2.15,0.755,4.3,1.132,6.45
	c0.52,2.948-0.298,4.285-3.173,5.203c-0.799,4.131-1.702,5.083-4.7,4.956c-2.619-0.107-3.604-1.304-4.009-5.035
	c-1.901,0-3.835,0-5.767,0c-1.901,0-3.8,0-5.255,0c-0.779,1.592-1.183,3.133-2.148,4.131c-0.667,0.688-2.113,0.853-3.21,0.853
	c-2.521-0.002-3.453-1.287-3.791-4.781c-0.729-0.369-1.544-0.635-2.168-1.134c-1.143-0.919-1.475-2.206-1.213-3.644
	c0.422-2.33,0.849-4.658,1.26-6.993c0.438-2.473,0.521-2.564,2.967-2.929c0.219-1.628,0.353-3.293,0.681-4.918
	c0.721-3.574,3.667-6.234,7.302-6.39c3.618-0.156,7.254-0.186,10.873-0.021c4.319,0.195,7.379,3.316,7.823,7.642
	C61.186,30.91,61.305,32.11,61.436,33.396z M58.145,33.451c0.332-5.331-1.734-8.776-5.856-8.121
	c-0.315,2.517-0.603,2.768-3.147,2.772c-0.652,0.004-1.305,0.002-1.954,0.002c-3.02-0.002-3.049-0.023-3.665-2.866
	c-4.369-0.329-6.022,3.026-5.801,8.213C44.525,33.451,51.338,33.451,58.145,33.451z M36.786,38.514
	c-1.654,0.008-3.037,1.367-3.05,2.999c-0.015,1.651,1.488,3.111,3.148,3.063c1.623-0.045,2.989-1.473,2.962-3.095
	C39.819,39.835,38.446,38.505,36.786,38.514z M59.027,38.511c-1.656,0.023-3.006,1.392-2.995,3.037
	c0.012,1.629,1.399,3.016,3.026,3.024c1.68,0.008,3.133-1.471,3.074-3.13C62.081,39.796,60.691,38.487,59.027,38.511z"/>
</svg>
