<?xml version="1.0" encoding="utf-8"?>
<!-- Generator: Adobe Illustrator 16.0.0, SVG Export Plug-In . SVG Version: 6.00 Build 0)  -->
<!DOCTYPE svg PUBLIC "-//W3C//DTD SVG 1.1//EN" "http://www.w3.org/Graphics/SVG/1.1/DTD/svg11.dtd">
<svg version="1.1" id="Layer_1" xmlns="http://www.w3.org/2000/svg" xmlns:xlink="http://www.w3.org/1999/xlink" x="0px" y="0px"
	 width="21px" height="17.25px" viewBox="-1 0 21 17.25" enable-background="new -1 0 21 17.25" xml:space="preserve">
<g id="XMLID_3_">
	<path fill="#004F50" d="M17.503,4.418C13.49-0.117,3.092,0.762,2.483,6.737c-0.295,0.02-1.284,0.46-1.634,0.771
		C0.702-1.474,17.675-2.147,19.546,5.964c0.203,0.876,0.296,1.605,0,2.415c-0.316,1.342-1.421,2.158-1.738,3.188
		c-0.438,1.425,0.1,2.568,0.616,4.06c-1.496-0.254-3.375-1.412-4.815-2.008c-0.046-0.021,0.124-0.154-2.094,0.313
		c0.625-0.385,0.771-1.313,0.814-1.313c0.37,0.017,1.005-0.102,1.597-0.13c0.928,0.378,1.901,0.942,2.856,1.297
		c-1.163-2.4,0.637-3.662,1.223-5.119C18.565,7.31,18.344,5.373,17.503,4.418z"/>
	<path fill="#004F50" d="M0.133,16.879c0.178-0.646,0.466-1.292,0.408-2.125c-0.093-1.32-0.992-1.65-1.227-2.512
		c-0.952-3.513,2.692-5.609,5.928-5.698c3.114-0.086,6.842,1.698,6.64,5.022c-0.178,2.965-3.504,4.525-6.845,4.347
		c-0.602-0.031-1.63-0.291-1.904-0.324C2.545,15.52,1.378,16.493,0.133,16.879z"/>
</g>
</svg>
