<?xml version="1.0" encoding="utf-8"?>
<!-- Generator: Adobe Illustrator 16.0.0, SVG Export Plug-In . SVG Version: 6.00 Build 0)  -->
<!DOCTYPE svg PUBLIC "-//W3C//DTD SVG 1.1//EN" "http://www.w3.org/Graphics/SVG/1.1/DTD/svg11.dtd">
<svg version="1.1" id="Layer_1" xmlns="http://www.w3.org/2000/svg" xmlns:xlink="http://www.w3.org/1999/xlink" x="0px" y="0px"
	 width="95px" height="95px" viewBox="0 0 95 95" enable-background="new 0 0 95 95" xml:space="preserve">
<g>
	<circle cx="47.501" cy="47.75" r="45.988"/>
	<path fill="#FD7D3D" d="M47.5,94.616c-25.841,0-46.866-21.023-46.866-46.866c0-25.844,21.024-46.866,46.866-46.866
		c25.843,0,46.866,21.023,46.866,46.866C94.366,73.596,73.344,94.616,47.5,94.616z M47.5,2.64c-24.873,0-45.109,20.236-45.109,45.11
		c0,24.873,20.236,45.111,45.109,45.111S92.611,72.625,92.611,47.75C92.611,22.876,72.373,2.64,47.5,2.64z"/>
</g>
<polygon fill="#FD7D3D" points="41.571,47.401 32.401,51.811 32.401,25.92 41.571,21.573 "/>
<polygon fill="#FD7D3D" points="60.93,47.401 50.741,51.811 50.741,25.92 60.93,21.573 "/>
<polygon fill="#EA4D00" points="41.571,47.401 50.741,51.811 50.741,25.92 41.571,21.573 "/>
<polygon fill="#FFFFFF" points="59.91,31.149 52.777,34.485 52.777,28.879 59.91,25.542 "/>
<polygon fill="#FFFFFF" points="59.91,34.865 52.777,38.202 52.777,36.503 59.91,33.164 "/>
<polygon fill="#FFFFFF" points="59.91,38.266 52.777,41.605 52.777,39.904 59.91,36.565 "/>
<g>
	<path fill="#FFFFFF" d="M19.656,71.141l-0.703-1.957h-2.689l-0.69,1.957h-1.211l2.632-7.063h1.251l2.632,7.063H19.656z
		 M18.649,68.191l-0.659-1.916c-0.049-0.129-0.114-0.33-0.199-0.606c-0.084-0.274-0.145-0.478-0.177-0.606
		c-0.085,0.396-0.213,0.828-0.38,1.295L16.6,68.193h2.049V68.191z"/>
	<path fill="#FFFFFF" d="M24.236,71.141h-1.15v-6.052h-2.068v-0.985h5.288v0.985h-2.069L24.236,71.141L24.236,71.141z"/>
	<path fill="#FFFFFF" d="M29.815,71.141h-1.15v-6.052h-2.069v-0.985h5.289v0.985h-2.069L29.815,71.141L29.815,71.141z"/>
	<path fill="#FFFFFF" d="M34.113,68.325v2.813h-1.15v-7.035h1.988c0.907,0,1.58,0.168,2.016,0.515
		c0.436,0.34,0.655,0.853,0.655,1.534c0,0.875-0.456,1.5-1.367,1.873l1.986,3.113h-1.308l-1.685-2.813L34.113,68.325L34.113,68.325
		L34.113,68.325z M34.113,67.372h0.797c0.536,0,0.926-0.101,1.166-0.298c0.241-0.197,0.361-0.494,0.361-0.887
		c0-0.396-0.129-0.688-0.391-0.854c-0.262-0.173-0.651-0.261-1.174-0.261h-0.76L34.113,67.372L34.113,67.372z"/>
	<path fill="#FFFFFF" d="M43.626,71.141l-0.701-1.957h-2.691l-0.689,1.957h-1.21l2.633-7.063h1.25l2.631,7.063H43.626z
		 M42.62,68.191l-0.659-1.916c-0.047-0.129-0.113-0.33-0.199-0.606c-0.085-0.274-0.143-0.478-0.175-0.606
		c-0.087,0.396-0.214,0.828-0.38,1.295l-0.636,1.836h2.049V68.191z"/>
	<path fill="#FFFFFF" d="M48.771,64.986c-0.66,0-1.187,0.229-1.563,0.703c-0.378,0.468-0.569,1.106-0.569,1.938
		c0,0.861,0.183,1.516,0.546,1.958c0.364,0.44,0.892,0.665,1.583,0.665c0.299,0,0.588-0.027,0.866-0.09
		c0.276-0.063,0.566-0.137,0.867-0.229v0.982c-0.553,0.204-1.176,0.313-1.877,0.313c-1.029,0-1.821-0.313-2.373-0.938
		c-0.551-0.625-0.828-1.521-0.828-2.68c0-0.73,0.133-1.375,0.402-1.924c0.269-0.549,0.656-0.97,1.163-1.263
		C47.502,64.146,48.1,64,48.779,64c0.721,0,1.384,0.148,1.994,0.449l-0.414,0.957c-0.237-0.111-0.488-0.208-0.754-0.295
		C49.342,65.025,49.063,64.986,48.771,64.986z"/>
	<path fill="#FFFFFF" d="M54.455,71.141h-1.15v-6.052h-2.068v-0.985h5.287v0.985H54.46L54.455,71.141L54.455,71.141z"/>
	<path fill="#FFFFFF" d="M57.602,71.141v-7.037h1.15v7.037H57.602z"/>
	<path fill="#FFFFFF" d="M66.855,67.609c0,1.146-0.285,2.037-0.858,2.672c-0.571,0.634-1.384,0.953-2.433,0.953
		c-1.063,0-1.879-0.313-2.447-0.944c-0.568-0.632-0.854-1.526-0.854-2.69c0-1.162,0.279-2.054,0.854-2.677
		c0.568-0.618,1.389-0.933,2.447-0.933c1.049,0,1.854,0.316,2.43,0.947C66.572,65.572,66.855,66.463,66.855,67.609z M61.486,67.609
		c0,0.867,0.175,1.521,0.521,1.972c0.354,0.446,0.869,0.673,1.558,0.673c0.687,0,1.199-0.223,1.547-0.665
		c0.354-0.442,0.521-1.103,0.521-1.979c0-0.855-0.173-1.518-0.519-1.963c-0.349-0.438-0.859-0.668-1.544-0.668
		c-0.688,0-1.211,0.229-1.563,0.668C61.662,66.093,61.486,66.746,61.486,67.609z"/>
	<path fill="#FFFFFF" d="M74.23,71.141h-1.41l-3.461-5.604H69.32l0.021,0.313c0.048,0.601,0.065,1.146,0.065,1.644v3.653h-1.043
		v-7.032h1.396l3.448,5.573h0.029c-0.012-0.069-0.021-0.345-0.039-0.809c-0.021-0.464-0.027-0.826-0.027-1.087v-3.688h1.059v7.037
		H74.23z"/>
	<path fill="#FFFFFF" d="M80.145,69.229c0,0.625-0.228,1.117-0.679,1.477c-0.45,0.354-1.075,0.527-1.872,0.527
		c-0.796,0-1.447-0.123-1.953-0.363v-1.092c0.318,0.148,0.66,0.271,1.021,0.354c0.359,0.089,0.697,0.13,1.009,0.13
		c0.455,0,0.791-0.085,1.011-0.259c0.215-0.173,0.322-0.405,0.322-0.7c0-0.264-0.102-0.486-0.298-0.667
		c-0.198-0.186-0.61-0.401-1.231-0.651c-0.644-0.26-1.094-0.557-1.354-0.891c-0.268-0.332-0.396-0.734-0.396-1.203
		c0-0.588,0.209-1.049,0.627-1.386c0.416-0.335,0.979-0.503,1.682-0.503c0.675,0,1.346,0.146,2.015,0.441l-0.36,0.938
		c-0.627-0.264-1.188-0.395-1.681-0.395c-0.372,0-0.651,0.08-0.849,0.24c-0.19,0.155-0.288,0.375-0.288,0.646
		c0,0.185,0.038,0.338,0.11,0.47c0.078,0.131,0.205,0.251,0.381,0.364c0.182,0.117,0.494,0.271,0.953,0.457
		c0.521,0.215,0.896,0.417,1.14,0.604c0.239,0.187,0.419,0.396,0.526,0.629C80.089,68.634,80.145,68.909,80.145,69.229z"/>
</g>
<rect x="-341" y="-67" fill="#FD7D3D" width="106" height="106"/>
<rect x="-268" y="-67" fill="#EA4D00" width="106" height="106"/>
</svg>
