<?xml version="1.0" encoding="utf-8"?>
<!-- Generator: Adobe Illustrator 16.0.0, SVG Export Plug-In . SVG Version: 6.00 Build 0)  -->
<!DOCTYPE svg PUBLIC "-//W3C//DTD SVG 1.1//EN" "http://www.w3.org/Graphics/SVG/1.1/DTD/svg11.dtd">
<svg version="1.1" id="Layer_1" xmlns="http://www.w3.org/2000/svg" xmlns:xlink="http://www.w3.org/1999/xlink" x="0px" y="0px"
	 width="95px" height="95px" viewBox="0 0 95 95" enable-background="new 0 0 95 95" xml:space="preserve">
<g>
	<circle cx="47.131" cy="47.75" r="45.988"/>
	<path fill="#FD7D3D" d="M47.13,94.616c-25.841,0-46.866-21.023-46.866-46.866c0-25.844,21.024-46.866,46.866-46.866
		c25.843,0,46.866,21.023,46.866,46.866C93.996,73.596,72.975,94.616,47.13,94.616z M47.13,2.64
		c-24.873,0-45.108,20.236-45.108,45.11c0,24.873,20.235,45.111,45.108,45.111S92.241,72.625,92.241,47.75
		C92.241,22.876,72.003,2.64,47.13,2.64z"/>
</g>
<rect x="39.375" y="30.75" fill="#FFFFFF" width="15.5" height="4.25"/>
<g id="Layer_1_1_">
</g>
<text transform="matrix(1 0 0 1 21.5684 71.2461)" fill="#FFFFFF" font-family="'OpenSans-SemiBold'" font-size="10">SHOPPING</text>
<path fill="#FD7D3D" d="M56.744,30.596c0-0.478-0.295-0.596-0.659-0.596h-4.871h-8.428h-4.872c-0.364,0-0.659,0.118-0.659,0.596
	l-3.029,21.493c0,0.478,0.295,0.911,0.658,0.911h7.901h8.428h7.901c0.362,0,0.657-0.434,0.657-0.911L56.744,30.596z M43,32.5
	c0,0.829-0.671,1.5-1.5,1.5l0,0c-0.829,0-1.5-0.671-1.5-1.5l0,0c0-0.829,0.671-1.5,1.5-1.5l0,0C42.329,31,43,31.671,43,32.5L43,32.5
	z M54,32.5c0,0.829-0.672,1.5-1.5,1.5l0,0c-0.828,0-1.5-0.671-1.5-1.5l0,0c0-0.829,0.672-1.5,1.5-1.5l0,0
	C53.328,31,54,31.671,54,32.5L54,32.5z"/>
<path fill="#FD7D3D" d="M53,31.852v-4.348c0-3.831-2.523-6.612-6-6.612c-3.477,0-6,2.781-6,6.612v4.368
	c-0.198,0.16-0.333,0.396-0.333,0.67c0,0.483,0.392,0.875,0.875,0.875s0.875-0.392,0.875-0.875c0-0.312-0.172-0.572-0.417-0.727
	v-4.311c0-3.304,2.056-5.612,5-5.612c2.943,0,5,2.308,5,5.612v4.331c-0.229,0.158-0.389,0.409-0.389,0.708
	c0,0.483,0.393,0.875,0.875,0.875s0.875-0.392,0.875-0.875C53.361,32.254,53.215,32.011,53,31.852z"/>
</svg>
