<?xml version="1.0" encoding="utf-8"?>
<!-- Generator: Adobe Illustrator 16.0.0, SVG Export Plug-In . SVG Version: 6.00 Build 0)  -->
<!DOCTYPE svg PUBLIC "-//W3C//DTD SVG 1.1//EN" "http://www.w3.org/Graphics/SVG/1.1/DTD/svg11.dtd">
<svg version="1.1" id="Layer_1" xmlns="http://www.w3.org/2000/svg" xmlns:xlink="http://www.w3.org/1999/xlink" x="0px" y="0px"
	 width="38.667px" height="62.242px" viewBox="0 0 38.667 62.242" enable-background="new 0 0 38.667 62.242" xml:space="preserve">
<g id="Layer_1_1_" display="none">
	<g display="inline">
		<path fill="#E7A723" d="M4.429,20.167c-3.344,0-6.066-2.719-6.066-6.062c0-3.343,2.723-6.063,6.066-6.063
			c0.939,0,1.842,0.209,2.68,0.622c0.26,0.126,0.365,0.439,0.238,0.697C7.222,9.621,6.907,9.729,6.649,9.6
			c-0.695-0.342-1.441-0.515-2.22-0.515c-2.77,0-5.023,2.252-5.023,5.02c0,2.767,2.254,5.019,5.023,5.019
			c2.771,0,5.025-2.252,5.025-5.019c0-0.883-0.232-1.749-0.672-2.507c-0.145-0.25-0.061-0.568,0.189-0.713
			c0.25-0.144,0.568-0.061,0.713,0.189c0.531,0.916,0.813,1.964,0.813,3.03C10.497,17.448,7.774,20.167,4.429,20.167z"/>
	</g>
	<path display="inline" fill="#E7A723" d="M9.97,7.934C9.741,7.757,9.413,7.799,9.237,8.025l-5.529,7.099l-1.104-2.107
		c-0.131-0.256-0.447-0.353-0.703-0.222c-0.256,0.134-0.354,0.449-0.221,0.704l1.479,2.825c0,0.002,0.002,0.002,0.004,0.004
		c0.033,0.063,0.078,0.12,0.137,0.166c0.012,0.01,0.027,0.013,0.039,0.021c0.016,0.01,0.029-0.079,0.045-0.07
		c0.076,0.039,0.168,0.062,0.25,0.062L3.62,16.413c0.002,0,0.002,0,0.002,0c0.004,0,0.008,0.093,0.012,0.093
		c0.076-0.002,0.15,0.028,0.219-0.006c0.004-0.001,0.006,0.024,0.01,0.022c0.066-0.035,0.121-0.07,0.164-0.125
		c0.002-0.002,0.004,0.003,0.006,0.001l6.027-7.734C10.237,8.437,10.196,8.112,9.97,7.934z"/>
</g>
<g id="Layer_2" display="none">
	<path display="inline" fill="#EEA421" d="M-1.887,19.958c0-2.9,2.351-5.252,5.252-5.252c2.9,0,5.251,2.352,5.251,5.252"/>
	<circle display="inline" fill="#EEA421" cx="2.863" cy="10.413" r="2.375"/>
</g>
<g id="Layer_3" display="none">
	<g display="inline">
		<g>
			<path fill="#E7A723" d="M9.399,9.356c0,0.605-0.002,1.219,0,1.832c0.002,0.107-0.035,0.157-0.148,0.156
				c-0.613-0.002-1.227,0-1.947,0c0.225-0.215,0.367-0.373,0.535-0.504c0.199-0.156,0.135-0.25-0.025-0.392
				C5.81,8.673,2.728,8.84,0.947,10.831c-0.805,0.898-1.221,1.953-1.258,3.158c-0.013,0.383-0.188,0.6-0.489,0.6
				c-0.313,0.001-0.491-0.228-0.487-0.629c0.025-2.826,2.269-5.324,5.076-5.66c1.818-0.22,3.404,0.283,4.759,1.508
				C8.685,9.93,8.757,9.94,8.878,9.801c0.141-0.163,0.305-0.307,0.461-0.458C9.343,9.34,9.358,9.347,9.399,9.356z"/>
			<path fill="#E7A723" d="M0.087,16.149c0.006,0.275-0.206,0.495-0.48,0.496c-0.271,0.002-0.497-0.224-0.495-0.49
				c0.003-0.251,0.221-0.474,0.473-0.484C-0.146,15.658,0.082,15.874,0.087,16.149z"/>
			<path fill="#E7A723" d="M0.781,18.393c-0.263,0.008-0.5-0.223-0.502-0.488c-0.002-0.254,0.205-0.473,0.464-0.485
				c0.278-0.015,0.502,0.188,0.511,0.464C1.263,18.155,1.048,18.387,0.781,18.393z"/>
			<path fill="#E7A723" d="M8.354,18.393c-0.268-0.008-0.479-0.24-0.469-0.514c0.012-0.275,0.234-0.476,0.514-0.46
				c0.258,0.015,0.467,0.237,0.461,0.489C8.856,18.172,8.616,18.403,8.354,18.393z"/>
			<path fill="#E7A723" d="M2.501,19.559c-0.269-0.006-0.482-0.236-0.475-0.51c0.01-0.275,0.23-0.477,0.511-0.464
				c0.259,0.013,0.466,0.228,0.465,0.483C3,19.332,2.761,19.565,2.501,19.559z"/>
			<path fill="#E7A723" d="M7.11,19.075c-0.004,0.268-0.236,0.495-0.5,0.487c-0.266-0.007-0.486-0.244-0.477-0.511
				c0.012-0.26,0.223-0.462,0.484-0.465C6.894,18.585,7.112,18.802,7.11,19.075z"/>
			<path fill="#E7A723" d="M4.571,19.963c-0.269,0.002-0.495-0.224-0.492-0.492c0.002-0.27,0.231-0.49,0.5-0.479
				c0.259,0.007,0.466,0.216,0.472,0.476C5.057,19.737,4.841,19.961,4.571,19.963z"/>
		</g>
		<path fill="#E7A723" d="M7.331,15.266l0.002-0.002l-0.064-0.025c-0.014-0.005-0.021-0.012-0.037-0.017
			c-0.008-0.003-0.018-0.006-0.025-0.008L6.244,14.83l-0.05-0.01c-0.023-0.007-0.047-0.012-0.07-0.017L6.05,14.787L6.04,14.8
			c-0.219-0.017-0.412,0.07-0.574,0.328c-0.116,0.184-0.239,0.146-0.393,0.029c-0.514-0.387-0.981-0.82-1.382-1.324
			c-0.37-0.463-0.376-0.473,0.047-0.876c0.086-0.082,0.12-0.16,0.128-0.244l0.013-0.019l-0.027-0.078
			c-0.007-0.035,0.001-0.063-0.017-0.104c-0.055-0.127-0.105-0.255-0.157-0.384l-0.17-0.48c-0.019-0.056-0.04-0.111-0.057-0.168
			c-0.004-0.014-0.011-0.021-0.015-0.033l-0.029-0.08l-0.003,0.01c-0.089-0.174-0.231-0.197-0.436-0.16
			c-1.136,0.206-1.751,1.469-1.177,2.488c0.75,1.332,1.808,2.373,3.131,3.141c0.256,0.148,0.539,0.222,0.837,0.217
			c0.865-0.004,1.611-0.678,1.678-1.508C7.45,15.418,7.431,15.327,7.331,15.266z"/>
	</g>
</g>
<path fill="#020202" d="M37.987,19.4c0,10.286-18.625,42.2-18.625,42.2S0.737,29.686,0.737,19.4c0-10.286,8.34-18.625,18.625-18.625
	C29.649,0.775,37.987,9.114,37.987,19.4z"/>
<path fill="#FD7D3D" d="M21.056,21.171l2.646-2.779c1.409,0.484,3.428-0.166,5-1.739c1.959-1.958,2.486-4.603,1.182-5.908
	c-1.305-1.305-3.949-0.776-5.906,1.182c-1.516,1.514-2.173,3.439-1.79,4.837l-2.904,2.719l-3.215-3.064l0.011-0.01
	c0.186-0.186,0.424-0.98,0.284-1.208c-0.015-0.053-0.041-0.104-0.084-0.146L10.606,9.38c-0.127-0.127-0.334-0.127-0.461,0
	c-0.101,0.101-0.121,0.249-0.063,0.37l3.932,3.933c0.029,0.028,0.051,0.061,0.068,0.095l0.001,0.002v0.001
	c0.067,0.137,0.045,0.306-0.069,0.419c-0.07,0.072-0.164,0.107-0.259,0.107c-0.093,0-0.187-0.035-0.259-0.107L9.51,10.212
	c-0.102-0.019-0.211,0.011-0.288,0.089c-0.089,0.088-0.114,0.214-0.08,0.325l3.963,3.963c0.144,0.143,0.144,0.375,0,0.519
	c-0.071,0.071-0.165,0.107-0.259,0.107c-0.094,0-0.188-0.037-0.259-0.107l-3.964-3.964c-0.111-0.034-0.237-0.008-0.325,0.08
	c-0.077,0.078-0.107,0.187-0.09,0.288l3.987,3.987c0.143,0.143,0.143,0.375,0,0.518c-0.072,0.071-0.166,0.107-0.259,0.107
	c-0.055,0-0.109-0.014-0.16-0.039l-0.001,0.001l-0.002-0.002c-0.035-0.018-0.068-0.039-0.096-0.067l-3.934-3.933
	c-0.121-0.058-0.27-0.037-0.369,0.063c-0.128,0.128-0.128,0.334,0,0.461l5.149,5.15c0.006,0.006,0.01,0.014,0.017,0.02l0.598,0.597
	c0.183,0.183,1.042-0.07,1.236-0.265l0.143-0.142l2.98,3.184l-7.888,7.384c-0.318,0.318-0.318,0.834,0,1.152l1.113,1.113
	c0.318,0.318,0.834,0.318,1.152,0l7.394-7.757l7.362,7.867c0.318,0.316,0.834,0.316,1.152,0l1.111-1.115
	c0.316-0.318,0.316-0.833,0-1.152L21.056,21.171z"/>
</svg>
