<?xml version="1.0" encoding="utf-8"?>
<!-- Generator: Adobe Illustrator 16.0.0, SVG Export Plug-In . SVG Version: 6.00 Build 0)  -->
<!DOCTYPE svg PUBLIC "-//W3C//DTD SVG 1.1//EN" "http://www.w3.org/Graphics/SVG/1.1/DTD/svg11.dtd">
<svg version="1.1" id="Layer_1" xmlns="http://www.w3.org/2000/svg" xmlns:xlink="http://www.w3.org/1999/xlink" x="0px" y="0px"
	 width="20px" height="20px" viewBox="0 0 20 20" enable-background="new 0 0 20 20" xml:space="preserve">
<g id="Layer_1_1_">
	<g>
		<path fill="#708F34" d="M10,19.968c-5.325,0-9.658-4.327-9.658-9.651c0-5.321,4.333-9.65,9.658-9.65
			c1.493,0,2.93,0.333,4.264,0.991c0.416,0.201,0.584,0.699,0.381,1.11c-0.199,0.412-0.701,0.583-1.104,0.38
			c-1.104-0.544-2.295-0.82-3.533-0.82c-4.41,0-7.997,3.585-7.997,7.991s3.588,7.99,7.997,7.99c4.409,0,7.995-3.584,7.995-7.99
			c0-1.405-0.366-2.784-1.063-3.991c-0.229-0.397-0.104-0.904,0.3-1.134c0.396-0.229,0.897-0.097,1.14,0.301
			c0.846,1.458,1.295,3.126,1.295,4.823C19.658,15.641,15.322,19.968,10,19.968z"/>
	</g>
	<path fill="#708F34" d="M8.734,14.146L8.71,13.993c0.003,0,0.003,0,0.003,0c0.006,0,0.012,0.146,0.019,0.146
		c0.121-0.003,0.239,0.047,0.349-0.011c0.006,0,0.009,0.042,0.015,0.039c0.106-0.058,0.193-0.11,0.261-0.2
		c0.003-0.002,0.007,0.006,0.01,0L18.96,1.655c0.283-0.362,0.22-0.878-0.14-1.162c-0.366-0.282-0.891-0.216-1.168,0.145
		L8.851,11.939L7.095,8.584C6.887,8.178,6.382,8.023,5.974,8.231c-0.406,0.214-0.563,0.715-0.35,1.121l2.354,4.498
		c0,0.002,0.004,0.002,0.007,0.008c0.052,0.104,0.124,0.191,0.218,0.271c0.019,0.021,0.043,0.021,0.062,0.035"/>
</g>
</svg>
