<?xml version="1.0" encoding="utf-8"?>
<!-- Generator: Adobe Illustrator 16.0.0, SVG Export Plug-In . SVG Version: 6.00 Build 0)  -->
<!DOCTYPE svg PUBLIC "-//W3C//DTD SVG 1.1//EN" "http://www.w3.org/Graphics/SVG/1.1/DTD/svg11.dtd">
<svg version="1.1" id="Layer_1" xmlns="http://www.w3.org/2000/svg" xmlns:xlink="http://www.w3.org/1999/xlink" x="0px" y="0px"
	 width="26.625px" height="25px" viewBox="0 0 26.625 25" enable-background="new 0 0 26.625 25" xml:space="preserve">
<g id="facebook" display="none">
	<path display="inline" fill="#E7A723" d="M23.236,8.655l-0.172,3.72l-3.481-0.038V25h-5.104V12.338l-2.62,0.072l-0.074-3.755h2.482
		c0-1.857-0.443-6.013,1.563-7.521c2.841-2.133,7.912-0.729,7.912-0.729L23.1,4.292c0,0-1.754-0.327-2.082-0.327
		c-0.479,0-1.438,0.196-1.438,1.384v3.303L23.236,8.655L23.236,8.655z"/>
</g>
<g id="twitter" display="none">
	<path display="inline" fill="#E7A723" d="M31.223,4.985c-0.604,0.518-1.652,1.036-1.652,1.036s0.609,3.464-1.028,7.446
		c-1.649,3.986-3.651,6.58-8.782,9.35c-5.129,2.773-8.518,2.304-10.868,1.818c-2.347-0.479-3.825-1.125-5.65-2.51
		c0,0,3.069-0.176,4.431-0.693c1.701-0.64,3.914-2.164,3.914-2.164s-1.387-0.262-3.128-1.297c-1.744-1.039-2.35-2.771-2.35-2.771
		l2.695-0.261c0,0-1.828-0.604-3.563-2.333c-1.748-1.736-1.4-3.728-1.4-3.728S4.451,9.224,5.057,9.4c0.609,0.173,1.567,0,1.567,0
		s-2.262-1.3-2.61-3.982c-0.345-2.685,0.698-4.07,0.698-4.07s2.724,2.972,5.39,4.416c3.04,1.646,7.387,1.903,7.387,1.903
		s-0.382-6.032,4.435-7.358c4.087-1.124,6,1.646,6,1.646s0.782,0,1.646-0.261c0.871-0.261,2.09-0.868,2.09-0.868s0,0.434-0.26,0.955
		c-0.262,0.518-0.782,1.04-1.045,1.297c-0.271,0.261-1.129,0.779-1.129,0.779s0.604,0.176,1.303,0.088
		C31.223,3.857,32.354,3.6,32.354,3.6S31.832,4.463,31.223,4.985z"/>
</g>
<g id="youtube" display="none">
	<path display="inline" fill="#E7A723" d="M13.959,17.249l9.434-4.89l-9.434-4.92V17.249z M35.021,14.039
		c0,2.826-0.354,5.652-0.354,5.652s-0.342,2.396-1.387,3.465c-1.328,1.389-2.815,1.396-3.501,1.476C24.9,24.986,17.564,25,17.564,25
		S8.481,24.917,5.69,24.648c-0.782-0.146-2.524-0.104-3.852-1.492c-1.049-1.063-1.388-3.465-1.388-3.465s-0.347-2.826-0.347-5.652
		v-2.65c0-2.826,0.347-5.652,0.347-5.652s0.34-2.403,1.389-3.465c1.332-1.388,2.82-1.396,3.5-1.475
		c4.889-0.355,12.218-0.355,12.218-0.355h0.021c0,0,7.322,0,12.212,0.355c0.688,0.079,2.173,0.087,3.501,1.475
		c1.045,1.062,1.387,3.465,1.387,3.465s0.354,2.826,0.354,5.652v2.65H35.021z"/>
</g>
<g id="insta" display="none">
	<g display="inline">
		<path fill="#E7A723" d="M29.708,7.989V7.971c0-1.104,0.031-2.21-0.004-3.313c-0.09-2.623-2.253-4.696-4.872-4.696H14.63v6.125
			h-1.293v-6.125h-0.892v6.125h-1.189v-6.122h-1.032v6.122H8.921V0.052C7.865,0.279,6.908,0.92,6.89,0.934
			C5.761,1.806,5.063,2.945,4.97,4.375C4.884,5.514,4.927,9.454,4.927,9.454v0.253h7.723c0.97-1.613,2.737-2.703,4.754-2.703
			c2.012,0.003,3.768,1.085,4.729,2.703h7.572V9.454L29.708,7.989L29.708,7.989z M29.708,12.056H22.9
			c0.016,0.167,0.021,0.329,0.021,0.499c0.013,3.097-2.468,5.561-5.573,5.561c-3.021-0.005-5.479-2.492-5.5-5.546
			c0-0.173,0.011-0.344,0.029-0.514h-6.95c0,2.695-0.003,5.389,0,8.088C4.934,22.805,7.123,25,9.77,25c5.037,0,10.078,0,15.113,0
			c2.626-0.003,4.821-2.195,4.825-4.841C29.711,17.461,29.708,14.758,29.708,12.056z M27.462,2.989c0.007,0.521,0,1.042,0,1.563
			c0,0.5,0.003,0.995,0,1.494c-0.004,0.63-0.36,0.999-0.979,0.999c-0.996,0.003-1.979,0.003-2.977,0
			c-0.587,0-0.956-0.361-0.964-0.94c-0.006-1.045-0.006-2.088,0-3.129c0.008-0.551,0.344-0.938,0.89-0.948
			c1.053-0.022,2.104-0.022,3.152,0C27.121,2.038,27.455,2.432,27.462,2.989z"/>
		<path fill="#E7A723" d="M17.318,8.609c-2.191,0-3.969,1.777-3.969,3.969c0,2.191,1.777,3.969,3.969,3.969
			c2.188,0,3.969-1.775,3.969-3.969C21.287,10.387,19.511,8.609,17.318,8.609z M17.318,15.316c-1.514,0-2.741-1.229-2.741-2.738
			c0-1.514,1.228-2.741,2.741-2.741c1.515,0,2.738,1.227,2.738,2.741C20.059,14.093,18.833,15.316,17.318,15.316z"/>
	</g>
</g>
<g id="pinterest" display="none">
	<path display="inline" fill="#E7A723" d="M24.219,15.688c-2.283,2.479-4.996,2.688-6.632,2.188
		c-1.633-0.49-2.104-1.599-2.104-1.599s-0.646,2.572-0.854,3.392c-0.13,0.5-0.213,1.122-0.858,2.33
		c-0.645,1.209-1.765,2.778-1.869,2.926c-0.106,0.142-0.337,0.087-0.354-0.083c-0.016-0.173-0.138-1.227-0.18-1.807
		c-0.04-0.579-0.032-1.655-0.014-2.092c0.019-0.438,0.139-1.104,0.335-1.935c0.196-0.821,1.476-6.161,1.728-7.418
		c-0.509-1.044-0.525-2.755-0.252-3.719c0.274-0.964,1.272-2.106,2.237-2.202c0.971-0.099,1.688,0.332,2.014,1.022
		c0.313,0.688,0.295,1.336,0.078,2.263c-0.219,0.924-1.008,3.461-1.161,4.107c-0.157,0.646,0.244,1.57,0.668,1.945
		c0.492,0.438,1.972,1.118,3.353,0.104c1.377-1.023,2.521-2.832,2.771-5.765c0.259-2.933-0.413-4.312-1.673-5.414
		c-1.259-1.102-3.563-1.848-6.274-1.14c-2.717,0.707-4.527,3.05-4.902,5.433c-0.374,2.38,0.611,3.618,0.945,4.032
		c0.332,0.412,0.176,0.571,0.138,0.709c-0.039,0.141-0.196,0.786-0.355,1.238c-0.157,0.454-0.473,0.374-0.67,0.273
		c-0.196-0.104-1.375-0.634-2.025-1.792C7.995,12.15,6.32,9.218,8.478,5.039c2.183-4.229,7.811-5.47,11.098-4.781
		c3.197,0.669,5.807,2.794,6.691,5.57C27.15,8.604,26.503,13.21,24.219,15.688z"/>
</g>
<g id="Layer_6">
	<path fill="#00436A" d="M26.268,25H20.83v-9.854c0-0.685-0.078-1.104-0.525-1.813c-0.457-0.715-1.137-1.283-2.306-1.283
		c-0.979,0-1.772,0.416-2.456,1.171c-0.34,0.381-0.445,0.774-0.639,1.111V25H9.316V8.161h5.588v2.654
		c0.551-0.792,1.498-3.032,5.283-3.032c4.146,0,6.08,3.399,6.08,7.361V25L26.268,25z M3.407,5.974c-1.721,0-3.115-1.321-3.115-2.947
		s1.395-2.943,3.115-2.943c1.72,0,3.115,1.316,3.115,2.943C6.522,4.654,5.127,5.974,3.407,5.974z M6.297,25h-5.74V8.161h5.74V25z"/>
</g>
</svg>
