<?xml version="1.0" encoding="utf-8"?>
<!-- Generator: Adobe Illustrator 16.0.0, SVG Export Plug-In . SVG Version: 6.00 Build 0)  -->
<!DOCTYPE svg PUBLIC "-//W3C//DTD SVG 1.1//EN" "http://www.w3.org/Graphics/SVG/1.1/DTD/svg11.dtd">
<svg version="1.1" id="Layer_1" xmlns="http://www.w3.org/2000/svg" xmlns:xlink="http://www.w3.org/1999/xlink" x="0px" y="0px"
	 width="25.188px" height="20.625px" viewBox="0 0 25.188 20.625" enable-background="new 0 0 25.188 20.625" xml:space="preserve">
<g id="Layer_2" display="none">
	<g display="inline">
		<path fill="#FCB033" d="M81.734-113.103c1.604,0.23,1.66,0.294,1.938,1.875c0.239,1.376,0.479,2.752,0.725,4.129
			c0.334,1.887-0.188,2.743-2.028,3.331c-0.513,2.644-1.093,3.253-3.011,3.172c-1.678-0.07-2.309-0.835-2.563-3.224
			c-1.217,0-2.455,0-3.691,0c-1.217,0-2.433,0-3.361,0c-0.497,1.02-0.76,2.006-1.375,2.645c-0.43,0.44-1.354,0.546-2.057,0.546
			c-1.615-0.001-2.212-0.823-2.428-3.061c-0.467-0.236-0.988-0.406-1.39-0.726c-0.729-0.588-0.942-1.412-0.774-2.332
			c0.271-1.492,0.543-2.982,0.807-4.477c0.279-1.584,0.334-1.642,1.898-1.875c0.141-1.043,0.227-2.108,0.438-3.148
			c0.462-2.288,2.351-3.991,4.677-4.091c2.313-0.101,4.646-0.119,6.962-0.014c2.765,0.125,4.724,2.123,5.008,4.893
			C81.574-114.694,81.65-113.927,81.734-113.103z M79.627-113.067c0.213-3.413-1.111-5.618-3.75-5.199
			c-0.202,1.612-0.385,1.771-2.021,1.774c-0.416,0.003-0.832,0.001-1.248,0.001c-1.935-0.001-1.947-0.014-2.348-1.834
			c-2.797-0.211-3.854,1.938-3.713,5.258C70.909-113.067,75.27-113.067,79.627-113.067z M65.955-109.827
			c-1.063,0.005-1.943,0.876-1.953,1.921c-0.01,1.057,0.953,1.991,2.016,1.96c1.039-0.029,1.914-0.943,1.896-1.98
			C67.896-108.981,67.018-109.832,65.955-109.827z M80.191-109.829c-1.061,0.016-1.924,0.892-1.916,1.944
			c0.011,1.043,0.896,1.932,1.938,1.937c1.075,0.005,2.006-0.941,1.97-2.005C82.146-109.006,81.258-109.845,80.191-109.829z"/>
	</g>
	<g display="inline">
		<path fill="#FCB033" d="M86.5-99.875c-0.275,0-0.5-0.224-0.5-0.5v-14c0-0.276,0.225-0.5,0.5-0.5c0.271,0,0.5,0.224,0.5,0.5v14
			C87-100.099,86.775-99.875,86.5-99.875z"/>
	</g>
	<g display="inline">
		<path fill="#FCB033" d="M88.5-99.875c-0.275,0-0.5-0.224-0.5-0.5v-14c0-0.276,0.225-0.5,0.5-0.5c0.271,0,0.5,0.224,0.5,0.5v14
			C89-100.099,88.775-99.875,88.5-99.875z"/>
	</g>
	<g display="inline">
		<g>
			<path fill="#FCB033" d="M90.541-121.322c0,0.705-0.225,1.244-0.662,1.619c-0.439,0.373-1.066,0.559-1.88,0.559h-0.601v2.33H86.01
				v-6.551h2.094c0.795,0,1.397,0.17,1.813,0.514C90.334-122.51,90.541-122,90.541-121.322z M87.402-120.281h0.457
				c0.433,0,0.748-0.086,0.959-0.254c0.217-0.17,0.318-0.414,0.318-0.738c0-0.326-0.088-0.566-0.267-0.721
				c-0.183-0.156-0.456-0.232-0.836-0.232H87.4L87.402-120.281L87.402-120.281z"/>
		</g>
	</g>
	<g display="inline">
		<path fill="#FCB033" d="M87.584-114.615c-3.313,0-6-2.691-6-6c0-3.309,2.688-6,6-6c3.309,0,6,2.691,6,6
			C93.584-117.306,90.893-114.615,87.584-114.615z M87.584-125.615c-2.757,0-5,2.243-5,5c0,2.757,2.243,5,5,5s5-2.243,5-5
			C92.584-123.372,90.341-125.615,87.584-125.615z"/>
	</g>
	<g display="inline">
		<path fill="#FCB033" d="M21-2.522v20.733c0,0.494-0.729,1.414-1.33,1.414H5.738C5.134,19.625,4,18.705,4,18.211V-2.522
			c0-0.515,1.188-0.853,1.734-0.853H19.67C20.219-3.375,21-3.037,21-2.522z M5,18.211c0,0.131,0.724,0.414,0.734,0.414H20
			c0,0,0-0.283,0-0.414V-2.522c0-0.136,0,0.147,0,0.147H5.738C5.558-2.375,5-2.658,5-2.522V18.211z"/>
	</g>
	<g display="inline">
		<path fill="#FCB033" d="M16.82-1.375H8.076C7.605-1.375,8-0.701,8-0.152V10.27c0,0.55-0.396,0.354,0.076,0.354h8.74
			c0.492,0,0.184,0.153,0.184-0.354V-0.152C17-0.659,17.313-1.375,16.82-1.375z M16.82,10.625h-0.605
			c-0.145-2-1.746-3.452-3.711-3.452S8.93,8.625,8.79,10.625H8.076C7.924,10.625,8,10.386,8,10.271V-0.152
			c0-0.114-0.076-0.223,0.076-0.223h8.74C16.974-0.375,17-0.32,17-0.152V10.27C17,10.439,16.975,10.625,16.82,10.625z"/>
		<circle fill="#FCB033" cx="12.216" cy="4.183" r="1.984"/>
	</g>
	<g display="inline">
		<path fill="#FCB033" d="M7,10.625v-12h11v12H7z M8-1.375v12h9v-12H8z"/>
	</g>
	<rect x="7" y="9.625" display="inline" fill="#FCB033" width="11" height="1"/>
	<path display="inline" fill="#E7A723" d="M7.676,17.695v0.007l0.105-0.044c0.021-0.014,0.036-0.014,0.061-0.027
		c0.017-0.003,0.029-0.014,0.042-0.02l1.605-0.688l0.065-0.047c0.038-0.021,0.071-0.04,0.104-0.063l0.104-0.066l-0.002-0.021
		c0.279-0.244,0.408-0.574,0.296-1.074c-0.083-0.356,0.111-0.455,0.435-0.502c1.069-0.148,2.146-0.188,3.22-0.063
		c0.995,0.11,1.012,0.118,0.987,1.103c-0.011,0.199,0.049,0.334,0.137,0.442l0.009,0.037l0.125,0.062
		c0.049,0.031,0.073,0.072,0.146,0.104c0.213,0.087,0.429,0.179,0.644,0.271l0.772,0.369c0.088,0.045,0.18,0.084,0.267,0.133
		c0.021,0.018,0.038,0.017,0.058,0.022l0.129,0.063l-0.008-0.021c0.313,0.104,0.508-0.039,0.709-0.328
		c1.109-1.593,0.348-3.825-1.553-4.358c-2.477-0.695-4.973-0.683-7.461-0.024c-0.484,0.13-0.903,0.379-1.254,0.737
		C6.39,14.73,6.302,16.42,7.209,17.488C7.351,17.658,7.485,17.743,7.676,17.695z"/>
</g>
<g id="gym" display="none">
	<g display="inline">
		<path fill="#FCB033" d="M3.073,2.03l0.592,0.412c-4.084,8.996,1.83,13.951,1.891,14c0.104,0.084,0.229,0.125,0.354,0.125
			c0.159,0,0.319-0.067,0.435-0.207c0.193-0.234,0.158-0.59-0.082-0.781c-0.22-0.186-5.213-4.428-1.66-12.481l1.546,1.078
			c0.101,0.067,0.208,0.101,0.32,0.101c0.175,0,0.349-0.083,0.458-0.24c0.176-0.253,0.113-0.602-0.14-0.778L3.901,1.244L3.291-2.068
			C3.235-2.371,2.949-2.565,2.64-2.517C2.336-2.46,2.136-2.169,2.192-1.865l0.651,3.538C2.871,1.817,2.953,1.946,3.073,2.03z"/>
		<path fill="#FCB033" d="M22.579,14.51c0-2.927-2.381-5.352-5.313-5.352c-1.438,0-2.742,0.561-3.7,1.492l0.639-0.123L4.2,19.625
			H1.902c-0.31,0-0.559,0.189-0.559,0.5s0.25,0.5,0.559,0.5H3.02h7.544H22.02c0.313,0,0.563-0.189,0.563-0.5s-0.25-0.5-0.563-0.5
			h-3.134C21.021,19.625,22.579,16.87,22.579,14.51z M11.837,19.625l1.587-1.393c0.608,0.646,1.385,1.393,2.246,1.393H11.837z
			 M17.27,18.613c-1.239,0-2.343-0.551-3.104-1.407l2.388-2.388c0.217-0.219,0.217-0.571,0-0.791c-0.22-0.217-0.572-0.217-0.791,0
			l-1.872,1.871l-0.214-3.586c0.729-1.236,2.063-2.081,3.6-2.081c2.313,0,4.19,1.877,4.19,4.188
			C21.461,16.734,19.581,18.613,17.27,18.613z"/>
		<path fill="#FCB033" d="M23.133,4.598l-0.744-0.744c-0.104-0.089-0.229-0.229-0.369-0.229h-5.588
			c-0.299,0-0.545,0.325-0.559,0.624c-0.018,0.298,0.21,0.601,0.507,0.628l0.945,0.108l1.549,0.623
			c-0.001,0.006-0.004,0.014-0.005,0.02l-0.563,2.331c-0.072,0.3,0.113,0.603,0.414,0.676c0.045,0.01,0.088,0.016,0.131,0.016
			c0.252,0,0.481-0.172,0.543-0.43l0.524-2.188l0.869,0.344c0.063,0.025,0.135,0.039,0.204,0.039c0.083,0,0.162-0.019,0.234-0.054
			L23,5.524c0.172-0.08,0.29-0.242,0.313-0.427C23.346,4.909,23.273,4.722,23.133,4.598z"/>
	</g>
</g>
<g id="Layer_18" display="none">
</g>
<g id="concierge">
	<g>
		<path fill="#9E3039" d="M24.591,16.107c-0.147-2.652-1.307-5.254-3.11-7.193c-0.914-0.981-1.98-1.819-3.172-2.444
			c-0.582-0.306-1.188-0.56-1.813-0.761c-0.25-0.08-0.471-0.132-0.452-0.439c0.019-0.436,0.015-0.873,0.009-1.309
			c-0.004-0.391-0.014-0.545,0.264-0.821c0.186-0.182,0.313-0.418,0.33-0.677c0.057-0.648-0.535-1.1-1.068-1.324
			c-1.354-0.564-3.002-0.553-4.419-0.276c-0.6,0.114-1.245,0.325-1.683,0.77C9.034,2.084,9.073,2.782,9.545,3.196
			c0.179,0.156,0.408,0.227,0.403,0.5C9.94,4.083,9.937,4.468,9.941,4.854c0.003,0.263,0.102,0.585-0.219,0.674
			C9.375,5.624,9.032,5.735,8.692,5.86c-2.404,0.895-4.438,2.572-5.824,4.727c-0.688,1.065-1.198,2.243-1.497,3.478
			c-0.146,0.604-0.242,1.221-0.292,1.834c-0.05,0.572-0.136,1.089-0.04,1.658c0.063,0.398,1.146,0.069,1.409,0.069
			c0.844,0,1.685,0,2.522,0c1.617,0,3.234,0,4.851,0c3.226,0,6.447,0.166,9.667,0.125c1.205-0.015,2.412,0.026,3.619,0.017
			c0.367-0.004,1.209,0.168,1.521-0.082c0.105-0.092,0.016-0.629,0.016-0.771C24.643,16.633,24.605,16.383,24.591,16.107
			C24.547,15.324,24.596,16.191,24.591,16.107z M15.271,2.386c-0.926,0.605-3.819,0.605-4.729,0
			C11.428,1.775,14.373,1.775,15.271,2.386z M14.419,4.959c0.04,0.319-0.247,0.234-0.459,0.21c-0.38-0.045-0.768-0.064-1.147-0.063
			c-0.354,0-0.714,0.016-1.066,0.05c-0.249,0.022-0.183-0.429-0.183-0.593c0.004-0.318,0.212-0.332,0.477-0.301
			c0.32,0.038,0.654,0.018,0.979,0.018c0.355,0,0.709,0.003,1.063,0C14.573,4.273,14.369,4.565,14.419,4.959
			C14.448,5.192,14.396,4.786,14.419,4.959z M22.876,16.38c-0.011,0.078-0.155,0.245-0.231,0.245c-0.189,0-0.387,0-0.58,0
			c-0.387,0-0.771,0-1.153,0c-0.841,0-1.677,0-2.515,0c-1.604,0-3.215,0-4.819,0c-3.233,0-6.465-0.098-9.692-0.124
			c-0.289-0.003-0.813-0.09-1.072-0.212c-0.22-0.104-0.058-0.635-0.031-0.805c0.112-0.715,0.296-1.431,0.551-2.108
			c0.471-1.255,1.196-2.405,2.105-3.388c1.771-1.909,4.24-3.034,6.829-3.209c2.793-0.188,5.592,0.917,7.612,2.838
			c0.896,0.853,1.618,1.875,2.136,2.999c0.269,0.581,0.481,1.231,0.647,1.85"/>
		<path fill="#9E3039" d="M20.604,12.357c-0.855-1.899-2.479-3.273-4.303-4.226c-0.867-0.452-1.783-0.618-2.496,0.211
			c-0.466,0.541-0.583,1.36-0.14,1.95c0.248,0.33,0.61,0.49,0.974,0.672c0.428,0.221,0.844,0.464,1.232,0.743
			c0.729,0.533,1.35,1.206,1.768,2.015c0.188,0.354,0.33,0.688,0.709,0.881c0.385,0.194,0.856,0.195,1.258,0.047
			C20.498,14.313,21.006,13.246,20.604,12.357C20.261,11.604,20.702,12.577,20.604,12.357z M19.073,13.531
			c-0.216,0.027-0.273-0.229-0.351-0.374c-0.146-0.294-0.318-0.576-0.511-0.845c-0.382-0.535-0.854-1.006-1.366-1.412
			c-0.472-0.367-0.982-0.687-1.512-0.961c-0.191-0.102-0.54-0.193-0.684-0.369c-0.172-0.217,0.145-0.537,0.342-0.589
			c0.417-0.11,1.104,0.44,1.443,0.646c0.537,0.326,1.049,0.699,1.508,1.131C18.277,11.068,20.373,13.364,19.073,13.531
			C18.9,13.555,19.294,13.504,19.073,13.531z"/>
		<rect x="1" y="18.625" fill="#9E3039" width="24" height="2"/>
	</g>
</g>
<g id="maid" display="none">
	<g display="inline">
		<g>
			<path fill="#FCB033" d="M9.823,19.921c0.411,0,0.753,0.308,0.812,0.704h4.646c0.057-0.396,0.396-0.704,0.81-0.704
				s0.753,0.308,0.813,0.704h4.938c-0.168-2.871-2.126-4.357-4.046-5.436c-0.193-0.105-0.261-0.319-0.354-0.612
				c-0.018-0.056-0.041-0.134-0.063-0.191c-0.258-0.081-0.834-0.118-1.268-0.146c-0.527-0.032-1.033-0.064-1.421-0.162l-1.706,3.143
				l-1.813-3.257c-0.294,0.097-0.697,0.185-1.232,0.302c-0.445,0.097-1.002,0.217-1.225,0.313c-0.03,0.052-0.071,0.144-0.099,0.196
				c-0.108,0.235-0.202,0.438-0.396,0.541c-2.39,1.287-4.243,2.511-4.397,5.313H9.01C9.07,20.229,9.411,19.921,9.823,19.921z
				 M16.091,17.511c0.454,0,0.822,0.368,0.822,0.823c0,0.453-0.368,0.824-0.822,0.824s-0.821-0.371-0.821-0.824
				C15.27,17.879,15.637,17.511,16.091,17.511z M9.823,17.511c0.45,0,0.819,0.368,0.819,0.823c0,0.453-0.369,0.824-0.819,0.824
				c-0.453,0-0.822-0.371-0.822-0.824C9.001,17.879,9.37,17.511,9.823,17.511z"/>
			<path fill="#FCB033" d="M10.886,3.504C10.062,3.61,9.426,3.966,8.95,4.585C7.541,6.413,8.095,9.863,8.1,9.897l0.216,1.289
				c0.84,0.866,1.93,1.491,3.149,1.761c0.021,0.007,0.041,0.013,0.063,0.02c0.41,0.085,0.84,0.132,1.271,0.132
				c2.208,0,4.143-1.148,5.252-2.88l-0.061-0.7l-0.309-3.544C13.932,5.544,11.475,3.927,10.886,3.504z M9.736,7.351
				c0-0.454,0.369-0.823,0.823-0.823c0.456,0,0.824,0.369,0.824,0.823s-0.368,0.823-0.824,0.823
				C10.104,8.174,9.736,7.806,9.736,7.351z M14.9,10.198c-1.313,0.829-2.895,0.834-4.174-0.063
				c-0.456-0.319,0.119-0.965,0.569-0.649c0.951,0.668,2.163,0.603,3.125-0.003C14.893,9.187,15.372,9.902,14.9,10.198z
				 M14.898,8.174c-0.453,0-0.817-0.369-0.817-0.823s0.364-0.823,0.817-0.823c0.455,0,0.822,0.369,0.822,0.823
				S15.354,8.174,14.898,8.174z"/>
			<path fill="#FCB033" d="M6.666,7.998C6.9,8.615,7.236,9.271,7.709,9.963c0,0-1.083-6.465,3.288-6.872
				c0,0,2.685,2.113,7.058,2.519l0.331,3.87c0,0,0.192-0.32,0.4-0.877c0.269-0.726,0.563-1.859,0.479-3.216
				c-0.037-0.666-0.17-1.387-0.438-2.14c-0.193-0.541-0.458-1.099-0.813-1.665c0,0.07-0.002,0.143-0.002,0.214v0.198h-0.139H17.31
				h-0.593H8.88H8.288H7.721H7.623c-0.149,0.161-0.473,0.54-0.771,1.109c-0.358,0.691-0.687,1.659-0.63,2.863
				C6.255,6.584,6.388,7.263,6.666,7.998z"/>
			<path fill="#FCB033" d="M7.865,1.145c0.001,0.059,0.001,0.116,0.003,0.172c0,0.094,0,0.188,0.002,0.282h0.265h0.62h0.679h6.729
				h0.68h0.62h0.156c0-0.151,0.006-0.301,0.006-0.454c0.002-0.034,0.002-0.067,0.002-0.103c0-0.094,0-0.189,0.003-0.284
				c0-0.091,0-0.182,0-0.273c-0.003-0.998-0.068-1.934-0.505-2.376c-0.194-0.198-0.458-0.293-0.81-0.293H9.171
				c-0.353,0-0.611,0.095-0.806,0.293C7.902-1.42,7.854-0.395,7.861,0.674c0,0.1,0.002,0.199,0.002,0.298
				C7.865,1.032,7.865,1.088,7.865,1.145z"/>
		</g>
	</g>
</g>
<g id="welcome_hamper-02" display="none">
	<g display="inline">
		<path fill="#FCB033" d="M12.969,17.469v0.271V17.469z"/>
		<polygon fill="#FCB033" points="10.26,17.469 10.26,17.74 10.261,17.469 		"/>
		<polygon fill="#FCB033" points="15.677,17.469 15.677,17.74 15.678,17.469 		"/>
		<path fill="#FCB033" d="M24.275,6.345l-0.383-0.383c-0.213-0.211-0.453-0.746-0.539-0.66L19.6,8.625H6.263L2.509,5.302
			C2.423,5.216,2.183,5.534,1.97,5.746L1.587,6.237C1.376,6.448,1.274,6.312,1.36,6.396l2.605,2.229H2.677
			C2.377,8.625,2,9.73,2,10.03v0.541c0,0.3,0.377,1.054,0.677,1.054h1.43L5.705,19.1c0.043,0.533,0.421,0.525,1.096,0.525h12.064
			c0.675,0,1.053-0.002,1.097-0.535l1.616-7.465h1.141c0.299,0,0.281-0.754,0.281-1.054V10.03c0-0.3,0.018-1.405-0.281-1.405h-0.82
			l2.605-2.174C24.589,6.365,24.488,6.557,24.275,6.345z M9,17.469v-4.875c0-0.299,0.701-0.542,1-0.542s1,0.243,1,0.542v4.875
			c0,0.299-0.701,0.542-1,0.542S9,17.768,9,17.469z M12,17.469v-4.875c0-0.299,0.702-0.542,1-0.542c0.299,0,1,0.243,1,0.542v4.875
			c0,0.299-0.701,0.542-1,0.542C12.702,18.011,12,17.768,12,17.469z M15,17.469v-4.875c0-0.299,0.701-0.542,1-0.542s1,0.243,1,0.542
			v4.875c0,0.299-0.701,0.542-1,0.542S15,17.768,15,17.469z"/>
	</g>
</g>
<g id="pet_friendly" display="none">
	<g display="inline">
		<path fill="#FCB033" d="M-53.052-91.173c-1.217,0.831-3.754-0.922-6.298-0.941c-2.543-0.019-5.148,1.741-6.321,0.942
			c-1.177-0.799,1.126-7.194,6.321-7.214C-54.151-98.406-51.836-92.004-53.052-91.173z"/>
	</g>
	
		<ellipse transform="matrix(-0.1384 -0.9904 0.9904 -0.1384 21.3648 -178.6904)" display="inline" fill="#FCB033" cx="-67.044" cy="-98.638" rx="3.037" ry="2.203"/>
	
		<ellipse transform="matrix(-0.0555 -0.9985 0.9985 -0.0555 36.0854 -170.2683)" display="inline" fill="#FCB033" cx="-62.493" cy="-102.202" rx="3.037" ry="2.203"/>
	
		<ellipse transform="matrix(0.2222 -0.975 0.975 0.2222 55.8502 -135.1024)" display="inline" fill="#FCB033" cx="-56.752" cy="-102.556" rx="3.037" ry="2.203"/>
	
		<ellipse transform="matrix(0.5997 -0.8002 0.8002 0.5997 59.6369 -81.1949)" display="inline" fill="#FCB033" cx="-51.341" cy="-100.208" rx="3.037" ry="2.203"/>
	<g display="inline">
		<path fill="#FCB033" d="M-12.052-95.173c-1.217,0.831-3.754-0.922-6.298-0.941c-2.543-0.019-5.148,1.741-6.321,0.942
			c-1.177-0.799,1.126-7.194,6.321-7.214C-13.151-102.406-10.836-96.004-12.052-95.173z"/>
	</g>
	
		<ellipse transform="matrix(-0.1384 -0.9904 0.9904 -0.1384 72.0057 -142.6273)" display="inline" fill="#FCB033" cx="-26.036" cy="-102.634" rx="3.037" ry="2.203"/>
	
		<ellipse transform="matrix(-0.0556 -0.9985 0.9985 -0.0556 83.3478 -133.5575)" display="inline" fill="#FCB033" cx="-21.488" cy="-106.196" rx="3.037" ry="2.204"/>
	
		<ellipse transform="matrix(0.2222 -0.975 0.975 0.2222 91.6369 -98.2385)" display="inline" fill="#FCB033" cx="-15.755" cy="-106.555" rx="3.037" ry="2.203"/>
	
		<ellipse transform="matrix(0.5996 -0.8003 0.8003 0.5996 79.2672 -50.0078)" display="inline" fill="#FCB033" cx="-10.341" cy="-104.219" rx="3.037" ry="2.203"/>
	<g display="inline">
		<g>
			<path fill="none" stroke="#FCB033" stroke-miterlimit="10" d="M18.678,18.338c-1.363,0.936-4.213-1.033-7.066-1.056
				c-2.854-0.021-5.777,1.954-7.099,1.059c-1.317-0.896,1.264-8.073,7.099-8.095C17.445,10.224,20.043,17.407,18.678,18.338z"/>
		</g>
		
			<ellipse transform="matrix(-0.1383 -0.9904 0.9904 -0.1383 -5.8145 13.5444)" fill="none" stroke="#FCB033" stroke-miterlimit="10" cx="2.985" cy="9.302" rx="3.408" ry="2.472"/>
		
			<ellipse transform="matrix(-0.0556 -0.9985 0.9985 -0.0556 3.2406 13.6677)" fill="none" stroke="#FCB033" stroke-miterlimit="10" cx="8.084" cy="5.301" rx="3.408" ry="2.474"/>
		
			<ellipse transform="matrix(0.2222 -0.975 0.975 0.2222 6.5256 17.9688)" fill="none" stroke="#FCB033" stroke-miterlimit="10" cx="14.525" cy="4.894" rx="3.408" ry="2.47"/>
		
			<ellipse transform="matrix(0.5995 -0.8004 0.8004 0.5995 2.2334 19.4996)" fill="none" stroke="#FCB033" stroke-miterlimit="10" cx="20.6" cy="7.518" rx="3.408" ry="2.472"/>
	</g>
</g>
<g id="welcome_hamper-01" display="none">
	<g display="inline">
		<polygon fill="#FCB033" points="12.605,17.959 12.605,18.287 12.606,17.959 		"/>
		<polygon fill="#FCB033" points="9.323,17.959 9.323,18.287 9.323,17.959 		"/>
		<polygon fill="#FCB033" points="15.889,18.287 15.889,17.959 15.889,17.959 		"/>
		<path fill="#FCB033" d="M24.424,8.625H21.79h-0.849c-0.313-5-4.11-8.126-8.75-8.126c-4.638,0-8.436,3.126-8.751,8.126h-0.35H0.129
			C-0.234,8.625,0,8.579,0,8.941v0.656c0,0.364-0.234,0.027,0.129,0.027h1.729l1.938,9.71c0.052,0.648,0.511,1.29,1.328,1.29h14.626
			c0.813,0,1.271-0.651,1.327-1.3l1.96-9.7h1.382C24.788,9.625,25,9.962,25,9.598V8.941C25,8.579,24.788,8.625,24.424,8.625z
			 M9,17.959v-5.91c0-0.361,0.638-0.656,1-0.656c0.358,0,1,0.295,1,0.656v5.91c0,0.363-0.642,0.657-1,0.657
			C9.638,18.616,9,18.322,9,17.959z M12,17.959v-5.91c0-0.361,0.639-0.656,1-0.656c0.357,0,1,0.295,1,0.656v5.91
			c0,0.363-0.643,0.657-1,0.657C12.639,18.616,12,18.322,12,17.959z M17,17.959c0,0.363-0.641,0.657-1,0.657
			c-0.363,0-1-0.294-1-0.657v-5.91c0-0.361,0.637-0.656,1-0.656c0.359,0,1,0.295,1,0.656V17.959z M12.196,1.156
			c4.267,0,7.768,3.469,8.096,7.469H4.102C4.431,4.625,7.931,1.156,12.196,1.156z"/>
	</g>
</g>
<g id="wlecome-provisions" display="none">
	<g display="inline">
		<path fill="#FCB033" d="M18.135-0.811c-0.006,0.003-0.012,0.015-0.018,0.019C18.448-0.795,18.128-0.807,18.135-0.811z"/>
		<path fill="#FCB033" d="M20.525-0.922C20.762-1.071,21-1.333,21-1.632v-0.485c0-0.464-0.621-1.258-1.085-1.258h-1.935
			c-0.46,0-0.98,0.794-0.98,1.258v0.485c0,0.298,0.229,0.561,0.463,0.71c-0.273,0.419-0.521,1.033-0.792,1.729
			c-1.04-0.346-2.188-0.537-3.396-0.537c-2.758,0-4.94,1.212-5.981,2.25l0.069,0.068L2.423,7.313
			c-0.454,0.563-0.922,1.2-0.922,1.881C1.501,10.079,2,11.078,3,11.838v4.571c0,1.397,1.168,2.216,2.325,2.216h6.384
			c0.104,0,0.197,0.279,0.291,0.434c0.183,0.299,0.41,0.69,0.852,0.799c0.392,0.1,0.8,0.332,1.229,0.332
			c2.028,0,4.231-1.563,5.521-2.563h1.521c0.996,0,1.883-1.168,1.883-2.164v-8.67C23,6.375,21.721,0.908,20.525-0.922z M8.116,2.7
			l0.067-0.004C9.23,1.848,11.05,0.992,13.29,0.992c1.123,0,2.2,0.175,3.16,0.491c-0.55,1.525-1.025,3.27-1.28,4.338
			c-0.896-0.839-2.747-0.854-5.089-0.813C9.565,5.018,9.034,5.027,8.49,5.027c-1.182,0-2.276,0.176-3.232,0.489L8.116,2.7z
			 M5.325,17.625C4.228,17.625,4,16.779,4,16.409v-5.031L3.86,11.284C2.615,10.718,2.4,10.068,2.4,9.199
			c0-1.931,2.683-3.438,6.075-3.438c0.548,0,1.094,0.001,1.613-0.007c2.112-0.039,3.953-0.047,4.62,0.608
			C14.896,6.547,15,6.432,15,7.154v1.783c0-0.047-0.426-0.078-0.652-0.078c-1.367,0-2.842,0.865-3.471,1.701
			c-1.486,1.974-1.858,4.721-0.881,6.783c0.096,0.201,0.229,0.281,0.386,0.281L5.325,17.625L5.325,17.625z M19.092,16.753
			c-1.148,1.522-3.162,2.546-5.014,2.546c-0.369,0-0.727-0.041-1.059-0.122c-0.143-0.034-0.249-0.194-0.404-0.452
			c-0.136-0.216-0.326-0.461-0.563-0.639C12.051,18.084,12,18.082,12,18.08l-0.417-0.122l0.5,0.5c-0.192,0-0.539-0.862-0.727-0.938
			c-0.373-0.149-0.604-0.168-0.714-0.395c-0.854-1.805-0.511-4.434,0.806-6.176c0.512-0.679,1.761-1.39,2.888-1.39
			c0.209,0,0.398,0.038,0.576,0.09c0.332,0.099,0.564,0.472,0.842,0.899c0.154,0.242,0.313,0.494,0.51,0.72
			c0.133,0.155,0.271,0.282,0.41,0.385c0.396,0.285,0.878,0.412,1.344,0.535c0.498,0.129,0.969,0.254,1.188,0.557
			C20.009,13.846,19.807,15.807,19.092,16.753z M22,15.461c0,0.598-0.285,1.164-0.883,1.164h-1.092c0.561-1,0.603-3.116-0.237-4.271
			c-0.369-0.506-0.988-0.688-1.588-0.845c-0.334-0.088-0.679-0.192-0.948-0.342c0.008-0.031,0.02-0.067,0.021-0.099
			c0.017-0.425,1.358-0.833,2.563-0.865c0.199-0.005,0.354-0.163,0.353-0.362c-0.006-0.199-0.17-0.326-0.371-0.333
			c-0.188,0.005-0.644,0.032-1.149,0.12c0.003-0.412-0.337-0.934-0.772-1.352c-0.604-0.58-1.446-0.658-1.479-0.66L15.96,7.579
			l0.056,0.441c0.004,0.036,0.115,0.877,0.717,1.457c0.229,0.218,0.459,0.392,0.687,0.515c-0.327,0.154-0.603,0.356-0.745,0.622
			c-0.105-0.146-0.063-0.296-0.156-0.449C16.316,9.859,16,9.558,16,9.32V6.793c0-0.842,1.428-7.168,2.117-7.168
			c-0.063,0-0.143,0-0.25,0l0,0l0.268-0.436L19-1.375h-1.133l0,0h0.113C17.92-1.375,18-1.566,18-1.632v-0.485
			c0-0.065-0.08-0.258-0.02-0.258h1.935C19.98-2.375,20-2.183,20-2.117v0.485c0,0.065-0.021,0.257-0.085,0.257H19v0.584
			c0,0,0.156-0.015,0.146-0.02C19.826-0.366,22,5.945,22,6.793V15.461z M18.07,9.758V9.479l0,0V9.758z M17.871,9.416
			c-0.165-0.076-0.396-0.227-0.643-0.459c-0.146-0.141-0.25-0.309-0.322-0.468c0.158,0.069,0.333,0.167,0.479,0.308
			C17.645,9.047,17.794,9.266,17.871,9.416z"/>
	</g>
	<path display="inline" fill="#FCB033" d="M6.367,3.968c-0.017,0.006-0.193-0.15,0.268-0.237c0.227-0.05,0.498-0.088,0.784-0.13
		c0.285-0.043,0.595-0.059,0.895-0.087l0.449-0.002C8.908,3.515,9.054,3.5,9.185,3.522c0.132,0.015,0.26,0.029,0.38,0.043
		c0.117,0.019,0.238,0.016,0.326,0.05c0.361,0.105,0.604,0.177,0.604,0.177S10.228,3.757,9.83,3.705
		C9.736,3.685,9.61,3.703,9.496,3.701C9.377,3.703,9.252,3.705,9.123,3.708C8.998,3.703,8.855,3.735,8.72,3.749L8.308,3.801
		c-0.273,0.063-0.549,0.108-0.8,0.178S7.026,4.11,6.834,4.178C6.448,4.302,5.686,4.496,5.67,4.499L6.367,3.968z"/>
	<path display="inline" fill="#FCB033" d="M7.372,2.995C7.359,3.001,7.174,2.822,7.635,2.734c0.227-0.051,0.498-0.088,0.784-0.13
		s0.596-0.053,0.896-0.079l0.451,0.007c0.146,0.007,0.292-0.006,0.425,0.021c0.136,0.02,0.265,0.038,0.386,0.056
		c0.114,0.023,0.236,0.023,0.325,0.063c0.364,0.127,0.606,0.212,0.606,0.212s-0.266-0.113-0.667-0.181
		c-0.092-0.024-0.218-0.08-0.336-0.08c-0.119,0-0.244,0-0.374,0c-0.125,0-0.271,0.093-0.404,0.105L9.316,2.814
		c-0.273,0.063-0.549,0.127-0.799,0.2c-0.25,0.073-0.479,0.145-0.671,0.218C7.46,3.364,6.699,3.568,6.684,3.571L7.372,2.995z"/>
	<rect x="33.001" y="-22.325" display="inline" fill="#FCB033" width="7.666" height="6.899"/>
</g>
<g id="toiletries" display="none">
	<path display="inline" fill="#FCB033" d="M23.922,12.063l-0.845-1.146c0.377-0.246,1.063-0.798,1.198-1.63
		c0.091-0.521-0.051-1.043-0.403-1.562l0.05-0.037l-0.891-1.209c0.355-0.271,0.73-0.657,0.785-1.127
		c0.029-0.241-0.031-0.586-0.385-0.921l0.043-0.081l-9.041-4.656c-0.313-0.31-0.88-0.726-1.687-0.831
		c-1.102-0.145-2.271,0.323-3.498,1.386L2.275,4.18l0.066,0.118L2.3,4.244L0.47,5.638l1.732,1.015L1.142,7.881
		c-0.085,0.098-0.122,0.23-0.1,0.358c0.021,0.13,0.099,0.242,0.212,0.307L1.904,8.92L0.47,10.014l1.732,1.015L1.14,12.258
		c-0.085,0.1-0.123,0.23-0.101,0.358c0.021,0.129,0.099,0.239,0.212,0.307l0.646,0.373L0.47,14.389l6.194,3.633
		c0.172,0.127,3.229,2.399,6.203,2.398c1.055,0,2.1-0.285,2.999-1.057l6.961-3.922c0.051-0.026,1.264-0.646,1.448-1.778
		c0.091-0.521-0.051-1.044-0.403-1.562L23.922,12.063z M2.83,4.939L2.794,4.892l6.928-3.903l0.074-0.051
		c1.036-0.907,1.979-1.313,2.83-1.209c0.365,0.046,0.657,0.183,0.881,0.333L13.451,0.17l0.461,0.237
		c0.063,0.072,0.102,0.124,0.104,0.131l0.063-0.043L22.8,4.987l-0.018,0.021c0.082,0.064,0.176,0.159,0.166,0.243
		c-0.026,0.236-0.526,0.635-0.984,0.857L15.32,9.922c-2.896,2.537-8.078-1.313-8.178-1.38L2.036,5.543L2.83,4.939z M2.725,9.396
		l8.192,4.729c0.065,0.04,0.145,0.059,0.22,0.059c0.15,0,0.298-0.078,0.378-0.219c0.122-0.209,0.049-0.479-0.16-0.599L2.149,8.052
		L2.97,7.103l3.694,2.165c0.174,0.132,3.258,2.421,6.214,2.421c1.045,0,2.074-0.287,2.951-1.061L21.1,7.61l0.789,1.114l-8.646,4.152
		c-0.22,0.104-0.313,0.366-0.204,0.582c0.071,0.159,0.229,0.25,0.396,0.25c0.063,0,0.127-0.017,0.189-0.043l9.11-4.376
		c0.117-0.057,0.203-0.16,0.234-0.285c0.032-0.125,0.008-0.258-0.066-0.364l-1.035-1.466l0.416-0.238l0.597,0.813l-0.067,0.068
		c0.468,0.476,0.672,0.919,0.605,1.322c-0.114,0.695-0.979,1.141-1,1.153l-7.021,3.955l-0.07,0.05
		c-2.896,2.536-8.081-1.313-8.181-1.381L2.037,9.918L2.725,9.396z M22.417,14.668l-7.021,3.955l-0.069,0.051
		c-2.896,2.534-8.081-1.314-8.181-1.383l-5.107-2.997l0.688-0.522l8.192,4.729c0.065,0.04,0.145,0.058,0.22,0.058
		c0.15,0,0.298-0.076,0.378-0.218c0.122-0.209,0.049-0.478-0.16-0.598L2.15,12.428l0.821-0.947l3.694,2.162
		c0.172,0.133,3.229,2.402,6.203,2.402c1.055,0,2.1-0.286,2.999-1.057l5.262-2.967l0.764,1.08l-8.646,4.146
		c-0.22,0.104-0.313,0.365-0.204,0.585c0.075,0.156,0.229,0.247,0.396,0.247c0.063,0,0.127-0.018,0.189-0.043l9.115-4.375
		c0.111-0.061,0.197-0.16,0.23-0.284c0.031-0.126,0.008-0.26-0.063-0.36l-1.018-1.432l0.42-0.23l0.565,0.771l-0.067,0.067
		c0.467,0.476,0.672,0.92,0.605,1.322C23.303,14.21,22.443,14.654,22.417,14.668z"/>
</g>
<g id="phone" display="none">
	<g display="inline">
		<path fill="#FCB033" d="M7.963-3.114c0.008,0.009,0.05,0.083,0.072,0.188c0.026,0.104,0.071,0.232,0.121,0.36L8.86-0.579
			c0.187,0.456,0.374,0.932,0.573,1.4c0.076,0.188,0.084,0.333,0.09,0.429L9.7,1.776L9.573,1.968C9.5,2.384,9.299,2.737,8.952,3.066
			C7.724,4.239,7.724,4.239,8.828,5.62c1.381,1.738,3.028,3.319,5.045,4.838c0.298,0.22,0.428,0.254,0.477,0.254
			c0.037,0,0.121-0.07,0.217-0.227c0.604-0.958,1.395-1.453,2.347-1.475l0.038-0.046l0.629,0.07
			c0.104,0.021,0.215,0.046,0.322,0.086l0.106,0.014l3.745,1.483c0.063,0.018,0.116,0.042,0.145,0.055l0.699,0.457l0.08,0.129
			c0.233,0.37,0.235,0.803,0.205,1.135c-0.271,3.34-3.307,6.078-6.771,6.092H16.04c-1.188,0-2.298-0.293-3.31-0.872
			C7.647,14.655,3.665,10.66,0.881,5.729c-1.09-1.94-1.172-4.205-0.229-6.215c0.942-2.001,2.805-3.43,4.979-3.824
			C6.263-4.424,6.76-4.384,7.152-4.16 M6.27-3.32c-0.137,0-0.287,0.018-0.452,0.047C3.951-2.934,2.418-1.755,1.61-0.038
			C0.812,1.659,0.885,3.569,1.804,5.208c2.688,4.764,6.54,8.629,11.455,11.487c0.847,0.483,1.78,0.729,2.777,0.729v0.53l0.063-0.53
			c2.937-0.012,5.496-2.31,5.729-5.125c0.042-0.451-0.055-0.512-0.148-0.566l-0.414-0.172l-3.638-1.421
			c-0.137-0.039-0.198-0.052-0.259-0.064l-0.082-0.017l-0.172,0.017l-0.145-0.005c-0.418,0-0.967,0.112-1.514,0.977
			c-0.297,0.479-0.67,0.725-1.111,0.725c-0.425,0-0.8-0.229-1.105-0.461C11.15,9.73,9.437,8.088,8.002,6.281
			c-1.564-1.955-1.546-2.29,0.22-3.98c0.25-0.236,0.302-0.419,0.319-0.582L8.544,1.69L8.512,1.594C8.475,1.447,8.47,1.38,8.466,1.31
			C8.257,0.76,8.063,0.278,7.87-0.205L7.159-2.214c-0.058-0.152-0.107-0.305-0.15-0.458c0,0.003,0,0.005,0,0.005
			c-0.006,0-0.034-0.055-0.056-0.125L6.875-2.96C6.737-3.229,6.584-3.32,6.27-3.32z"/>
	</g>
</g>
<g id="car-park" display="none">
	<g display="inline">
		<path fill="#FCB033" d="M14.673,11.4c1.08,0.153,1.122,0.197,1.306,1.265c0.162,0.929,0.328,1.854,0.489,2.785
			c0.226,1.271-0.129,1.849-1.37,2.245c-0.344,1.783-0.729,2.192-2.027,2.14c-1.132-0.048-1.557-0.563-1.729-2.174
			c-0.821,0-1.656,0-2.49,0c-0.819,0-1.641,0-2.268,0c-0.336,0.688-0.515,1.354-0.932,1.782c-0.284,0.298-0.908,0.367-1.385,0.367
			c-1.089,0-1.492-0.559-1.637-2.063c-0.314-0.158-0.666-0.272-0.938-0.488c-0.49-0.396-0.637-0.95-0.521-1.571
			c0.182-1.008,0.366-2.013,0.544-3.02c0.188-1.068,0.224-1.105,1.28-1.268c0.095-0.7,0.149-1.418,0.294-2.124
			c0.311-1.543,1.582-2.69,3.147-2.758c1.563-0.068,3.135-0.08,4.693-0.009c1.865,0.086,3.185,1.433,3.379,3.3
			C14.564,10.327,14.617,10.846,14.673,11.4z M13.253,11.424c0.143-2.301-0.748-3.787-2.528-3.504
			c-0.137,1.086-0.26,1.195-1.356,1.198c-0.281,0.002-0.563,0-0.846,0c-1.304,0-1.313-0.011-1.583-1.238
			c-1.886-0.142-2.599,1.306-2.503,3.544C7.375,11.424,10.315,11.424,13.253,11.424z M4.034,13.611
			c-0.718,0.002-1.313,0.59-1.317,1.293c-0.006,0.713,0.643,1.344,1.359,1.322c0.696-0.021,1.291-0.64,1.274-1.336
			C5.342,14.182,4.749,13.605,4.034,13.611z M13.634,13.607c-0.714,0.011-1.295,0.602-1.292,1.313
			c0.004,0.703,0.604,1.303,1.305,1.307c0.729,0.002,1.354-0.636,1.33-1.354C14.952,14.165,14.352,13.598,13.634,13.607z"/>
	</g>
	<g display="inline">
		<g>
			<path fill="#FCB033" d="M21.8,4.276c0,0.573-0.181,1.011-0.538,1.315c-0.359,0.304-0.867,0.454-1.527,0.454H19.25v1.894h-1.128
				V2.616h1.696c0.646,0,1.14,0.137,1.477,0.417C21.631,3.311,21.8,3.725,21.8,4.276z M19.25,5.122h0.371
				c0.348,0,0.604-0.071,0.775-0.206c0.172-0.138,0.263-0.337,0.263-0.601c0-0.265-0.07-0.46-0.22-0.585
				c-0.146-0.127-0.373-0.189-0.68-0.189h-0.51V5.122z"/>
		</g>
	</g>
	<g display="inline">
		<path fill="#FCB033" d="M19.502,10.208c-2.904,0-5.271-2.364-5.271-5.27c0-2.905,2.361-5.269,5.271-5.269s5.271,2.363,5.271,5.269
			S22.407,10.208,19.502,10.208z M19.502,0.548c-2.42,0-4.396,1.97-4.396,4.391c0,2.422,1.977,4.393,4.396,4.393
			c2.421,0,4.393-1.97,4.393-4.393C23.895,2.518,21.923,0.548,19.502,0.548z"/>
	</g>
	<g display="inline">
		<rect x="18" y="9.625" fill="#FCB033" width="2" height="10"/>
	</g>
</g>
<g id="nosmoking" display="none">
	<g display="inline">
		<path fill="#FCB033" d="M14.318,7.469L23.9-2.114c0.351-0.344,0.351-0.903,0-1.249c-0.344-0.345-0.898-0.345-1.246,0L13.071,6.22
			L3.488-3.363c-0.345-0.345-0.899-0.345-1.244,0c-0.349,0.345-0.349,0.904,0,1.249l9.579,9.583L2.24,17.052
			c-0.349,0.343-0.349,0.903,0,1.248c0.172,0.173,0.396,0.259,0.624,0.259c0.226,0,0.448-0.086,0.62-0.259l9.583-9.582l9.583,9.582
			c0.176,0.173,0.396,0.259,0.623,0.259c0.229,0,0.451-0.086,0.623-0.259c0.351-0.345,0.351-0.905,0-1.248L14.318,7.469z"/>
		<path fill="#FCB033" d="M20.311,6.745l0.381-0.12H2.251C1.571,6.625,1,7.662,1,8.338v0.929c0,0.706,0.603,1.357,1.251,1.357
			h13.522h0.748h3.772c0.111,0,0.224,0.057,0.332,0.057c0.105,0,0.222-0.057,0.33-0.057H21l-0.384-0.037
			c0.396-0.137,0.38-0.505,0.38-0.906V7.793C21,7.29,20.816,6.774,20.311,6.745z M4,9.625v-2h12v2H4z M17,7.625h2.545
			c-0.021,0-1.42-0.375-1.545,0.168v1.889c0,0.05,1.521-0.057,1.531-0.057H17V7.625z M20,9.682c0,0.175-0.325,0.315-0.5,0.315
			c-0.174,0-0.5-0.141-0.5-0.315V7.793c0-0.174,0.326-0.316,0.5-0.316c0.175,0,0.5,0.142,0.5,0.316V9.682z"/>
		<g>
			<path fill="#FCB033" d="M2.002,6.135C1.756,6.126,1.675,5.959,1.777,5.753C1.961,5.375,2.06,4.975,1.98,4.563
				C1.923,4.272,1.816,3.986,1.693,3.716C1.4,3.076,1.359,2.429,1.586,1.766C1.627,1.65,1.681,1.538,1.736,1.43
				c0.065-0.125,0.168-0.19,0.309-0.128c0.14,0.065,0.159,0.18,0.107,0.328C2.06,1.906,1.953,2.184,1.912,2.468
				C1.847,2.91,2.004,3.313,2.202,3.705C2.47,4.237,2.54,4.797,2.395,5.375c-0.05,0.204-0.13,0.402-0.219,0.593
				C2.138,6.048,2.042,6.099,2.002,6.135z"/>
		</g>
		<g>
			<path fill="#FCB033" d="M0.771,5.263c-0.233,0-0.313-0.155-0.247-0.354c0.087-0.263,0.188-0.528,0.23-0.799
				C0.82,3.661,0.671,3.249,0.47,2.852C0.154,2.223,0.123,1.57,0.351,0.905C0.39,0.79,0.443,0.679,0.498,0.568
				c0.063-0.134,0.174-0.202,0.313-0.131c0.146,0.071,0.144,0.194,0.102,0.334C0.826,1.062,0.721,1.354,0.68,1.652
				c-0.059,0.42,0.099,0.803,0.285,1.176c0.319,0.636,0.347,1.295,0.116,1.966c-0.039,0.115-0.089,0.23-0.155,0.333
				C0.882,5.193,0.803,5.236,0.771,5.263z"/>
		</g>
	</g>
</g>
<g id="flat-screen-tv" display="none">
	<g display="inline">
		<path fill="#FCB033" d="M25,17.625H0v-14h25V17.625z M1,16.625h23v-12H1V16.625z"/>
	</g>
	<g display="inline">
		<rect x="2" y="5.625" fill="#FCB033" width="21" height="10"/>
	</g>
	<g display="inline">
		<rect x="2" y="18.625" fill="#FCB033" width="21" height="1"/>
	</g>
</g>
<g id="cctv" display="none">
	<path display="inline" fill="#FCB033" d="M23.882,4.208L9.279-1.898C8.295-2.31,7.693-2.146,7.441-1.54L5.796,2.392
		C5.795,2.394,5.795,2.396,5.794,2.399L5.205,3.807c-0.336,0.806,0.103,1.73,0.999,2.105l4.997,2.145L6,13.139v-3.125
		c0-0.2,0.067-0.212-0.051-0.335C5.742,9.473,6.375,9.75,5.288,9.625H2.306c-0.165,0-0.684-0.152-0.833-0.004
		C1.321,9.773,1,9.813,1,10.013v8.206c0,0.309,0.642,1.406,1.354,1.406h2.935C5.849,19.625,6,18.75,6,18.219v-2.594h0.478
		c0.021,0,0.068-0.046,0.104-0.033c0.091,0.033,0.228,0.051,0.382,0.051c0.077,0,0.158-0.024,0.24-0.063
		c0.372-0.057,0.651-0.295,0.76-0.627l5.871-5.845l5.497,2.294c0.26,0.106,0.524,0.16,0.786,0.16c0.512,0,0.979-0.209,1.271-0.568
		l0.758,0.314l0.16,0.03c0.332,0,0.442-0.315,0.563-0.655c0.021-0.061,0.04-0.117,0.057-0.158l0.527-1.262
		c0.019-0.042,0.04-0.08,0.058-0.112c0.063-0.108,0.15-0.271,0.082-0.467L23.512,8.5l-0.854-0.359l0.169-0.401
		c1.081-0.017,1.322-0.134,1.434-0.389l0.662-1.584C25.102,5.331,25.068,4.706,23.882,4.208z M5,18.219
		c0,0.162,0.35-0.594,0.288,0.406H2.433c-0.02-1-0.433-0.33-0.433-0.406v-7.594h3.341C5.389,10.625,5,10.094,5,10.096v2.529H4.116
		C3.584,12.625,3,13.58,3,14.116v0.586c0,0.235,0.271,0.923,1.116,0.923H5V18.219z M7.254,14.563l-0.021,0.123
		c-0.003,0.025-0.017,0.105-0.172,0.117l-0.096,0.008l-0.032,0.021c-0.022-0.008-0.058-0.066-0.082-0.077
		c-0.099-0.036-0.222-0.129-0.363-0.129h-0.22H5.497h-1.38C3.967,14.625,4,14.699,4,14.702v-0.586c0-0.168,0.076-0.491,0.116-0.491
		H6.55l5.553-5.408l0.961,0.482L7.254,14.563z M19.629,10.689L6.501,5.201C5.995,4.989,5.743,4.517,5.916,4.104l0.147-0.362
		c0.17,0.199,0.394,0.37,0.659,0.482l7.004,2.8c0.559,0.232,5.59,0.656,8.263,0.713l-0.343,0.808L21.13,9.777
		c-0.001,0.004-0.004,0.008-0.005,0.011l-0.24,0.575C20.723,10.764,20.156,10.91,19.629,10.689z M22.727,9.009l-0.51,1.222
		c-0.021,0.052-0.049,0.125-0.074,0.203c-0.004,0.01-0.008,0.02-0.012,0.032l-0.355-0.149c0.021-0.084,0.045-0.179,0.068-0.239
		l0.514-1.225L22.727,9.009z M24.207,5.47L23.6,6.92c-0.123,0.022-0.414,0.053-1.062,0.053c-2.688,0-8.065-0.504-8.521-0.663
		l-7.003-2.8C6.623,3.346,6.39,2.97,6.505,2.689l0.653-1.56l0,0l0.988-2.372C8.18-1.314,8.209-1.357,8.348-1.357
		c0.15,0,0.363,0.057,0.632,0.17l14.604,6.105C24.311,5.223,24.232,5.409,24.207,5.47z"/>
</g>
<g id="air-con" display="none">
	<g display="inline">
		<path fill="#FCB033" d="M24.645,13.25c-0.104,0.238-0.293,0.305-0.543,0.305c-7.853-0.002-15.706-0.002-23.559,0
			c-0.249,0-0.439-0.063-0.543-0.305c0-2.873,0-5.745,0-8.616c0.055-0.149,0.095-0.306,0.167-0.446
			c0.329-0.645,0.87-0.922,1.584-0.92C4.229,3.273,6.706,3.27,9.184,3.27c4.542,0,9.091-0.003,13.636,0.008
			c0.313,0,0.646,0.061,0.933,0.177c0.515,0.208,0.749,0.67,0.896,1.179C24.645,7.505,24.645,10.377,24.645,13.25z M23.43,4.202
			c0,0.16,0.006,0.271,0,0.382c-0.031,0.497-0.304,0.869-0.742,0.986c-0.157,0.042-0.332,0.051-0.498,0.051
			C15.611,5.624,9.037,5.623,2.46,5.623c-0.112,0-0.228-0.005-0.335-0.018c-0.463-0.054-0.813-0.387-0.884-0.85
			c-0.026-0.17-0.029-0.343-0.049-0.548c-0.302,0.21-0.38,0.481-0.38,0.803c0.003,2.494,0.002,4.988,0.002,7.481
			c0,0.079,0,0.155,0,0.233c0.147,0,0.267,0,0.4,0c0-0.104,0-0.189,0-0.277c0-0.568-0.007-1.139,0.001-1.707
			c0.009-0.691,0.429-1.105,1.119-1.105c6.655-0.002,13.312-0.002,19.968,0c0.702,0,1.117,0.416,1.125,1.124
			c0.006,0.569,0.002,1.138,0.002,1.708c0,0.086,0,0.172,0,0.26c0.148,0,0.264,0,0.397,0c0-0.104,0-0.188,0-0.272
			c0-2.463,0-4.925,0-7.386c0-0.088,0.003-0.178-0.013-0.265C23.789,4.559,23.688,4.36,23.43,4.202z M1.774,4.09
			c0,0.204-0.013,0.38,0.003,0.553C1.801,4.895,1.966,5.044,2.219,5.07c0.08,0.008,0.16,0.006,0.241,0.006
			c6.576,0.001,13.149,0.001,19.729,0c0.102,0,0.211,0.026,0.283-0.018c0.146-0.086,0.319-0.191,0.369-0.328
			c0.068-0.191,0.033-0.418,0.044-0.64C15.827,4.09,8.813,4.09,1.774,4.09z M22.867,11.271c-7.038,0-14.06,0-21.092,0
			c0,0.178,0,0.34,0,0.515c7.036,0,14.06,0,21.092,0C22.867,11.614,22.867,11.457,22.867,11.271z M1.787,10.689
			c7.022,0,14.05,0,21.078,0c-0.021-0.38-0.198-0.52-0.643-0.52c-6.601,0-13.199,0-19.797,0c-0.088,0-0.177,0.001-0.263,0.019
			C1.906,10.242,1.785,10.404,1.787,10.689z M1.777,12.723c7.054,0,14.069,0,21.091,0c0-0.137,0-0.252,0-0.373
			c-7.038,0-14.062,0-21.091,0C1.777,12.479,1.777,12.596,1.777,12.723z"/>
		<path fill="#FCB033" d="M14.848,20.624c-0.289-0.013-0.384-0.207-0.264-0.448c0.215-0.443,0.33-0.912,0.232-1.396
			c-0.063-0.339-0.188-0.675-0.336-0.988c-0.342-0.75-0.392-1.512-0.123-2.285c0.051-0.137,0.107-0.271,0.179-0.396
			c0.069-0.146,0.192-0.224,0.354-0.146c0.164,0.075,0.188,0.21,0.129,0.387c-0.104,0.32-0.229,0.646-0.276,0.979
			c-0.076,0.519,0.104,0.987,0.34,1.446c0.313,0.623,0.396,1.281,0.228,1.96c-0.06,0.237-0.147,0.474-0.256,0.69
			C15.007,20.521,14.895,20.582,14.848,20.624z"/>
		<path fill="#FCB033" d="M12.385,20.621c-0.278,0-0.367-0.182-0.29-0.417c0.103-0.308,0.221-0.619,0.271-0.937
			c0.077-0.525-0.101-1.013-0.332-1.479c-0.372-0.731-0.407-1.502-0.145-2.281c0.046-0.135,0.109-0.266,0.172-0.394
			c0.077-0.156,0.203-0.236,0.373-0.154c0.169,0.082,0.163,0.229,0.113,0.396c-0.101,0.342-0.225,0.683-0.273,1.027
			c-0.064,0.492,0.116,0.942,0.335,1.383c0.374,0.741,0.407,1.519,0.14,2.305c-0.047,0.136-0.104,0.271-0.186,0.39
			C12.516,20.538,12.422,20.59,12.385,20.621z"/>
		<path fill="#FCB033" d="M12.343,8.542c0.386,0,0.77-0.006,1.155,0.002c0.271,0.006,0.434,0.228,0.29,0.402
			c-0.071,0.087-0.233,0.136-0.355,0.138c-0.737,0.014-1.476,0.008-2.214,0.008c-0.008,0-0.016,0-0.024,0
			c-0.187-0.006-0.372-0.029-0.375-0.271C10.819,8.583,11,8.543,11.187,8.543C11.573,8.541,11.958,8.542,12.343,8.542z"/>
		<path fill="#FCB033" d="M22.048,8.882c-0.104,0.065-0.196,0.171-0.304,0.188c-0.155,0.025-0.264-0.092-0.266-0.249
			c0-0.168,0.109-0.287,0.273-0.26c0.104,0.018,0.195,0.134,0.292,0.208C22.048,8.807,22.048,8.844,22.048,8.882z"/>
		<path fill="#FCB033" d="M20.802,8.867c-0.099,0.071-0.186,0.18-0.294,0.203c-0.154,0.033-0.261-0.084-0.271-0.236
			c-0.008-0.17,0.104-0.294,0.268-0.273c0.104,0.013,0.2,0.127,0.3,0.196C20.8,8.793,20.801,8.83,20.802,8.867z"/>
		<path fill="#FCB033" d="M9.925,20.625c-0.275-0.011-0.377-0.182-0.306-0.382c0.081-0.233,0.188-0.461,0.24-0.699
			c0.13-0.543,0.048-1.067-0.212-1.562c-0.354-0.688-0.506-1.396-0.313-2.156c0.057-0.23,0.155-0.452,0.244-0.672
			c0.063-0.168,0.188-0.278,0.375-0.196c0.192,0.087,0.191,0.255,0.105,0.426c-0.27,0.536-0.349,1.101-0.191,1.681
			c0.065,0.264,0.188,0.507,0.302,0.752c0.393,0.865,0.382,1.726-0.033,2.57C10.086,20.494,9.974,20.572,9.925,20.625z"/>
		<path fill="#FCB033" d="M14.848,20.624c-0.289-0.013-0.384-0.207-0.264-0.448c0.215-0.443,0.33-0.912,0.232-1.396
			c-0.063-0.339-0.188-0.675-0.336-0.988c-0.342-0.75-0.392-1.512-0.123-2.285c0.051-0.137,0.107-0.271,0.179-0.396
			c0.069-0.146,0.192-0.224,0.354-0.146c0.164,0.075,0.188,0.21,0.129,0.387c-0.104,0.32-0.229,0.646-0.276,0.979
			c-0.076,0.519,0.104,0.987,0.34,1.446c0.313,0.623,0.396,1.281,0.228,1.96c-0.06,0.237-0.147,0.474-0.256,0.69
			C15.007,20.521,14.895,20.582,14.848,20.624z"/>
		<path fill="#FCB033" d="M12.385,20.621c-0.278,0-0.367-0.182-0.29-0.417c0.103-0.308,0.221-0.619,0.271-0.937
			c0.077-0.525-0.101-1.013-0.332-1.479c-0.372-0.731-0.407-1.502-0.145-2.281c0.046-0.135,0.109-0.266,0.172-0.394
			c0.077-0.156,0.203-0.236,0.373-0.154c0.169,0.082,0.163,0.229,0.113,0.396c-0.101,0.342-0.225,0.683-0.273,1.027
			c-0.064,0.492,0.116,0.942,0.335,1.383c0.374,0.741,0.407,1.519,0.14,2.305c-0.047,0.136-0.104,0.271-0.186,0.39
			C12.516,20.538,12.422,20.59,12.385,20.621z"/>
	</g>
</g>
<g id="wi-fi" display="none">
	<g display="inline">
		<g>
			<g>
				<path fill="#FCB033" d="M4.812,19.79c-2.294,0-4.161-1.866-4.161-4.162s1.867-4.164,4.161-4.164
					c2.296,0,4.163,1.868,4.163,4.164S7.108,19.79,4.812,19.79z M4.812,12.823c-1.544,0-2.801,1.258-2.801,2.805
					c0,1.545,1.257,2.804,2.801,2.804c1.545,0,2.807-1.259,2.807-2.804C7.615,14.081,6.357,12.823,4.812,12.823z"/>
			</g>
		</g>
		<g>
			<g>
				<path fill="#FCB033" d="M17.823,20.625c-0.007,0-0.017,0-0.023,0H14.58c-0.375,0-0.684-0.109-0.684-0.486
					C13.9,12.273,8.242,6.44,0.494,6.44C0.119,6.439,0,6.232,0,5.857V2.641c0-0.375,0.119-0.68,0.495-0.68
					c9.779,0,17.964,8.304,18.069,18.178c0.021,0.063-0.019-0.063-0.019,0C18.55,20.516,18.198,20.625,17.823,20.625z
					 M15.247,19.625h1.854C16.746,10.625,10,3.701,1,3.335V5.19C8,5.518,14.93,10.625,15.247,19.625z"/>
			</g>
		</g>
		<g>
			<g>
				<path fill="#FCB033" d="M24.127,20.625c-0.006,0-0.021,0-0.027,0h-3.213c-0.376,0-0.681-0.109-0.681-0.486
					c0-10.521-9.297-20.005-19.711-20.005C0.119,0.134,0-0.073,0-0.449v-3.216c0-0.375,0.119-0.68,0.495-0.68
					c13.887,0,24.276,10.512,24.377,24.483c0.019,0.063-0.021-0.063-0.021,0C24.854,20.516,24.503,20.625,24.127,20.625z
					 M21.555,19.625h1.856C23.086,6.625,13-2.644,1-2.976v1.86C12-0.72,21.164,8.625,21.555,19.625z"/>
			</g>
		</g>
	</g>
</g>
<g id="video-phone" display="none">
	<g display="inline">
		<path fill="#FCB033" d="M21-2.522v20.733c0,0.494-0.729,1.414-1.33,1.414H5.738C5.134,19.625,4,18.705,4,18.211V-2.522
			c0-0.515,1.188-0.853,1.734-0.853H19.67C20.219-3.375,21-3.037,21-2.522z M5,18.211c0,0.131,0.724,0.414,0.734,0.414H20
			c0,0,0-0.283,0-0.414V-2.522c0-0.136,0,0.147,0,0.147H5.738C5.558-2.375,5-2.658,5-2.522V18.211z"/>
	</g>
	<g display="inline">
		<path fill="#FCB033" d="M16.82-1.375H8.076C7.605-1.375,8-0.701,8-0.152V10.27c0,0.55-0.396,0.354,0.076,0.354h8.74
			c0.492,0,0.184,0.153,0.184-0.354V-0.152C17-0.659,17.313-1.375,16.82-1.375z M16.82,10.625h-0.605
			c-0.145-2-1.746-3.452-3.711-3.452S8.93,8.625,8.79,10.625H8.076C7.924,10.625,8,10.386,8,10.271V-0.152
			c0-0.114-0.076-0.223,0.076-0.223h8.74C16.974-0.375,17-0.32,17-0.152V10.27C17,10.439,16.975,10.625,16.82,10.625z"/>
		<circle fill="#FCB033" cx="12.216" cy="4.183" r="1.984"/>
	</g>
	<g display="inline">
		<path fill="#FCB033" d="M7,10.625v-12h11v12H7z M8-1.375v12h9v-12H8z"/>
	</g>
	<rect x="7" y="9.625" display="inline" fill="#FCB033" width="11" height="1"/>
	<path display="inline" fill="#E7A723" d="M7.676,17.695v0.007l0.105-0.044c0.021-0.014,0.036-0.014,0.061-0.027
		c0.017-0.003,0.029-0.014,0.042-0.02l1.605-0.688l0.065-0.047c0.038-0.021,0.071-0.04,0.104-0.063l0.104-0.066l-0.002-0.021
		c0.279-0.244,0.408-0.574,0.296-1.074c-0.083-0.356,0.111-0.455,0.435-0.502c1.069-0.148,2.146-0.188,3.22-0.063
		c0.995,0.11,1.012,0.118,0.987,1.103c-0.011,0.199,0.049,0.334,0.137,0.442l0.009,0.037l0.125,0.062
		c0.049,0.031,0.073,0.072,0.146,0.104c0.213,0.087,0.429,0.179,0.644,0.271l0.772,0.369c0.088,0.045,0.18,0.084,0.267,0.133
		c0.021,0.018,0.038,0.017,0.058,0.022l0.129,0.063l-0.008-0.021c0.313,0.104,0.508-0.039,0.709-0.328
		c1.109-1.593,0.348-3.825-1.553-4.358c-2.477-0.695-4.973-0.683-7.461-0.024c-0.484,0.13-0.903,0.379-1.254,0.737
		C6.39,14.73,6.302,16.42,7.209,17.488C7.351,17.658,7.485,17.743,7.676,17.695z"/>
</g>
</svg>
