<?xml version="1.0" encoding="utf-8"?>
<!-- Generator: Adobe Illustrator 16.0.0, SVG Export Plug-In . SVG Version: 6.00 Build 0)  -->
<!DOCTYPE svg PUBLIC "-//W3C//DTD SVG 1.1//EN" "http://www.w3.org/Graphics/SVG/1.1/DTD/svg11.dtd">
<svg version="1.1" id="Layer_1" xmlns="http://www.w3.org/2000/svg" xmlns:xlink="http://www.w3.org/1999/xlink" x="0px" y="0px"
	 width="25.469px" height="22.938px" viewBox="0 0 25.469 22.938" enable-background="new 0 0 25.469 22.938" xml:space="preserve">
<g id="Layer_2" display="none">
	<g display="inline">
		<path fill="#FCB033" d="M80.672-110.79c1.6,0.229,1.661,0.294,1.936,1.875c0.24,1.376,0.483,2.752,0.729,4.129
			c0.333,1.887-0.188,2.743-2.029,3.331c-0.513,2.644-1.092,3.253-3.011,3.172c-1.677-0.07-2.312-0.835-2.563-3.224
			c-1.219,0-2.455,0-3.69,0c-1.218,0-2.435,0-3.364,0c-0.498,1.02-0.757,2.006-1.375,2.645c-0.427,0.44-1.354,0.546-2.055,0.546
			c-1.614-0.001-2.212-0.823-2.428-3.061c-0.467-0.236-0.987-0.406-1.389-0.729c-0.73-0.588-0.943-1.412-0.775-2.332
			c0.271-1.488,0.543-2.979,0.808-4.477c0.278-1.584,0.333-1.646,1.897-1.875c0.142-1.043,0.228-2.108,0.438-3.148
			c0.462-2.288,2.348-3.987,4.676-4.091c2.314-0.101,4.645-0.119,6.959-0.014c2.767,0.125,4.727,2.123,5.008,4.893
			C80.512-112.382,80.588-111.614,80.672-110.79z M78.564-110.755c0.213-3.413-1.11-5.618-3.75-5.199
			c-0.203,1.612-0.385,1.771-2.02,1.771c-0.417,0.007-0.833,0.001-1.249,0.001c-1.935-0.001-1.948-0.014-2.347-1.834
			c-2.801-0.211-3.854,1.938-3.717,5.262C69.848-110.755,74.207-110.755,78.564-110.755z M64.893-107.515
			c-1.06,0.009-1.94,0.876-1.953,1.925c-0.01,1.057,0.953,1.987,2.02,1.96c1.038-0.029,1.913-0.943,1.896-1.981
			C66.833-106.669,65.954-107.52,64.893-107.515z M79.13-107.517c-1.062,0.02-1.924,0.896-1.917,1.944
			c0.008,1.043,0.896,1.932,1.938,1.938c1.074,0.005,2.008-0.941,1.973-2.009C81.085-106.693,80.195-107.532,79.13-107.517z"/>
	</g>
	<g display="inline">
		<path fill="#FCB033" d="M85.438-97.563c-0.272,0-0.5-0.224-0.5-0.5v-14c0-0.272,0.228-0.5,0.5-0.5c0.276,0,0.5,0.228,0.5,0.5v14
			C85.938-97.786,85.714-97.563,85.438-97.563z"/>
	</g>
	<g display="inline">
		<path fill="#FCB033" d="M87.438-97.563c-0.272,0-0.5-0.224-0.5-0.5v-14c0-0.272,0.228-0.5,0.5-0.5c0.276,0,0.5,0.228,0.5,0.5v14
			C87.938-97.786,87.714-97.563,87.438-97.563z"/>
	</g>
	<g display="inline">
		<g>
			<path fill="#FCB033" d="M89.479-119.01c0,0.701-0.221,1.24-0.662,1.615c-0.438,0.373-1.063,0.563-1.879,0.563h-0.597v2.33h-1.389
				v-6.551h2.093c0.795,0,1.396,0.17,1.813,0.514C89.271-120.197,89.479-119.688,89.479-119.01z M86.341-117.969h0.457
				c0.429,0,0.747-0.09,0.959-0.258c0.212-0.17,0.318-0.414,0.318-0.734c0-0.326-0.089-0.566-0.269-0.725
				c-0.18-0.152-0.455-0.229-0.836-0.229H86.34L86.341-117.969L86.341-117.969z"/>
		</g>
	</g>
	<g display="inline">
		<path fill="#FCB033" d="M86.521-112.302c-3.312,0-6-2.691-6-6c0-3.313,2.688-6,6-6c3.31,0,6,2.688,6,6
			C92.521-114.994,89.83-112.302,86.521-112.302z M86.521-123.302c-2.758,0-5,2.239-5,5c0,2.757,2.242,5,5,5c2.756,0,5-2.243,5-5
			C91.521-121.06,89.277-123.302,86.521-123.302z"/>
	</g>
	<g display="inline">
		<path fill="#FCB033" d="M19.938-0.209v20.729c0,0.494-0.726,1.414-1.33,1.414H4.675c-0.604,0-1.738-0.92-1.738-1.414V-0.209
			c0-0.519,1.189-0.854,1.738-0.854h13.933C19.156-1.063,19.938-0.724,19.938-0.209z M3.938,20.523c0,0.131,0.725,0.414,0.738,0.414
			h14.262c0,0,0-0.283,0-0.414V-0.209c0-0.14,0,0.146,0,0.146H4.675c-0.18,0-0.738-0.283-0.738-0.146L3.938,20.523L3.938,20.523z"/>
	</g>
	<g display="inline">
		<path fill="#FCB033" d="M15.759,0.938H7.014c-0.471,0-0.076,0.674-0.076,1.227v10.422c0,0.55-0.395,0.354,0.076,0.354h8.745
			c0.491,0,0.179,0.153,0.179-0.354V2.161C15.938,1.654,16.25,0.938,15.759,0.938z M15.759,12.938h-0.61
			c-0.141-2-1.746-3.452-3.708-3.452c-1.965,0-3.57,1.452-3.711,3.452H7.014c-0.152,0-0.076-0.235-0.076-0.354V2.161
			c0-0.114-0.076-0.227,0.076-0.227h8.745c0.152,0,0.179,0.059,0.179,0.227v10.422C15.938,12.752,15.911,12.938,15.759,12.938z"/>
		<circle fill="#FCB033" cx="11.154" cy="6.496" r="1.984"/>
	</g>
	<g display="inline">
		<path fill="#FCB033" d="M5.938,12.938v-12h11v12H5.938z M6.938,0.938v12h9v-12H6.938z"/>
	</g>
	<rect x="5.938" y="11.938" display="inline" fill="#FCB033" width="11" height="1"/>
	<path display="inline" fill="#E7A723" d="M6.613,20.009v0.006l0.105-0.044c0.023-0.013,0.04-0.013,0.061-0.027
		c0.018-0.003,0.029-0.014,0.042-0.019l1.605-0.688l0.069-0.047c0.038-0.018,0.07-0.04,0.104-0.062l0.106-0.07l-0.003-0.023
		C8.98,18.79,9.109,18.46,8.998,17.96c-0.083-0.357,0.11-0.455,0.431-0.503c1.073-0.148,2.146-0.188,3.22-0.063
		c0.996,0.112,1.013,0.118,0.987,1.104c-0.006,0.196,0.05,0.333,0.138,0.439l0.011,0.037l0.125,0.063
		c0.05,0.029,0.071,0.07,0.146,0.104c0.215,0.087,0.43,0.179,0.645,0.271l0.771,0.37c0.09,0.044,0.182,0.084,0.268,0.133
		c0.021,0.014,0.039,0.013,0.06,0.021L15.925,20l-0.008-0.02c0.313,0.104,0.508-0.039,0.709-0.328
		c1.108-1.593,0.343-3.825-1.554-4.359c-2.479-0.695-4.973-0.678-7.461-0.024c-0.483,0.13-0.902,0.379-1.254,0.738
		c-1.027,1.032-1.116,2.722-0.209,3.79C6.289,19.971,6.423,20.056,6.613,20.009z"/>
</g>
<g id="gym" display="none">
	<g display="inline">
		<path fill="#FCB033" d="M2.01,4.342l0.592,0.412c-4.084,8.995,1.83,13.951,1.892,14c0.104,0.084,0.228,0.125,0.351,0.125
			c0.163,0,0.323-0.072,0.435-0.207c0.194-0.239,0.158-0.591-0.082-0.786C4.979,17.705-0.014,13.463,3.54,5.407l1.546,1.074
			C5.183,6.55,5.294,6.586,5.405,6.586c0.176,0,0.35-0.083,0.458-0.24c0.178-0.252,0.114-0.601-0.139-0.777L2.838,3.556l-0.61-3.312
			C2.172-0.06,1.887-0.253,1.578-0.205C1.274-0.147,1.073,0.143,1.129,0.447l0.65,3.538C1.808,4.129,1.891,4.258,2.01,4.342z"/>
		<path fill="#FCB033" d="M21.518,16.822c0-2.927-2.382-5.352-5.311-5.352c-1.438,0-2.742,0.563-3.699,1.492l0.635-0.123
			L3.138,21.938H0.84c-0.311,0-0.559,0.19-0.559,0.5c0,0.313,0.25,0.5,0.559,0.5h1.117h7.544h11.456c0.309,0,0.559-0.188,0.559-0.5
			c0-0.31-0.25-0.5-0.559-0.5h-3.134C19.958,21.938,21.518,19.183,21.518,16.822z M10.774,21.938l1.587-1.392
			c0.608,0.645,1.386,1.392,2.247,1.392H10.774z M16.207,20.926c-1.24,0-2.343-0.55-3.109-1.407l2.388-2.387
			c0.218-0.219,0.218-0.572,0-0.791c-0.221-0.218-0.571-0.218-0.791,0l-1.871,1.871l-0.215-3.587c0.73-1.236,2.063-2.076,3.6-2.076
			c2.313,0,4.189,1.879,4.189,4.188C20.398,19.047,18.52,20.926,16.207,20.926z"/>
		<path fill="#FCB033" d="M22.07,6.91l-0.744-0.744c-0.104-0.089-0.232-0.229-0.368-0.229H15.37c-0.3,0-0.545,0.325-0.56,0.624
			c-0.017,0.298,0.209,0.604,0.506,0.628l0.943,0.108l1.551,0.623c0,0.006-0.004,0.014-0.004,0.02l-0.563,2.331
			c-0.072,0.3,0.109,0.604,0.414,0.676c0.044,0.014,0.087,0.02,0.13,0.02c0.253,0,0.479-0.172,0.544-0.43l0.521-2.188l0.869,0.344
			c0.065,0.025,0.135,0.039,0.203,0.039c0.084,0,0.164-0.019,0.239-0.054l1.769-0.838c0.172-0.08,0.291-0.242,0.315-0.427
			C22.282,7.221,22.212,7.034,22.07,6.91z"/>
	</g>
</g>
<g id="Layer_18" display="none">
</g>
<g id="concierge" display="none">
	<g display="inline">
		<path fill="#FCB033" d="M23.527,15.421c-0.146-2.653-1.307-5.254-3.109-7.194c-0.913-0.979-1.984-1.815-3.171-2.44
			c-0.582-0.31-1.188-0.563-1.813-0.765c-0.25-0.08-0.466-0.132-0.451-0.438C15.004,4.146,15,3.711,14.994,3.272
			c-0.008-0.391-0.018-0.545,0.263-0.817c0.185-0.186,0.313-0.418,0.331-0.681c0.055-0.646-0.536-1.1-1.07-1.32
			c-1.354-0.564-3.003-0.557-4.42-0.276C9.496,0.29,8.848,0.5,8.414,0.945c-0.442,0.452-0.405,1.15,0.067,1.564
			c0.18,0.156,0.408,0.227,0.403,0.5c-0.006,0.386-0.01,0.772-0.005,1.158C8.882,4.429,8.977,4.751,8.66,4.84
			C8.313,4.937,7.968,5.047,7.63,5.172C5.222,6.066,3.191,7.744,1.802,9.899c-0.688,1.066-1.198,2.243-1.497,3.479
			c-0.146,0.602-0.242,1.217-0.292,1.835c-0.046,0.572-0.132,1.087-0.04,1.657c0.064,0.396,1.146,0.066,1.412,0.066
			c0.841,0,1.682,0,2.523,0c1.616,0,3.233,0,4.851,0c3.222,0,6.447,0.166,9.667,0.125c1.206-0.015,2.413,0.027,3.62,0.02
			c0.367-0.004,1.209,0.169,1.519-0.082c0.11-0.095,0.019-0.629,0.019-0.771C23.58,15.945,23.544,15.695,23.527,15.421
			C23.484,14.637,23.533,15.504,23.527,15.421z M14.209,1.699c-0.925,0.604-3.823,0.604-4.733,0
			C10.365,1.087,13.311,1.087,14.209,1.699z M13.355,4.271c0.041,0.319-0.249,0.234-0.458,0.21c-0.38-0.045-0.764-0.063-1.146-0.063
			c-0.357,0-0.714,0.016-1.07,0.05c-0.249,0.023-0.179-0.429-0.179-0.593c0.004-0.318,0.212-0.332,0.473-0.301
			c0.324,0.034,0.658,0.017,0.982,0.017c0.354,0,0.71,0.003,1.063,0C13.511,3.585,13.307,3.878,13.355,4.271
			C13.386,4.505,13.334,4.098,13.355,4.271z M21.813,15.692c-0.011,0.078-0.151,0.245-0.229,0.245c-0.191,0-0.389,0-0.579,0
			c-0.387,0-0.771,0-1.155,0c-0.839,0-1.676,0-2.513,0c-1.604,0-3.216,0-4.824,0c-3.233,0-6.461-0.097-9.692-0.124
			c-0.289-0.003-0.81-0.09-1.071-0.212c-0.221-0.103-0.059-0.634-0.032-0.804c0.113-0.715,0.294-1.431,0.548-2.109
			c0.471-1.255,1.2-2.401,2.109-3.388C6.138,7.392,8.611,6.266,11.2,6.092c2.793-0.188,5.592,0.917,7.61,2.837
			c0.896,0.854,1.619,1.876,2.138,3c0.267,0.581,0.479,1.232,0.646,1.85"/>
		<path fill="#FCB033" d="M19.54,11.671c-0.858-1.9-2.479-3.274-4.304-4.222c-0.865-0.452-1.781-0.618-2.495,0.211
			c-0.466,0.541-0.583,1.356-0.14,1.946c0.248,0.33,0.615,0.49,0.975,0.675c0.428,0.216,0.843,0.46,1.23,0.739
			c0.729,0.533,1.351,1.206,1.77,2.014c0.188,0.354,0.33,0.688,0.708,0.882c0.386,0.198,0.856,0.199,1.259,0.047
			C19.436,13.625,19.943,12.559,19.54,11.671C19.198,10.917,19.641,11.89,19.54,11.671z M18.01,12.844
			c-0.214,0.028-0.275-0.228-0.35-0.374c-0.148-0.294-0.318-0.576-0.512-0.844c-0.381-0.535-0.852-1.007-1.364-1.412
			c-0.474-0.368-0.983-0.682-1.513-0.961C14.08,9.15,13.73,9.06,13.591,8.883c-0.172-0.216,0.142-0.537,0.339-0.589
			c0.416-0.11,1.107,0.438,1.446,0.646c0.537,0.327,1.049,0.7,1.508,1.131C17.216,10.38,19.311,12.677,18.01,12.844
			C17.839,12.866,18.23,12.816,18.01,12.844z"/>
		<rect x="-0.063" y="17.938" fill="#FCB033" width="24" height="2"/>
	</g>
</g>
<g id="maid" display="none">
	<g display="inline">
		<g>
			<path fill="#FCB033" d="M8.76,22.233c0.415,0,0.753,0.312,0.812,0.704h4.646c0.058-0.396,0.396-0.704,0.81-0.704
				c0.414,0,0.757,0.312,0.813,0.704h4.937c-0.168-2.871-2.125-4.354-4.045-5.436c-0.19-0.105-0.262-0.319-0.35-0.612
				c-0.018-0.055-0.042-0.133-0.063-0.188c-0.258-0.082-0.834-0.119-1.27-0.146c-0.525-0.032-1.031-0.063-1.418-0.162l-1.707,3.146
				l-1.812-3.26c-0.295,0.1-0.697,0.188-1.232,0.306c-0.449,0.096-1.002,0.216-1.225,0.309c-0.03,0.052-0.071,0.145-0.1,0.2
				c-0.107,0.236-0.202,0.438-0.393,0.541c-2.391,1.287-4.243,2.507-4.401,5.31H7.95C8.008,22.541,8.349,22.233,8.76,22.233z
				 M15.027,19.823c0.455,0,0.822,0.364,0.822,0.819c0,0.453-0.367,0.824-0.822,0.824c-0.452,0-0.82-0.371-0.82-0.824
				C14.206,20.191,14.574,19.823,15.027,19.823z M8.76,19.823c0.454,0,0.823,0.364,0.823,0.819c0,0.453-0.369,0.824-0.823,0.824
				c-0.453,0-0.822-0.371-0.822-0.824S8.307,19.823,8.76,19.823z"/>
			<path fill="#FCB033" d="M9.824,5.816c-0.825,0.106-1.46,0.462-1.937,1.081c-1.41,1.828-0.854,5.278-0.85,5.313l0.216,1.288
				c0.839,0.867,1.926,1.492,3.148,1.76c0.021,0.004,0.041,0.01,0.063,0.017c0.41,0.085,0.836,0.13,1.271,0.13
				c2.208,0,4.143-1.146,5.253-2.878l-0.063-0.695l-0.304-3.544C12.868,7.856,10.412,6.24,9.824,5.816z M8.673,9.664
				c0-0.454,0.369-0.823,0.823-0.823c0.456,0,0.823,0.369,0.823,0.823s-0.367,0.819-0.823,0.819
				C9.042,10.487,8.673,10.118,8.673,9.664z M13.838,12.511c-1.316,0.829-2.895,0.834-4.174-0.063
				c-0.456-0.319,0.119-0.969,0.568-0.649c0.951,0.668,2.163,0.603,3.125-0.003C13.829,11.499,14.311,12.215,13.838,12.511z
				 M13.836,10.487c-0.453,0-0.821-0.365-0.821-0.819s0.368-0.823,0.821-0.823c0.455,0,0.823,0.369,0.823,0.823
				S14.291,10.487,13.836,10.487z"/>
			<path fill="#FCB033" d="M5.604,10.311c0.235,0.617,0.571,1.273,1.043,1.965c0,0-1.083-6.465,3.288-6.872
				c0,0,2.686,2.113,7.058,2.521l0.332,3.87c0,0,0.19-0.32,0.399-0.877c0.27-0.729,0.563-1.859,0.479-3.216
				c-0.039-0.667-0.173-1.392-0.438-2.145c-0.191-0.541-0.457-1.099-0.813-1.665c0,0.07-0.002,0.146-0.002,0.214v0.198h-0.142
				h-0.563H15.65H7.817H7.225H6.659h-0.1c-0.148,0.162-0.468,0.541-0.767,1.11c-0.361,0.688-0.688,1.658-0.63,2.859
				C5.193,8.897,5.326,9.576,5.604,10.311z"/>
			<path fill="#FCB033" d="M6.803,3.458C6.804,3.517,6.804,3.574,6.806,3.63c0,0.094,0,0.188,0.002,0.282h0.266h0.619h0.68H15.1
				h0.68H16.4h0.156c0-0.151,0.006-0.305,0.006-0.454c0.002-0.034,0.002-0.067,0.002-0.104c0-0.094,0-0.188,0.002-0.284
				c0-0.091,0-0.182,0-0.271c-0.002-0.998-0.067-1.934-0.504-2.376c-0.194-0.198-0.459-0.293-0.809-0.293H8.109
				c-0.349,0-0.61,0.095-0.806,0.293c-0.464,0.47-0.511,1.494-0.505,2.563c0,0.104,0.002,0.199,0.002,0.302
				C6.803,3.344,6.803,3.401,6.803,3.458z"/>
		</g>
	</g>
</g>
<g id="welcome_hamper-02" display="none">
	<g display="inline">
		<polygon fill="#FCB033" points="11.906,19.781 11.906,20.053 11.907,19.781 		"/>
		<path fill="#FCB033" d="M9.198,19.781v0.271V19.781z"/>
		<path fill="#FCB033" d="M14.615,19.781v0.271V19.781z"/>
		<path fill="#FCB033" d="M23.213,8.657L22.83,8.274c-0.212-0.211-0.452-0.746-0.538-0.656l-3.754,3.319H5.201L1.446,7.615
			C1.361,7.528,1.12,7.847,0.908,8.058L0.525,8.549C0.314,8.76,0.212,8.624,0.297,8.709l2.604,2.229H1.615
			c-0.3,0-0.678,1.105-0.678,1.405v0.541c0,0.3,0.377,1.054,0.678,1.054h1.43l1.598,7.479c0.043,0.529,0.421,0.521,1.096,0.521
			h12.063c0.677,0,1.054-0.002,1.099-0.535l1.615-7.465h1.144c0.299,0,0.278-0.754,0.278-1.054v-0.541
			c0-0.3,0.021-1.405-0.278-1.405h-0.82l2.604-2.174C23.525,8.678,23.426,8.869,23.213,8.657z M7.938,19.781v-4.875
			c0-0.303,0.701-0.542,1-0.542s1,0.239,1,0.542v4.875c0,0.299-0.701,0.542-1,0.542C8.638,20.323,7.938,20.08,7.938,19.781z
			 M10.938,19.781v-4.875c0-0.303,0.702-0.542,1-0.542c0.299,0,1,0.239,1,0.542v4.875c0,0.299-0.701,0.542-1,0.542
			S10.938,20.08,10.938,19.781z M13.938,19.781v-4.875c0-0.303,0.701-0.542,1-0.542s1,0.239,1,0.542v4.875
			c0,0.299-0.701,0.542-1,0.542S13.938,20.08,13.938,19.781z"/>
	</g>
</g>
<g id="pet_friendly" display="none">
	<g display="inline">
		<path fill="#FCB033" d="M-54.116-88.861c-1.216,0.831-3.753-0.922-6.297-0.938c-2.543-0.021-5.152,1.737-6.325,0.938
			c-1.173-0.799,1.126-7.194,6.325-7.214C-55.214-96.094-52.899-89.691-54.116-88.861z"/>
	</g>
	
		<ellipse transform="matrix(0.9904 -0.1385 0.1385 0.9904 12.6863 -10.3626)" display="inline" fill="#FCB033" cx="-68.098" cy="-96.315" rx="2.203" ry="3.039"/>
	
		<ellipse transform="matrix(0.9985 -0.0554 0.0554 0.9985 5.4367 -3.6748)" display="inline" fill="#FCB033" cx="-63.553" cy="-99.882" rx="2.203" ry="3.037"/>
	
		<ellipse transform="matrix(0.975 0.2222 -0.2222 0.975 -23.7169 10.3406)" display="inline" fill="#FCB033" cx="-57.817" cy="-100.239" rx="2.202" ry="3.037"/>
	
		<ellipse transform="matrix(0.8002 0.5997 -0.5997 0.8002 -69.1804 11.8638)" display="inline" fill="#FCB033" cx="-52.396" cy="-97.896" rx="2.203" ry="3.037"/>
	<g display="inline">
		<path fill="#FCB033" d="M-13.116-92.861c-1.216,0.831-3.753-0.922-6.297-0.938c-2.543-0.021-5.152,1.737-6.325,0.938
			c-1.173-0.799,1.126-7.194,6.325-7.214C-14.214-100.094-11.899-93.691-13.116-92.861z"/>
	</g>
	
		<ellipse transform="matrix(0.9904 -0.1383 0.1383 0.9904 13.6148 -4.7126)" display="inline" fill="#FCB033" cx="-27.104" cy="-100.326" rx="2.203" ry="3.037"/>
	
		<ellipse transform="matrix(0.9985 -0.0556 0.0556 0.9985 5.7437 -1.4155)" display="inline" fill="#FCB033" cx="-22.554" cy="-103.877" rx="2.203" ry="3.037"/>
	
		<ellipse transform="matrix(0.975 0.2223 -0.2223 0.975 -23.5943 1.1289)" display="inline" fill="#FCB033" cx="-16.812" cy="-104.244" rx="2.203" ry="3.037"/>
	
		<ellipse transform="matrix(0.8003 0.5996 -0.5996 0.8003 -63.3829 -13.5177)" display="inline" fill="#FCB033" cx="-11.4" cy="-101.904" rx="2.203" ry="3.037"/>
	<g display="inline">
		<g>
			<path fill="none" stroke="#FCB033" stroke-miterlimit="10" d="M17.615,20.65c-1.364,0.938-4.215-1.029-7.066-1.056
				c-2.854-0.021-5.781,1.955-7.099,1.059c-1.317-0.896,1.264-8.069,7.099-8.095C16.384,12.536,18.98,19.72,17.615,20.65z"/>
		</g>
		
			<ellipse transform="matrix(0.9904 -0.1385 0.1385 0.9904 -1.5895 0.3779)" fill="none" stroke="#FCB033" stroke-miterlimit="10" cx="1.921" cy="11.613" rx="2.472" ry="3.408"/>
		
			<ellipse transform="matrix(0.9984 -0.0557 0.0557 0.9984 -0.4132 0.4029)" fill="none" stroke="#FCB033" stroke-miterlimit="10" cx="7.022" cy="7.614" rx="2.472" ry="3.409"/>
		
			<ellipse transform="matrix(0.975 0.2221 -0.2221 0.975 1.9371 -2.8099)" fill="none" stroke="#FCB033" stroke-miterlimit="10" cx="13.461" cy="7.207" rx="2.471" ry="3.408"/>
		
			<ellipse transform="matrix(0.8005 0.5993 -0.5993 0.8005 9.791 -9.7482)" fill="none" stroke="#FCB033" stroke-miterlimit="10" cx="19.539" cy="9.834" rx="2.473" ry="3.408"/>
	</g>
</g>
<g id="welcome_hamper-01" display="none">
	<g display="inline">
		<polygon fill="#FCB033" points="11.543,19.271 11.543,19.6 11.544,19.271 		"/>
		<path fill="#FCB033" d="M8.26,19.271V19.6V19.271z"/>
		<polygon fill="#FCB033" points="14.825,19.6 14.826,19.271 14.825,19.271 		"/>
		<path fill="#FCB033" d="M23.361,9.938h-2.635h-0.846c-0.313-5-4.113-8.126-8.75-8.126c-4.638,0-8.438,3.126-8.752,8.126H2.03
			h-2.963c-0.362,0-0.129-0.046-0.129,0.316v0.657c0,0.36-0.233,0.023,0.129,0.023H0.8l1.938,9.71
			c0.053,0.649,0.512,1.29,1.328,1.29h14.625c0.814,0,1.273-0.647,1.328-1.3l1.959-9.7h1.383c0.363,0,0.576,0.337,0.576-0.023
			v-0.657C23.938,9.891,23.727,9.938,23.361,9.938z M7.938,19.271v-5.91c0-0.358,0.639-0.652,1-0.652c0.362,0,1,0.294,1,0.652v5.91
			c0,0.363-0.638,0.657-1,0.657S7.938,19.635,7.938,19.271z M10.938,19.271v-5.91c0-0.358,0.64-0.652,1-0.652
			c0.361,0,1,0.294,1,0.652v5.91c0,0.363-0.639,0.657-1,0.657S10.938,19.635,10.938,19.271z M15.938,19.271
			c0,0.363-0.637,0.657-1,0.657c-0.359,0-1-0.294-1-0.657v-5.91c0-0.358,0.641-0.652,1-0.652c0.363,0,1,0.294,1,0.652V19.271z
			 M11.133,2.468c4.264,0,7.764,3.469,8.092,7.469H3.04C3.368,5.938,6.869,2.468,11.133,2.468z"/>
	</g>
</g>
<g id="wlecome-provisions" display="none">
	<g display="inline">
		<path fill="#FCB033" d="M17.072,1.501c-0.006,0.003-0.012,0.015-0.018,0.019C17.386,1.517,17.064,1.506,17.072,1.501z"/>
		<path fill="#FCB033" d="M19.463,1.391c0.236-0.146,0.475-0.412,0.475-0.71V0.195c0-0.464-0.621-1.258-1.084-1.258h-1.931
			c-0.464,0-0.985,0.794-0.985,1.258V0.68c0,0.298,0.229,0.563,0.463,0.71c-0.271,0.419-0.52,1.033-0.791,1.729
			c-1.041-0.35-2.188-0.537-3.396-0.537c-2.758,0-4.944,1.212-5.985,2.25L6.3,4.901L1.361,9.625c-0.453,0.563-0.922,1.2-0.922,1.881
			c0,0.886,0.499,1.885,1.499,2.645v4.571c0,1.398,1.168,2.216,2.325,2.216h6.384c0.104,0,0.197,0.279,0.291,0.438
			c0.184,0.299,0.41,0.688,0.853,0.798c0.388,0.096,0.8,0.333,1.227,0.333c2.032,0,4.235-1.564,5.522-2.564h1.517
			c0.996,0,1.883-1.168,1.883-2.164v-8.67C21.938,8.687,20.658,3.22,19.463,1.391z M7.053,5.013l0.071-0.004
			C8.17,4.161,9.99,3.305,12.23,3.305c1.124,0,2.2,0.175,3.161,0.491c-0.548,1.521-1.022,3.27-1.281,4.338
			c-0.894-0.839-2.747-0.853-5.086-0.813C8.507,7.33,7.974,7.339,7.43,7.339c-1.178,0-2.276,0.176-3.231,0.489L7.053,5.013z
			 M4.263,19.938c-1.097,0-1.325-0.846-1.325-1.216V13.69l-0.14-0.094c-1.246-0.566-1.46-1.216-1.46-2.085
			c0-1.931,2.679-3.438,6.075-3.438c0.548,0,1.094,0.001,1.612-0.011c2.112-0.039,3.953-0.047,4.62,0.608
			c0.189,0.186,0.293,0.071,0.293,0.793v1.783c0-0.047-0.426-0.078-0.648-0.078c-1.367,0-2.843,0.865-3.472,1.701
			c-1.485,1.974-1.857,4.721-0.881,6.78c0.097,0.2,0.233,0.28,0.386,0.28L4.263,19.938L4.263,19.938z M18.029,19.065
			c-1.147,1.523-3.161,2.546-5.014,2.546c-0.369,0-0.723-0.041-1.055-0.118c-0.144-0.035-0.249-0.194-0.408-0.452
			c-0.132-0.22-0.326-0.462-0.562-0.643c-0.004-0.002-0.055-0.004-0.055-0.006l-0.417-0.122l0.5,0.5
			c-0.191,0-0.539-0.858-0.723-0.938c-0.373-0.154-0.606-0.169-0.714-0.396c-0.855-1.804-0.512-4.433,0.802-6.176
			c0.512-0.679,1.761-1.39,2.889-1.39c0.209,0,0.401,0.038,0.576,0.09c0.332,0.099,0.567,0.472,0.842,0.896
			c0.153,0.242,0.313,0.494,0.512,0.723c0.134,0.152,0.27,0.279,0.408,0.385c0.397,0.286,0.877,0.413,1.347,0.535
			c0.498,0.13,0.969,0.255,1.188,0.553C18.945,16.158,18.743,18.118,18.029,19.065z M20.938,17.773c0,0.602-0.285,1.164-0.883,1.164
			h-1.088c0.557-1,0.6-3.116-0.24-4.271c-0.369-0.506-0.986-0.688-1.588-0.849c-0.334-0.088-0.675-0.188-0.949-0.342
			c0.012-0.027,0.021-0.063,0.021-0.098c0.014-0.426,1.357-0.834,2.561-0.866c0.199-0.005,0.355-0.163,0.354-0.362
			c-0.006-0.195-0.169-0.322-0.37-0.333c-0.188,0.009-0.646,0.032-1.152,0.12c0.004-0.412-0.336-0.934-0.771-1.352
			c-0.604-0.58-1.447-0.658-1.48-0.66L14.9,9.89l0.058,0.441c0.004,0.036,0.114,0.877,0.717,1.457
			c0.228,0.218,0.459,0.392,0.683,0.515c-0.328,0.154-0.599,0.356-0.746,0.622c-0.104-0.146-0.06-0.296-0.153-0.449
			c-0.194-0.306-0.515-0.604-0.515-0.845V9.106c0-0.842,1.431-7.168,2.117-7.168c-0.063,0-0.139,0-0.25,0l0,0l0.271-0.436
			l0.862-0.564h-1.133l0,0h0.117c-0.063,0,0.016-0.188,0.016-0.257V0.195c0-0.063-0.078-0.258-0.016-0.258h1.93
			c0.065,0,0.086,0.192,0.086,0.258V0.68c0,0.065-0.021,0.257-0.086,0.257h-0.914v0.584c0,0,0.156-0.015,0.147-0.02
			c0.679,0.441,2.853,6.756,2.853,7.604v8.668H20.938z M17.008,12.07v-0.275c0,0,0,0,0.001,0L17.008,12.07z M16.809,11.729
			c-0.164-0.076-0.396-0.227-0.639-0.459c-0.146-0.141-0.25-0.309-0.326-0.468c0.162,0.069,0.333,0.167,0.479,0.308
			C16.582,11.359,16.73,11.578,16.809,11.729z"/>
	</g>
	<path display="inline" fill="#FCB033" d="M5.305,6.281c-0.013,0.006-0.193-0.15,0.269-0.237c0.227-0.05,0.497-0.088,0.783-0.13
		C6.641,5.87,6.951,5.854,7.251,5.826L7.7,5.824C7.846,5.828,7.992,5.81,8.123,5.835c0.132,0.015,0.26,0.029,0.38,0.043
		c0.117,0.019,0.238,0.016,0.326,0.05C9.19,6.034,9.43,6.105,9.43,6.105S9.165,6.07,8.768,6.017C8.676,5.997,8.55,6.015,8.433,6.013
		C8.315,6.015,8.189,6.018,8.06,6.02C7.935,6.015,7.793,6.047,7.657,6.061L7.245,6.115C6.968,6.177,6.695,6.22,6.444,6.293
		C6.193,6.36,5.964,6.424,5.771,6.492C5.386,6.615,4.623,6.808,4.608,6.811L5.305,6.281z"/>
	<path display="inline" fill="#FCB033" d="M6.31,5.307C6.296,5.314,6.112,5.135,6.573,5.046C6.8,4.995,7.071,4.958,7.357,4.916
		S7.954,4.86,8.253,4.837l0.451,0.007C8.85,4.852,8.996,4.839,9.128,4.867C9.261,4.886,9.39,4.905,9.511,4.923
		c0.118,0.021,0.24,0.021,0.329,0.063C10.204,5.113,10.445,5.2,10.445,5.2S10.18,5.084,9.779,5.017
		c-0.092-0.021-0.218-0.08-0.336-0.08c-0.118,0-0.243,0-0.374,0c-0.125,0-0.268,0.093-0.403,0.105L8.253,5.127
		c-0.277,0.063-0.549,0.127-0.799,0.2C7.205,5.4,6.974,5.472,6.783,5.545C6.398,5.676,5.636,5.881,5.622,5.884L6.31,5.307z"/>
	<rect x="31.938" y="-20.013" display="inline" fill="#FCB033" width="7.666" height="6.899"/>
</g>
<g id="toiletries" display="none">
	<path display="inline" fill="#FCB033" d="M21.924,14.179l-0.775-1.053c0.35-0.229,0.979-0.733,1.104-1.498
		c0.079-0.479-0.047-0.958-0.375-1.438l0.046-0.03l-0.818-1.111c0.332-0.249,0.68-0.604,0.729-1.036
		c0.022-0.222-0.033-0.539-0.354-0.847l0.037-0.074L13.21,2.812c-0.292-0.285-0.81-0.667-1.549-0.764
		C10.65,1.917,9.573,2.345,8.445,3.322L2.033,6.935l0.061,0.108l-0.038-0.05L0.374,8.273l1.591,0.937l-0.974,1.128
		c-0.078,0.091-0.112,0.212-0.093,0.33c0.021,0.119,0.092,0.222,0.195,0.278l0.597,0.348l-1.316,1.005l1.591,0.933L0.991,14.36
		c-0.078,0.095-0.112,0.212-0.093,0.329c0.021,0.118,0.092,0.225,0.195,0.282l0.597,0.343l-1.316,1.005l5.691,3.338
		c0.159,0.117,2.971,2.205,5.7,2.204c0.97,0,1.93-0.262,2.756-0.971l6.396-3.604c0.047-0.023,1.161-0.595,1.335-1.638
		c0.079-0.478-0.047-0.959-0.375-1.435L21.924,14.179z M2.542,7.632L2.509,7.589l6.366-3.587l0.067-0.047
		c0.952-0.833,1.822-1.206,2.602-1.111c0.336,0.042,0.604,0.168,0.81,0.306L12.303,3.25l0.423,0.217
		c0.062,0.066,0.094,0.114,0.1,0.121l0.058-0.04l8.015,4.128l-0.018,0.02c0.075,0.063,0.161,0.146,0.152,0.228
		c-0.024,0.217-0.483,0.583-0.904,0.788l-6.104,3.504c-2.659,2.331-7.426-1.207-7.517-1.271L1.814,8.187L2.542,7.632z M2.446,11.727
		l7.527,4.351c0.063,0.032,0.133,0.054,0.202,0.054c0.138,0,0.274-0.072,0.347-0.201c0.112-0.192,0.045-0.438-0.146-0.55
		l-8.458-4.883L2.671,9.62l3.395,1.985c0.16,0.121,2.994,2.229,5.71,2.229c0.96,0,1.906-0.267,2.712-0.97l4.847-2.776l0.726,1.021
		l-7.949,3.815c-0.198,0.096-0.283,0.337-0.188,0.535c0.069,0.146,0.213,0.229,0.363,0.229c0.058,0,0.116-0.014,0.174-0.039
		l8.377-4.021c0.105-0.052,0.186-0.147,0.215-0.262c0.029-0.115,0.008-0.237-0.061-0.335L20.036,9.68l0.382-0.219l0.549,0.747
		l-0.063,0.063c0.43,0.438,0.617,0.849,0.558,1.219c-0.104,0.639-0.896,1.048-0.919,1.06l-6.447,3.634l-0.068,0.046
		c-2.657,2.331-7.424-1.207-7.512-1.269l-4.697-2.755L2.446,11.727z M20.541,16.572l-6.448,3.638l-0.067,0.047
		c-2.657,2.329-7.424-1.208-7.515-1.271L1.814,16.23l0.632-0.479l7.527,4.347c0.063,0.037,0.133,0.053,0.202,0.053
		c0.138,0,0.274-0.066,0.347-0.195c0.112-0.192,0.045-0.439-0.146-0.554l-8.458-4.884l0.754-0.872l3.395,1.988
		c0.159,0.121,2.971,2.207,5.7,2.207c0.97,0,1.93-0.263,2.756-0.971l4.834-2.729l0.703,0.992l-7.951,3.813
		c-0.198,0.1-0.283,0.34-0.188,0.537c0.069,0.146,0.213,0.229,0.363,0.229c0.058,0,0.116-0.013,0.174-0.04l8.377-4.021
		c0.104-0.053,0.188-0.146,0.215-0.262c0.029-0.116,0.01-0.238-0.061-0.334l-0.934-1.313l0.385-0.219l0.521,0.707L20.9,14.294
		c0.431,0.437,0.617,0.845,0.559,1.214C21.355,16.151,20.564,16.561,20.541,16.572z"/>
</g>
<g id="phone" display="none">
	<g display="inline">
		<path fill="#FCB033" d="M8.849,1.028C8.855,1.036,8.892,1.099,8.91,1.189C8.935,1.279,8.973,1.388,9.014,1.5l0.604,1.706
			c0.156,0.391,0.32,0.799,0.49,1.197c0.065,0.161,0.072,0.286,0.077,0.368l0.152,0.451l-0.109,0.165
			c-0.063,0.357-0.233,0.66-0.533,0.942C8.643,7.336,8.643,7.336,9.59,8.52c1.185,1.491,2.601,2.851,4.328,4.151
			c0.256,0.188,0.367,0.218,0.409,0.218c0.03,0,0.103-0.061,0.185-0.194c0.518-0.818,1.193-1.243,2.01-1.266l0.033-0.039
			l0.539,0.063c0.09,0.019,0.186,0.039,0.28,0.069l0.092,0.016l3.214,1.271c0.057,0.02,0.1,0.036,0.122,0.047l0.601,0.396
			l0.068,0.106c0.2,0.317,0.202,0.688,0.176,0.977c-0.229,2.864-2.836,5.214-5.808,5.227h-0.065c-1.017,0-1.971-0.251-2.833-0.749
			C8.579,16.275,5.16,12.845,2.775,8.615C1.838,6.947,1.768,5.004,2.577,3.28C3.385,1.563,4.979,0.338,6.848,0
			C7.39-0.1,7.816-0.064,8.155,0.128 M7.396,0.852c-0.118,0-0.246,0.019-0.388,0.041c-1.601,0.29-2.916,1.3-3.61,2.774
			c-0.685,1.456-0.622,3.095,0.167,4.5c2.304,4.086,5.61,7.399,9.826,9.854c0.729,0.416,1.527,0.628,2.383,0.628v0.455l0.062-0.455
			c2.519-0.01,4.716-1.979,4.911-4.396c0.033-0.394-0.044-0.438-0.128-0.488l-0.354-0.146l-3.119-1.224
			c-0.117-0.029-0.17-0.044-0.224-0.055l-0.067-0.015l-0.146,0.015l-0.12-0.005c-0.358,0-0.829,0.097-1.298,0.838
			c-0.256,0.412-0.575,0.621-0.954,0.621c-0.364,0-0.687-0.199-0.952-0.396c-1.792-1.354-3.262-2.762-4.494-4.313
			C7.54,7.409,7.555,7.122,9.07,5.672c0.216-0.203,0.26-0.359,0.274-0.5l0.002-0.025l-0.027-0.08
			C9.287,4.94,9.283,4.883,9.279,4.823C9.1,4.352,8.934,3.938,8.769,3.523L8.158,1.8C8.112,1.67,8.066,1.539,8.03,1.407
			c0,0.002,0,0.004,0,0.004c-0.005,0-0.028-0.047-0.047-0.108L7.915,1.16C7.796,0.93,7.666,0.852,7.396,0.852z"/>
	</g>
</g>
<g id="car-park" display="none">
	<g display="inline">
		<path fill="#FCB033" d="M13.511,13.618c1.017,0.146,1.058,0.186,1.229,1.188c0.15,0.874,0.308,1.747,0.461,2.623
			c0.211,1.197-0.122,1.741-1.291,2.114c-0.323,1.68-0.691,2.063-1.909,2.016c-1.066-0.046-1.466-0.526-1.63-2.048
			c-0.773,0-1.561,0-2.346,0c-0.772,0-1.545,0-2.136,0c-0.315,0.648-0.48,1.274-0.874,1.679C4.744,21.47,4.157,21.54,3.71,21.54
			c-1.026-0.001-1.405-0.522-1.542-1.943c-0.296-0.148-0.627-0.258-0.881-0.46c-0.465-0.375-0.601-0.896-0.493-1.479
			c0.171-0.949,0.345-1.896,0.512-2.848c0.177-1.008,0.211-1.043,1.206-1.188c0.089-0.661,0.145-1.338,0.277-1.999
			c0.293-1.454,1.489-2.535,2.969-2.602c1.471-0.063,2.949-0.071,4.42-0.009c1.755,0.08,3,1.353,3.181,3.107
			C13.409,12.606,13.458,13.095,13.511,13.618z M12.173,13.64c0.135-2.167-0.704-3.563-2.381-3.301
			c-0.129,1.021-0.245,1.125-1.281,1.128c-0.265,0.002-0.529,0-0.793,0c-1.228,0-1.239-0.01-1.49-1.166
			c-1.776-0.134-2.448,1.23-2.357,3.339C6.637,13.64,9.406,13.64,12.173,13.64z M3.49,15.699c-0.673,0.002-1.235,0.556-1.24,1.219
			c-0.006,0.671,0.604,1.265,1.279,1.245c0.659-0.021,1.216-0.603,1.204-1.262C4.723,16.235,4.164,15.695,3.49,15.699z
			 M12.532,15.696c-0.674,0.014-1.222,0.566-1.218,1.236c0.004,0.662,0.569,1.229,1.229,1.229c0.684,0.002,1.273-0.602,1.252-1.274
			C13.773,16.221,13.208,15.687,12.532,15.696z"/>
	</g>
	<g display="inline">
		<g>
			<path fill="#FCB033" d="M20.223,6.907c0,0.536-0.17,0.948-0.507,1.235c-0.338,0.286-0.815,0.431-1.438,0.431h-0.453v1.779H16.76
				v-5.01h1.604c0.604,0,1.067,0.129,1.388,0.394C20.063,5.999,20.223,6.388,20.223,6.907z M17.82,7.704h0.352
				c0.327,0,0.57-0.067,0.732-0.194c0.162-0.13,0.244-0.317,0.244-0.565c0-0.25-0.065-0.434-0.203-0.551
				c-0.137-0.12-0.354-0.178-0.641-0.178H17.82V7.704z"/>
		</g>
	</g>
	<g display="inline">
		<path fill="#FCB033" d="M18.059,12.494c-2.732,0-4.958-2.229-4.958-4.963c0-2.736,2.226-4.966,4.958-4.966
			c2.736,0,4.965,2.229,4.965,4.966C23.023,10.267,20.795,12.494,18.059,12.494z M18.059,3.396c-2.279,0-4.136,1.855-4.136,4.139
			c0,2.278,1.854,4.137,4.136,4.137c2.282,0,4.137-1.855,4.137-4.137C22.195,5.251,20.339,3.396,18.059,3.396z"/>
	</g>
	<g display="inline">
		<rect x="16.938" y="11.938" fill="#FCB033" width="2" height="9"/>
	</g>
</g>
<g id="nosmoking" display="none">
	<g display="inline">
		<path fill="#FCB033" d="M13.108,8.781l8.916-8.917c0.322-0.32,0.322-0.845,0-1.162c-0.316-0.321-0.84-0.321-1.158,0L11.946,7.62
			L3.029-1.297c-0.32-0.321-0.84-0.321-1.16,0c-0.321,0.317-0.321,0.841,0,1.162l8.916,8.917l-8.916,8.917
			c-0.321,0.315-0.321,0.841,0,1.157c0.159,0.16,0.371,0.24,0.581,0.24s0.421-0.08,0.58-0.24l8.917-8.917l8.918,8.917
			c0.158,0.16,0.369,0.24,0.578,0.24c0.211,0,0.423-0.08,0.58-0.24c0.322-0.316,0.322-0.842,0-1.157L13.108,8.781z"/>
		<path fill="#FCB033" d="M18.988,8.079l0.051-0.146H1.878c-0.633,0-0.941,1.023-0.941,1.653v0.864c0,0.654,0.338,1.479,0.941,1.479
			h12.587h0.695h3.512c0.104,0,0.206,0.055,0.309,0.055c0.104,0,0.205-0.055,0.311-0.055h0.04l-0.054-0.145
			c0.373-0.127,0.66-0.579,0.66-0.952V9.083C19.938,8.615,19.461,8.106,18.988,8.079z M2.938,10.938v-2h12v2H2.938z M15.938,8.938
			h2.033c-0.021,0-1.033,0.079-1.033,0.146v1.758c0,0.046,1.016,0.097,1.021,0.097h-2.021V8.938z M18.938,10.841
			c0,0.162-0.338,0.293-0.5,0.293s-0.5-0.131-0.5-0.293V9.083c0-0.162,0.338-0.294,0.5-0.294s0.5,0.132,0.5,0.294V10.841z"/>
		<g>
			<path fill="#FCB033" d="M1.647,7.54c-0.229-0.008-0.305-0.164-0.21-0.355C1.609,6.833,1.701,6.46,1.626,6.077
				C1.574,5.807,1.474,5.541,1.36,5.29c-0.271-0.6-0.311-1.197-0.1-1.815C1.298,3.367,1.348,3.263,1.4,3.162
				c0.06-0.116,0.156-0.179,0.283-0.118c0.13,0.06,0.148,0.166,0.104,0.304c-0.085,0.257-0.186,0.515-0.224,0.78
				c-0.061,0.41,0.086,0.787,0.271,1.146c0.249,0.495,0.313,1.021,0.18,1.559C1.967,7.023,1.892,7.208,1.809,7.384
				C1.773,7.459,1.684,7.507,1.647,7.54z"/>
		</g>
		<g>
			<path fill="#FCB033" d="M0.501,6.729c-0.22,0-0.292-0.144-0.23-0.331C0.353,6.153,0.447,5.91,0.486,5.654
				c0.063-0.417-0.076-0.8-0.264-1.17C-0.072,3.9-0.101,3.292,0.11,2.674c0.037-0.107,0.086-0.211,0.138-0.313
				C0.31,2.236,0.41,2.173,0.543,2.238C0.678,2.303,0.673,2.42,0.634,2.55C0.552,2.82,0.455,3.091,0.417,3.369
				C0.362,3.76,0.509,4.116,0.682,4.462c0.297,0.593,0.322,1.206,0.108,1.83c-0.037,0.104-0.083,0.215-0.146,0.31
				C0.605,6.664,0.531,6.704,0.501,6.729z"/>
		</g>
	</g>
</g>
<g id="flat-screen-tv" display="none">
	<g display="inline">
		<path fill="#FCB033" d="M23.938,19.938h-25v-14h25V19.938z M-0.063,18.938h23v-12h-23V18.938z"/>
	</g>
	<g display="inline">
		<rect x="0.938" y="7.938" fill="#FCB033" width="21" height="10"/>
	</g>
	<g display="inline">
		<rect x="0.938" y="20.938" fill="#FCB033" width="21" height="1"/>
	</g>
</g>
<g id="cctv">
	<path fill="#5C220F" d="M22.818,6.52L8.216,0.414C7.233,0.003,6.631,0.167,6.378,0.772L4.733,4.704
		C4.732,4.707,4.732,4.709,4.731,4.711L4.143,6.119C3.806,6.925,4.245,7.85,5.142,8.225l4.997,2.146l-5.201,5.082v-3.126
		c0-0.2,0.071-0.212-0.051-0.335c-0.207-0.205,0.426,0.068-0.661-0.057H1.244c-0.165,0-0.685-0.148-0.833-0.004
		c-0.152,0.152-0.474,0.191-0.474,0.396v8.206c0,0.308,0.643,1.402,1.357,1.402h2.931c0.562,0,0.712-0.875,0.712-1.402v-2.598h0.479
		c0.019,0,0.067-0.046,0.103-0.033c0.091,0.033,0.229,0.055,0.382,0.055c0.077,0,0.158-0.029,0.24-0.064
		c0.372-0.056,0.655-0.295,0.76-0.627l5.871-5.845l5.498,2.296c0.26,0.109,0.527,0.16,0.785,0.16c0.512,0,0.979-0.21,1.273-0.57
		l0.759,0.316l0.159,0.029c0.333,0,0.441-0.314,0.563-0.651c0.021-0.063,0.039-0.117,0.06-0.158l0.524-1.262
		c0.021-0.042,0.039-0.08,0.061-0.112c0.063-0.108,0.146-0.271,0.082-0.467l-0.083-0.188l-0.856-0.355l0.168-0.401
		c1.084-0.017,1.326-0.134,1.436-0.389l0.662-1.584C24.038,7.644,24.006,7.019,22.818,6.52z M3.938,20.531
		c0,0.158,0.351-0.598,0.288,0.402H1.37c-0.021-1-0.434-0.33-0.434-0.402v-7.598h3.341c0.049,0-0.341-0.527-0.341-0.525v2.525H3.054
		c-0.532,0-1.116,0.955-1.116,1.491v0.586c0,0.236,0.275,0.923,1.116,0.923h0.884V20.531z M6.192,16.874l-0.021,0.124
		c-0.003,0.021-0.018,0.104-0.172,0.117l-0.097,0.008l-0.031,0.021c-0.026-0.008-0.059-0.063-0.082-0.077
		c-0.1-0.032-0.223-0.129-0.363-0.129H5.205H4.434h-1.38c-0.149,0-0.116,0.074-0.116,0.077v-0.586c0-0.168,0.076-0.491,0.116-0.491
		h2.434l5.554-5.408l0.961,0.482L6.192,16.874z M18.566,13.002L5.439,7.513C4.932,7.302,4.681,6.83,4.854,6.416l0.151-0.362
		c0.17,0.199,0.39,0.37,0.659,0.482l7.004,2.8c0.555,0.229,5.59,0.656,8.259,0.713l-0.338,0.808l-0.516,1.232
		c-0.003,0.004-0.005,0.008-0.007,0.011l-0.238,0.575C19.659,13.076,19.094,13.223,18.566,13.002z M21.664,11.321l-0.512,1.226
		c-0.021,0.052-0.049,0.125-0.073,0.203c-0.004,0.01-0.009,0.02-0.013,0.028l-0.354-0.146c0.019-0.084,0.045-0.179,0.069-0.239
		l0.513-1.225L21.664,11.321z M23.145,7.783L22.54,9.231c-0.123,0.022-0.414,0.057-1.063,0.057c-2.687,0-8.063-0.504-8.518-0.663
		l-7.003-2.8C5.562,5.659,5.33,5.283,5.445,5.002L6.098,3.44l0,0L7.09,1.069C7.119,1,7.147,0.957,7.287,0.957
		c0.149,0,0.362,0.057,0.632,0.17L22.521,7.23C23.247,7.536,23.17,7.721,23.145,7.783z"/>
</g>
<g id="air-con" display="none">
	<g display="inline">
		<path fill="#FCB033" d="M23.581,15.563c-0.104,0.238-0.293,0.309-0.543,0.309c-7.853-0.002-15.705-0.002-23.559,0
			c-0.249,0-0.438-0.066-0.543-0.309c0-2.873,0-5.745,0-8.616C-1.008,6.797-0.967,6.641-0.896,6.5
			c0.329-0.646,0.87-0.922,1.584-0.92c2.479,0.005,4.955,0.002,7.434,0.002c4.543,0,9.091-0.003,13.637,0.008
			c0.312,0,0.642,0.061,0.929,0.177c0.517,0.208,0.748,0.67,0.896,1.179C23.581,9.818,23.581,12.689,23.581,15.563z M22.366,6.514
			c0,0.16,0.006,0.271,0,0.382c-0.031,0.497-0.304,0.869-0.741,0.986c-0.159,0.042-0.332,0.051-0.499,0.051
			C14.55,7.936,7.975,7.936,1.398,7.935c-0.111,0-0.224-0.005-0.335-0.018C0.6,7.865,0.25,7.53,0.179,7.068
			C0.153,6.897,0.149,6.725,0.133,6.52C-0.172,6.729-0.25,7.001-0.25,7.322c0.003,2.494,0.002,4.988,0.002,7.481
			c0,0.079,0,0.155,0,0.233c0.146,0,0.263,0,0.399,0c0-0.104,0-0.189,0-0.277c0-0.568-0.007-1.139,0.001-1.707
			c0.01-0.691,0.43-1.105,1.119-1.105c6.655-0.002,13.313-0.002,19.969,0c0.701,0,1.115,0.416,1.125,1.124
			c0.006,0.569,0.001,1.142,0.001,1.708c0,0.09,0,0.175,0,0.264c0.147,0,0.264,0,0.397,0c0-0.104,0-0.191,0-0.277
			c0-2.463,0-4.925,0-7.386c0-0.088,0.002-0.178-0.011-0.269C22.727,6.872,22.625,6.672,22.366,6.514z M0.711,6.402
			c0,0.204-0.013,0.384,0.003,0.557c0.022,0.251,0.188,0.397,0.44,0.427c0.08,0.008,0.16,0.006,0.241,0.006
			c6.576,0.001,13.153,0.001,19.73,0c0.098,0,0.211,0.026,0.283-0.018c0.142-0.086,0.318-0.191,0.367-0.328
			c0.066-0.191,0.033-0.418,0.045-0.644C14.766,6.402,7.75,6.402,0.711,6.402z M21.805,13.584c-7.037,0-14.056,0-21.088,0
			c0,0.178,0,0.341,0,0.515c7.036,0,14.057,0,21.088,0C21.805,13.927,21.805,13.77,21.805,13.584z M0.724,13.002
			c7.026,0,14.049,0,21.078,0c-0.021-0.38-0.198-0.521-0.639-0.521c-6.601,0-13.198,0-19.797,0c-0.089,0-0.178,0.001-0.264,0.021
			C0.843,12.555,0.723,12.717,0.724,13.002z M0.714,15.035c7.05,0,14.069,0,21.087,0c0-0.141,0-0.252,0-0.373
			c-7.037,0-14.058,0-21.087,0C0.714,14.792,0.714,14.908,0.714,15.035z"/>
		<path fill="#FCB033" d="M13.784,22.937c-0.288-0.012-0.384-0.207-0.265-0.444c0.215-0.444,0.33-0.912,0.235-1.396
			c-0.065-0.339-0.188-0.675-0.336-0.992c-0.342-0.75-0.393-1.508-0.124-2.285c0.047-0.137,0.105-0.268,0.178-0.396
			c0.07-0.146,0.193-0.221,0.354-0.147c0.165,0.075,0.188,0.21,0.13,0.388c-0.104,0.319-0.229,0.646-0.281,0.979
			c-0.073,0.521,0.109,0.991,0.343,1.449c0.313,0.623,0.396,1.281,0.229,1.959c-0.061,0.239-0.152,0.472-0.256,0.693
			C13.943,22.834,13.832,22.895,13.784,22.937z"/>
		<path fill="#FCB033" d="M11.322,22.934c-0.277,0-0.366-0.181-0.289-0.417c0.102-0.307,0.221-0.619,0.269-0.937
			c0.081-0.525-0.097-1.012-0.332-1.479c-0.372-0.731-0.407-1.502-0.141-2.277c0.046-0.139,0.108-0.27,0.172-0.396
			c0.077-0.156,0.203-0.236,0.373-0.154c0.169,0.082,0.163,0.229,0.112,0.396c-0.101,0.341-0.225,0.682-0.272,1.031
			c-0.068,0.488,0.116,0.938,0.335,1.378c0.374,0.746,0.407,1.519,0.136,2.305c-0.047,0.136-0.104,0.271-0.182,0.39
			C11.453,22.851,11.359,22.902,11.322,22.934z"/>
		<path fill="#FCB033" d="M11.28,10.854c0.387,0,0.771-0.006,1.155,0.002c0.271,0.006,0.434,0.229,0.29,0.402
			c-0.071,0.087-0.232,0.136-0.354,0.138c-0.737,0.018-1.477,0.008-2.214,0.008c-0.009,0-0.017,0-0.024,0
			c-0.188-0.006-0.373-0.025-0.375-0.271c-0.001-0.238,0.177-0.278,0.367-0.278C10.51,10.853,10.896,10.854,11.28,10.854z"/>
		<path fill="#FCB033" d="M20.984,11.194c-0.104,0.065-0.195,0.175-0.303,0.188c-0.156,0.025-0.263-0.092-0.264-0.249
			c-0.001-0.168,0.105-0.287,0.271-0.26c0.104,0.018,0.194,0.134,0.293,0.208C20.984,11.119,20.984,11.156,20.984,11.194z"/>
		<path fill="#FCB033" d="M19.74,11.18c-0.1,0.071-0.188,0.18-0.295,0.203c-0.153,0.033-0.262-0.084-0.271-0.236
			c-0.008-0.17,0.1-0.294,0.264-0.271c0.105,0.013,0.199,0.127,0.299,0.192C19.736,11.105,19.738,11.143,19.74,11.18z"/>
		<path fill="#FCB033" d="M8.863,22.938c-0.274-0.011-0.377-0.181-0.306-0.382c0.081-0.229,0.188-0.461,0.244-0.699
			c0.126-0.543,0.044-1.063-0.212-1.561C8.231,19.61,8.083,18.9,8.275,18.139c0.058-0.229,0.155-0.452,0.244-0.672
			c0.066-0.167,0.189-0.278,0.375-0.196c0.196,0.087,0.195,0.255,0.109,0.426c-0.271,0.536-0.35,1.104-0.195,1.684
			c0.069,0.26,0.191,0.506,0.302,0.753c0.394,0.864,0.383,1.721-0.032,2.57C9.024,22.807,8.911,22.885,8.863,22.938z"/>
		<path fill="#FCB033" d="M13.784,22.937c-0.288-0.012-0.384-0.207-0.265-0.444c0.215-0.444,0.33-0.912,0.235-1.396
			c-0.065-0.339-0.188-0.675-0.336-0.992c-0.342-0.75-0.393-1.508-0.124-2.285c0.047-0.137,0.105-0.268,0.178-0.396
			c0.07-0.146,0.193-0.221,0.354-0.147c0.165,0.075,0.188,0.21,0.13,0.388c-0.104,0.319-0.229,0.646-0.281,0.979
			c-0.073,0.521,0.109,0.991,0.343,1.449c0.313,0.623,0.396,1.281,0.229,1.959c-0.061,0.239-0.152,0.472-0.256,0.693
			C13.943,22.834,13.832,22.895,13.784,22.937z"/>
		<path fill="#FCB033" d="M11.322,22.934c-0.277,0-0.366-0.181-0.289-0.417c0.102-0.307,0.221-0.619,0.269-0.937
			c0.081-0.525-0.097-1.012-0.332-1.479c-0.372-0.731-0.407-1.502-0.141-2.277c0.046-0.139,0.108-0.27,0.172-0.396
			c0.077-0.156,0.203-0.236,0.373-0.154c0.169,0.082,0.163,0.229,0.112,0.396c-0.101,0.341-0.225,0.682-0.272,1.031
			c-0.068,0.488,0.116,0.938,0.335,1.378c0.374,0.746,0.407,1.519,0.136,2.305c-0.047,0.136-0.104,0.271-0.182,0.39
			C11.453,22.851,11.359,22.902,11.322,22.934z"/>
	</g>
</g>
<g id="wi-fi" display="none">
	<g display="inline">
		<g>
			<g>
				<path fill="#FCB033" d="M3.75,22.103c-2.294,0-4.161-1.866-4.161-4.162s1.867-4.164,4.161-4.164
					c2.296,0,4.163,1.868,4.163,4.164S6.045,22.103,3.75,22.103z M3.75,15.136c-1.544,0-2.801,1.258-2.801,2.805
					c0,1.545,1.257,2.807,2.801,2.807c1.545,0,2.803-1.262,2.803-2.807C6.553,16.394,5.295,15.136,3.75,15.136z"/>
			</g>
		</g>
		<g>
			<g>
				<path fill="#FCB033" d="M16.76,22.938c-0.005,0-0.015,0-0.025,0h-3.217c-0.375,0-0.68-0.105-0.68-0.482
					c0-7.865-5.658-13.699-13.406-13.699c-0.375,0-0.495-0.207-0.495-0.583v-3.22c0-0.375,0.119-0.684,0.495-0.684
					c9.783,0,17.964,8.308,18.074,18.182c0.02,0.063-0.02-0.066-0.02,0C17.486,22.828,17.136,22.938,16.76,22.938z M14.186,21.938
					h1.854c-0.354-9-7.103-15.924-16.103-16.29v1.855C6.938,7.831,13.866,12.938,14.186,21.938z"/>
			</g>
		</g>
		<g>
			<g>
				<path fill="#FCB033" d="M23.064,22.938c-0.006,0-0.021,0-0.026,0h-3.213c-0.376,0-0.683-0.105-0.683-0.482
					c0-10.521-9.296-20.009-19.71-20.009c-0.375,0-0.495-0.203-0.495-0.579v-3.22c0-0.375,0.119-0.68,0.495-0.68
					c13.886,0,24.281,10.512,24.376,24.484c0.021,0.063-0.021-0.067-0.021-0.001C23.791,22.828,23.439,22.938,23.064,22.938z
					 M20.492,21.938h1.855c-0.326-13-10.414-22.269-22.414-22.601v1.856C10.938,1.593,20.102,10.938,20.492,21.938z"/>
			</g>
		</g>
	</g>
</g>
<g id="video-phone" display="none">
	<g display="inline">
		<path fill="#FCB033" d="M19.938-0.209v20.729c0,0.494-0.726,1.414-1.33,1.414H4.675c-0.604,0-1.738-0.92-1.738-1.414V-0.209
			c0-0.519,1.189-0.854,1.738-0.854h13.933C19.156-1.063,19.938-0.724,19.938-0.209z M3.938,20.523c0,0.131,0.725,0.414,0.738,0.414
			h14.262c0,0,0-0.283,0-0.414V-0.209c0-0.14,0,0.146,0,0.146H4.675c-0.18,0-0.738-0.283-0.738-0.146L3.938,20.523L3.938,20.523z"/>
	</g>
	<g display="inline">
		<path fill="#FCB033" d="M15.759,0.938H7.014c-0.471,0-0.076,0.674-0.076,1.227v10.422c0,0.55-0.395,0.354,0.076,0.354h8.745
			c0.491,0,0.179,0.153,0.179-0.354V2.161C15.938,1.654,16.25,0.938,15.759,0.938z M15.759,12.938h-0.61
			c-0.141-2-1.746-3.452-3.708-3.452c-1.965,0-3.57,1.452-3.711,3.452H7.014c-0.152,0-0.076-0.235-0.076-0.354V2.161
			c0-0.114-0.076-0.227,0.076-0.227h8.745c0.152,0,0.179,0.059,0.179,0.227v10.422C15.938,12.752,15.911,12.938,15.759,12.938z"/>
		<circle fill="#FCB033" cx="11.154" cy="6.496" r="1.984"/>
	</g>
	<g display="inline">
		<path fill="#FCB033" d="M5.938,12.938v-12h11v12H5.938z M6.938,0.938v12h9v-12H6.938z"/>
	</g>
	<rect x="5.938" y="11.938" display="inline" fill="#FCB033" width="11" height="1"/>
	<path display="inline" fill="#E7A723" d="M6.613,20.009v0.006l0.105-0.044c0.023-0.013,0.04-0.013,0.061-0.027
		c0.018-0.003,0.029-0.014,0.042-0.019l1.605-0.688l0.069-0.047c0.038-0.018,0.07-0.04,0.104-0.062l0.106-0.07l-0.003-0.023
		C8.98,18.79,9.109,18.46,8.998,17.96c-0.083-0.357,0.11-0.455,0.431-0.503c1.073-0.148,2.146-0.188,3.22-0.063
		c0.996,0.112,1.013,0.118,0.987,1.104c-0.006,0.196,0.05,0.333,0.138,0.439l0.011,0.037l0.125,0.063
		c0.05,0.029,0.071,0.07,0.146,0.104c0.215,0.087,0.43,0.179,0.645,0.271l0.771,0.37c0.09,0.044,0.182,0.084,0.268,0.133
		c0.021,0.014,0.039,0.013,0.06,0.021L15.925,20l-0.008-0.02c0.313,0.104,0.508-0.039,0.709-0.328
		c1.108-1.593,0.343-3.825-1.554-4.359c-2.479-0.695-4.973-0.678-7.461-0.024c-0.483,0.13-0.902,0.379-1.254,0.738
		c-1.027,1.032-1.116,2.722-0.209,3.79C6.289,19.971,6.423,20.056,6.613,20.009z"/>
</g>
</svg>
