<?xml version="1.0" encoding="utf-8"?>
<!-- Generator: Adobe Illustrator 16.0.0, SVG Export Plug-In . SVG Version: 6.00 Build 0)  -->
<!DOCTYPE svg PUBLIC "-//W3C//DTD SVG 1.1//EN" "http://www.w3.org/Graphics/SVG/1.1/DTD/svg11.dtd">
<svg version="1.1" id="Layer_1" xmlns="http://www.w3.org/2000/svg" xmlns:xlink="http://www.w3.org/1999/xlink" x="0px" y="0px"
	 width="23.875px" height="22.125px" viewBox="0 0 23.875 22.125" enable-background="new 0 0 23.875 22.125" xml:space="preserve">
<g id="Layer_2" display="none">
	<g display="inline">
		<path fill="#FCB033" d="M81.734-111.603c1.6,0.23,1.66,0.294,1.936,1.875c0.239,1.376,0.482,2.752,0.725,4.129
			c0.334,1.887-0.188,2.743-2.031,3.331c-0.51,2.644-1.09,3.253-3.008,3.172c-1.678-0.07-2.309-0.835-2.563-3.224
			c-1.217,0-2.455,0-3.688,0c-1.22,0-2.436,0-3.363,0c-0.498,1.02-0.758,2.006-1.375,2.645c-0.428,0.44-1.354,0.546-2.055,0.546
			c-1.615-0.001-2.213-0.823-2.431-3.061c-0.467-0.236-0.985-0.406-1.392-0.726c-0.729-0.588-0.94-1.412-0.772-2.332
			c0.271-1.492,0.543-2.982,0.81-4.477c0.276-1.584,0.334-1.642,1.896-1.875c0.144-1.043,0.229-2.108,0.438-3.148
			c0.461-2.288,2.348-3.991,4.675-4.091c2.315-0.101,4.646-0.119,6.961-0.014c2.765,0.125,4.724,2.123,5.008,4.893
			C81.574-113.194,81.65-112.427,81.734-111.603z M79.627-111.567c0.213-3.413-1.111-5.618-3.75-5.199
			c-0.202,1.612-0.385,1.771-2.018,1.774c-0.416,0.003-0.832,0.001-1.248,0.001c-1.938-0.001-1.951-0.014-2.348-1.834
			c-2.8-0.211-3.854,1.937-3.716,5.258C70.909-111.567,75.27-111.567,79.627-111.567z M65.955-108.327
			c-1.061,0.005-1.943,0.876-1.953,1.921c-0.01,1.057,0.953,1.991,2.016,1.96c1.039-0.029,1.914-0.943,1.896-1.981
			C67.896-107.481,67.018-108.332,65.955-108.327z M80.191-108.329c-1.063,0.016-1.924,0.892-1.916,1.944
			c0.007,1.043,0.896,1.932,1.937,1.937c1.075,0.005,2.006-0.941,1.97-2.005C82.146-107.506,81.258-108.345,80.191-108.329z"/>
	</g>
	<g display="inline">
		<path fill="#FCB033" d="M86.5-98.375c-0.275,0-0.5-0.224-0.5-0.5v-14c0-0.276,0.225-0.5,0.5-0.5s0.5,0.224,0.5,0.5v14
			C87-98.599,86.775-98.375,86.5-98.375z"/>
	</g>
	<g display="inline">
		<path fill="#FCB033" d="M88.5-98.375c-0.275,0-0.5-0.224-0.5-0.5v-14c0-0.276,0.225-0.5,0.5-0.5s0.5,0.224,0.5,0.5v14
			C89-98.599,88.775-98.375,88.5-98.375z"/>
	</g>
	<g display="inline">
		<g>
			<path fill="#FCB033" d="M90.541-119.822c0,0.705-0.221,1.244-0.662,1.619c-0.439,0.373-1.066,0.559-1.88,0.559h-0.597v2.33
				h-1.389v-6.551h2.094c0.795,0,1.396,0.17,1.813,0.514C90.334-121.01,90.541-120.5,90.541-119.822z M87.402-118.781h0.457
				c0.429,0,0.748-0.086,0.959-0.254c0.213-0.17,0.318-0.414,0.318-0.738c0-0.326-0.091-0.566-0.27-0.721
				c-0.182-0.156-0.456-0.232-0.836-0.232H87.4v1.945H87.402z"/>
		</g>
	</g>
	<g display="inline">
		<path fill="#FCB033" d="M87.584-113.115c-3.309,0-6-2.691-6-6c0-3.309,2.691-6,6-6s6,2.691,6,6
			C93.584-115.806,90.893-113.115,87.584-113.115z M87.584-124.115c-2.757,0-5,2.243-5,5c0,2.757,2.243,5,5,5s5-2.243,5-5
			C92.584-121.872,90.341-124.115,87.584-124.115z"/>
	</g>
	<g display="inline">
		<path fill="#FCB033" d="M21-1.022v20.733c0,0.494-0.727,1.414-1.33,1.414H5.738C5.134,21.125,4,20.205,4,19.711V-1.022
			c0-0.515,1.189-0.853,1.738-0.853H19.67C20.219-1.875,21-1.537,21-1.022z M5,19.711c0,0.131,0.724,0.414,0.738,0.414H20
			c0,0,0-0.283,0-0.414V-1.022c0-0.136,0,0.147,0,0.147H5.738C5.558-0.875,5-1.158,5-1.022V19.711z"/>
	</g>
	<g display="inline">
		<path fill="#FCB033" d="M16.82,0.125H8.076C7.605,0.125,8,0.799,8,1.348V11.77c0,0.551-0.395,0.354,0.076,0.354h8.744
			c0.492,0,0.18,0.153,0.18-0.354V1.348C17,0.841,17.313,0.125,16.82,0.125z M16.82,12.125h-0.609c-0.141-2-1.746-3.452-3.711-3.452
			s-3.571,1.452-3.711,3.452H8.076C7.924,12.125,8,11.886,8,11.771V1.348c0-0.114-0.076-0.223,0.076-0.223h8.744
			c0.154,0,0.18,0.055,0.18,0.223V11.77C17,11.939,16.975,12.125,16.82,12.125z"/>
		<circle fill="#FCB033" cx="12.216" cy="5.683" r="1.984"/>
	</g>
	<g display="inline">
		<path fill="#FCB033" d="M7,12.125v-12h11v12H7z M8,0.125v12h9v-12H8z"/>
	</g>
	<rect x="7" y="11.125" display="inline" fill="#FCB033" width="11" height="1"/>
	<path display="inline" fill="#E7A723" d="M7.676,19.195v0.007l0.105-0.044c0.023-0.014,0.04-0.014,0.061-0.027
		c0.017-0.003,0.029-0.014,0.042-0.02l1.605-0.688l0.069-0.047c0.038-0.021,0.071-0.04,0.104-0.063l0.106-0.067l-0.002-0.022
		c0.279-0.244,0.408-0.574,0.296-1.074c-0.083-0.356,0.111-0.455,0.431-0.502c1.073-0.148,2.146-0.188,3.22-0.063
		c0.995,0.11,1.012,0.118,0.987,1.103c-0.007,0.199,0.049,0.334,0.137,0.442l0.009,0.037l0.125,0.062
		c0.049,0.031,0.073,0.072,0.146,0.104c0.213,0.087,0.429,0.179,0.644,0.271l0.772,0.369c0.088,0.045,0.18,0.084,0.267,0.133
		c0.021,0.017,0.038,0.016,0.06,0.022l0.13,0.063l-0.009-0.02c0.313,0.104,0.509-0.039,0.709-0.328
		c1.107-1.593,0.345-3.826-1.555-4.359c-2.477-0.695-4.973-0.682-7.461-0.024c-0.484,0.13-0.903,0.379-1.254,0.737
		c-1.028,1.033-1.116,2.723-0.209,3.791C7.351,19.158,7.485,19.243,7.676,19.195z"/>
</g>
<g id="gym" display="none">
	<g display="inline">
		<path fill="#FCB033" d="M3.073,3.53l0.592,0.412c-4.084,8.996,1.83,13.951,1.891,14c0.104,0.084,0.228,0.125,0.351,0.125
			c0.163,0,0.323-0.068,0.435-0.207c0.193-0.235,0.158-0.59-0.082-0.782c-0.219-0.185-5.212-4.427-1.659-12.48l1.546,1.078
			c0.097,0.067,0.208,0.101,0.32,0.101c0.175,0,0.349-0.083,0.458-0.24c0.177-0.252,0.114-0.601-0.139-0.777L3.901,2.744
			l-0.61-3.312C3.235-0.871,2.949-1.065,2.64-1.017C2.336-0.96,2.136-0.669,2.192-0.365l0.651,3.538
			C2.871,3.317,2.953,3.446,3.073,3.53z"/>
		<path fill="#FCB033" d="M22.579,16.01c0-2.927-2.381-5.352-5.31-5.352c-1.438,0-2.742,0.561-3.699,1.492l0.635-0.123L4.2,21.125
			H1.902c-0.31,0-0.559,0.189-0.559,0.5s0.25,0.5,0.559,0.5H3.02h7.544H22.02c0.313,0,0.563-0.189,0.563-0.5s-0.25-0.5-0.563-0.5
			h-3.134C21.021,21.125,22.579,18.37,22.579,16.01z M11.837,21.125l1.587-1.393c0.608,0.646,1.385,1.393,2.246,1.393H11.837z
			 M17.27,20.113c-1.24,0-2.343-0.551-3.105-1.407l2.388-2.388c0.22-0.219,0.22-0.571,0-0.791c-0.22-0.217-0.569-0.217-0.791,0
			l-1.87,1.871l-0.216-3.586c0.729-1.236,2.063-2.076,3.603-2.076c2.312,0,4.188,1.879,4.188,4.188
			C21.461,18.234,19.581,20.113,17.27,20.113z"/>
		<path fill="#FCB033" d="M23.133,6.098l-0.744-0.744c-0.104-0.089-0.229-0.229-0.369-0.229h-5.588
			c-0.299,0-0.545,0.325-0.559,0.624c-0.014,0.298,0.21,0.601,0.507,0.628l0.945,0.108l1.549,0.623
			c-0.001,0.006-0.004,0.014-0.005,0.02l-0.561,2.331c-0.072,0.3,0.11,0.603,0.414,0.676c0.045,0.01,0.088,0.016,0.131,0.016
			c0.252,0,0.479-0.172,0.543-0.43l0.521-2.188l0.869,0.344c0.063,0.025,0.135,0.039,0.204,0.039c0.083,0,0.163-0.019,0.235-0.054
			L23,7.024c0.172-0.08,0.29-0.242,0.313-0.427C23.346,6.409,23.273,6.222,23.133,6.098z"/>
	</g>
</g>
<g id="Layer_18" display="none">
</g>
<g id="concierge" display="none">
	<g display="inline">
		<path fill="#FCB033" d="M24.591,14.607c-0.147-2.652-1.307-5.253-3.11-7.193c-0.914-0.981-1.981-1.819-3.172-2.444
			c-0.582-0.306-1.188-0.56-1.813-0.761c-0.25-0.08-0.467-0.132-0.452-0.439c0.019-0.436,0.015-0.873,0.009-1.309
			c-0.004-0.391-0.014-0.545,0.264-0.821c0.185-0.182,0.313-0.418,0.33-0.677c0.056-0.648-0.535-1.1-1.069-1.324
			c-1.354-0.564-3.002-0.553-4.419-0.276c-0.596,0.114-1.245,0.324-1.679,0.77C9.034,0.584,9.072,1.282,9.545,1.696
			c0.179,0.156,0.408,0.227,0.403,0.5C9.94,2.583,9.937,2.968,9.941,3.354c0.003,0.263,0.098,0.585-0.219,0.674
			C9.375,4.124,9.031,4.235,8.692,4.36C6.285,5.254,4.253,6.932,2.864,9.086c-0.688,1.066-1.198,2.243-1.497,3.477
			c-0.146,0.604-0.242,1.217-0.292,1.834c-0.046,0.572-0.132,1.088-0.04,1.658c0.064,0.398,1.146,0.069,1.412,0.069
			c0.841,0,1.682,0,2.523,0c1.617,0,3.234,0,4.851,0c3.222,0,6.447,0.166,9.667,0.125c1.205-0.015,2.412,0.026,3.619,0.017
			c0.367-0.005,1.209,0.168,1.52-0.082c0.109-0.092,0.016-0.629,0.016-0.771C24.643,15.133,24.605,14.883,24.591,14.607
			C24.547,13.824,24.596,14.691,24.591,14.607z M15.271,0.886c-0.926,0.605-3.823,0.605-4.733,0
			C11.428,0.275,14.373,0.275,15.271,0.886z M14.419,3.459c0.04,0.319-0.247,0.234-0.459,0.21c-0.38-0.045-0.765-0.064-1.147-0.063
			c-0.354,0-0.711,0.016-1.067,0.05c-0.249,0.023-0.179-0.429-0.179-0.593c0.004-0.318,0.212-0.332,0.473-0.301
			c0.324,0.038,0.656,0.017,0.98,0.017c0.354,0,0.709,0.003,1.063,0C14.573,2.773,14.369,3.065,14.419,3.459
			C14.448,3.692,14.396,3.286,14.419,3.459z M22.876,14.88c-0.011,0.078-0.155,0.245-0.231,0.245c-0.19,0-0.387,0-0.58,0
			c-0.387,0-0.771,0-1.154,0c-0.84,0-1.676,0-2.514,0c-1.604,0-3.215,0-4.82,0c-3.233,0-6.461-0.098-9.692-0.124
			c-0.289-0.003-0.81-0.09-1.072-0.212c-0.22-0.104-0.058-0.635-0.032-0.805c0.113-0.715,0.294-1.43,0.548-2.108
			c0.471-1.255,1.2-2.405,2.109-3.388c1.767-1.908,4.24-3.034,6.829-3.208c2.792-0.188,5.589,0.917,7.612,2.837
			c0.896,0.853,1.618,1.876,2.138,3c0.268,0.581,0.479,1.232,0.646,1.85"/>
		<path fill="#FCB033" d="M20.604,10.858c-0.856-1.9-2.479-3.274-4.303-4.222c-0.867-0.452-1.783-0.618-2.496,0.211
			c-0.466,0.541-0.584,1.36-0.14,1.95c0.248,0.33,0.614,0.49,0.974,0.671c0.428,0.216,0.844,0.46,1.232,0.743
			c0.729,0.533,1.35,1.206,1.768,2.01c0.188,0.356,0.33,0.688,0.709,0.883c0.385,0.197,0.856,0.198,1.258,0.047
			C20.498,12.813,21.006,11.746,20.604,10.858C20.261,10.104,20.702,11.077,20.604,10.858z M19.072,12.031
			c-0.215,0.027-0.276-0.229-0.35-0.374c-0.148-0.294-0.318-0.576-0.514-0.844c-0.382-0.535-0.854-1.007-1.363-1.412
			c-0.475-0.368-0.982-0.682-1.515-0.961c-0.188-0.102-0.54-0.193-0.683-0.37c-0.172-0.216,0.144-0.537,0.341-0.589
			c0.417-0.11,1.104,0.44,1.444,0.646c0.537,0.327,1.049,0.7,1.508,1.131C18.277,9.568,20.373,11.864,19.072,12.031
			C18.9,12.055,19.294,12.004,19.072,12.031z"/>
		<rect x="1" y="17.125" fill="#FCB033" width="24" height="2"/>
	</g>
</g>
<g id="maid" display="none">
	<g display="inline">
		<g>
			<path fill="#FCB033" d="M9.823,21.421c0.415,0,0.753,0.308,0.812,0.704h4.646c0.057-0.396,0.396-0.704,0.81-0.704
				s0.753,0.308,0.813,0.704h4.937c-0.168-2.871-2.126-4.357-4.046-5.436c-0.193-0.105-0.261-0.319-0.35-0.612
				c-0.021-0.056-0.041-0.134-0.063-0.191c-0.258-0.081-0.834-0.118-1.267-0.146c-0.528-0.032-1.034-0.064-1.418-0.162l-1.708,3.143
				l-1.813-3.257c-0.294,0.097-0.697,0.185-1.232,0.302c-0.449,0.096-1.002,0.217-1.225,0.313c-0.03,0.052-0.071,0.143-0.099,0.197
				c-0.108,0.235-0.202,0.438-0.393,0.541c-2.39,1.287-4.243,2.51-4.401,5.313H9.01C9.07,21.729,9.411,21.421,9.823,21.421z
				 M16.091,19.011c0.454,0,0.822,0.368,0.822,0.823c0,0.453-0.368,0.824-0.822,0.824s-0.821-0.371-0.821-0.824
				C15.27,19.379,15.637,19.011,16.091,19.011z M9.823,19.011c0.454,0,0.823,0.368,0.823,0.823c0,0.453-0.369,0.824-0.823,0.824
				c-0.453,0-0.822-0.371-0.822-0.824C9.001,19.379,9.37,19.011,9.823,19.011z"/>
			<path fill="#FCB033" d="M10.886,5.004C10.062,5.11,9.426,5.466,8.95,6.085c-1.41,1.828-0.855,5.278-0.85,5.313l0.216,1.288
				c0.839,0.867,1.926,1.492,3.149,1.76c0.021,0.008,0.041,0.014,0.063,0.021c0.41,0.085,0.836,0.132,1.271,0.132
				c2.208,0,4.143-1.148,5.252-2.88l-0.061-0.699l-0.305-3.544C13.932,7.044,11.475,5.427,10.886,5.004z M9.736,8.851
				c0-0.454,0.369-0.823,0.823-0.823c0.456,0,0.824,0.369,0.824,0.823s-0.368,0.823-0.824,0.823
				C10.104,9.674,9.736,9.306,9.736,8.851z M14.9,11.698c-1.316,0.829-2.896,0.834-4.174-0.063
				c-0.456-0.319,0.119-0.965,0.569-0.649c0.951,0.668,2.163,0.603,3.125-0.003C14.893,10.687,15.372,11.402,14.9,11.698z
				 M14.898,9.674c-0.453,0-0.821-0.369-0.821-0.823s0.368-0.823,0.821-0.823c0.455,0,0.822,0.369,0.822,0.823
				S15.354,9.674,14.898,9.674z"/>
			<path fill="#FCB033" d="M6.666,9.498c0.235,0.617,0.571,1.273,1.043,1.965c0,0-1.083-6.465,3.288-6.872
				c0,0,2.685,2.113,7.058,2.519l0.331,3.87c0,0,0.192-0.32,0.4-0.877c0.269-0.726,0.563-1.859,0.481-3.216
				c-0.039-0.667-0.172-1.388-0.439-2.141c-0.193-0.541-0.458-1.099-0.813-1.665c0,0.07-0.002,0.143-0.002,0.214v0.198h-0.142
				h-0.563h-0.595H8.88H8.288H7.721H7.623c-0.149,0.162-0.469,0.541-0.767,1.11C6.494,5.294,6.168,6.262,6.225,7.466
				C6.255,8.084,6.388,8.763,6.666,9.498z"/>
			<path fill="#FCB033" d="M7.865,2.645c0.001,0.059,0.001,0.116,0.003,0.172c0,0.094,0,0.188,0.002,0.282h0.265h0.62h0.679h6.728
				h0.68h0.62h0.156c0-0.151,0.006-0.301,0.006-0.454c0.002-0.034,0.002-0.067,0.002-0.103c0-0.094,0-0.189,0.003-0.284
				c0-0.091,0-0.182,0-0.273c-0.003-0.998-0.068-1.934-0.505-2.376c-0.194-0.198-0.458-0.293-0.806-0.293H9.171
				c-0.349,0-0.611,0.095-0.806,0.293C7.902,0.08,7.854,1.105,7.861,2.174c0,0.1,0.002,0.199,0.002,0.298
				C7.865,2.532,7.865,2.588,7.865,2.645z"/>
		</g>
	</g>
</g>
<g id="welcome_hamper-02" display="none">
	<g display="inline">
		<path fill="#FCB033" d="M12.969,18.969v0.271V18.969z"/>
		<polygon fill="#FCB033" points="10.26,18.969 10.26,19.24 10.261,18.969 		"/>
		<polygon fill="#FCB033" points="15.677,18.969 15.677,19.24 15.678,18.969 		"/>
		<path fill="#FCB033" d="M24.275,7.845l-0.383-0.383c-0.213-0.211-0.453-0.746-0.539-0.66L19.6,10.125H6.263L2.509,6.802
			C2.423,6.716,2.183,7.034,1.97,7.246L1.587,7.737C1.376,7.948,1.274,7.812,1.36,7.896l2.605,2.229H2.677
			C2.377,10.125,2,11.23,2,11.53v0.541c0,0.304,0.377,1.058,0.677,1.058h1.43L5.705,20.6c0.043,0.533,0.421,0.525,1.096,0.525
			h12.064c0.675,0,1.053-0.002,1.097-0.535l1.616-7.465h1.141c0.299,0,0.281-0.754,0.281-1.055V11.53c0-0.3,0.018-1.405-0.281-1.405
			h-0.82l2.605-2.174C24.589,7.865,24.488,8.057,24.275,7.845z M9,18.969v-4.875c0-0.299,0.701-0.542,1-0.542s1,0.243,1,0.542v4.875
			c0,0.299-0.701,0.542-1,0.542S9,19.268,9,18.969z M12,18.969v-4.875c0-0.299,0.702-0.542,1-0.542c0.299,0,1,0.243,1,0.542v4.875
			c0,0.299-0.701,0.542-1,0.542C12.702,19.511,12,19.268,12,18.969z M15,18.969v-4.875c0-0.299,0.701-0.542,1-0.542s1,0.243,1,0.542
			v4.875c0,0.299-0.701,0.542-1,0.542S15,19.268,15,18.969z"/>
	</g>
</g>
<g id="pet_friendly" display="none">
	<g display="inline">
		<path fill="#FCB033" d="M-53.053-89.673c-1.216,0.831-3.753-0.922-6.297-0.941c-2.543-0.019-5.152,1.741-6.325,0.942
			c-1.173-0.799,1.126-7.194,6.325-7.214C-54.151-96.906-51.836-90.504-53.053-89.673z"/>
	</g>
	
		<ellipse transform="matrix(0.9904 -0.1383 0.1383 0.9904 12.7899 -10.2056)" display="inline" fill="#FCB033" cx="-67.043" cy="-97.137" rx="2.203" ry="3.037"/>
	
		<ellipse transform="matrix(0.9985 -0.0555 0.0555 0.9985 5.4942 -3.6248)" display="inline" fill="#FCB033" cx="-62.493" cy="-100.697" rx="2.203" ry="3.037"/>
	
		<ellipse transform="matrix(0.975 0.2222 -0.2222 0.975 -23.8733 10.0848)" display="inline" fill="#FCB033" cx="-56.756" cy="-101.057" rx="2.203" ry="3.037"/>
	
		<ellipse transform="matrix(0.8003 0.5997 -0.5997 0.8003 -69.455 11.0666)" display="inline" fill="#FCB033" cx="-51.339" cy="-98.722" rx="2.203" ry="3.037"/>
	<g display="inline">
		<path fill="#FCB033" d="M-12.053-93.673c-1.216,0.831-3.753-0.922-6.297-0.941c-2.543-0.019-5.152,1.741-6.325,0.942
			c-1.173-0.799,1.126-7.194,6.325-7.214C-13.151-100.906-10.836-94.504-12.053-93.673z"/>
	</g>
	
		<ellipse transform="matrix(0.9904 -0.1384 0.1384 0.9904 13.747 -4.5773)" display="inline" fill="#FCB033" cx="-26.038" cy="-101.131" rx="2.203" ry="3.037"/>
	
		<ellipse transform="matrix(0.9985 -0.0555 0.0555 0.9985 5.779 -1.3546)" display="inline" fill="#FCB033" cx="-21.49" cy="-104.687" rx="2.203" ry="3.037"/>
	
		<ellipse transform="matrix(0.975 0.2221 -0.2221 0.975 -23.7261 0.8759)" display="inline" fill="#FCB033" cx="-15.758" cy="-105.059" rx="2.203" ry="3.037"/>
	
		<ellipse transform="matrix(0.8002 0.5997 -0.5997 0.8002 -63.6649 -14.3232)" display="inline" fill="#FCB033" cx="-10.336" cy="-102.712" rx="2.203" ry="3.037"/>
	<g display="inline">
		<g>
			<path fill="none" stroke="#FCB033" stroke-miterlimit="10" d="M18.678,19.838c-1.363,0.936-4.213-1.033-7.066-1.056
				c-2.854-0.021-5.781,1.954-7.099,1.059c-1.317-0.896,1.264-8.073,7.099-8.095C17.445,11.725,20.043,18.907,18.678,19.838z"/>
		</g>
		
			<ellipse transform="matrix(0.9904 -0.1384 0.1384 0.9904 -1.466 0.5169)" fill="none" stroke="#FCB033" stroke-miterlimit="10" cx="2.985" cy="10.802" rx="2.472" ry="3.408"/>
		
			<ellipse transform="matrix(0.9985 -0.0556 0.0556 0.9985 -0.3656 0.46)" fill="none" stroke="#FCB033" stroke-miterlimit="10" cx="8.084" cy="6.801" rx="2.472" ry="3.408"/>
		
			<ellipse transform="matrix(0.975 0.2222 -0.2222 0.975 1.7841 -3.0681)" fill="none" stroke="#FCB033" stroke-miterlimit="10" cx="14.526" cy="6.394" rx="2.47" ry="3.408"/>
		
			<ellipse transform="matrix(0.8004 0.5995 -0.5995 0.8004 9.5188 -10.5484)" fill="none" stroke="#FCB033" stroke-miterlimit="10" cx="20.599" cy="9.019" rx="2.472" ry="3.408"/>
	</g>
</g>
<g id="welcome_hamper-01" display="none">
	<g display="inline">
		<path fill="#FCB033" d="M12.605,18.459v0.328V18.459z"/>
		<polygon fill="#FCB033" points="9.322,18.459 9.322,18.787 9.323,18.459 		"/>
		<polygon fill="#FCB033" points="15.889,18.787 15.889,18.459 15.889,18.459 		"/>
		<path fill="#FCB033" d="M24.424,9.125H21.79h-0.845c-0.314-5-4.114-8.126-8.75-8.126c-4.638,0-8.437,3.126-8.752,8.126H3.092
			H0.129C-0.234,9.125,0,9.079,0,9.441v0.657c0,0.364-0.234,0.027,0.129,0.027h1.733l1.938,9.71c0.052,0.649,0.511,1.29,1.328,1.29
			h14.626c0.816,0,1.275-0.65,1.327-1.3l1.96-9.7h1.382c0.364,0,0.576,0.337,0.576-0.027V9.441C25,9.079,24.788,9.125,24.424,9.125z
			 M9,18.459v-5.91c0-0.361,0.638-0.656,1-0.656s1,0.295,1,0.656v5.91c0,0.363-0.638,0.657-1,0.657S9,18.822,9,18.459z M12,18.459
			v-5.91c0-0.361,0.639-0.656,1-0.656s1,0.295,1,0.656v5.91c0,0.363-0.639,0.657-1,0.657S12,18.822,12,18.459z M17,18.459
			c0,0.363-0.637,0.657-1,0.657s-1-0.294-1-0.657v-5.91c0-0.361,0.637-0.656,1-0.656s1,0.295,1,0.656V18.459z M12.196,1.656
			c4.263,0,7.764,3.469,8.092,7.469H4.102C4.431,5.125,7.931,1.656,12.196,1.656z"/>
	</g>
</g>
<g id="wlecome-provisions" display="none">
	<g display="inline">
		<path fill="#FCB033" d="M18.135,0.689c-0.006,0.003-0.012,0.015-0.018,0.019C18.448,0.705,18.128,0.693,18.135,0.689z"/>
		<path fill="#FCB033" d="M20.525,0.578C20.762,0.429,21,0.167,21-0.132v-0.485c0-0.464-0.621-1.258-1.085-1.258h-1.931
			C17.521-1.875,17-1.081,17-0.617v0.485c0,0.298,0.229,0.561,0.463,0.71c-0.273,0.419-0.52,1.033-0.792,1.729
			c-1.04-0.346-2.187-0.537-3.396-0.537c-2.758,0-4.944,1.212-5.985,2.25l0.073,0.068l-4.94,4.725
			c-0.454,0.563-0.922,1.2-0.922,1.881C1.501,11.579,2,12.578,3,13.338v4.571c0,1.397,1.168,2.216,2.325,2.216h6.384
			c0.104,0,0.197,0.279,0.291,0.434c0.183,0.299,0.41,0.69,0.852,0.799c0.391,0.099,0.801,0.332,1.229,0.332
			c2.03,0,4.233-1.563,5.521-2.563h1.519c0.996,0,1.883-1.168,1.883-2.164v-8.67C23,7.875,21.721,2.408,20.525,0.578z M8.116,4.2
			l0.071-0.004c1.046-0.848,2.866-1.704,5.106-1.704c1.123,0,2.2,0.175,3.16,0.491c-0.547,1.525-1.025,3.27-1.28,4.338
			c-0.894-0.839-2.747-0.853-5.089-0.813c-0.515,0.01-1.048,0.019-1.592,0.019c-1.178,0-2.276,0.176-3.232,0.489L8.116,4.2z
			 M5.325,19.125C4.228,19.125,4,18.279,4,17.909v-5.031l-0.14-0.094c-1.246-0.566-1.46-1.216-1.46-2.085
			c0-1.931,2.679-3.438,6.075-3.438c0.548,0,1.094,0.001,1.613-0.007c2.112-0.039,3.953-0.047,4.62,0.608
			C14.896,8.047,15,7.932,15,8.654v1.783c0-0.047-0.426-0.078-0.652-0.078c-1.367,0-2.842,0.865-3.471,1.702
			c-1.486,1.977-1.858,4.724-0.881,6.782c0.096,0.201,0.233,0.281,0.386,0.281L5.325,19.125L5.325,19.125z M19.092,18.253
			c-1.148,1.522-3.162,2.546-5.014,2.546c-0.369,0-0.723-0.041-1.055-0.122c-0.146-0.034-0.25-0.194-0.408-0.452
			c-0.133-0.216-0.326-0.461-0.562-0.639C12.051,19.584,12,19.582,12,19.58l-0.417-0.122l0.5,0.5c-0.192,0-0.539-0.862-0.723-0.938
			c-0.373-0.15-0.606-0.168-0.714-0.395c-0.855-1.805-0.511-4.434,0.802-6.176c0.512-0.68,1.761-1.39,2.888-1.39
			c0.209,0,0.402,0.038,0.576,0.09c0.332,0.099,0.568,0.472,0.842,0.899c0.154,0.242,0.314,0.494,0.51,0.72
			c0.133,0.155,0.271,0.282,0.41,0.385c0.398,0.285,0.878,0.412,1.344,0.535c0.498,0.129,0.969,0.254,1.188,0.556
			C20.009,15.346,19.807,17.307,19.092,18.253z M22,16.961c0,0.598-0.285,1.164-0.883,1.164h-1.088c0.557-1,0.599-3.116-0.241-4.271
			c-0.369-0.506-0.988-0.688-1.588-0.845c-0.334-0.088-0.675-0.192-0.948-0.342c0.008-0.031,0.02-0.067,0.021-0.099
			c0.013-0.426,1.355-0.834,2.56-0.865c0.199-0.005,0.356-0.163,0.353-0.362c-0.006-0.199-0.17-0.326-0.371-0.333
			c-0.188,0.005-0.644,0.032-1.15,0.12c0.003-0.412-0.337-0.934-0.771-1.352c-0.604-0.58-1.447-0.658-1.48-0.66L15.96,9.079
			l0.056,0.441c0.004,0.036,0.115,0.877,0.717,1.457c0.229,0.218,0.459,0.392,0.686,0.515c-0.327,0.154-0.602,0.355-0.745,0.622
			c-0.104-0.146-0.063-0.296-0.153-0.449C16.316,11.359,16,11.058,16,10.82V8.293c0-0.842,1.428-7.168,2.117-7.168
			c-0.063,0-0.139,0-0.25,0l0,0l0.268-0.436L19,0.125h-1.133l0,0h0.117C17.92,0.125,18-0.066,18-0.132v-0.485
			c0-0.065-0.08-0.258-0.016-0.258h1.931C19.98-0.875,20-0.683,20-0.617v0.485c0,0.065-0.02,0.257-0.085,0.257H19v0.584
			c0,0,0.156-0.015,0.148-0.02C19.826,1.134,22,7.445,22,8.293V16.961z M18.07,11.258v-0.279l0,0V11.258z M17.871,10.916
			c-0.165-0.076-0.396-0.227-0.639-0.459c-0.146-0.141-0.25-0.309-0.326-0.468c0.162,0.069,0.333,0.167,0.479,0.308
			C17.645,10.547,17.794,10.766,17.871,10.916z"/>
	</g>
	<path display="inline" fill="#FCB033" d="M6.367,5.468c-0.013,0.006-0.193-0.15,0.268-0.237c0.227-0.05,0.498-0.088,0.784-0.13
		c0.285-0.043,0.595-0.059,0.895-0.087l0.449-0.002C8.908,5.015,9.054,5,9.185,5.022c0.132,0.015,0.26,0.029,0.38,0.043
		c0.117,0.019,0.238,0.016,0.326,0.05c0.361,0.106,0.601,0.177,0.601,0.177S10.228,5.257,9.83,5.205
		c-0.092-0.02-0.218-0.002-0.334-0.004C9.377,5.203,9.252,5.205,9.123,5.208C8.998,5.203,8.855,5.235,8.72,5.249L8.308,5.301
		c-0.277,0.062-0.549,0.108-0.8,0.178S7.026,5.61,6.834,5.678C6.448,5.802,5.686,5.996,5.67,5.999L6.367,5.468z"/>
	<path display="inline" fill="#FCB033" d="M7.372,4.495C7.359,4.501,7.174,4.322,7.635,4.234c0.227-0.051,0.498-0.088,0.784-0.13
		s0.596-0.053,0.896-0.079l0.451,0.007c0.146,0.007,0.292-0.006,0.425,0.022c0.132,0.019,0.261,0.038,0.382,0.056
		c0.118,0.023,0.24,0.023,0.329,0.063c0.364,0.127,0.606,0.212,0.606,0.212s-0.266-0.113-0.667-0.181
		c-0.092-0.024-0.218-0.08-0.336-0.08c-0.119,0-0.244,0-0.374,0c-0.125,0-0.268,0.093-0.404,0.105L9.316,4.314
		c-0.277,0.063-0.549,0.127-0.799,0.2c-0.25,0.073-0.48,0.145-0.671,0.218C7.46,4.864,6.699,5.068,6.684,5.071L7.372,4.495z"/>
	<rect x="33.001" y="-20.825" display="inline" fill="#FCB033" width="7.666" height="6.899"/>
</g>
<g id="toiletries">
	<path fill="#5C220F" d="M23.451,13.563l-0.844-1.146c0.377-0.246,1.063-0.798,1.201-1.63c0.088-0.521-0.054-1.043-0.406-1.562
		l0.049-0.037l-0.891-1.209c0.356-0.271,0.731-0.657,0.789-1.127c0.026-0.241-0.035-0.586-0.388-0.921l0.043-0.081l-9.041-4.656
		c-0.313-0.31-0.881-0.726-1.686-0.831C11.18,0.219,10.007,0.686,8.78,1.749L1.805,5.68l0.066,0.118L1.83,5.744L0,7.138l1.732,1.015
		l-1.06,1.228c-0.085,0.098-0.122,0.23-0.1,0.358c0.021,0.13,0.099,0.242,0.212,0.307l0.65,0.374L0,11.514l1.732,1.015l-1.06,1.229
		c-0.085,0.1-0.123,0.23-0.101,0.358c0.021,0.129,0.099,0.239,0.212,0.307l0.65,0.373L0,15.889l6.194,3.633
		c0.172,0.127,3.231,2.399,6.203,2.398c1.054,0,2.099-0.285,3-1.057l6.961-3.922c0.054-0.026,1.267-0.646,1.451-1.778
		c0.088-0.521-0.051-1.044-0.406-1.562L23.451,13.563z M2.36,6.439L2.324,6.392l6.928-3.903l0.074-0.051
		c1.036-0.907,1.982-1.313,2.83-1.209c0.365,0.046,0.656,0.183,0.881,0.333L12.98,1.67l0.461,0.237
		c0.063,0.072,0.102,0.124,0.104,0.131l0.063-0.043l8.724,4.492l-0.021,0.022c0.082,0.064,0.179,0.159,0.166,0.243
		c-0.024,0.236-0.524,0.635-0.981,0.857l-6.646,3.813c-2.895,2.537-8.081-1.313-8.177-1.38l-5.11-2.999L2.36,6.439z M2.255,10.896
		l8.192,4.729c0.069,0.04,0.145,0.059,0.22,0.059c0.15,0,0.298-0.078,0.378-0.219c0.122-0.209,0.049-0.479-0.16-0.599L1.679,9.552
		L2.5,8.603l3.694,2.165c0.174,0.132,3.258,2.421,6.214,2.421c1.045,0,2.074-0.287,2.951-1.06l5.271-3.02l0.789,1.114l-8.647,4.152
		c-0.217,0.104-0.311,0.366-0.205,0.582c0.074,0.159,0.229,0.25,0.396,0.25c0.063,0,0.126-0.017,0.188-0.043l9.113-4.376
		c0.116-0.057,0.202-0.16,0.233-0.285c0.032-0.125,0.008-0.258-0.065-0.364l-1.039-1.466l0.416-0.238l0.6,0.813l-0.067,0.07
		c0.468,0.476,0.673,0.919,0.604,1.322c-0.112,0.695-0.975,1.141-1,1.153l-7.02,3.955l-0.072,0.05
		c-2.896,2.536-8.083-1.313-8.179-1.381l-5.11-2.998L2.255,10.896z M21.947,16.168l-7.021,3.955l-0.07,0.051
		c-2.896,2.534-8.083-1.314-8.18-1.383l-5.111-2.997l0.688-0.522l8.192,4.729c0.069,0.04,0.145,0.058,0.22,0.058
		c0.15,0,0.298-0.076,0.378-0.218c0.122-0.209,0.049-0.478-0.16-0.598L1.68,13.928l0.821-0.947l3.694,2.162
		c0.172,0.133,3.231,2.402,6.203,2.402c1.055,0,2.1-0.286,2.999-1.057l5.265-2.967l0.764,1.08l-8.646,4.147
		c-0.217,0.104-0.312,0.365-0.205,0.585c0.076,0.156,0.23,0.247,0.396,0.247c0.063,0,0.125-0.017,0.188-0.043l9.114-4.375
		c0.113-0.06,0.201-0.16,0.232-0.284c0.031-0.126,0.01-0.26-0.064-0.361l-1.016-1.431l0.422-0.231l0.564,0.771l-0.068,0.067
		c0.469,0.476,0.674,0.92,0.605,1.322C22.832,15.71,21.973,16.154,21.947,16.168z"/>
</g>
<g id="phone" display="none">
	<g display="inline">
		<path fill="#FCB033" d="M7.963-1.614c0.008,0.009,0.05,0.083,0.072,0.188c0.03,0.104,0.075,0.232,0.121,0.36L8.86,0.921
			c0.183,0.456,0.374,0.932,0.573,1.4c0.076,0.188,0.084,0.333,0.09,0.429L9.7,3.276L9.573,3.468C9.5,3.884,9.299,4.237,8.952,4.566
			C7.724,5.739,7.724,5.739,8.828,7.12c1.381,1.738,3.032,3.319,5.045,4.838c0.298,0.22,0.428,0.254,0.477,0.254
			c0.037,0,0.121-0.069,0.217-0.228c0.604-0.958,1.394-1.452,2.346-1.478l0.038-0.046l0.629,0.07
			c0.104,0.021,0.215,0.046,0.323,0.086l0.106,0.014l3.745,1.483c0.066,0.018,0.116,0.042,0.145,0.055l0.699,0.457l0.08,0.129
			c0.233,0.37,0.235,0.806,0.205,1.138c-0.27,3.34-3.307,6.078-6.771,6.092h-0.072c-1.188,0-2.298-0.293-3.309-0.873
			c-5.083-2.957-9.066-6.954-11.85-11.885c-1.09-1.94-1.172-4.205-0.229-6.215c0.942-2.001,2.801-3.43,4.979-3.824
			c0.632-0.114,1.129-0.074,1.524,0.15 M6.27-1.82c-0.137,0-0.287,0.018-0.452,0.047c-1.867,0.339-3.4,1.518-4.208,3.235
			C0.812,3.159,0.885,5.069,1.804,6.708c2.685,4.764,6.54,8.629,11.455,11.487c0.847,0.484,1.78,0.729,2.777,0.729v0.53l0.067-0.53
			c2.933-0.012,5.496-2.31,5.725-5.125c0.042-0.451-0.051-0.512-0.148-0.566l-0.414-0.172l-3.638-1.422
			c-0.137-0.039-0.198-0.056-0.259-0.064l-0.082-0.017l-0.172,0.017l-0.141-0.006c-0.418,0-0.97,0.113-1.517,0.978
			c-0.297,0.479-0.67,0.724-1.108,0.724c-0.428,0-0.803-0.229-1.109-0.461c-2.09-1.579-3.803-3.221-5.238-5.024
			c-1.564-1.955-1.546-2.29,0.22-3.98c0.25-0.236,0.302-0.419,0.319-0.582l0.003-0.03L8.512,3.094C8.475,2.947,8.47,2.88,8.466,2.81
			C8.257,2.26,8.063,1.778,7.87,1.295L7.159-0.714c-0.054-0.152-0.107-0.305-0.15-0.458c0,0.003,0,0.005,0,0.005
			c-0.006,0-0.034-0.055-0.056-0.125L6.875-1.46C6.737-1.729,6.584-1.82,6.27-1.82z"/>
	</g>
</g>
<g id="car-park" display="none">
	<g display="inline">
		<path fill="#FCB033" d="M14.673,12.9c1.08,0.154,1.122,0.197,1.306,1.265c0.162,0.929,0.328,1.854,0.489,2.785
			c0.226,1.271-0.129,1.849-1.37,2.245c-0.344,1.783-0.73,2.193-2.027,2.14c-1.128-0.048-1.553-0.563-1.729-2.174
			c-0.821,0-1.656,0-2.49,0c-0.821,0-1.641,0-2.268,0c-0.336,0.688-0.511,1.354-0.928,1.782c-0.288,0.298-0.912,0.367-1.385,0.367
			c-1.089,0-1.492-0.558-1.637-2.063c-0.314-0.158-0.666-0.272-0.935-0.488c-0.494-0.397-0.637-0.95-0.523-1.571
			c0.182-1.008,0.366-2.013,0.544-3.02C1.908,13.1,1.944,13.063,3,12.9c0.095-0.7,0.153-1.418,0.294-2.123
			c0.31-1.543,1.581-2.69,3.15-2.758c1.562-0.068,3.131-0.08,4.693-0.009c1.863,0.087,3.183,1.434,3.376,3.3
			C14.564,11.827,14.617,12.346,14.673,12.9z M13.253,12.924c0.144-2.301-0.748-3.787-2.528-3.504
			c-0.137,1.086-0.26,1.195-1.36,1.198c-0.281,0.002-0.562,0-0.842,0c-1.304,0-1.316-0.011-1.583-1.238
			c-1.886-0.142-2.599,1.306-2.503,3.544C7.375,12.924,10.315,12.924,13.253,12.924z M4.034,15.111
			c-0.714,0.002-1.311,0.59-1.317,1.293c-0.006,0.713,0.643,1.344,1.359,1.322c0.7-0.021,1.291-0.639,1.278-1.336
			C5.342,15.682,4.749,15.105,4.034,15.111z M13.634,15.107c-0.714,0.011-1.295,0.602-1.292,1.313
			c0.004,0.703,0.604,1.303,1.305,1.307c0.729,0.002,1.354-0.636,1.33-1.354C14.952,15.665,14.352,15.098,13.634,15.107z"/>
	</g>
	<g display="inline">
		<g>
			<path fill="#FCB033" d="M21.8,5.776c0,0.573-0.181,1.011-0.538,1.315c-0.359,0.304-0.867,0.454-1.527,0.454H19.25v1.894h-1.128
				V4.116h1.7c0.645,0,1.136,0.137,1.473,0.417C21.631,4.811,21.8,5.225,21.8,5.776z M19.25,6.622h0.371
				c0.348,0,0.605-0.071,0.779-0.206c0.172-0.138,0.259-0.337,0.259-0.601c0-0.265-0.07-0.46-0.216-0.585
				c-0.146-0.127-0.373-0.189-0.68-0.189H19.25V6.622z"/>
		</g>
	</g>
	<g display="inline">
		<path fill="#FCB033" d="M19.502,11.708c-2.904,0-5.268-2.364-5.268-5.27c0-2.905,2.361-5.269,5.268-5.269
			c2.907,0,5.271,2.363,5.271,5.269S22.407,11.708,19.502,11.708z M19.502,2.048c-2.42,0-4.393,1.97-4.393,4.391
			c0,2.422,1.973,4.393,4.393,4.393c2.421,0,4.393-1.97,4.393-4.393C23.895,4.018,21.923,2.048,19.502,2.048z"/>
	</g>
	<g display="inline">
		<rect x="18" y="11.125" fill="#FCB033" width="2" height="10"/>
	</g>
</g>
<g id="nosmoking" display="none">
	<g display="inline">
		<path fill="#FCB033" d="M14.318,8.969L23.9-0.614c0.347-0.344,0.347-0.903,0-1.249c-0.344-0.345-0.902-0.345-1.246,0L13.07,7.72
			L3.488-1.863c-0.345-0.345-0.903-0.345-1.248,0c-0.345,0.345-0.345,0.904,0,1.249l9.582,9.583L2.24,18.552
			c-0.345,0.343-0.345,0.903,0,1.248c0.172,0.173,0.398,0.259,0.624,0.259c0.226,0,0.452-0.086,0.624-0.259l9.583-9.582l9.584,9.582
			c0.175,0.173,0.396,0.259,0.623,0.259c0.228,0,0.451-0.086,0.623-0.259c0.35-0.345,0.35-0.905,0-1.248L14.318,8.969z"/>
		<path fill="#FCB033" d="M20.311,8.245l0.381-0.12H2.251C1.571,8.125,1,9.162,1,9.838v0.929c0,0.706,0.603,1.357,1.251,1.357
			h13.526h0.748h3.771c0.111,0,0.226,0.058,0.332,0.058c0.108,0,0.224-0.058,0.33-0.058h0.043l-0.384-0.037
			c0.398-0.137,0.38-0.505,0.38-0.906V9.293C21,8.79,20.816,8.274,20.311,8.245z M4,11.125v-2h12v2H4z M17,9.125h2.545
			c-0.021,0-1.42-0.375-1.545,0.168v1.889c0,0.05,1.521-0.057,1.531-0.057H17V9.125z M20,11.182c0,0.175-0.325,0.315-0.5,0.315
			c-0.174,0-0.5-0.141-0.5-0.315V9.293c0-0.174,0.326-0.316,0.5-0.316c0.175,0,0.5,0.142,0.5,0.316V11.182z"/>
		<g>
			<path fill="#FCB033" d="M2.002,7.635C1.756,7.626,1.675,7.459,1.777,7.253C1.961,6.875,2.06,6.475,1.98,6.063
				C1.923,5.772,1.816,5.486,1.693,5.216C1.4,4.576,1.359,3.929,1.586,3.266C1.627,3.15,1.681,3.038,1.736,2.93
				c0.065-0.125,0.168-0.19,0.305-0.128C2.181,2.867,2.2,2.982,2.152,3.13C2.06,3.406,1.953,3.684,1.912,3.968
				C1.847,4.41,2.004,4.813,2.202,5.205C2.47,5.737,2.54,6.297,2.395,6.875c-0.05,0.204-0.13,0.402-0.219,0.593
				C2.138,7.548,2.042,7.599,2.002,7.635z"/>
		</g>
		<g>
			<path fill="#FCB033" d="M0.771,6.763c-0.237,0-0.313-0.155-0.247-0.355c0.087-0.263,0.188-0.528,0.23-0.799
				c0.068-0.448-0.083-0.86-0.284-1.257C0.154,3.723,0.123,3.07,0.351,2.405C0.39,2.29,0.443,2.179,0.498,2.068
				c0.066-0.134,0.174-0.202,0.317-0.131c0.146,0.071,0.14,0.194,0.098,0.334C0.826,2.562,0.721,2.854,0.68,3.152
				c-0.059,0.42,0.099,0.803,0.285,1.176c0.319,0.636,0.347,1.295,0.116,1.966c-0.039,0.115-0.089,0.23-0.155,0.333
				C0.882,6.693,0.803,6.736,0.771,6.763z"/>
		</g>
	</g>
</g>
<g id="flat-screen-tv" display="none">
	<g display="inline">
		<path fill="#FCB033" d="M25,19.125H0v-14h25V19.125z M1,18.125h23v-12H1V18.125z"/>
	</g>
	<g display="inline">
		<rect x="2" y="7.125" fill="#FCB033" width="21" height="10"/>
	</g>
	<g display="inline">
		<rect x="2" y="20.125" fill="#FCB033" width="21" height="1"/>
	</g>
</g>
<g id="cctv" display="none">
	<path display="inline" fill="#FCB033" d="M23.882,5.708L9.279-0.398C8.295-0.81,7.693-0.646,7.441-0.04L5.796,3.892
		C5.795,3.894,5.795,3.896,5.794,3.899L5.205,5.307c-0.336,0.806,0.103,1.73,0.999,2.105l4.997,2.145L6,14.639v-3.125
		c0-0.2,0.071-0.212-0.051-0.335c-0.207-0.205,0.426,0.072-0.661-0.053H2.306c-0.165,0-0.684-0.152-0.833-0.004
		C1.321,11.273,1,11.313,1,11.513v8.206c0,0.309,0.642,1.406,1.357,1.406h2.931C5.849,21.125,6,20.25,6,19.719v-2.594h0.478
		c0.019,0,0.068-0.046,0.103-0.033c0.091,0.033,0.228,0.051,0.382,0.051c0.077,0,0.158-0.025,0.24-0.063
		c0.372-0.057,0.655-0.295,0.76-0.627l5.871-5.845l5.497,2.294c0.26,0.107,0.528,0.16,0.786,0.16c0.512,0,0.979-0.209,1.273-0.568
		l0.758,0.314l0.16,0.031c0.332,0,0.439-0.316,0.562-0.652c0.021-0.063,0.04-0.117,0.057-0.158l0.527-1.261
		c0.019-0.042,0.04-0.08,0.058-0.112c0.063-0.108,0.15-0.271,0.082-0.467l-0.083-0.187l-0.856-0.359l0.171-0.401
		c1.079-0.017,1.323-0.134,1.434-0.389l0.662-1.584C25.102,6.831,25.068,6.206,23.882,5.708z M5,19.719
		c0,0.162,0.35-0.594,0.288,0.406H2.433c-0.02-1-0.433-0.33-0.433-0.406v-7.594h3.341C5.389,12.125,5,11.594,5,11.596v2.529H4.116
		C3.584,14.125,3,15.08,3,15.616v0.586c0,0.235,0.275,0.923,1.116,0.923H5V19.719z M7.254,16.063l-0.021,0.123
		c-0.003,0.025-0.017,0.105-0.172,0.117l-0.096,0.008l-0.032,0.021c-0.026-0.008-0.058-0.066-0.082-0.077
		c-0.099-0.036-0.222-0.129-0.363-0.129h-0.22H5.497h-1.38C3.967,16.125,4,16.199,4,16.202v-0.586c0-0.168,0.076-0.491,0.116-0.491
		H6.55l5.553-5.408l0.961,0.482L7.254,16.063z M19.629,12.189L6.501,6.701C5.995,6.489,5.743,6.017,5.916,5.604l0.151-0.362
		c0.17,0.199,0.39,0.37,0.659,0.482l7.004,2.8c0.555,0.232,5.59,0.656,8.259,0.713l-0.339,0.808l-0.519,1.232
		c-0.001,0.004-0.004,0.008-0.005,0.011l-0.236,0.575C20.723,12.264,20.156,12.41,19.629,12.189z M22.727,10.509l-0.51,1.222
		c-0.021,0.056-0.049,0.125-0.074,0.203c-0.004,0.01-0.008,0.021-0.012,0.032l-0.355-0.149c0.021-0.084,0.045-0.178,0.068-0.235
		l0.514-1.225L22.727,10.509z M24.207,6.97L23.6,8.42c-0.123,0.022-0.414,0.053-1.062,0.053c-2.687,0-8.065-0.504-8.517-0.663
		l-7.003-2.8C6.625,4.846,6.392,4.47,6.507,4.189l0.653-1.56l0,0l0.992-2.372c0.029-0.071,0.057-0.114,0.197-0.114
		c0.15,0,0.363,0.057,0.632,0.17l14.602,6.105C24.311,6.723,24.232,6.909,24.207,6.97z"/>
</g>
<g id="air-con" display="none">
	<g display="inline">
		<path fill="#FCB033" d="M24.645,14.75c-0.104,0.238-0.293,0.305-0.543,0.305c-7.853-0.002-15.706-0.002-23.559,0
			c-0.249,0-0.439-0.063-0.543-0.305c0-2.873,0-5.745,0-8.616c0.055-0.149,0.095-0.306,0.167-0.446
			c0.329-0.645,0.87-0.922,1.584-0.92C4.229,4.773,6.706,4.77,9.184,4.77c4.542,0,9.091-0.003,13.636,0.008
			c0.312,0,0.643,0.061,0.929,0.177c0.515,0.208,0.749,0.67,0.896,1.179C24.645,9.005,24.645,11.877,24.645,14.75z M23.43,5.702
			c0,0.16,0.006,0.271,0,0.382c-0.031,0.497-0.304,0.869-0.742,0.986c-0.158,0.042-0.332,0.051-0.498,0.051
			C15.611,7.124,9.037,7.123,2.46,7.123c-0.112,0-0.224-0.005-0.335-0.018c-0.463-0.054-0.813-0.387-0.884-0.85
			c-0.026-0.17-0.029-0.343-0.045-0.548C0.891,5.917,0.813,6.188,0.813,6.51c0.003,2.494,0.002,4.988,0.002,7.481
			c0,0.079,0,0.155,0,0.233c0.147,0,0.263,0,0.4,0c0-0.104,0-0.189,0-0.277c0-0.568-0.007-1.139,0.001-1.707
			c0.009-0.691,0.429-1.105,1.119-1.105c6.655-0.002,13.312-0.002,19.968,0c0.702,0,1.117,0.416,1.125,1.124
			c0.006,0.569,0.002,1.138,0.002,1.708c0,0.086,0,0.172,0,0.26c0.148,0,0.264,0,0.397,0c0-0.104,0-0.188,0-0.273
			c0-2.463,0-4.925,0-7.386c0-0.088,0.003-0.178-0.009-0.265C23.789,6.059,23.688,5.86,23.43,5.702z M1.774,5.59
			c0,0.204-0.013,0.38,0.003,0.553C1.801,6.395,1.966,6.544,2.219,6.57c0.08,0.008,0.16,0.006,0.241,0.006
			c6.576,0.001,13.153,0.001,19.729,0c0.098,0,0.211,0.026,0.283-0.018c0.143-0.086,0.316-0.191,0.366-0.328
			c0.068-0.191,0.033-0.418,0.044-0.64C15.827,5.59,8.813,5.59,1.774,5.59z M22.867,12.771c-7.038,0-14.056,0-21.088,0
			c0,0.178,0,0.34,0,0.515c7.036,0,14.056,0,21.088,0C22.867,13.114,22.867,12.957,22.867,12.771z M1.787,12.189
			c7.026,0,14.05,0,21.078,0c-0.021-0.381-0.198-0.521-0.639-0.521c-6.604,0-13.202,0-19.797,0c-0.088,0-0.177,0.001-0.263,0.02
			C1.905,11.742,1.785,11.904,1.787,12.189z M1.777,14.223c7.05,0,14.069,0,21.087,0c0-0.137,0-0.252,0-0.373
			c-7.038,0-14.058,0-21.087,0C1.777,13.979,1.777,14.096,1.777,14.223z"/>
		<path fill="#FCB033" d="M14.848,22.124c-0.289-0.013-0.384-0.207-0.264-0.448c0.215-0.443,0.33-0.912,0.236-1.396
			c-0.066-0.338-0.19-0.674-0.336-0.988c-0.342-0.75-0.395-1.512-0.123-2.285c0.047-0.137,0.104-0.271,0.175-0.396
			c0.073-0.146,0.196-0.223,0.356-0.146c0.164,0.075,0.186,0.21,0.129,0.386c-0.104,0.321-0.23,0.646-0.28,0.98
			c-0.076,0.518,0.108,0.988,0.34,1.447c0.315,0.623,0.396,1.281,0.228,1.959c-0.06,0.238-0.148,0.474-0.256,0.691
			C15.007,22.021,14.895,22.082,14.848,22.124z"/>
		<path fill="#FCB033" d="M12.385,22.121c-0.278,0-0.367-0.182-0.29-0.417c0.102-0.308,0.221-0.619,0.269-0.937
			c0.081-0.525-0.097-1.012-0.332-1.479c-0.372-0.732-0.407-1.502-0.141-2.281c0.046-0.135,0.109-0.266,0.172-0.394
			c0.077-0.156,0.203-0.236,0.373-0.154c0.169,0.082,0.164,0.229,0.113,0.396c-0.101,0.342-0.225,0.683-0.273,1.028
			c-0.068,0.492,0.116,0.942,0.335,1.382c0.373,0.742,0.406,1.519,0.136,2.305c-0.047,0.136-0.104,0.271-0.183,0.39
			C12.516,22.038,12.422,22.09,12.385,22.121z"/>
		<path fill="#FCB033" d="M12.343,10.042c0.386,0,0.771-0.006,1.155,0.002c0.271,0.006,0.434,0.228,0.29,0.402
			c-0.071,0.087-0.233,0.136-0.354,0.138c-0.738,0.014-1.477,0.008-2.215,0.008c-0.008,0-0.016,0-0.024,0
			c-0.187-0.006-0.373-0.029-0.375-0.271c-0.001-0.238,0.177-0.278,0.367-0.278C11.573,10.041,11.958,10.042,12.343,10.042z"/>
		<path fill="#FCB033" d="M22.048,10.382c-0.103,0.065-0.196,0.171-0.304,0.188c-0.155,0.025-0.26-0.092-0.262-0.249
			c0-0.168,0.106-0.287,0.271-0.26c0.104,0.018,0.195,0.134,0.292,0.208C22.048,10.307,22.048,10.344,22.048,10.382z"/>
		<path fill="#FCB033" d="M20.802,10.367c-0.099,0.071-0.186,0.18-0.294,0.203c-0.154,0.033-0.261-0.084-0.271-0.236
			c-0.008-0.17,0.104-0.294,0.267-0.273c0.104,0.013,0.2,0.127,0.3,0.196C20.8,10.293,20.801,10.33,20.802,10.367z"/>
		<path fill="#FCB033" d="M9.925,22.125c-0.275-0.011-0.377-0.182-0.306-0.382c0.081-0.233,0.188-0.461,0.244-0.699
			c0.126-0.543,0.044-1.067-0.212-1.562c-0.358-0.687-0.506-1.396-0.314-2.156c0.057-0.23,0.155-0.452,0.244-0.672
			c0.066-0.168,0.189-0.278,0.375-0.196c0.196,0.087,0.195,0.255,0.109,0.426c-0.27,0.536-0.349,1.101-0.195,1.681
			c0.069,0.263,0.191,0.506,0.302,0.752c0.393,0.865,0.382,1.725-0.033,2.57C10.086,21.994,9.974,22.072,9.925,22.125z"/>
		<path fill="#FCB033" d="M14.848,22.124c-0.289-0.013-0.384-0.207-0.264-0.448c0.215-0.443,0.33-0.912,0.236-1.396
			c-0.066-0.338-0.19-0.674-0.336-0.988c-0.342-0.75-0.395-1.512-0.123-2.285c0.047-0.137,0.104-0.271,0.175-0.396
			c0.073-0.146,0.196-0.223,0.356-0.146c0.164,0.075,0.186,0.21,0.129,0.386c-0.104,0.321-0.23,0.646-0.28,0.98
			c-0.076,0.518,0.108,0.988,0.34,1.447c0.315,0.623,0.396,1.281,0.228,1.959c-0.06,0.238-0.148,0.474-0.256,0.691
			C15.007,22.021,14.895,22.082,14.848,22.124z"/>
		<path fill="#FCB033" d="M12.385,22.121c-0.278,0-0.367-0.182-0.29-0.417c0.102-0.308,0.221-0.619,0.269-0.937
			c0.081-0.525-0.097-1.012-0.332-1.479c-0.372-0.732-0.407-1.502-0.141-2.281c0.046-0.135,0.109-0.266,0.172-0.394
			c0.077-0.156,0.203-0.236,0.373-0.154c0.169,0.082,0.164,0.229,0.113,0.396c-0.101,0.342-0.225,0.683-0.273,1.028
			c-0.068,0.492,0.116,0.942,0.335,1.382c0.373,0.742,0.406,1.519,0.136,2.305c-0.047,0.136-0.104,0.271-0.183,0.39
			C12.516,22.038,12.422,22.09,12.385,22.121z"/>
	</g>
</g>
<g id="wi-fi" display="none">
	<g display="inline">
		<g>
			<g>
				<path fill="#FCB033" d="M4.812,21.29c-2.294,0-4.161-1.866-4.161-4.162s1.867-4.164,4.161-4.164
					c2.296,0,4.163,1.868,4.163,4.164S7.108,21.29,4.812,21.29z M4.812,14.323c-1.544,0-2.801,1.258-2.801,2.805
					c0,1.545,1.257,2.804,2.801,2.804c1.545,0,2.803-1.259,2.803-2.804C7.615,15.581,6.357,14.323,4.812,14.323z"/>
			</g>
		</g>
		<g>
			<g>
				<path fill="#FCB033" d="M17.822,22.125c-0.006,0-0.016,0-0.026,0H14.58c-0.375,0-0.68-0.109-0.68-0.486
					C13.9,13.773,8.242,7.94,0.494,7.94C0.119,7.939,0,7.732,0,7.357V4.141c0-0.375,0.119-0.68,0.495-0.68
					c9.783,0,17.964,8.305,18.073,18.178c0.02,0.063-0.021-0.063-0.021,0C18.55,22.016,18.198,22.125,17.822,22.125z M15.247,21.125
					h1.854C16.746,12.125,10,5.201,1,4.835V6.69C8,7.018,14.93,12.125,15.247,21.125z"/>
			</g>
		</g>
		<g>
			<g>
				<path fill="#FCB033" d="M24.127,22.125c-0.006,0-0.018,0-0.027,0h-3.213c-0.376,0-0.681-0.109-0.681-0.486
					c0-10.521-9.297-20.005-19.711-20.005C0.119,1.634,0,1.427,0,1.051v-3.216c0-0.375,0.119-0.68,0.495-0.68
					c13.887,0,24.28,10.512,24.377,24.484c0.019,0.063-0.019-0.063-0.019,0C24.854,22.016,24.503,22.125,24.127,22.125z
					 M21.555,21.125h1.856C23.086,8.125,13-1.144,1-1.476v1.86C12,0.78,21.164,10.125,21.555,21.125z"/>
			</g>
		</g>
	</g>
</g>
<g id="video-phone" display="none">
	<g display="inline">
		<path fill="#FCB033" d="M21-1.022v20.733c0,0.494-0.727,1.414-1.33,1.414H5.738C5.134,21.125,4,20.205,4,19.711V-1.022
			c0-0.515,1.189-0.853,1.738-0.853H19.67C20.219-1.875,21-1.537,21-1.022z M5,19.711c0,0.131,0.724,0.414,0.738,0.414H20
			c0,0,0-0.283,0-0.414V-1.022c0-0.136,0,0.147,0,0.147H5.738C5.558-0.875,5-1.158,5-1.022V19.711z"/>
	</g>
	<g display="inline">
		<path fill="#FCB033" d="M16.82,0.125H8.076C7.605,0.125,8,0.799,8,1.348V11.77c0,0.551-0.395,0.354,0.076,0.354h8.744
			c0.492,0,0.18,0.153,0.18-0.354V1.348C17,0.841,17.313,0.125,16.82,0.125z M16.82,12.125h-0.609c-0.141-2-1.746-3.452-3.711-3.452
			s-3.571,1.452-3.711,3.452H8.076C7.924,12.125,8,11.886,8,11.771V1.348c0-0.114-0.076-0.223,0.076-0.223h8.744
			c0.154,0,0.18,0.055,0.18,0.223V11.77C17,11.939,16.975,12.125,16.82,12.125z"/>
		<circle fill="#FCB033" cx="12.216" cy="5.683" r="1.984"/>
	</g>
	<g display="inline">
		<path fill="#FCB033" d="M7,12.125v-12h11v12H7z M8,0.125v12h9v-12H8z"/>
	</g>
	<rect x="7" y="11.125" display="inline" fill="#FCB033" width="11" height="1"/>
	<path display="inline" fill="#E7A723" d="M7.676,19.195v0.007l0.105-0.044c0.023-0.014,0.04-0.014,0.061-0.027
		c0.017-0.003,0.029-0.014,0.042-0.02l1.605-0.688l0.069-0.047c0.038-0.021,0.071-0.04,0.104-0.063l0.106-0.067l-0.002-0.022
		c0.279-0.244,0.408-0.574,0.296-1.074c-0.083-0.356,0.111-0.455,0.431-0.502c1.073-0.148,2.146-0.188,3.22-0.063
		c0.995,0.11,1.012,0.118,0.987,1.103c-0.007,0.199,0.049,0.334,0.137,0.442l0.009,0.037l0.125,0.062
		c0.049,0.031,0.073,0.072,0.146,0.104c0.213,0.087,0.429,0.179,0.644,0.271l0.772,0.369c0.088,0.045,0.18,0.084,0.267,0.133
		c0.021,0.017,0.038,0.016,0.06,0.022l0.13,0.063l-0.009-0.02c0.313,0.104,0.509-0.039,0.709-0.328
		c1.107-1.593,0.345-3.826-1.555-4.359c-2.477-0.695-4.973-0.682-7.461-0.024c-0.484,0.13-0.903,0.379-1.254,0.737
		c-1.028,1.033-1.116,2.723-0.209,3.791C7.351,19.158,7.485,19.243,7.676,19.195z"/>
</g>
</svg>
