<?xml version="1.0" encoding="utf-8"?>
<!-- Generator: Adobe Illustrator 16.0.0, SVG Export Plug-In . SVG Version: 6.00 Build 0)  -->
<!DOCTYPE svg PUBLIC "-//W3C//DTD SVG 1.1//EN" "http://www.w3.org/Graphics/SVG/1.1/DTD/svg11.dtd">
<svg version="1.1" id="Layer_1" xmlns="http://www.w3.org/2000/svg" xmlns:xlink="http://www.w3.org/1999/xlink" x="0px" y="0px"
	 width="20px" height="20px" viewBox="0 0 20 20" enable-background="new 0 0 20 20" xml:space="preserve">
<g>
	<g>
		<path fill="#E6A623" d="M9.825,0.244c0.281,0,0.565-0.015,0.846,0c5.387,0.315,8.729,3.582,9.109,8.848
			c0.031,0.454,0.028,0.913,0,1.366c-0.336,4.718-3.667,8.401-8.653,8.782c-2.107,0.163-3.999-0.358-5.466-1.171
			c-1.687,0.591-3.489,1.063-5.138,1.693c-0.023,0-0.043,0-0.065,0c0.466-1.768,1.153-3.313,1.626-5.075
			c-0.526-1.13-1.184-2.455-1.301-4.099C0.339,4.396,4.703,0.831,9.825,0.244z M9.956,17.679c4.51,0.193,7.776-3.219,8.195-7.023
			c0.475-4.263-2.573-8.456-7.157-8.784C6.076,1.52,2.605,5.025,2.344,9.352c-0.132,2.16,0.638,3.614,1.497,5.138
			c-0.346,0.914-0.606,1.911-0.976,2.798c1.092-0.229,1.997-0.646,3.058-0.909C7.27,17.136,8.243,17.606,9.956,17.679z"/>
	</g>
	<path fill="#E6A623" d="M9.131,10.783c0.905,0.913,1.335,1.329,2.001,1.494c0.351,0.086,0.377,0.023,0.489-0.078
		s0.768-1.226,1.444-1.192c0.614,0.031,1.793,1.195,1.905,2.16c0.042,0.391-0.799,1.175-1.546,1.477
		c-0.648,0.263-1.33,0.28-2.179-0.167c-0.809-0.43-1.77-1.059-3.238-2.687c-1.467-1.629-1.992-2.651-2.333-3.501
		C5.321,7.401,5.41,6.729,5.743,6.11c0.381-0.705,1.253-1.453,1.638-1.369c0.95,0.21,1.986,1.507,1.949,2.118
		C9.291,7.535,8.1,8.063,7.986,8.164c-0.111,0.1-0.177,0.121-0.128,0.477C7.95,9.317,8.319,9.788,9.131,10.783z"/>
</g>
</svg>
