<?xml version="1.0" encoding="utf-8"?>
<!-- Generator: Adobe Illustrator 16.0.0, SVG Export Plug-In . SVG Version: 6.00 Build 0)  -->
<!DOCTYPE svg PUBLIC "-//W3C//DTD SVG 1.1//EN" "http://www.w3.org/Graphics/SVG/1.1/DTD/svg11.dtd">
<svg version="1.1" id="Layer_1" xmlns="http://www.w3.org/2000/svg" xmlns:xlink="http://www.w3.org/1999/xlink" x="0px" y="0px"
	 width="42.375px" height="42.125px" viewBox="-1.042 -1.125 42.375 42.125" enable-background="new -1.042 -1.125 42.375 42.125"
	 xml:space="preserve">
<g id="close_icon">
	<g>
		<path fill="#A2A2A2" d="M20.112,1.123c10.468,0,18.981,8.515,18.981,18.98c0,10.465-8.516,18.98-18.981,18.98
			S1.133,30.566,1.133,20.103C1.132,9.637,9.646,1.123,20.112,1.123 M20.112,0.123c-11.033,0-19.979,8.945-19.979,19.98
			c0,11.034,8.946,19.98,19.979,19.98c11.035,0,19.981-8.946,19.981-19.98C40.093,9.068,31.147,0.123,20.112,0.123L20.112,0.123z"/>
	</g>
	<g>
		<path fill="#A2A2A2" d="M22.125,21.477c-0.104,0.106-0.211,0.213-0.317,0.319s-0.214,0.212-0.319,0.315
			c3.283,3.268,6.028,5.732,6.199,5.563S25.391,24.759,22.125,21.477z"/>
		<path fill="#A2A2A2" d="M18.967,18.319c-3.282-3.266-6.027-5.73-6.199-5.561s2.296,2.916,5.562,6.198
			c0.105-0.107,0.21-0.212,0.317-0.32C18.755,18.529,18.86,18.425,18.967,18.319z"/>
		<path fill="#A2A2A2" d="M20.826,20.131c3.664-3.685,6.433-6.765,6.241-6.957c-0.19-0.192-3.272,2.576-6.958,6.242
			c-0.12,0.119-0.238,0.235-0.359,0.356s-0.238,0.239-0.357,0.358c-3.666,3.685-6.433,6.767-6.241,6.959s3.273-2.578,6.958-6.243
			c0.119-0.119,0.237-0.236,0.358-0.356C20.59,20.369,20.708,20.251,20.826,20.131z"/>
	</g>
</g>
<g id="man_icon" display="none">
	<circle display="inline" fill="#E7A723" cx="20.351" cy="15.603" r="2.68"/>
	<path display="inline" fill="#E7A723" d="M27.851,27.923c-0.189-3.995-3.459-7.181-7.5-7.181s-7.311,3.186-7.5,7.181H27.851z"/>
</g>
<g id="Layer_3" display="none">
	<path display="inline" fill="#E7A723" d="M19.172,21.365c0.393,0.662,0.583,0.967,0.946,1.16c0.189,0.103,0.217,0.066,0.296,0.025
		c0.08-0.042,0.625-0.601,1.014-0.482c0.354,0.107,0.87,0.959,0.792,1.535c-0.031,0.232-0.637,0.567-1.113,0.635
		c-0.417,0.059-0.814-0.031-1.244-0.414c-0.408-0.368-0.877-0.875-1.491-2.037c-0.617-1.163-0.773-1.833-0.848-2.377
		c-0.075-0.568,0.074-0.947,0.357-1.258c0.326-0.354,0.943-0.664,1.153-0.559c0.522,0.262,0.937,1.166,0.825,1.518
		c-0.122,0.388-0.893,0.521-0.972,0.563c-0.079,0.042-0.122,0.044-0.145,0.258C18.699,20.339,18.844,20.667,19.172,21.365z"/>
	<g display="inline">
		<path fill="#E7A723" d="M14.836,19.966c0.01-2.818,2.436-5.104,5.439-5.104c0.861,0,1.676,0.193,2.396,0.528l0.795-0.805
			l0.625-0.633c-1.117-0.625-2.42-0.992-3.815-0.992c-4.126,0-7.472,3.136-7.47,7.005C12.809,21.615,14.831,21.455,14.836,19.966z"
			/>
		<polygon fill="#E7A723" points="22.382,15.719 21.552,16.615 23.914,17.151 24.272,17.232 26.274,17.686 25.637,15.632 
			25.557,15.375 24.841,13.063 23.837,14.146 23.199,14.838 		"/>
	</g>
	<circle display="inline" fill="#E7A723" cx="13.971" cy="23.015" r="0.894"/>
	<circle display="inline" fill="#E7A723" cx="15.391" cy="25.03" r="0.893"/>
	<circle display="inline" fill="#E7A723" cx="17.476" cy="26.333" r="0.894"/>
	<circle display="inline" fill="#E7A723" cx="20.163" cy="27.031" r="0.893"/>
	<circle display="inline" fill="#E7A723" cx="22.987" cy="26.414" r="0.895"/>
	<circle display="inline" fill="#E7A723" cx="25.167" cy="24.645" r="0.894"/>
</g>
</svg>
