<?xml version="1.0" encoding="utf-8"?>
<!-- Generator: Adobe Illustrator 16.0.0, SVG Export Plug-In . SVG Version: 6.00 Build 0)  -->
<!DOCTYPE svg PUBLIC "-//W3C//DTD SVG 1.1//EN" "http://www.w3.org/Graphics/SVG/1.1/DTD/svg11.dtd">
<svg version="1.1" id="Layer_1" xmlns="http://www.w3.org/2000/svg" xmlns:xlink="http://www.w3.org/1999/xlink" x="0px" y="0px"
	 width="38.667px" height="62.242px" viewBox="0 0 38.667 62.242" enable-background="new 0 0 38.667 62.242" xml:space="preserve">
<g id="Layer_1_1_" display="none">
	<g display="inline">
		<path fill="#E7A723" d="M4.429,20.167c-3.344,0-6.066-2.719-6.066-6.062s2.723-6.063,6.066-6.063c0.939,0,1.842,0.209,2.68,0.622
			c0.26,0.126,0.365,0.439,0.238,0.697C7.222,9.621,6.907,9.729,6.649,9.6c-0.695-0.342-1.441-0.515-2.22-0.515
			c-2.77,0-5.023,2.252-5.023,5.02c0,2.767,2.254,5.019,5.023,5.019c2.771,0,5.025-2.252,5.025-5.019
			c0-0.883-0.232-1.749-0.672-2.507c-0.145-0.25-0.061-0.568,0.189-0.713c0.25-0.144,0.568-0.061,0.713,0.189
			c0.531,0.916,0.813,1.964,0.813,3.03C10.497,17.448,7.774,20.167,4.429,20.167z"/>
	</g>
	<path display="inline" fill="#E7A723" d="M9.97,7.934C9.741,7.757,9.413,7.799,9.237,8.025l-5.529,7.099l-1.104-2.107
		c-0.131-0.256-0.447-0.353-0.703-0.222c-0.256,0.134-0.354,0.449-0.221,0.704l1.479,2.825c0,0.002,0.002,0.002,0.004,0.004
		c0.033,0.063,0.078,0.12,0.137,0.166c0.012,0.01,0.027,0.013,0.039,0.021c0.016,0.01,0.029-0.079,0.045-0.07
		c0.076,0.039,0.168,0.062,0.25,0.062L3.62,16.413c0.002,0,0.002,0,0.002,0c0.004,0,0.008,0.093,0.012,0.093
		c0.076-0.002,0.15,0.028,0.219-0.006c0.004-0.001,0.006,0.024,0.01,0.022c0.066-0.035,0.121-0.07,0.164-0.125
		c0.002-0.002,0.004,0.003,0.006,0.001l6.027-7.734C10.237,8.437,10.196,8.112,9.97,7.934z"/>
</g>
<g id="Layer_2" display="none">
	<path display="inline" fill="#EEA421" d="M-1.887,19.958c0-2.9,2.351-5.252,5.252-5.252c2.9,0,5.251,2.352,5.251,5.252"/>
	<circle display="inline" fill="#EEA421" cx="2.863" cy="10.413" r="2.375"/>
</g>
<g id="Layer_3" display="none">
	<g display="inline">
		<g>
			<path fill="#E7A723" d="M9.399,9.356c0,0.605-0.002,1.219,0,1.832c0.002,0.107-0.035,0.157-0.148,0.156
				c-0.613-0.002-1.227,0-1.947,0c0.225-0.215,0.367-0.373,0.535-0.504c0.199-0.156,0.135-0.25-0.025-0.392
				C5.81,8.673,2.728,8.84,0.947,10.831c-0.805,0.898-1.221,1.953-1.258,3.158c-0.013,0.383-0.188,0.6-0.489,0.6
				c-0.313,0.001-0.491-0.228-0.487-0.629c0.025-2.826,2.269-5.324,5.076-5.66c1.818-0.22,3.404,0.283,4.759,1.508
				C8.685,9.93,8.757,9.94,8.878,9.801c0.141-0.163,0.305-0.307,0.461-0.458C9.343,9.34,9.358,9.347,9.399,9.356z"/>
			<path fill="#E7A723" d="M0.087,16.149c0.006,0.275-0.206,0.495-0.48,0.496c-0.271,0.002-0.497-0.224-0.495-0.49
				c0.003-0.251,0.221-0.474,0.473-0.484C-0.146,15.658,0.082,15.874,0.087,16.149z"/>
			<path fill="#E7A723" d="M0.781,18.393c-0.263,0.008-0.5-0.223-0.502-0.488c-0.002-0.254,0.205-0.473,0.464-0.485
				c0.278-0.015,0.502,0.188,0.511,0.464C1.263,18.155,1.048,18.387,0.781,18.393z"/>
			<path fill="#E7A723" d="M8.354,18.393c-0.268-0.008-0.479-0.24-0.469-0.514c0.012-0.275,0.234-0.476,0.514-0.46
				c0.258,0.015,0.467,0.237,0.461,0.489C8.856,18.172,8.616,18.403,8.354,18.393z"/>
			<path fill="#E7A723" d="M2.501,19.559c-0.269-0.006-0.482-0.236-0.475-0.51c0.01-0.275,0.23-0.477,0.511-0.464
				c0.259,0.013,0.466,0.228,0.465,0.483C3,19.332,2.761,19.565,2.501,19.559z"/>
			<path fill="#E7A723" d="M7.11,19.075c-0.004,0.268-0.236,0.495-0.5,0.487c-0.266-0.007-0.486-0.244-0.477-0.511
				c0.012-0.26,0.223-0.462,0.484-0.465C6.894,18.585,7.112,18.802,7.11,19.075z"/>
			<path fill="#E7A723" d="M4.571,19.963c-0.269,0.002-0.495-0.224-0.492-0.492c0.002-0.27,0.231-0.49,0.5-0.482
				c0.259,0.007,0.466,0.216,0.472,0.476C5.057,19.737,4.841,19.961,4.571,19.963z"/>
		</g>
		<path fill="#E7A723" d="M7.331,15.266l0.002-0.002l-0.064-0.025c-0.014-0.005-0.021-0.012-0.037-0.017
			c-0.008-0.003-0.018-0.006-0.025-0.008L6.244,14.83l-0.05-0.01c-0.023-0.007-0.047-0.012-0.07-0.017L6.05,14.787L6.04,14.8
			c-0.219-0.017-0.412,0.07-0.574,0.328c-0.116,0.184-0.239,0.146-0.393,0.029c-0.514-0.387-0.981-0.82-1.382-1.324
			c-0.37-0.463-0.376-0.473,0.047-0.876c0.086-0.082,0.12-0.16,0.128-0.244l0.013-0.019l-0.027-0.078
			c-0.007-0.035,0.001-0.063-0.017-0.104c-0.055-0.127-0.105-0.255-0.157-0.384l-0.17-0.48c-0.019-0.056-0.04-0.111-0.057-0.168
			c-0.004-0.014-0.011-0.021-0.015-0.033l-0.029-0.08l-0.003,0.01c-0.089-0.174-0.231-0.197-0.436-0.16
			c-1.136,0.206-1.751,1.469-1.177,2.488c0.75,1.332,1.808,2.373,3.131,3.141c0.256,0.148,0.539,0.222,0.837,0.217
			c0.865-0.004,1.611-0.678,1.678-1.508C7.45,15.418,7.431,15.327,7.331,15.266z"/>
	</g>
</g>
<path fill="#020202" d="M37.987,19.4c0,10.286-18.625,42.2-18.625,42.2S0.737,29.686,0.737,19.4c0-10.286,8.34-18.625,18.625-18.625
	C29.649,0.775,37.987,9.114,37.987,19.4z"/>
<path fill="#B7417A" d="M28.865,17.652c1.692,0.246,1.758,0.314,2.051,1.994c0.252,1.463,0.512,2.926,0.769,4.387
	c0.353,2.006-0.203,2.914-2.151,3.539c-0.541,2.811-1.152,3.457-3.187,3.371c-1.775-0.076-2.443-0.887-2.718-3.426
	c-1.289,0-2.601,0-3.911,0c-1.287,0-2.574,0-3.561,0c-0.529,1.082-0.803,2.131-1.457,2.809c-0.451,0.469-1.432,0.582-2.176,0.582
	c-1.709-0.002-2.34-0.875-2.568-3.252c-0.496-0.252-1.047-0.432-1.469-0.771c-0.775-0.625-1.002-1.5-0.824-2.479
	c0.287-1.586,0.576-3.17,0.854-4.756c0.297-1.684,0.354-1.746,2.012-1.994c0.148-1.107,0.238-2.239,0.461-3.345
	c0.488-2.431,2.484-4.24,4.949-4.347c2.453-0.105,4.918-0.125,7.369-0.014c2.93,0.133,5.002,2.254,5.305,5.197
	C28.694,15.963,28.776,16.779,28.865,17.652z M26.634,17.691c0.225-3.626-1.178-5.97-3.973-5.524
	c-0.217,1.714-0.406,1.883-2.137,1.887c-0.439,0.001-0.883,0.001-1.322,0.001c-2.047-0.001-2.066-0.016-2.482-1.95
	c-2.963-0.224-4.084,2.06-3.934,5.587C17.403,17.691,22.019,17.691,26.634,17.691z M12.157,21.135
	c-1.121,0.005-2.059,0.93-2.068,2.04c-0.01,1.123,1.01,2.117,2.135,2.084c1.1-0.031,2.027-1.002,2.008-2.104
	C14.212,22.034,13.282,21.129,12.157,21.135z M27.231,21.133c-1.121,0.016-2.037,0.948-2.028,2.065
	c0.008,1.111,0.948,2.053,2.053,2.059c1.138,0.006,2.123-1,2.086-2.129C29.302,22.008,28.36,21.117,27.231,21.133z"/>
</svg>
