<?xml version="1.0" encoding="utf-8"?>
<!-- Generator: Adobe Illustrator 16.0.0, SVG Export Plug-In . SVG Version: 6.00 Build 0)  -->
<!DOCTYPE svg PUBLIC "-//W3C//DTD SVG 1.1//EN" "http://www.w3.org/Graphics/SVG/1.1/DTD/svg11.dtd">
<svg version="1.1" id="Layer_1" xmlns="http://www.w3.org/2000/svg" xmlns:xlink="http://www.w3.org/1999/xlink" x="0px" y="0px"
	 width="17.979px" height="26.5px" viewBox="-2.354 0 17.979 26.5" enable-background="new -2.354 0 17.979 26.5"
	 xml:space="preserve">
<g>
	<path fill="#6A1A41" d="M12.695,13.909C12.877,13.766,13,13.553,13,13.305v-0.43c0-0.433-0.354-0.785-0.785-0.785H12V8.772
		c0-0.219-0.087-0.416-0.246-0.555c-0.343-0.301-0.876-0.231-1.393-0.165C10.218,8.07,10.084,8.09,9.984,8.09H9V6.087
		C9,5.788,9,5.09,8.204,5.09H8V2.842C8,2.306,7.225,1.09,6.485,1.09H4.543c-0.435,0-0.85,0.182-0.85,1.048
		c0,0.276,0.326,0.5,0.602,0.5C4.572,2.638,5,2.414,5,2.138C5,2.12,5,2.104,5,2.09l1.628-0.009C6.797,2.15,6.971,2.659,7,2.842V5.09
		H6.725c-0.087,0-0.351,0-0.546,0.202C5.983,5.495,5.991,5.741,5.997,5.939L5.999,8.09H5.074c-0.099,0-0.234-0.019-0.383-0.038
		C4.153,7.984,3.593,7.913,3.244,8.221C3.087,8.361,3,8.556,3,8.772v1.318H2.661C1.88,10.09,1,11.353,1,12.027v1.063H0.991
		C0.333,13.09,0,13.652,0,14.758v10.203c0,0.279,0,1.129,0.991,1.129h5.231c0.109,0,0.444,0,0.661-0.253
		c0.207-0.241,0.162-0.53,0.135-0.704C7.011,25.08,7,25.023,7,24.961V24.09h2.119c0.16,0.559,0.492,1,1.021,1h2.573
		c0.896,0,1.285-1.225,1.285-1.85v-5.152C14,18.051,13.445,15.318,12.695,13.909z M7,6.09h1v2H7V6.09z M2,12.029
		c0.015-0.241,0.484-0.876,0.661-0.939H3h1h0.82C4.908,11.245,5,11.66,5,12.027v1.063H2V12.029z M6.021,14.441
		C6.01,14.563,6,14.672,6,14.758v8.332v1v0.871c0,0.042,0.002,0.084,0.006,0.129l-5.004-0.007C1,25.039,1,24.99,1,24.961V14.758
		c0-0.41,0.041-0.591,0.071-0.668H2h3h1h0.044C6.044,14.204,6.029,14.355,6.021,14.441z M9,18.088v5.002H7v-8.332
		c0-0.061,0.009-0.139,0.018-0.223c0.037-0.389,0.082-0.872-0.213-1.197c-0.147-0.16-0.353-0.248-0.582-0.248H6v-1.063
		c0-0.72-0.228-1.937-1.082-1.937H4V8.993c0.172,0.001,0.425,0.033,0.566,0.051C4.763,9.069,4.943,9.09,5.074,9.09H6h1h1h1h0.984
		c0.134,0,0.313-0.021,0.507-0.047c0.136-0.018,0.354-0.046,0.509-0.05v3.097h-0.215c-0.432,0-0.785,0.352-0.785,0.785v0.43
		c0,0.206,0.084,0.393,0.215,0.532C9.48,15.221,9,18.051,9,18.088z M13,23.24c0,0.328-0.193,0.765-0.313,0.85l-2.478,0.021
		C10.128,24.039,10,23.643,10,23.24v-0.15v-4.998c0.018-0.447,0.782-3.354,1.18-4.002h0.506c0.408,0.618,1.287,3.479,1.314,3.998
		V23.24z"/>
	<path fill="#6A1A41" d="M3.967,5.854c0.475,0,0.86-0.386,0.86-0.861c0-0.083,0-0.338-0.432-1.056L3.967,3.225L3.538,3.937
		C3.106,4.655,3.106,4.909,3.106,4.993C3.106,5.467,3.492,5.854,3.967,5.854z"/>
</g>
<g id="Layer_2" display="none">
	<g display="inline">
		<path fill="#FCB033" d="M17.695,12.819C17.877,12.676,18,12.463,18,12.215v-0.43C18,11.352,17.646,11,17.215,11H17V7.682
			c0-0.219-0.087-0.416-0.246-0.555c-0.343-0.301-0.876-0.231-1.393-0.165C15.218,6.98,15.084,7,14.984,7H14V4.997
			C14,4.698,14,4,13.204,4H13V1.752C13,1.216,12.225,0,11.484,0H9.543c-0.436,0-0.85,0.182-0.85,1.048c0,0.276,0.326,0.5,0.602,0.5
			c0.277,0,0.705-0.224,0.705-0.5C10,1.03,10,1.014,10,1l1.628-0.009C11.797,1.06,11.971,1.569,12,1.752V4h-0.275
			c-0.086,0-0.351,0-0.545,0.202c-0.197,0.203-0.188,0.449-0.183,0.647L10.999,7h-0.925C9.977,7,9.84,6.981,9.691,6.962
			c-0.539-0.067-1.099-0.139-1.447,0.17C8.087,7.271,8,7.466,8,7.682V9H7.661C6.88,9,6,10.263,6,10.937V12H5.991
			C5.333,12,5,12.562,5,13.668v10.203C5,24.15,5,25,5.991,25h5.231c0.107,0,0.442,0,0.659-0.253
			c0.207-0.241,0.162-0.531,0.136-0.704C12.011,23.99,12,23.934,12,23.871V23h2.119c0.16,0.559,0.492,1,1.021,1h2.573
			C18.611,24,19,22.775,19,22.15v-5.152C19,16.961,18.445,14.229,17.695,12.819z M12,5h1v2h-1V5z M7,10.939
			C7.015,10.698,7.484,10.063,7.661,10H8h1h0.82C9.908,10.155,10,10.57,10,10.937V12H7V10.939z M11.021,13.352
			C11.01,13.473,11,13.582,11,13.668V22v1v0.871c0,0.042,0.002,0.084,0.006,0.129l-5.004-0.007C6,23.949,6,23.9,6,23.871V13.668
			C6,13.257,6.041,13.077,6.071,13H7h3h1h0.044C11.044,13.114,11.029,13.266,11.021,13.352z M14,16.998V22h-2v-8.332
			c0-0.061,0.009-0.139,0.018-0.223c0.037-0.389,0.082-0.872-0.213-1.197C11.658,12.088,11.452,12,11.223,12H11v-1.063
			C11,10.217,10.771,9,9.918,9H9V7.903c0.172,0.001,0.425,0.033,0.566,0.051C9.764,7.979,9.943,8,10.074,8H11h1h1h1h0.984
			c0.134,0,0.313-0.021,0.507-0.047c0.136-0.018,0.354-0.046,0.509-0.05V11h-0.215C15.354,11,15,11.352,15,11.785v0.43
			c0,0.206,0.084,0.392,0.215,0.532C14.48,14.131,14,16.961,14,16.998z M18,22.15c0,0.328-0.193,0.765-0.313,0.85l-2.478,0.021
			C15.128,22.949,15,22.552,15,22.15V22v-4.998c0.018-0.447,0.782-3.354,1.18-4.002h0.506c0.408,0.618,1.287,3.479,1.314,3.998
			V22.15z"/>
		<path fill="#FCB033" d="M8.967,4.764c0.475,0,0.86-0.386,0.86-0.861c0-0.083,0-0.338-0.433-1.056L8.967,2.135L8.538,2.847
			C8.105,3.565,8.105,3.819,8.105,3.903C8.105,4.377,8.492,4.764,8.967,4.764z"/>
	</g>
</g>
</svg>
