<?xml version="1.0" encoding="utf-8"?>
<!-- Generator: Adobe Illustrator 16.0.0, SVG Export Plug-In . SVG Version: 6.00 Build 0)  -->
<!DOCTYPE svg PUBLIC "-//W3C//DTD SVG 1.1//EN" "http://www.w3.org/Graphics/SVG/1.1/DTD/svg11.dtd">
<svg version="1.1" id="Layer_1" xmlns="http://www.w3.org/2000/svg" xmlns:xlink="http://www.w3.org/1999/xlink" x="0px" y="0px"
	 width="20.344px" height="20.313px" viewBox="0 0 20.344 20.313" enable-background="new 0 0 20.344 20.313" xml:space="preserve">
<g id="Layer_2" display="none">
	<g display="inline">
		<path fill="#FCB033" d="M81.734-108.728c1.601,0.23,1.66,0.294,1.937,1.875c0.239,1.376,0.481,2.752,0.726,4.129
			c0.334,1.889-0.188,2.743-2.031,3.331c-0.51,2.646-1.09,3.253-3.008,3.172c-1.678-0.068-2.31-0.835-2.564-3.224
			c-1.217,0-2.455,0-3.689,0c-1.219,0-2.435,0-3.363,0c-0.497,1.021-0.758,2.006-1.375,2.646c-0.428,0.438-1.354,0.546-2.055,0.546
			c-1.615-0.001-2.213-0.823-2.43-3.063c-0.467-0.234-0.986-0.406-1.391-0.726c-0.729-0.588-0.941-1.412-0.773-2.332
			c0.271-1.492,0.543-2.982,0.809-4.479c0.277-1.584,0.334-1.642,1.896-1.875c0.143-1.043,0.229-2.106,0.438-3.146
			c0.461-2.288,2.349-3.991,4.676-4.091c2.314-0.103,4.645-0.119,6.961-0.016c2.765,0.125,4.725,2.123,5.008,4.895
			C81.574-110.319,81.65-109.552,81.734-108.728z M79.627-108.692c0.213-3.413-1.111-5.618-3.75-5.199
			c-0.202,1.612-0.385,1.771-2.02,1.774c-0.416,0.003-0.832,0.001-1.248,0.001c-1.936-0.001-1.949-0.014-2.348-1.834
			c-2.798-0.211-3.854,1.937-3.714,5.258C70.909-108.692,75.27-108.692,79.627-108.692z M65.955-105.452
			c-1.063,0.005-1.943,0.876-1.953,1.921c-0.01,1.057,0.953,1.991,2.016,1.96c1.039-0.029,1.914-0.943,1.896-1.979
			C67.896-104.606,67.018-105.457,65.955-105.452z M80.191-105.454c-1.063,0.016-1.924,0.892-1.916,1.944
			c0.008,1.043,0.896,1.932,1.938,1.937c1.075,0.005,2.006-0.941,1.971-2.005C82.146-104.631,81.258-105.469,80.191-105.454z"/>
	</g>
	<g display="inline">
		<path fill="#FCB033" d="M86.5-95.5c-0.275,0-0.5-0.226-0.5-0.5v-14c0-0.276,0.225-0.5,0.5-0.5c0.273,0,0.5,0.224,0.5,0.5v14
			C87-95.724,86.775-95.5,86.5-95.5z"/>
	</g>
	<g display="inline">
		<path fill="#FCB033" d="M88.5-95.5c-0.275,0-0.5-0.226-0.5-0.5v-14c0-0.276,0.225-0.5,0.5-0.5c0.273,0,0.5,0.224,0.5,0.5v14
			C89-95.724,88.775-95.5,88.5-95.5z"/>
	</g>
	<g display="inline">
		<g>
			<path fill="#FCB033" d="M90.541-116.947c0,0.705-0.223,1.244-0.662,1.619c-0.439,0.373-1.066,0.559-1.88,0.559H87.4v2.33h-1.389
				v-6.551h2.094c0.795,0,1.396,0.17,1.813,0.514C90.334-118.135,90.541-117.625,90.541-116.947z M87.402-115.906h0.457
				c0.43,0,0.748-0.086,0.959-0.254c0.214-0.17,0.318-0.414,0.318-0.738c0-0.326-0.09-0.564-0.269-0.721
				c-0.181-0.156-0.456-0.232-0.836-0.232H87.4v1.945H87.402z"/>
		</g>
	</g>
	<g display="inline">
		<path fill="#FCB033" d="M87.584-110.24c-3.311,0-6-2.691-6-6s2.689-6,6-6c3.309,0,6,2.691,6,6S90.893-110.24,87.584-110.24z
			 M87.584-121.24c-2.757,0-5,2.243-5,5s2.243,5,5,5s5-2.243,5-5S90.341-121.24,87.584-121.24z"/>
	</g>
	<g display="inline">
		<path fill="#FCB033" d="M21,1.853v20.733C21,23.08,20.273,24,19.67,24H5.738C5.134,24,4,23.08,4,22.586V1.853
			C4,1.338,5.189,1,5.738,1H19.67C20.219,1,21,1.338,21,1.853z M5,22.586C5,22.717,5.724,23,5.738,23H20c0,0,0-0.283,0-0.414V1.853
			C20,1.717,20,2,20,2H5.738C5.558,2,5,1.717,5,1.853V22.586z"/>
	</g>
	<g display="inline">
		<path fill="#FCB033" d="M16.82,3H8.076C7.605,3,8,3.674,8,4.223v10.421C8,15.195,7.605,15,8.076,15h8.742
			C17.313,15,17,15.152,17,14.646V4.223C17,3.716,17.313,3,16.82,3z M16.82,15h-0.608c-0.142-2-1.746-3.452-3.711-3.452
			S8.929,13,8.789,15H8.076C7.924,15,8,14.761,8,14.646V4.223C8,4.109,7.924,4,8.076,4h8.742C16.975,4,17,4.055,17,4.223v10.421
			C17,14.814,16.975,15,16.82,15z"/>
		<circle fill="#FCB033" cx="12.216" cy="8.558" r="1.984"/>
	</g>
	<g display="inline">
		<path fill="#FCB033" d="M7,15V3h11v12H7z M8,3v12h9V3H8z"/>
	</g>
	<rect x="7" y="14" display="inline" fill="#FCB033" width="11" height="1"/>
	<path display="inline" fill="#E7A723" d="M7.676,22.07v0.009l0.105-0.044c0.022-0.016,0.039-0.016,0.061-0.027
		c0.017-0.003,0.029-0.014,0.042-0.021L9.49,21.3l0.068-0.047c0.038-0.021,0.071-0.04,0.104-0.063l0.105-0.068l-0.003-0.027
		c0.279-0.242,0.408-0.572,0.296-1.072c-0.083-0.354,0.111-0.455,0.432-0.504c1.072-0.146,2.146-0.187,3.22-0.062
		c0.995,0.11,1.013,0.118,0.987,1.103c-0.008,0.199,0.049,0.332,0.137,0.442l0.008,0.037l0.125,0.06
		c0.051,0.033,0.074,0.074,0.146,0.104c0.213,0.087,0.429,0.179,0.644,0.271l0.771,0.37c0.092,0.044,0.184,0.084,0.271,0.134
		c0.021,0.017,0.038,0.016,0.06,0.022l0.13,0.062l-0.009-0.016c0.313,0.102,0.509-0.039,0.709-0.328
		c1.107-1.593,0.344-3.828-1.555-4.363c-2.479-0.691-4.973-0.678-7.461-0.021c-0.484,0.13-0.903,0.379-1.254,0.735
		c-1.029,1.031-1.117,2.724-0.21,3.789C7.351,22.033,7.485,22.118,7.676,22.07z"/>
</g>
<g id="gym" display="none">
	<g display="inline">
		<path fill="#FCB033" d="M3.073,6.405l0.592,0.412c-4.084,8.996,1.83,13.951,1.891,14c0.104,0.084,0.229,0.125,0.352,0.125
			c0.162,0,0.322-0.068,0.435-0.207c0.194-0.235,0.158-0.59-0.082-0.782c-0.219-0.185-5.212-4.427-1.659-12.48L6.148,8.55
			c0.096,0.066,0.207,0.1,0.319,0.1c0.175,0,0.349-0.083,0.458-0.238c0.177-0.252,0.114-0.603-0.139-0.777L3.901,5.619l-0.61-3.313
			C3.235,2.004,2.949,1.81,2.64,1.858C2.336,1.915,2.136,2.206,2.192,2.51l0.651,3.538C2.871,6.192,2.953,6.321,3.073,6.405z"/>
		<path fill="#FCB033" d="M22.579,18.885c0-2.927-2.381-5.352-5.312-5.352c-1.438,0-2.742,0.561-3.699,1.49l0.637-0.123L4.2,24
			H1.902c-0.31,0-0.559,0.188-0.559,0.5c0,0.311,0.25,0.5,0.559,0.5H3.02h7.544H22.02c0.313,0,0.563-0.189,0.563-0.5
			c0-0.313-0.253-0.5-0.563-0.5h-3.134C21.021,24,22.579,21.245,22.579,18.885z M11.837,24l1.587-1.395
			C14.032,23.253,14.809,24,15.67,24H11.837z M17.27,22.988c-1.24,0-2.343-0.551-3.105-1.405l2.388-2.39
			c0.218-0.219,0.218-0.569,0-0.791c-0.22-0.217-0.571-0.217-0.791,0l-1.872,1.871l-0.214-3.586
			c0.729-1.234,2.063-2.076,3.601-2.076c2.313,0,4.189,1.881,4.189,4.188C21.461,21.109,19.581,22.988,17.27,22.988z"/>
		<path fill="#FCB033" d="M23.133,8.973l-0.744-0.744C22.285,8.14,22.154,8,22.02,8h-5.588c-0.299,0-0.545,0.325-0.559,0.624
			c-0.016,0.298,0.21,0.601,0.507,0.628l0.945,0.106l1.549,0.623c-0.001,0.008-0.004,0.016-0.005,0.021l-0.563,2.331
			c-0.072,0.3,0.112,0.604,0.414,0.676c0.045,0.01,0.088,0.016,0.131,0.016c0.252,0,0.48-0.17,0.543-0.428l0.523-2.188l0.869,0.344
			c0.063,0.023,0.135,0.039,0.204,0.039c0.083,0,0.163-0.021,0.235-0.054l1.772-0.841c0.172-0.08,0.29-0.24,0.313-0.427
			C23.346,9.284,23.273,9.097,23.133,8.973z"/>
	</g>
</g>
<g id="Layer_18" display="none">
</g>
<g id="concierge" display="none">
	<g display="inline">
		<path fill="#FCB033" d="M24.591,17.482c-0.147-2.65-1.307-5.254-3.11-7.191c-0.914-0.981-1.981-1.819-3.172-2.444
			c-0.582-0.306-1.188-0.56-1.813-0.761c-0.25-0.08-0.469-0.132-0.452-0.439c0.019-0.436,0.015-0.873,0.009-1.309
			c-0.004-0.393-0.014-0.545,0.264-0.821c0.185-0.182,0.313-0.418,0.33-0.677c0.056-0.648-0.535-1.102-1.069-1.324
			c-1.354-0.563-3.002-0.553-4.419-0.275c-0.597,0.113-1.245,0.324-1.68,0.771C9.034,3.459,9.072,4.157,9.545,4.571
			c0.179,0.156,0.408,0.229,0.403,0.5C9.94,5.458,9.937,5.843,9.941,6.229c0.003,0.265,0.099,0.585-0.219,0.674
			C9.375,7,9.032,7.11,8.692,7.234C6.285,8.13,4.254,9.806,2.865,11.962c-0.688,1.064-1.198,2.243-1.497,3.477
			c-0.146,0.604-0.242,1.218-0.292,1.834c-0.047,0.572-0.133,1.088-0.04,1.658C1.1,19.329,2.181,19,2.447,19
			c0.842,0,1.683,0,2.523,0c1.617,0,3.234,0,4.851,0c3.223,0,6.447,0.166,9.667,0.125c1.205-0.018,2.412,0.025,3.619,0.016
			c0.367-0.004,1.209,0.17,1.521-0.082c0.108-0.091,0.017-0.629,0.017-0.771C24.643,18.008,24.605,17.758,24.591,17.482
			C24.547,16.699,24.596,17.566,24.591,17.482z M15.271,3.761c-0.926,0.605-3.822,0.605-4.732,0
			C11.428,3.15,14.373,3.15,15.271,3.761z M14.419,6.334c0.04,0.317-0.247,0.232-0.459,0.21c-0.38-0.045-0.767-0.064-1.147-0.063
			c-0.355,0-0.713,0.018-1.068,0.052c-0.249,0.021-0.18-0.431-0.18-0.595c0.004-0.316,0.211-0.332,0.474-0.301
			c0.323,0.038,0.657,0.017,0.981,0.017c0.354,0,0.709,0.005,1.063,0C14.573,5.648,14.369,5.94,14.419,6.334
			C14.448,6.567,14.396,6.161,14.419,6.334z M22.876,17.755C22.865,17.833,22.721,18,22.645,18c-0.19,0-0.387,0-0.58,0
			c-0.387,0-0.771,0-1.154,0c-0.84,0-1.676,0-2.514,0c-1.604,0-3.215,0-4.82,0c-3.233,0-6.461-0.1-9.692-0.124
			c-0.289-0.003-0.81-0.09-1.072-0.212c-0.22-0.104-0.058-0.637-0.032-0.807c0.113-0.715,0.295-1.43,0.549-2.106
			c0.471-1.255,1.199-2.405,2.108-3.39c1.768-1.906,4.24-3.032,6.829-3.208c2.793-0.188,5.592,0.917,7.612,2.839
			c0.896,0.854,1.618,1.876,2.136,3c0.27,0.581,0.481,1.23,0.647,1.85"/>
		<path fill="#FCB033" d="M20.604,13.732c-0.856-1.897-2.479-3.271-4.303-4.223c-0.867-0.452-1.783-0.618-2.496,0.211
			c-0.466,0.541-0.584,1.36-0.14,1.95c0.248,0.33,0.612,0.49,0.974,0.671c0.428,0.217,0.844,0.46,1.232,0.743
			c0.729,0.533,1.35,1.206,1.768,2.011c0.188,0.355,0.33,0.688,0.709,0.883c0.385,0.196,0.856,0.197,1.258,0.047
			C20.498,15.688,21.006,14.621,20.604,13.732C20.261,12.979,20.702,13.952,20.604,13.732z M19.072,14.906
			c-0.215,0.025-0.275-0.229-0.35-0.374c-0.147-0.296-0.318-0.576-0.513-0.847c-0.382-0.535-0.853-1.006-1.364-1.412
			c-0.474-0.366-0.982-0.683-1.514-0.961c-0.189-0.102-0.54-0.191-0.682-0.37c-0.172-0.216,0.143-0.535,0.34-0.589
			c0.417-0.108,1.105,0.44,1.445,0.646c0.537,0.327,1.049,0.7,1.508,1.131C18.277,12.443,20.373,14.74,19.072,14.906
			C18.9,14.93,19.294,14.879,19.072,14.906z"/>
		<rect x="1" y="20" fill="#FCB033" width="24" height="2"/>
	</g>
</g>
<g id="maid" display="none">
	<g display="inline">
		<g>
			<path fill="#FCB033" d="M9.823,24.296c0.414,0,0.753,0.308,0.812,0.704h4.646c0.057-0.396,0.396-0.704,0.81-0.704
				s0.753,0.308,0.813,0.704h4.938c-0.168-2.871-2.126-4.357-4.046-5.438c-0.192-0.104-0.261-0.317-0.351-0.61
				c-0.02-0.058-0.041-0.136-0.063-0.191c-0.258-0.081-0.834-0.118-1.267-0.146c-0.528-0.032-1.034-0.064-1.42-0.162l-1.705,3.143
				l-1.813-3.256c-0.294,0.096-0.697,0.186-1.232,0.303c-0.448,0.099-1.002,0.215-1.225,0.312c-0.03,0.052-0.071,0.142-0.099,0.196
				c-0.108,0.235-0.203,0.438-0.394,0.539C5.84,20.979,3.987,22.197,3.829,25h5.184C9.07,24.604,9.411,24.296,9.823,24.296z
				 M16.091,21.886c0.454,0,0.822,0.368,0.822,0.823c0,0.453-0.368,0.824-0.822,0.824s-0.821-0.371-0.821-0.824
				C15.27,22.254,15.637,21.886,16.091,21.886z M9.823,21.886c0.453,0,0.822,0.368,0.822,0.823c0,0.453-0.369,0.824-0.822,0.824
				c-0.453,0-0.822-0.371-0.822-0.824C9.001,22.254,9.37,21.886,9.823,21.886z"/>
			<path fill="#FCB033" d="M10.886,7.879C10.062,7.985,9.426,8.341,8.95,8.96c-1.41,1.828-0.855,5.276-0.851,5.313l0.216,1.287
				c0.839,0.866,1.927,1.491,3.149,1.76c0.021,0.007,0.041,0.013,0.063,0.02c0.41,0.085,0.837,0.13,1.271,0.13
				c2.208,0,4.144-1.149,5.252-2.878l-0.061-0.699l-0.306-3.542C13.932,9.919,11.475,8.302,10.886,7.879z M9.736,11.726
				c0-0.454,0.369-0.823,0.823-0.823c0.457,0,0.824,0.369,0.824,0.823s-0.367,0.823-0.824,0.823
				C10.104,12.549,9.736,12.182,9.736,11.726z M14.9,14.573c-1.315,0.827-2.896,0.834-4.174-0.063
				c-0.457-0.318,0.119-0.965,0.568-0.648c0.951,0.668,2.163,0.604,3.125-0.004C14.893,13.563,15.372,14.277,14.9,14.573z
				 M14.898,12.549c-0.453,0-0.82-0.369-0.82-0.823s0.367-0.823,0.82-0.823c0.455,0,0.822,0.369,0.822,0.823
				S15.354,12.549,14.898,12.549z"/>
			<path fill="#FCB033" d="M6.666,12.373c0.234,0.617,0.57,1.271,1.043,1.965c0,0-1.083-6.465,3.288-6.872
				c0,0,2.685,2.113,7.058,2.519l0.331,3.871c0,0,0.192-0.317,0.4-0.877c0.269-0.726,0.563-1.856,0.479-3.215
				c-0.039-0.667-0.172-1.388-0.438-2.141c-0.193-0.541-0.458-1.101-0.813-1.665c0,0.068-0.002,0.143-0.002,0.214V6.37h-0.141
				h-0.563h-0.595H8.88H8.288H7.721H7.623C7.474,6.53,7.154,6.909,6.856,7.478c-0.361,0.691-0.688,1.659-0.631,2.863
				C6.255,10.959,6.388,11.638,6.666,12.373z"/>
			<path fill="#FCB033" d="M7.865,5.52C7.866,5.58,7.866,5.636,7.868,5.692c0,0.096,0,0.188,0.002,0.282h0.265h0.62h0.679h6.729
				h0.68h0.62h0.156c0-0.149,0.006-0.301,0.006-0.454c0.002-0.034,0.002-0.065,0.002-0.103c0-0.094,0-0.189,0.003-0.284
				c0-0.091,0-0.182,0-0.273c-0.003-0.998-0.067-1.934-0.505-2.376c-0.193-0.196-0.458-0.293-0.807-0.293H9.171
				c-0.35,0-0.611,0.097-0.806,0.293C7.902,2.955,7.854,3.98,7.861,5.049c0,0.1,0.002,0.199,0.002,0.298
				C7.865,5.407,7.865,5.463,7.865,5.52z"/>
		</g>
	</g>
</g>
<g id="welcome_hamper-02" display="none">
	<g display="inline">
		<path fill="#FCB033" d="M12.969,21.844v0.271V21.844z"/>
		<polygon fill="#FCB033" points="10.26,21.844 10.26,22.115 10.261,21.844 		"/>
		<polygon fill="#FCB033" points="15.677,21.844 15.677,22.115 15.678,21.844 		"/>
		<path fill="#FCB033" d="M24.275,10.72l-0.383-0.383c-0.213-0.211-0.453-0.746-0.539-0.66L19.602,13H6.263L2.509,9.677
			C2.423,9.591,2.183,9.909,1.97,10.121l-0.383,0.489c-0.211,0.213-0.313,0.075-0.229,0.16L3.965,13H2.677
			C2.377,13,2,14.105,2,14.404v0.541C2,15.246,2.377,16,2.677,16h1.43l1.599,7.475C5.748,24.008,6.126,24,6.801,24h12.064
			c0.675,0,1.053-0.002,1.097-0.535L21.578,16h1.141C23.018,16,23,15.246,23,14.945v-0.541C23,14.105,23.018,13,22.719,13h-0.82
			l2.605-2.174C24.589,10.74,24.488,10.932,24.275,10.72z M9,21.844v-4.875c0-0.299,0.701-0.542,1-0.542s1,0.243,1,0.542v4.875
			c0,0.299-0.701,0.542-1,0.542S9,22.143,9,21.844z M12,21.844v-4.875c0-0.299,0.702-0.542,1-0.542c0.299,0,1,0.243,1,0.542v4.875
			c0,0.299-0.701,0.542-1,0.542C12.702,22.386,12,22.143,12,21.844z M15,21.844v-4.875c0-0.299,0.701-0.542,1-0.542s1,0.243,1,0.542
			v4.875c0,0.299-0.701,0.542-1,0.542S15,22.143,15,21.844z"/>
	</g>
</g>
<g id="pet_friendly" display="none">
	<g display="inline">
		<path fill="#FCB033" d="M-53.053-86.798c-1.216,0.831-3.753-0.924-6.297-0.941c-2.543-0.019-5.151,1.741-6.324,0.942
			c-1.174-0.801,1.126-7.194,6.324-7.214C-54.151-94.031-51.836-87.629-53.053-86.798z"/>
	</g>
	
		<ellipse transform="matrix(0.9904 -0.1383 0.1383 0.9904 12.392 -10.1778)" display="inline" fill="#FCB033" cx="-67.042" cy="-94.26" rx="2.203" ry="3.037"/>
	
		<ellipse transform="matrix(0.9985 -0.0552 0.0552 0.9985 5.3032 -3.5978)" display="inline" fill="#FCB033" cx="-62.491" cy="-97.82" rx="2.203" ry="3.037"/>
	
		<ellipse transform="matrix(0.975 0.2221 -0.2221 0.975 -23.2208 10.1528)" display="inline" fill="#FCB033" cx="-56.754" cy="-98.174" rx="2.203" ry="3.037"/>
	
		<ellipse transform="matrix(0.8003 0.5995 -0.5995 0.8003 -67.7115 11.6439)" display="inline" fill="#FCB033" cx="-51.338" cy="-95.843" rx="2.203" ry="3.037"/>
	<g display="inline">
		<path fill="#FCB033" d="M-12.053-90.798c-1.216,0.831-3.753-0.924-6.297-0.941c-2.543-0.019-5.151,1.741-6.324,0.942
			c-1.174-0.801,1.126-7.194,6.324-7.214C-13.151-98.031-10.836-91.629-12.053-90.798z"/>
	</g>
	
		<ellipse transform="matrix(0.9904 -0.1381 0.1381 0.9904 13.3192 -4.5372)" display="inline" fill="#FCB033" cx="-26.041" cy="-98.263" rx="2.203" ry="3.038"/>
	
		<ellipse transform="matrix(0.9985 -0.0554 0.0554 0.9985 5.6088 -1.3472)" display="inline" fill="#FCB033" cx="-21.491" cy="-101.822" rx="2.203" ry="3.037"/>
	
		<ellipse transform="matrix(0.9751 0.2219 -0.2219 0.9751 -23.0648 0.9491)" display="inline" fill="#FCB033" cx="-15.757" cy="-102.182" rx="2.203" ry="3.037"/>
	
		<ellipse transform="matrix(0.8003 0.5995 -0.5995 0.8003 -61.9245 -13.738)" display="inline" fill="#FCB033" cx="-10.335" cy="-99.845" rx="2.203" ry="3.037"/>
	<g display="inline">
		<g>
			<path fill="none" stroke="#FCB033" stroke-miterlimit="10" d="M18.678,22.713c-1.363,0.936-4.213-1.033-7.066-1.056
				c-2.854-0.021-5.779,1.952-7.098,1.059c-1.317-0.896,1.264-8.073,7.098-8.095C17.445,14.6,20.043,21.782,18.678,22.713z"/>
		</g>
		
			<ellipse transform="matrix(0.9904 -0.1383 0.1383 0.9904 -1.8624 0.544)" fill="none" stroke="#FCB033" stroke-miterlimit="10" cx="2.984" cy="13.677" rx="2.472" ry="3.409"/>
		
			<ellipse transform="matrix(0.9984 -0.0557 0.0557 0.9984 -0.5264 0.4653)" fill="none" stroke="#FCB033" stroke-miterlimit="10" cx="8.083" cy="9.676" rx="2.472" ry="3.408"/>
		
			<ellipse transform="matrix(0.975 0.2221 -0.2221 0.975 2.4218 -2.9946)" fill="none" stroke="#FCB033" stroke-miterlimit="10" cx="14.524" cy="9.27" rx="2.471" ry="3.408"/>
		
			<ellipse transform="matrix(0.8003 0.5997 -0.5997 0.8003 11.2471 -9.9771)" fill="none" stroke="#FCB033" stroke-miterlimit="10" cx="20.6" cy="11.894" rx="2.473" ry="3.408"/>
	</g>
</g>
<g id="welcome_hamper-01" display="none">
	<g display="inline">
		<polygon fill="#FCB033" points="12.605,21.334 12.605,21.662 12.605,21.334 		"/>
		<polygon fill="#FCB033" points="9.322,21.334 9.322,21.662 9.323,21.334 		"/>
		<polygon fill="#FCB033" points="15.889,21.662 15.889,21.334 15.889,21.334 		"/>
		<path fill="#FCB033" d="M24.424,12H21.79h-0.847c-0.313-5-4.112-8.126-8.75-8.126C7.557,3.874,3.759,7,3.443,12H3.092H0.129
			C-0.234,12,0,11.954,0,12.316v0.656C0,13.337-0.234,13,0.129,13h1.732L3.8,22.71C3.853,23.359,4.311,24,5.128,24h14.626
			c0.814,0,1.273-0.65,1.327-1.3l1.96-9.7h1.382C24.788,13,25,13.337,25,12.973v-0.656C25,11.954,24.788,12,24.424,12z M9,21.334
			v-5.91c0-0.361,0.638-0.656,1-0.656c0.361,0,1,0.295,1,0.656v5.91c0,0.361-0.639,0.657-1,0.657C9.638,21.991,9,21.697,9,21.334z
			 M12,21.334v-5.91c0-0.361,0.639-0.656,1-0.656c0.359,0,1,0.295,1,0.656v5.91c0,0.361-0.641,0.657-1,0.657
			C12.639,21.991,12,21.697,12,21.334z M17,21.334c0,0.361-0.639,0.657-1,0.657c-0.363,0-1-0.296-1-0.657v-5.91
			c0-0.361,0.637-0.656,1-0.656c0.361,0,1,0.295,1,0.656V21.334z M12.195,4.531C16.459,4.531,19.96,8,20.288,12H4.102
			C4.431,8,7.931,4.531,12.195,4.531z"/>
	</g>
</g>
<g id="wlecome-provisions" display="none">
	<g display="inline">
		<path fill="#FCB033" d="M18.135,3.564c-0.006,0.003-0.012,0.017-0.018,0.021C18.448,3.58,18.128,3.568,18.135,3.564z"/>
		<path fill="#FCB033" d="M20.525,3.453C20.762,3.304,21,3.042,21,2.743V2.258C21,1.794,20.379,1,19.915,1h-1.933
			C17.521,1,17,1.794,17,2.258v0.485c0,0.298,0.229,0.561,0.463,0.71c-0.273,0.419-0.521,1.031-0.792,1.729
			c-1.04-0.346-2.188-0.537-3.396-0.537c-2.758,0-4.943,1.212-5.984,2.25l0.072,0.068l-4.938,4.724
			c-0.454,0.563-0.922,1.2-0.922,1.881C1.501,14.454,2,15.453,3,16.213v4.571C3,22.184,4.168,23,5.325,23h6.384
			c0.104,0,0.197,0.277,0.291,0.434c0.184,0.299,0.41,0.69,0.852,0.799c0.39,0.099,0.801,0.332,1.229,0.332
			c2.031,0,4.234-1.563,5.521-2.563h1.518C22.113,22,23,20.832,23,19.836v-8.667C23,10.75,21.721,5.283,20.525,3.453z M8.116,7.075
			l0.07-0.006c1.046-0.848,2.866-1.702,5.106-1.702c1.123,0,2.2,0.175,3.16,0.489c-0.548,1.525-1.025,3.271-1.28,4.338
			c-0.895-0.839-2.747-0.853-5.089-0.813c-0.516,0.01-1.048,0.019-1.592,0.019c-1.179,0-2.276,0.178-3.232,0.489L8.116,7.075z
			 M5.325,22C4.228,22,4,21.154,4,20.784v-5.031l-0.14-0.094c-1.245-0.566-1.46-1.218-1.46-2.085c0-1.933,2.68-3.438,6.075-3.438
			c0.548,0,1.094,0.001,1.613-0.007c2.112-0.039,3.953-0.047,4.62,0.606C14.896,10.922,15,10.807,15,11.529v1.784
			c0-0.047-0.426-0.078-0.652-0.078c-1.367,0-2.842,0.865-3.471,1.701c-1.486,1.977-1.858,4.724-0.881,6.782
			C10.092,21.92,10.229,22,10.382,22H5.325z M19.092,21.128c-1.148,1.521-3.162,2.546-5.014,2.546c-0.369,0-0.725-0.041-1.057-0.122
			c-0.145-0.034-0.25-0.194-0.406-0.452c-0.133-0.216-0.326-0.461-0.563-0.639C12.051,22.459,12,22.457,12,22.455l-0.417-0.122
			l0.5,0.5c-0.192,0-0.539-0.862-0.724-0.938c-0.373-0.15-0.605-0.168-0.714-0.395c-0.854-1.807-0.511-4.436,0.803-6.176
			c0.512-0.682,1.761-1.393,2.888-1.393c0.209,0,0.4,0.039,0.576,0.09c0.332,0.102,0.566,0.475,0.842,0.898
			c0.154,0.242,0.313,0.494,0.51,0.721c0.133,0.154,0.271,0.281,0.41,0.385c0.396,0.285,0.878,0.412,1.344,0.535
			c0.498,0.129,0.969,0.254,1.188,0.555C20.009,18.221,19.807,20.182,19.092,21.128z M22,19.836C22,20.434,21.715,21,21.117,21
			h-1.09c0.559-1,0.601-3.116-0.239-4.271c-0.369-0.506-0.988-0.688-1.588-0.845c-0.334-0.088-0.677-0.192-0.948-0.342
			c0.008-0.031,0.02-0.067,0.021-0.101c0.014-0.426,1.356-0.834,2.561-0.863c0.199-0.005,0.355-0.163,0.354-0.362
			c-0.006-0.198-0.17-0.325-0.371-0.333c-0.188,0.006-0.645,0.032-1.151,0.12c0.003-0.412-0.337-0.937-0.771-1.354
			c-0.604-0.58-1.447-0.655-1.48-0.657l-0.443-0.038l0.057,0.439c0.004,0.035,0.115,0.877,0.719,1.457
			c0.227,0.217,0.459,0.395,0.682,0.518c-0.326,0.15-0.598,0.354-0.744,0.622c-0.104-0.146-0.061-0.3-0.156-0.449
			C16.316,14.234,16,13.934,16,13.695v-2.525C16,10.327,17.428,4,18.117,4c-0.063,0-0.141,0-0.25,0l0,0l0.268-0.438L19,3h-1.133l0,0
			h0.115C17.92,3,18,2.809,18,2.743V2.258C18,2.192,17.92,2,17.984,2h1.932C19.98,2,20,2.192,20,2.258v0.485
			C20,2.809,19.98,3,19.915,3H19v0.584c0,0,0.156-0.017,0.146-0.021C19.826,4.009,22,10.32,22,11.168V19.836z M18.07,14.133v-0.279
			l0,0V14.133z M17.871,13.791c-0.165-0.076-0.396-0.229-0.641-0.459c-0.146-0.143-0.25-0.311-0.324-0.468
			c0.16,0.067,0.333,0.167,0.479,0.308C17.645,13.422,17.794,13.641,17.871,13.791z"/>
	</g>
	<path display="inline" fill="#FCB033" d="M6.367,8.343c-0.014,0.006-0.193-0.15,0.268-0.237c0.227-0.05,0.498-0.088,0.784-0.13
		c0.285-0.043,0.595-0.059,0.895-0.087l0.449-0.002c0.146,0.003,0.291-0.012,0.422,0.01c0.132,0.017,0.26,0.029,0.38,0.043
		C9.682,7.96,9.803,7.957,9.891,7.991c0.361,0.104,0.602,0.177,0.602,0.177S10.228,8.132,9.83,8.08
		C9.738,8.06,9.612,8.078,9.496,8.076C9.377,8.078,9.252,8.08,9.123,8.083C8.998,8.078,8.855,8.11,8.72,8.124L8.308,8.176
		c-0.276,0.062-0.549,0.108-0.8,0.178c-0.251,0.07-0.482,0.131-0.674,0.199C6.448,8.677,5.686,8.871,5.67,8.874L6.367,8.343z"/>
	<path display="inline" fill="#FCB033" d="M7.372,7.37C7.359,7.376,7.174,7.197,7.635,7.109c0.227-0.051,0.498-0.088,0.784-0.13
		S9.015,6.926,9.315,6.9l0.451,0.009c0.146,0.007,0.292-0.008,0.425,0.021c0.133,0.021,0.262,0.038,0.383,0.056
		c0.117,0.023,0.238,0.023,0.328,0.063c0.363,0.127,0.605,0.212,0.605,0.212s-0.266-0.113-0.667-0.181
		C10.75,7.055,10.624,7,10.506,7c-0.119,0-0.244,0-0.374,0c-0.125,0-0.268,0.093-0.404,0.104L9.316,7.189
		c-0.276,0.063-0.549,0.127-0.799,0.2s-0.48,0.146-0.671,0.218C7.46,7.74,6.699,7.943,6.684,7.946L7.372,7.37z"/>
	<rect x="33.001" y="-17.95" display="inline" fill="#FCB033" width="7.666" height="6.899"/>
</g>
<g id="toiletries" display="none">
	<path display="inline" fill="#FCB033" d="M22.986,16.241l-0.775-1.056c0.348-0.228,0.979-0.73,1.104-1.498
		c0.08-0.479-0.047-0.959-0.375-1.436l0.047-0.033l-0.816-1.112c0.331-0.249,0.676-0.604,0.727-1.036
		c0.025-0.222-0.032-0.537-0.354-0.847l0.038-0.074l-8.31-4.277c-0.293-0.285-0.811-0.667-1.549-0.766
		c-1.009-0.132-2.087,0.297-3.214,1.273L3.095,8.997l0.062,0.106l-0.038-0.05l-1.682,1.281l1.591,0.933l-0.974,1.127
		c-0.078,0.092-0.112,0.213-0.092,0.33c0.02,0.119,0.091,0.225,0.195,0.282l0.597,0.345l-1.317,1.004l1.591,0.937L2.054,16.42
		c-0.078,0.091-0.112,0.212-0.092,0.329c0.02,0.118,0.091,0.222,0.195,0.282l0.597,0.343l-1.317,1.005l5.692,3.337
		c0.159,0.118,2.97,2.206,5.7,2.205c0.97,0,1.93-0.262,2.756-0.971l6.396-3.604c0.047-0.021,1.162-0.591,1.336-1.634
		c0.078-0.479-0.047-0.959-0.375-1.437L22.986,16.241z M3.605,9.695L3.572,9.651l6.366-3.587l0.068-0.047
		c0.952-0.833,1.822-1.206,2.602-1.109c0.336,0.042,0.604,0.168,0.811,0.306l-0.051,0.1L13.79,5.53
		c0.062,0.066,0.094,0.114,0.101,0.121l0.057-0.04l8.017,4.129L21.945,9.76c0.076,0.059,0.162,0.146,0.152,0.224
		c-0.021,0.219-0.48,0.583-0.904,0.788l-6.104,3.504c-2.659,2.33-7.426-1.207-7.514-1.271L2.876,10.25L3.605,9.695z M3.508,13.789
		l7.527,4.347c0.063,0.036,0.133,0.054,0.201,0.054c0.139,0,0.273-0.068,0.348-0.197c0.111-0.192,0.045-0.438-0.146-0.553
		l-8.458-4.883l0.754-0.873l3.396,1.989c0.16,0.121,2.994,2.226,5.71,2.226c0.96,0,1.906-0.264,2.712-0.971l4.848-2.775l0.727,1.022
		l-7.948,3.815c-0.198,0.096-0.284,0.337-0.188,0.531c0.069,0.146,0.214,0.229,0.362,0.229c0.061,0,0.116-0.016,0.174-0.039
		l8.377-4.021c0.105-0.053,0.188-0.146,0.218-0.262c0.026-0.115,0.007-0.238-0.063-0.336L21.1,11.747l0.381-0.221l0.549,0.748
		l-0.063,0.063c0.432,0.438,0.617,0.846,0.559,1.217c-0.104,0.639-0.896,1.047-0.918,1.062l-6.448,3.634l-0.067,0.046
		c-2.66,2.331-7.426-1.207-7.514-1.271L2.876,14.27L3.508,13.789z M21.604,18.635l-6.444,3.635l-0.068,0.047
		c-2.659,2.328-7.426-1.209-7.514-1.271L2.88,18.292l0.632-0.479l7.527,4.349c0.063,0.034,0.133,0.053,0.202,0.053
		c0.138,0,0.272-0.069,0.347-0.198c0.112-0.192,0.045-0.438-0.146-0.551l-8.46-4.887l0.754-0.872l3.396,1.986
		c0.159,0.121,2.97,2.207,5.7,2.207c0.97,0,1.93-0.265,2.756-0.971l4.835-2.728l0.702,0.989l-7.948,3.813
		c-0.199,0.097-0.283,0.337-0.188,0.537c0.068,0.144,0.214,0.228,0.363,0.228c0.06,0,0.115-0.012,0.174-0.039l8.375-4.02
		c0.104-0.053,0.188-0.147,0.217-0.262c0.027-0.115,0.007-0.238-0.063-0.334l-0.933-1.313l0.385-0.215l0.521,0.707l-0.063,0.063
		c0.43,0.438,0.617,0.849,0.559,1.216C22.418,18.214,21.628,18.623,21.604,18.635z"/>
</g>
<g id="phone" display="none">
	<g display="inline">
		<path fill="#FCB033" d="M9.911,3.09c0.006,0.008,0.043,0.071,0.062,0.161c0.026,0.09,0.064,0.199,0.104,0.309l0.604,1.706
			c0.156,0.393,0.32,0.799,0.49,1.201c0.064,0.161,0.072,0.286,0.077,0.368l0.149,0.45L11.292,7.45
			c-0.063,0.355-0.233,0.658-0.533,0.94c-1.054,1.006-1.054,1.006-0.106,2.19c1.186,1.49,2.602,2.848,4.328,4.148
			c0.256,0.188,0.367,0.221,0.41,0.221c0.03,0,0.104-0.063,0.188-0.194c0.518-0.821,1.189-1.247,2.01-1.266l0.033-0.039l0.539,0.062
			c0.089,0.021,0.186,0.038,0.277,0.072l0.092,0.012l3.216,1.272c0.058,0.016,0.101,0.035,0.123,0.047l0.6,0.394l0.069,0.109
			c0.197,0.314,0.199,0.688,0.176,0.973c-0.229,2.866-2.836,5.215-5.811,5.229H16.84c-1.02,0-1.971-0.251-2.836-0.749
			c-4.36-2.536-7.779-5.97-10.164-10.196C2.901,9.01,2.83,7.067,3.64,5.342c0.809-1.717,2.403-2.943,4.271-3.281
			C8.453,1.963,8.879,1.998,9.218,2.19 M8.458,2.914c-0.118,0-0.246,0.015-0.389,0.041c-1.601,0.29-2.916,1.301-3.608,2.772
			c-0.686,1.456-0.622,3.097,0.167,4.5c2.303,4.085,5.609,7.403,9.826,9.854c0.726,0.416,1.524,0.628,2.383,0.628v0.455l0.058-0.455
			c2.52-0.01,4.717-1.98,4.912-4.396c0.035-0.39-0.045-0.438-0.129-0.484l-0.354-0.146l-3.12-1.222
			c-0.117-0.033-0.171-0.044-0.226-0.058l-0.066-0.016l-0.146,0.016l-0.119-0.006c-0.357,0-0.83,0.101-1.299,0.838
			c-0.256,0.412-0.574,0.621-0.953,0.621c-0.365,0-0.688-0.195-0.953-0.396c-1.791-1.354-3.26-2.762-4.495-4.313
			C8.604,9.472,8.62,9.185,10.134,7.735c0.215-0.201,0.259-0.357,0.274-0.5L10.41,7.21l-0.027-0.081
			c-0.032-0.126-0.036-0.186-0.04-0.244C10.163,6.414,9.996,6,9.831,5.586l-0.61-1.725C9.175,3.732,9.129,3.6,9.093,3.468
			c0,0.002,0,0.004,0,0.004c-0.005,0-0.029-0.047-0.047-0.106L8.977,3.223C8.859,2.992,8.728,2.914,8.458,2.914z"/>
	</g>
</g>
<g id="car-park" display="none">
	<g display="inline">
		<path fill="#FCB033" d="M14.573,15.682c1.017,0.146,1.057,0.188,1.229,1.189c0.152,0.874,0.308,1.747,0.462,2.623
			c0.211,1.195-0.123,1.738-1.291,2.111c-0.324,1.683-0.688,2.064-1.91,2.019c-1.063-0.046-1.463-0.53-1.627-2.048
			c-0.772,0-1.561,0-2.346,0c-0.773,0-1.545,0-2.136,0c-0.316,0.646-0.481,1.271-0.874,1.679c-0.271,0.28-0.859,0.347-1.306,0.347
			c-1.025,0-1.404-0.521-1.542-1.939c-0.297-0.15-0.628-0.262-0.882-0.461c-0.465-0.375-0.6-0.896-0.493-1.48
			c0.171-0.949,0.346-1.896,0.513-2.844c0.177-1.008,0.211-1.043,1.206-1.191c0.089-0.66,0.144-1.338,0.276-1.998
			c0.293-1.455,1.49-2.536,2.969-2.599c1.472-0.064,2.949-0.075,4.421-0.009c1.755,0.08,3,1.349,3.181,3.105
			C14.473,14.669,14.521,15.157,14.573,15.682z M13.234,15.702c0.137-2.167-0.702-3.567-2.381-3.304
			c-0.129,1.023-0.245,1.125-1.279,1.129c-0.266,0.004-0.529,0-0.794,0c-1.228,0-1.238-0.01-1.489-1.168
			c-1.777-0.133-2.448,1.23-2.358,3.342C7.699,15.702,10.469,15.702,13.234,15.702z M4.553,17.762
			c-0.672,0.002-1.235,0.557-1.24,1.219c-0.006,0.672,0.605,1.269,1.28,1.246c0.659-0.021,1.215-0.6,1.204-1.259
			C5.785,18.298,5.227,17.758,4.553,17.762z M13.596,17.759c-0.674,0.011-1.222,0.566-1.218,1.236
			c0.004,0.662,0.567,1.228,1.229,1.229c0.685,0.002,1.271-0.6,1.252-1.272C14.836,18.283,14.271,17.749,13.596,17.759z"/>
	</g>
	<g display="inline">
		<g>
			<path fill="#FCB033" d="M21.285,8.97c0,0.54-0.17,0.952-0.51,1.239c-0.338,0.286-0.813,0.427-1.438,0.427h-0.455v1.783H17.82
				V7.406h1.604c0.605,0,1.069,0.129,1.389,0.394C21.126,8.061,21.285,8.451,21.285,8.97z M18.884,9.767h0.351
				c0.326,0,0.57-0.065,0.733-0.192c0.161-0.132,0.243-0.317,0.243-0.565c0-0.25-0.066-0.434-0.203-0.551
				c-0.137-0.12-0.351-0.18-0.641-0.18h-0.483V9.767z"/>
		</g>
	</g>
	<g display="inline">
		<path fill="#FCB033" d="M19.121,14.557c-2.736,0-4.961-2.226-4.961-4.963c0-2.736,2.225-4.962,4.961-4.962
			c2.734,0,4.965,2.226,4.965,4.962C24.086,12.331,21.857,14.557,19.121,14.557z M19.121,5.458c-2.279,0-4.139,1.854-4.139,4.135
			s1.855,4.138,4.139,4.138c2.277,0,4.137-1.854,4.137-4.138C23.258,7.313,21.4,5.458,19.121,5.458z"/>
	</g>
	<g display="inline">
		<rect x="18" y="14" fill="#FCB033" width="2" height="9"/>
	</g>
</g>
<g id="flat-screen-tv" display="none">
	<g display="inline">
		<path fill="#FCB033" d="M25,22H0V8h25V22z M1,21h23V9H1V21z"/>
	</g>
	<g display="inline">
		<rect x="2" y="10" fill="#FCB033" width="21" height="10"/>
	</g>
	<g display="inline">
		<rect x="2" y="23" fill="#FCB033" width="21" height="1"/>
	</g>
</g>
<g id="cctv" display="none">
	<path display="inline" fill="#FCB033" d="M23.882,8.583L9.279,2.477C8.295,2.065,7.693,2.229,7.441,2.835L5.796,6.767
		C5.795,6.769,5.795,6.771,5.794,6.774L5.205,8.182c-0.336,0.806,0.103,1.73,0.999,2.105l4.997,2.145L6,17.514v-3.125
		c0-0.201,0.07-0.213-0.051-0.336C5.742,13.848,6.375,14.125,5.288,14H2.306c-0.165,0-0.684-0.152-0.833-0.004
		C1.321,14.148,1,14.188,1,14.389v8.205C1,22.9,1.642,24,2.357,24h2.932C5.849,24,6,23.125,6,22.594V20h0.478
		c0.02,0,0.068-0.046,0.104-0.033C6.672,20,6.81,20.018,6.964,20.018c0.077,0,0.158-0.025,0.24-0.063
		c0.372-0.059,0.654-0.295,0.76-0.627l5.871-5.848l5.497,2.295c0.26,0.109,0.527,0.16,0.786,0.16c0.512,0,0.979-0.209,1.272-0.566
		l0.758,0.313l0.16,0.033c0.332,0,0.44-0.318,0.563-0.654c0.021-0.062,0.04-0.117,0.057-0.158l0.527-1.262
		c0.02-0.043,0.04-0.08,0.059-0.113c0.063-0.104,0.149-0.271,0.082-0.467l-0.084-0.187l-0.855-0.358l0.17-0.399
		c1.08-0.019,1.324-0.136,1.434-0.391l0.662-1.584C25.102,9.706,25.068,9.081,23.882,8.583z M5,22.594C5,22.756,5.35,22,5.288,23
		H2.433C2.413,22,2,22.67,2,22.594V15h3.341C5.389,15,5,14.469,5,14.471V17H4.116C3.584,17,3,17.955,3,18.491v0.586
		C3,19.313,3.275,20,4.116,20H5V22.594z M7.254,18.938l-0.021,0.123c-0.003,0.025-0.017,0.105-0.172,0.117l-0.096,0.008
		l-0.032,0.021c-0.025-0.008-0.058-0.066-0.082-0.077C6.753,19.093,6.63,19,6.488,19h-0.22H5.497h-1.38C3.967,19,4,19.074,4,19.077
		v-0.586C4,18.323,4.076,18,4.116,18H6.55l5.554-5.408l0.961,0.482L7.254,18.938z M19.629,15.064L6.501,9.576
		C5.995,9.365,5.743,8.892,5.916,8.479l0.15-0.36c0.17,0.197,0.391,0.368,0.659,0.48l7.003,2.8c0.557,0.232,5.59,0.656,8.261,0.712
		l-0.341,0.811l-0.518,1.23c-0.001,0.006-0.004,0.01-0.005,0.013l-0.239,0.573C20.723,15.139,20.156,15.285,19.629,15.064z
		 M22.727,13.384l-0.51,1.222c-0.021,0.056-0.049,0.125-0.074,0.203c-0.004,0.01-0.008,0.021-0.012,0.032l-0.355-0.149
		c0.021-0.084,0.045-0.178,0.068-0.235l0.514-1.228L22.727,13.384z M24.207,9.845l-0.607,1.45c-0.123,0.021-0.414,0.053-1.062,0.053
		c-2.688,0-8.065-0.504-8.519-0.663l-7.002-2.8c-0.394-0.164-0.626-0.54-0.511-0.821l0.653-1.56l0,0L8.15,3.132
		c0.029-0.071,0.058-0.114,0.197-0.114c0.15,0,0.363,0.059,0.632,0.17l14.603,6.105C24.311,9.598,24.232,9.784,24.207,9.845z"/>
</g>
<g id="air-con" display="none">
	<g display="inline">
		<path fill="#FCB033" d="M24.645,17.625c-0.104,0.236-0.293,0.305-0.543,0.305c-7.853-0.002-15.706-0.002-23.559,0
			c-0.249,0-0.439-0.063-0.543-0.305c0-2.873,0-5.745,0-8.616C0.055,8.86,0.095,8.703,0.167,8.563
			c0.329-0.645,0.87-0.922,1.584-0.92c2.478,0.005,4.955,0.002,7.433,0.002c4.542,0,9.091-0.003,13.636,0.008
			c0.313,0,0.644,0.063,0.93,0.179c0.516,0.208,0.749,0.67,0.896,1.179C24.645,11.88,24.645,14.752,24.645,17.625z M23.43,8.577
			c0,0.158,0.006,0.271,0,0.382c-0.031,0.497-0.304,0.869-0.742,0.984c-0.158,0.042-0.332,0.053-0.498,0.053
			C15.611,9.999,9.037,9.998,2.46,9.998c-0.112,0-0.225-0.005-0.335-0.02C1.662,9.926,1.312,9.593,1.241,9.13
			C1.215,8.96,1.212,8.787,1.196,8.582c-0.305,0.21-0.383,0.479-0.383,0.803c0.003,2.494,0.002,4.988,0.002,7.481
			c0,0.077,0,0.153,0,0.231c0.147,0,0.264,0,0.4,0c0-0.104,0-0.188,0-0.277c0-0.566-0.007-1.139,0.001-1.705
			c0.009-0.691,0.429-1.105,1.119-1.105c6.655-0.002,13.312-0.002,19.968,0c0.702,0,1.117,0.416,1.125,1.124
			c0.006,0.569,0.002,1.138,0.002,1.708c0,0.086,0,0.172,0,0.26c0.148,0,0.264,0,0.397,0c0-0.104,0-0.188,0-0.273
			c0-2.467,0-4.928,0-7.388c0-0.088,0.003-0.178-0.011-0.265C23.789,8.934,23.688,8.735,23.43,8.577z M1.774,8.465
			c0,0.204-0.013,0.38,0.003,0.553C1.801,9.27,1.966,9.419,2.219,9.445c0.08,0.01,0.16,0.008,0.241,0.008
			c6.576,0.001,13.151,0.001,19.729,0c0.099,0,0.211,0.024,0.283-0.02c0.144-0.086,0.317-0.189,0.367-0.328
			c0.068-0.189,0.033-0.418,0.044-0.64C15.827,8.465,8.813,8.465,1.774,8.465z M22.867,15.646c-7.038,0-14.057,0-21.089,0
			c0,0.18,0,0.34,0,0.517c7.036,0,14.057,0,21.089,0C22.867,15.99,22.867,15.832,22.867,15.646z M1.787,15.064
			c7.025,0,14.05,0,21.078,0c-0.021-0.381-0.198-0.521-0.641-0.521c-6.602,0-13.2,0-19.796,0c-0.088,0-0.177,0.001-0.263,0.02
			C1.905,14.617,1.785,14.779,1.787,15.064z M1.777,17.098c7.051,0,14.069,0,21.088,0c0-0.137,0-0.252,0-0.373
			c-7.038,0-14.059,0-21.088,0C1.777,16.854,1.777,16.971,1.777,17.098z"/>
		<path fill="#FCB033" d="M14.848,24.999c-0.289-0.015-0.384-0.207-0.264-0.448c0.215-0.443,0.33-0.912,0.234-1.396
			c-0.064-0.338-0.188-0.674-0.336-0.988c-0.342-0.75-0.393-1.512-0.123-2.285c0.049-0.137,0.106-0.271,0.177-0.396
			c0.071-0.146,0.194-0.222,0.354-0.146c0.164,0.075,0.188,0.21,0.129,0.385c-0.104,0.322-0.229,0.646-0.278,0.981
			c-0.076,0.517,0.106,0.987,0.34,1.446c0.313,0.623,0.396,1.281,0.228,1.959c-0.06,0.238-0.148,0.475-0.256,0.692
			C15.007,24.896,14.895,24.957,14.848,24.999z"/>
		<path fill="#FCB033" d="M12.385,24.996c-0.277,0-0.367-0.184-0.289-0.417c0.102-0.31,0.221-0.619,0.27-0.938
			c0.08-0.523-0.098-1.01-0.332-1.477c-0.372-0.734-0.407-1.502-0.143-2.281c0.047-0.135,0.109-0.266,0.172-0.394
			c0.078-0.156,0.203-0.236,0.373-0.154s0.164,0.229,0.113,0.394c-0.101,0.342-0.225,0.685-0.273,1.03
			c-0.066,0.492,0.117,0.942,0.336,1.38c0.373,0.744,0.406,1.521,0.137,2.305c-0.047,0.138-0.104,0.271-0.184,0.392
			C12.516,24.913,12.422,24.965,12.385,24.996z"/>
		<path fill="#FCB033" d="M12.343,12.917c0.386,0,0.771-0.006,1.155,0.002c0.271,0.006,0.434,0.228,0.29,0.399
			c-0.071,0.09-0.233,0.139-0.354,0.141c-0.738,0.014-1.477,0.008-2.215,0.008c-0.008,0-0.016,0-0.023,0
			c-0.188-0.006-0.373-0.029-0.375-0.271c-0.002-0.234,0.178-0.274,0.367-0.274C11.573,12.916,11.958,12.917,12.343,12.917z"/>
		<path fill="#FCB033" d="M22.048,13.257c-0.104,0.063-0.196,0.171-0.304,0.188c-0.155,0.025-0.262-0.092-0.264-0.25
			c0-0.168,0.108-0.284,0.272-0.26c0.104,0.021,0.195,0.135,0.292,0.209C22.048,13.182,22.048,13.219,22.048,13.257z"/>
		<path fill="#FCB033" d="M20.802,13.242c-0.099,0.068-0.186,0.18-0.294,0.201c-0.154,0.033-0.261-0.084-0.271-0.234
			c-0.008-0.17,0.104-0.294,0.267-0.273c0.104,0.016,0.2,0.127,0.3,0.196C20.8,13.168,20.801,13.205,20.802,13.242z"/>
		<path fill="#FCB033" d="M9.925,25c-0.275-0.011-0.377-0.184-0.306-0.382c0.081-0.233,0.188-0.461,0.243-0.699
			c0.127-0.543,0.045-1.067-0.212-1.563c-0.357-0.685-0.506-1.396-0.313-2.154c0.057-0.23,0.155-0.452,0.244-0.674
			c0.065-0.168,0.188-0.276,0.375-0.194c0.195,0.087,0.194,0.255,0.108,0.426c-0.27,0.536-0.349,1.101-0.194,1.681
			c0.068,0.263,0.19,0.506,0.302,0.752c0.393,0.865,0.382,1.725-0.033,2.57C10.086,24.869,9.974,24.947,9.925,25z"/>
		<path fill="#FCB033" d="M14.848,24.999c-0.289-0.015-0.384-0.207-0.264-0.448c0.215-0.443,0.33-0.912,0.234-1.396
			c-0.064-0.338-0.188-0.674-0.336-0.988c-0.342-0.75-0.393-1.512-0.123-2.285c0.049-0.137,0.106-0.271,0.177-0.396
			c0.071-0.146,0.194-0.222,0.354-0.146c0.164,0.075,0.188,0.21,0.129,0.385c-0.104,0.322-0.229,0.646-0.278,0.981
			c-0.076,0.517,0.106,0.987,0.34,1.446c0.313,0.623,0.396,1.281,0.228,1.959c-0.06,0.238-0.148,0.475-0.256,0.692
			C15.007,24.896,14.895,24.957,14.848,24.999z"/>
		<path fill="#FCB033" d="M12.385,24.996c-0.277,0-0.367-0.184-0.289-0.417c0.102-0.31,0.221-0.619,0.27-0.938
			c0.08-0.523-0.098-1.01-0.332-1.477c-0.372-0.734-0.407-1.502-0.143-2.281c0.047-0.135,0.109-0.266,0.172-0.394
			c0.078-0.156,0.203-0.236,0.373-0.154s0.164,0.229,0.113,0.394c-0.101,0.342-0.225,0.685-0.273,1.03
			c-0.066,0.492,0.117,0.942,0.336,1.38c0.373,0.744,0.406,1.521,0.137,2.305c-0.047,0.138-0.104,0.271-0.184,0.392
			C12.516,24.913,12.422,24.965,12.385,24.996z"/>
	</g>
</g>
<g id="wi-fi" display="none">
	<g display="inline">
		<g>
			<g>
				<path fill="#FCB033" d="M4.812,24.165c-2.294,0-4.161-1.866-4.161-4.162s1.867-4.164,4.161-4.164
					c2.296,0,4.163,1.868,4.163,4.164S7.108,24.165,4.812,24.165z M4.812,17.198c-1.544,0-2.801,1.258-2.801,2.805
					c0,1.545,1.257,2.804,2.801,2.804c1.545,0,2.804-1.259,2.804-2.804C7.615,18.456,6.357,17.198,4.812,17.198z"/>
			</g>
		</g>
		<g>
			<g>
				<path fill="#FCB033" d="M17.822,25c-0.006,0-0.016,0-0.025,0H14.58c-0.375,0-0.682-0.109-0.682-0.486
					c0-7.865-5.656-13.699-13.404-13.699C0.119,10.814,0,10.607,0,10.232V7.016c0-0.375,0.119-0.68,0.495-0.68
					c9.782,0,17.964,8.305,18.071,18.178c0.021,0.063-0.02-0.063-0.02,0C18.55,24.891,18.198,25,17.822,25z M15.247,24h1.854
					C16.746,15,10,8.076,1,7.71v1.854C8,9.893,14.93,15,15.247,24z"/>
			</g>
		</g>
		<g>
			<g>
				<path fill="#FCB033" d="M24.127,25c-0.006,0-0.02,0-0.027,0h-3.213c-0.376,0-0.681-0.109-0.681-0.486
					c0-10.521-9.297-20.005-19.711-20.005C0.119,4.509,0,4.302,0,3.926V0.71C0,0.335,0.119,0.03,0.495,0.03
					c13.887,0,24.278,10.514,24.377,24.484c0.019,0.063-0.021-0.063-0.021,0C24.854,24.891,24.503,25,24.127,25z M21.555,24h1.856
					C23.086,11,13,1.731,1,1.399v1.86C12,3.655,21.164,13,21.555,24z"/>
			</g>
		</g>
	</g>
</g>
<g id="video-phone" display="none">
	<g display="inline">
		<path fill="#FCB033" d="M21,1.853v20.733C21,23.08,20.273,24,19.67,24H5.738C5.134,24,4,23.08,4,22.586V1.853
			C4,1.338,5.189,1,5.738,1H19.67C20.219,1,21,1.338,21,1.853z M5,22.586C5,22.717,5.724,23,5.738,23H20c0,0,0-0.283,0-0.414V1.853
			C20,1.717,20,2,20,2H5.738C5.558,2,5,1.717,5,1.853V22.586z"/>
	</g>
	<g display="inline">
		<path fill="#FCB033" d="M16.82,3H8.076C7.605,3,8,3.674,8,4.223v10.421C8,15.195,7.605,15,8.076,15h8.742
			C17.313,15,17,15.152,17,14.646V4.223C17,3.716,17.313,3,16.82,3z M16.82,15h-0.608c-0.142-2-1.746-3.452-3.711-3.452
			S8.929,13,8.789,15H8.076C7.924,15,8,14.761,8,14.646V4.223C8,4.109,7.924,4,8.076,4h8.742C16.975,4,17,4.055,17,4.223v10.421
			C17,14.814,16.975,15,16.82,15z"/>
		<circle fill="#FCB033" cx="12.216" cy="8.558" r="1.984"/>
	</g>
	<g display="inline">
		<path fill="#FCB033" d="M7,15V3h11v12H7z M8,3v12h9V3H8z"/>
	</g>
	<rect x="7" y="14" display="inline" fill="#FCB033" width="11" height="1"/>
	<path display="inline" fill="#E7A723" d="M7.676,22.07v0.009l0.105-0.044c0.022-0.016,0.039-0.016,0.061-0.027
		c0.017-0.003,0.029-0.014,0.042-0.021L9.49,21.3l0.068-0.047c0.038-0.021,0.071-0.04,0.104-0.063l0.105-0.068l-0.003-0.027
		c0.279-0.242,0.408-0.572,0.296-1.072c-0.083-0.354,0.111-0.455,0.432-0.504c1.072-0.146,2.146-0.187,3.22-0.062
		c0.995,0.11,1.013,0.118,0.987,1.103c-0.008,0.199,0.049,0.332,0.137,0.442l0.008,0.037l0.125,0.06
		c0.051,0.033,0.074,0.074,0.146,0.104c0.213,0.087,0.429,0.179,0.644,0.271l0.771,0.37c0.092,0.044,0.184,0.084,0.271,0.134
		c0.021,0.017,0.038,0.016,0.06,0.022l0.13,0.062l-0.009-0.016c0.313,0.102,0.509-0.039,0.709-0.328
		c1.107-1.593,0.344-3.828-1.555-4.363c-2.479-0.691-4.973-0.678-7.461-0.021c-0.484,0.13-0.903,0.379-1.254,0.735
		c-1.029,1.031-1.117,2.724-0.21,3.789C7.351,22.033,7.485,22.118,7.676,22.07z"/>
</g>
<g>
	<path fill="#6A1A41" d="M0.161,9.039v1.889c0,0.402-0.021,0.771,0.379,0.906L0.156,11.87h0.043c0.109,0,0.222,0.058,0.33,0.058
		c0.109,0,0.222-0.058,0.332-0.058h3.773h0.748h13.526c0.646,0,1.251-0.649,1.251-1.356v-0.93c0-0.677-0.571-1.714-1.251-1.714H0.47
		l0.381,0.12C0.345,8.02,0.16,8.535,0.161,9.039z M5.16,10.87V8.869h12v2.001H5.16z M4.16,10.87H1.629
		c0.011,0,1.531,0.104,1.531,0.058V9.039C2.969,8.531,1.638,8.87,1.615,8.87H4.16V10.87z M1.16,9.039c0-0.175,0.322-0.315,0.5-0.315
		c0.174,0,0.5,0.143,0.5,0.315v1.889c0,0.173-0.326,0.315-0.5,0.315c-0.178,0-0.5-0.142-0.5-0.315V9.039z"/>
	<g>
		<path fill="#6A1A41" d="M18.544,6.619c-0.069-0.148-0.132-0.304-0.171-0.462c-0.113-0.449-0.061-0.888,0.148-1.303
			c0.155-0.306,0.276-0.62,0.229-0.964c-0.032-0.222-0.115-0.438-0.188-0.653c-0.037-0.114-0.021-0.204,0.086-0.255
			c0.106-0.048,0.188,0.002,0.238,0.102c0.043,0.084,0.086,0.171,0.117,0.262c0.176,0.517,0.145,1.021-0.084,1.521
			c-0.097,0.21-0.181,0.434-0.225,0.659c-0.063,0.321,0.016,0.634,0.158,0.928c0.078,0.161,0.019,0.292-0.176,0.299
			C18.648,6.722,18.573,6.682,18.544,6.619z"/>
	</g>
	<g>
		<path fill="#6A1A41" d="M19.52,5.964c-0.052-0.08-0.09-0.17-0.121-0.259c-0.18-0.523-0.158-1.037,0.091-1.533
			c0.146-0.291,0.269-0.589,0.223-0.917c-0.032-0.232-0.114-0.46-0.183-0.688c-0.031-0.107-0.037-0.205,0.076-0.261
			c0.111-0.055,0.195-0.002,0.248,0.103c0.041,0.086,0.082,0.174,0.113,0.264c0.178,0.519,0.153,1.026-0.093,1.518
			C19.718,4.5,19.6,4.82,19.652,5.169c0.031,0.211,0.109,0.418,0.18,0.623c0.052,0.154-0.009,0.275-0.191,0.275
			C19.614,6.049,19.553,6.015,19.52,5.964z"/>
	</g>
</g>
<g>
	<path fill="#6A1A41" d="M19.438,19.612c-0.128,0-0.256-0.049-0.354-0.146L0.655,1.037c-0.195-0.195-0.195-0.512,0-0.707
		s0.512-0.195,0.707,0l18.429,18.428c0.195,0.195,0.195,0.512,0,0.707C19.693,19.563,19.565,19.612,19.438,19.612z"/>
</g>
</svg>
