<?xml version="1.0" encoding="utf-8"?>
<!-- Generator: Adobe Illustrator 16.0.0, SVG Export Plug-In . SVG Version: 6.00 Build 0)  -->
<!DOCTYPE svg PUBLIC "-//W3C//DTD SVG 1.1//EN" "http://www.w3.org/Graphics/SVG/1.1/DTD/svg11.dtd" [
	<!ENTITY ns_flows "http://ns.adobe.com/Flows/1.0/">
	<!ENTITY ns_extend "http://ns.adobe.com/Extensibility/1.0/">
	<!ENTITY ns_ai "http://ns.adobe.com/AdobeIllustrator/10.0/">
	<!ENTITY ns_graphs "http://ns.adobe.com/Graphs/1.0/">
]>
<svg version="1.1" id="Layer_1" xmlns:x="&ns_extend;" xmlns:i="&ns_ai;" xmlns:graph="&ns_graphs;"
	 xmlns="http://www.w3.org/2000/svg" xmlns:xlink="http://www.w3.org/1999/xlink" xmlns:a="http://ns.adobe.com/AdobeSVGViewerExtensions/3.0/"
	 x="0px" y="0px" width="115px" height="115px" viewBox="0 0 115 115" enable-background="new 0 0 115 115" xml:space="preserve">
<g id="Layer_1_1_">
</g>
<g id="Layer_2">
	<path fill="#FCB033" d="M47.235,40.994c0.446-0.741,0.299-0.894-0.25-0.247c-3.504,4.129-13.222,16.555-13.667,24.63
		c-0.444,8.078,10.687,14.657,12.641,14.657C37.799,69.945,38.021,55.793,47.235,40.994L47.235,40.994L47.235,40.994L47.235,40.994z
		"/>
	<path fill="#FCB033" d="M114.02,1.809c-0.354,0.275-3.424,2.565-5.33,4.337c0.693,0,1.136,0.133,1.328,0.417
		c-1.537-0.768-3.854,1.279-4.765,2.414c-0.017,0.008,1.688-0.224,2.312,0.553c-3.317-0.966-5.375,1.695-6.029,2.433
		c0.768-0.073,2.008-0.24,2.854,0.607c-3.334-1.021-5.82,1.137-6.896,2.663c0.854-0.009,1.913,0.163,2.666,0.914
		c-3.601-1.462-6.815,2.008-7.959,3.404c1.274-0.592,2.817-0.396,4.823,0.585c-4.695-0.896-6.633,0.999-6.633,0.999
		s1.676-8.535,2.213-12.741c0.231-1.813-0.924-1.271-1.485-0.271c-1.862,3.317-3.567,4.077-4.752,7.025
		c1.084,1.085,2.264,2.997,2.028,6.252c-0.623-2.635-3.021-4.971-4.621-6.265c0.646-3.225-0.09-4.118,2.185-8.938
		c0.467-0.991,0.138-0.805-0.627-0.47c-2.447,0.962-4.974,3.893-6.097,6.517C73.451,9.065,67.091,7.88,66.706,4.183
		c-0.168-1.62,2.485-3.136,8.076,0.117c-0.882-5.18-6.914-5.066-8.601-2.867c-2.398,3.324,1.264,8.452,5.43,12.111
		c-2.981-0.811-9.029-5.91-7.928-10.656c-0.867,1.876-0.485,4.385,0.547,5.731c-2.017,0-4.074-2.227-3.832-4.747
		c0.188-1.999,1.983-2.382,3.192-1.933c-0.112-1.494-1.987-2.486-3.444-1.129c-2.895,2.703,0.346,8.638,5.996,11.715
		c-1.42,0-3.281-0.92-4.801-2.064c-0.355,1.774,3.332,4.483,6.163,6.383c-5.849-2.077-10.803-6.768-10.338-11.347
		c-0.411,1.819-0.12,3.903,1.228,6.161c-4.73-1.299-12.296-1.641-19.711,0.141c8.191-1.359,15.506,2.668,15.506,3.684
		c-2.19-0.857-13.756-4.939-25.872,1.76c1.036-1.316,3.109-2.776,4.772-3.636c-2.094,0.871-3.632,1.737-5.203,2.97
		c-2.949,2.319-3.948,5.902,1.747,5.089c-2.242-0.953-2.958-3.123,1.064-4.586c6.911-2.512,14.074-1.148,17.456-0.175
		c-3.903,0.059-9.644,0.828-15.327,3.787c6.043-2.403,14.615-3.196,20.591-1.582c-3.01-0.008-5.528,0.307-7.722,0.827
		c3.686,0,8.255,0.312,11.216,1.938c-14.855-2.366-29.489,2.693-35.22,9.421c1.344-2.918,3.817-6.25,6.829-8.497
		c-8.981,4.704-11.727,14.549-17.482,13.157c2.679,3.285,7.385,0.131,10.151-1.911c4.104-3.026,9.521-5.305,16.194-5.782
		C26.025,31.754,22.002,40.69,22.002,43.648c1.862-5.232,13.577-7.515,18.816-11.073c0,0-10.689,9.317-16.271,12.018
		c6.219-2.091,10.191-4.753,12.282-6.308c-6.454,9.084-19.363,9.631-27.498,14.372c-3.452,2.012-6.53,5.397-6.917,9.272
		C0.41,57.15,3.808,51.664,13.403,48.223c-1.424,0.425-4.872,1.493-6.672,2.465c-8.792,4.74-7.944,11.632-3.31,16.746
		C0.82,55.955,15.85,59.859,26.647,53.643c-7.376,9.248-15.451,9.316-15.251,5.843c-3.294,4.104,0.666,6.705,6.522,5.226
		c-7.751,2.978-10.404,5.813-11.755,7.835c9.315-3.91,14.458-4.759,17.491-5.777c3.031-1.016,5.359-4.932,5.879-5.768
		c7.799-12.589,19.448-43.624,48.105-43.329c-0.15,0.721-0.787,2.781-0.787,4.262c0,2.066,0.806,2.763,3.065,2.452
		c0.966-0.131,1.94,0.836,2.778,2.057c0.986,1.441,1.553,2.797,2.459,3.983c-0.916-0.35-1.791-0.17-2.352,0.132
		c-0.386,0.211-0.287,0.578,0.051,0.619c1.014,0.124,1.502,0.471,2.086,1.266c0.933,1.282,0.438,2.366,0.138,2.063
		c-0.532-0.532-0.47-1.186-2.078-1.722c-1.995-0.667-3.396,0.865-4.661,0.865c0,1.819,1.68,2.957,3.01,3.225
		c1.334,0.266,2.723-0.386,3.389-0.386c0.541,0,1.605-0.375,2.343,1.233c0.735,1.607,6.755,12.673,10.909,17.87
		c0.921,1.146,2.65,1.622,2.851,3.063c-4.104-0.644-3.704,4.949-3.282,5.371s0.041,1.232-0.601,0.731
		c-1.817-1.421-2.431-4.938-4.483-6.881c-3.799-3.59-9.273-7.142-9.273-8.563c1.664,0.646,4.595,0.911,7.893,3.426
		c0-1.502-6.777-8.65-8.972-9.741c-2.193-1.089-4.261-1.125-6.953-5.71c-0.222,6.303,4.217,9.912,4.217,9.912
		s-6.336,4.218-9.944,0.609c-0.525,3.205,1.517,6.381,3.527,8.295C66.5,53.537,62.359,45.49,68.629,31.343
		c0.432-0.979-0.074-1.397-0.813-0.762c-20.749,17.876-17.769,39.692-9.118,56.733c-2.256-0.453-4.743-1.26-7.384-1.312
		c2.732,2.562,8.202,5.87,13.027,12.97c2.818,4.129,4.945,9.284,6.478,16.328c4.205-24.615-15.21-30.769-9.459-55.639
		c0.125-0.555,0.404-0.561,0.425-0.008c0.454,13.339,11.343,21.304,11.343,36.42c6.924-16.657-1.005-34.303,1.141-39.567
		c0.565,0.124,0.83,0.179,1.232,0.244c5.557,4.528,11.729,5.604,15.082,8.956c1.186,1.729,1.012,3.967,2.188,5.366
		c0.828,0.981,3.424,0.817,5.09,0.09c1.568,1.026,3.236,0.312,5.146-0.713c1.013-0.539,1.451-2.541,3.159-5.097
		c0.813-1.213,1.531-5.346,0.865-6.912c-0.301-0.704-2.646-3.051-4.2-5.384c-3.173-4.75-5.736-9.593-6.213-11.243
		c-0.384-1.332-0.449-2.396-0.12-3.645c0.377-1.402,0.992-1.798,0.992-4.461c-0.297-1.256-2.271-2.633-3.11-3.784
		c-1.853-2.541-1.608-3.19-1.608-3.19s2.325-1.561,5.299-6.154c1.302-1.042,2.631-2.152,3.707-4.161
		c1.34-1.116,2.619-2.458,3.293-3.724c1.257-1.116,2.035-1.811,2.85-3.173c1.053-1.011,1.723-1.781,2.475-2.82
		c1.621-1.499,3.588-4.122,4.037-4.639C114.941,1.474,114.779,1.219,114.02,1.809L114.02,1.809L114.02,1.809L114.02,1.809z"/>
</g>
</svg>
