<?xml version="1.0" encoding="utf-8"?>
<!-- Generator: Adobe Illustrator 16.0.0, SVG Export Plug-In . SVG Version: 6.00 Build 0)  -->
<!DOCTYPE svg PUBLIC "-//W3C//DTD SVG 1.1//EN" "http://www.w3.org/Graphics/SVG/1.1/DTD/svg11.dtd">
<svg version="1.1" id="Layer_1" xmlns="http://www.w3.org/2000/svg" xmlns:xlink="http://www.w3.org/1999/xlink" x="0px" y="0px"
	 width="95px" height="95px" viewBox="0 0 95 95" enable-background="new 0 0 95 95" xml:space="preserve">
<g id="Layer_1_1_">
</g>
<g>
	<circle cx="47.131" cy="47.75" r="45.988"/>
	<path fill="#FD7D3D" d="M47.13,94.616c-25.841,0-46.866-21.023-46.866-46.866c0-25.844,21.024-46.866,46.866-46.866
		c25.843,0,46.866,21.023,46.866,46.866C93.996,73.596,72.975,94.616,47.13,94.616z M47.13,2.64
		c-24.873,0-45.108,20.236-45.108,45.11c0,24.873,20.235,45.111,45.108,45.111S92.241,72.625,92.241,47.75
		C92.241,22.876,72.003,2.64,47.13,2.64z"/>
</g>
<g enable-background="new    ">
	<path fill="#FFFFFF" d="M29.801,71.246h-1.157v-7.139h4.028v0.986h-2.871v2.231h2.69v0.991h-2.69V71.246z"/>
	<path fill="#FFFFFF" d="M40.304,67.667c0,1.162-0.291,2.065-0.872,2.71s-1.404,0.967-2.468,0.967c-1.078,0-1.905-0.32-2.483-0.959
		c-0.578-0.641-0.867-1.549-0.867-2.728s0.291-2.083,0.872-2.715s1.41-0.947,2.488-0.947c1.061,0,1.881,0.32,2.461,0.962
		S40.304,66.502,40.304,67.667z M34.854,67.667c0,0.879,0.177,1.546,0.532,1.999c0.355,0.455,0.88,0.682,1.577,0.682
		c0.693,0,1.217-0.225,1.57-0.674s0.53-1.118,0.53-2.007c0-0.876-0.175-1.54-0.525-1.992s-0.872-0.679-1.565-0.679
		c-0.7,0-1.228,0.227-1.584,0.679S34.854,66.791,34.854,67.667z"/>
	<path fill="#FFFFFF" d="M48.175,67.667c0,1.162-0.291,2.065-0.872,2.71s-1.404,0.967-2.468,0.967c-1.078,0-1.905-0.32-2.483-0.959
		c-0.578-0.641-0.867-1.549-0.867-2.728s0.291-2.083,0.872-2.715s1.41-0.947,2.488-0.947c1.061,0,1.881,0.32,2.461,0.962
		S48.175,66.502,48.175,67.667z M42.726,67.667c0,0.879,0.177,1.546,0.532,1.999c0.355,0.455,0.88,0.682,1.577,0.682
		c0.693,0,1.217-0.225,1.57-0.674s0.53-1.118,0.53-2.007c0-0.876-0.175-1.54-0.525-1.992s-0.872-0.679-1.565-0.679
		c-0.7,0-1.228,0.227-1.584,0.679S42.726,66.791,42.726,67.667z"/>
	<path fill="#FFFFFF" d="M55.514,67.608c0,1.179-0.327,2.079-0.981,2.702c-0.654,0.624-1.597,0.936-2.827,0.936h-1.997v-7.139h2.207
		c1.136,0,2.021,0.306,2.651,0.918S55.514,66.498,55.514,67.608z M54.283,67.647c0-1.709-0.799-2.563-2.397-2.563h-1.011v5.181h0.83
		C53.424,70.265,54.283,69.393,54.283,67.647z"/>
	<path fill="#FFFFFF" d="M59.171,69.356c0-0.427,0.104-0.798,0.313-1.116c0.208-0.316,0.585-0.632,1.128-0.944
		c-0.309-0.361-0.52-0.667-0.633-0.915c-0.111-0.25-0.168-0.508-0.168-0.774c0-0.495,0.177-0.886,0.529-1.172
		c0.354-0.286,0.828-0.43,1.424-0.43c0.576,0,1.029,0.14,1.357,0.417c0.328,0.279,0.493,0.654,0.493,1.126
		c0,0.371-0.11,0.708-0.329,1.011c-0.221,0.303-0.588,0.605-1.102,0.908l1.689,1.631c0.264-0.349,0.483-0.859,0.659-1.533h1.182
		c-0.228,0.925-0.593,1.678-1.094,2.261l1.47,1.421H64.61l-0.728-0.708c-0.332,0.267-0.686,0.468-1.063,0.603
		c-0.375,0.136-0.791,0.203-1.247,0.203c-0.749,0-1.337-0.178-1.763-0.532S59.171,69.972,59.171,69.356z M61.632,70.357
		c0.596,0,1.104-0.174,1.528-0.522l-1.87-1.841c-0.345,0.222-0.583,0.429-0.713,0.623c-0.13,0.193-0.195,0.414-0.195,0.661
		c0,0.319,0.113,0.579,0.339,0.778C60.947,70.258,61.251,70.357,61.632,70.357z M60.904,65.646c0,0.205,0.055,0.398,0.164,0.581
		c0.108,0.183,0.261,0.376,0.456,0.581c0.368-0.208,0.626-0.403,0.774-0.583c0.147-0.182,0.222-0.384,0.222-0.608
		c0-0.212-0.071-0.381-0.212-0.508c-0.143-0.127-0.33-0.19-0.564-0.19c-0.258,0-0.461,0.066-0.613,0.197
		C60.98,65.248,60.904,65.424,60.904,65.646z"/>
</g>
<g enable-background="new    ">
	<path fill="#FFFFFF" d="M35.467,77.608c0,1.179-0.327,2.079-0.981,2.702c-0.654,0.624-1.597,0.936-2.827,0.936h-1.997v-7.139h2.207
		c1.136,0,2.02,0.306,2.651,0.918S35.467,76.498,35.467,77.608z M34.236,77.647c0-1.709-0.799-2.563-2.397-2.563h-1.011v5.181h0.83
		C33.377,80.265,34.236,79.393,34.236,77.647z"/>
	<path fill="#FFFFFF" d="M37,81.246v-7.139h1.167v7.139H37z"/>
	<path fill="#FFFFFF" d="M45.999,81.246h-1.431l-3.511-5.688h-0.039l0.024,0.317c0.045,0.605,0.068,1.159,0.068,1.66v3.711h-1.06
		v-7.139h1.416l3.501,5.659h0.029c-0.006-0.075-0.02-0.348-0.039-0.817c-0.02-0.471-0.029-0.838-0.029-1.102v-3.74h1.069V81.246z"/>
	<path fill="#FFFFFF" d="M47.884,81.246v-7.139h1.167v7.139H47.884z"/>
	<path fill="#FFFFFF" d="M56.883,81.246h-1.431l-3.511-5.688h-0.039l0.024,0.317c0.046,0.605,0.068,1.159,0.068,1.66v3.711h-1.06
		v-7.139h1.416l3.501,5.659h0.029c-0.007-0.075-0.02-0.348-0.039-0.817c-0.02-0.471-0.029-0.838-0.029-1.102v-3.74h1.069V81.246z"/>
	<path fill="#FFFFFF" d="M61.688,77.374h2.627v3.584c-0.43,0.14-0.842,0.239-1.238,0.298c-0.395,0.059-0.822,0.088-1.281,0.088
		c-1.08,0-1.914-0.32-2.5-0.959c-0.586-0.641-0.879-1.543-0.879-2.708c0-1.149,0.33-2.048,0.991-2.698
		c0.661-0.648,1.571-0.974,2.729-0.974c0.746,0,1.451,0.144,2.119,0.43l-0.41,0.972c-0.58-0.267-1.158-0.4-1.738-0.4
		c-0.762,0-1.363,0.239-1.807,0.718s-0.664,1.133-0.664,1.963c0,0.872,0.199,1.536,0.598,1.989c0.399,0.455,0.973,0.682,1.722,0.682
		c0.378,0,0.781-0.047,1.211-0.142v-1.841h-1.479V77.374z"/>
</g>
<path fill="#FD7D3D" d="M62.102,23.25c-1.855-1.855-5.617-1.104-8.399,1.68c-2.152,2.152-3.089,4.889-2.544,6.879L33.274,48.547
	c-0.454,0.453-0.454,1.184,0,1.639l1.583,1.582c0.452,0.453,1.185,0.453,1.637,0l16.818-17.645c2.004,0.688,4.871-0.236,7.107-2.473
	C63.205,28.865,63.958,25.105,62.102,23.25z"/>
<path fill="#FD7D3D" d="M60.697,48.7l-18.24-17.385l0.015-0.014c0.264-0.264,0.604-1.392,0.403-1.718
	c-0.021-0.076-0.058-0.148-0.118-0.208l-8.067-8.068c-0.182-0.181-0.476-0.181-0.655,0c-0.143,0.143-0.171,0.353-0.089,0.526
	l5.591,5.591c0.04,0.04,0.071,0.088,0.094,0.135l0.005,0.004v0.001c0.093,0.194,0.063,0.433-0.099,0.594
	c-0.103,0.104-0.235,0.153-0.368,0.153c-0.134,0-0.267-0.049-0.369-0.153l-5.669-5.667c-0.144-0.026-0.298,0.016-0.409,0.128
	c-0.125,0.125-0.162,0.304-0.113,0.462l5.635,5.635c0.204,0.203,0.204,0.532,0,0.737c-0.101,0.101-0.234,0.153-0.369,0.153
	c-0.132,0-0.266-0.052-0.368-0.153l-5.635-5.636c-0.158-0.047-0.337-0.011-0.462,0.114c-0.11,0.112-0.154,0.267-0.128,0.409
	l5.669,5.67c0.203,0.203,0.203,0.533,0,0.736c-0.102,0.102-0.234,0.152-0.368,0.152c-0.078,0-0.155-0.02-0.228-0.055l-0.002,0.001
	l-0.004-0.004c-0.048-0.024-0.095-0.055-0.136-0.095l-5.591-5.591c-0.172-0.082-0.383-0.054-0.525,0.089
	c-0.181,0.182-0.181,0.474,0,0.655l7.323,7.322c0.007,0.01,0.013,0.02,0.022,0.029L38.29,34.1c0.26,0.261,1.482-0.099,1.759-0.375
	l0.203-0.203l17.225,18.401c0.453,0.453,1.187,0.453,1.638,0l1.584-1.584C61.148,49.887,61.148,49.154,60.697,48.7z"/>
</svg>
