<?xml version="1.0" encoding="utf-8"?>
<!-- Generator: Adobe Illustrator 16.0.0, SVG Export Plug-In . SVG Version: 6.00 Build 0)  -->
<!DOCTYPE svg PUBLIC "-//W3C//DTD SVG 1.1//EN" "http://www.w3.org/Graphics/SVG/1.1/DTD/svg11.dtd">
<svg version="1.1" id="Layer_1" xmlns="http://www.w3.org/2000/svg" xmlns:xlink="http://www.w3.org/1999/xlink" x="0px" y="0px"
	 width="30.25px" height="25px" viewBox="0 0 30.25 25" enable-background="new 0 0 30.25 25" xml:space="preserve">
<g id="facebook" display="none">
	<path display="inline" fill="#E7A723" d="M23.236,8.655l-0.172,3.72l-3.481-0.038V25h-5.105V12.338l-2.619,0.072l-0.074-3.755
		h2.482c0-1.857-0.443-6.013,1.567-7.521c2.841-2.133,7.912-0.729,7.912-0.729l-0.639,3.887c0,0-1.754-0.327-2.082-0.327
		c-0.484,0-1.442,0.196-1.442,1.384v3.303L23.236,8.655L23.236,8.655z"/>
</g>
<g id="twitter">
	<path fill="#9E3039" d="M28.473,4.985c-0.604,0.518-1.652,1.036-1.652,1.036s0.609,3.464-1.032,7.446
		c-1.652,3.986-3.653,6.58-8.782,9.35c-5.129,2.773-8.518,2.3-10.868,1.818c-2.347-0.479-3.825-1.125-5.65-2.51
		c0,0,3.069-0.176,4.431-0.693c1.701-0.64,3.914-2.164,3.914-2.164s-1.389-0.262-3.13-1.297C3.96,16.932,3.354,15.2,3.354,15.2
		l2.695-0.261c0,0-1.828-0.604-3.564-2.333C0.743,10.87,1.091,8.878,1.091,8.878S1.701,9.224,2.307,9.4c0.609,0.173,1.567,0,1.567,0
		s-2.262-1.3-2.61-3.982c-0.345-2.685,0.698-4.07,0.698-4.07s2.724,2.972,5.39,4.416c3.04,1.646,7.387,1.903,7.387,1.903
		s-0.382-6.032,4.435-7.358c4.087-1.124,6,1.646,6,1.646s0.782,0,1.646-0.261c0.871-0.261,2.09-0.868,2.09-0.868s0,0.434-0.26,0.955
		c-0.262,0.518-0.782,1.04-1.045,1.297c-0.268,0.261-1.129,0.779-1.129,0.779s0.604,0.176,1.303,0.088
		C28.473,3.857,29.604,3.6,29.604,3.6S29.082,4.463,28.473,4.985z"/>
</g>
</svg>
