<?xml version="1.0" encoding="utf-8"?>
<!-- Generator: Adobe Illustrator 16.0.0, SVG Export Plug-In . SVG Version: 6.00 Build 0)  -->
<!DOCTYPE svg PUBLIC "-//W3C//DTD SVG 1.1//EN" "http://www.w3.org/Graphics/SVG/1.1/DTD/svg11.dtd">
<svg version="1.1" id="Layer_1" xmlns="http://www.w3.org/2000/svg" xmlns:xlink="http://www.w3.org/1999/xlink" x="0px" y="0px"
	 width="22.938px" height="22.875px" viewBox="0 0 22.938 22.875" enable-background="new 0 0 22.938 22.875" xml:space="preserve">
<g id="Layer_2" display="none">
	<g display="inline">
		<path fill="#FCB033" d="M81.734-108.728c1.604,0.23,1.661,0.294,1.938,1.875c0.239,1.376,0.479,2.752,0.725,4.129
			c0.333,1.887-0.188,2.743-2.028,3.331c-0.514,2.644-1.093,3.253-3.012,3.172c-1.677-0.07-2.308-0.835-2.563-3.224
			c-1.218,0-2.455,0-3.691,0c-1.217,0-2.433,0-3.364,0c-0.496,1.02-0.757,2.006-1.375,2.645c-0.427,0.44-1.353,0.546-2.055,0.546
			c-1.614-0.001-2.211-0.823-2.427-3.061c-0.467-0.236-0.988-0.406-1.389-0.726c-0.73-0.588-0.943-1.412-0.775-2.332
			c0.27-1.492,0.543-2.982,0.807-4.477c0.279-1.584,0.333-1.642,1.898-1.875c0.141-1.043,0.227-2.108,0.437-3.148
			c0.462-2.288,2.351-3.991,4.678-4.091c2.313-0.101,4.645-0.119,6.961-0.014c2.765,0.125,4.724,2.123,5.008,4.893
			C81.574-110.319,81.65-109.552,81.734-108.728z M79.627-108.692c0.213-3.413-1.111-5.618-3.75-5.199
			c-0.202,1.612-0.385,1.771-2.021,1.774c-0.417,0.003-0.833,0.001-1.249,0.001c-1.934-0.001-1.947-0.014-2.347-1.834
			c-2.797-0.211-3.854,1.937-3.713,5.258C70.909-108.692,75.27-108.692,79.627-108.692z M65.955-105.452
			c-1.063,0.005-1.944,0.876-1.953,1.921c-0.01,1.057,0.953,1.991,2.016,1.96c1.038-0.029,1.913-0.943,1.896-1.981
			C67.896-104.606,67.017-105.457,65.955-105.452z M80.192-105.454c-1.061,0.016-1.924,0.892-1.917,1.944
			c0.011,1.043,0.896,1.932,1.938,1.937c1.075,0.005,2.006-0.941,1.97-2.005C82.147-104.631,81.258-105.47,80.192-105.454z"/>
	</g>
	<g display="inline">
		<path fill="#FCB033" d="M86.5-95.5c-0.276,0-0.5-0.224-0.5-0.5v-14c0-0.276,0.224-0.5,0.5-0.5c0.272,0,0.5,0.224,0.5,0.5v14
			C87-95.724,86.776-95.5,86.5-95.5z"/>
	</g>
	<g display="inline">
		<path fill="#FCB033" d="M88.5-95.5c-0.276,0-0.5-0.224-0.5-0.5v-14c0-0.276,0.224-0.5,0.5-0.5c0.272,0,0.5,0.224,0.5,0.5v14
			C89-95.724,88.776-95.5,88.5-95.5z"/>
	</g>
	<g display="inline">
		<g>
			<path fill="#FCB033" d="M90.541-116.947c0,0.705-0.225,1.244-0.662,1.619c-0.44,0.373-1.066,0.559-1.88,0.559h-0.6v2.33h-1.389
				v-6.551h2.093c0.795,0,1.398,0.17,1.813,0.514C90.334-118.135,90.541-117.625,90.541-116.947z M87.403-115.906h0.457
				c0.432,0,0.747-0.086,0.959-0.254c0.216-0.17,0.318-0.414,0.318-0.738c0-0.326-0.088-0.566-0.267-0.721
				c-0.182-0.156-0.456-0.232-0.836-0.232H87.4L87.403-115.906L87.403-115.906z"/>
		</g>
	</g>
	<g display="inline">
		<path fill="#FCB033" d="M87.584-110.24c-3.313,0-6-2.691-6-6c0-3.309,2.688-6,6-6c3.309,0,6,2.691,6,6
			C93.584-112.931,90.893-110.24,87.584-110.24z M87.584-121.24c-2.757,0-5,2.243-5,5c0,2.757,2.243,5,5,5s5-2.243,5-5
			C92.584-118.997,90.341-121.24,87.584-121.24z"/>
	</g>
	<g display="inline">
		<path fill="#FCB033" d="M21,1.853v20.733C21,23.08,20.274,24,19.67,24H5.738C5.134,24,4,23.08,4,22.586V1.853
			C4,1.338,5.189,1,5.738,1H19.67C20.219,1,21,1.338,21,1.853z M5,22.586C5,22.717,5.724,23,5.738,23H20c0,0,0-0.283,0-0.414V1.853
			C20,1.717,20,2,20,2H5.738C5.558,2,5,1.717,5,1.853V22.586z"/>
	</g>
	<g display="inline">
		<path fill="#FCB033" d="M16.821,3H8.076C7.605,3,8,3.674,8,4.223v10.421C8,15.195,7.605,15,8.076,15h8.741
			C17.312,15,17,15.152,17,14.646V4.223C17,3.716,17.313,3,16.821,3z M16.821,15h-0.606c-0.145-2-1.746-3.452-3.711-3.452
			S8.929,13,8.789,15H8.076C7.924,15,8,14.761,8,14.646V4.223C8,4.109,7.924,4,8.076,4h8.741C16.974,4,17,4.055,17,4.223v10.421
			C17,14.814,16.974,15,16.821,15z"/>
		<circle fill="#FCB033" cx="12.216" cy="8.558" r="1.984"/>
	</g>
	<g display="inline">
		<path fill="#FCB033" d="M7,15V3h11v12H7z M8,3v12h9V3H8z"/>
	</g>
	<rect x="7" y="14" display="inline" fill="#FCB033" width="11" height="1"/>
	<path display="inline" fill="#E7A723" d="M7.676,22.07v0.007l0.105-0.044c0.021-0.014,0.036-0.014,0.061-0.027
		c0.017-0.003,0.029-0.014,0.042-0.02L9.49,21.3l0.065-0.047c0.038-0.019,0.071-0.04,0.104-0.062l0.104-0.07l-0.003-0.027
		c0.279-0.242,0.408-0.572,0.296-1.072c-0.083-0.354,0.111-0.455,0.435-0.504c1.069-0.146,2.146-0.187,3.22-0.062
		c0.995,0.112,1.012,0.118,0.987,1.103c-0.01,0.199,0.049,0.332,0.137,0.442l0.008,0.037l0.125,0.06
		c0.05,0.033,0.074,0.074,0.146,0.104c0.213,0.087,0.429,0.179,0.644,0.271l0.771,0.37c0.092,0.044,0.184,0.084,0.271,0.134
		c0.021,0.017,0.038,0.016,0.058,0.022l0.129,0.062l-0.008-0.016c0.313,0.102,0.508-0.039,0.709-0.328
		c1.109-1.593,0.343-3.828-1.553-4.363c-2.479-0.691-4.973-0.678-7.461-0.021c-0.484,0.13-0.903,0.379-1.254,0.735
		c-1.029,1.031-1.117,2.724-0.21,3.789C7.351,22.033,7.485,22.118,7.676,22.07z"/>
</g>
<g id="gym" display="none">
	<g display="inline">
		<path fill="#FCB033" d="M3.073,6.405l0.592,0.412c-4.084,8.996,1.83,13.951,1.891,14C5.66,20.9,5.785,20.941,5.91,20.941
			c0.159,0,0.319-0.068,0.435-0.207c0.194-0.235,0.158-0.59-0.082-0.782c-0.219-0.185-5.212-4.427-1.659-12.48L6.15,8.55
			C6.25,8.617,6.358,8.651,6.47,8.651c0.175,0,0.349-0.083,0.458-0.24c0.176-0.253,0.113-0.602-0.14-0.778L3.901,5.619L3.291,2.307
			C3.235,2.004,2.949,1.81,2.64,1.858C2.336,1.915,2.136,2.206,2.192,2.51l0.651,3.538C2.871,6.192,2.953,6.321,3.073,6.405z"/>
		<path fill="#FCB033" d="M22.579,18.885c0-2.927-2.381-5.352-5.313-5.352c-1.438,0-2.742,0.561-3.699,1.492l0.639-0.123L4.2,24
			H1.902c-0.31,0-0.559,0.189-0.559,0.5S1.593,25,1.902,25H3.02h7.544H22.02c0.313,0,0.563-0.189,0.563-0.5S22.328,24,22.02,24
			h-3.134C21.021,24,22.579,21.245,22.579,18.885z M11.837,24l1.587-1.393C14.032,23.253,14.809,24,15.67,24H11.837z M17.27,22.988
			c-1.24,0-2.343-0.551-3.105-1.407l2.388-2.388c0.217-0.219,0.217-0.571,0-0.791c-0.22-0.217-0.572-0.217-0.791,0l-1.872,1.871
			l-0.214-3.586c0.729-1.236,2.062-2.076,3.599-2.076c2.313,0,4.191,1.879,4.191,4.188C21.461,21.109,19.581,22.988,17.27,22.988z"
			/>
		<path fill="#FCB033" d="M23.133,8.973l-0.745-0.744C22.285,8.14,22.155,8,22.02,8h-5.588c-0.299,0-0.545,0.325-0.559,0.624
			c-0.018,0.298,0.21,0.601,0.507,0.628l0.945,0.108l1.549,0.623c-0.001,0.006-0.004,0.014-0.005,0.02l-0.563,2.331
			c-0.072,0.3,0.113,0.604,0.414,0.676c0.044,0.01,0.087,0.016,0.13,0.016c0.253,0,0.482-0.172,0.544-0.43l0.524-2.188l0.869,0.344
			c0.063,0.025,0.135,0.039,0.204,0.039c0.083,0,0.163-0.019,0.235-0.054L23,9.899c0.172-0.08,0.29-0.242,0.313-0.427
			C23.345,9.284,23.274,9.097,23.133,8.973z"/>
	</g>
</g>
<g id="Layer_18" display="none">
</g>
<g id="concierge" display="none">
	<g display="inline">
		<path fill="#FCB033" d="M24.591,17.482c-0.147-2.652-1.307-5.254-3.111-7.193c-0.913-0.981-1.98-1.819-3.171-2.444
			c-0.582-0.306-1.188-0.56-1.813-0.761c-0.25-0.08-0.47-0.132-0.452-0.439c0.019-0.436,0.015-0.873,0.009-1.309
			c-0.004-0.391-0.014-0.545,0.263-0.821c0.186-0.182,0.313-0.418,0.331-0.677c0.056-0.648-0.536-1.1-1.069-1.324
			c-1.354-0.564-3.006-0.553-4.423-0.276c-0.596,0.114-1.241,0.325-1.679,0.77C9.034,3.459,9.072,4.157,9.545,4.571
			c0.179,0.156,0.408,0.227,0.403,0.5C9.94,5.458,9.937,5.843,9.941,6.229c0.003,0.263,0.102,0.585-0.219,0.674
			C9.375,6.999,9.032,7.11,8.692,7.234c-2.404,0.895-4.438,2.572-5.824,4.727c-0.688,1.066-1.198,2.243-1.497,3.477
			c-0.146,0.604-0.242,1.217-0.292,1.834c-0.05,0.572-0.136,1.088-0.04,1.658C1.1,19.329,2.181,19,2.447,19c0.845,0,1.686,0,2.523,0
			c1.617,0,3.234,0,4.851,0c3.226,0,6.447,0.166,9.667,0.125c1.206-0.016,2.413,0.027,3.62,0.016
			c0.367-0.004,1.209,0.17,1.521-0.082c0.106-0.091,0.015-0.629,0.015-0.771C24.643,18.008,24.606,17.758,24.591,17.482
			C24.547,16.699,24.596,17.566,24.591,17.482z M15.271,3.761c-0.925,0.605-3.819,0.605-4.729,0
			C11.428,3.15,14.373,3.15,15.271,3.761z M14.419,6.334c0.04,0.319-0.247,0.234-0.459,0.21c-0.38-0.045-0.768-0.064-1.147-0.063
			c-0.354,0-0.714,0.016-1.066,0.05c-0.249,0.023-0.183-0.429-0.183-0.593c0.004-0.318,0.212-0.332,0.477-0.301
			c0.32,0.038,0.654,0.017,0.979,0.017c0.355,0,0.71,0.003,1.063,0C14.573,5.648,14.369,5.94,14.419,6.334
			C14.448,6.567,14.396,6.161,14.419,6.334z M22.876,17.755C22.865,17.833,22.721,18,22.644,18c-0.189,0-0.386,0-0.579,0
			c-0.387,0-0.771,0-1.154,0c-0.84,0-1.677,0-2.514,0c-1.604,0-3.216,0-4.82,0c-3.233,0-6.465-0.098-9.692-0.124
			c-0.289-0.003-0.813-0.09-1.072-0.212c-0.22-0.104-0.058-0.635-0.032-0.805c0.113-0.715,0.296-1.43,0.552-2.108
			c0.471-1.255,1.196-2.405,2.105-3.388c1.771-1.908,4.24-3.034,6.829-3.208c2.793-0.188,5.592,0.917,7.612,2.837
			c0.896,0.853,1.618,1.876,2.136,3c0.268,0.581,0.481,1.232,0.647,1.85"/>
		<path fill="#FCB033" d="M20.603,13.732c-0.855-1.899-2.479-3.273-4.302-4.225c-0.867-0.452-1.783-0.618-2.497,0.211
			c-0.465,0.541-0.583,1.36-0.139,1.95c0.248,0.33,0.611,0.49,0.974,0.671c0.428,0.219,0.843,0.46,1.232,0.743
			c0.729,0.533,1.349,1.206,1.768,2.013c0.188,0.354,0.33,0.688,0.708,0.883c0.386,0.194,0.857,0.195,1.259,0.047
			C20.498,15.688,21.006,14.621,20.603,13.732C20.261,12.979,20.702,13.952,20.603,13.732z M19.072,14.906
			c-0.214,0.027-0.272-0.229-0.35-0.374c-0.146-0.294-0.318-0.576-0.51-0.845c-0.382-0.535-0.854-1.006-1.366-1.412
			c-0.472-0.367-0.983-0.685-1.512-0.96c-0.192-0.102-0.54-0.193-0.684-0.37c-0.172-0.216,0.145-0.537,0.342-0.589
			c0.417-0.11,1.104,0.44,1.443,0.646c0.537,0.327,1.049,0.7,1.508,1.131C18.278,12.443,20.373,14.739,19.072,14.906
			C18.901,14.93,19.294,14.879,19.072,14.906z"/>
		<rect x="1" y="20" fill="#FCB033" width="24" height="2"/>
	</g>
</g>
<g id="maid" display="none">
	<g display="inline">
		<g>
			<path fill="#FCB033" d="M9.823,24.296c0.411,0,0.753,0.308,0.812,0.704h4.646c0.057-0.396,0.396-0.704,0.81-0.704
				s0.753,0.308,0.813,0.704h4.938c-0.168-2.871-2.126-4.357-4.046-5.436c-0.193-0.105-0.261-0.319-0.353-0.612
				c-0.018-0.056-0.042-0.134-0.063-0.191c-0.258-0.081-0.834-0.118-1.267-0.146c-0.528-0.032-1.034-0.064-1.42-0.162l-1.705,3.143
				l-1.813-3.256c-0.294,0.096-0.697,0.186-1.232,0.303c-0.445,0.099-1.002,0.215-1.225,0.312c-0.03,0.052-0.071,0.144-0.099,0.196
				c-0.108,0.235-0.203,0.438-0.396,0.539c-2.39,1.289-4.243,2.511-4.397,5.313H9.01C9.07,24.604,9.411,24.296,9.823,24.296z
				 M16.091,21.886c0.454,0,0.822,0.368,0.822,0.823c0,0.453-0.368,0.824-0.822,0.824s-0.822-0.371-0.822-0.824
				C15.269,22.254,15.637,21.886,16.091,21.886z M9.823,21.886c0.45,0,0.819,0.368,0.819,0.823c0,0.453-0.369,0.824-0.819,0.824
				c-0.453,0-0.822-0.371-0.822-0.824C9.001,22.254,9.37,21.886,9.823,21.886z"/>
			<path fill="#FCB033" d="M10.886,7.879C10.062,7.985,9.426,8.341,8.95,8.96c-1.41,1.828-0.855,5.278-0.854,5.313l0.216,1.287
				c0.839,0.864,1.93,1.489,3.149,1.76c0.021,0.005,0.041,0.011,0.063,0.018c0.41,0.085,0.84,0.13,1.271,0.13
				c2.208,0,4.142-1.149,5.252-2.878l-0.063-0.699l-0.306-3.542C13.931,9.919,11.475,8.302,10.886,7.879z M9.736,11.726
				c0-0.454,0.369-0.823,0.823-0.823c0.456,0,0.824,0.369,0.824,0.823c0,0.454-0.368,0.823-0.824,0.823
				C10.104,12.549,9.736,12.182,9.736,11.726z M14.9,14.573c-1.313,0.829-2.894,0.834-4.174-0.063
				c-0.456-0.318,0.119-0.965,0.569-0.648c0.951,0.668,2.163,0.604,3.125-0.004C14.892,13.563,15.372,14.277,14.9,14.573z
				 M14.898,12.549c-0.453,0-0.817-0.369-0.817-0.823c0-0.454,0.364-0.823,0.817-0.823c0.455,0,0.823,0.369,0.823,0.823
				C15.721,12.18,15.354,12.549,14.898,12.549z"/>
			<path fill="#FCB033" d="M6.666,12.373c0.231,0.617,0.567,1.273,1.043,1.965c0,0-1.083-6.465,3.288-6.872
				c0,0,2.685,2.113,7.057,2.519l0.332,3.871c0,0,0.192-0.317,0.4-0.877c0.269-0.727,0.563-1.856,0.479-3.213
				c-0.039-0.667-0.173-1.388-0.438-2.141c-0.193-0.541-0.458-1.099-0.813-1.665c0,0.07-0.002,0.143-0.002,0.214V6.37h-0.139H17.31
				h-0.592H8.88H8.288H7.721H7.623C7.474,6.531,7.153,6.91,6.855,7.479C6.495,8.17,6.167,9.138,6.224,10.342
				C6.255,10.959,6.388,11.638,6.666,12.373z"/>
			<path fill="#FCB033" d="M7.865,5.52c0.001,0.059,0.001,0.116,0.003,0.172c0,0.094,0,0.188,0.002,0.282h0.265h0.62h0.679h6.729
				h0.68h0.62h0.156c0-0.151,0.006-0.301,0.006-0.454c0.002-0.034,0.002-0.067,0.002-0.103c0-0.094,0-0.189,0.003-0.284
				c0-0.091,0-0.182,0-0.273c-0.003-0.998-0.069-1.934-0.505-2.376c-0.195-0.198-0.458-0.293-0.81-0.293H9.171
				c-0.353,0-0.611,0.095-0.806,0.293C7.902,2.955,7.854,3.98,7.861,5.049c0,0.1,0.002,0.199,0.002,0.298
				C7.865,5.407,7.865,5.463,7.865,5.52z"/>
		</g>
	</g>
</g>
<g id="welcome_hamper-02" display="none">
	<g display="inline">
		<path fill="#FCB033" d="M12.969,21.844v0.271V21.844z"/>
		<polygon fill="#FCB033" points="10.26,21.844 10.26,22.115 10.261,21.844 		"/>
		<polygon fill="#FCB033" points="15.677,21.844 15.677,22.115 15.678,21.844 		"/>
		<path fill="#FCB033" d="M24.275,10.72l-0.383-0.383c-0.212-0.211-0.452-0.746-0.538-0.66L19.601,13H6.263L2.509,9.677
			C2.423,9.591,2.183,9.909,1.97,10.121l-0.383,0.491c-0.211,0.211-0.313,0.075-0.229,0.16L3.965,13H2.677
			C2.377,13,2,14.105,2,14.404v0.541C2,15.246,2.377,16,2.677,16h1.43l1.602,7.475C5.748,24.008,6.126,24,6.801,24h12.064
			c0.675,0,1.053-0.002,1.097-0.535L21.578,16h1.141C23.018,16,23,15.246,23,14.945v-0.541C23,14.105,23.018,13,22.719,13h-0.82
			l2.605-2.174C24.589,10.74,24.488,10.932,24.275,10.72z M9,21.844v-4.875c0-0.299,0.701-0.542,1-0.542s1,0.243,1,0.542v4.875
			c0,0.299-0.701,0.542-1,0.542S9,22.143,9,21.844z M12,21.844v-4.875c0-0.299,0.702-0.542,1-0.542c0.299,0,1,0.243,1,0.542v4.875
			c0,0.299-0.701,0.542-1,0.542C12.702,22.386,12,22.143,12,21.844z M15,21.844v-4.875c0-0.299,0.701-0.542,1-0.542s1,0.243,1,0.542
			v4.875c0,0.299-0.701,0.542-1,0.542S15,22.143,15,21.844z"/>
	</g>
</g>
<g id="pet_friendly" display="none">
	<g display="inline">
		<path fill="#FCB033" d="M-53.053-86.798c-1.216,0.831-3.753-0.922-6.297-0.941c-2.543-0.019-5.148,1.741-6.321,0.942
			c-1.177-0.799,1.126-7.194,6.321-7.214C-54.151-94.031-51.836-87.629-53.053-86.798z"/>
	</g>
	
		<ellipse transform="matrix(0.9904 -0.1384 0.1384 0.9904 12.4036 -10.1877)" display="inline" fill="#FCB033" cx="-67.034" cy="-94.259" rx="2.201" ry="3.037"/>
	
		<ellipse transform="matrix(0.9985 -0.0556 0.0556 0.9985 5.3424 -3.626)" display="inline" fill="#FCB033" cx="-62.489" cy="-97.816" rx="2.204" ry="3.037"/>
	
		<ellipse transform="matrix(0.975 0.2222 -0.2222 0.975 -23.2361 10.1564)" display="inline" fill="#FCB033" cx="-56.756" cy="-98.19" rx="2.203" ry="3.037"/>
	
		<ellipse transform="matrix(0.8003 0.5996 -0.5996 0.8003 -67.7234 11.6415)" display="inline" fill="#FCB033" cx="-51.338" cy="-95.847" rx="2.203" ry="3.037"/>
	<g display="inline">
		<path fill="#FCB033" d="M-12.053-90.798c-1.216,0.831-3.753-0.922-6.297-0.941c-2.543-0.019-5.148,1.741-6.321,0.942
			c-1.177-0.799,1.126-7.194,6.321-7.214C-13.151-98.031-10.836-91.629-12.053-90.798z"/>
	</g>
	
		<ellipse transform="matrix(0.9904 -0.1383 0.1383 0.9904 13.3369 -4.5441)" display="inline" fill="#FCB033" cx="-26.038" cy="-98.264" rx="2.202" ry="3.037"/>
	
		<ellipse transform="matrix(0.9985 -0.0555 0.0555 0.9985 5.6196 -1.3502)" display="inline" fill="#FCB033" cx="-21.49" cy="-101.816" rx="2.203" ry="3.037"/>
	
		<ellipse transform="matrix(0.975 0.2222 -0.2222 0.975 -23.099 0.9456)" display="inline" fill="#FCB033" cx="-15.752" cy="-102.186" rx="2.203" ry="3.037"/>
	
		<ellipse transform="matrix(0.8002 0.5998 -0.5998 0.8002 -61.9481 -13.7463)" display="inline" fill="#FCB033" cx="-10.345" cy="-99.836" rx="2.203" ry="3.037"/>
	<g display="inline">
		<g>
			<path fill="none" stroke="#FCB033" stroke-miterlimit="10" d="M18.678,22.713c-1.364,0.936-4.213-1.033-7.066-1.056
				c-2.854-0.021-5.777,1.954-7.099,1.059c-1.317-0.896,1.264-8.073,7.099-8.095C17.446,14.6,20.043,21.782,18.678,22.713z"/>
		</g>
		
			<ellipse transform="matrix(0.9903 -0.1387 0.1387 0.9903 -1.8677 0.546)" fill="none" stroke="#FCB033" stroke-miterlimit="10" cx="2.985" cy="13.678" rx="2.472" ry="3.408"/>
		
			<ellipse transform="matrix(0.9985 -0.0557 0.0557 0.9985 -0.526 0.4649)" fill="none" stroke="#FCB033" stroke-miterlimit="10" cx="8.084" cy="9.676" rx="2.474" ry="3.408"/>
		
			<ellipse transform="matrix(0.975 0.2221 -0.2221 0.975 2.4215 -2.9944)" fill="none" stroke="#FCB033" stroke-miterlimit="10" cx="14.524" cy="9.269" rx="2.471" ry="3.408"/>
		
			<ellipse transform="matrix(0.8001 0.5998 -0.5998 0.8001 11.2539 -9.9783)" fill="none" stroke="#FCB033" stroke-miterlimit="10" cx="20.599" cy="11.897" rx="2.473" ry="3.408"/>
	</g>
</g>
<g id="welcome_hamper-01" display="none">
	<g display="inline">
		<polygon fill="#FCB033" points="12.605,21.334 12.605,21.662 12.606,21.334 		"/>
		<polygon fill="#FCB033" points="9.322,21.334 9.322,21.662 9.323,21.334 		"/>
		<polygon fill="#FCB033" points="15.888,21.662 15.889,21.334 15.888,21.334 		"/>
		<path fill="#FCB033" d="M24.424,12H21.79h-0.848c-0.313-5-4.111-8.126-8.75-8.126C7.557,3.874,3.759,7,3.443,12H3.092H0.129
			C-0.234,12,0,11.954,0,12.316v0.656C0,13.337-0.234,13,0.129,13h1.729l1.94,9.71C3.853,23.359,4.311,24,5.128,24h14.626
			c0.813,0,1.271-0.65,1.327-1.3l1.96-9.7h1.382C24.788,13,25,13.337,25,12.973v-0.656C25,11.954,24.788,12,24.424,12z M9,21.334
			v-5.91c0-0.361,0.638-0.656,1-0.656c0.358,0,1,0.295,1,0.656v5.91c0,0.363-0.642,0.657-1,0.657C9.638,21.991,9,21.697,9,21.334z
			 M12,21.334v-5.91c0-0.361,0.639-0.656,1-0.656c0.357,0,1,0.295,1,0.656v5.91c0,0.363-0.643,0.657-1,0.657
			C12.639,21.991,12,21.697,12,21.334z M17,21.334c0,0.363-0.641,0.657-1,0.657c-0.363,0-1-0.294-1-0.657v-5.91
			c0-0.361,0.637-0.656,1-0.656c0.359,0,1,0.295,1,0.656V21.334z M12.196,4.531C16.459,4.531,19.96,8,20.288,12H4.102
			C4.431,8,7.931,4.531,12.196,4.531z"/>
	</g>
</g>
<g id="wlecome-provisions" display="none">
	<g display="inline">
		<path fill="#FCB033" d="M18.135,3.564c-0.006,0.003-0.012,0.015-0.018,0.019C18.448,3.58,18.128,3.568,18.135,3.564z"/>
		<path fill="#FCB033" d="M20.525,3.453C20.762,3.304,21,3.042,21,2.743V2.258C21,1.794,20.379,1,19.915,1h-1.934
			C17.521,1,17,1.794,17,2.258v0.485c0,0.298,0.229,0.561,0.463,0.71c-0.273,0.419-0.521,1.033-0.792,1.729
			c-1.04-0.346-2.188-0.537-3.396-0.537c-2.758,0-4.94,1.212-5.981,2.25l0.069,0.068l-4.938,4.724
			c-0.454,0.563-0.922,1.2-0.922,1.881C1.501,14.454,2,15.453,3,16.213v4.571C3,22.184,4.168,23,5.325,23h6.384
			c0.104,0,0.197,0.279,0.291,0.434c0.183,0.299,0.41,0.69,0.852,0.799c0.392,0.099,0.8,0.332,1.229,0.332
			c2.028,0,4.231-1.563,5.521-2.563h1.521C22.113,22,23,20.832,23,19.836v-8.667C23,10.75,21.721,5.283,20.525,3.453z M8.116,7.075
			l0.067-0.004C9.23,6.223,11.05,5.367,13.29,5.367c1.123,0,2.2,0.175,3.16,0.491c-0.55,1.525-1.025,3.27-1.28,4.338
			c-0.896-0.839-2.747-0.853-5.089-0.813C9.565,9.393,9.034,9.402,8.49,9.402c-1.182,0-2.276,0.176-3.232,0.489L8.116,7.075z
			 M5.325,22C4.228,22,4,21.154,4,20.784v-5.031L3.86,15.659c-1.242-0.566-1.46-1.216-1.46-2.085c0-1.931,2.683-3.438,6.075-3.438
			c0.548,0,1.094,0.001,1.613-0.007c2.112-0.039,3.953-0.047,4.62,0.608C14.896,10.922,15,10.807,15,11.529v1.784
			c0-0.047-0.426-0.078-0.652-0.078c-1.367,0-2.842,0.865-3.471,1.701c-1.486,1.977-1.858,4.724-0.881,6.782
			C10.092,21.92,10.229,22,10.382,22H5.325z M19.092,21.128c-1.148,1.522-3.162,2.546-5.014,2.546c-0.369,0-0.727-0.041-1.059-0.122
			c-0.143-0.034-0.249-0.194-0.404-0.452c-0.136-0.216-0.326-0.461-0.563-0.639C12.051,22.459,12,22.457,12,22.455l-0.417-0.122
			l0.5,0.5c-0.192,0-0.539-0.862-0.727-0.938c-0.373-0.15-0.604-0.168-0.714-0.395c-0.854-1.805-0.511-4.434,0.806-6.176
			c0.512-0.68,1.761-1.391,2.888-1.391c0.209,0,0.398,0.039,0.576,0.09c0.332,0.1,0.564,0.473,0.842,0.896
			c0.154,0.242,0.313,0.494,0.509,0.723c0.134,0.152,0.271,0.279,0.411,0.385c0.396,0.285,0.878,0.412,1.344,0.535
			c0.498,0.129,0.969,0.254,1.188,0.553C20.009,18.221,19.806,20.182,19.092,21.128z M22,19.836C22,20.434,21.715,21,21.117,21
			h-1.092c0.561-1,0.603-3.116-0.237-4.271c-0.369-0.506-0.988-0.688-1.588-0.845c-0.334-0.088-0.678-0.192-0.948-0.342
			c0.008-0.031,0.02-0.067,0.021-0.099c0.017-0.426,1.359-0.834,2.563-0.865c0.199-0.005,0.354-0.163,0.352-0.362
			c-0.006-0.198-0.169-0.325-0.37-0.333c-0.188,0.006-0.644,0.032-1.15,0.12c0.003-0.412-0.337-0.935-0.772-1.353
			c-0.604-0.58-1.446-0.657-1.479-0.659l-0.444-0.038l0.056,0.441c0.005,0.035,0.115,0.877,0.72,1.457
			c0.228,0.217,0.459,0.392,0.683,0.515c-0.327,0.153-0.599,0.356-0.745,0.622c-0.104-0.146-0.061-0.297-0.157-0.449
			C16.316,14.234,16,13.934,16,13.695v-2.527C16,10.327,17.428,4,18.117,4c-0.063,0-0.142,0-0.25,0l0,0l0.268-0.436L19,3h-1.133l0,0
			h0.114C17.92,3,18,2.809,18,2.743V2.258C18,2.192,17.92,2,17.985,2h1.934C19.98,2,20,2.192,20,2.258v0.485
			C20,2.809,19.98,3,19.915,3H19v0.584c0,0,0.156-0.015,0.146-0.02C19.826,4.009,22,10.32,22,11.168V19.836z M18.07,14.133v-0.279
			c0,0,0,0,0.001,0L18.07,14.133z M17.871,13.791c-0.165-0.076-0.397-0.227-0.643-0.459c-0.146-0.141-0.25-0.309-0.322-0.468
			c0.158,0.069,0.333,0.167,0.479,0.308C17.645,13.422,17.794,13.641,17.871,13.791z"/>
	</g>
	<path display="inline" fill="#FCB033" d="M6.367,8.343c-0.017,0.006-0.193-0.15,0.268-0.237c0.227-0.05,0.498-0.088,0.784-0.13
		c0.285-0.043,0.595-0.059,0.895-0.087l0.449-0.002c0.146,0.003,0.291-0.012,0.422,0.01c0.132,0.015,0.26,0.029,0.38,0.043
		c0.117,0.019,0.238,0.016,0.326,0.05c0.361,0.106,0.604,0.177,0.604,0.177S10.228,8.132,9.83,8.08
		C9.738,8.06,9.612,8.078,9.496,8.076C9.377,8.078,9.252,8.08,9.123,8.083C8.998,8.078,8.855,8.11,8.72,8.124L8.308,8.176
		c-0.273,0.062-0.549,0.108-0.8,0.178S7.026,8.485,6.834,8.553C6.448,8.677,5.686,8.871,5.67,8.874L6.367,8.343z"/>
	<path display="inline" fill="#FCB033" d="M7.372,7.37C7.359,7.376,7.174,7.197,7.635,7.109c0.227-0.051,0.498-0.088,0.784-0.13
		S9.015,6.926,9.315,6.9l0.451,0.007c0.146,0.007,0.292-0.006,0.425,0.022c0.136,0.019,0.265,0.038,0.386,0.056
		c0.114,0.023,0.236,0.023,0.325,0.063c0.364,0.127,0.606,0.212,0.606,0.212s-0.266-0.113-0.667-0.181
		C10.75,7.055,10.624,7,10.506,7c-0.119,0-0.244,0-0.374,0c-0.125,0-0.268,0.093-0.404,0.105L9.316,7.189
		c-0.273,0.063-0.549,0.127-0.799,0.2c-0.25,0.073-0.479,0.145-0.671,0.218C7.46,7.739,6.699,7.943,6.684,7.946L7.372,7.37z"/>
	<rect x="33.001" y="-17.95" display="inline" fill="#FCB033" width="7.666" height="6.899"/>
</g>
<g id="toiletries" display="none">
	<path display="inline" fill="#FCB033" d="M22.986,16.241l-0.772-1.054c0.347-0.229,0.978-0.732,1.104-1.498
		c0.079-0.479-0.047-0.957-0.375-1.438l0.046-0.031l-0.814-1.114c0.331-0.249,0.676-0.604,0.727-1.036
		c0.025-0.222-0.031-0.539-0.354-0.847l0.038-0.074l-8.312-4.279c-0.292-0.285-0.809-0.667-1.549-0.764
		C11.715,3.975,10.637,4.404,9.51,5.38L3.095,8.997l0.063,0.108L3.12,9.055l-1.685,1.281l1.591,0.933l-0.974,1.127
		c-0.078,0.092-0.112,0.213-0.092,0.33c0.02,0.119,0.091,0.223,0.195,0.279l0.597,0.348l-1.317,1.004l1.591,0.934L2.054,16.42
		c-0.078,0.091-0.112,0.212-0.092,0.329c0.02,0.118,0.091,0.222,0.195,0.282l0.597,0.343l-1.317,1.005l5.692,3.337
		c0.159,0.118,2.97,2.206,5.7,2.205c0.97,0,1.93-0.262,2.756-0.971l6.396-3.604c0.047-0.021,1.161-0.591,1.335-1.634
		c0.079-0.478-0.047-0.959-0.375-1.435L22.986,16.241z M3.605,9.695L3.572,9.651l6.366-3.587l0.068-0.047
		c0.952-0.833,1.822-1.206,2.601-1.111c0.336,0.042,0.604,0.168,0.813,0.306l-0.051,0.1l0.423,0.217
		c0.061,0.066,0.094,0.114,0.099,0.121l0.06-0.04l8.016,4.128l-0.02,0.021c0.075,0.059,0.161,0.146,0.152,0.224
		c-0.021,0.217-0.48,0.583-0.904,0.788l-6.104,3.504c-2.66,2.33-7.426-1.207-7.514-1.271l-4.7-2.754L3.605,9.695z M3.508,13.789
		l7.527,4.347c0.063,0.036,0.133,0.054,0.198,0.054c0.142,0,0.274-0.068,0.351-0.197c0.108-0.192,0.045-0.438-0.147-0.553
		l-8.458-4.883l0.754-0.874l3.396,1.989c0.16,0.121,2.994,2.225,5.71,2.225c0.96,0,1.906-0.263,2.712-0.97l4.846-2.776l0.729,1.023
		l-7.948,3.815c-0.199,0.096-0.284,0.337-0.188,0.534c0.068,0.146,0.216,0.229,0.362,0.229c0.062,0,0.117-0.014,0.174-0.039
		l8.377-4.021c0.106-0.053,0.188-0.146,0.219-0.262c0.025-0.115,0.007-0.238-0.063-0.336L21.1,11.746l0.382-0.219l0.551,0.747
		l-0.063,0.063c0.429,0.437,0.617,0.845,0.557,1.216c-0.104,0.639-0.895,1.047-0.919,1.063l-6.445,3.634l-0.067,0.046
		c-2.66,2.331-7.426-1.207-7.514-1.271l-4.7-2.754L3.508,13.789z M21.604,18.635l-6.444,3.635l-0.068,0.047
		c-2.66,2.328-7.426-1.209-7.514-1.271L2.88,18.292l0.632-0.479l7.527,4.349c0.063,0.034,0.133,0.053,0.198,0.053
		c0.142,0,0.274-0.067,0.351-0.196c0.108-0.193,0.045-0.438-0.147-0.553l-8.46-4.887l0.754-0.872l3.396,1.987
		c0.159,0.121,2.97,2.207,5.7,2.207c0.97,0,1.93-0.266,2.756-0.971l4.835-2.729l0.702,0.99l-7.948,3.813
		c-0.199,0.098-0.284,0.337-0.188,0.537c0.069,0.145,0.217,0.229,0.363,0.229c0.062,0,0.117-0.013,0.174-0.039l8.377-4.021
		c0.106-0.053,0.188-0.146,0.219-0.262c0.025-0.115,0.007-0.238-0.063-0.334L21.126,15.8l0.385-0.215l0.521,0.707l-0.063,0.063
		c0.429,0.438,0.617,0.848,0.557,1.217C22.418,18.214,21.628,18.623,21.604,18.635z"/>
</g>
<g id="car-park" display="none">
	<g display="inline">
		<path fill="#FCB033" d="M14.673,15.775c1.08,0.154,1.122,0.197,1.306,1.265c0.162,0.929,0.327,1.854,0.489,2.785
			c0.225,1.271-0.129,1.849-1.37,2.245c-0.344,1.783-0.73,2.193-2.027,2.14c-1.132-0.048-1.557-0.563-1.729-2.174
			c-0.821,0-1.656,0-2.49,0c-0.819,0-1.641,0-2.268,0c-0.336,0.688-0.515,1.354-0.932,1.782c-0.284,0.298-0.908,0.367-1.385,0.367
			c-1.089,0-1.492-0.558-1.637-2.063c-0.314-0.158-0.666-0.272-0.938-0.488c-0.49-0.397-0.637-0.95-0.521-1.571
			c0.182-1.008,0.366-2.013,0.544-3.02c0.188-1.068,0.224-1.105,1.28-1.268c0.095-0.7,0.149-1.42,0.294-2.121
			c0.311-1.545,1.582-2.69,3.148-2.758c1.563-0.068,3.135-0.08,4.693-0.009c1.864,0.085,3.185,1.431,3.377,3.296
			C14.565,14.702,14.617,15.221,14.673,15.775z M13.253,15.799c0.143-2.301-0.748-3.787-2.528-3.504
			c-0.137,1.086-0.26,1.195-1.356,1.198c-0.281,0.002-0.563,0-0.846,0c-1.304,0-1.313-0.011-1.583-1.238
			c-1.886-0.142-2.599,1.306-2.503,3.544C7.375,15.799,10.315,15.799,13.253,15.799z M4.034,17.986
			c-0.718,0.002-1.313,0.59-1.317,1.293c-0.006,0.713,0.643,1.344,1.359,1.322c0.696-0.021,1.291-0.639,1.274-1.336
			C5.342,18.557,4.749,17.98,4.034,17.986z M13.634,17.982c-0.714,0.011-1.295,0.602-1.292,1.313
			c0.004,0.703,0.604,1.303,1.305,1.307c0.729,0.002,1.354-0.636,1.329-1.354C14.952,18.54,14.352,17.973,13.634,17.982z"/>
	</g>
	<g display="inline">
		<g>
			<path fill="#FCB033" d="M21.8,8.651c0,0.573-0.181,1.011-0.538,1.315c-0.359,0.304-0.867,0.454-1.528,0.454H19.25v1.895h-1.128
				V6.991h1.696c0.646,0,1.14,0.137,1.477,0.417C21.631,7.686,21.8,8.1,21.8,8.651z M19.25,9.497h0.371
				c0.348,0,0.604-0.071,0.776-0.206c0.171-0.138,0.262-0.337,0.262-0.601c0-0.265-0.07-0.46-0.22-0.585
				c-0.146-0.127-0.372-0.189-0.68-0.189h-0.51V9.497z"/>
		</g>
	</g>
	<g display="inline">
		<path fill="#FCB033" d="M19.502,14.583c-2.905,0-5.271-2.364-5.271-5.27c0-2.905,2.362-5.269,5.271-5.269s5.271,2.363,5.271,5.269
			S22.407,14.583,19.502,14.583z M19.502,4.923c-2.42,0-4.396,1.97-4.396,4.391c0,2.422,1.976,4.393,4.396,4.393
			c2.421,0,4.393-1.97,4.393-4.393C23.895,6.893,21.923,4.923,19.502,4.923z"/>
	</g>
	<g display="inline">
		<rect x="18" y="14" fill="#FCB033" width="2" height="10"/>
	</g>
</g>
<g id="nosmoking" display="none">
	<g display="inline">
		<path fill="#FCB033" d="M14.319,11.844l9.582-9.583c0.35-0.344,0.35-0.903,0-1.249c-0.344-0.345-0.899-0.345-1.247,0l-9.583,9.583
			L3.488,1.012c-0.345-0.345-0.899-0.345-1.244,0c-0.349,0.345-0.349,0.904,0,1.249l9.578,9.583L2.24,21.427
			c-0.349,0.343-0.349,0.903,0,1.248c0.172,0.173,0.396,0.259,0.624,0.259c0.226,0,0.448-0.086,0.62-0.259l9.583-9.582l9.583,9.582
			c0.176,0.173,0.397,0.259,0.623,0.259c0.229,0,0.452-0.086,0.624-0.259c0.35-0.345,0.35-0.905,0-1.248L14.319,11.844z"/>
		<path fill="#FCB033" d="M20.31,11.12L20.691,11H2.251C1.571,11,1,12.037,1,12.713v0.93C1,14.35,1.603,15,2.251,15h13.523h0.747
			h3.773c0.111,0,0.223,0.057,0.332,0.057c0.106,0,0.223-0.057,0.332-0.057h0.043l-0.384-0.037C21.02,14.826,21,14.458,21,14.057
			v-1.889C21,11.665,20.817,11.149,20.31,11.12z M4,14v-2h12v2H4z M17,12h2.545c-0.022,0-1.42-0.375-1.545,0.168v1.889
			C18,14.105,19.521,14,19.531,14H17V12z M20,14.057c0,0.176-0.325,0.315-0.5,0.315c-0.174,0-0.5-0.142-0.5-0.315v-1.889
			c0-0.174,0.326-0.316,0.5-0.316c0.175,0,0.5,0.142,0.5,0.316V14.057z"/>
		<g>
			<path fill="#FCB033" d="M2.002,10.51c-0.247-0.008-0.327-0.176-0.229-0.382C1.961,9.75,2.06,9.35,1.98,8.938
				C1.923,8.647,1.816,8.361,1.693,8.091C1.4,7.451,1.359,6.804,1.586,6.141c0.041-0.116,0.095-0.228,0.146-0.336
				C1.8,5.68,1.903,5.615,2.041,5.677C2.181,5.742,2.2,5.857,2.15,6.005C2.06,6.281,1.953,6.559,1.912,6.843
				C1.847,7.285,2.004,7.688,2.202,8.08C2.47,8.612,2.54,9.172,2.395,9.75c-0.05,0.204-0.13,0.402-0.219,0.593
				C2.138,10.423,2.042,10.474,2.002,10.51z"/>
		</g>
		<g>
			<path fill="#FCB033" d="M0.771,9.638c-0.233,0-0.313-0.155-0.247-0.355c0.087-0.263,0.188-0.528,0.23-0.799
				C0.82,8.036,0.671,7.624,0.47,7.227C0.154,6.598,0.123,5.945,0.351,5.28c0.04-0.115,0.093-0.227,0.147-0.337
				c0.063-0.134,0.174-0.202,0.313-0.131c0.146,0.071,0.144,0.194,0.102,0.334C0.826,5.437,0.721,5.729,0.68,6.027
				C0.621,6.447,0.779,6.83,0.964,7.203C1.283,7.839,1.311,8.498,1.08,9.169c-0.039,0.115-0.089,0.23-0.155,0.333
				C0.882,9.568,0.803,9.611,0.771,9.638z"/>
		</g>
	</g>
</g>
<g id="flat-screen-tv" display="none">
	<g display="inline">
		<path fill="#FCB033" d="M25,22H0V8h25V22z M1,21h23V9H1V21z"/>
	</g>
	<g display="inline">
		<rect x="2" y="10" fill="#FCB033" width="21" height="10"/>
	</g>
	<g display="inline">
		<rect x="2" y="23" fill="#FCB033" width="21" height="1"/>
	</g>
</g>
<g id="cctv" display="none">
	<path display="inline" fill="#FCB033" d="M23.882,8.583L9.279,2.477C8.295,2.065,7.693,2.229,7.441,2.835L5.796,6.767
		C5.795,6.769,5.795,6.771,5.794,6.774L5.205,8.182c-0.336,0.806,0.103,1.73,0.999,2.105l4.997,2.145L6,17.514v-3.125
		c0-0.201,0.067-0.213-0.051-0.336C5.742,13.848,6.375,14.125,5.288,14H2.306c-0.165,0-0.684-0.152-0.833-0.004
		C1.321,14.148,1,14.188,1,14.389v8.205C1,22.9,1.642,24,2.357,24H5.29C5.849,24,6,23.125,6,22.594V20h0.478
		c0.021,0,0.068-0.046,0.104-0.033C6.672,20,6.81,20.018,6.964,20.018c0.077,0,0.158-0.025,0.24-0.063
		c0.372-0.057,0.651-0.295,0.76-0.627l5.871-5.846l5.497,2.295c0.26,0.107,0.524,0.16,0.786,0.16c0.512,0,0.979-0.209,1.271-0.568
		l0.759,0.314l0.159,0.031c0.333,0,0.443-0.316,0.563-0.652c0.021-0.063,0.04-0.117,0.057-0.158l0.527-1.262
		c0.019-0.043,0.04-0.08,0.058-0.113c0.063-0.106,0.15-0.271,0.082-0.467l-0.083-0.188l-0.857-0.356l0.171-0.4
		c1.083-0.018,1.324-0.135,1.435-0.389l0.662-1.584C25.101,9.706,25.068,9.081,23.882,8.583z M5,22.594C5,22.756,5.35,22,5.288,23
		H2.433C2.413,22,2,22.67,2,22.594V15h3.341C5.389,15,5,14.469,5,14.471V17H4.116C3.584,17,3,17.955,3,18.491v0.586
		C3,19.313,3.275,20,4.116,20H5V22.594z M7.254,18.938l-0.021,0.123c-0.003,0.025-0.017,0.105-0.172,0.117l-0.096,0.008
		l-0.032,0.021c-0.022-0.008-0.058-0.066-0.082-0.077C6.753,19.093,6.63,19,6.488,19h-0.22H5.497h-1.38C3.967,19,4,19.074,4,19.077
		v-0.586C4,18.323,4.076,18,4.116,18H6.55l5.553-5.408l0.961,0.482L7.254,18.938z M19.629,15.064L6.501,9.576
		C5.995,9.364,5.743,8.892,5.916,8.479l0.147-0.362c0.17,0.199,0.394,0.37,0.659,0.482l7.004,2.8
		c0.559,0.232,5.59,0.656,8.263,0.712l-0.343,0.809l-0.516,1.232c-0.001,0.004-0.004,0.008-0.005,0.011l-0.24,0.575
		C20.722,15.139,20.156,15.285,19.629,15.064z M22.727,13.384l-0.51,1.222c-0.022,0.056-0.049,0.125-0.075,0.203
		c-0.004,0.01-0.007,0.021-0.011,0.032l-0.356-0.149c0.021-0.084,0.045-0.178,0.069-0.235l0.513-1.228L22.727,13.384z M24.207,9.845
		l-0.607,1.45c-0.123,0.022-0.414,0.053-1.062,0.053c-2.688,0-8.066-0.504-8.521-0.663l-7.003-2.8
		c-0.393-0.164-0.625-0.54-0.51-0.821l0.653-1.56l0,0l0.988-2.372c0.029-0.071,0.061-0.114,0.197-0.114
		c0.15,0,0.363,0.057,0.632,0.17L23.58,9.293C24.31,9.598,24.232,9.784,24.207,9.845z"/>
</g>
<g id="air-con" display="none">
	<g display="inline">
		<path fill="#FCB033" d="M24.644,17.625c-0.103,0.238-0.293,0.305-0.543,0.305c-7.852-0.002-15.705-0.002-23.558,0
			c-0.249,0-0.439-0.063-0.543-0.305c0-2.873,0-5.745,0-8.616C0.055,8.86,0.095,8.703,0.167,8.563
			c0.329-0.645,0.87-0.922,1.584-0.92c2.478,0.005,4.955,0.002,7.433,0.002c4.543,0,9.091-0.003,13.637,0.008
			c0.313,0,0.646,0.061,0.932,0.177c0.514,0.208,0.749,0.67,0.895,1.179C24.644,11.88,24.644,14.752,24.644,17.625z M23.429,8.577
			c0,0.16,0.006,0.271,0,0.382c-0.031,0.497-0.303,0.869-0.741,0.986c-0.159,0.042-0.332,0.051-0.499,0.051
			C15.612,9.999,9.037,9.998,2.46,9.998c-0.112,0-0.228-0.005-0.335-0.018C1.662,9.926,1.312,9.593,1.241,9.13
			C1.215,8.96,1.212,8.787,1.196,8.582c-0.305,0.21-0.383,0.481-0.383,0.803c0.003,2.494,0.002,4.988,0.002,7.481
			c0,0.079,0,0.155,0,0.233c0.147,0,0.267,0,0.4,0c0-0.104,0-0.189,0-0.277c0-0.568-0.007-1.139,0.001-1.707
			c0.009-0.691,0.429-1.105,1.119-1.105c6.655-0.002,13.312-0.002,19.968,0c0.702,0,1.117,0.416,1.125,1.124
			c0.006,0.569,0.001,1.138,0.001,1.708c0,0.086,0,0.172,0,0.26c0.149,0,0.264,0,0.398,0c0-0.104,0-0.188,0-0.273
			c0-2.467,0-4.925,0-7.386c0-0.088,0.003-0.178-0.012-0.265C23.789,8.934,23.688,8.735,23.429,8.577z M1.774,8.465
			c0,0.204-0.013,0.38,0.003,0.553C1.801,9.27,1.966,9.419,2.219,9.445c0.08,0.008,0.16,0.006,0.241,0.006
			c6.576,0.001,13.149,0.001,19.729,0c0.101,0,0.211,0.026,0.283-0.018c0.146-0.086,0.319-0.191,0.369-0.328
			c0.068-0.191,0.033-0.418,0.044-0.64C15.827,8.465,8.813,8.465,1.774,8.465z M22.867,15.646c-7.038,0-14.06,0-21.092,0
			c0,0.178,0,0.34,0,0.515c7.036,0,14.06,0,21.092,0C22.867,15.989,22.867,15.832,22.867,15.646z M1.787,15.064
			c7.022,0,14.05,0,21.078,0c-0.021-0.381-0.198-0.521-0.643-0.521c-6.6,0-13.198,0-19.797,0c-0.088,0-0.177,0.001-0.263,0.02
			C1.905,14.617,1.785,14.779,1.787,15.064z M1.777,17.098c7.054,0,14.069,0,21.091,0c0-0.137,0-0.252,0-0.373
			c-7.038,0-14.062,0-21.091,0C1.777,16.854,1.777,16.971,1.777,17.098z"/>
		<path fill="#FCB033" d="M14.847,24.999c-0.288-0.013-0.383-0.207-0.263-0.448c0.215-0.443,0.33-0.912,0.233-1.396
			c-0.063-0.338-0.188-0.674-0.336-0.988c-0.342-0.75-0.392-1.512-0.124-2.285c0.051-0.137,0.108-0.271,0.179-0.396
			c0.069-0.146,0.192-0.223,0.354-0.146c0.165,0.075,0.188,0.21,0.13,0.386c-0.104,0.321-0.229,0.646-0.277,0.98
			c-0.076,0.518,0.105,0.988,0.34,1.447c0.313,0.623,0.396,1.281,0.228,1.959c-0.06,0.238-0.148,0.474-0.256,0.691
			C15.007,24.896,14.895,24.957,14.847,24.999z"/>
		<path fill="#FCB033" d="M12.385,24.996c-0.278,0-0.367-0.182-0.29-0.417c0.102-0.308,0.221-0.619,0.271-0.937
			c0.077-0.525-0.101-1.012-0.332-1.479c-0.372-0.732-0.407-1.502-0.145-2.281c0.046-0.135,0.109-0.266,0.172-0.394
			c0.077-0.156,0.203-0.236,0.373-0.154c0.169,0.082,0.163,0.229,0.113,0.396c-0.102,0.342-0.225,0.683-0.273,1.028
			c-0.064,0.492,0.116,0.942,0.335,1.382c0.374,0.742,0.407,1.519,0.14,2.305c-0.047,0.136-0.104,0.271-0.186,0.39
			C12.516,24.913,12.422,24.965,12.385,24.996z"/>
		<path fill="#FCB033" d="M12.343,12.917c0.386,0,0.77-0.006,1.155,0.002c0.271,0.006,0.433,0.228,0.29,0.401
			c-0.071,0.088-0.233,0.137-0.355,0.139c-0.737,0.014-1.476,0.008-2.214,0.008c-0.008,0-0.016,0-0.024,0
			c-0.187-0.006-0.373-0.029-0.375-0.271c-0.001-0.234,0.181-0.274,0.367-0.274C11.573,12.916,11.958,12.917,12.343,12.917z"/>
		<path fill="#FCB033" d="M22.048,13.257c-0.104,0.065-0.197,0.171-0.304,0.188c-0.155,0.025-0.264-0.092-0.265-0.25
			c-0.001-0.168,0.109-0.286,0.273-0.26c0.104,0.019,0.195,0.135,0.292,0.209C22.048,13.182,22.048,13.219,22.048,13.257z"/>
		<path fill="#FCB033" d="M20.802,13.242c-0.099,0.07-0.186,0.18-0.294,0.203c-0.154,0.033-0.261-0.084-0.271-0.236
			c-0.008-0.17,0.104-0.294,0.267-0.273c0.104,0.017,0.2,0.127,0.3,0.196C20.8,13.168,20.801,13.205,20.802,13.242z"/>
		<path fill="#FCB033" d="M9.925,25c-0.275-0.011-0.377-0.182-0.306-0.382c0.081-0.233,0.188-0.461,0.24-0.699
			c0.13-0.543,0.048-1.067-0.212-1.562c-0.354-0.687-0.506-1.396-0.313-2.156c0.057-0.23,0.155-0.452,0.244-0.672
			c0.063-0.168,0.188-0.278,0.375-0.196c0.192,0.087,0.191,0.255,0.105,0.426c-0.27,0.536-0.349,1.101-0.191,1.681
			c0.065,0.263,0.188,0.506,0.302,0.752c0.393,0.865,0.382,1.725-0.033,2.57C10.086,24.869,9.974,24.947,9.925,25z"/>
		<path fill="#FCB033" d="M14.847,24.999c-0.288-0.013-0.383-0.207-0.263-0.448c0.215-0.443,0.33-0.912,0.233-1.396
			c-0.063-0.338-0.188-0.674-0.336-0.988c-0.342-0.75-0.392-1.512-0.124-2.285c0.051-0.137,0.108-0.271,0.179-0.396
			c0.069-0.146,0.192-0.223,0.354-0.146c0.165,0.075,0.188,0.21,0.13,0.386c-0.104,0.321-0.229,0.646-0.277,0.98
			c-0.076,0.518,0.105,0.988,0.34,1.447c0.313,0.623,0.396,1.281,0.228,1.959c-0.06,0.238-0.148,0.474-0.256,0.691
			C15.007,24.896,14.895,24.957,14.847,24.999z"/>
		<path fill="#FCB033" d="M12.385,24.996c-0.278,0-0.367-0.182-0.29-0.417c0.102-0.308,0.221-0.619,0.271-0.937
			c0.077-0.525-0.101-1.012-0.332-1.479c-0.372-0.732-0.407-1.502-0.145-2.281c0.046-0.135,0.109-0.266,0.172-0.394
			c0.077-0.156,0.203-0.236,0.373-0.154c0.169,0.082,0.163,0.229,0.113,0.396c-0.102,0.342-0.225,0.683-0.273,1.028
			c-0.064,0.492,0.116,0.942,0.335,1.382c0.374,0.742,0.407,1.519,0.14,2.305c-0.047,0.136-0.104,0.271-0.186,0.39
			C12.516,24.913,12.422,24.965,12.385,24.996z"/>
	</g>
</g>
<g id="wi-fi" display="none">
	<g display="inline">
		<g>
			<g>
				<path fill="#FCB033" d="M4.812,24.165c-2.294,0-4.161-1.866-4.161-4.162s1.867-4.164,4.161-4.164
					c2.296,0,4.163,1.868,4.163,4.164S7.108,24.165,4.812,24.165z M4.812,17.198c-1.544,0-2.801,1.258-2.801,2.805
					c0,1.545,1.257,2.804,2.801,2.804c1.545,0,2.807-1.259,2.807-2.804C7.615,18.456,6.357,17.198,4.812,17.198z"/>
			</g>
		</g>
		<g>
			<g>
				<path fill="#FCB033" d="M17.822,25c-0.005,0-0.015,0-0.022,0H14.58c-0.375,0-0.684-0.109-0.684-0.486
					c0-7.865-5.654-13.699-13.402-13.699C0.119,10.814,0,10.607,0,10.232V7.016c0-0.375,0.119-0.68,0.495-0.68
					c9.779,0,17.964,8.305,18.07,18.178c0.021,0.063-0.019-0.063-0.019,0C18.55,24.891,18.198,25,17.822,25z M15.247,24h1.854
					C16.746,15,10,8.076,1,7.71v1.855C8,9.893,14.929,15,15.247,24z"/>
			</g>
		</g>
		<g>
			<g>
				<path fill="#FCB033" d="M24.127,25c-0.006,0-0.021,0-0.027,0h-3.213c-0.376,0-0.681-0.109-0.681-0.486
					c0-10.521-9.297-20.005-19.711-20.005C0.119,4.509,0,4.302,0,3.926V0.71c0-0.375,0.119-0.68,0.495-0.68
					c13.887,0,24.277,10.512,24.377,24.484c0.019,0.063-0.021-0.063-0.021,0C24.854,24.891,24.503,25,24.127,25z M21.555,24h1.856
					C23.086,11,13,1.731,1,1.399v1.86C12,3.655,21.164,13,21.555,24z"/>
			</g>
		</g>
	</g>
</g>
<g id="video-phone" display="none">
	<g display="inline">
		<path fill="#FCB033" d="M21,1.853v20.733C21,23.08,20.274,24,19.67,24H5.738C5.134,24,4,23.08,4,22.586V1.853
			C4,1.338,5.189,1,5.738,1H19.67C20.219,1,21,1.338,21,1.853z M5,22.586C5,22.717,5.724,23,5.738,23H20c0,0,0-0.283,0-0.414V1.853
			C20,1.717,20,2,20,2H5.738C5.558,2,5,1.717,5,1.853V22.586z"/>
	</g>
	<g display="inline">
		<path fill="#FCB033" d="M16.821,3H8.076C7.605,3,8,3.674,8,4.223v10.421C8,15.195,7.605,15,8.076,15h8.741
			C17.312,15,17,15.152,17,14.646V4.223C17,3.716,17.313,3,16.821,3z M16.821,15h-0.606c-0.145-2-1.746-3.452-3.711-3.452
			S8.929,13,8.789,15H8.076C7.924,15,8,14.761,8,14.646V4.223C8,4.109,7.924,4,8.076,4h8.741C16.974,4,17,4.055,17,4.223v10.421
			C17,14.814,16.974,15,16.821,15z"/>
		<circle fill="#FCB033" cx="12.216" cy="8.558" r="1.984"/>
	</g>
	<g display="inline">
		<path fill="#FCB033" d="M7,15V3h11v12H7z M8,3v12h9V3H8z"/>
	</g>
	<rect x="7" y="14" display="inline" fill="#FCB033" width="11" height="1"/>
	<path display="inline" fill="#E7A723" d="M7.676,22.07v0.007l0.105-0.044c0.021-0.014,0.036-0.014,0.061-0.027
		c0.017-0.003,0.029-0.014,0.042-0.02L9.49,21.3l0.065-0.047c0.038-0.019,0.071-0.04,0.104-0.062l0.104-0.07l-0.003-0.027
		c0.279-0.242,0.408-0.572,0.296-1.072c-0.083-0.354,0.111-0.455,0.435-0.504c1.069-0.146,2.146-0.187,3.22-0.062
		c0.995,0.112,1.012,0.118,0.987,1.103c-0.01,0.199,0.049,0.332,0.137,0.442l0.008,0.037l0.125,0.06
		c0.05,0.033,0.074,0.074,0.146,0.104c0.213,0.087,0.429,0.179,0.644,0.271l0.771,0.37c0.092,0.044,0.184,0.084,0.271,0.134
		c0.021,0.017,0.038,0.016,0.058,0.022l0.129,0.062l-0.008-0.016c0.313,0.102,0.508-0.039,0.709-0.328
		c1.109-1.593,0.343-3.828-1.553-4.363c-2.479-0.691-4.973-0.678-7.461-0.021c-0.484,0.13-0.903,0.379-1.254,0.735
		c-1.029,1.031-1.117,2.724-0.21,3.789C7.351,22.033,7.485,22.118,7.676,22.07z"/>
</g>
<g>
	<path fill="#5C220F" d="M21.668,15.936l-0.392-0.163l-3.438-1.343c-0.127-0.039-0.187-0.051-0.244-0.061l-0.076-0.018l-0.162,0.016
		l-0.133-0.005c-0.395,0-0.914,0.104-1.43,0.925c-0.281,0.451-0.635,0.684-1.051,0.684c-0.402,0-0.757-0.221-1.05-0.438
		c-1.977-1.49-3.596-3.044-4.953-4.752c-1.478-1.848-1.46-2.164,0.21-3.761C9.186,6.796,9.234,6.625,9.251,6.47l0.003-0.027
		L9.222,6.354C9.189,6.213,9.184,6.15,9.18,6.084C8.982,5.565,8.8,5.109,8.617,4.653L7.527,2.754C7.477,2.61,6.969,2.466,6.969,2.32
		c0,0.003,0,0.005,0,0.005s0.386-0.052,0.366-0.119l0.132-0.157c-0.13-0.254-0.17-0.34-0.468-0.34c-0.13,0-0.221,0.017-0.374,0.045
		C4.862,2.073,3.438,3.188,2.674,4.811C1.92,6.415,2,8.221,2.87,9.769c2.538,4.503,5.505,8.155,10.149,10.856
		c0.799,0.459,0.948,0.692,1.948,0.692v0.5l0.747-0.5c2.771-0.012,5.538-2.185,5.753-4.844
		C21.508,16.043,21.762,15.992,21.668,15.936z"/>
	<path fill="#5C220F" d="M22.807,16.838c-0.256,3.158-3.127,6.037-6.399,6.037h-0.072c-1.119,0-2.17-0.557-3.125-1.104
		c-4.806-2.794-8.572-6.712-11.198-11.372c-1.031-1.834-1.11-4.044-0.217-5.944c0.89-1.892,2.647-3.278,4.705-3.65
		c0.597-0.107,1.066-0.087,1.44,0.125l0.765,0.982C8.712,1.92,8.752,1.985,8.773,2.084C8.8,2.184,8.843,2.3,8.886,2.421l0.665,1.878
		c0.174,0.431,0.354,0.881,0.542,1.323c0.072,0.178,0.08,0.313,0.085,0.404l0.167,0.497l-0.119,0.181
		C10.157,7.1,9.967,7.433,9.638,7.744c-1.159,1.11-1.159,1.11-0.116,2.415c1.306,1.643,2.865,3.138,4.77,4.573
		c0.28,0.208,0.403,0.239,0.451,0.239c0.032,0,0.11-0.066,0.202-0.213c0.57-0.905,1.314-1.373,2.214-1.395l0.036-0.045l0.595,0.068
		c0.1,0.02,0.205,0.042,0.309,0.078l0.103,0.015l3.541,1.401c0.063,0.018,0.106,0.039,0.135,0.053l0.662,0.434l0.073,0.26
		C22.834,15.977,22.834,16.524,22.807,16.838z"/>
</g>
</svg>
