<?xml version="1.0" encoding="utf-8"?>
<!-- Generator: Adobe Illustrator 16.0.0, SVG Export Plug-In . SVG Version: 6.00 Build 0)  -->
<!DOCTYPE svg PUBLIC "-//W3C//DTD SVG 1.1//EN" "http://www.w3.org/Graphics/SVG/1.1/DTD/svg11.dtd">
<svg version="1.1" id="Layer_1" xmlns="http://www.w3.org/2000/svg" xmlns:xlink="http://www.w3.org/1999/xlink" x="0px" y="0px"
	 width="20px" height="17.25px" viewBox="0 0 20 17.25" enable-background="new 0 0 20 17.25" xml:space="preserve">
<g id="XMLID_3_">
	<path fill="#6A1A41" d="M17.625,4.418C13.832-0.117,4.002,0.762,3.427,6.737c-0.279,0.02-1.214,0.46-1.545,0.771
		c-0.14-8.982,15.905-9.655,17.675-1.544c0.191,0.876,0.279,1.605,0,2.415c-0.3,1.341-1.344,2.158-1.644,3.187
		c-0.414,1.423,0.094,2.569,0.582,4.058c-1.414-0.254-3.19-1.412-4.552-2.008c-0.043-0.021,0.117-0.154-1.977,0.315
		c0.588-0.384,0.729-1.312,0.772-1.312c0.348,0.017,0.95-0.101,1.507-0.13c0.877,0.378,1.798,0.943,2.702,1.297
		c-1.099-2.4,0.601-3.662,1.157-5.119C18.629,7.31,18.42,5.373,17.625,4.418z"/>
	<path fill="#6A1A41" d="M1.205,16.879c0.168-0.646,0.441-1.292,0.386-2.125c-0.088-1.32-0.938-1.65-1.16-2.512
		c-0.9-3.513,2.545-5.609,5.604-5.698c2.944-0.086,6.468,1.698,6.277,5.022C12.145,14.531,9,16.092,5.842,15.913
		c-0.569-0.031-1.541-0.291-1.8-0.324C3.485,15.52,2.382,16.493,1.205,16.879z"/>
</g>
</svg>
