<?xml version="1.0" encoding="utf-8"?>
<!-- Generator: Adobe Illustrator 16.0.0, SVG Export Plug-In . SVG Version: 6.00 Build 0)  -->
<!DOCTYPE svg PUBLIC "-//W3C//DTD SVG 1.1//EN" "http://www.w3.org/Graphics/SVG/1.1/DTD/svg11.dtd">
<svg version="1.1" id="Layer_1" xmlns="http://www.w3.org/2000/svg" xmlns:xlink="http://www.w3.org/1999/xlink" x="0px" y="0px"
	 width="14.083px" height="19.5px" viewBox="0 0 14.083 19.5" enable-background="new 0 0 14.083 19.5" xml:space="preserve">
<path fill="#6A1A41" d="M5.058,11.133c1.139,1.919,1.691,2.803,2.743,3.362c0.552,0.291,0.625,0.198,0.855,0.075
	s1.811-1.74,2.936-1.397c1.023,0.31,2.519,2.774,2.293,4.447c-0.088,0.673-1.836,1.639-3.223,1.833
	c-1.207,0.168-2.358-0.092-3.601-1.203c-1.186-1.063-2.539-2.532-4.324-5.898c-1.784-3.366-2.235-5.31-2.45-6.884
	c-0.22-1.646,0.216-2.742,1.037-3.641C2.27,0.798,4.053-0.095,4.664,0.209c1.513,0.758,2.71,3.378,2.39,4.396
	C6.701,5.723,4.47,6.11,4.239,6.23c-0.23,0.121-0.35,0.128-0.419,0.749C3.688,8.163,4.109,9.11,5.058,11.133z"/>
</svg>
