<?xml version="1.0" encoding="utf-8"?>
<!-- Generator: Adobe Illustrator 16.0.0, SVG Export Plug-In . SVG Version: 6.00 Build 0)  -->
<!DOCTYPE svg PUBLIC "-//W3C//DTD SVG 1.1//EN" "http://www.w3.org/Graphics/SVG/1.1/DTD/svg11.dtd">
<svg version="1.1" id="Layer_1" xmlns="http://www.w3.org/2000/svg" xmlns:xlink="http://www.w3.org/1999/xlink" x="0px" y="0px"
	 width="95px" height="95px" viewBox="0 0 95 95" enable-background="new 0 0 95 95" xml:space="preserve">
<g display="none">
	<path display="inline" fill="#FFFFFF" d="M-145.875,5.888c0,0.95-0.345,1.691-1.034,2.222c-0.689,0.533-1.625,0.799-2.805,0.799
		c-1.279,0-2.264-0.165-2.953-0.496v-1.21c0.44,0.188,0.925,0.334,1.444,0.445c0.522,0.105,1.038,0.163,1.552,0.163
		c0.835,0,1.466-0.16,1.888-0.479c0.425-0.316,0.636-0.759,0.636-1.323c0-0.374-0.074-0.679-0.225-0.919
		c-0.151-0.239-0.402-0.459-0.754-0.661c-0.353-0.202-0.886-0.431-1.607-0.688c-1.004-0.356-1.721-0.784-2.152-1.277
		c-0.431-0.494-0.646-1.133-0.646-1.926c0-0.832,0.314-1.494,0.938-1.984c0.625-0.493,1.452-0.739,2.481-0.739
		c1.072,0,2.059,0.197,2.96,0.591l-0.392,1.092c-0.891-0.373-1.758-0.562-2.6-0.562c-0.665,0-1.184,0.143-1.557,0.428
		c-0.373,0.285-0.562,0.685-0.562,1.187c0,0.377,0.068,0.682,0.207,0.921c0.138,0.24,0.371,0.46,0.697,0.656
		c0.328,0.2,0.829,0.422,1.503,0.662c1.132,0.401,1.911,0.835,2.339,1.3C-146.088,4.55-145.875,5.152-145.875,5.888z"/>
	<path display="inline" fill="#FFFFFF" d="M-136.882,8.76l-1.343-3.431h-4.326l-1.329,3.431h-1.271l4.267-10.838h1.055l4.247,10.838
		H-136.882z M-138.619,4.196l-1.255-3.342c-0.161-0.426-0.33-0.941-0.502-1.558c-0.108,0.471-0.262,0.992-0.465,1.558l-1.269,3.342
		H-138.619z"/>
	<path display="inline" fill="#FFFFFF" d="M-134.099,8.76V-2.032h1.253v9.654h4.761V8.76H-134.099L-134.099,8.76z"/>
	<path display="inline" fill="#FFFFFF" d="M-120.235,8.76h-6.018V-2.032h6.018v1.115h-4.761V2.56h4.473v1.106h-4.473v3.973h4.761
		V8.76L-120.235,8.76z"/>
	<path display="inline" fill="#FFFFFF" d="M-111.75,5.888c0,0.95-0.345,1.691-1.034,2.222c-0.688,0.533-1.624,0.799-2.805,0.799
		c-1.281,0-2.265-0.165-2.953-0.496v-1.21c0.443,0.186,0.925,0.334,1.447,0.442s1.038,0.163,1.551,0.163
		c0.836,0,1.466-0.157,1.888-0.477c0.425-0.319,0.636-0.759,0.636-1.323c0-0.374-0.074-0.682-0.227-0.919
		c-0.149-0.239-0.4-0.462-0.751-0.661c-0.352-0.202-0.888-0.431-1.605-0.69c-1.005-0.356-1.723-0.781-2.153-1.274
		c-0.431-0.494-0.645-1.136-0.645-1.926c0-0.832,0.311-1.494,0.937-1.987c0.625-0.49,1.45-0.738,2.479-0.738
		c1.074,0,2.062,0.196,2.963,0.59l-0.392,1.095c-0.893-0.376-1.758-0.564-2.6-0.564c-0.665,0-1.184,0.146-1.557,0.428
		c-0.374,0.288-0.562,0.685-0.562,1.189c0,0.374,0.068,0.682,0.208,0.921c0.139,0.237,0.371,0.457,0.698,0.656
		c0.326,0.2,0.828,0.419,1.503,0.662c1.131,0.401,1.912,0.832,2.337,1.297C-111.964,4.55-111.75,5.152-111.75,5.888z"/>
	<path display="inline" fill="#FFFFFF" d="M-102.295,8.76h-1.253v-9.677h-3.417v-1.115h8.091v1.115h-3.421V8.76z"/>
	<path display="inline" fill="#FFFFFF" d="M-91.233,8.76h-6.018V-2.032h6.018v1.115h-4.763V2.56h4.473v1.106h-4.473v3.973h4.763
		V8.76z"/>
	<path display="inline" fill="#FFFFFF" d="M-82.057,8.76l-1.345-3.431h-4.327l-1.328,3.431h-1.271l4.268-10.838h1.057l4.245,10.838
		H-82.057z M-83.792,4.196l-1.255-3.342c-0.16-0.426-0.33-0.941-0.502-1.558c-0.108,0.471-0.264,0.992-0.463,1.558l-1.27,3.342
		H-83.792z"/>
	<path display="inline" fill="#FFFFFF" d="M-74.497,8.76l-3.662-9.568h-0.06c0.068,0.759,0.104,1.66,0.104,2.704V8.76h-1.161V-2.032
		h1.891l3.419,8.904h0.059l3.447-8.904h1.875V8.76h-1.256V1.807c0-0.799,0.036-1.665,0.105-2.598h-0.06l-3.691,9.551H-74.497z"/>
</g>
<g>
	<circle cx="47.821" cy="47" r="46.127"/>
	<path fill="#E7A723" d="M47.82,94.121C21.838,94.121,0.7,72.982,0.7,47c0-25.982,21.138-47.121,47.12-47.121
		c25.983,0,47.122,21.138,47.122,47.121C94.941,72.982,73.805,94.121,47.82,94.121z M47.82,1.865
		C22.933,1.865,2.686,22.113,2.686,47c0,24.887,20.247,45.135,45.134,45.135c24.887,0,45.135-20.248,45.135-45.135
		C92.955,22.113,72.707,1.865,47.82,1.865z"/>
</g>
<g>
	<g>
		<circle fill="#FFFFFF" cx="47.435" cy="25.973" r="4.713"/>
	</g>
	<g>
		<g>
			<path fill="#FFFFFF" d="M52.939,31.065c-3.483,0.592-5.228,0.689-10.988,0.096c-2.342-0.241-3.521,2.797-3.314,5.289
				c0.308,3.751,3.108,14.854,3.108,14.854c2.539,2.295,8.595,1.903,10.497,0.293c0,0,3.584-11.304,3.979-15.147
				C56.475,33.964,55.262,30.669,52.939,31.065z M46.644,32.02c0-0.113,0.239-0.209,0.325-0.209l1.026,0.003
				c0.086,0,0.295,0.093,0.295,0.208v1.246c0,0.116-0.077,0.175-0.151,0.208c-0.303,0.121-1.025,0.095-1.341,0
				c-0.073-0.022-0.153-0.092-0.153-0.208L46.644,32.02L46.644,32.02z M48.813,35.952c-0.06,1.237-1.338,6.487-1.338,6.487
				s-1.336-5.278-1.383-6.487c-0.033-0.802,0.221-2.265,0.587-2.209c1.28,0.193,0.664,0.097,1.569,0
				C48.627,33.701,48.854,35.15,48.813,35.952z"/>
		</g>
	</g>
	<g>
		<circle fill="#FFFFFF" cx="65.73" cy="26.803" r="3.485"/>
	</g>
	<g>
		<path fill="#FFFFFF" d="M69.84,30.707c-2.576,0.439-3.678,0.499-7.938,0.057c-1.733-0.177-2.828,2.108-2.676,3.948
			c0.229,2.776,2.299,10.984,2.299,10.984c1.879,1.701,6.354,1.41,7.764,0.218c0,0,2.652-8.355,2.941-11.202
			C72.417,32.875,71.559,30.417,69.84,30.707z M65.146,31.438c0-0.085,0.179-0.155,0.242-0.155l0.756,0.001
			c0.063,0,0.222,0.07,0.222,0.154v0.922c0,0.085-0.056,0.13-0.115,0.155c-0.22,0.091-0.755,0.069-0.989,0
			c-0.052-0.018-0.111-0.069-0.111-0.155v-0.922H65.146z M66.751,34.088c-0.044,0.914-0.989,4.797-0.989,4.797
			s-0.99-3.905-1.025-4.797c-0.023-0.592,0.158-1.371,0.428-1.313c0.662,0.142,0.762,0.142,1.16,0
			C66.59,32.682,66.779,33.496,66.751,34.088z"/>
	</g>
	<g>
		<circle fill="#FFFFFF" cx="28.952" cy="26.802" r="3.484"/>
	</g>
	<g>
		<path fill="#FFFFFF" d="M33.032,30.821c-2.575,0.438-3.564,0.254-7.826-0.184c-1.733-0.177-2.911,2.235-2.758,4.075
			c0.227,2.776,2.299,10.984,2.299,10.984c1.877,1.701,6.354,1.41,7.764,0.218c0,0,2.649-8.355,2.941-11.202
			C35.638,32.875,34.749,30.531,33.032,30.821z M28.368,31.438c0-0.085,0.179-0.155,0.242-0.155l0.76,0.001
			c0.063,0,0.213,0.07,0.213,0.154v0.922c0,0.085-0.053,0.13-0.111,0.155c-0.219,0.091-0.753,0.069-0.991,0
			c-0.053-0.018-0.113-0.069-0.113-0.155V31.438z M29.974,34.088c-0.045,0.914-0.991,4.797-0.991,4.797s-0.991-3.905-1.025-4.797
			c-0.024-0.592,0.16-1.371,0.427-1.313c0.661,0.142,0.762,0.142,1.162,0C29.812,32.682,30.001,33.496,29.974,34.088z"/>
	</g>
</g>
<g enable-background="new    ">
	<path fill="#FFFFFF" d="M23.648,69.057c0,0.636-0.23,1.136-0.69,1.498c-0.46,0.362-1.095,0.543-1.904,0.543
		c-0.81,0-1.472-0.125-1.988-0.377v-1.106c0.326,0.153,0.673,0.274,1.04,0.362s0.709,0.133,1.026,0.133
		c0.463,0,0.806-0.089,1.026-0.265c0.22-0.177,0.331-0.413,0.331-0.71c0-0.268-0.102-0.495-0.304-0.681
		c-0.203-0.187-0.62-0.406-1.253-0.661c-0.653-0.265-1.113-0.566-1.381-0.905c-0.268-0.34-0.401-0.748-0.401-1.225
		c0-0.597,0.212-1.067,0.637-1.41s0.994-0.514,1.708-0.514c0.686,0,1.368,0.15,2.046,0.45l-0.372,0.955
		c-0.636-0.268-1.204-0.401-1.704-0.401c-0.379,0-0.666,0.082-0.862,0.247s-0.293,0.383-0.293,0.653
		c0,0.187,0.039,0.346,0.117,0.478c0.079,0.132,0.208,0.257,0.387,0.375c0.18,0.117,0.503,0.272,0.97,0.465
		c0.525,0.219,0.911,0.423,1.155,0.612c0.245,0.188,0.424,0.402,0.539,0.641S23.648,68.733,23.648,69.057z"/>
	<path fill="#FFFFFF" d="M29.475,71l-0.715-1.987h-2.737L25.323,71h-1.234l2.678-7.188h1.273L30.718,71H29.475z M28.451,68.004
		l-0.671-1.949c-0.049-0.13-0.117-0.336-0.203-0.616c-0.086-0.281-0.146-0.486-0.179-0.617c-0.088,0.401-0.217,0.841-0.387,1.317
		l-0.646,1.865H28.451z"/>
	<path fill="#FFFFFF" d="M31.663,71v-7.158h1.17v6.154h3.03V71H31.663z"/>
	<path fill="#FFFFFF" d="M41.147,71h-4.049v-7.158h4.049v0.989h-2.879v1.948h2.698v0.979h-2.698v2.247h2.879V71z"/>
	<path fill="#FFFFFF" d="M46.821,69.057c0,0.636-0.229,1.136-0.69,1.498c-0.46,0.362-1.095,0.543-1.904,0.543
		c-0.81,0-1.472-0.125-1.988-0.377v-1.106c0.326,0.153,0.673,0.274,1.04,0.362s0.709,0.133,1.026,0.133
		c0.463,0,0.806-0.089,1.026-0.265c0.22-0.177,0.331-0.413,0.331-0.71c0-0.268-0.102-0.495-0.304-0.681
		c-0.203-0.187-0.62-0.406-1.253-0.661c-0.653-0.265-1.113-0.566-1.381-0.905c-0.268-0.34-0.401-0.748-0.401-1.225
		c0-0.597,0.212-1.067,0.637-1.41s0.994-0.514,1.708-0.514c0.686,0,1.368,0.15,2.046,0.45l-0.372,0.955
		c-0.636-0.268-1.204-0.401-1.704-0.401c-0.379,0-0.666,0.082-0.862,0.247s-0.293,0.383-0.293,0.653
		c0,0.187,0.039,0.346,0.117,0.478c0.079,0.132,0.208,0.257,0.387,0.375c0.18,0.117,0.503,0.272,0.97,0.465
		c0.525,0.219,0.911,0.423,1.155,0.612c0.245,0.188,0.424,0.402,0.539,0.641C46.764,68.452,46.821,68.733,46.821,69.057z"/>
	<path fill="#FFFFFF" d="M53.283,71h-1.17v-6.154h-2.105v-1.004h5.381v1.004h-2.105V71z"/>
	<path fill="#FFFFFF" d="M60.535,71h-4.049v-7.158h4.049v0.989h-2.879v1.948h2.697v0.979h-2.697v2.247h2.879V71z"/>
	<path fill="#FFFFFF" d="M66.522,71l-0.715-1.987H63.07L62.37,71h-1.233l2.678-7.188h1.273L67.766,71H66.522z M65.499,68.004
		l-0.671-1.949c-0.049-0.13-0.116-0.336-0.203-0.616c-0.086-0.281-0.146-0.486-0.179-0.617c-0.088,0.401-0.217,0.841-0.387,1.317
		l-0.646,1.865H65.499z"/>
	<path fill="#FFFFFF" d="M71.806,71l-2.076-5.978H69.69c0.056,0.888,0.084,1.72,0.084,2.496V71h-1.063v-7.158h1.649l1.988,5.694
		h0.029l2.046-5.694h1.655V71h-1.126v-3.54c0-0.355,0.009-0.819,0.026-1.391c0.019-0.57,0.034-0.917,0.047-1.037h-0.039L72.839,71
		H71.806z"/>
</g>
</svg>
