<?xml version="1.0" encoding="utf-8"?>
<!-- Generator: Adobe Illustrator 16.0.0, SVG Export Plug-In . SVG Version: 6.00 Build 0)  -->
<!DOCTYPE svg PUBLIC "-//W3C//DTD SVG 1.1//EN" "http://www.w3.org/Graphics/SVG/1.1/DTD/svg11.dtd">
<svg version="1.1" id="Layer_1" xmlns="http://www.w3.org/2000/svg" xmlns:xlink="http://www.w3.org/1999/xlink" x="0px" y="0px"
	 width="21.375px" height="17.25px" viewBox="-1.375 0 21.375 17.25" enable-background="new -1.375 0 21.375 17.25"
	 xml:space="preserve">
<g id="XMLID_3_">
	<path fill="#9E3039" d="M17.462,4.418C13.377-0.117,2.789,0.762,2.169,6.737c-0.3,0.02-1.308,0.46-1.664,0.772
		c-0.15-8.982,17.132-9.655,19.038-1.544c0.206,0.876,0.301,1.605,0,2.415c-0.323,1.341-1.447,2.158-1.771,3.187
		c-0.446,1.423,0.102,2.569,0.627,4.058c-1.523-0.254-3.437-1.412-4.902-2.008c-0.047-0.021,0.126-0.154-2.129,0.315
		c0.633-0.384,0.784-1.312,0.832-1.312c0.374,0.017,1.023-0.101,1.623-0.13c0.944,0.378,1.937,0.943,2.91,1.297
		c-1.184-2.4,0.646-3.662,1.246-5.119C18.544,7.31,18.318,5.373,17.462,4.418z"/>
	<path fill="#9E3039" d="M-0.224,16.879c0.181-0.646,0.475-1.292,0.416-2.125c-0.095-1.32-1.01-1.65-1.249-2.512
		c-0.969-3.513,2.741-5.609,6.036-5.698c3.171-0.086,6.967,1.698,6.762,5.022c-0.181,2.965-3.568,4.525-6.97,4.347
		c-0.613-0.031-1.66-0.291-1.939-0.324C2.231,15.52,1.043,16.493-0.224,16.879z"/>
</g>
</svg>
