<?xml version="1.0" encoding="utf-8"?>
<!-- Generator: Adobe Illustrator 16.0.0, SVG Export Plug-In . SVG Version: 6.00 Build 0)  -->
<!DOCTYPE svg PUBLIC "-//W3C//DTD SVG 1.1//EN" "http://www.w3.org/Graphics/SVG/1.1/DTD/svg11.dtd">
<svg version="1.1" xmlns="http://www.w3.org/2000/svg" xmlns:xlink="http://www.w3.org/1999/xlink" x="0px" y="0px" width="25px"
	 height="17.188px" viewBox="0 0 25 17.188" enable-background="new 0 0 25 17.188" xml:space="preserve">
<g id="Layer_2" display="none">
	<g display="inline">
		<path fill="#FCB033" d="M81.734-116.54c1.6,0.23,1.661,0.294,1.936,1.875c0.239,1.376,0.483,2.752,0.725,4.129
			c0.333,1.887-0.19,2.743-2.031,3.331c-0.511,2.644-1.09,3.253-3.009,3.172c-1.677-0.07-2.308-0.835-2.566-3.224
			c-1.217,0-2.455,0-3.691,0c-1.217,0-2.433,0-3.364,0c-0.498,1.02-0.757,2.006-1.375,2.645c-0.427,0.44-1.353,0.546-2.055,0.546
			c-1.614-0.001-2.211-0.823-2.427-3.061c-0.467-0.236-0.988-0.406-1.388-0.726c-0.731-0.588-0.944-1.412-0.776-2.332
			c0.27-1.492,0.543-2.982,0.807-4.477c0.279-1.584,0.333-1.642,1.898-1.875c0.141-1.043,0.227-2.108,0.437-3.148
			c0.462-2.288,2.347-3.991,4.675-4.091c2.315-0.101,4.644-0.119,6.96-0.014c2.765,0.125,4.724,2.123,5.008,4.893
			C81.574-118.132,81.65-117.364,81.734-116.54z M79.627-116.505c0.213-3.413-1.111-5.618-3.75-5.199
			c-0.202,1.612-0.385,1.771-2.017,1.774c-0.417,0.003-0.833,0.001-1.249,0.001c-1.934-0.001-1.951-0.014-2.347-1.834
			c-2.797-0.211-3.854,1.937-3.713,5.258C70.909-116.505,75.27-116.505,79.627-116.505z M65.955-113.265
			c-1.06,0.005-1.944,0.876-1.953,1.921c-0.01,1.057,0.953,1.991,2.016,1.96c1.038-0.029,1.913-0.943,1.896-1.981
			C67.896-112.419,67.017-113.27,65.955-113.265z M80.192-113.267c-1.061,0.016-1.924,0.892-1.917,1.944
			c0.007,1.043,0.896,1.932,1.937,1.937c1.075,0.005,2.006-0.941,1.97-2.005C82.147-112.443,81.258-113.282,80.192-113.267z"/>
	</g>
	<g display="inline">
		<path fill="#FCB033" d="M86.5-103.313c-0.276,0-0.5-0.224-0.5-0.5v-14c0-0.276,0.224-0.5,0.5-0.5s0.5,0.224,0.5,0.5v14
			C87-103.536,86.776-103.313,86.5-103.313z"/>
	</g>
	<g display="inline">
		<path fill="#FCB033" d="M88.5-103.313c-0.276,0-0.5-0.224-0.5-0.5v-14c0-0.276,0.224-0.5,0.5-0.5s0.5,0.224,0.5,0.5v14
			C89-103.536,88.776-103.313,88.5-103.313z"/>
	</g>
	<g display="inline">
		<g>
			<path fill="#FCB033" d="M90.541-124.76c0,0.705-0.221,1.244-0.662,1.619c-0.44,0.373-1.066,0.559-1.88,0.559h-0.596v2.33h-1.389
				v-6.551h2.093c0.795,0,1.398,0.17,1.813,0.514C90.334-125.947,90.541-125.438,90.541-124.76z M87.403-123.719h0.457
				c0.428,0,0.747-0.086,0.959-0.254c0.212-0.17,0.318-0.414,0.318-0.738c0-0.326-0.088-0.566-0.267-0.721
				c-0.178-0.156-0.456-0.232-0.836-0.232h-0.632V-123.719z"/>
		</g>
	</g>
	<g display="inline">
		<path fill="#FCB033" d="M87.584-118.053c-3.309,0-6-2.691-6-6s2.691-6,6-6s6,2.691,6,6S90.893-118.053,87.584-118.053z
			 M87.584-129.053c-2.757,0-5,2.243-5,5s2.243,5,5,5s5-2.243,5-5S90.341-129.053,87.584-129.053z"/>
	</g>
	<g display="inline">
		<path fill="#FCB033" d="M21-5.959v20.733c0,0.494-0.726,1.414-1.33,1.414H5.738C5.134,16.188,4,15.268,4,14.773V-5.959
			c0-0.515,1.189-0.853,1.738-0.853H19.67C20.219-6.813,21-6.474,21-5.959z M5,14.773c0,0.131,0.724,0.414,0.738,0.414H20
			c0,0,0-0.283,0-0.414V-5.959c0-0.136,0,0.147,0,0.147H5.738C5.558-5.813,5-6.096,5-5.959V14.773z"/>
	</g>
	<g display="inline">
		<path fill="#FCB033" d="M16.821-4.813H8.076C7.605-4.813,8-4.139,8-3.589V6.833c0,0.55-0.395,0.354,0.076,0.354h8.745
			C17.313,7.188,17,7.341,17,6.833V-3.589C17-4.096,17.313-4.813,16.821-4.813z M16.821,7.188h-0.61
			c-0.141-2-1.746-3.452-3.711-3.452c-1.965,0-3.571,1.452-3.711,3.452H8.076C7.924,7.188,8,6.948,8,6.833V-3.589
			c0-0.114-0.076-0.223,0.076-0.223h8.745C16.974-3.813,17-3.757,17-3.589V6.833C17,7.002,16.974,7.188,16.821,7.188z"/>
		<circle fill="#FCB033" cx="12.216" cy="0.746" r="1.984"/>
	</g>
	<g display="inline">
		<path fill="#FCB033" d="M7,7.188v-12h11v12H7z M8-4.813v12h9v-12H8z"/>
	</g>
	<rect x="7" y="6.188" display="inline" fill="#FCB033" width="11" height="1"/>
	<path display="inline" fill="#E7A723" d="M7.676,14.259v0.006l0.105-0.044c0.023-0.013,0.04-0.013,0.061-0.027
		c0.017-0.003,0.029-0.014,0.042-0.019l1.605-0.687l0.069-0.047c0.038-0.018,0.071-0.04,0.104-0.062l0.106-0.07l-0.003-0.027
		c0.279-0.243,0.408-0.573,0.296-1.073c-0.083-0.357,0.111-0.455,0.431-0.503c1.073-0.148,2.146-0.187,3.22-0.062
		c0.995,0.112,1.012,0.118,0.987,1.102c-0.006,0.2,0.049,0.333,0.137,0.443l0.008,0.037l0.125,0.06
		c0.05,0.033,0.074,0.074,0.145,0.104c0.213,0.087,0.429,0.179,0.644,0.271l0.772,0.37c0.088,0.044,0.18,0.084,0.267,0.133
		c0.021,0.014,0.038,0.013,0.058,0.023l0.129,0.062l-0.008-0.016c0.313,0.102,0.508-0.039,0.709-0.328
		c1.109-1.593,0.343-3.829-1.553-4.363c-2.477-0.695-4.973-0.678-7.461-0.024c-0.484,0.13-0.903,0.379-1.254,0.738
		c-1.028,1.032-1.116,2.722-0.209,3.79C7.351,14.221,7.485,14.306,7.676,14.259z"/>
</g>
<g id="gym" display="none">
	<g display="inline">
		<path fill="#FCB033" d="M3.073-1.408l0.592,0.412c-4.084,8.995,1.83,13.951,1.891,14c0.104,0.084,0.228,0.125,0.351,0.125
			c0.163,0,0.323-0.072,0.435-0.207c0.194-0.239,0.158-0.591-0.082-0.786c-0.219-0.181-5.212-4.423-1.659-12.48l1.546,1.078
			c0.097,0.067,0.208,0.101,0.32,0.101c0.175,0,0.349-0.083,0.458-0.24c0.177-0.252,0.114-0.601-0.139-0.777L3.901-2.194
			l-0.61-3.312C3.235-5.808,2.949-6.003,2.64-5.955C2.336-5.897,2.136-5.607,2.192-5.303l0.651,3.538
			C2.871-1.621,2.953-1.492,3.073-1.408z"/>
		<path fill="#FCB033" d="M22.579,11.072c0-2.927-2.381-5.352-5.31-5.352c-1.438,0-2.742,0.561-3.699,1.492l0.635-0.123L4.2,16.188
			H1.902c-0.31,0-0.559,0.19-0.559,0.5s0.25,0.5,0.559,0.5H3.02h7.544H22.02c0.309,0,0.559-0.19,0.559-0.5s-0.25-0.5-0.559-0.5
			h-3.134C21.021,16.188,22.579,13.433,22.579,11.072z M11.837,16.188l1.587-1.392c0.608,0.645,1.385,1.392,2.246,1.392H11.837z
			 M17.27,15.176c-1.24,0-2.343-0.55-3.109-1.407l2.388-2.387c0.217-0.219,0.217-0.572,0-0.791c-0.22-0.218-0.572-0.218-0.791,0
			l-1.872,1.871l-0.214-3.587c0.73-1.236,2.062-2.076,3.599-2.076c2.312,0,4.191,1.879,4.191,4.188
			C21.461,13.297,19.581,15.176,17.27,15.176z"/>
		<path fill="#FCB033" d="M23.133,1.16l-0.745-0.744c-0.103-0.089-0.232-0.229-0.368-0.229h-5.588c-0.299,0-0.545,0.325-0.559,0.624
			c-0.014,0.298,0.21,0.601,0.507,0.628l0.945,0.108l1.549,0.623c-0.001,0.006-0.004,0.014-0.005,0.02l-0.56,2.331
			c-0.072,0.3,0.113,0.603,0.414,0.676c0.044,0.01,0.087,0.016,0.13,0.016c0.253,0,0.482-0.172,0.544-0.43l0.524-2.188l0.869,0.344
			c0.066,0.025,0.135,0.039,0.204,0.039c0.083,0,0.164-0.019,0.239-0.054l1.769-0.838c0.172-0.08,0.29-0.242,0.315-0.427
			C23.345,1.471,23.274,1.284,23.133,1.16z"/>
	</g>
</g>
<g id="Layer_18" display="none">
</g>
<g id="concierge" display="none">
	<g display="inline">
		<path fill-rule="evenodd" clip-rule="evenodd" fill="#FCB033" d="M24.591,9.671c-0.147-2.653-1.307-5.254-3.111-7.194
			c-0.913-0.981-1.984-1.819-3.171-2.444c-0.582-0.306-1.189-0.56-1.813-0.761c-0.25-0.08-0.466-0.132-0.452-0.439
			c0.019-0.436,0.015-0.873,0.009-1.309c-0.004-0.391-0.014-0.545,0.263-0.821c0.182-0.182,0.311-0.418,0.331-0.677
			c0.052-0.648-0.536-1.1-1.073-1.324c-1.352-0.564-3.002-0.553-4.419-0.276C10.559-5.46,9.91-5.25,9.476-4.805
			C9.034-4.353,9.072-3.655,9.545-3.241c0.179,0.156,0.408,0.227,0.403,0.5C9.94-2.355,9.937-1.969,9.941-1.583
			c0.003,0.263,0.098,0.585-0.219,0.674c-0.347,0.096-0.691,0.207-1.03,0.332C6.285,0.316,4.253,1.994,2.864,4.149
			C2.176,5.215,1.666,6.392,1.367,7.625C1.221,8.227,1.125,8.842,1.075,9.46c-0.046,0.572-0.132,1.087-0.04,1.657
			c0.064,0.399,1.146,0.07,1.412,0.07c0.841,0,1.682,0,2.523,0c1.617,0,3.234,0,4.851,0c3.222,0,6.447,0.166,9.667,0.125
			c1.206-0.015,2.413,0.027,3.62,0.016c0.367-0.004,1.209,0.169,1.519-0.082c0.11-0.091,0.015-0.629,0.015-0.771
			C24.643,10.195,24.606,9.945,24.591,9.671C24.547,8.887,24.596,9.754,24.591,9.671z M15.271-4.051
			c-0.925,0.605-3.823,0.605-4.733,0C11.428-4.663,14.373-4.663,15.271-4.051z M14.419-1.479c0.04,0.319-0.247,0.234-0.459,0.21
			c-0.38-0.045-0.764-0.064-1.147-0.063c-0.357,0-0.714,0.016-1.07,0.05c-0.249,0.023-0.179-0.429-0.179-0.593
			c0.004-0.318,0.212-0.332,0.473-0.301c0.324,0.038,0.658,0.017,0.982,0.017c0.355,0,0.71,0.003,1.063,0
			C14.573-2.165,14.369-1.872,14.419-1.479C14.448-1.245,14.396-1.652,14.419-1.479z M22.876,9.942
			c-0.011,0.078-0.155,0.245-0.232,0.245c-0.193,0-0.386,0-0.579,0c-0.387,0-0.772,0-1.158,0c-0.836,0-1.673,0-2.51,0
			c-1.607,0-3.216,0-4.824,0c-3.233,0-6.461-0.097-9.692-0.124c-0.289-0.003-0.81-0.09-1.072-0.212
			C2.588,9.749,2.75,9.218,2.776,9.048c0.113-0.715,0.294-1.431,0.548-2.109c0.471-1.255,1.2-2.405,2.109-3.388
			c1.767-1.908,4.24-3.034,6.829-3.208c2.793-0.188,5.592,0.917,7.612,2.837c0.897,0.853,1.618,1.876,2.136,3
			c0.267,0.581,0.481,1.232,0.647,1.85"/>
		<path fill-rule="evenodd" clip-rule="evenodd" fill="#FCB033" d="M20.603,5.921c-0.859-1.9-2.48-3.274-4.302-4.222
			c-0.867-0.452-1.783-0.618-2.497,0.211c-0.465,0.541-0.583,1.36-0.139,1.95c0.248,0.33,0.615,0.49,0.974,0.671
			c0.428,0.216,0.843,0.46,1.232,0.743c0.729,0.533,1.349,1.206,1.768,2.01c0.187,0.356,0.33,0.688,0.708,0.882
			c0.386,0.198,0.857,0.199,1.259,0.047C20.498,7.875,21.006,6.809,20.603,5.921C20.261,5.167,20.702,6.14,20.603,5.921z
			 M19.072,7.094c-0.214,0.028-0.276-0.228-0.35-0.374c-0.148-0.294-0.318-0.576-0.51-0.844c-0.382-0.535-0.85-1.007-1.366-1.412
			c-0.472-0.368-0.983-0.682-1.512-0.961c-0.192-0.102-0.54-0.193-0.68-0.37c-0.172-0.216,0.141-0.537,0.338-0.589
			c0.417-0.11,1.108,0.44,1.447,0.646c0.537,0.327,1.049,0.7,1.508,1.131C18.278,4.63,20.373,6.927,19.072,7.094
			C18.901,7.116,19.294,7.066,19.072,7.094z"/>
		<rect x="1" y="12.188" fill-rule="evenodd" clip-rule="evenodd" fill="#FCB033" width="24" height="2"/>
	</g>
</g>
<g id="maid" display="none">
	<g display="inline">
		<g>
			<path fill="#FCB033" d="M9.823,16.483c0.415,0,0.753,0.308,0.812,0.704h4.646c0.057-0.396,0.396-0.704,0.81-0.704
				s0.753,0.308,0.813,0.704h4.937c-0.168-2.871-2.126-4.357-4.046-5.436c-0.193-0.105-0.261-0.319-0.349-0.612
				c-0.018-0.055-0.042-0.133-0.063-0.191c-0.258-0.082-0.834-0.119-1.267-0.146c-0.528-0.032-1.034-0.064-1.418-0.162l-1.707,3.143
				l-1.812-3.256c-0.294,0.096-0.697,0.185-1.232,0.302c-0.449,0.096-1.002,0.216-1.225,0.309c-0.03,0.052-0.071,0.142-0.099,0.2
				c-0.108,0.236-0.202,0.439-0.393,0.541c-2.39,1.287-4.243,2.507-4.401,5.31h5.184C9.07,16.791,9.411,16.483,9.823,16.483z
				 M16.091,14.073c0.454,0,0.822,0.368,0.822,0.823c0,0.453-0.368,0.824-0.822,0.824s-0.822-0.371-0.822-0.824
				C15.269,14.441,15.637,14.073,16.091,14.073z M9.823,14.073c0.454,0,0.823,0.368,0.823,0.823c0,0.453-0.369,0.824-0.823,0.824
				c-0.453,0-0.822-0.371-0.822-0.824C9.001,14.441,9.37,14.073,9.823,14.073z"/>
			<path fill="#FCB033" d="M10.886,0.066c-0.825,0.106-1.46,0.462-1.936,1.081C7.541,2.975,8.095,6.426,8.1,6.46l0.216,1.288
				c0.839,0.867,1.926,1.492,3.149,1.76c0.021,0.004,0.041,0.01,0.063,0.017c0.41,0.085,0.836,0.13,1.271,0.13
				c2.208,0,4.142-1.15,5.252-2.878l-0.061-0.699l-0.304-3.544C13.931,2.106,11.475,0.49,10.886,0.066z M9.736,3.914
				c0-0.454,0.369-0.823,0.823-0.823c0.456,0,0.824,0.369,0.824,0.823s-0.368,0.823-0.824,0.823
				C10.104,4.737,9.736,4.368,9.736,3.914z M14.9,6.761c-1.316,0.829-2.894,0.834-4.174-0.063c-0.456-0.319,0.119-0.965,0.569-0.649
				c0.951,0.668,2.163,0.603,3.125-0.003C14.892,5.749,15.372,6.465,14.9,6.761z M14.898,4.737c-0.453,0-0.821-0.369-0.821-0.823
				s0.368-0.823,0.821-0.823c0.455,0,0.823,0.369,0.823,0.823S15.354,4.737,14.898,4.737z"/>
			<path fill="#FCB033" d="M6.666,4.561c0.235,0.617,0.571,1.273,1.043,1.965c0,0-1.083-6.465,3.288-6.872
				c0,0,2.685,2.113,7.057,2.519l0.332,3.87c0,0,0.192-0.32,0.4-0.877c0.269-0.726,0.563-1.859,0.482-3.216
				c-0.039-0.667-0.173-1.388-0.44-2.141c-0.193-0.541-0.458-1.099-0.812-1.665c0,0.07-0.002,0.143-0.002,0.214v0.198h-0.139H17.31
				h-0.592H8.88H8.288H7.721H7.623C7.474-1.282,7.154-0.903,6.856-0.334C6.494,0.356,6.168,1.324,6.225,2.529
				C6.255,3.147,6.388,3.826,6.666,4.561z"/>
			<path fill="#FCB033" d="M7.865-2.292c0.001,0.059,0.001,0.116,0.003,0.172c0,0.094,0,0.188,0.002,0.282h0.265h0.62h0.679h6.728
				h0.68h0.62h0.156c0-0.151,0.006-0.301,0.006-0.454c0.002-0.034,0.002-0.067,0.002-0.103c0-0.094,0-0.189,0.003-0.284
				c0-0.091,0-0.182,0-0.273c-0.003-0.998-0.069-1.934-0.505-2.376c-0.195-0.198-0.458-0.293-0.806-0.293H9.171
				c-0.349,0-0.611,0.095-0.806,0.293C7.902-4.857,7.854-3.833,7.861-2.763c0,0.1,0.002,0.199,0.002,0.298
				C7.865-2.406,7.865-2.349,7.865-2.292z"/>
		</g>
	</g>
</g>
<g id="welcome_hamper-02" display="none">
	<g display="inline">
		<polygon fill="#FCB033" points="12.969,14.031 12.969,14.303 12.969,14.031 		"/>
		<polygon fill="#FCB033" points="10.26,14.031 10.26,14.303 10.261,14.031 		"/>
		<polygon fill="#FCB033" points="15.677,14.031 15.677,14.303 15.678,14.031 		"/>
		<path fill="#FCB033" d="M24.275,2.907l-0.383-0.383c-0.212-0.211-0.452-0.746-0.538-0.66l-3.754,3.323H6.263L2.509,1.864
			C2.423,1.778,2.183,2.097,1.97,2.308L1.587,2.799C1.376,3.011,1.274,2.874,1.36,2.959l2.605,2.229H2.677
			C2.377,5.188,2,6.293,2,6.593v0.541c0,0.3,0.377,1.054,0.677,1.054h1.43l1.598,7.475c0.043,0.533,0.421,0.525,1.096,0.525h12.064
			c0.675,0,1.053-0.002,1.097-0.535l1.616-7.465h1.141C23.018,8.188,23,7.434,23,7.134V6.593c0-0.3,0.018-1.405-0.281-1.405h-0.82
			l2.605-2.174C24.589,2.928,24.488,3.119,24.275,2.907z M9,14.031V9.156c0-0.299,0.701-0.542,1-0.542c0.299,0,1,0.243,1,0.542
			v4.875c0,0.299-0.701,0.542-1,0.542C9.701,14.573,9,14.33,9,14.031z M12,14.031V9.156c0-0.299,0.702-0.542,1-0.542
			c0.299,0,1,0.243,1,0.542v4.875c0,0.299-0.701,0.542-1,0.542C12.702,14.573,12,14.33,12,14.031z M15,14.031V9.156
			c0-0.299,0.701-0.542,1-0.542s1,0.243,1,0.542v4.875c0,0.299-0.701,0.542-1,0.542S15,14.33,15,14.031z"/>
	</g>
</g>
<g id="pet_friendly" display="none">
	<g display="inline">
		<path fill="#FCB033" d="M-53.053-94.611c-1.216,0.831-3.753-0.922-6.297-0.941c-2.543-0.019-5.152,1.741-6.325,0.942
			s1.126-7.194,6.325-7.214S-51.836-95.441-53.053-94.611z"/>
	</g>
	
		<ellipse transform="matrix(0.9904 -0.1384 0.1384 0.9904 13.4821 -10.2611)" display="inline" fill="#FCB033" cx="-67.037" cy="-102.068" rx="2.203" ry="3.037"/>
	
		<ellipse transform="matrix(0.9985 -0.0555 0.0555 0.9985 5.7689 -3.6329)" display="inline" fill="#FCB033" cx="-62.493" cy="-105.634" rx="2.203" ry="3.037"/>
	
		<ellipse transform="matrix(0.975 0.2221 -0.2221 0.975 -24.9608 9.9581)" display="inline" fill="#FCB033" cx="-56.754" cy="-105.996" rx="2.203" ry="3.037"/>
	
		<ellipse transform="matrix(0.8002 0.5997 -0.5997 0.8002 -72.4204 10.0805)" display="inline" fill="#FCB033" cx="-51.34" cy="-103.655" rx="2.203" ry="3.037"/>
	<g display="inline">
		<path fill="#FCB033" d="M-12.053-98.611c-1.216,0.831-3.753-0.922-6.297-0.941c-2.543-0.019-5.152,1.741-6.325,0.942
			s1.126-7.194,6.325-7.214S-10.836-99.441-12.053-98.611z"/>
	</g>
	
		<ellipse transform="matrix(0.9904 -0.1384 0.1384 0.9904 14.4304 -4.6248)" display="inline" fill="#FCB033" cx="-26.037" cy="-106.068" rx="2.203" ry="3.037"/>
	
		<ellipse transform="matrix(0.9985 -0.0555 0.0555 0.9985 6.0543 -1.3626)" display="inline" fill="#FCB033" cx="-21.493" cy="-109.634" rx="2.203" ry="3.037"/>
	
		<ellipse transform="matrix(0.975 0.2221 -0.2221 0.975 -24.8251 0.7515)" display="inline" fill="#FCB033" cx="-15.754" cy="-109.996" rx="2.203" ry="3.037"/>
	
		<ellipse transform="matrix(0.8002 0.5997 -0.5997 0.8002 -66.6279 -15.307)" display="inline" fill="#FCB033" cx="-10.34" cy="-107.655" rx="2.203" ry="3.037"/>
	<g display="inline">
		<g>
			<path fill="none" stroke="#FCB033" stroke-miterlimit="10" d="M18.678,14.9c-1.364,0.935-4.213-1.033-7.066-1.056
				C8.757,13.824,5.83,15.8,4.513,14.903c-1.317-0.896,1.264-8.073,7.099-8.095C17.446,6.786,20.043,13.97,18.678,14.9z"/>
		</g>
		
			<ellipse transform="matrix(0.9904 -0.1383 0.1383 0.9904 -0.7821 0.4689)" fill="none" stroke="#FCB033" stroke-miterlimit="10" cx="2.984" cy="5.864" rx="2.472" ry="3.408"/>
		
			<ellipse transform="matrix(0.9985 -0.0556 0.0556 0.9985 -0.0911 0.4523)" fill="none" stroke="#FCB033" stroke-miterlimit="10" cx="8.084" cy="1.863" rx="2.472" ry="3.408"/>
		
			<ellipse transform="matrix(0.975 0.2222 -0.2222 0.975 0.6867 -3.1906)" fill="none" stroke="#FCB033" stroke-miterlimit="10" cx="14.525" cy="1.457" rx="2.471" ry="3.408"/>
		
			<ellipse transform="matrix(0.8003 0.5996 -0.5996 0.8003 6.5621 -11.5362)" fill="none" stroke="#FCB033" stroke-miterlimit="10" cx="20.6" cy="4.083" rx="2.472" ry="3.408"/>
	</g>
</g>
<g id="welcome_hamper-01" display="none">
	<g display="inline">
		<polygon fill="#FCB033" points="12.605,13.521 12.605,13.85 12.606,13.521 		"/>
		<polygon fill="#FCB033" points="9.322,13.521 9.322,13.85 9.323,13.521 		"/>
		<polygon fill="#FCB033" points="15.888,13.85 15.889,13.521 15.888,13.521 		"/>
		<path fill="#FCB033" d="M24.424,4.188H21.79h-0.844c-0.315-5-4.115-8.126-8.75-8.126c-4.638,0-8.437,3.126-8.752,8.126H3.092
			H0.129C-0.234,4.188,0,4.141,0,4.504v0.657c0,0.364-0.234,0.027,0.129,0.027h1.733l1.938,9.71c0.052,0.649,0.511,1.29,1.328,1.29
			h14.626c0.816,0,1.275-0.651,1.327-1.3l1.96-9.7h1.382C24.788,5.188,25,5.524,25,5.161V4.504C25,4.141,24.788,4.188,24.424,4.188z
			 M9,13.521v-5.91c0-0.362,0.638-0.656,1-0.656s1,0.294,1,0.656v5.91c0,0.363-0.638,0.657-1,0.657S9,13.885,9,13.521z M12,13.521
			v-5.91c0-0.362,0.639-0.656,1-0.656s1,0.294,1,0.656v5.91c0,0.363-0.639,0.657-1,0.657S12,13.885,12,13.521z M17,13.521
			c0,0.363-0.637,0.657-1,0.657s-1-0.294-1-0.657v-5.91c0-0.362,0.637-0.656,1-0.656s1,0.294,1,0.656V13.521z M12.196-3.282
			c4.263,0,7.764,3.469,8.092,7.469H4.102C4.431,0.188,7.931-3.282,12.196-3.282z"/>
	</g>
</g>
<g id="wlecome-provisions" display="none">
	<g display="inline">
		<path fill="#FCB033" d="M18.135-4.249c-0.006,0.003-0.012,0.015-0.018,0.019C18.448-4.233,18.128-4.244,18.135-4.249z"/>
		<path fill="#FCB033" d="M20.525-4.359C20.762-4.509,21-4.771,21-5.069v-0.485c0-0.464-0.621-1.258-1.085-1.258h-1.93
			C17.521-6.813,17-6.019,17-5.555v0.485c0,0.298,0.229,0.561,0.463,0.71c-0.273,0.419-0.52,1.033-0.792,1.729
			c-1.04-0.346-2.187-0.537-3.396-0.537c-2.758,0-4.944,1.212-5.985,2.25l0.073,0.068L2.423,3.875
			c-0.454,0.563-0.922,1.2-0.922,1.881C1.501,6.642,2,7.641,3,8.4v4.571c0,1.398,1.168,2.216,2.325,2.216h6.384
			c0.104,0,0.197,0.279,0.291,0.434c0.183,0.299,0.41,0.69,0.852,0.798c0.388,0.096,0.8,0.333,1.227,0.333
			c2.032,0,4.235-1.564,5.522-2.564h1.517c0.996,0,1.883-1.168,1.883-2.164V3.356C23,2.937,21.721-2.53,20.525-4.359z M8.116-0.737
			l0.071-0.004c1.046-0.848,2.866-1.704,5.106-1.704c1.123,0,2.2,0.175,3.16,0.491c-0.547,1.525-1.025,3.27-1.28,4.338
			c-0.894-0.839-2.747-0.853-5.089-0.813C9.569,1.58,9.036,1.589,8.492,1.589c-1.178,0-2.276,0.176-3.232,0.489L8.116-0.737z
			 M5.325,14.188C4.228,14.188,4,13.342,4,12.972V7.94L3.86,7.847c-1.246-0.566-1.46-1.216-1.46-2.085
			c0-1.931,2.679-3.438,6.075-3.438c0.548,0,1.094,0.001,1.613-0.007c2.112-0.039,3.953-0.047,4.62,0.608
			C14.896,3.11,15,2.995,15,3.717V5.5c0-0.047-0.426-0.078-0.652-0.078c-1.367,0-2.842,0.865-3.471,1.701
			c-1.486,1.974-1.858,4.721-0.881,6.783c0.096,0.201,0.233,0.281,0.386,0.281H5.325z M19.092,13.315
			c-1.148,1.523-3.162,2.546-5.014,2.546c-0.369,0-0.723-0.041-1.055-0.122c-0.143-0.035-0.249-0.194-0.408-0.452
			c-0.132-0.216-0.326-0.462-0.562-0.639C12.051,14.646,12,14.645,12,14.643l-0.417-0.122l0.5,0.5c-0.192,0-0.539-0.862-0.723-0.938
			c-0.373-0.154-0.606-0.169-0.714-0.395c-0.855-1.804-0.511-4.433,0.802-6.176c0.512-0.679,1.761-1.39,2.888-1.39
			c0.209,0,0.402,0.038,0.576,0.09c0.332,0.099,0.568,0.472,0.842,0.899c0.154,0.242,0.314,0.494,0.509,0.719
			c0.134,0.156,0.269,0.283,0.411,0.385c0.398,0.286,0.878,0.413,1.344,0.535c0.498,0.13,0.969,0.255,1.186,0.553
			C20.009,10.408,19.806,12.368,19.092,13.315z M22,12.023c0,0.598-0.285,1.164-0.883,1.164h-1.088c0.557-1,0.599-3.116-0.241-4.271
			C19.419,8.411,18.8,8.229,18.2,8.072c-0.334-0.088-0.674-0.192-0.948-0.342c0.008-0.031,0.02-0.067,0.021-0.098
			c0.013-0.426,1.359-0.834,2.56-0.866c0.199-0.005,0.356-0.163,0.352-0.362c-0.006-0.199-0.169-0.326-0.37-0.333
			c-0.189,0.005-0.644,0.032-1.154,0.12c0.003-0.412-0.337-0.934-0.772-1.352c-0.604-0.58-1.447-0.658-1.482-0.66L15.96,4.142
			l0.056,0.441c0.004,0.036,0.115,0.877,0.717,1.457c0.227,0.218,0.459,0.392,0.682,0.515c-0.327,0.154-0.598,0.356-0.745,0.622
			c-0.106-0.145-0.06-0.296-0.157-0.449C16.316,6.422,16,6.12,16,5.883V3.356c0-0.842,1.428-7.168,2.117-7.168
			c-0.062,0-0.138,0-0.25,0l0,0l0.268-0.436L19-4.813h-1.133l0,0h0.118C17.92-4.813,18-5.004,18-5.069v-0.485
			c0-0.065-0.08-0.258-0.015-0.258h1.93C19.98-5.813,20-5.62,20-5.555v0.485c0,0.065-0.02,0.257-0.085,0.257H19v0.584
			c0,0,0.156-0.015,0.148-0.02C19.826-3.803,22,2.507,22,3.356V12.023z M18.07,6.32V6.041c0,0,0,0,0.001,0L18.07,6.32z
			 M17.871,5.979c-0.165-0.076-0.397-0.227-0.639-0.459c-0.146-0.141-0.25-0.309-0.326-0.468c0.162,0.069,0.333,0.167,0.479,0.308
			C17.645,5.609,17.794,5.828,17.871,5.979z"/>
	</g>
	<path display="inline" fill="#FCB033" d="M6.367,0.531c-0.013,0.006-0.193-0.15,0.268-0.237c0.227-0.05,0.498-0.088,0.784-0.13
		C7.704,0.12,8.013,0.104,8.313,0.076l0.449-0.002c0.146,0.004,0.292-0.011,0.423,0.011c0.132,0.015,0.26,0.029,0.38,0.043
		c0.117,0.019,0.238,0.016,0.326,0.05c0.361,0.106,0.601,0.177,0.601,0.177S10.228,0.32,9.83,0.267
		c-0.092-0.02-0.218-0.002-0.334-0.004C9.377,0.265,9.252,0.268,9.123,0.27C8.998,0.265,8.855,0.297,8.72,0.311L8.308,0.364
		c-0.277,0.062-0.549,0.108-0.8,0.178S7.026,0.673,6.834,0.741C6.448,0.865,5.686,1.058,5.67,1.061L6.367,0.531z"/>
	<path display="inline" fill="#FCB033" d="M7.372-0.443C7.359-0.436,7.174-0.615,7.635-0.704c0.227-0.051,0.498-0.088,0.784-0.13
		c0.286-0.042,0.596-0.053,0.896-0.079l0.451,0.007c0.146,0.007,0.292-0.006,0.425,0.022c0.132,0.019,0.261,0.038,0.382,0.056
		c0.118,0.023,0.24,0.023,0.329,0.063c0.364,0.127,0.606,0.212,0.606,0.212s-0.266-0.113-0.667-0.181
		c-0.092-0.024-0.218-0.08-0.336-0.08c-0.119,0-0.244,0-0.374,0c-0.125,0-0.268,0.093-0.404,0.105L9.316-0.623
		c-0.277,0.063-0.549,0.127-0.799,0.2c-0.25,0.073-0.48,0.145-0.671,0.218C7.46-0.074,6.699,0.131,6.684,0.134L7.372-0.443z"/>
	<rect x="33.001" y="-25.763" display="inline" fill="#FCB033" width="7.666" height="6.899"/>
</g>
<g id="toiletries" display="none">
	<path display="inline" fill="#FCB033" d="M22.986,8.429L22.21,7.376c0.347-0.227,0.978-0.733,1.105-1.498
		c0.079-0.479-0.047-0.958-0.375-1.435l0.046-0.034l-0.818-1.111c0.331-0.249,0.676-0.604,0.727-1.036
		c0.025-0.222-0.033-0.539-0.354-0.847l0.038-0.074l-8.308-4.279c-0.292-0.285-0.809-0.667-1.549-0.764
		c-1.009-0.132-2.087,0.297-3.214,1.273L3.095,1.185l0.061,0.108l-0.038-0.05L1.437,2.524l1.591,0.933L2.054,4.585
		c-0.078,0.091-0.112,0.212-0.092,0.33c0.02,0.119,0.091,0.222,0.195,0.282L2.754,5.54L1.437,6.545l1.591,0.933L2.054,8.606
		C1.976,8.697,1.941,8.818,1.961,8.936c0.02,0.118,0.091,0.221,0.195,0.282l0.597,0.343l-1.317,1.005l5.692,3.337
		c0.159,0.118,2.97,2.206,5.7,2.205c0.97,0,1.93-0.262,2.756-0.971l6.396-3.604c0.047-0.023,1.161-0.591,1.335-1.634
		c0.079-0.478-0.047-0.959-0.375-1.435L22.986,8.429z M3.605,1.882L3.572,1.839l6.366-3.587l0.068-0.047
		c0.952-0.833,1.822-1.206,2.601-1.111c0.336,0.042,0.604,0.168,0.81,0.306l-0.051,0.1l0.423,0.217
		c0.061,0.066,0.094,0.114,0.099,0.121l0.058-0.04l8.014,4.128l-0.016,0.021c0.075,0.059,0.161,0.146,0.152,0.224
		c-0.024,0.217-0.483,0.583-0.904,0.788l-6.104,3.504c-2.66,2.331-7.426-1.207-7.514-1.269L2.876,2.437L3.605,1.882z M3.508,5.977
		l7.527,4.347c0.063,0.036,0.133,0.054,0.202,0.054c0.138,0,0.274-0.072,0.347-0.201c0.112-0.192,0.045-0.438-0.147-0.55
		L2.979,4.743L3.734,3.87l3.395,1.989c0.16,0.121,2.994,2.225,5.71,2.225c0.96,0,1.906-0.263,2.712-0.97l4.846-2.776l0.725,1.023
		l-7.948,3.815c-0.199,0.096-0.284,0.337-0.188,0.535c0.069,0.146,0.213,0.229,0.363,0.229c0.058,0,0.117-0.014,0.174-0.039
		l8.377-4.021c0.106-0.052,0.186-0.147,0.215-0.262c0.029-0.115,0.007-0.237-0.061-0.335l-0.956-1.348l0.382-0.219l0.549,0.747
		l-0.063,0.063c0.429,0.437,0.617,0.845,0.557,1.215c-0.104,0.639-0.895,1.048-0.919,1.06l-6.448,3.634l-0.068,0.046
		c-2.66,2.331-7.426-1.207-7.514-1.269L2.876,6.458L3.508,5.977z M21.604,10.822l-6.448,3.634l-0.068,0.047
		c-2.66,2.329-7.426-1.208-7.514-1.271l-4.697-2.754l0.632-0.481l7.527,4.347c0.063,0.037,0.133,0.053,0.202,0.053
		c0.138,0,0.274-0.07,0.347-0.199c0.112-0.192,0.045-0.439-0.147-0.55L2.979,8.764l0.754-0.872L7.128,9.88
		c0.159,0.121,2.97,2.207,5.7,2.207c0.97,0,1.93-0.263,2.756-0.971l4.835-2.726l0.702,0.992l-7.948,3.814
		c-0.199,0.096-0.284,0.336-0.188,0.537c0.069,0.144,0.213,0.228,0.363,0.228c0.058,0,0.117-0.013,0.174-0.04l8.377-4.02
		c0.106-0.053,0.186-0.147,0.215-0.262c0.029-0.115,0.007-0.238-0.061-0.334l-0.931-1.313l0.385-0.215l0.521,0.707l-0.063,0.063
		c0.429,0.437,0.617,0.845,0.557,1.214C22.418,10.401,21.628,10.811,21.604,10.822z"/>
</g>
<g id="phone" display="none">
	<g display="inline">
		<path fill="#FCB033" d="M9.911-4.722c0.006,0.008,0.043,0.071,0.062,0.161c0.026,0.09,0.064,0.199,0.104,0.309l0.604,1.706
			c0.157,0.391,0.321,0.799,0.491,1.201c0.065,0.161,0.072,0.286,0.077,0.368L11.4-0.527l-0.109,0.165
			c-0.063,0.357-0.234,0.66-0.533,0.942c-1.054,1.006-1.054,1.006-0.106,2.19c1.185,1.491,2.601,2.847,4.328,4.151
			c0.256,0.188,0.367,0.218,0.409,0.218c0.031,0,0.103-0.061,0.185-0.194c0.518-0.822,1.193-1.247,2.01-1.266l0.033-0.039
			L18.156,5.7c0.089,0.019,0.185,0.039,0.28,0.073l0.092,0.012l3.213,1.272c0.058,0.016,0.1,0.036,0.123,0.047l0.6,0.393l0.069,0.11
			c0.2,0.317,0.202,0.688,0.176,0.973c-0.23,2.866-2.836,5.214-5.808,5.227h-0.065c-1.017,0-1.971-0.251-2.836-0.749
			C9.64,10.521,6.221,7.092,3.836,2.861C2.901,1.197,2.83-0.746,3.64-2.47c0.808-1.717,2.403-2.943,4.271-3.281
			c0.542-0.098,0.968-0.063,1.307,0.129 M8.458-4.898c-0.118,0-0.246,0.015-0.388,0.041C6.469-4.567,5.154-3.557,4.461-2.083
			c-0.685,1.456-0.622,3.095,0.167,4.5c2.303,4.086,5.61,7.403,9.826,9.854c0.726,0.416,1.527,0.628,2.383,0.628v0.455l0.058-0.455
			c2.516-0.01,4.716-1.981,4.911-4.396c0.036-0.39-0.044-0.438-0.128-0.488l-0.355-0.148l-3.12-1.22
			c-0.117-0.033-0.171-0.044-0.222-0.055l-0.07-0.015l-0.147,0.015l-0.12-0.005c-0.359,0-0.829,0.097-1.298,0.838
			c-0.255,0.412-0.575,0.621-0.954,0.621c-0.364,0-0.686-0.199-0.952-0.396c-1.792-1.354-3.262-2.762-4.494-4.313
			c-1.342-1.677-1.326-1.964,0.188-3.414c0.215-0.203,0.259-0.359,0.274-0.5l0.002-0.025l-0.027-0.081
			c-0.032-0.126-0.036-0.184-0.04-0.244c-0.179-0.472-0.346-0.886-0.511-1.3L9.221-3.95C9.175-4.08,9.129-4.211,9.092-4.343
			c0,0.002,0,0.004,0,0.004c-0.005,0-0.029-0.047-0.047-0.108L8.977-4.59C8.859-4.82,8.728-4.898,8.458-4.898z"/>
	</g>
</g>
<g id="car-park" display="none">
	<g display="inline">
		<path fill="#FCB033" d="M14.573,7.868c1.017,0.146,1.057,0.186,1.229,1.19c0.152,0.874,0.308,1.747,0.461,2.623
			c0.211,1.197-0.122,1.741-1.291,2.114c-0.323,1.68-0.691,2.065-1.909,2.016c-1.066-0.046-1.466-0.53-1.63-2.048
			c-0.773,0-1.56,0-2.345,0c-0.773,0-1.545,0-2.136,0c-0.316,0.648-0.481,1.274-0.874,1.679c-0.271,0.28-0.859,0.347-1.305,0.347
			c-1.026-0.001-1.405-0.522-1.542-1.943c-0.296-0.149-0.627-0.258-0.881-0.46c-0.465-0.375-0.6-0.896-0.493-1.48
			c0.171-0.949,0.345-1.896,0.512-2.844C2.548,8.054,2.582,8.019,3.576,7.87C3.666,7.209,3.72,6.532,3.854,5.871
			c0.293-1.454,1.49-2.535,2.969-2.598c1.471-0.064,2.949-0.075,4.42-0.009c1.755,0.08,3,1.349,3.181,3.107
			C14.472,6.856,14.521,7.345,14.573,7.868z M13.235,7.89c0.135-2.167-0.704-3.567-2.381-3.301
			c-0.129,1.023-0.245,1.125-1.281,1.128c-0.265,0.002-0.529,0-0.793,0c-1.228,0-1.239-0.01-1.49-1.166
			C5.513,4.417,4.842,5.781,4.932,7.89C7.699,7.89,10.469,7.89,13.235,7.89z M4.553,9.949c-0.672,0.002-1.235,0.556-1.24,1.219
			c-0.006,0.671,0.605,1.265,1.28,1.245c0.659-0.02,1.215-0.599,1.204-1.258C5.785,10.485,5.227,9.945,4.553,9.949z M13.595,9.946
			c-0.673,0.01-1.221,0.566-1.217,1.236c0.004,0.662,0.569,1.227,1.229,1.229c0.684,0.002,1.274-0.598,1.252-1.274
			C14.836,10.471,14.271,9.937,13.595,9.946z"/>
	</g>
	<g display="inline">
		<g>
			<path fill="#FCB033" d="M21.285,1.157c0,0.54-0.17,0.952-0.507,1.239c-0.338,0.286-0.816,0.427-1.439,0.427h-0.455v1.783h-1.063
				v-5.013h1.602c0.607,0,1.069,0.129,1.387,0.394C21.126,0.249,21.285,0.638,21.285,1.157z M18.884,1.954h0.35
				c0.327,0,0.57-0.067,0.734-0.194c0.161-0.13,0.243-0.317,0.243-0.565c0-0.25-0.066-0.434-0.203-0.551
				c-0.137-0.12-0.351-0.178-0.641-0.178h-0.483V1.954z"/>
		</g>
	</g>
	<g display="inline">
		<path fill="#FCB033" d="M19.121,6.744c-2.736,0-4.961-2.226-4.961-4.963c0-2.736,2.225-4.962,4.961-4.962s4.965,2.226,4.965,4.962
			C24.086,4.518,21.857,6.744,19.121,6.744z M19.121-2.354c-2.279,0-4.136,1.855-4.136,4.135c0,2.281,1.856,4.137,4.136,4.137
			c2.28,0,4.137-1.855,4.137-4.137C23.258-0.499,21.401-2.354,19.121-2.354z"/>
	</g>
	<g display="inline">
		<rect x="18" y="6.188" fill="#FCB033" width="2" height="9"/>
	</g>
</g>
<g id="nosmoking" display="none">
	<g display="inline">
		<path fill="#FCB033" d="M14.171,3.031l8.915-8.917c0.322-0.32,0.322-0.841,0-1.162c-0.319-0.321-0.84-0.321-1.16,0L13.009,1.87
			L4.092-7.047c-0.321-0.321-0.84-0.321-1.161,0s-0.321,0.841,0,1.162l8.916,8.917l-8.916,8.917c-0.321,0.319-0.321,0.841,0,1.161
			c0.16,0.16,0.371,0.24,0.581,0.24s0.421-0.08,0.581-0.24l8.917-8.917l8.917,8.917c0.16,0.16,0.37,0.24,0.58,0.24
			s0.421-0.08,0.58-0.24c0.322-0.32,0.322-0.842,0-1.161L14.171,3.031z"/>
		<path fill="#FCB033" d="M20.051,2.329l0.05-0.142H2.941C2.308,2.188,2,3.21,2,3.84v0.864c0,0.658,0.338,1.483,0.941,1.483h12.587
			h0.695h3.512c0.103,0,0.206,0.053,0.309,0.053c0.101,0,0.205-0.053,0.307-0.053h0.04L20.34,6.043C20.713,5.916,21,5.464,21,5.091
			V3.333C21,2.865,20.523,2.356,20.051,2.329z M4,5.188v-2h12v2H4z M17,3.188h2.033C19.013,3.188,18,3.266,18,3.333v1.758
			c0,0.046,1.012,0.097,1.021,0.097H17V3.188z M20,5.091c0,0.162-0.338,0.293-0.5,0.293S19,5.253,19,5.091V3.333
			c0-0.162,0.338-0.294,0.5-0.294S20,3.171,20,3.333V5.091z"/>
		<g>
			<path fill-rule="evenodd" clip-rule="evenodd" fill="#FCB033" d="M2.71,1.79C2.48,1.782,2.405,1.626,2.5,1.435
				C2.672,1.083,2.763,0.71,2.689,0.327C2.636,0.057,2.537-0.209,2.422-0.46c-0.272-0.596-0.311-1.197-0.1-1.815
				c0.038-0.107,0.088-0.211,0.14-0.313c0.06-0.116,0.156-0.176,0.283-0.118C2.876-2.646,2.893-2.54,2.849-2.402
				c-0.085,0.257-0.185,0.515-0.223,0.78c-0.061,0.41,0.086,0.787,0.27,1.15c0.249,0.495,0.314,1.017,0.18,1.555
				c-0.046,0.19-0.121,0.375-0.204,0.551C2.836,1.709,2.746,1.757,2.71,1.79z"/>
		</g>
		<g>
			<path fill-rule="evenodd" clip-rule="evenodd" fill="#FCB033" d="M1.564,0.979c-0.22,0-0.292-0.144-0.23-0.331
				C1.416,0.403,1.51,0.157,1.549-0.096c0.063-0.417-0.077-0.8-0.264-1.17C0.99-1.85,0.961-2.458,1.173-3.076
				C1.209-3.184,1.259-3.287,1.31-3.389c0.062-0.125,0.162-0.188,0.295-0.123c0.135,0.065,0.13,0.181,0.091,0.311
				C1.615-2.93,1.517-2.659,1.479-2.381C1.424-1.99,1.571-1.634,1.744-1.288c0.297,0.592,0.322,1.206,0.108,1.829
				c-0.037,0.107-0.083,0.215-0.145,0.31C1.668,0.914,1.594,0.954,1.564,0.979z"/>
		</g>
	</g>
</g>
<g id="flat-screen-tv">
	<g>
		<path fill="#FCB033" d="M25,14.188H0v-14h25V14.188z M1,13.188h23v-12H1V13.188z"/>
	</g>
	<g>
		<rect x="2" y="2.188" fill="#FCB033" width="21" height="10"/>
	</g>
	<g>
		<rect x="2" y="15.188" fill="#FCB033" width="21" height="1"/>
	</g>
</g>
<g id="cctv" display="none">
	<path display="inline" fill="#FCB033" d="M23.882,0.77L9.279-5.336C8.295-5.747,7.693-5.583,7.441-4.978L5.796-1.046
		C5.795-1.043,5.795-1.041,5.794-1.039L5.205,0.369C4.869,1.175,5.308,2.1,6.204,2.475l4.997,2.145L6,9.701V6.575
		c0-0.2,0.071-0.212-0.051-0.335C5.742,6.035,6.375,6.313,5.288,6.188H2.306c-0.165,0-0.684-0.152-0.833-0.004
		C1.321,6.336,1,6.375,1,6.575v8.206c0,0.308,0.642,1.406,1.357,1.406h2.931C5.849,16.188,6,15.313,6,14.781v-2.594h0.478
		c0.019,0,0.068-0.046,0.103-0.033c0.091,0.033,0.228,0.051,0.382,0.051c0.077,0,0.158-0.029,0.24-0.064
		c0.372-0.056,0.655-0.295,0.76-0.627l5.871-5.845l5.497,2.296c0.26,0.109,0.528,0.16,0.786,0.16c0.512,0,0.979-0.21,1.273-0.57
		l0.759,0.316l0.159,0.033c0.333,0,0.443-0.318,0.562-0.655c0.021-0.061,0.04-0.117,0.057-0.158l0.527-1.262
		c0.019-0.042,0.04-0.08,0.058-0.112c0.061-0.108,0.15-0.271,0.082-0.467l-0.083-0.187l-0.857-0.359l0.168-0.401
		c1.083-0.017,1.327-0.134,1.434-0.389l0.662-1.584C25.101,1.894,25.068,1.269,23.882,0.77z M5,14.781
		c0,0.162,0.35-0.594,0.288,0.406H2.433c-0.02-1-0.433-0.33-0.433-0.406V7.188h3.341C5.389,7.188,5,6.656,5,6.658v2.529H4.116
		C3.584,9.188,3,10.143,3,10.679v0.586c0,0.236,0.275,0.923,1.116,0.923H5V14.781z M7.254,11.124l-0.021,0.124
		c-0.003,0.025-0.017,0.105-0.172,0.117l-0.096,0.008l-0.032,0.021c-0.026-0.008-0.058-0.067-0.082-0.077
		c-0.099-0.036-0.222-0.129-0.363-0.129H6.268H5.497h-1.38C3.967,11.188,4,11.262,4,11.265v-0.586c0-0.168,0.076-0.491,0.116-0.491
		H6.55l5.553-5.408l0.961,0.482L7.254,11.124z M19.629,7.252L6.501,1.763C5.995,1.552,5.743,1.08,5.916,0.666l0.151-0.362
		c0.17,0.199,0.39,0.37,0.659,0.482l7.004,2.8c0.555,0.232,5.59,0.656,8.259,0.713L21.65,5.107L21.135,6.34
		c-0.001,0.004-0.004,0.008-0.005,0.011l-0.24,0.575C20.722,7.326,20.156,7.473,19.629,7.252z M22.727,5.571l-0.51,1.222
		c-0.022,0.052-0.049,0.125-0.075,0.203c-0.004,0.01-0.007,0.02-0.011,0.032l-0.356-0.149c0.019-0.084,0.045-0.179,0.069-0.239
		l0.513-1.225L22.727,5.571z M24.207,2.033L23.6,3.482c-0.123,0.022-0.414,0.053-1.062,0.053c-2.686,0-8.066-0.504-8.517-0.663
		l-7.003-2.8c-0.394-0.164-0.626-0.54-0.511-0.821L7.16-2.309l0,0l0.992-2.372c0.029-0.071,0.057-0.114,0.197-0.114
		c0.15,0,0.363,0.057,0.632,0.17l14.602,6.105C24.31,1.786,24.232,1.971,24.207,2.033z"/>
</g>
<g id="air-con" display="none">
	<g display="inline">
		<path fill-rule="evenodd" clip-rule="evenodd" fill="#FCB033" d="M24.644,9.813c-0.103,0.238-0.293,0.305-0.543,0.305
			c-7.852-0.002-15.705-0.002-23.558,0c-0.249,0-0.439-0.066-0.543-0.305c0-2.873,0-5.745,0-8.616
			C0.055,1.047,0.095,0.891,0.167,0.75c0.329-0.645,0.87-0.922,1.584-0.92c2.478,0.005,4.955,0.002,7.433,0.002
			c4.543,0,9.091-0.003,13.637,0.008c0.311,0,0.642,0.061,0.928,0.177c0.514,0.208,0.749,0.67,0.895,1.179
			C24.644,4.068,24.644,6.939,24.644,9.813z M23.429,0.764c0,0.16,0.006,0.271,0,0.382c-0.031,0.497-0.303,0.869-0.741,0.986
			c-0.159,0.042-0.332,0.051-0.499,0.051C15.612,2.186,9.037,2.186,2.46,2.185c-0.112,0-0.224-0.005-0.335-0.018
			C1.662,2.114,1.312,1.78,1.241,1.318C1.215,1.147,1.212,0.975,1.196,0.77C0.891,0.979,0.813,1.251,0.813,1.572
			c0.003,2.494,0.002,4.988,0.002,7.481c0,0.079,0,0.155,0,0.233c0.147,0,0.263,0,0.4,0c0-0.104,0-0.189,0-0.277
			c0-0.568-0.007-1.139,0.001-1.707c0.009-0.691,0.429-1.105,1.119-1.105c6.655-0.002,13.312-0.002,19.968,0
			c0.702,0,1.117,0.416,1.125,1.124c0.006,0.569,0.001,1.138,0.001,1.708c0,0.086,0,0.171,0,0.26c0.149,0,0.264,0,0.398,0
			c0-0.104,0-0.191,0-0.277c0-2.463,0-4.925,0-7.386c0-0.088,0.003-0.178-0.008-0.265C23.789,1.122,23.688,0.922,23.429,0.764z
			 M1.774,0.652c0,0.204-0.013,0.38,0.003,0.553c0.023,0.251,0.189,0.401,0.441,0.427c0.08,0.008,0.16,0.006,0.241,0.006
			c6.576,0.001,13.153,0.001,19.73,0c0.097,0,0.211,0.026,0.283-0.018c0.142-0.086,0.319-0.191,0.369-0.328
			c0.068-0.191,0.033-0.418,0.044-0.64C15.827,0.652,8.813,0.652,1.774,0.652z M22.867,7.834c-7.038,0-14.056,0-21.088,0
			c0,0.178,0,0.341,0,0.515c7.036,0,14.056,0,21.088,0C22.867,8.177,22.867,8.02,22.867,7.834z M1.787,7.252
			c7.026,0,14.05,0,21.078,0c-0.021-0.38-0.198-0.52-0.639-0.52c-6.6,0-13.198,0-19.797,0c-0.088,0-0.177,0.001-0.263,0.019
			C1.905,6.805,1.785,6.967,1.787,7.252z M1.777,9.285c7.05,0,14.069,0,21.087,0c0-0.137,0-0.252,0-0.373
			c-7.038,0-14.058,0-21.087,0C1.777,9.042,1.777,9.158,1.777,9.285z"/>
		<path fill-rule="evenodd" clip-rule="evenodd" fill="#FCB033" d="M14.847,17.187c-0.288-0.012-0.383-0.207-0.263-0.448
			c0.215-0.444,0.33-0.912,0.237-1.396c-0.067-0.339-0.191-0.675-0.336-0.992c-0.342-0.75-0.392-1.508-0.124-2.285
			c0.047-0.137,0.108-0.268,0.175-0.396c0.073-0.145,0.196-0.221,0.356-0.147c0.165,0.075,0.186,0.21,0.13,0.384
			c-0.105,0.323-0.231,0.647-0.281,0.982c-0.076,0.517,0.109,0.991,0.34,1.449c0.315,0.623,0.396,1.281,0.228,1.959
			c-0.06,0.239-0.152,0.472-0.256,0.693C15.007,17.084,14.895,17.145,14.847,17.187z"/>
		<path fill-rule="evenodd" clip-rule="evenodd" fill="#FCB033" d="M12.385,17.184c-0.278,0-0.367-0.181-0.29-0.417
			c0.102-0.307,0.221-0.619,0.269-0.937c0.081-0.525-0.097-1.008-0.332-1.475c-0.372-0.735-0.407-1.502-0.141-2.281
			c0.046-0.135,0.109-0.266,0.172-0.394c0.077-0.156,0.203-0.236,0.373-0.154c0.169,0.082,0.163,0.228,0.113,0.393
			c-0.101,0.341-0.225,0.682-0.273,1.031c-0.068,0.492,0.116,0.942,0.335,1.378c0.374,0.746,0.407,1.519,0.136,2.305
			c-0.047,0.136-0.104,0.271-0.182,0.39C12.516,17.101,12.422,17.152,12.385,17.184z"/>
		<path fill-rule="evenodd" clip-rule="evenodd" fill="#FCB033" d="M12.343,5.104c0.386,0,0.77-0.006,1.155,0.002
			c0.271,0.006,0.433,0.228,0.29,0.402c-0.071,0.087-0.233,0.136-0.355,0.138c-0.737,0.014-1.476,0.008-2.214,0.008
			c-0.008,0-0.016,0-0.024,0c-0.187-0.006-0.373-0.029-0.375-0.271c-0.001-0.238,0.177-0.278,0.367-0.278
			C11.573,5.103,11.958,5.104,12.343,5.104z"/>
		<path fill-rule="evenodd" clip-rule="evenodd" fill="#FCB033" d="M22.048,5.444c-0.102,0.065-0.197,0.171-0.304,0.188
			c-0.155,0.025-0.26-0.092-0.261-0.249c-0.001-0.168,0.109-0.287,0.273-0.26c0.105,0.018,0.195,0.134,0.292,0.208
			C22.048,5.369,22.048,5.406,22.048,5.444z"/>
		<path fill-rule="evenodd" clip-rule="evenodd" fill="#FCB033" d="M20.802,5.43c-0.099,0.071-0.186,0.18-0.294,0.203
			c-0.154,0.033-0.261-0.084-0.271-0.236c-0.008-0.17,0.1-0.294,0.263-0.273c0.106,0.013,0.2,0.127,0.3,0.196
			C20.8,5.355,20.801,5.393,20.802,5.43z"/>
		<path fill-rule="evenodd" clip-rule="evenodd" fill="#FCB033" d="M9.925,17.188c-0.275-0.011-0.377-0.181-0.306-0.382
			c0.081-0.233,0.188-0.461,0.244-0.699c0.126-0.543,0.044-1.067-0.212-1.561c-0.358-0.684-0.506-1.396-0.314-2.157
			c0.057-0.23,0.155-0.452,0.244-0.672c0.066-0.167,0.189-0.278,0.375-0.196c0.196,0.087,0.195,0.255,0.109,0.426
			c-0.27,0.536-0.349,1.1-0.195,1.68c0.069,0.26,0.191,0.506,0.302,0.753c0.393,0.864,0.382,1.721-0.033,2.57
			C10.086,17.057,9.974,17.135,9.925,17.188z"/>
		<path fill-rule="evenodd" clip-rule="evenodd" fill="#FCB033" d="M14.847,17.187c-0.288-0.012-0.383-0.207-0.263-0.448
			c0.215-0.444,0.33-0.912,0.237-1.396c-0.067-0.339-0.191-0.675-0.336-0.992c-0.342-0.75-0.392-1.508-0.124-2.285
			c0.047-0.137,0.108-0.268,0.175-0.396c0.073-0.145,0.196-0.221,0.356-0.147c0.165,0.075,0.186,0.21,0.13,0.384
			c-0.105,0.323-0.231,0.647-0.281,0.982c-0.076,0.517,0.109,0.991,0.34,1.449c0.315,0.623,0.396,1.281,0.228,1.959
			c-0.06,0.239-0.152,0.472-0.256,0.693C15.007,17.084,14.895,17.145,14.847,17.187z"/>
		<path fill-rule="evenodd" clip-rule="evenodd" fill="#FCB033" d="M12.385,17.184c-0.278,0-0.367-0.181-0.29-0.417
			c0.102-0.307,0.221-0.619,0.269-0.937c0.081-0.525-0.097-1.008-0.332-1.475c-0.372-0.735-0.407-1.502-0.141-2.281
			c0.046-0.135,0.109-0.266,0.172-0.394c0.077-0.156,0.203-0.236,0.373-0.154c0.169,0.082,0.163,0.228,0.113,0.393
			c-0.101,0.341-0.225,0.682-0.273,1.031c-0.068,0.492,0.116,0.942,0.335,1.378c0.374,0.746,0.407,1.519,0.136,2.305
			c-0.047,0.136-0.104,0.271-0.182,0.39C12.516,17.101,12.422,17.152,12.385,17.184z"/>
	</g>
</g>
<g id="wi-fi" display="none">
	<g display="inline">
		<g>
			<g>
				<path fill="#FCB033" d="M4.812,16.353c-2.294,0-4.161-1.866-4.161-4.162s1.867-4.164,4.161-4.164
					c2.296,0,4.163,1.868,4.163,4.164S7.108,16.353,4.812,16.353z M4.812,9.386c-1.544,0-2.801,1.258-2.801,2.805
					c0,1.545,1.257,2.803,2.801,2.803c1.545,0,2.803-1.258,2.803-2.803C7.615,10.644,6.357,9.386,4.812,9.386z"/>
			</g>
		</g>
		<g>
			<g>
				<path fill="#FCB033" d="M17.822,17.188c-0.005,0-0.015,0-0.026,0H14.58c-0.375,0-0.68-0.109-0.68-0.486
					c0-7.865-5.658-13.699-13.406-13.699C0.119,3.002,0,2.795,0,2.419v-3.216c0-0.375,0.119-0.68,0.495-0.68
					c9.783,0,17.964,8.304,18.074,18.178c0.019,0.063-0.019-0.066-0.019,0C18.55,17.078,18.198,17.188,17.822,17.188z
					 M15.247,16.188h1.854C16.746,7.188,10,0.263,1-0.102v1.855C8,2.081,14.929,7.188,15.247,16.188z"/>
			</g>
		</g>
		<g>
			<g>
				<path fill="#FCB033" d="M24.127,17.188c-0.006,0-0.018,0-0.027,0h-3.213c-0.376,0-0.681-0.109-0.681-0.486
					c0-10.521-9.297-20.005-19.711-20.005C0.119-3.304,0-3.51,0-3.886v-3.216c0-0.375,0.119-0.68,0.495-0.68
					c13.887,0,24.281,10.512,24.377,24.484c0.019,0.063-0.019-0.067-0.019-0.001C24.854,17.078,24.503,17.188,24.127,17.188z
					 M21.555,16.188h1.856C23.086,3.188,13-6.081,1-6.413v1.86C12-4.157,21.164,5.188,21.555,16.188z"/>
			</g>
		</g>
	</g>
</g>
<g id="video-phone" display="none">
	<g display="inline">
		<path fill="#FCB033" d="M21-5.959v20.733c0,0.494-0.726,1.414-1.33,1.414H5.738C5.134,16.188,4,15.268,4,14.773V-5.959
			c0-0.515,1.189-0.853,1.738-0.853H19.67C20.219-6.813,21-6.474,21-5.959z M5,14.773c0,0.131,0.724,0.414,0.738,0.414H20
			c0,0,0-0.283,0-0.414V-5.959c0-0.136,0,0.147,0,0.147H5.738C5.558-5.813,5-6.096,5-5.959V14.773z"/>
	</g>
	<g display="inline">
		<path fill="#FCB033" d="M16.821-4.813H8.076C7.605-4.813,8-4.139,8-3.589V6.833c0,0.55-0.395,0.354,0.076,0.354h8.745
			C17.313,7.188,17,7.341,17,6.833V-3.589C17-4.096,17.313-4.813,16.821-4.813z M16.821,7.188h-0.61
			c-0.141-2-1.746-3.452-3.711-3.452c-1.965,0-3.571,1.452-3.711,3.452H8.076C7.924,7.188,8,6.948,8,6.833V-3.589
			c0-0.114-0.076-0.223,0.076-0.223h8.745C16.974-3.813,17-3.757,17-3.589V6.833C17,7.002,16.974,7.188,16.821,7.188z"/>
		<circle fill="#FCB033" cx="12.216" cy="0.746" r="1.984"/>
	</g>
	<g display="inline">
		<path fill="#FCB033" d="M7,7.188v-12h11v12H7z M8-4.813v12h9v-12H8z"/>
	</g>
	<rect x="7" y="6.188" display="inline" fill="#FCB033" width="11" height="1"/>
	<path display="inline" fill="#E7A723" d="M7.676,14.259v0.006l0.105-0.044c0.023-0.013,0.04-0.013,0.061-0.027
		c0.017-0.003,0.029-0.014,0.042-0.019l1.605-0.687l0.069-0.047c0.038-0.018,0.071-0.04,0.104-0.062l0.106-0.07l-0.003-0.027
		c0.279-0.243,0.408-0.573,0.296-1.073c-0.083-0.357,0.111-0.455,0.431-0.503c1.073-0.148,2.146-0.187,3.22-0.062
		c0.995,0.112,1.012,0.118,0.987,1.102c-0.006,0.2,0.049,0.333,0.137,0.443l0.008,0.037l0.125,0.06
		c0.05,0.033,0.074,0.074,0.145,0.104c0.213,0.087,0.429,0.179,0.644,0.271l0.772,0.37c0.088,0.044,0.18,0.084,0.267,0.133
		c0.021,0.014,0.038,0.013,0.058,0.023l0.129,0.062l-0.008-0.016c0.313,0.102,0.508-0.039,0.709-0.328
		c1.109-1.593,0.343-3.829-1.553-4.363c-2.477-0.695-4.973-0.678-7.461-0.024c-0.484,0.13-0.903,0.379-1.254,0.738
		c-1.028,1.032-1.116,2.722-0.209,3.79C7.351,14.221,7.485,14.306,7.676,14.259z"/>
</g>
</svg>
