<?xml version="1.0" encoding="utf-8"?>
<!-- Generator: Adobe Illustrator 16.0.0, SVG Export Plug-In . SVG Version: 6.00 Build 0)  -->
<!DOCTYPE svg PUBLIC "-//W3C//DTD SVG 1.1//EN" "http://www.w3.org/Graphics/SVG/1.1/DTD/svg11.dtd">
<svg version="1.1" id="Layer_1" xmlns="http://www.w3.org/2000/svg" xmlns:xlink="http://www.w3.org/1999/xlink" x="0px" y="0px"
	 width="25px" height="17.188px" viewBox="0 0 25 17.188" enable-background="new 0 0 25 17.188" xml:space="preserve">
<g id="Layer_2" display="none">
	<g display="inline">
		<path fill="#FCB033" d="M81.734-116.54c1.6,0.229,1.66,0.294,1.936,1.875c0.239,1.376,0.482,2.752,0.725,4.129
			c0.334,1.887-0.188,2.743-2.031,3.331c-0.51,2.644-1.09,3.253-3.008,3.172c-1.678-0.07-2.309-0.835-2.564-3.224
			c-1.217,0-2.455,0-3.689,0c-1.219,0-2.435,0-3.363,0c-0.498,1.02-0.758,2.006-1.375,2.645c-0.428,0.44-1.354,0.546-2.055,0.546
			c-1.615-0.001-2.213-0.823-2.43-3.061c-0.467-0.236-0.986-0.406-1.391-0.729c-0.729-0.588-0.941-1.412-0.773-2.332
			c0.271-1.489,0.543-2.979,0.809-4.477c0.277-1.584,0.334-1.645,1.896-1.875c0.143-1.043,0.229-2.108,0.438-3.148
			c0.461-2.288,2.348-3.988,4.675-4.091c2.315-0.101,4.645-0.119,6.961-0.014c2.765,0.125,4.724,2.123,5.008,4.893
			C81.574-118.132,81.65-117.364,81.734-116.54z M79.627-116.505c0.213-3.413-1.111-5.618-3.75-5.199
			c-0.202,1.612-0.385,1.771-2.018,1.771c-0.416,0.006-0.832,0.001-1.248,0.001c-1.937-0.001-1.951-0.014-2.348-1.834
			c-2.799-0.211-3.854,1.938-3.715,5.261C70.909-116.505,75.27-116.505,79.627-116.505z M65.955-113.265
			c-1.061,0.008-1.943,0.876-1.953,1.924c-0.01,1.057,0.953,1.988,2.016,1.96c1.039-0.029,1.914-0.943,1.896-1.981
			C67.896-112.419,67.018-113.27,65.955-113.265z M80.191-113.267c-1.063,0.019-1.924,0.895-1.916,1.944
			c0.007,1.043,0.896,1.932,1.937,1.938c1.075,0.005,2.006-0.941,1.97-2.008C82.146-112.443,81.258-113.282,80.191-113.267z"/>
	</g>
	<g display="inline">
		<path fill="#FCB033" d="M86.5-103.313c-0.275,0-0.5-0.224-0.5-0.5v-14c0-0.273,0.225-0.5,0.5-0.5s0.5,0.227,0.5,0.5v14
			C87-103.536,86.775-103.313,86.5-103.313z"/>
	</g>
	<g display="inline">
		<path fill="#FCB033" d="M88.5-103.313c-0.275,0-0.5-0.224-0.5-0.5v-14c0-0.273,0.225-0.5,0.5-0.5s0.5,0.227,0.5,0.5v14
			C89-103.536,88.775-103.313,88.5-103.313z"/>
	</g>
	<g display="inline">
		<g>
			<path fill="#FCB033" d="M90.541-124.76c0,0.702-0.221,1.241-0.662,1.616c-0.439,0.373-1.066,0.562-1.88,0.562h-0.597v2.33h-1.389
				v-6.551h2.094c0.795,0,1.396,0.17,1.813,0.514C90.334-125.947,90.541-125.438,90.541-124.76z M87.402-123.719h0.457
				c0.429,0,0.748-0.089,0.959-0.257c0.213-0.17,0.318-0.414,0.318-0.735c0-0.326-0.09-0.566-0.269-0.724
				c-0.181-0.154-0.456-0.229-0.836-0.229H87.4v1.945H87.402z"/>
		</g>
	</g>
	<g display="inline">
		<path fill="#FCB033" d="M87.584-118.052c-3.309,0-6-2.691-6-6c0-3.312,2.691-6,6-6s6,2.688,6,6
			C93.584-120.744,90.893-118.052,87.584-118.052z M87.584-129.052c-2.757,0-5,2.24-5,5c0,2.757,2.243,5,5,5s5-2.243,5-5
			C92.584-126.81,90.341-129.052,87.584-129.052z"/>
	</g>
	<g display="inline">
		<path fill="#FCB033" d="M21-5.959v20.73c0,0.494-0.727,1.414-1.33,1.414H5.738C5.134,16.188,4,15.268,4,14.773V-5.959
			c0-0.518,1.189-0.854,1.738-0.854H19.67C20.219-6.813,21-6.474,21-5.959z M5,14.773c0,0.131,0.724,0.414,0.738,0.414H20
			c0,0,0-0.283,0-0.414V-5.959c0-0.139,0,0.146,0,0.146H5.738C5.558-5.813,5-6.096,5-5.959V14.773z"/>
	</g>
	<g display="inline">
		<path fill="#FCB033" d="M16.82-4.813H8.076C7.605-4.813,8-4.139,8-3.589V6.833c0,0.55-0.395,0.354,0.076,0.354h8.744
			C17.313,7.188,17,7.341,17,6.833V-3.589C17-4.096,17.313-4.813,16.82-4.813z M16.82,7.188h-0.609
			c-0.141-2-1.746-3.452-3.711-3.452S8.929,5.188,8.789,7.188H8.076C7.924,7.188,8,6.948,8,6.833V-3.589
			c0-0.114-0.076-0.226,0.076-0.226h8.744c0.154,0,0.18,0.058,0.18,0.226V6.833C17,7.002,16.975,7.188,16.82,7.188z"/>
		<circle fill="#FCB033" cx="12.216" cy="0.746" r="1.984"/>
	</g>
	<g display="inline">
		<path fill="#FCB033" d="M7,7.188v-12h11v12H7z M8-4.813v12h9v-12H8z"/>
	</g>
	<rect x="7" y="6.188" display="inline" fill="#FCB033" width="11" height="1"/>
	<path display="inline" fill="#E7A723" d="M7.676,14.259v0.006l0.105-0.044c0.023-0.013,0.04-0.013,0.061-0.027
		c0.017-0.003,0.029-0.014,0.042-0.019l1.605-0.688l0.069-0.047c0.038-0.018,0.071-0.04,0.104-0.062l0.106-0.07l-0.003-0.024
		c0.279-0.243,0.408-0.573,0.296-1.073c-0.083-0.357,0.111-0.455,0.431-0.503c1.073-0.148,2.146-0.188,3.22-0.063
		c0.995,0.112,1.013,0.118,0.987,1.104c-0.006,0.197,0.049,0.333,0.137,0.44l0.008,0.037l0.125,0.063
		c0.051,0.03,0.074,0.071,0.146,0.104c0.213,0.087,0.429,0.179,0.644,0.271l0.771,0.37c0.091,0.044,0.183,0.084,0.27,0.133
		c0.021,0.014,0.038,0.013,0.061,0.021l0.129,0.063l-0.008-0.019c0.313,0.104,0.508-0.039,0.709-0.328
		c1.106-1.593,0.342-3.826-1.556-4.36c-2.479-0.695-4.973-0.678-7.461-0.024c-0.484,0.13-0.903,0.379-1.254,0.738
		c-1.028,1.032-1.116,2.722-0.209,3.79C7.351,14.221,7.485,14.306,7.676,14.259z"/>
</g>
<g id="gym" display="none">
	<g display="inline">
		<path fill="#FCB033" d="M3.073-1.408l0.592,0.412c-4.084,8.995,1.83,13.951,1.891,14c0.104,0.084,0.228,0.125,0.351,0.125
			c0.163,0,0.323-0.072,0.435-0.207c0.194-0.239,0.158-0.591-0.082-0.786C6.041,11.955,1.048,7.713,4.601-0.344l1.546,1.075
			C6.244,0.8,6.355,0.835,6.467,0.835c0.175,0,0.349-0.083,0.458-0.24c0.177-0.252,0.114-0.601-0.139-0.777L3.901-2.194l-0.61-3.312
			C3.235-5.808,2.949-6.003,2.64-5.955C2.336-5.897,2.136-5.607,2.192-5.303l0.651,3.538C2.871-1.621,2.953-1.492,3.073-1.408z"/>
		<path fill="#FCB033" d="M22.579,11.072c0-2.927-2.381-5.352-5.31-5.352c-1.438,0-2.742,0.563-3.699,1.492l0.635-0.123L4.2,16.188
			H1.902c-0.31,0-0.559,0.19-0.559,0.5c0,0.313,0.25,0.5,0.559,0.5H3.02h7.544H22.02c0.312,0,0.562-0.188,0.562-0.5
			c0-0.31-0.25-0.5-0.562-0.5h-3.134C21.021,16.188,22.579,13.433,22.579,11.072z M11.837,16.188l1.587-1.392
			c0.608,0.645,1.385,1.392,2.246,1.392H11.837z M17.27,15.176c-1.24,0-2.343-0.55-3.106-1.407l2.388-2.387
			c0.219-0.219,0.219-0.572,0-0.791c-0.22-0.218-0.57-0.218-0.791,0l-1.871,1.871l-0.215-3.587c0.729-1.236,2.063-2.076,3.602-2.076
			c2.312,0,4.188,1.879,4.188,4.188C21.461,13.297,19.581,15.176,17.27,15.176z"/>
		<path fill="#FCB033" d="M23.133,1.16l-0.744-0.744c-0.104-0.089-0.23-0.229-0.369-0.229h-5.588c-0.299,0-0.545,0.325-0.559,0.624
			c-0.014,0.298,0.21,0.604,0.507,0.628l0.945,0.108l1.549,0.623c-0.001,0.006-0.004,0.014-0.005,0.02l-0.561,2.331
			c-0.072,0.3,0.111,0.604,0.414,0.676c0.045,0.013,0.088,0.019,0.131,0.019c0.252,0,0.479-0.172,0.543-0.43l0.522-2.188
			l0.869,0.344c0.063,0.025,0.135,0.039,0.204,0.039c0.083,0,0.164-0.019,0.236-0.054L23,2.088c0.172-0.08,0.29-0.242,0.313-0.427
			C23.346,1.471,23.273,1.284,23.133,1.16z"/>
	</g>
</g>
<g id="Layer_18" display="none">
</g>
<g id="concierge" display="none">
	<g display="inline">
		<path fill="#FCB033" d="M24.591,9.671c-0.147-2.653-1.307-5.254-3.11-7.194c-0.914-0.979-1.982-1.816-3.172-2.441
			c-0.582-0.309-1.188-0.563-1.813-0.764c-0.25-0.08-0.467-0.132-0.452-0.438c0.019-0.438,0.015-0.873,0.009-1.312
			c-0.004-0.391-0.014-0.545,0.264-0.818c0.184-0.185,0.313-0.418,0.33-0.68c0.055-0.646-0.535-1.1-1.07-1.321
			c-1.354-0.564-3.002-0.556-4.419-0.276C10.559-5.46,9.91-5.25,9.476-4.805c-0.442,0.452-0.404,1.15,0.069,1.564
			c0.179,0.156,0.408,0.227,0.403,0.5C9.94-2.355,9.937-1.969,9.941-1.583c0.003,0.263,0.098,0.585-0.219,0.674
			c-0.347,0.096-0.691,0.207-1.03,0.332C6.285,0.316,4.253,1.994,2.864,4.149C2.176,5.215,1.666,6.392,1.367,7.625
			C1.221,8.227,1.125,8.842,1.075,9.46c-0.046,0.572-0.132,1.087-0.04,1.657c0.064,0.396,1.146,0.067,1.412,0.067
			c0.841,0,1.682,0,2.523,0c1.617,0,3.234,0,4.851,0c3.222,0,6.447,0.166,9.667,0.125c1.205-0.015,2.412,0.027,3.619,0.019
			c0.367-0.004,1.209,0.169,1.52-0.082c0.109-0.094,0.016-0.629,0.016-0.771C24.643,10.195,24.605,9.945,24.591,9.671
			C24.547,8.887,24.596,9.754,24.591,9.671z M15.271-4.051c-0.926,0.604-3.823,0.604-4.733,0
			C11.428-4.663,14.373-4.663,15.271-4.051z M14.419-1.479c0.04,0.319-0.247,0.234-0.459,0.21c-0.38-0.045-0.765-0.063-1.147-0.063
			c-0.357,0-0.714,0.016-1.07,0.05c-0.249,0.023-0.179-0.429-0.179-0.593c0.004-0.318,0.212-0.332,0.473-0.301
			c0.324,0.035,0.658,0.017,0.982,0.017c0.354,0,0.709,0.003,1.063,0C14.573-2.165,14.369-1.872,14.419-1.479
			C14.448-1.245,14.396-1.652,14.419-1.479z M22.876,9.942c-0.011,0.078-0.155,0.245-0.231,0.245c-0.191,0-0.387,0-0.58,0
			c-0.387,0-0.771,0-1.155,0c-0.839,0-1.675,0-2.513,0c-1.604,0-3.215,0-4.821,0c-3.233,0-6.461-0.097-9.692-0.124
			c-0.289-0.003-0.81-0.09-1.072-0.212C2.588,9.749,2.75,9.218,2.776,9.048C2.889,8.333,3.07,7.617,3.324,6.939
			c0.471-1.255,1.2-2.402,2.109-3.388c1.767-1.908,4.24-3.034,6.829-3.208c2.792-0.188,5.591,0.917,7.612,2.837
			c0.897,0.854,1.618,1.876,2.136,3c0.268,0.581,0.481,1.232,0.647,1.85"/>
		<path fill="#FCB033" d="M20.604,5.921c-0.857-1.9-2.479-3.274-4.303-4.222c-0.867-0.452-1.783-0.618-2.496,0.211
			c-0.466,0.541-0.584,1.357-0.14,1.947c0.248,0.33,0.614,0.49,0.974,0.674c0.428,0.216,0.844,0.46,1.232,0.74
			c0.729,0.533,1.35,1.206,1.768,2.013c0.188,0.354,0.33,0.688,0.709,0.882c0.385,0.198,0.856,0.199,1.258,0.047
			C20.498,7.875,21.006,6.809,20.604,5.921C20.261,5.167,20.702,6.14,20.604,5.921z M19.072,7.094
			c-0.215,0.028-0.276-0.228-0.35-0.374c-0.148-0.294-0.318-0.576-0.513-0.844c-0.382-0.535-0.853-1.007-1.364-1.412
			c-0.474-0.368-0.982-0.682-1.514-0.961c-0.189-0.104-0.54-0.193-0.682-0.37c-0.172-0.216,0.143-0.537,0.34-0.589
			c0.417-0.11,1.105,0.438,1.445,0.646c0.537,0.327,1.049,0.7,1.508,1.131C18.277,4.63,20.373,6.927,19.072,7.094
			C18.9,7.116,19.294,7.066,19.072,7.094z"/>
		<rect x="1" y="12.188" fill="#FCB033" width="24" height="2"/>
	</g>
</g>
<g id="maid" display="none">
	<g display="inline">
		<g>
			<path fill="#FCB033" d="M9.823,16.483c0.415,0,0.753,0.311,0.812,0.704h4.646c0.057-0.396,0.396-0.704,0.81-0.704
				s0.753,0.311,0.813,0.704h4.937c-0.168-2.871-2.126-4.354-4.046-5.436c-0.193-0.105-0.261-0.319-0.35-0.612
				c-0.02-0.055-0.041-0.133-0.063-0.188c-0.258-0.082-0.834-0.119-1.267-0.146c-0.528-0.032-1.034-0.063-1.418-0.162l-1.707,3.146
				l-1.812-3.259c-0.294,0.099-0.697,0.188-1.232,0.305c-0.449,0.096-1.002,0.216-1.225,0.309c-0.03,0.052-0.071,0.144-0.099,0.2
				c-0.108,0.236-0.202,0.438-0.393,0.541c-2.39,1.287-4.243,2.507-4.401,5.31h5.184C9.07,16.791,9.411,16.483,9.823,16.483z
				 M16.091,14.073c0.454,0,0.822,0.365,0.822,0.82c0,0.453-0.368,0.824-0.822,0.824s-0.821-0.371-0.821-0.824
				S15.637,14.073,16.091,14.073z M9.823,14.073c0.454,0,0.823,0.365,0.823,0.82c0,0.453-0.369,0.824-0.823,0.824
				c-0.453,0-0.822-0.371-0.822-0.824S9.37,14.073,9.823,14.073z"/>
			<path fill="#FCB033" d="M10.886,0.066c-0.825,0.106-1.46,0.462-1.936,1.081C7.541,2.975,8.095,6.426,8.1,6.46l0.216,1.288
				c0.839,0.867,1.926,1.492,3.149,1.76c0.021,0.004,0.041,0.01,0.063,0.017c0.41,0.085,0.836,0.13,1.271,0.13
				c2.208,0,4.143-1.147,5.252-2.878L17.99,6.078l-0.305-3.544C13.932,2.106,11.475,0.49,10.886,0.066z M9.736,3.914
				c0-0.454,0.369-0.823,0.823-0.823c0.456,0,0.824,0.369,0.824,0.823s-0.368,0.82-0.824,0.82C10.104,4.737,9.736,4.368,9.736,3.914
				z M14.9,6.761c-1.316,0.829-2.896,0.834-4.174-0.063c-0.456-0.319,0.119-0.968,0.569-0.649c0.951,0.668,2.163,0.603,3.125-0.003
				C14.893,5.749,15.372,6.465,14.9,6.761z M14.898,4.737c-0.453,0-0.821-0.366-0.821-0.82s0.368-0.823,0.821-0.823
				c0.455,0,0.822,0.369,0.822,0.823S15.354,4.737,14.898,4.737z"/>
			<path fill="#FCB033" d="M6.666,4.561c0.235,0.617,0.571,1.273,1.043,1.965c0,0-1.083-6.465,3.288-6.872
				c0,0,2.685,2.113,7.058,2.521l0.331,3.87c0,0,0.192-0.32,0.4-0.877c0.269-0.729,0.563-1.859,0.481-3.216
				c-0.039-0.667-0.172-1.391-0.439-2.144c-0.193-0.541-0.458-1.099-0.813-1.665c0,0.07-0.002,0.146-0.002,0.214v0.198h-0.141
				h-0.563h-0.595H8.88H8.288H7.721H7.623c-0.149,0.162-0.469,0.541-0.767,1.11C6.494,0.356,6.168,1.324,6.225,2.529
				C6.255,3.147,6.388,3.826,6.666,4.561z"/>
			<path fill="#FCB033" d="M7.865-2.292C7.866-2.233,7.866-2.176,7.868-2.12c0,0.094,0,0.188,0.002,0.282h0.265h0.62h0.679h6.728
				h0.68h0.62h0.156c0-0.151,0.006-0.304,0.006-0.454c0.002-0.034,0.002-0.067,0.002-0.104c0-0.094,0-0.188,0.003-0.284
				c0-0.091,0-0.182,0-0.271c-0.003-0.998-0.068-1.934-0.505-2.376C16.93-5.525,16.666-5.62,16.318-5.62H9.171
				c-0.349,0-0.611,0.095-0.806,0.293c-0.463,0.47-0.511,1.494-0.504,2.563c0,0.103,0.002,0.199,0.002,0.301
				C7.865-2.406,7.865-2.349,7.865-2.292z"/>
		</g>
	</g>
</g>
<g id="welcome_hamper-02" display="none">
	<g display="inline">
		<path fill="#FCB033" d="M12.969,14.031v0.271V14.031z"/>
		<polygon fill="#FCB033" points="10.26,14.031 10.26,14.303 10.261,14.031 		"/>
		<polygon fill="#FCB033" points="15.677,14.031 15.677,14.303 15.678,14.031 		"/>
		<path fill="#FCB033" d="M24.275,2.907l-0.383-0.386c-0.213-0.211-0.453-0.746-0.539-0.657L19.6,5.187H6.263L2.509,1.865
			C2.423,1.778,2.183,2.097,1.97,2.308L1.587,2.799C1.376,3.011,1.274,2.874,1.36,2.959l2.605,2.229H2.677
			C2.377,5.188,2,6.293,2,6.593v0.541c0,0.3,0.377,1.054,0.677,1.054h1.43l1.598,7.478c0.043,0.53,0.421,0.522,1.096,0.522h12.064
			c0.675,0,1.053-0.002,1.097-0.535l1.616-7.465h1.141C23.018,8.188,23,7.434,23,7.134V6.593c0-0.3,0.018-1.405-0.281-1.405h-0.82
			l2.605-2.174C24.589,2.928,24.488,3.119,24.275,2.907z M9,14.031V9.156c0-0.302,0.701-0.542,1-0.542s1,0.24,1,0.542v4.875
			c0,0.299-0.701,0.542-1,0.542S9,14.33,9,14.031z M12,14.031V9.156c0-0.302,0.702-0.542,1-0.542c0.299,0,1,0.24,1,0.542v4.875
			c0,0.299-0.701,0.542-1,0.542C12.702,14.573,12,14.33,12,14.031z M15,14.031V9.156c0-0.302,0.701-0.542,1-0.542s1,0.24,1,0.542
			v4.875c0,0.299-0.701,0.542-1,0.542S15,14.33,15,14.031z"/>
	</g>
</g>
<g id="pet_friendly" display="none">
	<g display="inline">
		<path fill="#FCB033" d="M-53.053-94.611c-1.216,0.831-3.753-0.922-6.297-0.938c-2.543-0.021-5.152,1.738-6.325,0.939
			c-1.173-0.799,1.126-7.194,6.325-7.214C-54.151-101.844-51.836-95.441-53.053-94.611z"/>
	</g>
	
		<ellipse transform="matrix(0.1385 0.9904 -0.9904 0.1385 -158.8411 -21.5371)" display="inline" fill="#FCB033" cx="-67.042" cy="-102.065" rx="3.038" ry="2.203"/>
	
		<ellipse transform="matrix(0.0554 0.9985 -0.9985 0.0554 -164.4989 -37.38)" display="inline" fill="#FCB033" cx="-62.494" cy="-105.629" rx="3.037" ry="2.203"/>
	
		<ellipse transform="matrix(-0.2221 0.975 -0.975 -0.2221 -172.702 -74.2057)" display="inline" fill="#FCB033" cx="-56.75" cy="-105.994" rx="3.037" ry="2.203"/>
	
		<ellipse transform="matrix(-0.5997 0.8003 -0.8003 -0.5997 -165.075 -124.7226)" display="inline" fill="#FCB033" cx="-51.341" cy="-103.652" rx="3.037" ry="2.203"/>
	<g display="inline">
		<path fill="#FCB033" d="M-12.053-98.611c-1.216,0.831-3.753-0.922-6.297-0.938c-2.543-0.021-5.152,1.738-6.325,0.939
			c-1.173-0.799,1.126-7.194,6.325-7.214C-13.151-105.844-10.836-99.441-12.053-98.611z"/>
	</g>
	
		<ellipse transform="matrix(0.1383 0.9904 -0.9904 0.1383 -127.4931 -65.6151)" display="inline" fill="#FCB033" cx="-26.041" cy="-106.072" rx="3.037" ry="2.203"/>
	
		<ellipse transform="matrix(0.0554 0.9985 -0.9985 0.0554 -129.7678 -82.0991)" display="inline" fill="#FCB033" cx="-21.494" cy="-109.632" rx="3.037" ry="2.203"/>
	
		<ellipse transform="matrix(-0.222 0.975 -0.975 -0.222 -126.503 -119.0583)" display="inline" fill="#FCB033" cx="-15.753" cy="-109.997" rx="3.037" ry="2.203"/>
	
		<ellipse transform="matrix(-0.5997 0.8002 -0.8002 -0.5997 -102.6803 -163.9423)" display="inline" fill="#FCB033" cx="-10.336" cy="-107.653" rx="3.037" ry="2.203"/>
	<g display="inline">
		<g>
			<path fill="none" stroke="#FCB033" stroke-miterlimit="10" d="M18.678,14.9c-1.363,0.938-4.213-1.03-7.066-1.056
				c-2.855-0.02-5.782,1.956-7.099,1.059c-1.317-0.896,1.264-8.07,7.099-8.095C17.445,6.786,20.043,13.97,18.678,14.9z"/>
		</g>
		
			<ellipse transform="matrix(0.1383 0.9904 -0.9904 0.1383 8.3796 2.0972)" fill="none" stroke="#FCB033" stroke-miterlimit="10" cx="2.985" cy="5.864" rx="3.409" ry="2.472"/>
		
			<ellipse transform="matrix(0.0555 0.9985 -0.9985 0.0555 9.496 -6.3126)" fill="none" stroke="#FCB033" stroke-miterlimit="10" cx="8.085" cy="1.863" rx="3.408" ry="2.472"/>
		
			<ellipse transform="matrix(-0.2221 0.975 -0.975 -0.2221 19.1726 -12.3816)" fill="none" stroke="#FCB033" stroke-miterlimit="10" cx="14.525" cy="1.457" rx="3.407" ry="2.47"/>
		
			<ellipse transform="matrix(-0.5997 0.8002 -0.8002 -0.5997 36.2204 -9.9498)" fill="none" stroke="#FCB033" stroke-miterlimit="10" cx="20.599" cy="4.084" rx="3.408" ry="2.472"/>
	</g>
</g>
<g id="welcome_hamper-01" display="none">
	<g display="inline">
		<polygon fill="#FCB033" points="12.605,13.521 12.605,13.85 12.606,13.521 		"/>
		<polygon fill="#FCB033" points="9.322,13.521 9.322,13.85 9.323,13.521 		"/>
		<polygon fill="#FCB033" points="15.889,13.85 15.889,13.521 15.889,13.521 		"/>
		<path fill="#FCB033" d="M24.424,4.188H21.79h-0.845c-0.314-5-4.114-8.126-8.75-8.126c-4.638,0-8.437,3.126-8.752,8.126H3.092
			H0.129C-0.234,4.188,0,4.141,0,4.504v0.657c0,0.361-0.234,0.024,0.129,0.024h1.733l1.938,9.71c0.052,0.649,0.511,1.29,1.328,1.29
			h14.626c0.816,0,1.275-0.648,1.327-1.3l1.96-9.7h1.382C24.788,5.188,25,5.524,25,5.161V4.504C25,4.141,24.788,4.188,24.424,4.188z
			 M9,13.521v-5.91c0-0.359,0.638-0.653,1-0.653s1,0.294,1,0.653v5.91c0,0.363-0.638,0.657-1,0.657S9,13.885,9,13.521z M12,13.521
			v-5.91c0-0.359,0.639-0.653,1-0.653c0.361,0,1,0.294,1,0.653v5.91c0,0.363-0.639,0.657-1,0.657C12.639,14.178,12,13.885,12,13.521
			z M17,13.521c0,0.363-0.637,0.657-1,0.657s-1-0.294-1-0.657v-5.91c0-0.359,0.637-0.653,1-0.653s1,0.294,1,0.653V13.521z
			 M12.196-3.282c4.263,0,7.764,3.469,8.092,7.469H4.102C4.431,0.188,7.931-3.282,12.196-3.282z"/>
	</g>
</g>
<g id="wlecome-provisions" display="none">
	<g display="inline">
		<path fill="#FCB033" d="M18.135-4.249c-0.006,0.003-0.012,0.015-0.018,0.019C18.448-4.233,18.128-4.244,18.135-4.249z"/>
		<path fill="#FCB033" d="M20.525-4.359C20.762-4.509,21-4.771,21-5.069v-0.485c0-0.464-0.621-1.258-1.085-1.258h-1.931
			C17.521-6.813,17-6.019,17-5.555v0.485c0,0.298,0.229,0.563,0.463,0.71c-0.273,0.419-0.52,1.033-0.792,1.729
			c-1.04-0.349-2.187-0.537-3.396-0.537c-2.758,0-4.944,1.212-5.985,2.25L7.363-0.85l-4.94,4.728
			c-0.454,0.563-0.922,1.2-0.922,1.881C1.501,6.642,2,7.641,3,8.4v4.571c0,1.398,1.168,2.216,2.325,2.216h6.384
			c0.104,0,0.197,0.279,0.291,0.437c0.183,0.299,0.41,0.688,0.852,0.798c0.388,0.096,0.8,0.333,1.227,0.333
			c2.032,0,4.235-1.564,5.522-2.564h1.517c0.996,0,1.883-1.168,1.883-2.164v-8.67C23,2.937,21.721-2.53,20.525-4.359z M8.116-0.737
			l0.071-0.004c1.046-0.848,2.866-1.704,5.106-1.704c1.123,0,2.2,0.175,3.16,0.491c-0.547,1.522-1.025,3.27-1.28,4.338
			c-0.894-0.839-2.747-0.853-5.089-0.813C9.569,1.58,9.036,1.589,8.492,1.589c-1.178,0-2.276,0.176-3.232,0.489L8.116-0.737z
			 M5.325,14.188C4.228,14.188,4,13.342,4,12.972V7.94L3.86,7.847C2.614,7.281,2.4,6.631,2.4,5.762c0-1.931,2.679-3.438,6.075-3.438
			c0.548,0,1.094,0.001,1.613-0.01c2.112-0.039,3.953-0.047,4.62,0.608C14.896,3.11,15,2.995,15,3.717V5.5
			c0-0.047-0.426-0.078-0.652-0.078c-1.367,0-2.842,0.865-3.471,1.701c-1.486,1.974-1.858,4.721-0.881,6.783
			c0.096,0.198,0.233,0.278,0.386,0.278L5.325,14.188L5.325,14.188z M19.092,13.315c-1.148,1.523-3.162,2.546-5.014,2.546
			c-0.369,0-0.723-0.041-1.055-0.119c-0.146-0.035-0.25-0.194-0.408-0.452c-0.132-0.219-0.326-0.462-0.562-0.642
			C12.051,14.646,12,14.645,12,14.643l-0.417-0.122l0.5,0.5c-0.192,0-0.539-0.859-0.723-0.938c-0.373-0.154-0.606-0.169-0.714-0.396
			c-0.855-1.804-0.511-4.433,0.802-6.176c0.512-0.679,1.761-1.39,2.888-1.39c0.209,0,0.402,0.038,0.576,0.09
			c0.332,0.099,0.568,0.472,0.842,0.896c0.154,0.242,0.314,0.494,0.51,0.722c0.133,0.153,0.271,0.28,0.41,0.385
			c0.398,0.286,0.878,0.413,1.344,0.535c0.498,0.13,0.969,0.255,1.188,0.553C20.009,10.408,19.807,12.368,19.092,13.315z M22,12.023
			c0,0.601-0.285,1.164-0.883,1.164h-1.088c0.557-1,0.599-3.116-0.241-4.271C19.419,8.411,18.8,8.229,18.2,8.072
			c-0.334-0.088-0.675-0.189-0.948-0.342c0.008-0.028,0.02-0.064,0.021-0.098c0.013-0.426,1.356-0.834,2.56-0.866
			c0.199-0.005,0.356-0.163,0.353-0.362c-0.006-0.196-0.17-0.323-0.371-0.333c-0.188,0.008-0.644,0.032-1.151,0.12
			c0.003-0.412-0.337-0.934-0.771-1.352c-0.604-0.58-1.447-0.658-1.481-0.66L15.96,4.142l0.056,0.441
			c0.004,0.036,0.115,0.877,0.717,1.457c0.229,0.218,0.459,0.392,0.685,0.515c-0.327,0.154-0.601,0.356-0.745,0.622
			c-0.104-0.145-0.063-0.296-0.154-0.449C16.316,6.422,16,6.12,16,5.883V3.356c0-0.842,1.428-7.168,2.117-7.168
			c-0.063,0-0.139,0-0.25,0l0,0l0.268-0.436L19-4.813h-1.133l0,0h0.117C17.92-4.813,18-5.004,18-5.069v-0.485
			c0-0.063-0.08-0.258-0.016-0.258h1.931C19.98-5.813,20-5.62,20-5.555v0.485c0,0.065-0.02,0.257-0.085,0.257H19v0.584
			c0,0,0.156-0.015,0.148-0.02C19.826-3.803,22,2.507,22,3.356V12.023z M18.07,6.32V6.041l0,0V6.32z M17.871,5.979
			c-0.165-0.076-0.396-0.227-0.639-0.459c-0.146-0.141-0.25-0.309-0.326-0.468c0.162,0.069,0.333,0.167,0.479,0.308
			C17.645,5.609,17.794,5.828,17.871,5.979z"/>
	</g>
	<path display="inline" fill="#FCB033" d="M6.367,0.531c-0.013,0.006-0.193-0.15,0.268-0.237c0.227-0.05,0.498-0.088,0.784-0.13
		C7.704,0.12,8.013,0.104,8.313,0.076l0.449-0.002c0.146,0.004,0.292-0.014,0.423,0.011c0.132,0.015,0.26,0.029,0.38,0.043
		c0.117,0.019,0.238,0.016,0.326,0.05c0.361,0.106,0.601,0.177,0.601,0.177S10.228,0.32,9.83,0.267
		c-0.092-0.02-0.218-0.002-0.334-0.004C9.377,0.265,9.252,0.268,9.123,0.27C8.998,0.265,8.855,0.297,8.72,0.311L8.308,0.365
		c-0.277,0.062-0.549,0.105-0.8,0.178c-0.251,0.067-0.482,0.13-0.674,0.198C6.448,0.865,5.686,1.058,5.67,1.061L6.367,0.531z"/>
	<path display="inline" fill="#FCB033" d="M7.372-0.443C7.359-0.436,7.174-0.615,7.635-0.704c0.227-0.051,0.498-0.088,0.784-0.13
		s0.596-0.056,0.896-0.079l0.451,0.007c0.146,0.007,0.292-0.006,0.425,0.022c0.132,0.019,0.261,0.035,0.382,0.056
		c0.118,0.021,0.24,0.021,0.329,0.063c0.364,0.127,0.606,0.212,0.606,0.212s-0.266-0.11-0.667-0.181
		c-0.092-0.021-0.218-0.08-0.336-0.08c-0.119,0-0.244,0-0.374,0c-0.125,0-0.268,0.093-0.404,0.105L9.316-0.623
		c-0.277,0.063-0.549,0.127-0.799,0.2c-0.25,0.07-0.48,0.145-0.671,0.218C7.46-0.074,6.699,0.131,6.684,0.134L7.372-0.443z"/>
	<rect x="33.001" y="-25.763" display="inline" fill="#FCB033" width="7.666" height="6.899"/>
</g>
<g id="toiletries" display="none">
	<path display="inline" fill="#FCB033" d="M22.986,8.429L22.21,7.376c0.347-0.229,0.978-0.733,1.104-1.498
		c0.08-0.479-0.047-0.958-0.375-1.438l0.047-0.031l-0.818-1.111c0.331-0.249,0.676-0.604,0.727-1.036
		c0.025-0.222-0.033-0.539-0.354-0.847l0.038-0.074l-8.308-4.279c-0.293-0.285-0.812-0.667-1.549-0.764
		c-1.009-0.132-2.087,0.297-3.214,1.271L3.095,1.185l0.061,0.108l-0.038-0.05L1.437,2.523l1.591,0.936L2.054,4.585
		c-0.078,0.091-0.112,0.212-0.092,0.33c0.02,0.119,0.091,0.222,0.195,0.279L2.754,5.54L1.437,6.545l1.591,0.933L2.054,8.606
		c-0.078,0.091-0.113,0.212-0.093,0.33s0.091,0.224,0.195,0.282l0.597,0.343l-1.317,1.005l5.692,3.337
		c0.159,0.118,2.97,2.206,5.7,2.205c0.97,0,1.93-0.262,2.756-0.971l6.396-3.604c0.047-0.023,1.16-0.594,1.334-1.637
		c0.08-0.478-0.047-0.959-0.375-1.435L22.986,8.429z M3.605,1.882L3.572,1.839l6.366-3.587l0.068-0.047
		c0.952-0.833,1.822-1.206,2.601-1.111c0.336,0.042,0.604,0.168,0.81,0.306L13.366-2.5l0.423,0.217
		c0.061,0.066,0.094,0.114,0.1,0.121l0.057-0.04l8.017,4.128l-0.019,0.021c0.076,0.062,0.162,0.146,0.152,0.227
		c-0.021,0.217-0.48,0.583-0.904,0.788l-6.104,3.504c-2.66,2.331-7.426-1.207-7.514-1.271L2.876,2.437L3.605,1.882z M3.508,5.977
		l7.527,4.35c0.063,0.033,0.133,0.054,0.202,0.054c0.138,0,0.274-0.072,0.347-0.201c0.112-0.192,0.045-0.438-0.147-0.55L2.979,4.743
		L3.734,3.87l3.395,1.986c0.16,0.121,2.994,2.228,5.71,2.228c0.96,0,1.906-0.266,2.712-0.97l4.846-2.776l0.728,1.021l-7.948,3.815
		c-0.199,0.096-0.284,0.337-0.188,0.535c0.071,0.146,0.213,0.229,0.366,0.229c0.058,0,0.114-0.014,0.174-0.039L21.9,5.88
		c0.104-0.052,0.186-0.147,0.215-0.262c0.029-0.115,0.007-0.237-0.061-0.335l-0.957-1.351l0.383-0.219l0.549,0.747l-0.063,0.063
		c0.429,0.438,0.617,0.848,0.558,1.218c-0.104,0.639-0.896,1.048-0.92,1.06l-6.445,3.634l-0.068,0.046
		c-2.66,2.331-7.426-1.207-7.514-1.269l-4.7-2.754L3.508,5.977z M21.604,10.822l-6.445,3.637l-0.068,0.047
		c-2.66,2.329-7.426-1.208-7.514-1.271L2.879,10.48l0.631-0.48l7.527,4.347c0.063,0.037,0.133,0.053,0.202,0.053
		c0.138,0,0.274-0.067,0.347-0.196c0.112-0.192,0.045-0.439-0.147-0.553l-8.46-4.886l0.754-0.872L7.128,9.88
		c0.159,0.121,2.97,2.207,5.7,2.207c0.97,0,1.93-0.263,2.756-0.971l4.835-2.729l0.702,0.992l-7.948,3.813
		c-0.199,0.099-0.284,0.339-0.188,0.537c0.07,0.146,0.213,0.229,0.363,0.229c0.061,0,0.117-0.015,0.174-0.04l8.377-4.021
		c0.106-0.053,0.188-0.146,0.218-0.262c0.026-0.115,0.007-0.238-0.063-0.334L21.122,7.99l0.385-0.218l0.521,0.707l-0.063,0.063
		c0.43,0.437,0.617,0.845,0.557,1.214C22.418,10.401,21.628,10.811,21.604,10.822z"/>
</g>
<g id="phone" display="none">
	<g display="inline">
		<path fill="#FCB033" d="M9.911-4.722c0.006,0.011,0.043,0.071,0.062,0.161c0.026,0.09,0.064,0.199,0.104,0.312l0.604,1.706
			c0.157,0.391,0.321,0.799,0.491,1.198c0.065,0.161,0.072,0.286,0.077,0.368l0.151,0.45l-0.109,0.165
			c-0.063,0.357-0.234,0.66-0.533,0.942C9.704,1.586,9.704,1.586,10.652,2.77c1.185,1.491,2.601,2.85,4.329,4.151
			c0.256,0.188,0.367,0.218,0.408,0.218c0.031,0,0.104-0.061,0.188-0.194c0.518-0.819,1.191-1.244,2.01-1.266l0.033-0.039
			L18.156,5.7c0.089,0.019,0.185,0.039,0.279,0.07l0.092,0.015l3.214,1.271c0.058,0.019,0.1,0.036,0.123,0.047l0.6,0.396
			l0.069,0.107c0.199,0.317,0.201,0.688,0.176,0.976c-0.23,2.863-2.836,5.214-5.809,5.227h-0.064c-1.018,0-1.971-0.251-2.836-0.749
			C9.64,10.521,6.221,7.092,3.836,2.861C2.901,1.197,2.83-0.746,3.64-2.47C4.448-4.187,6.043-5.412,7.911-5.75
			C8.453-5.85,8.879-5.813,9.218-5.621 M8.458-4.898c-0.118,0-0.246,0.018-0.388,0.041c-1.601,0.29-2.916,1.3-3.609,2.774
			c-0.685,1.456-0.622,3.095,0.167,4.5c2.303,4.086,5.61,7.4,9.826,9.854c0.726,0.416,1.526,0.628,2.383,0.628v0.455l0.058-0.455
			c2.519-0.01,4.717-1.979,4.912-4.396c0.035-0.393-0.045-0.438-0.129-0.488l-0.354-0.146l-3.12-1.223
			c-0.117-0.03-0.171-0.044-0.224-0.055l-0.068-0.015l-0.146,0.015l-0.119-0.005c-0.358,0-0.83,0.097-1.299,0.838
			c-0.256,0.412-0.574,0.621-0.953,0.621c-0.365,0-0.688-0.199-0.953-0.396c-1.792-1.354-3.26-2.762-4.495-4.313
			C8.604,1.66,8.62,1.373,10.134-0.077c0.215-0.203,0.259-0.359,0.274-0.5l0.002-0.025l-0.027-0.081
			c-0.032-0.126-0.036-0.184-0.04-0.241c-0.179-0.475-0.346-0.889-0.511-1.303L9.221-3.95C9.175-4.08,9.129-4.211,9.092-4.343
			c0,0.002,0,0.004,0,0.004c-0.005,0-0.029-0.047-0.047-0.108L8.977-4.59C8.859-4.82,8.728-4.898,8.458-4.898z"/>
	</g>
</g>
<g id="car-park" display="none">
	<g display="inline">
		<path fill="#FCB033" d="M14.573,7.868c1.017,0.146,1.057,0.186,1.229,1.188c0.152,0.874,0.308,1.747,0.462,2.623
			c0.211,1.197-0.123,1.741-1.291,2.114c-0.324,1.68-0.689,2.063-1.91,2.016c-1.063-0.046-1.463-0.527-1.627-2.048
			c-0.773,0-1.56,0-2.345,0c-0.773,0-1.545,0-2.136,0c-0.316,0.648-0.481,1.274-0.874,1.679c-0.271,0.28-0.859,0.35-1.305,0.35
			c-1.026-0.001-1.405-0.522-1.542-1.943c-0.296-0.149-0.627-0.258-0.881-0.46c-0.465-0.375-0.6-0.896-0.493-1.479
			c0.171-0.949,0.345-1.896,0.512-2.847c0.177-1.007,0.211-1.042,1.205-1.19c0.09-0.661,0.144-1.338,0.278-1.999
			c0.293-1.454,1.49-2.535,2.969-2.601c1.471-0.063,2.949-0.072,4.42-0.009c1.755,0.08,3,1.349,3.181,3.107
			C14.473,6.856,14.521,7.345,14.573,7.868z M13.234,7.89c0.136-2.167-0.703-3.564-2.38-3.301c-0.129,1.021-0.245,1.125-1.281,1.128
			c-0.265,0.002-0.529,0-0.793,0c-1.228,0-1.239-0.01-1.49-1.166C5.513,4.417,4.842,5.781,4.932,7.89
			C7.699,7.89,10.469,7.89,13.234,7.89z M4.553,9.949c-0.672,0.002-1.235,0.556-1.24,1.219c-0.006,0.671,0.605,1.265,1.28,1.245
			c0.659-0.021,1.215-0.602,1.204-1.261C5.785,10.485,5.227,9.945,4.553,9.949z M13.596,9.946c-0.674,0.013-1.222,0.566-1.218,1.236
			c0.004,0.662,0.569,1.229,1.229,1.229c0.684,0.002,1.271-0.601,1.252-1.274C14.836,10.471,14.271,9.937,13.596,9.946z"/>
	</g>
	<g display="inline">
		<g>
			<path fill="#FCB033" d="M21.285,1.157c0,0.537-0.17,0.949-0.508,1.236c-0.338,0.286-0.815,0.43-1.438,0.43h-0.455v1.78H17.82
				v-5.013h1.603c0.606,0,1.069,0.129,1.388,0.394C21.126,0.249,21.285,0.638,21.285,1.157z M18.884,1.954h0.351
				c0.326,0,0.57-0.067,0.733-0.194c0.161-0.13,0.243-0.317,0.243-0.565c0-0.25-0.066-0.434-0.203-0.551
				c-0.137-0.12-0.351-0.178-0.641-0.178h-0.483V1.954z"/>
		</g>
	</g>
	<g display="inline">
		<path fill="#FCB033" d="M19.121,6.744c-2.736,0-4.961-2.229-4.961-4.963c0-2.736,2.225-4.965,4.961-4.965s4.965,2.229,4.965,4.965
			C24.086,4.517,21.857,6.744,19.121,6.744z M19.121-2.354c-2.279,0-4.137,1.855-4.137,4.138c0,2.279,1.854,4.137,4.137,4.137
			c2.279,0,4.137-1.855,4.137-4.137C23.258-0.499,21.4-2.354,19.121-2.354z"/>
	</g>
	<g display="inline">
		<rect x="18" y="6.188" fill="#FCB033" width="2" height="9"/>
	</g>
</g>
<g id="nosmoking" display="none">
	<g display="inline">
		<path fill="#FCB033" d="M14.171,3.031l8.915-8.917c0.322-0.32,0.322-0.844,0-1.162c-0.318-0.321-0.84-0.321-1.16,0L13.009,1.87
			L4.092-7.047c-0.321-0.321-0.84-0.321-1.161,0c-0.321,0.318-0.321,0.841,0,1.162l8.916,8.917l-8.916,8.917
			c-0.321,0.316-0.321,0.841,0,1.158c0.16,0.16,0.371,0.24,0.581,0.24c0.21,0,0.421-0.08,0.581-0.24l8.917-8.917l8.917,8.917
			c0.16,0.16,0.37,0.24,0.58,0.24s0.421-0.08,0.58-0.24c0.322-0.317,0.322-0.842,0-1.158L14.171,3.031z"/>
		<path fill="#FCB033" d="M20.051,2.329l0.051-0.145H2.941C2.308,2.188,2,3.21,2,3.84v0.864c0,0.655,0.338,1.48,0.941,1.48h12.586
			h0.695h3.512c0.104,0,0.207,0.056,0.31,0.056c0.101,0,0.205-0.056,0.308-0.056h0.039L20.34,6.043C20.713,5.916,21,5.464,21,5.091
			V3.333C21,2.865,20.523,2.356,20.051,2.329z M4,5.188v-2h12v2H4z M17,3.188h2.033C19.014,3.188,18,3.266,18,3.333v1.758
			c0,0.046,1.012,0.097,1.021,0.097H17V3.188z M20,5.091c0,0.162-0.338,0.293-0.5,0.293S19,5.253,19,5.091V3.333
			c0-0.162,0.338-0.294,0.5-0.294S20,3.171,20,3.333V5.091z"/>
		<g>
			<path fill="#FCB033" d="M2.71,1.79C2.48,1.782,2.405,1.626,2.5,1.435C2.672,1.083,2.763,0.71,2.689,0.327
				C2.636,0.057,2.537-0.209,2.422-0.46c-0.272-0.599-0.311-1.197-0.1-1.815C2.36-2.382,2.41-2.486,2.462-2.588
				c0.06-0.116,0.156-0.179,0.283-0.118c0.131,0.06,0.148,0.166,0.104,0.304c-0.085,0.257-0.185,0.515-0.223,0.78
				c-0.061,0.41,0.086,0.787,0.27,1.147c0.249,0.495,0.314,1.02,0.18,1.558C3.03,1.273,2.955,1.458,2.872,1.634
				C2.836,1.709,2.746,1.757,2.71,1.79z"/>
		</g>
		<g>
			<path fill="#FCB033" d="M1.564,0.979c-0.22,0-0.292-0.144-0.23-0.331C1.416,0.403,1.51,0.158,1.549-0.096
				c0.063-0.417-0.077-0.8-0.264-1.17C0.99-1.85,0.961-2.458,1.173-3.076C1.209-3.184,1.259-3.287,1.31-3.389
				c0.062-0.125,0.162-0.188,0.295-0.123C1.74-3.447,1.735-3.33,1.696-3.2C1.615-2.93,1.517-2.659,1.479-2.381
				C1.424-1.99,1.571-1.634,1.744-1.288c0.297,0.592,0.322,1.206,0.108,1.829c-0.037,0.104-0.083,0.215-0.145,0.31
				C1.668,0.914,1.594,0.954,1.564,0.979z"/>
		</g>
	</g>
</g>
<g id="flat-screen-tv">
	<g>
		<path fill="#00436A" d="M25,14.188H0v-14h25V14.188z M1,13.188h23v-12H1V13.188z"/>
	</g>
	<g>
		<rect x="2" y="2.188" fill="#00436A" width="21" height="10"/>
	</g>
	<g>
		<rect x="2" y="15.188" fill="#00436A" width="21" height="1"/>
	</g>
</g>
<g id="cctv" display="none">
	<path display="inline" fill="#FCB033" d="M23.882,0.77L9.279-5.336C8.295-5.747,7.693-5.583,7.441-4.978L5.796-1.046
		C5.795-1.043,5.795-1.041,5.794-1.039L5.205,0.369C4.869,1.175,5.308,2.1,6.204,2.475l4.997,2.146L6,9.701V6.575
		c0-0.2,0.071-0.215-0.051-0.335C5.742,6.035,6.375,6.313,5.288,6.188H2.306c-0.165,0-0.684-0.149-0.833-0.004
		C1.321,6.336,1,6.375,1,6.575v8.206c0,0.308,0.642,1.403,1.357,1.403h2.931C5.849,16.188,6,15.313,6,14.781v-2.597h0.478
		c0.019,0,0.068-0.046,0.103-0.033c0.091,0.033,0.228,0.054,0.382,0.054c0.077,0,0.158-0.029,0.24-0.064
		c0.372-0.056,0.655-0.295,0.76-0.627l5.871-5.845l5.497,2.296c0.26,0.109,0.528,0.16,0.786,0.16c0.512,0,0.979-0.21,1.273-0.57
		l0.758,0.316l0.16,0.03c0.332,0,0.44-0.315,0.562-0.652c0.021-0.063,0.04-0.117,0.057-0.158l0.527-1.262
		c0.019-0.042,0.04-0.08,0.058-0.112c0.063-0.108,0.15-0.271,0.082-0.467l-0.083-0.188l-0.856-0.356l0.17-0.401
		c1.08-0.017,1.324-0.134,1.434-0.389l0.662-1.584C25.102,1.894,25.068,1.269,23.882,0.77z M5,14.781
		c0,0.159,0.35-0.597,0.288,0.403H2.433c-0.02-1-0.433-0.33-0.433-0.403V7.188h3.341C5.389,7.188,5,6.656,5,6.658v2.526H4.116
		C3.584,9.188,3,10.143,3,10.679v0.586c0,0.236,0.275,0.923,1.116,0.923H5V14.781z M7.254,11.124l-0.021,0.124
		c-0.003,0.022-0.017,0.104-0.172,0.117l-0.096,0.008l-0.032,0.021c-0.026-0.008-0.058-0.064-0.082-0.077
		c-0.099-0.033-0.222-0.129-0.363-0.129h-0.22H5.497h-1.38C3.967,11.188,4,11.262,4,11.265v-0.586c0-0.168,0.076-0.491,0.116-0.491
		H6.55l5.553-5.408l0.961,0.482L7.254,11.124z M19.629,7.252L6.501,1.763C5.995,1.552,5.743,1.08,5.916,0.666l0.151-0.362
		c0.17,0.199,0.39,0.37,0.659,0.482l7.004,2.8c0.555,0.229,5.59,0.656,8.259,0.713L21.65,5.107L21.135,6.34
		c-0.001,0.004-0.004,0.008-0.005,0.011l-0.239,0.575C20.723,7.326,20.156,7.473,19.629,7.252z M22.727,5.571l-0.51,1.225
		c-0.021,0.052-0.049,0.125-0.074,0.203c-0.004,0.01-0.008,0.02-0.012,0.029L21.775,6.88c0.019-0.085,0.045-0.18,0.067-0.24
		l0.515-1.225L22.727,5.571z M24.207,2.033L23.6,3.482c-0.123,0.022-0.414,0.056-1.062,0.056c-2.687,0-8.065-0.504-8.517-0.663
		L7.018,0.072C6.624-0.091,6.392-0.467,6.507-0.748L7.16-2.309l0,0l0.992-2.372C8.181-4.75,8.209-4.793,8.349-4.793
		c0.15,0,0.363,0.057,0.632,0.17L23.583,1.48C24.311,1.786,24.232,1.971,24.207,2.033z"/>
</g>
<g id="air-con" display="none">
	<g display="inline">
		<path fill="#FCB033" d="M24.645,9.813c-0.104,0.238-0.293,0.308-0.543,0.308c-7.853-0.002-15.706-0.002-23.559,0
			c-0.249,0-0.439-0.066-0.543-0.308C0,6.94,0,4.068,0,1.197C0.055,1.047,0.095,0.891,0.167,0.75c0.329-0.646,0.87-0.922,1.584-0.92
			c2.478,0.005,4.955,0.002,7.433,0.002c4.542,0,9.091-0.003,13.636,0.008c0.312,0,0.643,0.061,0.929,0.177
			c0.515,0.208,0.749,0.67,0.896,1.179C24.645,4.068,24.645,6.939,24.645,9.813z M23.43,0.764c0,0.16,0.006,0.271,0,0.382
			c-0.031,0.497-0.304,0.869-0.742,0.986c-0.158,0.042-0.332,0.051-0.498,0.051C15.611,2.186,9.037,2.186,2.46,2.185
			c-0.112,0-0.224-0.005-0.335-0.018C1.662,2.115,1.312,1.78,1.241,1.318C1.215,1.147,1.212,0.975,1.196,0.77
			C0.891,0.979,0.813,1.251,0.813,1.572C0.816,4.066,0.815,6.56,0.815,9.053c0,0.079,0,0.155,0,0.233c0.147,0,0.263,0,0.4,0
			c0-0.104,0-0.189,0-0.277c0-0.568-0.007-1.139,0.001-1.707c0.009-0.691,0.429-1.105,1.119-1.105
			c6.655-0.002,13.312-0.002,19.968,0c0.702,0,1.117,0.416,1.125,1.124c0.006,0.569,0.002,1.141,0.002,1.708
			c0,0.089,0,0.174,0,0.263c0.148,0,0.264,0,0.397,0c0-0.104,0-0.191,0-0.277c0-2.463,0-4.925,0-7.386
			c0-0.088,0.003-0.178-0.009-0.268C23.789,1.122,23.688,0.922,23.43,0.764z M1.774,0.652c0,0.204-0.013,0.383,0.003,0.556
			C1.8,1.457,1.966,1.606,2.218,1.633c0.08,0.008,0.16,0.006,0.241,0.006c6.576,0.001,13.152,0.001,19.73,0
			c0.097,0,0.211,0.026,0.283-0.018c0.142-0.086,0.316-0.191,0.366-0.328c0.068-0.191,0.033-0.418,0.044-0.643
			C15.827,0.652,8.813,0.652,1.774,0.652z M22.867,7.834c-7.038,0-14.056,0-21.088,0c0,0.178,0,0.341,0,0.515
			c7.036,0,14.056,0,21.088,0C22.867,8.177,22.867,8.02,22.867,7.834z M1.787,7.252c7.026,0,14.05,0,21.078,0
			c-0.021-0.38-0.198-0.521-0.639-0.521c-6.603,0-13.201,0-19.797,0c-0.088,0-0.177,0.001-0.263,0.021
			C1.905,6.805,1.785,6.967,1.787,7.252z M1.777,9.285c7.05,0,14.069,0,21.087,0c0-0.14,0-0.252,0-0.373c-7.038,0-14.058,0-21.087,0
			C1.777,9.042,1.777,9.158,1.777,9.285z"/>
		<path fill="#FCB033" d="M14.848,17.187c-0.289-0.012-0.384-0.207-0.264-0.445c0.215-0.444,0.33-0.912,0.236-1.396
			c-0.066-0.339-0.19-0.675-0.336-0.992c-0.342-0.75-0.394-1.508-0.123-2.285c0.047-0.137,0.105-0.268,0.175-0.396
			c0.073-0.146,0.196-0.221,0.356-0.147c0.164,0.075,0.186,0.21,0.129,0.387c-0.104,0.32-0.23,0.646-0.28,0.979
			c-0.076,0.52,0.108,0.991,0.34,1.449c0.315,0.623,0.396,1.281,0.228,1.959c-0.06,0.239-0.149,0.472-0.256,0.693
			C15.007,17.084,14.895,17.145,14.848,17.187z"/>
		<path fill="#FCB033" d="M12.385,17.184c-0.278,0-0.367-0.181-0.29-0.417c0.102-0.307,0.221-0.619,0.269-0.937
			c0.081-0.525-0.097-1.011-0.332-1.478c-0.372-0.732-0.407-1.502-0.141-2.278c0.046-0.138,0.109-0.269,0.172-0.396
			c0.077-0.156,0.203-0.236,0.373-0.154c0.169,0.082,0.163,0.229,0.113,0.396c-0.101,0.341-0.225,0.682-0.273,1.031
			c-0.068,0.489,0.116,0.939,0.335,1.378c0.374,0.746,0.407,1.519,0.136,2.305c-0.047,0.136-0.104,0.271-0.182,0.39
			C12.516,17.101,12.422,17.152,12.385,17.184z"/>
		<path fill="#FCB033" d="M12.343,5.104c0.386,0,0.771-0.006,1.155,0.002c0.271,0.006,0.434,0.229,0.29,0.402
			c-0.071,0.087-0.233,0.136-0.354,0.138c-0.738,0.017-1.477,0.008-2.215,0.008c-0.008,0-0.016,0-0.024,0
			c-0.187-0.006-0.373-0.026-0.375-0.271c-0.001-0.238,0.177-0.278,0.367-0.278C11.573,5.103,11.958,5.104,12.343,5.104z"/>
		<path fill="#FCB033" d="M22.048,5.444c-0.103,0.065-0.196,0.174-0.304,0.188c-0.155,0.025-0.26-0.092-0.262-0.249
			c0-0.168,0.107-0.287,0.271-0.26c0.104,0.018,0.195,0.134,0.292,0.208C22.048,5.369,22.048,5.406,22.048,5.444z"/>
		<path fill="#FCB033" d="M20.802,5.43c-0.099,0.071-0.186,0.18-0.294,0.203c-0.154,0.033-0.261-0.084-0.271-0.236
			c-0.008-0.17,0.103-0.294,0.266-0.271c0.104,0.013,0.2,0.127,0.3,0.193C20.8,5.355,20.801,5.393,20.802,5.43z"/>
		<path fill="#FCB033" d="M9.925,17.188c-0.275-0.011-0.377-0.181-0.306-0.382c0.081-0.23,0.188-0.461,0.244-0.699
			c0.126-0.543,0.044-1.064-0.212-1.561c-0.358-0.687-0.506-1.396-0.314-2.157c0.057-0.229,0.155-0.452,0.244-0.672
			c0.066-0.167,0.189-0.278,0.375-0.196c0.196,0.087,0.195,0.255,0.109,0.426c-0.27,0.536-0.349,1.103-0.195,1.683
			c0.069,0.26,0.191,0.506,0.302,0.753c0.393,0.864,0.382,1.721-0.033,2.57C10.086,17.057,9.974,17.135,9.925,17.188z"/>
		<path fill="#FCB033" d="M14.848,17.187c-0.289-0.012-0.384-0.207-0.264-0.445c0.215-0.444,0.33-0.912,0.236-1.396
			c-0.066-0.339-0.19-0.675-0.336-0.992c-0.342-0.75-0.394-1.508-0.123-2.285c0.047-0.137,0.105-0.268,0.175-0.396
			c0.073-0.146,0.196-0.221,0.356-0.147c0.164,0.075,0.186,0.21,0.129,0.387c-0.104,0.32-0.23,0.646-0.28,0.979
			c-0.076,0.52,0.108,0.991,0.34,1.449c0.315,0.623,0.396,1.281,0.228,1.959c-0.06,0.239-0.149,0.472-0.256,0.693
			C15.007,17.084,14.895,17.145,14.848,17.187z"/>
		<path fill="#FCB033" d="M12.385,17.184c-0.278,0-0.367-0.181-0.29-0.417c0.102-0.307,0.221-0.619,0.269-0.937
			c0.081-0.525-0.097-1.011-0.332-1.478c-0.372-0.732-0.407-1.502-0.141-2.278c0.046-0.138,0.109-0.269,0.172-0.396
			c0.077-0.156,0.203-0.236,0.373-0.154c0.169,0.082,0.163,0.229,0.113,0.396c-0.101,0.341-0.225,0.682-0.273,1.031
			c-0.068,0.489,0.116,0.939,0.335,1.378c0.374,0.746,0.407,1.519,0.136,2.305c-0.047,0.136-0.104,0.271-0.182,0.39
			C12.516,17.101,12.422,17.152,12.385,17.184z"/>
	</g>
</g>
<g id="wi-fi" display="none">
	<g display="inline">
		<g>
			<g>
				<path fill="#FCB033" d="M4.812,16.353c-2.294,0-4.161-1.866-4.161-4.162s1.867-4.164,4.161-4.164
					c2.296,0,4.163,1.868,4.163,4.164S7.108,16.353,4.812,16.353z M4.812,9.386c-1.544,0-2.801,1.258-2.801,2.805
					c0,1.545,1.257,2.806,2.801,2.806c1.545,0,2.803-1.261,2.803-2.806C7.615,10.644,6.357,9.386,4.812,9.386z"/>
			</g>
		</g>
		<g>
			<g>
				<path fill="#FCB033" d="M17.822,17.188c-0.006,0-0.016,0-0.026,0H14.58c-0.375,0-0.68-0.106-0.68-0.483
					c0-7.865-5.658-13.699-13.406-13.699C0.119,3.002,0,2.795,0,2.419v-3.216c0-0.375,0.119-0.683,0.495-0.683
					c9.783,0,17.964,8.307,18.073,18.181c0.02,0.063-0.021-0.066-0.021,0C18.55,17.078,18.198,17.188,17.822,17.188z M15.247,16.188
					h1.854C16.746,7.188,10,0.263,1-0.102v1.855C8,2.081,14.93,7.188,15.247,16.188z"/>
			</g>
		</g>
		<g>
			<g>
				<path fill="#FCB033" d="M24.127,17.188c-0.006,0-0.018,0-0.027,0h-3.213c-0.376,0-0.681-0.106-0.681-0.483
					c0-10.521-9.297-20.008-19.711-20.008C0.119-3.304,0-3.51,0-3.885v-3.219c0-0.375,0.119-0.68,0.495-0.68
					c13.887,0,24.28,10.512,24.377,24.484c0.019,0.063-0.019-0.067-0.019-0.001C24.854,17.078,24.503,17.188,24.127,17.188z
					 M21.555,16.188h1.856C23.086,3.188,13-6.081,1-6.413v1.857C12-4.157,21.164,5.188,21.555,16.188z"/>
			</g>
		</g>
	</g>
</g>
<g id="video-phone" display="none">
	<g display="inline">
		<path fill="#FCB033" d="M21-5.959v20.73c0,0.494-0.727,1.414-1.33,1.414H5.738C5.134,16.188,4,15.268,4,14.773V-5.959
			c0-0.518,1.189-0.854,1.738-0.854H19.67C20.219-6.813,21-6.474,21-5.959z M5,14.773c0,0.131,0.724,0.414,0.738,0.414H20
			c0,0,0-0.283,0-0.414V-5.959c0-0.139,0,0.146,0,0.146H5.738C5.558-5.813,5-6.096,5-5.959V14.773z"/>
	</g>
	<g display="inline">
		<path fill="#FCB033" d="M16.82-4.813H8.076C7.605-4.813,8-4.139,8-3.589V6.833c0,0.55-0.395,0.354,0.076,0.354h8.744
			C17.313,7.188,17,7.341,17,6.833V-3.589C17-4.096,17.313-4.813,16.82-4.813z M16.82,7.188h-0.609
			c-0.141-2-1.746-3.452-3.711-3.452S8.929,5.188,8.789,7.188H8.076C7.924,7.188,8,6.948,8,6.833V-3.589
			c0-0.114-0.076-0.226,0.076-0.226h8.744c0.154,0,0.18,0.058,0.18,0.226V6.833C17,7.002,16.975,7.188,16.82,7.188z"/>
		<circle fill="#FCB033" cx="12.216" cy="0.746" r="1.984"/>
	</g>
	<g display="inline">
		<path fill="#FCB033" d="M7,7.188v-12h11v12H7z M8-4.813v12h9v-12H8z"/>
	</g>
	<rect x="7" y="6.188" display="inline" fill="#FCB033" width="11" height="1"/>
	<path display="inline" fill="#E7A723" d="M7.676,14.259v0.006l0.105-0.044c0.023-0.013,0.04-0.013,0.061-0.027
		c0.017-0.003,0.029-0.014,0.042-0.019l1.605-0.688l0.069-0.047c0.038-0.018,0.071-0.04,0.104-0.062l0.106-0.07l-0.003-0.024
		c0.279-0.243,0.408-0.573,0.296-1.073c-0.083-0.357,0.111-0.455,0.431-0.503c1.073-0.148,2.146-0.188,3.22-0.063
		c0.995,0.112,1.013,0.118,0.987,1.104c-0.006,0.197,0.049,0.333,0.137,0.44l0.008,0.037l0.125,0.063
		c0.051,0.03,0.074,0.071,0.146,0.104c0.213,0.087,0.429,0.179,0.644,0.271l0.771,0.37c0.091,0.044,0.183,0.084,0.27,0.133
		c0.021,0.014,0.038,0.013,0.061,0.021l0.129,0.063l-0.008-0.019c0.313,0.104,0.508-0.039,0.709-0.328
		c1.106-1.593,0.342-3.826-1.556-4.36c-2.479-0.695-4.973-0.678-7.461-0.024c-0.484,0.13-0.903,0.379-1.254,0.738
		c-1.028,1.032-1.116,2.722-0.209,3.79C7.351,14.221,7.485,14.306,7.676,14.259z"/>
</g>
</svg>
