<?xml version="1.0" encoding="utf-8"?>
<!-- Generator: Adobe Illustrator 16.0.0, SVG Export Plug-In . SVG Version: 6.00 Build 0)  -->
<!DOCTYPE svg PUBLIC "-//W3C//DTD SVG 1.1//EN" "http://www.w3.org/Graphics/SVG/1.1/DTD/svg11.dtd">
<svg version="1.1" id="Layer_1" xmlns="http://www.w3.org/2000/svg" xmlns:xlink="http://www.w3.org/1999/xlink" x="0px" y="0px"
	 width="66.333px" height="79.454px" viewBox="0 0 66.333 79.454" enable-background="new 0 0 66.333 79.454" xml:space="preserve">
<g id="Layer_1_1_" display="none">
	<g display="inline">
		<path fill="#E7A723" d="M5.762,20.167c-3.344,0-6.066-2.719-6.066-6.062s2.723-6.063,6.066-6.063c0.939,0,1.842,0.209,2.68,0.622
			C8.702,8.79,8.807,9.103,8.68,9.361C8.555,9.621,8.24,9.729,7.982,9.6c-0.695-0.342-1.441-0.515-2.22-0.515
			c-2.77,0-5.023,2.252-5.023,5.02c0,2.767,2.254,5.019,5.023,5.019c2.771,0,5.025-2.252,5.025-5.019
			c0-0.883-0.232-1.749-0.672-2.507c-0.146-0.25-0.061-0.568,0.189-0.713c0.25-0.144,0.568-0.061,0.713,0.189
			c0.531,0.916,0.813,1.964,0.813,3.03C11.83,17.448,9.107,20.167,5.762,20.167z"/>
	</g>
	<path display="inline" fill="#E7A723" d="M11.303,7.934c-0.229-0.177-0.557-0.135-0.732,0.091l-5.529,7.099l-1.104-2.107
		c-0.131-0.256-0.447-0.353-0.703-0.222c-0.256,0.134-0.354,0.449-0.221,0.704l1.479,2.825c0,0.002,0.002,0.002,0.004,0.004
		c0.033,0.063,0.078,0.12,0.137,0.166c0.012,0.01,0.027,0.013,0.039,0.021c0.016,0.01,0.029-0.079,0.045-0.07
		c0.076,0.039,0.168,0.062,0.25,0.062l-0.014-0.093c0.002,0,0.002,0,0.002,0c0.004,0,0.008,0.093,0.012,0.093
		c0.076-0.002,0.15,0.028,0.219-0.006c0.004-0.001,0.006,0.024,0.01,0.022c0.066-0.035,0.121-0.07,0.164-0.125
		c0.002-0.002,0.004,0.003,0.006,0.001l6.027-7.734C11.57,8.437,11.529,8.112,11.303,7.934z"/>
</g>
<g id="Layer_2" display="none">
	<path display="inline" fill="#EEA421" d="M-0.554,19.958c0-2.9,2.351-5.252,5.252-5.252c2.9,0,5.251,2.352,5.251,5.252"/>
	<circle display="inline" fill="#EEA421" cx="4.196" cy="10.413" r="2.375"/>
</g>
<g id="Layer_3" display="none">
	<g display="inline">
		<g>
			<path fill="#E7A723" d="M10.732,9.356c0,0.605-0.002,1.219,0,1.832c0.002,0.107-0.035,0.157-0.148,0.156
				c-0.613-0.002-1.227,0-1.947,0c0.225-0.215,0.367-0.373,0.535-0.504c0.199-0.156,0.135-0.25-0.025-0.392
				C7.143,8.673,4.061,8.84,2.28,10.831c-0.805,0.898-1.221,1.953-1.258,3.158c-0.013,0.383-0.188,0.6-0.489,0.6
				C0.22,14.59,0.042,14.361,0.046,13.96c0.025-2.826,2.269-5.324,5.076-5.66C6.94,8.08,8.525,8.583,9.881,9.807
				c0.137,0.123,0.209,0.133,0.33-0.006c0.141-0.163,0.305-0.307,0.461-0.458C10.676,9.34,10.691,9.347,10.732,9.356z"/>
			<path fill="#E7A723" d="M1.42,16.149c0.006,0.275-0.206,0.495-0.48,0.496c-0.271,0.002-0.497-0.224-0.495-0.49
				c0.003-0.251,0.221-0.474,0.473-0.484C1.187,15.658,1.415,15.874,1.42,16.149z"/>
			<path fill="#E7A723" d="M2.114,18.393c-0.263,0.008-0.5-0.223-0.502-0.488c-0.002-0.254,0.205-0.473,0.464-0.485
				c0.278-0.015,0.502,0.188,0.511,0.464C2.596,18.155,2.381,18.387,2.114,18.393z"/>
			<path fill="#E7A723" d="M9.688,18.393c-0.268-0.008-0.479-0.24-0.469-0.514c0.012-0.275,0.234-0.476,0.514-0.46
				c0.258,0.015,0.467,0.237,0.461,0.489C10.189,18.172,9.949,18.403,9.688,18.393z"/>
			<path fill="#E7A723" d="M3.834,19.559c-0.269-0.006-0.482-0.236-0.475-0.51c0.01-0.275,0.23-0.477,0.511-0.464
				c0.259,0.013,0.466,0.228,0.465,0.483C4.333,19.332,4.094,19.565,3.834,19.559z"/>
			<path fill="#E7A723" d="M8.443,19.075c-0.004,0.268-0.236,0.495-0.5,0.487c-0.266-0.007-0.486-0.244-0.477-0.511
				c0.012-0.26,0.223-0.462,0.484-0.465C8.227,18.585,8.445,18.802,8.443,19.075z"/>
			<path fill="#E7A723" d="M5.904,19.963c-0.269,0.002-0.495-0.224-0.492-0.492c0.002-0.27,0.231-0.49,0.5-0.479
				c0.259,0.007,0.466,0.216,0.472,0.476C6.39,19.737,6.174,19.961,5.904,19.963z"/>
		</g>
		<path fill="#E7A723" d="M8.664,15.266l0.002-0.002l-0.064-0.025c-0.014-0.005-0.021-0.012-0.037-0.017
			c-0.008-0.003-0.018-0.006-0.025-0.008L7.577,14.83l-0.05-0.01c-0.023-0.007-0.047-0.012-0.07-0.017l-0.074-0.017l-0.01,0.013
			c-0.219-0.017-0.412,0.07-0.574,0.328c-0.116,0.184-0.239,0.146-0.393,0.029c-0.514-0.387-0.981-0.82-1.382-1.324
			c-0.37-0.463-0.376-0.473,0.047-0.876c0.086-0.082,0.12-0.16,0.128-0.244l0.013-0.019l-0.027-0.078
			c-0.007-0.035,0.001-0.063-0.017-0.104c-0.055-0.127-0.105-0.255-0.157-0.384l-0.17-0.48c-0.019-0.056-0.04-0.111-0.057-0.168
			c-0.004-0.014-0.011-0.021-0.015-0.033l-0.029-0.08l-0.003,0.01c-0.089-0.174-0.231-0.197-0.436-0.16
			c-1.136,0.206-1.751,1.469-1.177,2.488c0.75,1.332,1.808,2.373,3.131,3.141c0.256,0.148,0.539,0.222,0.837,0.217
			c0.865-0.004,1.611-0.678,1.678-1.508C8.783,15.418,8.764,15.327,8.664,15.266z"/>
	</g>
</g>
<path fill="#5C220F" d="M65.488,33c0-17.674-14.327-32-32-32c-17.674,0-32,14.326-32,32c0,15.061,10.408,27.686,24.422,31.09
	c4.053,7.885,7.785,14.285,7.785,14.285s3.769-6.459,7.845-14.398C55.314,60.407,65.488,47.893,65.488,33z"/>
<g enable-background="new    ">
	<path fill="#FFFFFF" d="M23.925,27.448c-1.196,0-2.136,0.424-2.821,1.271c-0.685,0.848-1.027,2.018-1.027,3.509
		c0,1.562,0.33,2.743,0.988,3.544s1.612,1.201,2.86,1.201c0.54,0,1.062-0.053,1.567-0.16c0.505-0.107,1.03-0.246,1.576-0.414v1.785
		c-0.999,0.377-2.13,0.565-3.396,0.565c-1.863,0-3.294-0.564-4.292-1.693c-0.999-1.129-1.498-2.744-1.498-4.846
		c0-1.323,0.242-2.481,0.727-3.474c0.484-0.992,1.186-1.753,2.103-2.281s1.994-0.792,3.23-0.792c1.3,0,2.501,0.272,3.604,0.818
		l-0.749,1.732c-0.43-0.203-0.884-0.382-1.363-0.535C24.957,27.525,24.453,27.448,23.925,27.448z"/>
	<path fill="#FFFFFF" d="M34.208,38.576h-2.081V27.631h-3.744v-1.785h9.569v1.785h-3.744V38.576z"/>
	<path fill="#FFFFFF" d="M45.318,27.448c-1.196,0-2.136,0.424-2.821,1.271c-0.685,0.848-1.027,2.018-1.027,3.509
		c0,1.562,0.33,2.743,0.988,3.544s1.612,1.201,2.86,1.201c0.54,0,1.062-0.053,1.567-0.16c0.505-0.107,1.03-0.246,1.576-0.414v1.785
		c-0.999,0.377-2.131,0.565-3.396,0.565c-1.863,0-3.294-0.564-4.292-1.693c-0.999-1.129-1.497-2.744-1.497-4.846
		c0-1.323,0.242-2.481,0.727-3.474s1.186-1.753,2.103-2.281s1.994-0.792,3.23-0.792c1.3,0,2.501,0.272,3.604,0.818l-0.748,1.732
		c-0.43-0.203-0.885-0.382-1.363-0.535C46.35,27.525,45.846,27.448,45.318,27.448z"/>
</g>
</svg>
