<?xml version="1.0" encoding="utf-8"?>
<!-- Generator: Adobe Illustrator 16.0.0, SVG Export Plug-In . SVG Version: 6.00 Build 0)  -->
<!DOCTYPE svg PUBLIC "-//W3C//DTD SVG 1.1//EN" "http://www.w3.org/Graphics/SVG/1.1/DTD/svg11.dtd">
<svg version="1.1" id="Layer_1" xmlns="http://www.w3.org/2000/svg" xmlns:xlink="http://www.w3.org/1999/xlink" x="0px" y="0px"
	 width="55px" height="55px" viewBox="0 0 55 55" enable-background="new 0 0 55 55" xml:space="preserve">
<g>
	<circle cx="27.5" cy="27.5" r="26.286"/>
	<path fill="#E7A723" d="M27.5,54.786c-15.045,0-27.286-12.24-27.286-27.286c0-15.045,12.24-27.286,27.286-27.286
		S54.786,12.455,54.786,27.5C54.786,42.546,42.545,54.786,27.5,54.786z M27.5,2.214C13.557,2.214,2.214,13.557,2.214,27.5
		c0,13.942,11.343,25.286,25.286,25.286c13.943,0,25.287-11.344,25.287-25.286C52.786,13.557,41.442,2.214,27.5,2.214z"/>
</g>
<g enable-background="new    ">
	<path fill="#FFFFFF" d="M21.157,34.828c-0.67,0-1.198,0.237-1.582,0.713s-0.576,1.131-0.576,1.968c0,0.876,0.185,1.538,0.554,1.987
		s0.904,0.674,1.604,0.674c0.303,0,0.596-0.03,0.879-0.09c0.283-0.061,0.578-0.138,0.884-0.232v1.001
		c-0.56,0.212-1.195,0.317-1.904,0.317c-1.045,0-1.847-0.316-2.407-0.949c-0.56-0.634-0.84-1.539-0.84-2.718
		c0-0.742,0.136-1.392,0.408-1.948s0.665-0.983,1.179-1.279s1.118-0.444,1.812-0.444c0.729,0,1.403,0.153,2.021,0.459l-0.42,0.972
		c-0.241-0.114-0.496-0.214-0.764-0.301C21.735,34.871,21.453,34.828,21.157,34.828z"/>
	<path fill="#FFFFFF" d="M29.185,36.088c0,0.745-0.244,1.316-0.732,1.714c-0.489,0.397-1.184,0.596-2.085,0.596h-0.742v2.671h-1.167
		V33.93h2.056c0.892,0,1.56,0.183,2.004,0.547S29.185,35.378,29.185,36.088z M25.625,37.416h0.62c0.599,0,1.039-0.104,1.318-0.313
		s0.42-0.534,0.42-0.977c0-0.41-0.125-0.716-0.376-0.918s-0.641-0.303-1.172-0.303h-0.811V37.416z"/>
	<path fill="#FFFFFF" d="M36.24,41.068h-1.172v-3.218h-3.291v3.218H30.61V33.93h1.167v2.92h3.291v-2.92h1.172V41.068z"/>
</g>
<g>
	<path fill="#FFFFFF" d="M39.721,18.179c-0.65,0-1.178,0.441-1.178,0.988v4.391H15.909v-8.134c0-0.546-0.527-0.989-1.177-0.989
		c-0.649,0-1.177,0.443-1.177,0.989v12.088h2.354v-1.978h22.634v1.977h2.354v-8.344C40.897,18.621,40.371,18.179,39.721,18.179z"/>
</g>
<g>
	<circle fill="#FFFFFF" cx="18.916" cy="20.875" r="2.224"/>
</g>
<g>
	<path fill="#FFFFFF" d="M21.502,22.875L21.502,22.875c0-1.543,0.665-2.793,1.484-2.793h13.43c0.82,0,1.485,1.251,1.485,2.793l0,0"
		/>
</g>
<g>
</g>
</svg>
