<?xml version="1.0" encoding="utf-8"?>
<!-- Generator: Adobe Illustrator 16.0.0, SVG Export Plug-In . SVG Version: 6.00 Build 0)  -->
<!DOCTYPE svg PUBLIC "-//W3C//DTD SVG 1.1//EN" "http://www.w3.org/Graphics/SVG/1.1/DTD/svg11.dtd">
<svg version="1.1" id="Layer_1" xmlns="http://www.w3.org/2000/svg" xmlns:xlink="http://www.w3.org/1999/xlink" x="0px" y="0px"
	 width="71px" height="70.5px" viewBox="0 0 71 70.5" enable-background="new 0 0 71 70.5" xml:space="preserve">
<g>
	<path d="M41.173,23.061c0.13,0,0.259,0.05,0.356,0.15c0.193,0.197,0.188,0.514-0.008,0.707L30.259,34.946l11.263,11.029
		c0.197,0.193,0.201,0.51,0.008,0.707c-0.192,0.196-0.51,0.201-0.705,0.008L28.83,34.946l11.994-11.743
		C40.92,23.109,41.047,23.061,41.173,23.061z"/>
</g>
<g>
	<path d="M35.375,70.088c-19.201,0-34.821-15.62-34.821-34.821c0-19.201,15.621-34.821,34.821-34.821s34.82,15.621,34.82,34.821
		C70.195,54.467,54.576,70.088,35.375,70.088z M35.375,1.446c-18.649,0-33.821,15.172-33.821,33.821s15.173,33.821,33.821,33.821
		c18.648,0,33.82-15.172,33.82-33.821S54.023,1.446,35.375,1.446z"/>
</g>
</svg>
